<?xml version="1.0" encoding="utf-8"?>
<!-- Generator: Adobe Illustrator 25.2.3, SVG Export Plug-In . SVG Version: 6.00 Build 0)  -->
<svg version="1.1" id="圖層_1" xmlns="http://www.w3.org/2000/svg" xmlns:xlink="http://www.w3.org/1999/xlink" x="0px" y="0px"
	 viewBox="0 0 150 60" style="enable-background:new 0 0 150 60;" xml:space="preserve">
<style type="text/css">
	.st0{fill:#1F1E1D;}
</style>
<path d="M2.8,0.1l1.3,0.4C3.8,1.4,3.4,2.1,3,2.8V11H1.7V4.8c-0.3,0.4-0.7,0.8-1,1.1C0.5,5.5,0.3,5,0,4.6c0,0,0,0,0-0.1
	c0.9-0.9,1.8-2,2.4-3.4C2.6,0.8,2.7,0.5,2.8,0.1z M8.2,9.3h3v1.3H3.7V9.3h3.1V7H4.3V5.7h2.5v-2H3.9V2.4h3.3C6.7,2,6.1,1.5,5.3,1.1
	l0.9-1c1,0.5,1.9,1.1,2.5,1.6c0,0,0.1,0.1,0.1,0.1L8.3,2.4H11v1.3H8.2v2h2.5V7H8.2V9.3z"/>
<path d="M14.7,3.2h6.5V8h-1.4V7.5h-5.4c-0.3,1.5-0.8,2.7-1.6,3.5c-0.2-0.3-0.5-0.5-0.9-0.8c-0.1-0.1-0.2-0.1-0.3-0.1
	c1-1.1,1.5-2.8,1.6-5c0-0.2,0-0.4,0-0.6V1l0.9,0.3c2.4-0.3,4.3-0.7,5.7-1.2l1.1,1c-1.6,0.5-3.7,0.9-6.3,1.2V3.2z M14.6,6.2h5.3V4.5
	h-5.1C14.7,5.1,14.7,5.6,14.6,6.2z"/>
<path d="M33.9,7.5v1.1h-2.6v1.1c0,0.5-0.1,0.9-0.4,1c-0.1,0-0.1,0.1-0.3,0.1c-0.3,0.1-1,0.2-2,0.2c0-0.3-0.2-0.7-0.4-1.2
	c0.4,0,0.8,0,1.4,0c0.1,0,0.3-0.1,0.3-0.2V8.5h-3.3c0.6,0.4,1,0.8,1.2,1.1l-1,0.9C26.6,10,26,9.5,25.3,9c0,0-0.1-0.1-0.1-0.1
	l0.5-0.4h-2.3V7.4H30V7c-2.5,0-4.6,0.1-6.1,0.1l0-1c0,0,1.4,0,4.1,0V5.6h-3.4V2.3h3.4V1.9h-4.3V0.8h4.3V0.1h1.4v0.7h4.3v1.1h-4.3
	v0.4h3.5v3.3H32c0.6,0.3,1.1,0.6,1.5,0.9l-0.8,0.7c-0.2-0.2-0.4-0.3-0.5-0.4l-0.8,0v0.5L33.9,7.5L33.9,7.5z M25.8,3.2v0.4h2.1V3.2
	H25.8z M25.8,4.8h2.1V4.4h-2.1V4.8z M31.4,3.2h-2.2v0.4h2.2V3.2z M29.3,4.8h2.2V4.4h-2.2V4.8z M29.3,5.7v0.4h1.5l-0.5-0.2l0.3-0.2
	H29.3z"/>
<path d="M45.3,7.7v1.2h-4.5v0.8c0,0.5-0.1,0.8-0.4,1c-0.1,0-0.2,0.1-0.3,0.1C39.6,11,38.9,11,37.7,11c-0.1-0.3-0.3-0.7-0.5-1.1
	c0.4,0,1.1,0,1.8,0c0.2,0,0.3-0.1,0.3-0.3V8.9h-4.5V7.7h4.5V7.2h0.7c0.3-0.1,0.7-0.3,1.1-0.4h-5.1V5.7h7l0.3-0.1l0.8,0.8
	c-0.8,0.5-1.8,0.9-2.8,1.3H45.3z M45.1,1v1.2H35V1h4.3V0.1h1.5V1H45.1z M43.9,5.2h-7.6V2.7h7.6V5.2z M37.7,3.6v0.7h4.7V3.6H37.7z"/>
<path d="M50.7,0.1H52c1.1,1.1,2.6,1.9,4.3,2.4c0.3,0.1,0.5,0.1,0.7,0.2c-0.2,0.2-0.5,0.6-0.8,1.2c-0.3-0.1-0.5-0.2-0.7-0.3v3h-8.1
	V3.6c-0.2,0.1-0.4,0.1-0.8,0.3c-0.3-0.5-0.5-0.8-0.7-1.1c1.4-0.4,2.7-1.1,3.8-1.9C50.2,0.7,50.5,0.4,50.7,0.1z M47.7,3.5h7.5
	c-0.6-0.3-1.2-0.5-1.7-0.8v0.4h-4.1V2.7C49,2.9,48.4,3.2,47.7,3.5z M48.1,11V7H55V11h-1.4v-0.3h-4.1V11H48.1z M48.6,5.8h0.8
	c-0.1-0.4-0.2-0.8-0.4-1.2l0.9-0.3h-1.3V5.8z M53.5,7.9h-4.1v0.4h4.1V7.9z M49.5,9.8h4.1V9.3h-4.1V9.8z M50.9,5.8V4.4H50
	c0.2,0.5,0.4,0.9,0.5,1.2l-0.8,0.2H50.9z M50.2,2.2h2.6c-0.5-0.3-0.9-0.7-1.3-1C51.1,1.5,50.7,1.8,50.2,2.2z M52.8,4.3H52v1.5h1.1
	l-0.7-0.2C52.6,5.1,52.8,4.7,52.8,4.3z M54.4,5.8V4.4h-1.3L54,4.6c-0.3,0.5-0.4,0.9-0.7,1.2H54.4z"/>
<path d="M62.3,1.9V1.4h2.2V0.2h1.4v1.2h2.4v2.2h-0.8v2.8h-3.3v0.7h3.7V11h-1.3v-0.5h-2.5V11h-1.3V3.6h-0.6V2.2l-0.7,0.8
	c-0.1-0.1-0.2-0.3-0.3-0.4c-0.1-0.1-0.2-0.3-0.4-0.5c-0.1-0.1-0.3-0.3-0.4-0.5c-0.1-0.1-0.3-0.3-0.4-0.4c-0.2,0.3-0.4,0.6-0.6,1
	c-0.2,0.3-0.5,0.7-0.8,1h0.9v-1h1.1v1H62v4h-2.6V9c0.2,0,0.4-0.1,0.6-0.1c0.2,0,0.4-0.1,0.7-0.1c-0.1-0.1-0.1-0.3-0.2-0.4
	c-0.1-0.1-0.1-0.3-0.2-0.4l1.1-0.4c0.1,0.2,0.3,0.4,0.4,0.7c0.1,0.2,0.3,0.5,0.4,0.7c0.1,0.3,0.2,0.5,0.3,0.7
	c0.1,0.2,0.1,0.4,0.2,0.6l-1.1,0.5c0-0.1-0.1-0.3-0.1-0.4c0-0.1-0.1-0.3-0.2-0.5c-0.5,0.2-1.1,0.3-1.7,0.5c-0.5,0.1-1.1,0.3-1.5,0.4
	l-0.3-1.2c0.1,0,0.2,0,0.3-0.1c0.1,0,0.2-0.1,0.4-0.1V4c-0.1-0.1-0.3-0.3-0.4-0.5c-0.2-0.2-0.3-0.3-0.5-0.4c0.5-0.4,0.9-0.9,1.3-1.4
	s0.6-1,0.8-1.5h1.2c0.1,0.1,0.3,0.3,0.4,0.4c0.1,0.1,0.3,0.3,0.5,0.4c0.1,0.1,0.3,0.3,0.4,0.4C62.1,1.6,62.2,1.7,62.3,1.9z
	 M59.3,4.8h1.5V4.3h-1.5V4.8z M59.3,6.3h1.5V5.7h-1.5V6.3z M63.6,3.3h3.4V2.4h-3.4V3.3z M64.2,5.3h2V4.4h-2V5.3z M64.2,9.3h2.5V8.2
	h-2.5V9.3z"/>
<path class="st0" d="M0.2,25h6.8v0.6H0.2V25z M0.8,20.5h5.5v0.6H0.8V20.5z"/>
<path class="st0" d="M14,21.9h-1.5v0.4h1.7v1.2h-2.1c-0.1,0.3-0.2,0.4-0.3,0.5h2.7v0.5h-0.9c-0.1,0.4-0.3,0.7-0.6,1
	c0.6,0.2,1.1,0.4,1.4,0.5l-0.3,0.4c-0.3-0.1-0.8-0.4-1.5-0.6c-0.5,0.3-1.4,0.5-2.5,0.6c0-0.1-0.1-0.3-0.2-0.4
	c0.9-0.1,1.6-0.2,2.1-0.4c-0.2-0.1-0.5-0.1-0.9-0.3l-0.1,0.1l-0.5-0.2c0.1-0.2,0.3-0.5,0.5-0.8H9.9v-0.5h1.3c0-0.1,0.1-0.2,0.3-0.5
	h-1.2v-1.2H12v-0.4h-1.5V21H10v0.4H9.1V22c0.2,0.3,0.5,0.8,0.9,1.3l-0.3,0.4c-0.1-0.2-0.3-0.6-0.6-1.1v3.6H8.6v-3.5
	c-0.3,0.9-0.6,1.6-0.9,2.1c-0.1-0.1-0.2-0.3-0.3-0.5c0.4-0.5,0.7-1.3,0.9-2.2c0.1-0.2,0.1-0.4,0.1-0.6H7.6v-0.5h1v-1.6h0.5v1.6H10
	v-0.4h0.5v-0.8H12v-0.5h0.5v0.5h1.5v0.8h0.5V21H14V21.9z M10.8,22.6v0.5H12v-0.5H10.8z M12,20.3h-1v0.4h1V20.3z M11,21.5h1v-0.4h-1
	V21.5z M13.1,24.4h-1.5c0,0.1-0.1,0.3-0.3,0.5c0.4,0.1,0.8,0.2,1.3,0.3C12.8,25,13,24.8,13.1,24.4z M13.5,20.3h-1v0.4h1V20.3z
	 M12.5,21.5h1v-0.4h-1V21.5z M13.7,22.6h-1.1v0.5h1.1V22.6z"/>
<path class="st0" d="M22,23.4C22,23.4,22,23.5,22,23.4c0,0.1,0,0.2,0,0.2c0,0.4-0.1,0.7-0.1,1c0,0.3-0.1,0.5-0.1,0.7
	c0,0.2-0.1,0.4-0.1,0.5c0,0.1-0.1,0.2-0.2,0.3c-0.1,0.1-0.1,0.1-0.2,0.1c-0.1,0-0.2,0-0.3,0.1c0,0-0.1,0-0.1,0c-0.1,0-0.1,0-0.2,0
	c-0.1,0-0.2,0-0.3,0c-0.1,0-0.2,0-0.3,0c0-0.1,0-0.2-0.1-0.3c0-0.1-0.1-0.2-0.1-0.3c0.2,0,0.4,0,0.5,0c0.2,0,0.3,0,0.4,0
	c0.1,0,0.1,0,0.2,0c0,0,0.1,0,0.1-0.1c0,0,0.1-0.1,0.1-0.2c0-0.1,0.1-0.2,0.1-0.4c0-0.1,0.1-0.3,0.1-0.5c0-0.2,0.1-0.5,0.1-0.8h-4.7
	c-0.2,0.2-0.4,0.3-0.6,0.5c-0.2,0.1-0.4,0.3-0.7,0.4c0-0.1-0.1-0.1-0.1-0.3c-0.1-0.1-0.1-0.2-0.2-0.2c0.7-0.4,1.2-0.8,1.7-1.4
	c0.5-0.5,0.9-1.1,1.2-1.8h-2.5v-0.5h2.8c0.1-0.2,0.2-0.4,0.3-0.7c0.1-0.2,0.1-0.4,0.2-0.7l0.6,0.1c-0.1,0.2-0.1,0.4-0.2,0.6
	c-0.1,0.2-0.1,0.4-0.2,0.6h2c0,0.2-0.1,0.5-0.1,0.7c0,0.3-0.1,0.5-0.1,0.7h0.9c0,0.2-0.1,0.5-0.1,0.7c0,0.3-0.1,0.5-0.1,0.7L22,23.4
	L22,23.4z M15.6,26c0.1-0.1,0.2-0.2,0.3-0.3c0.1-0.1,0.2-0.3,0.3-0.4c0.1-0.1,0.1-0.3,0.2-0.4c0.1-0.1,0.1-0.3,0.1-0.4l0.5,0.1
	c0,0.1-0.1,0.3-0.1,0.5c-0.1,0.2-0.1,0.3-0.2,0.5c-0.1,0.1-0.1,0.3-0.3,0.4c-0.1,0.1-0.2,0.3-0.3,0.4L15.6,26z M17.2,20.6
	c0-0.1-0.1-0.1-0.1-0.3c-0.1-0.1-0.1-0.2-0.2-0.3c-0.1-0.1-0.1-0.2-0.2-0.3c-0.1-0.1-0.1-0.2-0.2-0.3l0.5-0.2
	c0.1,0.1,0.1,0.1,0.2,0.3c0.1,0.1,0.1,0.2,0.2,0.3c0.1,0.1,0.1,0.2,0.2,0.3c0.1,0.1,0.1,0.2,0.1,0.2L17.2,20.6z M20.6,23.4
	c0-0.1,0.1-0.3,0.1-0.4c0-0.1,0.1-0.3,0.1-0.5h-3c-0.1,0.1-0.2,0.3-0.3,0.4c-0.1,0.1-0.2,0.3-0.4,0.4H20.6z M17.9,24.4
	c0.1,0.3,0.1,0.5,0.2,0.8c0,0.3,0.1,0.5,0.1,0.7L17.7,26c0-0.2,0-0.4,0-0.7c0-0.3-0.1-0.5-0.2-0.8L17.9,24.4z M18.6,21.2
	c-0.1,0.1-0.1,0.3-0.2,0.4c-0.1,0.1-0.1,0.3-0.3,0.4H20c0-0.1,0.1-0.3,0.1-0.4c0-0.1,0.1-0.3,0.1-0.4H18.6z M19,24.3
	c0,0.1,0.1,0.2,0.1,0.3c0,0.1,0.1,0.2,0.1,0.4c0,0.1,0.1,0.2,0.1,0.3c0,0.1,0,0.2,0.1,0.3L19,25.7c0-0.1,0-0.2-0.1-0.3
	c0-0.1-0.1-0.2-0.1-0.3c0-0.1-0.1-0.2-0.1-0.4c0-0.1-0.1-0.2-0.1-0.3L19,24.3z M20.3,25.3c0-0.1-0.1-0.3-0.2-0.5
	c-0.1-0.2-0.2-0.4-0.3-0.5l0.4-0.1c0.1,0.1,0.2,0.3,0.3,0.5c0.1,0.2,0.2,0.4,0.3,0.5L20.3,25.3z"/>
<path class="st0" d="M24.3,19.4l0.5,0.1c-0.2,0.5-0.5,1.1-0.8,1.6v5.2h-0.5v-4.4c-0.3,0.4-0.6,0.7-0.8,1c-0.1-0.2-0.2-0.4-0.3-0.5
	c0.7-0.6,1.2-1.4,1.7-2.4C24.1,19.8,24.2,19.6,24.3,19.4z M27.3,25.6h2.2v0.5h-4.9v-0.5h2.2v-1.9H25v-0.5h1.8v-1.7h-2v-0.5h2.6
	c-0.4-0.4-0.9-0.7-1.6-1.1c0,0,0,0,0,0l0.4-0.4c0.8,0.4,1.3,0.8,1.7,1.2l-0.3,0.4h1.9v0.5h-2v1.7h1.8v0.5h-1.8L27.3,25.6L27.3,25.6z
	"/>
<path class="st0" d="M31.7,21.4h4.5v3h-0.5V24h-4c-0.2,1-0.5,1.8-1.1,2.4c-0.1-0.1-0.2-0.3-0.4-0.4c0,0,0,0,0,0
	c0.7-0.7,1-1.6,1.1-2.9c0-0.1,0-0.3,0-0.5v-2.4l0.4,0.1c1.8-0.3,3.1-0.5,3.9-0.8l0.5,0.4c-1,0.3-2.4,0.6-4.2,0.8L31.7,21.4
	L31.7,21.4z M31.7,23.4h3.9v-1.5h-3.9v0.7C31.7,22.9,31.7,23.2,31.7,23.4z"/>
<path class="st0" d="M44.1,24.2v0.5h-1.8v1.1c0,0.3-0.1,0.4-0.2,0.5c0,0-0.1,0-0.1,0c-0.2,0.1-0.6,0.1-1.2,0.1
	c0-0.1-0.1-0.3-0.2-0.5c0.5,0,0.8,0,1,0c0.1,0,0.1-0.1,0.1-0.1v-1.1h-2.9c0.5,0.3,0.9,0.6,1.2,0.9l0,0l-0.4,0.4
	c-0.3-0.3-0.7-0.6-1.2-1c0,0,0,0,0,0l0.4-0.3h-1.6v-0.5h4.5v-0.5c-1.5,0-2.8,0.1-4.2,0.1l0-0.4c0.8,0,1.8,0,2.8,0v-0.4h-2.3v-2.1
	h2.3v-0.4h-2.9v-0.5h2.9v-0.6h0.5v0.6h2.9v0.5h-2.9v0.4h2.4v2.1h-0.9c0.6,0.2,1,0.5,1.4,0.7l-0.3,0.3c-0.1-0.1-0.3-0.2-0.4-0.3
	l-0.8,0v0.5L44.1,24.2L44.1,24.2z M38.6,21.2v0.5h1.8v-0.5H38.6z M38.6,22.5h1.8v-0.5h-1.8V22.5z M42.8,21.2h-1.9v0.5h1.9V21.2z
	 M42.8,22.5v-0.5h-1.9v0.5H42.8z M40.9,22.9v0.4l1.5,0c-0.3-0.1-0.4-0.2-0.6-0.2l0.2-0.2L40.9,22.9L40.9,22.9z"/>
<path class="st0" d="M45.8,21v0.9c0,2-0.3,3.4-0.9,4.4c-0.1-0.1-0.3-0.2-0.5-0.3c0.5-0.8,0.8-2.1,0.8-3.7c0-0.1,0-0.2,0-0.4v-2.2H51
	V21L45.8,21L45.8,21z M47.4,23.7h3.8c0,0,0,0.1,0,0.2c-0.1,1.2-0.1,1.9-0.3,2.1c0,0,0,0.1-0.1,0.1c-0.1,0.1-0.3,0.2-0.4,0.2
	s-0.4,0-0.7,0c0,0,0-0.1,0-0.2l-0.1,0c0,0-0.1-0.1-0.2-0.2c-1.2,0.1-2.3,0.1-3.4,0.2l0-0.4c0.1,0,0.3,0,0.6,0c0.5,0,0.9,0,1.2,0
	v-0.3h-1.4v-0.7c-0.2,0.1-0.3,0.3-0.5,0.4c-0.1-0.1-0.2-0.2-0.4-0.3c0.5-0.3,1-0.7,1.4-1.2h-0.8v-0.9h4.8v0.9h-3.4
	C47.5,23.5,47.4,23.6,47.4,23.7z M50.5,20.2h-4.7v0.5h4.7V20.2z M46.2,22.2v-0.3h1.6v0.3H46.2z M46.2,21.3h1.6v0.3h-1.6V21.3z
	 M46.6,22.8v0.4h0.9v-0.4H46.6z M47.8,24.1h-0.8c-0.1,0.1-0.3,0.2-0.3,0.3h1.1V24.1z M46.9,25h0.9v-0.4h-0.9V25z M48,22.8v0.4h1
	v-0.4H48z M48.8,22.3h-0.5v-1.1h0.5V22.3z M49.7,25.3h-0.4c0.3,0.2,0.5,0.4,0.7,0.7h0.2c0.1,0,0.1,0,0.2-0.1
	c0.1-0.1,0.2-0.7,0.3-1.8h-2.3v0.3h1.4V25.3z M49.3,25v-0.4h-0.9V25H49.3z M48.3,25.3v0.3l0.8,0c-0.1-0.1-0.1-0.1-0.2-0.1l0.3-0.1
	H48.3z M49.2,22.2v-0.3h1.7v0.3H49.2z M49.2,21.3h1.7v0.3h-1.7V21.3z M49.5,22.8v0.4h1v-0.4H49.5z"/>
<path class="st0" d="M53.4,19.4l0.6,0.1c-0.1,0.5-0.3,0.8-0.4,1.1h1.3v5h-2.1v0.6h-0.5v-5.6h0.9C53.3,20.1,53.4,19.7,53.4,19.4z
	 M54.4,22.7v-1.6h-1.6v1.6H54.4z M52.8,25h1.6v-1.8h-1.6V25z M58.7,20.6v0.3c-0.1,2.4-0.2,3.9-0.3,4.4c-0.1,0.3-0.1,0.5-0.2,0.6
	c-0.1,0.2-0.3,0.3-0.6,0.3h0c-0.2,0-0.6,0-1.1,0c0-0.2-0.1-0.4-0.2-0.5c0.3,0,0.7,0,1.1,0c0.1,0,0.3,0,0.3-0.1
	c0.2-0.2,0.3-0.9,0.4-2.2c0-0.6,0.1-1.3,0.1-2.3h-1.9c-0.3,0.6-0.5,1-0.7,1.3c-0.1-0.1-0.2-0.2-0.5-0.3c0.5-0.7,0.9-1.6,1.2-2.8
	l0.5,0.1c-0.1,0.4-0.2,0.7-0.3,1.1H58.7z M57.4,24L57,24.3c-0.2-0.4-0.6-1.1-1.2-1.7l0.4-0.3C56.8,23,57.2,23.6,57.4,24z"/>
<path class="st0" d="M63.9,22.5l0.6,0.2c-0.3,0.8-0.7,1.4-1.2,1.9c0.8,0.6,1.8,1.1,3.1,1.2c-0.1,0.1-0.3,0.3-0.4,0.5
	c-1.3-0.3-2.3-0.7-3.2-1.4c-0.8,0.6-1.8,1.1-3.1,1.4c-0.1-0.1-0.2-0.3-0.3-0.5c0,0,0,0,0,0c1.3-0.3,2.3-0.7,3.1-1.3
	c-0.5-0.5-0.9-1.2-1.2-1.9l0.5-0.2c0.3,0.7,0.6,1.2,1.1,1.7C63.3,23.7,63.7,23.1,63.9,22.5z M61.4,21.1l0.6,0.2
	c-0.4,0.6-1,1.2-1.8,1.7c-0.1,0.1-0.2,0.1-0.3,0.2c-0.2-0.2-0.3-0.4-0.5-0.4c0.7-0.4,1.3-0.8,1.8-1.4C61.2,21.4,61.4,21.3,61.4,21.1
	z M66.1,20.3v0.5h-6.7v-0.5h3v-1h0.6v1H66.1z M63.7,21.5l0.4-0.3c0.9,0.6,1.5,1.1,2,1.6c0,0,0.1,0.1,0.1,0.1l-0.5,0.4
	c-0.4-0.4-0.9-0.9-1.7-1.5C63.9,21.6,63.8,21.5,63.7,21.5z"/>
<path class="st0" d="M66.8,21.1v-0.5h2.7v0.5H66.8z M69.3,23.7v2.2h-1.7v0.4h-0.5v-2.5H69.3z M69.3,21.7v0.5h-2.2v-0.5H69.3z
	 M67.1,23.2v-0.5h2.2v0.5H67.1z M69.3,19.7v0.5h-2.1v-0.5H69.3z M68.8,24.2h-1.2v1.3h1.2V24.2z M73.1,25.6h0.7v0.5h-4.3v-0.5h0.8
	v-4.1h2.8V25.6z M70.2,20.7v0.9h-0.5v-1.3h1.7v-0.8h0.6v0.8h1.8v1.3h-0.6v-0.9H70.2z M72.6,22h-1.7v0.8h1.7V22z M72.6,24.2v-0.9
	h-1.7v0.9H72.6z M70.9,24.7v0.9h1.7v-0.9H70.9z"/>
<path class="st0" d="M78.1,25.6h3.1v0.5h-6.7v-0.5h3v-1.5h-2.3v-0.5h5.3v0.5h-2.4V25.6z M78.4,20.7h-1.1c-0.1,0.8-0.3,1.3-0.6,1.7
	c-0.4,0.4-0.9,0.7-1.8,0.9c-0.1-0.2-0.2-0.3-0.3-0.5c0.9-0.2,1.5-0.5,1.8-0.9c0.2-0.3,0.3-0.7,0.4-1.2h-1.5v1h-0.5v-1.5h2.9v-0.8
	h0.6v0.8h3v1.4h-0.6v-0.8H79v1.5c0,0.1,0,0.2,0.1,0.2c0,0,0.1,0,0.2,0h1c0.1,0,0.2,0,0.2-0.1c0-0.1,0-0.3,0-0.5
	c0.1,0.1,0.3,0.1,0.5,0.2c0,0.4-0.1,0.7-0.3,0.8c-0.1,0.1-0.3,0.1-0.4,0.1h-1.1c-0.4,0-0.6-0.1-0.7-0.2c-0.1-0.1-0.1-0.3-0.1-0.5
	V20.7z"/>
<path class="st0" d="M84.9,22.3h-2.2v4h-0.6v-6.7h2.8V22.3z M84.3,20.1h-1.6v0.6h1.6V20.1z M82.7,21.9h1.6v-0.7h-1.6V21.9z
	 M86.6,25.7h-2.3V26h-0.5v-3.2h2.8V25.7z M86.1,23.3h-1.8V24h1.8V23.3z M84.3,25.2h1.8v-0.7h-1.8V25.2z M88.4,19.7v5.9
	c0,0.3-0.1,0.5-0.3,0.6c0,0,0,0-0.1,0c-0.2,0.1-0.6,0.1-1.3,0.1c0-0.2-0.1-0.4-0.2-0.6c0.4,0,0.8,0,1.1,0c0.1,0,0.2-0.1,0.2-0.2
	v-3.3h-2.3v-2.6H88.4z M87.8,20.1h-1.7v0.6h1.7V20.1z M86.1,21.9h1.7v-0.7h-1.7V21.9z"/>
<path class="st0" d="M92.9,23.1h-0.6v-1h1V23c0,0.5-0.2,0.9-0.7,1.2c-0.1,0-0.1,0.1-0.1,0.1L92.3,24C92.7,23.8,92.9,23.5,92.9,23.1z
	"/>
<path class="st0" d="M98.6,22.8v0.5h1.2v0.5h-1.2V24c0.3,0.3,0.7,0.6,1.2,1l-0.3,0.4c-0.1-0.2-0.4-0.5-0.8-0.9v1.8h-0.5v-1.9
	c-0.3,0.6-0.7,1.1-1.1,1.4c-0.1-0.1-0.2-0.3-0.4-0.4c0.4-0.3,0.8-0.7,1.1-1.3c0.1-0.1,0.1-0.2,0.2-0.3h-1.1v-0.5h1.3v-0.5H97v-0.5
	h1.1v-0.5c-0.3,0-0.6,0-1.1,0.1c0-0.1-0.1-0.2-0.1-0.4c0.2,0,0.6,0,1.3-0.1v-0.5h0.5v0.5c0.3,0,0.6-0.1,0.8-0.1l0.3,0.4
	c-0.3,0.1-0.7,0.1-1.1,0.2v0.6h1v0.5L98.6,22.8L98.6,22.8z M98.7,21v-0.5h-1.8v-0.5h1.8v-0.5h0.5v0.5h2v-0.5h0.6v0.5h1.8v0.5h-1.8
	V21h-0.6v-0.5h-2V21H98.7z M102.7,22.8h0.9v0.5h-4v-0.5h0.9V22h-0.8v-0.4h0.8v-0.7h0.5v0.7h1v-0.7h0.5v0.7h0.8V22h-0.8L102.7,22.8
	L102.7,22.8z M100.3,26.4v-2.7h3v2.7h-0.5v-0.2h-2v0.2H100.3z M102.7,24.1h-2v0.6h2V24.1z M100.8,25.7h2V25h-2V25.7z M101.2,22v0.8
	h1V22H101.2z"/>
<path class="st0" d="M107.9,20.9h2.7v5.5h-0.6v-0.4h-4.7v0.5h-0.6v-5.5h2.6v-1.5h0.6L107.9,20.9L107.9,20.9z M107.3,21.4h-2v1.7h2
	V21.4z M105.2,23.6v1.7h2v-1.7H105.2z M110,21.4h-2.1v1.7h2.1V21.4z M107.9,25.3h2.1v-1.7h-2.1V25.3z"/>
<path class="st0" d="M111.8,23.3v-0.9h0.4v0.9c0,1.1-0.1,1.9-0.3,2.4c-0.1-0.1-0.2-0.2-0.4-0.3c0,0,0,0,0,0
	C111.7,25,111.8,24.3,111.8,23.3z M114.6,21.9h-1.2v4.4h-0.5v-4.4h-1.2v-0.5h3V21.9z M114.4,19.9v0.5h-2.6v-0.5H114.4z M113.9,25.2
	v-2.8h0.4v2.8H113.9z M116.8,25.6h1.8v0.6h-4.1v-0.6h1.8v-3.1h-1.4V22h1.4v-2.4h0.6V22h1.5v0.5h-1.5L116.8,25.6L116.8,25.6z"/>
<path class="st0" d="M125.9,25.5V26h-6v0.4h-0.5v-6.7h6.4v0.5h-5.8v5.2L125.9,25.5L125.9,25.5z M120.6,24.9v-2h2v2H120.6z M121,23.3
	v1.1h1v-1.1H121z M124.2,20.7v1.7h-2.8v-1.7H124.2z M123.7,22v-0.9h-1.8V22H123.7z M125.1,22.9v2h-2v-2H125.1z M124.6,24.5v-1.1
	h-1.1v1.1H124.6z"/>
<path class="st0" d="M129.3,22.7V21h-2.4v1.1h-0.5v-1.5h2.9v-0.5h-2.5v-0.4h5.6v0.4h-2.6v0.5h3v1.5h-0.5V21h-2.4v1.7H129.3z
	 M130.3,25.8h1.7c0.2,0,0.3-0.1,0.4-0.2s0.1-0.4,0.1-0.7c0.1,0.1,0.3,0.1,0.5,0.2c0,0.5-0.1,0.8-0.3,1c-0.1,0.1-0.4,0.2-0.7,0.2
	h-1.8c-0.5,0-0.8-0.1-0.9-0.2c-0.1-0.1-0.1-0.3-0.1-0.5v-0.3h-1.7v0.4H127V23h5.2v2.3h-2.4v0.3c0,0.1,0,0.3,0.1,0.3
	C130,25.8,130.1,25.8,130.3,25.8z M127.1,22.6v-0.4h1.8v0.4H127.1z M128.9,21.4v0.4h-1.6v-0.4H128.9z M129.2,23.4h-1.7V24h1.7V23.4z
	 M127.5,24.9h1.7v-0.5h-1.7V24.9z M131.6,24v-0.5h-1.8V24H131.6z M129.8,24.9h1.8v-0.5h-1.8V24.9z M130.2,21.4h1.6v0.4h-1.6V21.4z
	 M130.2,22.6v-0.4h1.8v0.4H130.2z"/>
<path class="st0" d="M136.1,23.3l-0.3,0.4c-0.1-0.3-0.3-0.6-0.6-1.1v3.6h-0.5v-3.6c-0.3,0.9-0.6,1.6-1,2.1c0-0.1-0.1-0.3-0.3-0.5
	c0.4-0.5,0.7-1.2,1.1-2.2c0.1-0.2,0.1-0.4,0.2-0.7h-1.1V21h1.1v-1.6h0.5V21h0.9v0.5h-0.9V22C135.5,22.3,135.8,22.7,136.1,23.3
	C136.1,23.3,136.1,23.3,136.1,23.3z M138.5,23.4h1.9c0,0,0,0.1,0,0.2c-0.1,1.1-0.1,1.7-0.3,1.9l0,0c-0.1,0.1-0.3,0.2-0.4,0.2
	c-0.2,0-0.4,0-0.7,0c0-0.2-0.1-0.4-0.1-0.5c0.2,0,0.4,0,0.6,0c0.1,0,0.2,0,0.2-0.1c0.1-0.1,0.1-0.5,0.2-1.3h-1.4v2.5H138v-1.9
	c-0.5,0.7-1.1,1.2-1.7,1.5c0,0-0.1,0.1-0.1,0.1c-0.1-0.2-0.2-0.3-0.4-0.4c0.6-0.3,1.2-0.7,1.6-1.2c0.1-0.1,0.3-0.3,0.4-0.5h-1.1
	c0,0.1,0,0.2-0.1,0.3l-0.5-0.1c0.2-0.7,0.3-1.4,0.4-2h1.5v-0.9h-1.7v-0.5h0.9c-0.1-0.3-0.2-0.7-0.4-1.1l0.5-0.1
	c0.2,0.4,0.4,0.7,0.5,1.1l-0.4,0.1h1.8l-0.4-0.1c0.2-0.4,0.4-0.7,0.5-1.1l0.6,0.2c-0.3,0.5-0.5,0.9-0.6,1.1h0.9v1.9h-1.7L138.5,23.4
	L138.5,23.4z M137.9,22.5h-1c0,0.1-0.1,0.4-0.1,0.8h1.2V22.5z M138.5,21.1V22h1.1v-0.9H138.5z"/>
<path class="st0" d="M144.1,19.7v2.8h-2.2v3.8h-0.5v-6.6H144.1z M143.5,20.2h-1.6v0.7h1.6V20.2z M141.9,22.1h1.6v-0.7h-1.6V22.1z
	 M147.6,19.7v5.8c0,0.3-0.1,0.5-0.3,0.6c0,0-0.1,0-0.1,0c-0.2,0.1-0.7,0.1-1.4,0.1c0-0.2-0.1-0.4-0.2-0.6c0.4,0,0.8,0,1.2,0
	c0.1,0,0.2-0.1,0.2-0.2v-3h-2.3v-2.8L147.6,19.7L147.6,19.7z M147,20.2h-1.7v0.7h1.7V20.2z M145.3,22.1h1.7v-0.7h-1.7V22.1z"/>
<path class="st0" d="M1.6,33.6v-1.4c-0.4,0.6-0.8,1-1.2,1.3c-0.1-0.2-0.3-0.3-0.4-0.4c0.4-0.3,0.8-0.7,1.2-1.2
	c0.1-0.1,0.1-0.2,0.2-0.3H0.3v-0.5h1.3v-0.8h0.5v0.8h1.1v0.5H2.2v0.1c0.3,0.2,0.7,0.5,1.2,0.8L3,33c-0.1-0.1-0.4-0.4-0.9-0.7v1.4
	H1.6z M1.6,35.8L2.2,36c-0.4,0.5-0.8,0.9-1.4,1.3c0,0-0.1,0.1-0.1,0.1c-0.1-0.1-0.2-0.2-0.5-0.4c0.6-0.3,1.1-0.7,1.4-1.1
	C1.6,35.8,1.6,35.8,1.6,35.8z M0.3,35.5V35h6.6v0.5h-3v1.4c0,0.3-0.1,0.4-0.2,0.5c0,0-0.1,0-0.1,0c-0.2,0.1-0.6,0.1-1.2,0.1
	c0-0.1-0.1-0.3-0.2-0.5c0.5,0,0.8,0,1,0c0.1,0,0.1-0.1,0.1-0.1v-1.3L0.3,35.5L0.3,35.5z M1.1,34.4v-0.5h5v0.5H1.1z M6.8,31.7H5.6
	C6,32.3,6.4,32.7,6.8,33c0.1,0.1,0.2,0.1,0.3,0.2c-0.1,0.1-0.3,0.3-0.4,0.4c-0.4-0.3-0.8-0.7-1.2-1.3c0,0,0,0,0,0v1.4H4.9v-1.5
	c-0.4,0.6-0.8,1.1-1.3,1.3c-0.1-0.2-0.2-0.3-0.3-0.4c0.5-0.3,0.9-0.6,1.3-1.1c0.1-0.1,0.1-0.2,0.2-0.3H3.6v-0.5h1.4v-0.8h0.5v0.8
	h1.4L6.8,31.7L6.8,31.7z M4.8,36l0.4-0.3c0.6,0.4,1.1,0.8,1.5,1.2c0,0,0.1,0.1,0.1,0.1l-0.5,0.3C6,37,5.5,36.6,4.9,36.2
	C4.9,36.1,4.9,36.1,4.8,36z"/>
<path class="st0" d="M14.5,31v0.5h-1.7c0.2,0.3,0.3,0.4,0.4,0.6l-0.5,0.2c-0.1-0.2-0.3-0.5-0.5-0.8h-0.6c-0.1,0.1-0.3,0.3-0.4,0.5
	h0.1v0.6h3V34h-0.5v-1H8.4v1H7.8v-1.4h2.9v-0.5c-0.1-0.1-0.2-0.1-0.3-0.2c0.2-0.1,0.3-0.3,0.5-0.4H9.5c0.1,0.3,0.3,0.5,0.3,0.6
	l-0.5,0.1c0-0.1-0.2-0.4-0.4-0.8H8.5c-0.2,0.3-0.4,0.6-0.7,0.8C7.7,32.1,7.6,32,7.4,32c0.4-0.4,0.8-0.9,1.1-1.5c0,0,0-0.1,0-0.1
	l0.5,0.1C9,30.7,8.9,30.8,8.8,31h2v0.4c0.3-0.3,0.5-0.7,0.7-1.1l0.5,0.1c-0.1,0.2-0.1,0.4-0.3,0.5L14.5,31L14.5,31z M9.5,35.1v0.5
	h4.2v1.9h-0.5v-0.3H9.5v0.3H8.9v-3.9h4.2v1.5H9.5z M12.6,34H9.5v0.7h3.1V34z M13.1,36H9.5v0.8h3.6V36z"/>
<path class="st0" d="M17.4,32.1v0.8h1.8v0.5h-1.8v0.8H19v2.1c0,0.2-0.1,0.4-0.2,0.5c0,0,0,0-0.1,0c-0.1,0.1-0.4,0.1-0.9,0.1
	c0-0.2-0.1-0.3-0.2-0.5c0.4,0,0.6,0,0.7,0c0.1,0,0.1,0,0.1-0.1v-1.6h-1.1v2.7h-0.5v-2.7h-1v2.1h-0.5v-2.7h1.5v-0.8H15v-0.5h1.9v-0.8
	h-1c-0.1,0.3-0.3,0.5-0.4,0.8c-0.1-0.1-0.3-0.1-0.5-0.2c0.3-0.5,0.6-1.2,0.8-2l0.5,0.1c-0.1,0.2-0.1,0.5-0.2,0.8h0.8v-1.1h0.5v1.1
	H19v0.5L17.4,32.1L17.4,32.1z M20.3,31.2v4.2h-0.5v-4.2H20.3z M21.2,30.6h0.5v6.1c0,0.3-0.1,0.5-0.2,0.6c0,0-0.1,0-0.1,0
	c-0.2,0.1-0.6,0.1-1.2,0.1c0-0.2-0.1-0.4-0.2-0.6c0.3,0,0.6,0,1,0c0.1,0,0.1-0.1,0.1-0.2V30.6z"/>
<path class="st0" d="M26.1,34.3h-0.6v-1h1v0.8c0,0.5-0.2,0.9-0.7,1.2c-0.1,0-0.1,0.1-0.1,0.1l-0.2-0.3
	C25.9,34.9,26.1,34.6,26.1,34.3z"/>
<path class="st0" d="M30,33.6h7v0.6h-7V33.6z"/>
<path class="st0" d="M40.8,34.1l-0.4,0v2.8c0,0.3-0.1,0.4-0.2,0.5s-0.4,0.1-0.9,0.1c0-0.2-0.1-0.3-0.2-0.5h0.7c0.1,0,0.1,0,0.1-0.1
	v-2.7c-0.6,0.1-1.1,0.1-1.4,0.1c0,1.5-0.2,2.5-0.6,3.1c-0.1-0.1-0.2-0.2-0.4-0.3c0.4-0.6,0.5-1.5,0.6-2.7c0,0,0-0.1,0-0.1l-0.5,0
	l-0.1-0.5l0.5,0v-2.4h0.7c0.1-0.4,0.3-0.8,0.3-1.1l0.6,0.1c0,0.1-0.1,0.4-0.4,0.9h1.1v2.1l0.4,0L40.8,34.1z M38.6,32v1.9
	c0.1,0,0.4,0,0.7-0.1c0.3,0,0.5,0,0.7-0.1V32H38.6z M38.9,32.4l0.4-0.1c0.2,0.3,0.4,0.7,0.4,1l-0.4,0.1
	C39.2,33.2,39.1,32.8,38.9,32.4z M39.4,34.5v1.8h-0.4v-1.8H39.4z M43.9,33.8l0.4,0.1c-0.2,0.9-0.6,1.6-1.2,2.3
	c0.5,0.4,1,0.7,1.7,0.8c-0.1,0.1-0.3,0.3-0.4,0.5c-0.7-0.2-1.2-0.5-1.7-0.9c-0.5,0.4-1.1,0.7-1.7,0.9c-0.1-0.2-0.2-0.3-0.3-0.5
	c0.6-0.2,1.2-0.5,1.6-0.9c-0.4-0.5-0.8-1.1-1-1.7l0.4-0.1h-0.7v-0.5L43.9,33.8L43.9,33.8z M41.9,31.3v0.5c0,0.8-0.3,1.4-0.8,1.8
	c-0.1-0.1-0.2-0.3-0.4-0.3c0,0,0,0,0,0c0.4-0.3,0.6-0.8,0.6-1.5v-1h2.2v1.7c0,0.1,0,0.3,0,0.3c0,0,0.1,0,0.1,0h0.2
	c0.1,0,0.1,0,0.2,0s0.1-0.1,0.1-0.1s0-0.3,0-0.6c0.1,0.1,0.2,0.1,0.4,0.2c0,0.4,0,0.6-0.1,0.7c0,0.1-0.1,0.2-0.2,0.3
	c-0.1,0-0.2,0.1-0.3,0.1h-0.4c-0.2,0-0.3,0-0.4-0.1c-0.1-0.1-0.1-0.3-0.1-0.6v-1.2L41.9,31.3L41.9,31.3z M43.6,34.3h-1.8
	c0.2,0.5,0.5,1.1,0.9,1.5C43.1,35.3,43.4,34.9,43.6,34.3z"/>
<path class="st0" d="M48.1,31.7v0.5h-2.8v-0.5H48.1z M47.9,37h-1.8v0.4h-0.5v-2.5h2.3L47.9,37L47.9,37z M47.9,32.8v0.5h-2.3v-0.5
	H47.9z M45.6,34.3v-0.5h2.3v0.5H45.6z M47.8,30.8v0.5h-2.2v-0.5H47.8z M47.4,35.3h-1.3v1.3h1.3V35.3z M52.3,32.4H50
	c0,0.3,0,0.7-0.1,1.2H52c0,0,0,0.1,0,0.3c-0.1,1.7-0.2,2.8-0.3,3.1c0,0.1-0.1,0.2-0.1,0.2c-0.1,0.1-0.3,0.2-0.5,0.3h0
	c-0.2,0-0.5,0-0.9,0c0-0.2-0.1-0.4-0.2-0.5c0.3,0,0.6,0,0.9,0c0.1,0,0.2,0,0.3-0.1c0.1-0.1,0.3-0.9,0.3-2.1c0-0.2,0-0.4,0-0.6h-1.6
	c-0.2,1.5-0.7,2.5-1.4,3.2c-0.1,0.1-0.1,0.1-0.2,0.2c-0.1-0.1-0.2-0.3-0.4-0.4c0.8-0.6,1.2-1.6,1.4-3c0.1-0.4,0.1-1,0.1-1.7h-1.2
	v-0.5h1.8v-1.4h0.5v1.4h1.8L52.3,32.4L52.3,32.4z"/>
<path class="st0" d="M57.9,32.4l0.4,0.3c-0.4,0.5-0.8,1-1.5,1.5c0.9,0.4,1.9,0.7,3,0.8c-0.1,0.2-0.3,0.3-0.4,0.5
	c-0.4,0-0.7-0.1-1-0.2v2.2h-0.6v-0.3h-3.1v0.3h-0.5v-2.1c-0.4,0.1-0.8,0.2-1.2,0.3c-0.1-0.2-0.2-0.4-0.3-0.5c1.1-0.2,2.1-0.5,3-1
	c-0.4-0.3-0.8-0.6-1-0.9c-0.4,0.3-0.8,0.5-1.2,0.8c-0.1-0.2-0.2-0.3-0.4-0.4c0.9-0.4,1.5-0.9,2-1.5c0.1-0.1,0.1-0.1,0.2-0.2l0.6,0.1
	c-0.1,0.2-0.3,0.4-0.4,0.5h2.3L57.9,32.4z M53.5,31.7v0.9H53v-1.4h2.9v-0.7h0.6v0.7h2.9v1.4h-0.6v-0.9H53.5z M54.6,35.1h3.4
	c-0.7-0.2-1.3-0.4-1.8-0.7C55.7,34.7,55.2,34.9,54.6,35.1z M54.7,36.7h3.1v-1.1h-3.1V36.7z M55.1,32.8c0.3,0.4,0.7,0.7,1.1,0.9
	c0.5-0.3,0.9-0.6,1.2-0.9H55.1z"/>
<path class="st0" d="M61.4,33.2v-1c-0.2,0.3-0.5,0.5-0.7,0.7c-0.2-0.2-0.3-0.3-0.5-0.4c0.6-0.4,1.1-1,1.5-1.7
	c0.1-0.1,0.1-0.2,0.1-0.3l0.5,0.1c-0.1,0.2-0.3,0.5-0.4,0.7h4.8v0.5H66v1.3h1.1v0.5H66V35H67v0.5h-6.6V35h0.9v-1.3h-1.1v-0.5H61.4z
	 M60.8,37.5l-0.5-0.2c0.4-0.3,0.7-0.7,0.9-1.3c0-0.1,0-0.1,0.1-0.2l0.5,0.1c-0.2,0.6-0.5,1.1-0.9,1.5C60.8,37.4,60.8,37.5,60.8,37.5
	z M61.9,31.8v1.3h0.8v-1.3H61.9z M61.9,33.7V35h0.8v-1.3H61.9z M62.5,36l0.5,0c0.1,0.6,0.2,1.1,0.2,1.4l-0.5,0.1
	C62.7,36.9,62.6,36.5,62.5,36z M63.2,33.2h0.9v-1.3h-0.9V33.2z M64.1,33.7h-0.9V35h0.9V33.7z M64.1,36l0.5-0.1
	c0.2,0.5,0.4,0.9,0.5,1.4l-0.5,0.1C64.5,37,64.3,36.5,64.1,36z M65.5,33.2v-1.3h-0.9v1.3H65.5z M65.5,35v-1.3h-0.9V35H65.5z
	 M65.7,35.9l0.5-0.2c0.5,0.6,0.8,1.1,1.1,1.5l-0.6,0.2C66.5,37,66.1,36.5,65.7,35.9C65.7,36,65.7,36,65.7,35.9z"/>
<path class="st0" d="M69.6,33.3l-0.3,0.5c-0.3-0.3-0.8-0.5-1.4-0.7c0,0-0.1,0-0.1,0l0.3-0.4C68.7,32.8,69.2,33.1,69.6,33.3z
	 M69.4,34.5l0.4,0.4c-0.4,0.8-0.8,1.6-1.3,2.4L68,37C68.6,36.2,69,35.4,69.4,34.5z M70,31.3l-0.3,0.5c-0.3-0.3-0.8-0.5-1.3-0.8
	c-0.1,0-0.1,0-0.2-0.1l0.3-0.4C69.1,30.8,69.5,31,70,31.3C69.9,31.3,70,31.3,70,31.3z M74.8,37.2l-0.5,0.3c-0.1-0.2-0.2-0.4-0.3-0.7
	c-1.4,0.1-2.7,0.2-4.1,0.3l-0.1-0.6l0.6,0c0.4-0.7,0.7-1.5,0.9-2.3h-1.6v-0.5h2.1v-1.4h-1.8v-0.5h1.8v-1.2h0.6v1.2h1.8v0.5h-1.8v1.4
	h2.2v0.5H72c-0.4,1-0.7,1.7-1,2.3c0.5,0,1.4-0.1,2.6-0.1c-0.3-0.4-0.5-0.8-0.8-1.1l0.5-0.3c0.5,0.7,1,1.3,1.3,1.9
	C74.8,37,74.8,37.1,74.8,37.2z"/>
<path class="st0" d="M78.3,31.5h2.7v5.9h-0.6v-0.4h-4.1v0.4h-0.6v-6h1.9c0.1-0.4,0.3-0.8,0.3-1.1l0.7,0.1
	C78.6,30.8,78.5,31.2,78.3,31.5z M80.5,32.1h-4.1v1.1h4.1V32.1z M80.5,33.7h-4.1v1.1h4.1V33.7z M76.4,36.5h4.1v-1.1h-4.1V36.5z"/>
<path class="st0" d="M85.8,32h2.7v5.5h-0.6V37h-4.7v0.5h-0.6V32h2.6v-1.5h0.6L85.8,32L85.8,32z M85.2,32.5h-2v1.7h2V32.5z
	 M83.2,34.7v1.7h2v-1.7H83.2z M87.9,32.5h-2.1v1.7h2.1V32.5z M85.8,36.4h2.1v-1.7h-2.1V36.4z"/>
<path class="st0" d="M91,34v1.9c0.4,0.5,1,0.8,1.9,0.9c1.2,0,2.3,0,3.4,0c0,0,0.1,0,0.1,0c-0.1,0.1-0.1,0.4-0.2,0.5
	c-1.2,0-2.3,0-3.3,0c-0.9,0-1.6-0.3-2.1-0.8c0,0,0,0-0.1-0.1c-0.3,0.3-0.6,0.6-1.1,1l-0.3-0.5c0.4-0.3,0.7-0.5,1.1-0.9v-1.4h-1V34
	H91z M91.2,33l-0.4,0.4c-0.3-0.3-0.7-0.6-1.2-0.8c0,0-0.1,0-0.1-0.1l0.4-0.4c0.5,0.2,0.9,0.5,1.3,0.8C91.2,32.9,91.2,32.9,91.2,33z
	 M91.4,31.5L91,31.9c-0.2-0.3-0.6-0.6-1.1-0.9c0,0-0.1-0.1-0.1-0.1l0.4-0.4C90.7,30.9,91.1,31.2,91.4,31.5L91.4,31.5z M92,36.3v-3.6
	c-0.1,0.1-0.2,0.3-0.4,0.4c-0.1-0.1-0.3-0.3-0.4-0.4c0.6-0.5,1.1-1.2,1.5-2c0-0.1,0.1-0.2,0.1-0.3l0.5,0.1c-0.1,0.4-0.3,0.7-0.5,1.1
	h1.2c0.2-0.4,0.4-0.8,0.5-1.2l0.6,0.1c-0.1,0.4-0.3,0.8-0.5,1.1h1.7v0.5h-1.7v0.8h1.5v0.5h-1.5v0.8h1.5v0.5h-1.5v0.8h1.9v0.5h-3.8
	v0.4L92,36.3L92,36.3z M93.9,33v-0.8h-1.3V33H93.9z M93.9,34.2v-0.8h-1.3v0.8H93.9z M93.9,35.5v-0.8h-1.3v0.8H93.9z"/>
<path class="st0" d="M102.6,34.3h0.6v3.1h-0.6v-0.5h-4.8v0.5h-0.5v-3.2h0.6v2.1h2v-2.6h-2.3v-2.6h0.5v2.1h1.8v-2.7h0.6v2.7h1.8v-2.1
	h0.6v2.6h-2.4v2.6h2.2V34.3z"/>
<path class="st0" d="M107.9,34.3h-0.6v-1h1v0.8c0,0.5-0.2,0.9-0.7,1.2c-0.1,0-0.1,0.1-0.1,0.1l-0.2-0.3
	C107.7,34.9,107.9,34.6,107.9,34.3z"/>
<path class="st0" d="M117.9,35.5h-1.3c0.3,0.3,0.6,0.5,1,0.8c0.4,0.3,0.8,0.4,1.2,0.6c-0.2,0.1-0.3,0.3-0.4,0.5
	c-0.4-0.1-0.7-0.4-1.1-0.7c-0.4-0.3-0.7-0.5-1-0.9v1.7h-0.5v-2h-1.1v2h-0.5v-1.6c-0.6,0.7-1.3,1.1-2,1.5c-0.1-0.1-0.2-0.3-0.4-0.4
	c0.4-0.1,0.7-0.3,1.1-0.6c0.4-0.3,0.7-0.5,0.9-0.8h-1.4V35h1.7v-0.7h-2.3v-0.5h2.3v-0.7h-1.6v-0.5h1.6V32h-2.1v-0.5h1.8
	c-0.2-0.3-0.4-0.5-0.7-0.8l0.5-0.2c0.4,0.3,0.7,0.6,0.8,0.9l-0.3,0.1h2.1c0.3-0.3,0.5-0.7,0.8-1.1l0.6,0.2c-0.3,0.4-0.5,0.7-0.7,0.9
	h1.6V32h-2.3v0.7h1.6v1.1h0.8v0.5h-0.8V35.5z M114.7,32v0.7h1.1V32H114.7z M114.7,33.1v0.7h1.1v-0.7H114.7z M114.7,35h1.1v-0.7h-1.1
	V35z M117.3,33.1h-1.1v0.7h1.1V33.1z M117.3,35v-0.7h-1.1V35H117.3z"/>
<path class="st0" d="M123.1,36.9H121v0.4h-0.4v-2.2c0,0,0,0.1-0.1,0.1c0,0-0.1,0.1-0.1,0.1c0,0,0,0-0.1-0.1c0,0-0.1-0.1-0.1-0.1
	c-0.1,0.9-0.3,1.6-0.5,2.1c-0.1-0.1-0.2-0.2-0.3-0.3c0,0,0,0,0,0c0.3-0.8,0.4-2.1,0.4-3.7v-2.4l0.3,0.1c1-0.1,1.8-0.2,2.3-0.4
	l0.4,0.4c-0.6,0.2-1.5,0.3-2.6,0.4v0.4h2.7v1.6h-2.7c0,0.5,0,0.9,0,1.5c0.3-0.4,0.5-0.9,0.6-1.4l0.4,0.1c0,0.1-0.1,0.3-0.2,0.6h0.7
	c0.1-0.3,0.2-0.5,0.3-0.7l0.4,0.1c0,0.1-0.1,0.2-0.1,0.3c0,0.1-0.1,0.2-0.1,0.2h0.9v0.4h-0.9V35h0.8v0.4h-0.8v0.4h0.8v0.4h-0.8v0.4
	h0.9L123.1,36.9L123.1,36.9z M122.4,32.3h-2.2v0.7h2.2V32.3z M121.7,35v-0.4H121V35H121.7z M121.7,35.7v-0.4H121v0.4H121.7z
	 M121.7,36.5v-0.4H121v0.4H121.7z M124.1,36.2l0.5,0.3c-0.4,0.4-0.8,0.7-1.3,0.9c0,0,0,0-0.1,0c-0.1-0.1-0.2-0.2-0.4-0.4
	c0.4-0.2,0.8-0.5,1.1-0.8C124,36.3,124.1,36.3,124.1,36.2z M123.4,32h0.9c0.1-0.4,0.1-0.6,0.1-0.7h-1.2v-0.5h3.1v0.5H125
	c0,0.1,0,0.2-0.1,0.3c0,0.2-0.1,0.3-0.1,0.4h1.3v4h-2.7L123.4,32L123.4,32z M125.7,33.2v-0.7h-1.8v0.7H125.7z M125.7,34.4v-0.7h-1.8
	v0.7H125.7z M125.7,35.6v-0.8h-1.8v0.8H125.7z M125.1,36.5l0.4-0.3c0.4,0.4,0.8,0.7,1,0.9l-0.4,0.3
	C125.8,37.2,125.5,36.8,125.1,36.5z"/>
<path class="st0" d="M128.7,30.5l0.5,0.1c-0.2,0.5-0.5,1.1-0.8,1.6v5.2H128v-4.4c-0.3,0.4-0.6,0.7-0.8,1c-0.1-0.2-0.2-0.4-0.3-0.5
	c0.7-0.6,1.2-1.4,1.7-2.4C128.6,30.9,128.7,30.7,128.7,30.5z M131.8,36.7h2.2v0.5H129v-0.5h2.2v-1.9h-1.8v-0.5h1.8v-1.7h-2V32h2.6
	c-0.4-0.4-0.9-0.7-1.6-1.1c0,0,0,0,0,0l0.4-0.4c0.8,0.4,1.3,0.8,1.7,1.2L132,32h1.9v0.5h-2v1.7h1.8v0.5h-1.8L131.8,36.7L131.8,36.7z
	"/>
<path class="st0" d="M136.2,32.5h4.5v3H140v-0.4h-4c-0.2,1-0.5,1.8-1.1,2.4c-0.1-0.1-0.2-0.3-0.4-0.4c0,0,0,0,0,0
	c0.7-0.7,1-1.6,1.1-2.9c0-0.1,0-0.3,0-0.5v-2.4l0.4,0.1c1.8-0.3,3.1-0.5,3.9-0.8l0.5,0.4c-1,0.3-2.4,0.6-4.2,0.8L136.2,32.5
	L136.2,32.5z M136.2,34.5h3.9V33h-3.9v0.7C136.2,34,136.2,34.3,136.2,34.5z"/>
<path class="st0" d="M143.6,30.5l0.5,0.2c-0.2,0.5-0.5,1.1-0.8,1.6v5.3h-0.5v-4.4c-0.3,0.4-0.5,0.7-0.8,1c-0.1-0.2-0.2-0.4-0.3-0.5
	c0.7-0.6,1.2-1.4,1.7-2.4C143.4,30.9,143.5,30.7,143.6,30.5z M148.5,34.7h-2c-0.1,0.6-0.3,1.1-0.5,1.5c0.7,0.4,1.7,0.7,2.8,0.8
	c-0.1,0.1-0.3,0.3-0.3,0.5c-1.1-0.2-2.1-0.5-2.8-0.9c-0.4,0.4-1,0.7-1.7,0.9c-0.1-0.2-0.2-0.4-0.3-0.5c0.7-0.2,1.2-0.4,1.6-0.8
	c-0.5-0.4-0.8-0.8-1.1-1.2l0.5-0.1c0.2,0.4,0.5,0.7,1,1c0.2-0.3,0.4-0.7,0.4-1.2h-1.9v-2.1h1.9v-0.8h-2.1v-0.5h2.1v-0.8h0.5v0.8h2.2
	v0.5h-2.2v0.8h2L148.5,34.7L148.5,34.7z M144.7,34.2h1.4c0-0.1,0-0.2,0-0.3v-0.8h-1.4V34.2z M148,33.1h-1.4v0.8c0,0.1,0,0.3,0,0.3
	h1.4V33.1z"/>
<path class="st0" d="M6.5,42.1v5.7c0,0.3-0.1,0.5-0.3,0.6c0,0-0.1,0-0.1,0c-0.2,0.1-0.7,0.1-1.4,0.1c0-0.1-0.1-0.3-0.2-0.5
	c0.3,0,0.7,0,1.2,0c0.1,0,0.2-0.1,0.2-0.2v-1.5h-2v2.3H3.4v-2.3H1.5c-0.1,1-0.5,1.8-0.9,2.4c-0.1-0.1-0.2-0.3-0.4-0.4c0,0,0,0,0,0
	c0.5-0.6,0.9-1.6,0.9-2.8c0-0.1,0-0.3,0-0.5v-2.7H6.5z M1.5,45.7h1.9v-1.3H1.5v0.4C1.5,45.2,1.5,45.4,1.5,45.7z M3.3,42.7H1.5v1.2
	h1.8V42.7z M6,43.9v-1.2h-2v1.2H6z M3.9,45.7h2v-1.3h-2V45.7z"/>
<path class="st0" d="M8.9,41.6l0.6,0.1c-0.1,0.5-0.3,0.8-0.4,1.1h1.3v5H8.3v0.6H7.8v-5.6h0.9C8.8,42.3,8.9,41.9,8.9,41.6z M9.9,44.9
	v-1.6H8.3v1.6H9.9z M8.3,47.2h1.6v-1.8H8.3V47.2z M14.2,42.8v0.3c-0.1,2.4-0.2,3.9-0.3,4.4c-0.1,0.3-0.1,0.5-0.2,0.6
	c-0.1,0.2-0.3,0.3-0.6,0.3h0c-0.2,0-0.6,0-1.1,0c0-0.2-0.1-0.4-0.2-0.5c0.3,0,0.7,0,1.1,0c0.1,0,0.3,0,0.3-0.1
	c0.2-0.2,0.3-0.9,0.4-2.2c0-0.6,0.1-1.3,0.1-2.3h-1.9c-0.3,0.6-0.5,1-0.7,1.3c-0.1-0.1-0.2-0.2-0.5-0.3c0.5-0.7,0.9-1.6,1.2-2.8
	l0.5,0.1c-0.1,0.4-0.2,0.7-0.3,1.1H14.2z M13,46.2l-0.5,0.3c-0.2-0.4-0.6-1.1-1.2-1.7l0.4-0.3C12.3,45.2,12.7,45.8,13,46.2z"/>
<path class="st0" d="M17.3,42.1c-0.1,0.3-0.2,0.7-0.4,1c-0.1,0.4-0.3,0.7-0.4,1c0.3,0.3,0.5,0.6,0.5,0.9c0.1,0.3,0.1,0.5,0.1,0.8
	c0,0.1,0,0.3,0,0.4c0,0.1,0,0.2-0.1,0.3c0,0.1-0.1,0.1-0.2,0.2c-0.1,0.1-0.2,0.1-0.4,0.1c0,0-0.1,0-0.1,0c-0.1,0-0.1,0-0.1,0
	c0,0-0.1,0-0.1,0c0,0-0.1,0-0.1,0c0-0.1,0-0.1,0-0.3c0-0.1-0.1-0.2-0.1-0.3c0.1,0,0.1,0,0.1,0c0,0,0.1,0,0.1,0c0,0,0.1,0,0.1,0
	c0,0,0,0,0.1,0c0.1,0,0.1,0,0.2-0.1c0,0,0.1-0.1,0.1-0.1c0-0.1,0-0.1,0.1-0.2c0-0.1,0-0.1,0-0.2c0-0.2,0-0.4-0.1-0.7
	c-0.1-0.3-0.3-0.5-0.5-0.8c0.1-0.3,0.2-0.6,0.3-0.9c0.1-0.3,0.2-0.6,0.3-0.8h-1v6.2h-0.5v-6.7h1.7l0.1,0L17.3,42.1z M17.1,48.2
	c0.1-0.2,0.3-0.4,0.4-0.6c0.1-0.2,0.2-0.4,0.3-0.7l0.4,0.2c0,0.1-0.1,0.2-0.1,0.3c0,0.1-0.1,0.2-0.1,0.4c0,0.1-0.1,0.2-0.1,0.3
	c-0.1,0.1-0.1,0.2-0.2,0.3L17.1,48.2z M21,45.9h-3.6v-0.4H21v-0.4h-3.3v-0.4h3.8v0.8h0.4v0.4h-0.4v0.8h-2.1c0.1,0.1,0.1,0.1,0.2,0.2
	c0.1,0.1,0.1,0.1,0.2,0.2c0.1,0.1,0.1,0.1,0.2,0.2c0.1,0.1,0.1,0.1,0.2,0.1l-0.3,0.3c-0.1-0.1-0.1-0.1-0.2-0.2
	c-0.1-0.1-0.1-0.1-0.3-0.2c-0.1-0.1-0.2-0.1-0.3-0.2c-0.1-0.1-0.1-0.1-0.2-0.2l0.2-0.2h-1.6v-0.4H21V45.9z M21.9,44.4h-4.3V44h1.8
	v-0.4h-1.6v-0.4h1.8c0-0.1-0.1-0.2-0.1-0.3c-0.1-0.1-0.1-0.3-0.2-0.4l0.4-0.1c0.1,0.1,0.1,0.2,0.2,0.4c0.1,0.1,0.1,0.2,0.1,0.3
	l-0.4,0.2h0.9c0.1-0.1,0.2-0.3,0.3-0.5c0.1-0.2,0.2-0.3,0.3-0.5l0.4,0.1c-0.1,0.1-0.1,0.3-0.2,0.4c-0.1,0.1-0.1,0.3-0.3,0.4h0.6v0.4
	h-1.7V44h2L21.9,44.4L21.9,44.4z M21.8,41.9c-0.3,0.1-0.5,0.1-0.9,0.2c-0.3,0-0.7,0.1-1,0.1c-0.4,0-0.7,0.1-1.1,0.1
	c-0.4,0-0.7,0-1.1,0c0-0.1,0-0.1,0-0.2c0-0.1,0-0.1-0.1-0.2c0.3,0,0.7,0,1.1-0.1s0.7-0.1,1.1-0.1c0.3,0,0.7-0.1,1-0.1
	c0.3,0,0.6-0.1,0.8-0.1L21.8,41.9z M18.3,43.2c0-0.1-0.1-0.2-0.1-0.3c-0.1-0.1-0.1-0.2-0.2-0.3l0.4-0.2c0.1,0.1,0.1,0.2,0.2,0.3
	c0.1,0.1,0.1,0.2,0.2,0.3L18.3,43.2z M20.2,48c0.1,0,0.1,0,0.1,0c0,0,0.1,0,0.1-0.1c0,0,0-0.1,0-0.1s0-0.1,0-0.3
	c0.1,0,0.1,0.1,0.2,0.1c0.1,0,0.2,0.1,0.3,0.1c0,0.1,0,0.3-0.1,0.4c0,0.1-0.1,0.2-0.1,0.2c0,0-0.1,0.1-0.2,0.1c-0.1,0-0.2,0-0.3,0
	h-1.2c-0.1,0-0.3,0-0.4,0c-0.1,0-0.2,0-0.3-0.1c-0.1,0-0.1-0.1-0.1-0.2c0-0.1,0-0.2,0-0.3V47h0.5v0.9c0,0.1,0,0.1,0.1,0.1
	c0,0,0.1,0,0.3,0H20.2z M21.1,47c0.1,0.1,0.1,0.2,0.2,0.3c0.1,0.1,0.1,0.2,0.2,0.3c0.1,0.1,0.1,0.2,0.2,0.3c0.1,0.1,0.1,0.2,0.1,0.3
	l-0.4,0.2c0-0.1-0.1-0.2-0.1-0.3c-0.1-0.1-0.1-0.2-0.2-0.3c-0.1-0.1-0.1-0.2-0.2-0.3c-0.1-0.1-0.1-0.2-0.2-0.3L21.1,47z"/>
<path class="st0" d="M25.9,46l-0.4,0.4c-0.1-0.2-0.5-0.6-0.9-1.1v3.2H24v-3.3c-0.4,0.9-0.9,1.6-1.4,2.2c0-0.1-0.1-0.3-0.3-0.5
	c0.4-0.4,0.9-1.1,1.3-1.9c0.1-0.2,0.2-0.4,0.3-0.6h-1.4v-0.5H24v-1.2c-0.5,0.1-0.9,0.2-1.3,0.2c0-0.1-0.1-0.3-0.2-0.4
	c1.4-0.2,2.3-0.4,2.9-0.7l0.4,0.4c-0.4,0.1-0.8,0.3-1.2,0.4v1.3H26v0.5h-1.4v0.5C24.9,45.1,25.4,45.5,25.9,46
	C25.9,46,25.9,46,25.9,46z M29.5,48.4l-0.6,0.2c0-0.2-0.1-0.5-0.2-0.8c-1.4,0.2-2.5,0.3-3.5,0.4l-0.1-0.6c0.2,0,0.5,0,0.7-0.1
	c0.4-1.5,0.8-3.2,1.1-5.1c0-0.3,0.1-0.5,0.1-0.7l0.6,0.1c-0.3,1.9-0.7,3.8-1.2,5.5c0,0,0,0.1,0,0.1c0.2,0,0.5,0,0.9-0.1
	c0.5-0.1,0.9-0.1,1.2-0.1c-0.2-0.7-0.5-1.3-0.8-1.8l0.5-0.2c0.5,0.9,0.9,1.8,1.1,2.7C29.4,48.1,29.5,48.2,29.5,48.4z"/>
<path class="st0" d="M29.9,45.1L29.5,45c0.2-0.5,0.3-1.1,0.4-2l0.4,0.1C30.3,43.9,30.1,44.5,29.9,45.1
	C29.9,45.1,29.9,45.1,29.9,45.1z M30.6,48.6v-7h0.6v7H30.6z M31.2,43l0.4-0.2c0.3,0.5,0.5,0.9,0.5,1.3l-0.4,0.2
	C31.6,43.9,31.4,43.5,31.2,43z M34.6,47.8h1.9v0.5h-4.7v-0.5H34v-1.9h-1.6v-0.5H34v-1.6h-1.1c-0.1,0.5-0.3,0.9-0.5,1.2
	c-0.1-0.1-0.3-0.1-0.5-0.3c0.4-0.6,0.7-1.5,0.9-2.7l0.5,0.1c-0.1,0.4-0.2,0.8-0.3,1.2h0.9v-1.6h0.6v1.6h1.7v0.5h-1.7v1.6H36v0.5
	h-1.6L34.6,47.8L34.6,47.8z"/>
<path class="st0" d="M39.6,45.1c0-0.3,0.1-0.6,0.4-0.8c0.2-0.1,0.4-0.2,0.6-0.2c0.3,0,0.6,0.1,0.8,0.4c0.1,0.2,0.2,0.4,0.2,0.7
	c0,0.3-0.1,0.6-0.4,0.8c-0.2,0.1-0.4,0.2-0.7,0.2c-0.3,0-0.6-0.1-0.8-0.4C39.6,45.5,39.6,45.3,39.6,45.1z M39.9,45.1
	c0,0.3,0.1,0.4,0.3,0.6c0.1,0.1,0.3,0.1,0.4,0.1c0.3,0,0.4-0.1,0.6-0.3c0.1-0.1,0.1-0.3,0.1-0.4c0-0.3-0.1-0.4-0.3-0.6
	c-0.1-0.1-0.3-0.1-0.4-0.1c-0.3,0-0.4,0.1-0.6,0.3C40,44.8,39.9,45,39.9,45.1z"/>
<path class="st0" d="M47.7,47l-0.4,0.4c-0.2-0.3-0.5-0.8-1-1.3c-0.2,1-0.7,1.8-1.3,2.3c-0.1-0.1-0.2-0.3-0.4-0.4
	c0.8-0.6,1.2-1.6,1.3-2.9h-1.2v-0.5h1.3v-1.2h-1.1v-0.5h1.1v-1.2h0.5v1.2h1.1v0.5h-1.1v1.2h1.2v0.5h-1.2c0,0.1,0,0.3,0,0.4
	C46.6,45.9,47.1,46.3,47.7,47z M50.5,47.9h0.5c0.1,0,0.1,0,0.2-0.1c0-0.1,0-0.4,0.1-0.9c0.1,0.1,0.3,0.1,0.5,0.2
	c0,0.7-0.1,1-0.3,1.2c-0.1,0.1-0.2,0.1-0.4,0.1h-0.6c-0.3,0-0.5-0.1-0.5-0.2c0-0.1-0.1-0.3-0.1-0.5v-1.6h-0.7
	c-0.1,0.8-0.4,1.4-0.8,1.8c-0.3,0.3-0.6,0.5-1.1,0.6c-0.1-0.1-0.2-0.3-0.3-0.4c0.7-0.2,1.2-0.6,1.4-1.2c0.1-0.2,0.2-0.5,0.2-0.8H48
	v-4.2h3.3v4.2h-0.9v1.6C50.3,47.9,50.4,47.9,50.5,47.9C50.4,47.9,50.4,47.9,50.5,47.9z M48.5,42.4v0.8h2.2v-0.8H48.5z M48.5,43.6
	v0.8h2.2v-0.8H48.5z M48.5,44.8v0.8h2.2v-0.8H48.5z"/>
<path class="st0" d="M52.2,48.4l0-0.5c0.1,0,1.5-0.1,4.4-0.2v0.4C54.2,48.3,52.8,48.3,52.2,48.4z M56.1,42.1v0.7h0.5v0.4h-0.5V44
	h-1.5v0.4h1.6v0.4h-1.6v0.4h1.9v0.4h-4.3v-0.4h1.9v-0.4h-1.5v-0.4h1.5V44h-1.4v-0.4h1.4v-0.4h-1.9v-0.4h1.9v-0.4h-1.4v-0.4h1.4v-0.5
	h0.5v0.5H56.1z M52.7,45.8h3.4v1.7h-3.4V45.8z M53.2,46.1v0.4h1v-0.4H53.2z M53.2,46.7v0.4h1v-0.4H53.2z M54.6,42.4v0.4h1v-0.4H54.6
	z M55.6,43.6v-0.4h-1v0.4H55.6z M55.6,46.4v-0.4h-1v0.4H55.6z M55.6,47.1v-0.4h-1v0.4H55.6z M57.4,42.5v4.2h-0.5v-4.2H57.4z
	 M58.3,41.7h0.5v6.1c0,0.3-0.1,0.5-0.3,0.6c0,0,0,0-0.1,0c-0.2,0.1-0.6,0.1-1.2,0.1c0-0.2-0.1-0.4-0.2-0.5c0.5,0,0.8,0,0.9,0
	c0.1,0,0.2-0.1,0.2-0.2L58.3,41.7L58.3,41.7z"/>
<path class="st0" d="M66.5,43.1h-4.1c-0.1,0.3-0.3,0.6-0.5,0.9h3.7v3.9c0,0.3-0.1,0.5-0.2,0.5c0,0-0.1,0-0.1,0
	c-0.2,0.1-0.7,0.1-1.4,0.1c0-0.1-0.1-0.4-0.2-0.5c0.2,0,0.6,0,1.1,0c0.1,0,0.2-0.1,0.2-0.1V47h-3.2v1.5h-0.5v-3.7
	c-0.4,0.5-0.8,0.9-1.3,1.2c-0.1-0.1-0.2-0.3-0.4-0.4c0.9-0.6,1.6-1.4,2.1-2.5h-1.9v-0.5h2.2c0.1-0.4,0.3-0.7,0.3-1l0.6,0.1
	c-0.1,0.4-0.2,0.6-0.3,0.8h3.9L66.5,43.1L66.5,43.1z M65,45.3v-0.8h-3.2v0.8H65z M61.8,46.6H65v-0.8h-3.2V46.6z"/>
<path class="st0" d="M69.3,42.3v4.3h-1.5v0.7h-0.5v-5H69.3z M68.8,42.8h-1V46h1V42.8z M71.1,47.9H73c0.2,0,0.4-0.1,0.4-0.2
	c0.1-0.1,0.1-0.4,0.1-0.9c0.2,0.1,0.3,0.2,0.5,0.2c0,0.6-0.1,1-0.3,1.1c-0.1,0.1-0.4,0.3-0.7,0.3h-1.9c-0.5,0-0.8-0.1-0.9-0.3
	C70.1,48,70,47.8,70,47.4v-5.3h3.8v4h-0.6v-0.5h-2.6v1.8c0,0.3,0,0.4,0.1,0.5C70.8,47.9,70.9,47.9,71.1,47.9z M71.6,42.6h-1.1V45
	h1.1V42.6z M73.2,45.1v-2.4h-1.1v2.4H73.2z"/>
<path class="st0" d="M79.4,48h2.2v0.4h-4.9V48h2.2v-0.5h-1.6v-0.4h1.6v-0.4l-1.8,0l0-0.4h0.9c0.1-0.1,0.2-0.3,0.3-0.5h-0.8v0h-0.5
	v-0.3l-0.2,0.3c-0.1-0.2-0.3-0.6-0.5-1.1v3.7h-0.5v-3.5c-0.3,0.9-0.6,1.6-0.9,2.1c-0.1-0.1-0.2-0.3-0.3-0.5c0.4-0.5,0.7-1.3,0.9-2.2
	c0.1-0.2,0.1-0.4,0.1-0.6h-0.9v-0.5h1v-1.6h0.5v1.6H77v0.5h-0.8v0.3c0.4,0.6,0.6,1,0.7,1.2v-0.4h4.6v1H81v-0.6h-3.6v0.3h3.5V46h-0.7
	c0.5,0.3,0.9,0.5,1.1,0.8L81,47.1c-0.1-0.1-0.2-0.2-0.4-0.4c-0.1,0-0.4,0-0.6,0c-0.3,0-0.5,0-0.6,0v0.4h1.7v0.4h-1.7V48z M78.9,42.8
	v-0.4h-2v-0.4h2v-0.5h0.5v0.5h2.1v0.4h-2.1v0.4H81v0.4h-3.8v-0.4H78.9z M81,44.6h-3.6v-1.1H81V44.6z M77.9,43.8v0.4h2.6v-0.4H77.9z
	 M80,45.9h-1.3c-0.1,0.1-0.2,0.3-0.3,0.5c0.4,0,1,0,1.8,0c-0.1-0.1-0.3-0.2-0.4-0.3L80,45.9z"/>
<path class="st0" d="M89,47.7v0.5h-6v0.4h-0.5v-6.7h6.4v0.5H83v5.2L89,47.7L89,47.7z M83.7,47.1v-2h2v2H83.7z M84.1,45.5v1.1h1v-1.1
	H84.1z M87.3,42.9v1.7h-2.8v-1.7H87.3z M86.8,44.2v-0.9H85v0.9H86.8z M88.2,45.1v2h-2v-2H88.2z M87.7,46.7v-1.1h-1.1v1.1H87.7z"/>
<path class="st0" d="M92.4,44c0.6,0.5,1.1,1,1.6,1.6c0,0,0,0.1,0.1,0.1l-0.5,0.4c-0.5-0.7-1.1-1.2-1.7-1.7L92.4,44z"/>
<path class="st0" d="M101.7,44.7l0.6,0.2c-0.3,0.8-0.7,1.4-1.2,1.9c0.8,0.6,1.8,1.1,3.1,1.2c-0.1,0.1-0.3,0.3-0.4,0.5
	c-1.3-0.3-2.3-0.7-3.2-1.4c-0.8,0.6-1.8,1.1-3.1,1.4c-0.1-0.1-0.2-0.3-0.3-0.5c0,0,0,0,0,0c1.3-0.3,2.3-0.7,3.1-1.3
	c-0.5-0.5-0.9-1.2-1.2-1.9l0.5-0.2c0.3,0.7,0.6,1.2,1.1,1.7C101.1,45.9,101.4,45.4,101.7,44.7z M99.2,43.4l0.6,0.2
	c-0.4,0.6-1,1.2-1.8,1.7c-0.1,0.1-0.2,0.1-0.3,0.2c-0.2-0.2-0.3-0.4-0.5-0.4c0.7-0.4,1.3-0.8,1.8-1.4C99,43.6,99.1,43.5,99.2,43.4z
	 M103.9,42.6v0.5h-6.7v-0.5h3v-1h0.6v1H103.9z M101.5,43.7l0.4-0.3c0.9,0.6,1.5,1.1,2,1.6c0,0,0.1,0.1,0.1,0.1l-0.5,0.4
	c-0.4-0.4-0.9-0.9-1.7-1.5C101.7,43.8,101.6,43.8,101.5,43.7z"/>
<path class="st0" d="M104.6,43.3v-0.5h2.7v0.5H104.6z M107.1,45.9v2.2h-1.7v0.4h-0.5v-2.5H107.1z M107.1,43.9v0.5h-2.2v-0.5H107.1z
	 M104.9,45.4v-0.5h2.2v0.5H104.9z M107.1,41.9v0.5H105v-0.5H107.1z M106.6,46.4h-1.2v1.3h1.2V46.4z M110.9,47.8h0.7v0.5h-4.3v-0.5
	h0.8v-4.1h2.8L110.9,47.8L110.9,47.8z M108,42.9v0.9h-0.5v-1.3h1.7v-0.8h0.6v0.8h1.8v1.3H111v-0.9H108z M110.4,44.2h-1.7v0.8h1.7
	V44.2z M110.4,46.4v-0.9h-1.7v0.9H110.4z M108.7,46.9v0.9h1.7v-0.9H108.7z"/>
<path class="st0" d="M119,47.7v0.5h-6v0.4h-0.5v-6.7h6.4v0.5H113v5.2L119,47.7L119,47.7z M113.7,47.1v-2h2v2H113.7z M114.2,45.5v1.1
	h1v-1.1H114.2z M117.3,42.9v1.7h-2.8v-1.7H117.3z M116.8,44.2v-0.9H115v0.9H116.8z M118.3,45.1v2h-2v-2H118.3z M117.7,46.7v-1.1
	h-1.1v1.1H117.7z"/>
<path class="st0" d="M122.5,44c0.6,0.5,1.1,1,1.6,1.6c0,0,0,0.1,0.1,0.1l-0.5,0.4c-0.5-0.7-1.1-1.2-1.7-1.7L122.5,44z"/>
<path class="st0" d="M128.4,41.6l0.5,0.1c-0.1,0.5-0.3,0.9-0.5,1.4v5.4h-0.5v-4.4c-0.3,0.4-0.5,0.7-0.7,0.9
	c-0.1-0.3-0.2-0.5-0.3-0.6c0.6-0.7,1-1.5,1.4-2.6C128.4,41.9,128.4,41.8,128.4,41.6z M130.1,44.3l0.3,0.1c-0.1,1.1-0.3,2-0.6,2.7
	c0.4,0.5,0.9,0.8,1.8,0.8c0.1,0,0.3,0,0.5,0c1.2,0,1.9,0,2.1,0c-0.1,0.2-0.1,0.3-0.2,0.5h-1.9c-0.9,0-1.6-0.2-2.1-0.5
	c-0.1-0.1-0.3-0.2-0.4-0.3c-0.2,0.4-0.5,0.7-0.8,0.9c-0.1-0.2-0.2-0.3-0.3-0.4c0.3-0.2,0.6-0.6,0.8-1c-0.3-0.4-0.4-0.9-0.5-1.6
	l0.4-0.1c0.1,0.4,0.2,0.8,0.4,1.2c0.2-0.5,0.3-1.1,0.4-1.8h-0.7l-0.2,0.4l-0.5-0.1c0.3-0.7,0.7-1.4,1-2.3h-0.8v-0.5h1.1l0.1,0
	l0.4,0.1c-0.3,0.8-0.6,1.5-0.9,2L130.1,44.3L130.1,44.3z M131.8,43.2v-0.6h-1.1v-0.4h1.1v-0.6h0.5v0.6h1.4v1h0.5v0.4h-0.5v1h-1.4
	v0.6h1.5v0.4h-1.5v0.6h1.7v0.4h-1.7v0.9h-0.5v-0.9h-1.5v-0.4h1.5v-0.6h-1.2v-0.4h1.2v-0.6h-1.1v-0.4h1.1v-0.6h-1.6v-0.4H131.8z
	 M133.2,42.7h-0.9v0.6h0.9V42.7z M133.2,44.3v-0.6h-0.9v0.6H133.2z"/>
<path class="st0" d="M141,44l0.5,0.3c-0.4,0.5-0.8,1-1.3,1.5v2c0,0.3-0.1,0.5-0.3,0.7c0,0-0.1,0-0.1,0.1c-0.2,0.1-0.7,0.1-1.5,0.1
	c0-0.2-0.1-0.4-0.2-0.6c0.5,0,1,0,1.4,0c0.1,0,0.2,0,0.2-0.1c0,0,0,0,0-0.1v-1.5c-1.2,0.9-2.8,1.7-4.6,2.3c-0.1-0.2-0.3-0.4-0.4-0.5
	c1.5-0.4,2.8-1,3.9-1.7c-1.9,0.1-3.2,0.3-3.8,0.3l-0.1-0.6c0.1,0,0.5,0,1.2-0.1v-3.6h1.6c0.1-0.3,0.3-0.6,0.3-0.8l0.7,0.1
	c-0.1,0.2-0.2,0.4-0.4,0.7h2.1v2.6C140.6,44.7,140.8,44.3,141,44z M139.7,42.8h-3.1v0.7h3.1V42.8z M139.7,44.7V44h-3.1v0.7H139.7z
	 M136.6,45.1v0.8c0.6,0,1.6-0.1,2.9-0.2c0.1-0.1,0.2-0.2,0.3-0.3v-0.4H136.6z"/>
<path class="st0" d="M148.7,45.9h-3.4c0,0.2-0.1,0.4-0.1,0.6h2.7c0,0,0,0.1,0,0.2c-0.1,0.9-0.2,1.5-0.4,1.7c0,0,0,0,0,0
	c-0.1,0.1-0.3,0.2-0.5,0.2c-0.2,0-0.5,0-0.9,0c0-0.2-0.1-0.4-0.1-0.5c0.3,0,0.5,0,0.9,0c0.1,0,0.2,0,0.3,0c0.1-0.1,0.2-0.5,0.3-1.1
	h-2.2c-0.3,0.7-0.7,1.1-1.4,1.5c-0.2,0.1-0.4,0.1-0.6,0.2c-0.1-0.2-0.2-0.3-0.3-0.4c0.8-0.2,1.4-0.6,1.7-1.2
	c0.1-0.3,0.3-0.7,0.3-1.1h-1.6c-0.1,1.1-0.4,2-0.9,2.6c-0.1-0.1-0.2-0.3-0.4-0.4c0,0-0.1,0-0.1,0c0.5-0.7,0.8-1.7,0.9-3.1
	c0-0.1,0-0.3,0-0.4V42l0.5,0.1c1.9-0.1,3.4-0.2,4.4-0.4l0.4,0.4c-1.1,0.2-2.7,0.4-4.7,0.4v0.4h5v1.7h-5c0,0.2,0,0.5,0,0.7h2.1v-0.7
	h0.5v0.7h2.8L148.7,45.9L148.7,45.9z M147.6,43.5h-4.4v0.8h4.4V43.5z"/>
<path class="st0" d="M1.5,53.8H1.2c-0.2,0.4-0.5,0.7-0.7,0.9c-0.1-0.1-0.3-0.2-0.5-0.3c0.5-0.4,0.8-1,1.1-1.7c0,0,0-0.1,0-0.1
	l0.5,0.1c-0.1,0.1-0.1,0.3-0.3,0.5h2v0.5H2.1c0.1,0.3,0.2,0.5,0.3,0.7l-0.5,0.2C1.8,54.5,1.7,54.2,1.5,53.8z M7,56.6H5.4v0.7h1.4
	v0.5H5.4V59c0,0.3-0.1,0.4-0.2,0.5c0,0-0.1,0-0.1,0.1c-0.2,0.1-0.6,0.1-1.3,0.1c0-0.1-0.1-0.3-0.2-0.5c0.6,0,0.9,0,1.1,0
	c0.1,0,0.1-0.1,0.2-0.1v-1.2H0.3v-0.5h4.5v-0.7H0.1v-0.5h3.1v-0.7H0.9v-0.5h2.4v-0.5c0,0-0.1,0-0.1-0.1c0,0-0.1,0-0.1,0
	c0.4-0.4,0.8-0.9,1-1.5c0-0.1,0-0.1,0.1-0.2l0.5,0.1c-0.1,0.2-0.1,0.4-0.2,0.5h2.5v0.5H5.3c0.2,0.3,0.3,0.5,0.4,0.7l-0.5,0.2
	c-0.1-0.3-0.3-0.6-0.5-0.9H4.2C4,54,3.9,54.2,3.7,54.4h0.1V55h2.5v0.5H3.8v0.7H7L7,56.6L7,56.6z M1.5,58.1l0.4-0.3
	c0.5,0.3,0.9,0.7,1.2,1c0,0,0.1,0.1,0.1,0.1l-0.4,0.4c-0.2-0.3-0.6-0.7-1.1-1C1.6,58.2,1.5,58.2,1.5,58.1z"/>
<path class="st0" d="M10.4,58.9c-0.5,0.3-1.2,0.6-2.2,0.8c-0.1,0-0.2,0-0.4,0.1c-0.1-0.1-0.2-0.3-0.3-0.4C8.3,59.2,9,59,9.6,58.7
	c0.1-0.1,0.2-0.1,0.3-0.1H8.5v-2.4h4.9v2.4h-1.6c1,0.3,1.9,0.5,2.6,0.8l-0.5,0.3c-0.7-0.3-1.5-0.5-2.4-0.8l0.4-0.3H10L10.4,58.9z
	 M8.7,55.1H7.6v-0.4h1.2l0.1-0.7h4.4l0,0.7h1.2v0.4h-1.2l-0.1,0.7H8.7L8.7,55.1z M8.3,54.5H7.8v-1.2h2.9v-0.5h0.5v0.5h2.9v1.2h-0.5
	v-0.8H8.3L8.3,54.5L8.3,54.5z M12.9,56.5H9.1v0.3h3.8V56.5z M12.9,57.2H9.1v0.4h3.8V57.2z M12.9,57.9H9.1v0.4h3.8V57.9z M10.6,55.1
	H9.3l0,0.4h1.4C10.6,55.4,10.6,55.3,10.6,55.1z M10.7,54.6c0-0.1,0-0.1,0-0.2H9.3l0,0.4h1.4C10.7,54.7,10.7,54.6,10.7,54.6z
	 M11.1,55.5h1.5l0-0.4h-1.5C11.1,55.2,11.1,55.4,11.1,55.5z M11.2,54.4l0,0.4h1.5l0-0.4H11.2z"/>
<path class="st0" d="M21.5,53.2v5.7c0,0.3-0.1,0.5-0.3,0.6c0,0-0.1,0-0.1,0c-0.2,0.1-0.7,0.1-1.4,0.1c0-0.1-0.1-0.3-0.2-0.5
	c0.3,0,0.7,0,1.2,0c0.1,0,0.2-0.1,0.2-0.2v-1.5h-2v2.3h-0.6v-2.3h-1.9c-0.1,1-0.5,1.8-0.9,2.4c-0.1-0.1-0.2-0.3-0.4-0.4c0,0,0,0,0,0
	c0.5-0.6,0.9-1.6,0.9-2.8c0-0.1,0-0.3,0-0.5v-2.7H21.5z M16.4,56.8h1.9v-1.3h-1.8v0.4C16.5,56.3,16.4,56.6,16.4,56.8z M18.3,53.8
	h-1.8V55h1.8V53.8z M20.9,55v-1.2h-2V55H20.9z M18.9,56.8h2v-1.3h-2V56.8z"/>
<path class="st0" d="M28.5,57.4h0.8v0.5h-6.9v-0.5h0.8L23,53.2l0.4,0.1c0.4-0.2,0.8-0.4,1-0.6l0.4,0.4c-0.3,0.1-0.7,0.4-1.3,0.6
	l0,0.8h1V55h-1l0,0.9h1v0.5h-1l0,0.9H25v-1.8h0.5v1.8h0.7v-2.1H25v-2.5h0.5v0.8h1.4V54h-1.4v0.8h1.2v2.6H28c0-0.2,0-0.5,0-0.9h-0.9
	V56h1c0-0.1,0-0.3,0-0.5c0-0.2,0-0.4,0-0.5h-1v-0.5h1c0-0.4,0-0.7,0-0.9H27v-0.5h1.6C28.6,54.6,28.6,56.1,28.5,57.4z M24.6,58
	l0.5,0.3c-0.6,0.4-1.3,0.9-2.1,1.2c0,0-0.1,0-0.1,0.1c-0.1-0.1-0.3-0.3-0.4-0.4c0.7-0.3,1.3-0.6,1.9-1C24.4,58.2,24.5,58.1,24.6,58z
	 M26.6,58.4L27,58c0.9,0.4,1.6,0.8,2.3,1.3l-0.5,0.4C28.2,59.3,27.4,58.8,26.6,58.4z"/>
<path class="st0" d="M30.1,59.7v-3.3h2.7v3.3h-0.5v-0.3h-1.6v0.4L30.1,59.7L30.1,59.7z M32.2,56.9h-1.6v1.8h1.6V56.9z M35.4,53v2.5
	h-4.2V53H35.4z M34.8,55v-1.5h-3V55H34.8z M33.6,56.3h2.8v3.3h-0.5v-0.4h-1.8v0.4h-0.5V56.3z M34.2,58.7h1.8v-1.8h-1.8V58.7z"/>
<path class="st0" d="M39.4,57.8h-1.5v0.6h-0.5v-5h2V57.8z M38.9,53.9h-0.9v3.3h0.9V53.9z M44.1,56.3h-1.8c0.4,0.8,0.8,1.5,1.4,2
	c0.2,0.2,0.3,0.3,0.5,0.4c-0.2,0.1-0.3,0.3-0.4,0.5c-0.6-0.5-1.1-1.2-1.6-2.1c0-0.1-0.1-0.1-0.1-0.2v2.7h-0.5v-2.7
	c-0.5,0.9-1.1,1.6-1.8,2.1c-0.1,0.1-0.1,0.1-0.2,0.1c-0.1-0.2-0.3-0.3-0.4-0.4c0.6-0.3,1.2-0.9,1.7-1.6c0.2-0.3,0.3-0.5,0.5-0.8
	h-1.6v-0.5h1.9v-1.3H40v-0.5h1.6v-1.2h0.5v1.2h1.7v0.5h-1.7v1.3h2V56.3z"/>
<path class="st0" d="M50.8,57.7h-1.3c0.3,0.3,0.6,0.5,1,0.8c0.4,0.3,0.8,0.4,1.2,0.6c-0.2,0.1-0.3,0.3-0.4,0.5
	c-0.4-0.1-0.7-0.4-1.1-0.7c-0.4-0.3-0.7-0.5-1-0.9v1.7h-0.5v-2h-1.1v2h-0.5v-1.6c-0.6,0.7-1.3,1.1-2,1.5c-0.1-0.1-0.2-0.3-0.4-0.4
	c0.4-0.1,0.7-0.3,1.1-0.6c0.4-0.3,0.7-0.5,0.9-0.8h-1.4v-0.5h1.7v-0.7h-2.3V56h2.3v-0.7h-1.6v-0.5H47v-0.7h-2.1v-0.5h1.8
	c-0.2-0.3-0.4-0.5-0.7-0.8l0.5-0.2c0.4,0.3,0.7,0.6,0.8,0.9L47,53.7h2.1c0.3-0.3,0.5-0.7,0.8-1.1l0.6,0.2c-0.3,0.4-0.5,0.7-0.7,0.9
	h1.6v0.5h-2.2v0.7h1.6v1.1h0.8v0.5h-0.8L50.8,57.7L50.8,57.7z M47.6,54.2v0.7h1.1v-0.7H47.6z M47.6,55.4V56h1.1v-0.7H47.6z
	 M47.6,57.2h1.1v-0.7h-1.1V57.2z M50.3,55.4h-1.1V56h1.1V55.4z M50.3,57.2v-0.7h-1.1v0.7H50.3z"/>
<path class="st0" d="M54.4,58.1l0.5,0.3c-0.5,0.4-1.3,0.8-2.1,1.2c-0.1,0-0.1,0-0.2,0.1c-0.1-0.1-0.3-0.3-0.4-0.4
	c0.7-0.3,1.4-0.6,1.9-1C54.3,58.2,54.3,58.1,54.4,58.1z M59.2,57.5V58h-6.8v-0.5h1.2v-4.4H58v4.4H59.2z M57.4,53.5h-3.4v0.7h3.4
	V53.5z M57.4,55.3v-0.7h-3.4v0.7H57.4z M57.4,55.7h-3.4v0.7h3.4V55.7z M54.1,56.8v0.7h3.4v-0.7H54.1z M56.5,58.4l0.4-0.4
	c0.9,0.4,1.6,0.8,2.3,1.2l-0.4,0.4C58.2,59.3,57.4,58.8,56.5,58.4z"/>
<path class="st0" d="M61.2,52.7l0.6,0.1c-0.1,0.5-0.3,0.8-0.4,1.1h1.3v5h-2.1v0.6H60v-5.6h0.9C61,53.4,61.1,53,61.2,52.7z M62.2,56
	v-1.6h-1.6V56H62.2z M60.6,58.4h1.6v-1.8h-1.6V58.4z M66.4,53.9v0.3c-0.1,2.4-0.2,3.9-0.3,4.4c-0.1,0.3-0.1,0.5-0.2,0.6
	c-0.1,0.2-0.3,0.3-0.6,0.3h0c-0.2,0-0.6,0-1.1,0c0-0.2-0.1-0.4-0.2-0.5c0.3,0,0.7,0,1.1,0c0.1,0,0.3,0,0.3-0.1
	c0.2-0.2,0.3-0.9,0.4-2.2c0-0.6,0.1-1.3,0.1-2.3H64c-0.3,0.6-0.5,1-0.7,1.3c-0.1-0.1-0.2-0.2-0.5-0.3c0.5-0.7,0.9-1.6,1.2-2.8
	l0.5,0.1c-0.1,0.4-0.2,0.7-0.3,1.1H66.4z M65.2,57.3l-0.5,0.3c-0.2-0.4-0.6-1.1-1.2-1.7l0.4-0.3C64.6,56.3,65,56.9,65.2,57.3z"/>
<path class="st0" d="M72.2,56.6H74v0.5h-6.9v-0.5h1.8v-1.8h-1.5v-0.5h1.5v-1.5h0.6v1.5h2.2v-1.5h0.6v1.5h1.5v0.5h-1.5L72.2,56.6
	L72.2,56.6z M69.3,57.7l0.6,0.2c-0.5,0.6-1.1,1.1-1.8,1.6c-0.1,0.1-0.3,0.1-0.4,0.2c-0.1-0.1-0.3-0.3-0.4-0.4
	c0.6-0.3,1.2-0.7,1.7-1.2C69.1,57.9,69.2,57.8,69.3,57.7z M69.5,54.9v1.8h2.2v-1.8H69.5z M71.2,57.9l0.5-0.3
	c0.9,0.6,1.6,1.2,2.1,1.7c0,0,0,0,0,0l-0.5,0.4C72.9,59.2,72.2,58.7,71.2,57.9C71.3,58,71.3,58,71.2,57.9z"/>
<path class="st0" d="M81.3,57.7v0.5h-3.1v0.9c0,0.3-0.1,0.4-0.3,0.5c0,0-0.1,0-0.1,0c-0.2,0-0.7,0.1-1.4,0.1c0-0.1-0.1-0.3-0.2-0.5
	c0.2,0,0.6,0,1.2,0c0.1,0,0.2-0.1,0.2-0.1v-0.9h-3.1v-0.5h3.1v-0.5h0.3c0.5-0.1,0.9-0.3,1.3-0.5h-4v-0.5H80l0.1,0l0.4,0.3
	c-0.7,0.4-1.4,0.7-2.4,1v0.1L81.3,57.7L81.3,57.7z M81.2,53.4v0.5h-6.6v-0.5h3v-0.7h0.6v0.7H81.2z M80.3,55.9h-4.7v-1.5h4.7V55.9z
	 M76.1,54.7v0.7h3.6v-0.7H76.1z"/>
<path class="st0" d="M83.2,53.8l0.6,0.2c-0.4,0.8-0.9,1.5-1.5,2c-0.1,0.1-0.3,0.2-0.4,0.3c-0.2-0.2-0.3-0.3-0.4-0.4
	c0.5-0.4,1-0.9,1.4-1.6C83.1,54.2,83.1,54,83.2,53.8z M86,57.1l0.5-0.3c0.7,0.8,1.2,1.5,1.7,2.3c0.1,0.1,0.1,0.2,0.2,0.3l-0.5,0.3
	c-0.1-0.1-0.2-0.3-0.4-0.6c-2.8,0.1-4.6,0.2-5.4,0.3L82,58.8c0.2,0,0.5,0,1.1,0c0.5-0.9,0.9-1.9,1.4-3.1c0-0.1,0.1-0.2,0.1-0.3
	l0.7,0.2c-0.5,1.2-1,2.3-1.5,3.2c0.1,0,1.3-0.1,3.4-0.1C86.7,58,86.3,57.5,86,57.1z M83.7,53h2.8c0.3,0.8,0.8,1.6,1.4,2.2
	c0.2,0.2,0.4,0.4,0.6,0.6c-0.2,0.1-0.4,0.3-0.5,0.4c-0.6-0.5-1.2-1.2-1.7-2.1c-0.1-0.1-0.2-0.3-0.3-0.5h-2.4L83.7,53L83.7,53z"/>
<path class="st0" d="M91.8,53.9v0.5h-2.9v-0.5H91.8z M91.6,57v2.2h-1.8v0.4h-0.5V57H91.6z M89.3,55.4V55h2.3v0.5H89.3z M89.3,56.5
	V56h2.3v0.5H89.3z M91.5,53v0.5h-2.2V53H91.5z M91.1,57.5h-1.3v1.3h1.3V57.5z M93,53.4v0.4c0,0.9-0.3,1.6-1,2
	c-0.1-0.1-0.3-0.3-0.4-0.4c0.5-0.4,0.8-0.9,0.8-1.6V53h2.4v1.9c0,0.1,0,0.2,0.1,0.2s0,0,0.1,0h0.4c0.1,0,0.1,0,0.1-0.1
	c0-0.1,0-0.3,0-0.7c0.1,0.1,0.3,0.1,0.5,0.2c0,0.5-0.1,0.9-0.3,1c-0.1,0.1-0.2,0.1-0.3,0.1h-0.5c-0.3,0-0.5-0.1-0.5-0.2
	c0-0.1-0.1-0.3-0.1-0.5v-1.4L93,53.4L93,53.4z M95.2,55.9l0.4,0.1c-0.3,0.9-0.7,1.6-1.3,2.3c0.5,0.4,1.1,0.7,1.8,0.8
	c-0.1,0.1-0.3,0.3-0.4,0.5c-0.7-0.2-1.3-0.5-1.8-0.9c-0.5,0.4-1.2,0.7-1.9,0.9c-0.1-0.2-0.2-0.4-0.3-0.5c0.7-0.2,1.3-0.5,1.8-0.8
	c-0.4-0.5-0.8-1-1.1-1.7l0.5-0.1c0.2,0.5,0.5,1.1,1,1.5c0.4-0.4,0.8-0.9,1-1.5H92V56L95.2,55.9L95.2,55.9z"/>
<path class="st0" d="M98.9,56.2c0-0.3,0.1-0.6,0.4-0.8c0.2-0.1,0.4-0.2,0.6-0.2c0.3,0,0.6,0.1,0.8,0.4c0.1,0.2,0.2,0.4,0.2,0.7
	c0,0.3-0.1,0.6-0.4,0.8c-0.2,0.1-0.4,0.2-0.7,0.2c-0.3,0-0.6-0.1-0.8-0.4C99,56.6,98.9,56.4,98.9,56.2z M99.3,56.2
	c0,0.3,0.1,0.4,0.3,0.6c0.1,0.1,0.3,0.1,0.4,0.1c0.3,0,0.4-0.1,0.6-0.3c0.1-0.1,0.1-0.3,0.1-0.4c0-0.3-0.1-0.4-0.3-0.6
	c-0.1-0.1-0.3-0.1-0.4-0.1c-0.3,0-0.4,0.1-0.6,0.3C99.3,55.9,99.3,56.1,99.3,56.2z"/>
</svg>
