<svg width="323" height="145" viewBox="0 0 323 145" fill="none" xmlns="http://www.w3.org/2000/svg">
<path d="M160.092 144.866L322.925 144.866V33.5538L160.092 33.5538V144.866Z" fill="#B18053"/>
<path d="M192.091 64.1156L191.659 64.6541C191.444 64.4028 191.048 64.0438 190.509 63.5413V66.0899H189.791V63.4336C189.252 64.2592 188.712 64.9053 188.102 65.372C187.958 65.1566 187.778 64.9771 187.598 64.8335C188.209 64.4387 188.748 63.8643 189.287 63.0746C189.395 62.8952 189.503 62.7157 189.611 62.5721H187.814V61.926H189.791V60.8491H187.778V60.203H192.45V60.8491H190.509V61.926H192.378V62.5721H190.509V62.8234C191.048 63.2182 191.552 63.649 192.055 64.0797C192.091 64.0797 192.091 64.0797 192.091 64.1156ZM192.342 57.9775V58.6236H187.958V57.9775H189.791V56.9724H190.509V57.9775H192.342ZM189.575 60.0594L188.964 60.2389C188.928 59.8082 188.784 59.3056 188.569 58.8031L189.144 58.6595C189.359 59.1261 189.503 59.5928 189.575 60.0594ZM191.192 60.203L190.581 60.0594C190.833 59.4851 191.012 58.9826 191.084 58.6236L191.767 58.7672C191.516 59.4851 191.336 59.9517 191.192 60.203ZM196.906 60.3107V61.0286H195.792V66.0899H195.073V60.9927H193.564V61.244C193.564 63.29 193.133 64.8335 192.234 65.8745C192.162 65.9822 192.055 66.054 191.983 66.1617C191.875 66.0181 191.731 65.8386 191.516 65.695C191.48 65.6591 191.48 65.6591 191.444 65.6591C192.306 64.8335 192.773 63.5772 192.845 61.9619C192.845 61.7465 192.881 61.5311 192.881 61.2799V57.798L193.42 57.9775C194.678 57.6903 195.612 57.4032 196.223 57.116L196.834 57.6903C196.152 58.0134 195.073 58.3005 193.6 58.5877V60.3825H196.906V60.3107Z" fill="white"/>
<path d="M200.5 61.2804V59.4856H201.219V66.1263H200.5V63.5059H199.494C199.494 64.6186 199.206 65.4801 198.631 66.0545C198.595 66.0904 198.595 66.0904 198.559 66.1263C198.416 65.9468 198.236 65.8032 197.984 65.6955C198.523 65.193 198.811 64.4751 198.847 63.5059H198.128V62.8239H200.464V61.8906H198.631V59.5933H199.314V61.2445H200.5V61.2804ZM203.95 58.4087H201.363V59.2343H200.608V58.4087H198.236V57.7267H200.608V56.937H201.363V57.7267H203.95V56.937H204.705V57.7267H207.148V58.4087H204.705V59.2343H203.95V58.4087ZM207.22 62.1777H204.777V65.0494H207.041V65.7673H201.83V65.0494H204.058V62.1777H201.614V61.4598H204.058V59.4497H204.812V61.4598H207.256V62.1777H207.22Z" fill="white"/>
<path d="M213.545 64.9419H217.678V65.6958H208.73V64.9419H212.791V60.8858H209.377V60.1679H212.791V56.9731H213.581V60.1679H217.067V60.8858H213.581V64.9419H213.545Z" fill="white"/>
<path d="M220.948 60.024V62.9316C221.667 62.6085 222.062 62.4649 222.098 62.4649L222.242 63.1469C221.847 63.3264 220.805 63.793 219.152 64.5468L218.864 63.793C219.259 63.6495 219.727 63.47 220.23 63.2546V60.0599H218.936V59.342H220.23V57.0447H220.948V59.342H222.134V60.0599H220.948V60.024ZM224.327 65.2289H226.77C227.058 65.2289 227.237 65.1212 227.345 64.9417C227.417 64.7622 227.489 64.3674 227.525 63.8289C227.741 63.9725 227.956 64.0802 228.208 64.1161C228.136 64.8699 227.992 65.3724 227.812 65.5878C227.597 65.8032 227.273 65.9109 226.806 65.9109H224.327C223.68 65.9109 223.284 65.8032 223.105 65.5519C222.925 65.3725 222.853 65.0135 222.853 64.5468V61.388L222.062 61.7111L221.775 61.065L222.853 60.5983V57.8703H223.572V60.3112L224.902 59.7369V56.937H225.62V59.4497L226.95 58.8754L227.094 58.7318L227.237 58.6241L227.741 58.8036L227.705 58.9472C227.705 61.1368 227.669 62.3931 227.597 62.7162C227.561 63.0751 227.381 63.2905 227.058 63.3623C226.878 63.3982 226.555 63.4341 226.123 63.4341C226.087 63.1469 226.016 62.9316 225.944 62.788C226.123 62.788 226.339 62.788 226.627 62.788C226.77 62.788 226.878 62.7162 226.914 62.5367C226.914 62.5367 226.914 62.5367 226.914 62.5008C226.95 62.2495 226.986 61.2804 226.986 59.5574L225.584 60.1676V63.8648H224.866V60.4548L223.536 61.0291V64.511C223.536 64.834 223.608 65.0135 223.752 65.0853C223.895 65.193 224.075 65.2289 224.327 65.2289Z" fill="white"/>
<path d="M232.664 62.0342L232.269 62.6085C232.161 62.3572 231.945 61.9624 231.622 61.4957V66.0904H230.975V61.6034C230.58 62.7521 230.22 63.5777 229.825 64.152C229.753 64.0084 229.645 63.7931 229.466 63.5059C229.933 62.8598 230.328 61.9983 230.688 60.8855C230.723 60.7419 230.759 60.5984 230.831 60.4548H229.609V59.7728H230.939V58.1575C230.616 58.2293 230.256 58.301 229.897 58.3728C229.861 58.2293 229.789 58.0498 229.681 57.7985C230.867 57.5831 231.73 57.296 232.305 57.0088L232.736 57.619C232.377 57.7626 232.017 57.9062 231.622 58.0139V59.7728H232.736V60.4548H231.622V60.7419C231.981 61.1368 232.305 61.5316 232.628 61.9624C232.628 61.9983 232.628 62.0342 232.664 62.0342ZM238.773 60.7778H235C234.784 61.1727 234.533 61.6034 234.281 61.9624H235.575V61.065H236.258V61.9624H238.306V64.4751C238.306 64.7622 238.234 64.9776 238.091 65.0494C238.055 65.0853 238.019 65.0853 238.019 65.0853C237.839 65.1571 237.48 65.193 236.941 65.193C236.905 65.0135 236.833 64.7981 236.725 64.5469C237.12 64.5469 237.372 64.5469 237.48 64.5469C237.552 64.5469 237.588 64.511 237.623 64.4392V62.5726H236.294V66.0545H235.611V62.5726H234.353V65.193H233.67V62.7162C233.419 62.9675 233.203 63.1828 233.023 63.2905C232.844 63.0751 232.664 62.8957 232.52 62.788C233.203 62.2854 233.778 61.6034 234.245 60.7419H233.023V60.0958H234.605C234.784 59.6651 234.928 59.342 234.964 59.1625C234.209 59.4497 233.742 59.6292 233.527 59.701C233.311 59.4138 233.167 59.1984 233.059 59.1266C233.814 58.9113 234.569 58.66 235.323 58.3369C234.677 58.0857 234.03 57.8703 233.419 57.6549L233.886 57.1524C234.677 57.4037 235.431 57.6549 236.114 57.9421C236.761 57.5831 237.264 57.2601 237.588 56.9011L238.234 57.1883C237.875 57.5113 237.408 57.8703 236.833 58.2292C237.623 58.5882 238.234 58.9113 238.666 59.1266L238.198 59.701C237.731 59.3779 237.013 59.019 236.114 58.6241C235.898 58.7318 235.575 58.8754 235.144 59.0908L235.719 59.2343C235.719 59.2702 235.683 59.3061 235.683 59.342C235.683 59.3779 235.647 59.4138 235.647 59.4856C235.611 59.5215 235.611 59.5933 235.611 59.5933C235.611 59.6292 235.575 59.6651 235.575 59.7369C235.539 59.8087 235.539 59.8445 235.539 59.8445C235.539 59.8445 235.503 59.9163 235.467 59.9881L235.431 60.0958H238.881V60.7778H238.773Z" fill="white"/>
<path d="M249.016 58.9472H243.625C243.409 59.3779 243.23 59.7728 243.014 60.0958H247.866V65.193C247.866 65.5519 247.758 65.8032 247.578 65.9109C247.542 65.9468 247.47 65.9468 247.434 65.9827C247.183 66.0904 246.572 66.1263 245.673 66.1263C245.637 65.9109 245.566 65.6596 245.422 65.3725C245.745 65.3725 246.212 65.4083 246.859 65.4083C247.003 65.3724 247.075 65.3366 247.111 65.193V64.152H242.906V66.1263H242.152V61.2804C241.612 61.9265 241.073 62.4649 240.462 62.8598C240.355 62.6803 240.175 62.4649 239.995 62.2854C241.109 61.5316 242.044 60.4189 242.762 58.9472H240.247V58.2292H243.086C243.302 57.6908 243.445 57.2601 243.517 56.937L244.272 57.1165C244.128 57.5831 243.984 57.9421 243.877 58.2292H249.016V58.9472ZM247.111 61.7829V60.7778H242.906V61.7829H247.111ZM242.906 63.47H247.111V62.429H242.906V63.47Z" fill="white"/>
<path d="M256.275 56.9731H256.958C257.605 57.7628 258.395 58.4449 259.294 58.9833C259.509 59.091 259.689 59.1987 259.905 59.3064C259.725 59.5217 259.581 59.7371 259.473 59.9525C259.006 59.6653 258.575 59.3782 258.18 59.091V59.4499H255.233V59.091C254.802 59.4499 254.334 59.773 253.831 60.0602C253.795 59.9525 253.723 59.8448 253.616 59.7012H252.681V61.6396L253.723 61.3524L253.795 61.9985C253.687 62.0344 253.544 62.0703 253.328 62.1421C253.005 62.2498 252.789 62.3216 252.645 62.3575V65.265C252.645 65.6599 252.537 65.9111 252.286 66.0188C252.07 66.1265 251.603 66.1624 250.92 66.1624C250.884 65.9111 250.812 65.6958 250.669 65.4445C250.992 65.4445 251.352 65.4445 251.747 65.4445C251.855 65.4086 251.927 65.3368 251.927 65.265V62.5728C251.747 62.6087 251.495 62.7164 251.172 62.7882C250.92 62.86 250.777 62.9318 250.669 62.9677L250.453 62.2139C250.705 62.1421 251.208 62.0344 251.927 61.8549V59.7012H250.561V59.0192H251.927V56.9731H252.645V59.0192H253.652V59.3422C254.514 58.8756 255.233 58.2654 255.844 57.5475C256.023 57.3321 256.167 57.1526 256.275 56.9731ZM259.006 62.8959H254.981C254.837 64.1881 254.442 65.1932 253.759 65.9111C253.616 65.7317 253.436 65.5881 253.256 65.4804H253.22C253.975 64.6189 254.334 63.3984 254.334 61.7473V60.0602H258.97V62.8959H259.006ZM254.909 66.0906V63.4702H259.15V66.0547H258.467V65.6958H255.556V66.0547H254.909V66.0906ZM255.017 62.3575H258.323V61.7114H255.017V61.7832C255.053 62.0344 255.017 62.2139 255.017 62.3575ZM258.323 60.5986H255.017V61.2447H258.323V60.5986ZM255.484 58.8756H257.928C257.425 58.4449 256.994 58.05 256.67 57.6193C256.347 58.05 255.952 58.4449 255.484 58.8756ZM258.467 64.0446H255.556V65.1573H258.467V64.0446Z" fill="white"/>
<path d="M269.895 62.106V62.8598H265.762V65.0853C265.762 65.4801 265.655 65.7673 265.403 65.875C265.367 65.9109 265.295 65.9109 265.259 65.9468C264.936 66.0545 264.253 66.0904 263.175 66.0904C263.103 65.8391 262.995 65.5878 262.852 65.3366C263.606 65.3725 264.217 65.3725 264.72 65.3366C264.9 65.3007 265.008 65.193 265.044 65.0494V62.8239H260.875V62.0701H265.008V60.4548H261.558V59.7369H265.008V58.1934C264.002 58.301 262.888 58.3728 261.738 58.4446C261.702 58.2292 261.63 58.0139 261.558 57.7626C264.72 57.619 266.948 57.3319 268.314 56.937C268.35 56.937 268.35 56.937 268.35 56.937L268.925 57.5113C268.098 57.7626 267.056 57.9421 265.798 58.1216V59.7369H269.356V60.4548H265.798V62.0701H269.895V62.106Z" fill="white"/>
<path d="M274.172 61.8906H273.417V60.5984H274.747V61.6394C274.747 62.3573 274.459 62.8598 273.884 63.2188C273.777 63.2906 273.705 63.3264 273.705 63.3264L273.453 62.9316C273.92 62.6803 274.172 62.3573 274.172 61.8906Z" fill="white"/>
<path d="M280.964 58.9833V60.6345C280.964 60.7781 280.964 60.8858 280.964 60.9934H282.833V61.7114H280.892C280.892 61.8549 280.856 62.1062 280.784 62.3934C281.108 62.7164 281.791 63.4702 282.797 64.583L282.294 65.2291C281.898 64.6907 281.359 64.0087 280.641 63.1831C280.245 64.4394 279.563 65.4445 278.556 66.1624C278.448 65.9829 278.269 65.8034 278.089 65.624L278.053 65.5881C279.311 64.6907 280.03 63.3984 280.173 61.7473H278.125V61.0293H280.209V59.0192H279.455C279.167 59.7371 278.88 60.2396 278.628 60.5986C278.52 60.4909 278.305 60.3473 278.017 60.1679C278.556 59.4499 278.988 58.3731 279.275 56.9731L279.994 57.1167C279.922 57.4398 279.814 57.8346 279.67 58.3372H282.545V59.0192H280.964V58.9833ZM283.156 57.7987H286.75V65.7317H285.995V65.0496H283.875V65.8393H283.156V57.7987ZM283.875 64.3317H285.995V58.5167H283.875V64.3317Z" fill="white"/>
<path d="M296.525 66.0904H295.77V65.5878H291.314V66.0904H290.559V62.788C290.272 62.8957 290.02 62.9675 289.733 63.0393C289.445 63.111 289.158 63.1828 288.906 63.2546C288.87 63.1469 288.834 63.0392 288.727 62.8957C288.655 62.7521 288.583 62.6444 288.511 62.5726C289.158 62.429 289.805 62.2495 290.452 62.0342C291.098 61.8188 291.709 61.5316 292.32 61.2086C292.069 60.9573 291.781 60.706 291.422 60.4189C291.062 60.1317 290.739 59.8805 290.38 59.6292C290.2 59.7369 290.02 59.8805 289.841 59.9881C289.661 60.0958 289.445 60.2035 289.266 60.3112C289.23 60.2394 289.122 60.1317 289.014 60.024C288.906 59.9163 288.834 59.8087 288.727 59.7728C289.122 59.5933 289.517 59.3779 289.841 59.1266C290.164 58.9113 290.487 58.66 290.775 58.4087C291.062 58.1575 291.314 57.9062 291.53 57.6549C291.745 57.4037 291.925 57.1524 292.069 56.9011L292.895 57.0806C292.787 57.2242 292.68 57.3678 292.608 57.5113C292.5 57.6549 292.392 57.7985 292.248 57.9421H295.806L295.914 57.9062L296.417 58.2292C296.022 59.019 295.447 59.7369 294.764 60.3471C294.081 60.9573 293.327 61.4957 292.464 61.9265H296.453V66.0904H296.525ZM291.637 58.5882C291.53 58.6959 291.422 58.8036 291.314 58.9113C291.206 59.019 291.098 59.0907 290.991 59.1984C291.17 59.3061 291.35 59.4497 291.53 59.5933C291.709 59.7369 291.889 59.8805 292.069 59.9881C292.248 60.1317 292.428 60.2753 292.572 60.383C292.716 60.5266 292.859 60.6343 293.003 60.7778C293.47 60.4907 293.937 60.1317 294.333 59.7728C294.728 59.4138 295.087 59.019 295.375 58.5882H291.637ZM295.77 64.8699V62.6085H291.314V64.8699H295.77Z" fill="white"/>
<path d="M190.258 79.2282L190.689 79.3359C190.545 80.6999 190.258 81.8844 189.862 82.8177C190.545 83.4638 191.552 83.8228 192.881 83.9305C193.169 83.9664 193.528 83.9664 193.887 83.9664C195.612 83.9664 196.619 83.9664 196.978 83.9664C196.834 84.1817 196.727 84.433 196.655 84.7202H193.852C192.27 84.7202 191.084 84.5048 190.258 84.0382C189.97 83.8946 189.719 83.7151 189.503 83.4997C189.144 84.1459 188.712 84.6484 188.173 85.0073C188.03 84.8279 187.85 84.6484 187.67 84.5048C187.634 84.5048 187.634 84.4689 187.634 84.4689C188.173 84.0741 188.641 83.5715 189 82.9254C188.641 82.4229 188.317 81.7768 188.066 80.9512L188.641 80.7358C188.82 81.3101 189.036 81.8127 189.323 82.2434C189.575 81.5973 189.791 80.8435 189.898 79.9461H188.748L188.533 80.3409L187.85 80.1615C188.353 79.2282 188.856 78.2231 189.359 77.1103H187.742V76.4283H189.755L189.862 76.3924L190.366 76.536C190.15 77.0385 189.719 77.9718 189.072 79.2641H190.114L190.258 79.2282ZM193.241 79.2282V78.4744H190.473V77.9H193.241V77.1821H191.156V76.6078H193.205V75.8899H193.923V76.6078H196.152V77.9359H196.906V78.5103H196.152V79.8743H193.923V80.6281H196.223V81.2024H193.923V81.9921H196.655V82.6024H193.923V83.6792H193.205V82.6024H190.581V81.9921H193.205V81.2024H191.048V80.6281H193.205V79.8743H191.084V79.2641H193.241V79.2282ZM193.959 77.1821V77.9H195.433V77.1821H193.959ZM195.433 79.2282V78.4744H193.959V79.2282H195.433Z" fill="white"/>
<path d="M207.256 77.3975H205.387C205.28 77.6129 205.1 77.9718 204.813 78.4385H206.933V84.0023C206.933 84.3971 206.825 84.6843 206.573 84.792C206.538 84.792 206.538 84.8279 206.502 84.8279C206.25 84.8997 205.675 84.9356 204.777 84.9356C204.741 84.6484 204.633 84.433 204.525 84.2177C205.1 84.2536 205.603 84.2536 205.963 84.2177C206.106 84.1818 206.178 84.11 206.178 84.0023V79.0846H204.094V80.0897C204.094 80.1974 204.13 80.2692 204.202 80.3051C204.237 80.3051 204.309 80.3051 204.381 80.3051H205.28C205.387 80.3051 205.495 80.2692 205.495 80.1615C205.531 80.0538 205.531 79.9102 205.567 79.6589C205.675 79.7666 205.855 79.8384 206.142 79.9102C206.106 80.4127 205.963 80.6999 205.783 80.8076C205.675 80.8794 205.531 80.8794 205.352 80.8794H204.309C203.878 80.8794 203.627 80.8076 203.519 80.6281C203.447 80.5204 203.411 80.341 203.411 80.0897V79.0846H202.225C202.153 79.8025 201.938 80.3409 201.542 80.664C201.219 80.9153 200.788 81.0948 200.213 81.2383C200.141 81.023 199.997 80.8794 199.853 80.7358C200.608 80.5922 201.111 80.3051 201.327 79.9461C201.434 79.7307 201.542 79.4436 201.578 79.0846H199.781V84.8997H199.098V78.4385H201.075C200.967 78.1513 200.823 77.7924 200.608 77.3975H198.703V76.7155H202.584V75.7822H203.339V76.7155H207.328V77.3975H207.256ZM204.848 83.8587H201.722V84.4689H201.075V81.3819H204.884V83.8587H204.848ZM201.794 78.4744H203.95C204.202 78.0436 204.381 77.6847 204.489 77.4334H201.327C201.542 77.7924 201.722 78.1513 201.794 78.4744ZM204.166 81.9921H201.722V83.2844H204.166V81.9921Z" fill="white"/>
<path d="M214.659 75.8181H215.342C215.989 76.6078 216.78 77.2898 217.678 77.8283C217.894 77.936 218.073 78.0436 218.289 78.1513C218.109 78.3667 217.966 78.5821 217.858 78.7974C217.391 78.5103 216.959 78.2231 216.564 77.936V78.2949H213.617V77.936C213.186 78.2949 212.719 78.618 212.216 78.9051C212.18 78.7974 212.108 78.6898 212 78.5462H211.066V80.4845L212.108 80.1974L212.18 80.8435C212.072 80.8794 211.928 80.9153 211.712 80.9871C211.389 81.0948 211.173 81.1665 211.03 81.2024V84.11C211.03 84.5048 210.922 84.7561 210.67 84.8638C210.455 84.9715 209.987 85.0074 209.305 85.0074C209.269 84.7561 209.197 84.5407 209.053 84.2895C209.377 84.2895 209.736 84.2895 210.131 84.2895C210.239 84.2536 210.311 84.1818 210.311 84.11V81.4178C210.131 81.4537 209.88 81.5614 209.556 81.6332C209.305 81.705 209.161 81.7768 209.053 81.8127L208.837 81.0589C209.089 80.9871 209.592 80.8794 210.311 80.6999V78.5462H208.945V77.8642H210.311V75.8181H211.03V77.8642H212.036V78.1872C212.898 77.7206 213.617 77.1104 214.228 76.3924C214.444 76.1771 214.587 75.9976 214.659 75.8181ZM217.391 81.7409H213.366C213.222 83.0331 212.827 84.0382 212.144 84.7561C212 84.5766 211.82 84.433 211.641 84.3254H211.605C212.359 83.4639 212.719 82.2434 212.719 80.5922V78.9051H217.391V81.7409ZM213.294 84.9356V82.3152H217.534V84.8997H216.852V84.5407H213.941V84.8997H213.294V84.9356ZM213.437 81.2024H216.744V80.5563H213.437V80.6281C213.437 80.8794 213.437 81.0589 213.437 81.2024ZM216.744 79.4436H213.437V80.0897H216.744V79.4436ZM213.869 77.7206H216.312C215.809 77.2898 215.378 76.895 215.055 76.4642C214.767 76.895 214.372 77.2898 213.869 77.7206ZM216.852 82.8895H213.941V84.0023H216.852V82.8895Z" fill="white"/>
<path d="M221.991 80.4128V82.9254C222.458 83.6433 223.284 84.0023 224.542 84.0741C226.088 84.11 227.561 84.11 228.963 84.0023C229.034 84.0023 229.07 84.0023 229.142 84.0023C229.034 84.2177 228.927 84.4689 228.891 84.7561C227.345 84.792 225.908 84.8279 224.578 84.792C223.32 84.7202 222.386 84.3613 221.811 83.7151C221.775 83.6792 221.739 83.6433 221.739 83.6075C221.38 83.9305 220.912 84.3613 220.302 84.8997L219.906 84.1459C220.373 83.8228 220.841 83.428 221.344 82.9972V81.1307H220.014V80.4487H221.991V80.4128ZM222.242 79.0487L221.739 79.5871C221.38 79.2282 220.877 78.8334 220.194 78.4744C220.122 78.4385 220.086 78.4026 220.014 78.4026L220.517 77.936C221.2 78.259 221.739 78.5821 222.17 78.9769C222.17 79.0128 222.206 79.0487 222.242 79.0487ZM222.53 77.1104L222.027 77.6129C221.739 77.2539 221.236 76.8591 220.553 76.4642C220.481 76.4284 220.445 76.3925 220.373 76.3566L220.877 75.8899C221.595 76.2848 222.134 76.6796 222.494 77.0386C222.494 77.0745 222.53 77.0745 222.53 77.1104ZM223.284 83.4639V78.6539C223.177 78.7975 222.961 79.0128 222.709 79.2282C222.566 79.0487 222.35 78.8692 222.134 78.6898C222.925 78.0436 223.536 77.1822 224.039 76.1053C224.111 75.9976 224.147 75.854 224.183 75.7463L224.902 75.9258C224.722 76.3925 224.47 76.895 224.183 77.3616H225.8C226.052 76.7873 226.267 76.2489 226.411 75.8181L227.202 75.9976C226.986 76.536 226.77 76.9668 226.555 77.3975H228.747V78.0436H226.483V79.0487H228.459V79.6948H226.483V80.6999H228.423V81.346H226.483V82.387H228.963V83.0331H224.003V83.4998H223.284V83.4639ZM225.764 79.0487V78.0436H224.003V79.0487H225.764ZM225.764 80.6999V79.6948H224.003V80.6999H225.764ZM225.764 82.387V81.346H224.003V82.387H225.764Z" fill="white"/>
<path d="M233.67 80.0179L233.778 80.6999L232.7 81.0589V84.0741C232.7 84.433 232.592 84.6843 232.377 84.792H232.341C232.125 84.8997 231.694 84.9356 231.083 84.9356C231.047 84.6843 230.975 84.4689 230.867 84.2536C231.37 84.2536 231.694 84.2536 231.837 84.2536C231.945 84.2177 231.981 84.1459 232.017 84.0741V81.2742L230.831 81.6691L230.652 80.9512C230.759 80.9153 231.191 80.7717 232.053 80.5563V78.5103H230.795V77.8283H232.053V75.8181H232.736V77.8283H233.814V78.5103H232.736V80.3768C232.88 80.3409 233.095 80.2692 233.383 80.1615C233.491 80.0538 233.598 80.0179 233.67 80.0179ZM237.156 83.751H238.881V82.2434H237.587V81.5973H238.881V80.3768H237.552V79.7307H239.564V84.8997H238.881V84.3971H234.748V84.9356H234.066V79.7307L234.605 79.9102C235.072 79.7307 235.467 79.5513 235.791 79.3718L236.402 79.9102C235.97 80.1256 235.431 80.3051 234.748 80.4845V81.5973H236.042V82.2434H234.748V83.751H236.473V78.6898H233.886V78.0077H236.473V77.0027C235.755 77.0745 235 77.1104 234.209 77.1463C234.173 76.9668 234.137 76.7873 234.03 76.5719C236.33 76.4283 237.983 76.213 239.025 75.9617L239.492 76.536C238.809 76.7155 238.019 76.8232 237.156 76.9309V78.0077H239.816V78.6898H237.156V83.751Z" fill="white"/>
<path d="M245.278 79.3718V79.6948C245.242 82.2434 245.134 83.7151 245.027 84.2177C244.991 84.3613 244.955 84.469 244.883 84.5766C244.775 84.7561 244.595 84.8638 244.344 84.8997H244.308C244.092 84.9356 243.805 84.9356 243.409 84.8997C243.409 84.6484 243.337 84.3972 243.23 84.2177C243.481 84.2536 243.733 84.2536 244.02 84.2536C244.128 84.2536 244.236 84.2177 244.272 84.11C244.416 83.8587 244.523 82.5306 244.559 80.0538C244.559 80.0538 244.559 80.0538 244.559 80.0179H243.445C243.409 81.5973 243.158 82.8895 242.655 83.8587C242.475 84.2536 242.223 84.5766 241.972 84.8997C241.864 84.792 241.684 84.6484 241.433 84.433C242.259 83.428 242.727 82.0639 242.762 80.341C242.762 80.1615 242.762 79.9461 242.762 79.7666V78.0078H241.577V77.3257H243.266V75.7104H243.984V77.3257H245.458V77.7206C245.925 77.1463 246.248 76.5001 246.5 75.7104L247.183 75.854C247.111 76.1412 247.003 76.4643 246.859 76.7514H250.741V77.3975H246.536C246.284 77.8283 246.033 78.1513 245.781 78.4026C245.566 78.2231 245.386 78.1154 245.206 78.0078L245.242 77.9719H243.481V79.2641H245.278V79.3718ZM247.039 83.1408L247.686 83.4639C247.219 84.0023 246.608 84.433 245.925 84.8279C245.853 84.8638 245.781 84.8997 245.709 84.9356C245.53 84.7561 245.386 84.6125 245.206 84.4689C245.853 84.1459 246.392 83.7869 246.823 83.3562C246.931 83.2844 247.003 83.2126 247.039 83.1408ZM245.458 82.4947H246.608V79.1923H245.745V78.5821H246.608V77.9001H247.291V78.5821H249.123V77.9001H249.806V78.5821H250.633V79.1923H249.806V82.4947H250.812V83.1049H245.458V82.4947ZM249.123 79.1923H247.291V79.9461H249.123V79.1923ZM247.255 80.4128V81.1666H249.087V80.4128H247.255ZM247.255 81.705V82.4588H249.087V81.705H247.255ZM248.62 83.5357L249.159 83.2126C249.878 83.751 250.453 84.2177 250.848 84.6125L250.309 84.9715C249.914 84.5407 249.339 84.0382 248.692 83.5357C248.656 83.5357 248.656 83.5357 248.62 83.5357Z" fill="white"/>
<path d="M255.089 80.7356H254.334V79.4434H255.664V80.4843C255.664 81.2022 255.377 81.7048 254.802 82.0637C254.694 82.1355 254.622 82.1714 254.622 82.1714L254.37 81.7766C254.837 81.5612 255.089 81.2022 255.089 80.7356Z" fill="white"/>
<path d="M261.594 77.8283L262.277 78.0436C261.989 78.5462 261.702 78.9769 261.414 79.3718V85.0074H260.731V80.1974C260.3 80.664 259.905 81.023 259.617 81.2742C259.545 81.0948 259.402 80.8794 259.186 80.5922C260.048 79.9461 260.767 79.1923 261.378 78.2949C261.414 78.1154 261.522 77.9718 261.594 77.8283ZM261.378 75.7822L262.061 76.0335C261.522 76.7873 260.875 77.5052 260.012 78.1513C259.905 78.259 259.797 78.3308 259.653 78.4026C259.509 78.1513 259.366 77.9718 259.222 77.8642C259.905 77.4334 260.48 76.8591 260.983 76.2489C261.162 76.0694 261.27 75.9258 261.378 75.7822ZM265.762 82.028V84.11C266.014 84.1459 266.337 84.1818 266.661 84.1818H268.53C268.386 84.3971 268.314 84.6125 268.278 84.8638H266.625C265.583 84.8638 264.828 84.6484 264.289 84.2177C263.93 83.9305 263.642 83.4998 263.427 82.9972C263.175 83.7869 262.744 84.433 262.241 84.9356C262.133 84.792 261.917 84.6125 261.666 84.4689C262.384 83.8587 262.852 82.8536 263.031 81.4896C263.067 81.1665 263.103 80.8076 263.139 80.4486L263.858 80.4845C263.822 80.9512 263.786 81.4537 263.678 81.9562C263.966 82.9254 264.433 83.5715 265.08 83.8946V79.6948H265.223C265.008 79.5154 264.864 79.4077 264.72 79.3C265.691 78.5821 266.266 77.3975 266.517 75.7822L267.236 75.854C267.128 76.4642 267.02 77.0027 266.841 77.5052C267.595 78.1154 268.17 78.6898 268.566 79.2282L268.602 79.2641L268.098 79.7666C267.811 79.3718 267.308 78.7974 266.589 78.1513C266.266 78.7615 265.906 79.3 265.439 79.6948H265.834V81.3819H268.062V82.028H265.762ZM265.223 78.4385L264.864 79.0128C264.612 78.7257 264.289 78.4026 263.858 78.0436C263.498 78.8333 263.067 79.4436 262.564 79.9102C262.384 79.7307 262.205 79.5512 262.025 79.4436C262.025 79.4436 261.989 79.4436 261.989 79.4077C262.887 78.618 263.498 77.3975 263.822 75.7822L264.541 75.8899C264.433 76.3924 264.289 76.895 264.109 77.4334C264.612 77.8642 265.008 78.1872 265.223 78.4385Z" fill="white"/>
<path d="M272.195 78.9051V81.8127C272.914 81.4896 273.309 81.346 273.345 81.346L273.489 82.028C273.094 82.2075 272.052 82.6742 270.398 83.428L270.111 82.6742C270.506 82.5306 270.973 82.3511 271.477 82.1357V78.941H270.219V78.2231H271.512V75.9258H272.231V78.2231H273.417V78.941H272.195V78.9051ZM275.573 84.0741H278.017C278.305 84.0741 278.484 83.9664 278.592 83.7869C278.664 83.6074 278.736 83.2126 278.772 82.6742C278.987 82.8177 279.203 82.9254 279.455 82.9613C279.383 83.7151 279.239 84.2177 279.059 84.433C278.844 84.6484 278.52 84.7561 278.053 84.7561H275.573C274.927 84.7561 274.531 84.6484 274.352 84.3971C274.172 84.2177 274.1 83.8587 274.1 83.3921V80.2333L273.309 80.5563L273.022 79.9102L274.1 79.4436V76.7155H274.819V79.1564L276.148 78.5821V75.7822H276.867V78.2949L278.197 77.7206L278.341 77.577L278.484 77.4693L278.987 77.6488L278.952 77.7924C278.952 79.982 278.916 81.2383 278.844 81.5614C278.808 81.9203 278.628 82.1357 278.305 82.2075C278.125 82.2434 277.802 82.2793 277.37 82.2793C277.334 81.9921 277.262 81.7768 277.191 81.6332C277.37 81.6332 277.586 81.6332 277.873 81.6332C278.017 81.6332 278.125 81.5614 278.161 81.3819C278.161 81.3819 278.161 81.3819 278.161 81.346C278.197 81.0948 278.233 80.1256 278.233 78.4026L276.831 79.0128V82.7101H276.112V79.3L274.783 79.8743V83.3562C274.783 83.6792 274.855 83.8587 274.998 83.9305C275.142 84.0382 275.322 84.0741 275.573 84.0741Z" fill="white"/>
<path d="M282.905 75.8181L283.588 75.9976C283.336 76.7155 283.084 77.3616 282.797 77.936V84.8997H282.078V79.2641C281.755 79.8025 281.431 80.2692 281.108 80.6281C281 80.341 280.856 80.0897 280.713 79.8743C281.503 78.9769 282.15 77.7924 282.653 76.3565C282.797 76.1771 282.869 75.9976 282.905 75.8181ZM285.708 83.5356L286.247 83.8946C285.636 84.3253 284.845 84.6484 283.839 84.8997C283.803 84.8997 283.767 84.8997 283.767 84.9356C283.623 84.7202 283.48 84.5407 283.336 84.433C284.163 84.2536 284.881 83.9664 285.564 83.6074C285.636 83.6074 285.672 83.5715 285.708 83.5356ZM285.636 77.4693V76.895H283.659V76.3207H290.056V76.895H287.972V77.4693H289.733V79.4077H283.875V77.4693H285.636ZM289.661 83.4639H284.127V79.8743H289.661V83.4639ZM284.558 77.936V78.9051H285.636V77.936H284.558ZM284.809 80.3768V80.9512H288.942V80.3768H284.809ZM284.809 81.3819V81.9562H288.942V81.3819H284.809ZM284.809 82.4229V82.9972H288.942V82.4229H284.809ZM287.361 77.4693V76.895H286.247V77.4693H287.361ZM286.247 77.936V78.9051H287.361V77.936H286.247ZM287.361 84.0023L287.828 83.5715C288.906 83.9664 289.733 84.2895 290.236 84.5407L289.589 84.9715C289.086 84.6843 288.331 84.3254 287.361 84.0023ZM289.086 77.936H287.972V78.9051H289.086V77.936Z" fill="white"/>
<path d="M293.866 79.0127C294.62 79.6229 295.339 80.3408 296.022 81.1305C296.058 81.1664 296.094 81.2023 296.094 81.2382L295.411 81.8125C294.692 80.951 293.937 80.1972 293.183 79.587L293.866 79.0127Z" fill="white"/>
<path d="M196.798 100.263H192.414C192.378 100.514 192.342 100.801 192.27 101.052H195.792C195.792 101.052 195.792 101.16 195.756 101.34C195.648 102.524 195.469 103.278 195.289 103.529C195.253 103.565 195.253 103.565 195.217 103.601C195.037 103.745 194.822 103.816 194.534 103.852C194.283 103.888 193.852 103.852 193.277 103.816C193.241 103.565 193.169 103.35 193.061 103.17C193.384 103.206 193.78 103.206 194.247 103.206C194.427 103.206 194.534 103.17 194.606 103.134C194.786 102.955 194.894 102.452 194.966 101.627H192.055C191.731 102.488 191.084 103.134 190.186 103.529C189.934 103.637 189.683 103.745 189.395 103.816C189.287 103.601 189.144 103.386 188.964 103.242C190.078 102.955 190.833 102.416 191.228 101.663C191.408 101.304 191.552 100.801 191.623 100.263H189.467C189.323 101.699 188.892 102.883 188.245 103.745C188.137 103.565 187.994 103.422 187.778 103.278C187.742 103.242 187.706 103.242 187.67 103.206C188.389 102.309 188.748 100.945 188.784 99.15C188.784 99.0064 188.784 98.8269 188.784 98.6475V95.1297L189.467 95.3092C191.947 95.2015 193.852 95.0579 195.217 94.7708L195.72 95.3451C194.211 95.6322 192.162 95.8117 189.503 95.9194V96.4937H196.008V98.7193H189.503C189.503 99.0064 189.503 99.3295 189.467 99.6525H192.234V98.7552H192.989V99.6525H196.727V100.263H196.798ZM195.361 97.104H189.575V98.109H195.361V97.104Z" fill="white"/>
<path d="M200.105 94.699L200.787 94.8785C200.536 95.5964 200.284 96.2425 199.997 96.8168V103.781H199.278V98.1449C198.955 98.6834 198.631 99.15 198.308 99.509C198.2 99.2218 198.056 98.9705 197.912 98.7552C198.703 97.8578 199.35 96.6732 199.853 95.2374C199.997 95.0579 200.033 94.8426 200.105 94.699ZM202.908 102.381L203.447 102.74C202.836 103.17 202.045 103.493 201.039 103.745C201.003 103.745 200.967 103.745 200.967 103.781C200.823 103.565 200.68 103.386 200.536 103.278C201.362 103.099 202.081 102.811 202.764 102.452C202.8 102.452 202.836 102.417 202.908 102.381ZM202.836 96.3143V95.7399H200.859V95.1656H207.256V95.7399H205.172V96.3143H206.933V98.2526H201.075V96.3143H202.836ZM206.825 102.345H201.291V98.7552H206.825V102.345ZM201.758 96.7809V97.7501H202.836V96.7809H201.758ZM202.009 99.2218V99.7961H206.142V99.2218H202.009ZM202.009 100.227V100.801H206.142V100.227H202.009ZM202.009 101.268V101.842H206.142V101.268H202.009ZM204.525 96.3143V95.7399H203.411V96.3143H204.525ZM203.447 96.7809V97.7501H204.561V96.7809H203.447ZM204.525 102.847L204.992 102.417C206.07 102.811 206.897 103.134 207.4 103.386L206.753 103.816C206.286 103.529 205.531 103.17 204.525 102.847ZM206.286 96.7809H205.172V97.7501H206.286V96.7809Z" fill="white"/>
<path d="M211.784 102.381L214.012 102.093L214.048 102.775C213.078 102.919 211.353 103.17 208.873 103.529L208.766 102.775C209.197 102.74 209.987 102.632 211.102 102.488V100.729H209.161V100.047H211.102V98.8628H211.82V100.047H213.725V100.729H211.82V102.381H211.784ZM212.036 96.7809L212.575 96.4578C213.366 97.3911 213.905 98.109 214.156 98.7192L213.581 99.0782C213.473 98.8987 213.366 98.6833 213.222 98.4321C212.827 98.468 211.389 98.5398 208.873 98.6833L208.802 97.9654L209.7 97.9295C209.987 97.3193 210.239 96.6373 210.455 95.9194H208.802V95.2374H213.941V95.9194H211.281C210.886 96.9603 210.598 97.6065 210.455 97.8936C211.748 97.8577 212.503 97.8218 212.791 97.7859C212.575 97.427 212.287 97.068 212.036 96.7809ZM215.127 95.8476V101.375H214.408V95.8476H215.127ZM216.78 94.9143H217.498V102.811C217.498 103.242 217.391 103.529 217.175 103.637C217.139 103.673 217.103 103.673 217.067 103.709C216.816 103.78 216.241 103.852 215.342 103.852C215.306 103.601 215.198 103.35 215.091 103.063C215.414 103.063 215.881 103.098 216.564 103.098C216.708 103.027 216.78 102.955 216.816 102.847V94.9143H216.78Z" fill="white"/>
<path d="M222.961 100.083L222.53 100.658C222.314 100.263 221.991 99.7243 221.595 99.1141V103.781H220.877V99.3654C220.409 100.514 219.942 101.376 219.475 101.95C219.403 101.806 219.295 101.555 219.08 101.268C219.619 100.622 220.122 99.7961 220.553 98.6834C220.625 98.468 220.697 98.2885 220.769 98.109H219.187V97.427H220.841V95.9194C220.481 95.9912 220.014 96.063 219.511 96.1348C219.475 95.9553 219.403 95.7758 219.295 95.5604C220.661 95.3451 221.739 95.0938 222.494 94.7708L222.925 95.381C222.53 95.5246 222.098 95.6681 221.559 95.7758V97.427H222.925V98.109H221.559V98.2885C221.955 98.7193 222.35 99.2577 222.817 99.9038C222.889 99.9756 222.925 100.047 222.961 100.083ZM227.417 102.775H228.352V103.493H222.53V102.775H223.536V95.2015H227.417V102.775ZM226.662 95.8835H224.255V97.6065H226.662V95.8835ZM226.662 100.155V98.3244H224.255V100.191H226.662V100.155ZM224.255 100.873V102.811H226.662V100.873H224.255Z" fill="white"/>
<path d="M234.533 100.335V102.811H238.45V103.493H229.933V102.811H233.742V100.335H230.364V99.6885H233.742V98.3244H231.658V97.7501C231.119 98.145 230.544 98.5039 230.005 98.7911C229.897 98.6116 229.753 98.4321 229.537 98.2168C230.723 97.6065 231.802 96.8168 232.736 95.8118C233.131 95.381 233.455 94.9862 233.706 94.5913H234.461C235.216 95.5964 236.222 96.4938 237.408 97.2835C237.875 97.6065 238.342 97.8578 238.809 98.0732C238.63 98.2885 238.45 98.5039 238.342 98.7552C237.803 98.468 237.228 98.1091 236.653 97.7142V98.3603H234.497V99.6885H237.947V100.335H234.533ZM231.227 100.837L231.837 100.586C232.305 101.196 232.592 101.77 232.772 102.273C232.772 102.309 232.808 102.345 232.808 102.345L232.161 102.632C232.017 102.129 231.766 101.555 231.298 100.873C231.262 100.909 231.227 100.873 231.227 100.837ZM231.802 97.6783H236.653C235.575 96.8886 234.748 96.0989 234.173 95.3451C233.634 96.0989 232.844 96.8527 231.802 97.6783ZM235.898 102.668L235.359 102.417C235.755 101.878 236.114 101.268 236.437 100.55L237.156 100.837C236.689 101.591 236.294 102.201 235.898 102.668Z" fill="white"/>
<path d="M242.87 99.6167H242.116V98.3245H243.445V99.3654C243.445 100.083 243.158 100.586 242.583 100.945C242.475 101.017 242.403 101.053 242.403 101.053L242.152 100.658C242.619 100.406 242.87 100.047 242.87 99.6167Z" fill="white"/>
<path d="M248.728 94.699L249.411 94.8785C249.159 95.5964 248.908 96.2425 248.62 96.8168V103.781H247.902V98.1449C247.578 98.6834 247.255 99.15 246.931 99.509C246.823 99.2218 246.68 98.9705 246.536 98.7552C247.327 97.8578 247.973 96.6732 248.477 95.2374C248.62 95.0579 248.692 94.8426 248.728 94.699ZM251.531 102.381L252.07 102.74C251.459 103.17 250.669 103.493 249.663 103.745C249.627 103.745 249.591 103.745 249.591 103.781C249.447 103.565 249.303 103.386 249.159 103.278C249.986 103.099 250.705 102.811 251.388 102.452C251.459 102.452 251.495 102.417 251.531 102.381ZM251.459 96.3143V95.7399H249.483V95.1656H255.88V95.7399H253.795V96.3143H255.556V98.2526H249.734V96.3143H251.459ZM255.484 102.345H249.95V98.7552H255.484V102.345ZM250.381 96.7809V97.7501H251.459V96.7809H250.381ZM250.633 99.2218V99.7961H254.766V99.2218H250.633ZM250.633 100.227V100.801H254.766V100.227H250.633ZM250.633 101.268V101.842H254.766V101.268H250.633ZM253.184 96.3143V95.7399H252.07V96.3143H253.184ZM252.07 96.7809V97.7501H253.184V96.7809H252.07ZM253.184 102.847L253.652 102.417C254.73 102.811 255.556 103.134 256.059 103.386L255.413 103.816C254.909 103.529 254.155 103.17 253.184 102.847ZM254.909 96.7809H253.795V97.7501H254.909V96.7809Z" fill="white"/>
<path d="M265.187 95.6682L265.655 95.8835C265.331 96.8527 264.756 97.7501 264.037 98.5039C264.792 99.1141 265.619 99.5808 266.553 99.832C266.373 100.012 266.23 100.227 266.086 100.478C266.014 100.442 265.87 100.406 265.619 100.299V103.781H264.9V103.386H262.097V103.816H261.414V100.406C261.198 100.514 260.911 100.622 260.623 100.729C260.516 100.514 260.372 100.299 260.192 100.119C261.27 99.7603 262.205 99.2577 263.031 98.5398C262.636 98.1091 262.277 97.6424 261.989 97.1399C261.666 97.5347 261.342 97.8937 260.983 98.2167C260.803 98.0373 260.587 97.8578 260.408 97.7142C260.444 97.6783 260.48 97.6424 260.552 97.6065C260.587 97.5706 260.659 97.5347 260.659 97.4988H259.509V97.9296C260.084 98.5757 260.516 99.0782 260.767 99.4731L260.336 100.047C260.156 99.7244 259.905 99.3295 259.509 98.7911V103.816H258.791V99.0423C258.395 100.299 257.928 101.268 257.461 101.914C257.389 101.699 257.245 101.483 257.066 101.268C257.605 100.586 258.072 99.6167 258.467 98.3962C258.575 98.0732 258.647 97.786 258.719 97.4988H257.281V96.8168H258.791V94.6631H259.509V96.8168H260.803V97.3552C261.594 96.6014 262.169 95.7041 262.564 94.6631L263.283 94.8426C263.211 95.022 263.067 95.3092 262.887 95.74H265.044L265.187 95.6682ZM261.881 100.155H265.223C264.612 99.8679 264.037 99.4731 263.534 99.0064C263.067 99.4372 262.528 99.7961 261.881 100.155ZM262.097 102.704H264.9V100.765H262.097V102.704ZM262.528 96.3502L262.384 96.5297C262.708 97.104 263.067 97.6065 263.498 98.0732C264.002 97.5347 264.397 96.9604 264.684 96.3502H262.528Z" fill="white"/>
<path d="M270.614 97.1399L271.117 97.3194C270.722 99.3654 269.967 100.945 268.781 102.093C268.494 102.345 268.206 102.596 267.919 102.811C267.775 102.632 267.595 102.417 267.38 102.237L267.344 102.201C268.422 101.519 269.248 100.514 269.823 99.1141C269.967 98.7193 270.111 98.2885 270.219 97.8937H267.595V97.1399H270.506H270.614ZM275.645 96.2425L276.328 96.7091C275.358 97.7501 274.459 98.6475 273.597 99.2936C274.459 100.765 275.502 101.77 276.759 102.309C276.508 102.524 276.328 102.74 276.184 102.991C274.567 102.201 273.309 100.658 272.447 98.3962V102.704C272.447 103.134 272.339 103.422 272.088 103.565C272.052 103.601 272.016 103.601 271.98 103.601C271.692 103.709 271.081 103.745 270.147 103.745C270.111 103.529 270.003 103.242 269.859 102.919C270.183 102.919 270.722 102.955 271.405 102.955C271.584 102.919 271.656 102.811 271.692 102.668V94.5913H272.483V96.422C272.698 97.2835 272.986 98.0373 273.345 98.6834C274.316 97.8578 275.07 97.0322 275.681 96.2784C275.609 96.3143 275.645 96.2784 275.645 96.2425Z" fill="white"/>
<path d="M279.778 98.3962L279.347 98.9705C279.023 98.6475 278.52 98.2885 277.838 97.9654C277.802 97.9654 277.802 97.9296 277.766 97.9296L278.197 97.3911C278.952 97.7501 279.455 98.109 279.778 98.3962ZM278.628 103.673L277.945 103.278C278.484 102.273 278.916 101.196 279.347 100.083L279.958 100.478C279.527 101.663 279.095 102.704 278.628 103.673ZM280.137 95.8117L279.67 96.386C279.347 96.063 278.88 95.704 278.233 95.3092C278.197 95.2733 278.161 95.2733 278.161 95.2733L278.592 94.7708C279.239 95.0938 279.742 95.4528 280.102 95.8117C280.137 95.7758 280.137 95.8117 280.137 95.8117ZM280.137 95.6681V94.9861H282.473V98.2526H281.791V97.9654H280.892C280.856 98.109 280.856 98.3603 280.82 98.6834C280.784 98.9705 280.748 99.15 280.748 99.2936H282.473C282.473 99.2936 282.473 99.4013 282.437 99.6166C282.366 101.663 282.258 102.883 282.114 103.278C282.078 103.35 282.042 103.422 282.006 103.493C281.862 103.673 281.647 103.745 281.431 103.781C281.144 103.816 280.784 103.816 280.353 103.781C280.317 103.493 280.245 103.278 280.173 103.098C280.461 103.134 280.784 103.134 281.144 103.134C281.288 103.134 281.395 103.099 281.467 103.027C281.611 102.847 281.719 101.806 281.791 99.9397C281.791 99.9397 281.791 99.9397 281.791 99.9038H280.677L280.641 100.263L279.994 100.191C280.138 99.2936 280.281 98.3244 280.353 97.2475H281.863V95.6322H280.137V95.6681ZM286.498 100.299L286.93 100.765C286.678 101.017 286.247 101.34 285.744 101.699C286.103 102.381 286.534 102.883 287.073 103.206C286.894 103.386 286.75 103.565 286.606 103.781C285.564 103.099 284.881 101.806 284.522 99.9038H283.983V102.775C284.522 102.668 284.953 102.56 285.384 102.488L285.456 103.063C284.306 103.35 283.408 103.565 282.869 103.709L282.689 103.027C282.761 103.027 282.833 102.991 282.977 102.955C283.12 102.919 283.264 102.919 283.336 102.883V99.8679H282.797V99.2218H283.372V94.9143H286.786V95.5246H284.055V96.3502H286.498V96.9604H284.055V97.786H286.498V98.3962H284.055V99.2218H287.002V99.8679H285.169C285.277 100.335 285.384 100.765 285.528 101.124C285.816 100.909 286.175 100.622 286.498 100.299Z" fill="white"/>
<path d="M290.703 95.9912H292.356V98.827L292.68 98.7911C292.644 98.7552 292.644 98.7552 292.644 98.7552C292.859 98.6116 293.039 98.4321 293.147 98.2885C293.255 98.109 293.362 97.9296 293.434 97.7501C293.506 97.5706 293.542 97.3911 293.578 97.2117C293.614 97.0322 293.614 96.8527 293.614 96.6732V95.1656H294.297V96.7091C294.297 96.9245 294.297 97.1399 294.261 97.3911C294.225 97.6065 294.189 97.8578 294.081 98.0731C294.009 98.2885 293.866 98.5039 293.722 98.7193C293.578 98.9346 293.362 99.1141 293.111 99.2936C293.075 99.2577 293.039 99.1859 292.967 99.1141C292.895 99.0423 292.823 98.9705 292.752 98.9347V99.509L292.32 99.5449V103.027C292.32 103.386 292.248 103.601 292.069 103.709C292.033 103.709 292.033 103.709 292.033 103.745C291.853 103.816 291.422 103.888 290.847 103.888C290.775 103.601 290.703 103.386 290.631 103.206C291.098 103.206 291.386 103.206 291.53 103.206C291.637 103.206 291.709 103.134 291.709 103.063V99.6167L289.769 99.7961C289.733 101.699 289.481 103.063 288.942 103.888C288.798 103.745 288.619 103.637 288.403 103.529C288.87 102.811 289.122 101.663 289.158 100.119V99.8679L288.511 99.9397L288.439 99.2577L289.194 99.1859V96.0271H290.128C290.308 95.4887 290.416 95.0579 290.487 94.699L291.278 94.8426C291.098 95.1297 290.919 95.5246 290.703 95.9912ZM291.709 98.8988V96.6373H289.769V99.0782C290.128 99.0423 290.775 98.9705 291.709 98.8988ZM290.164 97.2117L290.631 97.0322C290.919 97.4629 291.098 97.8937 291.206 98.3603L290.703 98.5757C290.631 98.1449 290.452 97.6783 290.164 97.2117ZM290.416 99.9756H290.919V102.201H290.416V99.9756ZM293.147 99.5808H296.992V103.781H296.273V103.35H293.83V103.852H293.147V99.5808ZM296.309 100.263H293.866V102.632H296.309V100.263ZM295.878 98.7552C295.77 98.6116 295.734 98.3603 295.734 98.0014V95.1297H296.417V98.0373C296.417 98.1808 296.417 98.2526 296.453 98.2885C296.453 98.3244 296.489 98.3603 296.561 98.3603H297.459V98.9705H296.525C296.202 99.0064 295.986 98.8988 295.878 98.7552Z" fill="white"/>
<path d="M192.63 114.406H196.655V115.052H187.994V114.406H191.875V113.437H192.63V114.406ZM196.259 118.318V121.764C196.259 122.123 196.152 122.339 195.972 122.482C195.936 122.518 195.9 122.518 195.864 122.518C195.648 122.59 195.073 122.626 194.175 122.626C194.139 122.375 194.031 122.123 193.923 121.944C194.642 121.98 195.109 121.98 195.325 121.944C195.433 121.908 195.505 121.836 195.541 121.764V118.964H189.144V122.662H188.425V118.354H196.259V118.318ZM189.647 115.626H195.037V117.672H189.647V115.626ZM194.283 117.134V116.165H190.366V117.134H194.283ZM194.211 121.728H191.048V122.231H190.366V119.611H194.175V121.728H194.211ZM193.564 120.149H191.084V121.154H193.564V120.149Z" fill="white"/>
<path d="M200.392 118.462H199.637V117.17H200.967V118.211C200.967 118.929 200.68 119.431 200.105 119.79C199.997 119.862 199.925 119.898 199.925 119.898L199.673 119.503C200.141 119.252 200.392 118.893 200.392 118.462Z" fill="white"/>
<path d="M206.142 115.518L206.825 115.734C206.537 116.236 206.25 116.667 205.963 117.062V122.698H205.28V117.888C204.848 118.354 204.453 118.713 204.166 118.964C204.094 118.785 203.95 118.57 203.734 118.282C204.597 117.636 205.316 116.882 205.927 115.985C205.962 115.806 206.034 115.662 206.142 115.518ZM205.891 113.472L206.573 113.724C206.034 114.477 205.388 115.195 204.525 115.842C204.417 115.949 204.309 116.021 204.166 116.093C204.022 115.842 203.878 115.662 203.734 115.554C204.417 115.124 204.992 114.549 205.495 113.939C205.711 113.795 205.819 113.616 205.891 113.472ZM211.677 118.605L212.144 118.857C211.784 119.718 211.209 120.436 210.419 121.01C211.245 121.477 212.144 121.836 213.15 122.016C212.97 122.195 212.827 122.41 212.683 122.662C211.605 122.41 210.634 122.016 209.808 121.441C208.945 121.98 207.903 122.41 206.681 122.698C206.573 122.446 206.466 122.231 206.286 122.051C207.364 121.836 208.334 121.477 209.197 121.01C208.73 120.616 208.334 120.185 208.047 119.754C207.687 120.077 207.256 120.364 206.825 120.652C206.645 120.4 206.466 120.221 206.322 120.113C207.256 119.611 208.047 118.929 208.658 118.175C208.73 118.103 208.802 117.995 208.838 117.923C207.4 117.959 206.609 117.995 206.502 117.995L206.43 117.313L207.975 117.277C208.262 117.026 208.514 116.811 208.658 116.667C208.119 116.129 207.472 115.626 206.753 115.124L207.22 114.657C207.472 114.836 207.688 114.944 207.831 115.052C208.334 114.513 208.766 114.011 209.089 113.508L209.736 113.867C209.197 114.513 208.73 115.016 208.334 115.411C208.73 115.698 209.017 115.949 209.233 116.2C209.952 115.518 210.562 114.872 211.03 114.298L211.713 114.657C210.814 115.626 209.916 116.488 208.945 117.277C209.341 117.277 210.239 117.241 211.641 117.206C211.389 116.882 211.173 116.595 210.886 116.308L211.461 115.985C212.144 116.703 212.683 117.385 213.042 117.995C213.078 118.031 213.114 118.103 213.114 118.139L212.503 118.498C212.431 118.39 212.288 118.139 212.072 117.744L209.628 117.816C209.484 118.067 209.305 118.354 209.053 118.641H211.461L211.677 118.605ZM208.586 119.252L208.55 119.323C208.873 119.826 209.305 120.257 209.844 120.652C210.419 120.221 210.85 119.754 211.137 119.287H208.586V119.252Z" fill="white"/>
<path d="M222.602 115.59H218.433V116.954H221.667V120.472C221.667 120.831 221.559 121.082 221.38 121.19C221.344 121.226 221.272 121.226 221.236 121.262C220.984 121.369 220.373 121.405 219.475 121.405C219.439 121.226 219.367 120.975 219.223 120.652C219.691 120.652 220.158 120.687 220.661 120.687C220.805 120.652 220.877 120.58 220.877 120.508V117.708H218.433V122.733H217.678V117.708H215.378V121.441H214.623V116.99H217.678V115.626H213.617V114.872H217.678V113.437H218.469V114.872H222.602V115.59Z" fill="white"/>
<path d="M225.764 113.652C225.656 113.975 225.548 114.334 225.405 114.693C225.261 115.052 225.153 115.375 225.009 115.734V122.626H224.291V117.134C224.039 117.564 223.787 117.959 223.5 118.318C223.464 118.282 223.464 118.211 223.428 118.139C223.392 118.067 223.356 117.995 223.32 117.923C223.284 117.852 223.248 117.78 223.212 117.708C223.177 117.636 223.141 117.564 223.105 117.529C223.5 117.026 223.895 116.416 224.255 115.698C224.614 114.98 224.902 114.226 225.117 113.472L225.764 113.652ZM227.92 116.847C227.812 116.99 227.741 117.134 227.633 117.241C227.525 117.385 227.417 117.493 227.309 117.636H231.73V121.872C231.73 122.051 231.694 122.159 231.658 122.267C231.622 122.374 231.55 122.446 231.442 122.482C231.334 122.518 231.191 122.554 231.047 122.59C230.867 122.59 230.687 122.59 230.472 122.59C230.436 122.482 230.436 122.41 230.364 122.303C230.328 122.195 230.292 122.087 230.22 122.016C230.364 122.016 230.508 122.051 230.652 122.051C230.795 122.051 230.867 122.051 230.939 122.051C230.975 122.051 231.011 122.051 231.047 122.016C231.047 121.98 231.083 121.944 231.083 121.908V121.118H229.502V122.41H228.819V121.118H227.237V122.662H226.519V118.498C226.231 118.713 225.944 118.929 225.656 119.108C225.62 119.072 225.62 119.036 225.584 118.964C225.548 118.893 225.512 118.857 225.477 118.785C225.441 118.713 225.405 118.677 225.333 118.605C225.297 118.57 225.261 118.498 225.225 118.462C225.584 118.282 225.944 118.031 226.303 117.744C226.662 117.457 226.95 117.17 227.202 116.811H225.764V116.129H227.561V115.159H226.052V114.477H227.561V113.472H228.28V114.477H229.969V113.472H230.687V114.477H232.053V115.159H230.687V116.129H232.305V116.811H227.92V116.847ZM228.783 119.072V118.247H227.202V119.072H228.783ZM228.783 120.544V119.682H227.202V120.544H228.783ZM228.172 116.165H229.861V115.195H228.172V116.165ZM231.011 118.247H229.43V119.072H231.011V118.247ZM231.011 120.544V119.682H229.43V120.544H231.011Z" fill="white"/>
<path d="M240.211 118.139L240.714 118.462C240.211 119.467 239.456 120.293 238.414 120.975C239.492 121.441 240.714 121.764 242.152 121.944C241.972 122.123 241.828 122.339 241.684 122.626C240.139 122.41 238.809 121.98 237.659 121.369C236.545 121.944 235.18 122.339 233.598 122.626C233.491 122.375 233.311 122.159 233.167 121.944C234.677 121.728 235.934 121.405 236.941 120.939C236.078 120.364 235.395 119.682 234.892 118.857L235 118.821H234.569V118.139H240.067H240.211ZM234.066 117.026V118.426H233.383V116.38H235C234.856 115.985 234.641 115.554 234.317 115.052L234.964 114.872C235.287 115.339 235.539 115.806 235.683 116.2L235.108 116.38H239.492C239.852 115.842 240.175 115.267 240.427 114.657L241.181 114.872C240.894 115.375 240.57 115.877 240.247 116.344H241.972V118.39H241.217V116.99H234.066V117.026ZM240.858 113.437L241.361 114.047C239.492 114.442 236.905 114.693 233.634 114.836C233.634 114.657 233.562 114.442 233.455 114.19C236.473 114.083 238.845 113.831 240.57 113.508C240.678 113.472 240.786 113.472 240.858 113.437ZM239.6 118.857H235.719C236.186 119.539 236.833 120.113 237.695 120.58C238.522 120.077 239.169 119.503 239.6 118.857ZM238.162 116.129L237.48 116.308C237.408 115.842 237.228 115.339 236.977 114.836L237.659 114.693C237.911 115.195 238.091 115.662 238.162 116.129Z" fill="white"/>
<path d="M245.566 120.939H243.948V121.836H243.302V114.047H245.566V120.939ZM244.919 114.693H243.912V116.093H244.919V114.693ZM243.948 116.739V118.175H244.955V116.739H243.948ZM243.948 120.293H244.955V118.821H243.948V120.293ZM248.333 119H251.891C251.891 119 251.891 119.108 251.891 119.252C251.855 120.975 251.747 121.98 251.639 122.267C251.603 122.303 251.603 122.339 251.567 122.374C251.459 122.518 251.316 122.59 251.1 122.626C250.956 122.662 250.777 122.662 250.489 122.626C250.453 122.41 250.417 122.267 250.381 122.195C250.345 122.123 250.309 122.051 250.273 122.015C249.411 122.051 248.369 122.123 247.075 122.231L247.003 121.728L248.692 121.657V121.19H247.434V120.113C247.255 120.293 247.075 120.436 246.895 120.58C246.895 120.544 246.859 120.508 246.823 120.472C246.752 120.364 246.68 120.292 246.644 120.257C246.428 121.262 246.033 122.051 245.53 122.662C245.386 122.518 245.206 122.374 244.991 122.303C245.781 121.405 246.177 120.041 246.248 118.211C246.248 117.995 246.248 117.744 246.248 117.457V113.76H251.783V115.375H246.859V117.457C246.859 118.462 246.787 119.287 246.68 119.969C247.183 119.575 247.578 119.108 247.902 118.605H247.291V117.17H251.747V118.605H248.512C248.441 118.857 248.369 118.964 248.333 119ZM251.136 114.262H246.895V114.872H251.136V114.262ZM247.362 116.847V116.452H248.908V116.847H247.362ZM247.398 115.698H248.836V116.093H247.398V115.698ZM248.728 119.467H248.009C247.973 119.503 247.866 119.646 247.686 119.862H248.764V119.467H248.728ZM247.83 117.6V118.175H248.62V117.6H247.83ZM247.937 120.795H248.728V120.293H247.937V120.795ZM249.123 117.6V118.175H249.914V117.6H249.123ZM249.806 116.99H249.231V115.483H249.806V116.99ZM250.812 122.159H250.848C250.92 122.159 250.992 122.123 251.028 122.051C251.136 121.908 251.208 121.046 251.244 119.503C251.244 119.503 251.244 119.503 251.244 119.467H249.195V119.862H250.525V121.154H250.13C250.453 121.513 250.705 121.836 250.848 122.087L250.812 122.159ZM249.267 120.257V120.759H250.094V120.257H249.267ZM249.267 121.621L249.986 121.585C249.986 121.585 249.914 121.477 249.77 121.333L250.094 121.19H249.267V121.621ZM250.166 116.847V116.452H251.747V116.847H250.166ZM250.202 115.734H251.711V116.129H250.202V115.734ZM250.381 117.6V118.175H251.244V117.6H250.381Z" fill="white"/>
<path d="M253.831 114.083H260.587V122.59H259.797V121.908H254.55V122.59H253.795V114.083H253.831ZM259.797 114.836H254.55V116.452H259.797V114.836ZM259.797 117.17H254.55V118.821H259.797V117.17ZM254.55 121.19H259.797V119.539H254.55V121.19Z" fill="white"/>
<path d="M264.612 119.431L264.361 115.519L264.325 114.334H265.511L265.475 115.519L265.223 119.431H264.612ZM264.361 120.58H265.511V121.728H264.361V120.58Z" fill="white"/>
<path d="M170.564 0.868164H0.795288V94.8785H170.564V0.868164Z" fill="#030052"/>
<path d="M31.2703 29.6559L30.839 30.1943C30.6234 29.9431 30.2281 29.5841 29.689 29.0816V31.6302H28.9703V28.9739C28.4312 29.7995 27.8921 30.4456 27.2812 30.9122C27.1374 30.6969 26.9578 30.5174 26.7781 30.3738C27.389 29.979 27.9281 29.4046 28.4671 28.6149C28.5749 28.4354 28.6828 28.256 28.7906 28.1124H26.9937V27.4663H28.9703V26.3894H26.9578V25.8151H31.6296V26.4612H29.689V27.5381H31.5578V28.1842H29.689V28.4354C30.2281 28.8303 30.7312 29.261 31.2343 29.6918C31.2343 29.62 31.2343 29.6559 31.2703 29.6559ZM31.5218 23.5178V24.1639H27.1375V23.5178H28.9703V22.5127H29.689V23.5178H31.5218ZM28.7187 25.6356L28.1078 25.8151C28.0718 25.3843 27.9281 24.8818 27.7124 24.3793L28.2874 24.2357C28.5031 24.6664 28.6468 25.1331 28.7187 25.6356ZM30.3359 25.7792L29.7249 25.6356C29.9765 25.0613 30.1562 24.5587 30.2281 24.1998L30.9109 24.3434C30.6593 25.0254 30.4796 25.492 30.3359 25.7792ZM36.0499 25.851V26.5689H34.9359V31.6302H34.2171V26.5689H32.7078V26.8202C32.7078 28.8662 32.2765 30.4097 31.3781 31.4507C31.3062 31.5584 31.1984 31.6302 31.1265 31.7378C31.0187 31.5943 30.8749 31.4148 30.6593 31.2712C30.6234 31.2353 30.6234 31.2353 30.5875 31.2353C31.45 30.4097 31.9171 29.1534 31.989 27.5381C31.989 27.3227 32.025 27.1073 32.025 26.856V23.3024L32.564 23.4819C33.8218 23.1947 34.7562 22.9075 35.3671 22.6204L35.9781 23.1947C35.2953 23.5178 34.2171 23.8049 32.7437 24.0921V25.8869H36.0499V25.851Z" fill="white"/>
<path d="M39.4641 26.8207V25.0259H40.1828V31.6665H39.4641V29.0821H38.4578C38.4578 30.1948 38.1703 31.0563 37.5953 31.6307C37.5594 31.6665 37.5594 31.6665 37.5234 31.7024C37.3797 31.523 37.2 31.3794 36.9484 31.2717C37.4875 30.7692 37.775 30.0512 37.8109 29.0821H37.0922V28.4001H39.4281V27.4668H37.5953V25.1695H38.2781V26.8207H39.4641ZM42.9141 23.949H40.3265V24.7746H39.5719V23.949H37.2V23.267H39.5719V22.4773H40.3265V23.267H42.9141V22.4773H43.6687V23.267H46.1125V23.949H43.6687V24.7746H42.9141V23.949ZM46.1844 27.7539H43.7406V30.6256H46.0047V31.3435H40.7937V30.6256H43.0219V27.7539H40.5781V27.036H43.0219V25.0259H43.7765V27.036H46.2203V27.7539H46.1844Z" fill="white"/>
<path d="M51.5391 29.5489L51.6109 30.195C50.425 30.4822 49.0953 30.7693 47.5859 31.0924L47.4062 30.4104C48.0172 30.3027 48.9875 30.0873 50.3172 29.836L49.8141 29.6924C49.9938 29.0463 50.1375 28.4002 50.2812 27.6464L51 27.8259C50.7484 28.7592 50.5328 29.4412 50.425 29.8001L51.5391 29.5489ZM51.4672 23.0159V23.6979H47.5141V23.0159H51.4672ZM51.2156 24.6671V27.3592H47.8016V24.6671H51.2156ZM49.0594 29.5848L48.4125 29.7283C48.4125 29.1181 48.2687 28.472 48.0531 27.8618L48.6641 27.7182C48.9156 28.2925 49.0594 28.9027 49.0953 29.513C49.0594 29.5489 49.0594 29.5848 49.0594 29.5848ZM50.5328 26.749V25.3132H48.4484V26.749H50.5328ZM52.9766 29.9796L53.6234 30.3386C53.1203 30.8052 52.4734 31.2001 51.6828 31.559C51.575 31.5949 51.5031 31.6308 51.4313 31.6667C51.2875 31.4872 51.1078 31.3436 50.9281 31.1642C51.6109 30.9129 52.2219 30.5898 52.7609 30.1591C52.8328 30.1232 52.9047 30.0514 52.9766 29.9796ZM52.0422 24.5594H53.4437C53.5516 24.021 53.6234 23.6979 53.6594 23.5902H51.7187V22.9441H56.5344V23.5902H54.45C54.3422 23.9851 54.2344 24.3081 54.1625 24.5594H56.2109V29.7642H52.0062V24.5594H52.0422ZM55.5281 26.1029V25.1337H52.725V26.1029H55.5281ZM55.5281 27.6464V26.6772H52.725V27.6464H55.5281ZM55.5281 29.1899V28.1848H52.725V29.1899H55.5281ZM54.4859 30.3745L55.0609 30.0155C55.8516 30.4822 56.3906 30.9129 56.7859 31.236L56.2109 31.6308C55.7437 31.2719 55.2047 30.8411 54.4859 30.3745Z" fill="white"/>
<path d="M64.3328 24.0567H66.7047V24.7387H57.7562V24.0567H60.2359C60.0562 23.6619 59.7687 23.2311 59.3375 22.7286L60.0203 22.4773C60.4875 22.9798 60.8109 23.4465 61.0265 23.8772L60.5234 24.0567H63.5062C63.8656 23.5901 64.1531 23.0157 64.4406 22.4414L65.2312 22.6927C64.9437 23.1952 64.6203 23.6619 64.3328 24.0567ZM62.0328 25.6361V30.8051C62.0328 31.1281 61.925 31.3435 61.7453 31.4512C61.7094 31.4512 61.6734 31.4871 61.6734 31.4871C61.4578 31.5589 60.9906 31.6307 60.2719 31.6307C60.2359 31.3794 60.1281 31.164 60.0203 30.9845C60.5594 31.0204 60.9187 31.0204 61.0984 30.9845C61.2062 30.9486 61.2781 30.8768 61.2781 30.8051V29.4769H59.05V31.6307H58.3312V25.6361H62.0328ZM61.314 26.2822H59.0859V27.2514H61.314V26.2822ZM59.0859 28.8667H61.314V27.8616H59.0859V28.8667ZM63.9375 25.7438V29.8H63.2547V25.7438H63.9375ZM65.2672 30.7333V25.4566H66.0218V30.7333C66.0218 31.0922 65.95 31.3076 65.7703 31.4153C65.7344 31.4512 65.6625 31.4512 65.6265 31.4871C65.339 31.5948 64.8 31.6307 64.0453 31.6307C64.0094 31.3794 63.9015 31.1281 63.7937 30.9127C64.4406 30.9486 64.8719 30.9486 65.0875 30.9127C65.1953 30.8769 65.2672 30.8051 65.2672 30.7333Z" fill="white"/>
<path d="M74.6828 25.7438H76.8031V26.354H69.2562V27.3591C69.2562 29.2615 68.8968 30.7333 68.1781 31.7383C68.0703 31.5947 67.8906 31.4512 67.639 31.2717C67.639 31.2717 67.6031 31.2717 67.6031 31.2358C68.214 30.3384 68.5375 29.0462 68.5375 27.3232V25.7079H69.6875C69.5796 25.4925 69.4718 25.3489 69.4359 25.2771C70.2625 25.1336 71.0171 24.9541 71.7718 24.7387C71.0171 24.5233 70.4062 24.3439 69.9031 24.2362L70.3343 23.8772H68.4296V23.3029H71.9515V22.4773H72.7062V23.3029H76.3718V23.9131H74.6468L74.8265 24.0208C74.5031 24.2362 74.0359 24.4874 73.425 24.7746C73.964 24.9541 74.539 25.1695 75.15 25.4207L74.6828 25.7438ZM73.4968 29.6205V30.8409H76.6953V31.4871H69.5797V30.8409H72.7421V29.6205H70.4781V29.0462H72.7421V28.0411H70.8375C70.5859 28.4359 70.3343 28.7231 70.1187 28.9744C69.939 28.8308 69.7593 28.6872 69.5437 28.5795C70.0828 28.0411 70.514 27.395 70.8015 26.6053L71.4484 26.7489C71.3765 26.9283 71.2687 27.1796 71.1609 27.4309H72.7421V26.6412H73.4968V27.4309H76.1562V28.0411H73.4968V29.0462H75.9046V29.6205H73.4968ZM70.0109 25.7438H74.3953C73.8562 25.5284 73.2453 25.2771 72.5625 25.0259C71.7359 25.3489 70.8734 25.6002 70.0109 25.7438ZM73.8921 23.9131H70.55C71.0171 24.0208 71.7 24.2362 72.5984 24.4874C73.0656 24.3439 73.4968 24.1644 73.8921 23.9131Z" fill="white"/>
<path d="M87.0453 29.2616H83.7031C84.4937 29.9077 85.4999 30.3743 86.7578 30.6974C86.9374 30.7333 87.1171 30.8051 87.2968 30.841C87.0812 31.0563 86.9015 31.2717 86.7937 31.523C85.5718 31.164 84.4937 30.6256 83.5234 29.9077C83.3437 29.7641 83.164 29.6205 82.9843 29.441V31.6307H82.2296V29.4769C81.439 30.1948 80.3609 30.8051 79.0312 31.2717C78.8515 31.3435 78.6359 31.4153 78.4562 31.4512C78.3484 31.2358 78.1687 31.0204 77.989 30.8051C79.139 30.5538 80.1812 30.123 81.1156 29.5128C81.2593 29.4051 81.4031 29.2974 81.5468 29.2257H78.3124V28.5795H82.2656V27.8257H79.2468V27.2514H82.2656V26.5335H78.7437V25.9233H80.9359C80.864 25.6361 80.6843 25.2771 80.4328 24.9182L80.7921 24.8464H78.3484V24.2003H79.9656C79.8218 23.8413 79.5703 23.3388 79.1749 22.7645L79.8218 22.5491C80.2171 23.0875 80.5046 23.5542 80.6843 24.0208L80.1812 24.2003H81.4031V22.4414H82.0859V24.2003H83.2718V22.4414H83.9906V24.2003H85.2125L84.8531 24.0926C85.1406 23.626 85.3921 23.1234 85.6078 22.5491L86.3624 22.7645C85.9671 23.4465 85.6796 23.9131 85.464 24.2003H87.0093V24.8464H84.9968C84.8171 25.1695 84.6374 25.5284 84.3499 25.9233H86.65V26.5335H83.0203V27.2514H86.1828V27.8257H83.0203V28.5795H87.0453V29.2616ZM84.1703 24.9182H81.2234C81.475 25.2413 81.6187 25.6002 81.7265 25.9233L81.4031 25.9951H83.775L83.6671 25.9592C83.8828 25.5284 84.0624 25.1695 84.1703 24.9182Z" fill="white"/>
<path d="M91.0703 25.9591L91.5015 26.0668C91.3578 27.4309 91.0703 28.6154 90.675 29.5487C91.3578 30.1948 92.364 30.5538 93.6937 30.6614C93.9812 30.6973 94.3406 30.6973 94.7 30.6973C96.425 30.6973 97.4312 30.6973 97.7906 30.6973C97.6468 30.9127 97.539 31.164 97.4671 31.4512H94.664C93.0828 31.4512 91.8968 31.2358 91.0703 30.7691C90.7828 30.6255 90.5312 30.4461 90.3156 30.2307C89.9562 30.8768 89.525 31.3794 88.9859 31.7383C88.8422 31.5588 88.6625 31.3794 88.4828 31.2358C88.4468 31.2358 88.4468 31.1999 88.4468 31.1999C88.9859 30.805 89.4531 30.3025 89.8125 29.6564C89.4531 29.1538 89.1296 28.5077 88.8781 27.6821L89.4531 27.4668C89.6328 28.0411 89.8484 28.5436 90.1359 28.9744C90.3875 28.3282 90.6031 27.5744 90.7109 26.677H89.5609L89.3453 27.0719L88.6625 26.8924C89.1656 25.9591 89.6687 24.9541 90.1718 23.8413H88.5546V23.1593H90.5671L90.675 23.1234L91.1781 23.267C90.9625 23.7695 90.5312 24.7028 89.8843 25.995H90.9265L91.0703 25.9591ZM94.0531 25.9232V25.1694H91.2859V24.5951H94.0531V23.8772H92.0046V23.3029H94.0531V22.585H94.7718V23.3029H97V24.631H97.7546V25.2053H97V26.5694H94.7718V27.3232H97.0718V27.8975H94.7718V28.6872H97.5031V29.2974H94.7718V30.3743H94.0531V29.2974H91.4296V28.6872H94.0531V27.8975H91.8968V27.3232H94.0531V26.5335H91.9328V25.9232H94.0531ZM94.7718 23.8772V24.5951H96.2453V23.8772H94.7718ZM96.2453 25.9232V25.1694H94.7718V25.9232H96.2453Z" fill="white"/>
<path d="M102.786 24.1643V24.7746H98.9765V24.1643H102.786ZM102.462 28.1846V31.0922H100.127V31.5588H99.4796V28.1846H102.462ZM99.4796 26.1027V25.4925H102.462V26.1027H99.4796ZM99.4796 27.4308V26.8206H102.462V27.4308H99.4796ZM102.427 22.8362V23.4464H99.5156V22.8362H102.427ZM101.816 28.7948H100.127V30.4819H101.816V28.7948ZM104.295 23.4464V24.0207C104.295 25.2053 103.864 26.0668 103.002 26.6411C102.858 26.4616 102.678 26.2822 102.462 26.1386C103.217 25.636 103.576 24.9181 103.576 23.9848V22.7644H106.703V25.2053C106.703 25.3489 106.739 25.4207 106.811 25.4566C106.847 25.4566 106.883 25.4566 106.883 25.4566H107.386C107.494 25.4566 107.53 25.3848 107.566 25.2771C107.601 25.1335 107.637 24.8463 107.637 24.3797C107.781 24.4874 107.997 24.5951 108.248 24.631C108.212 25.3848 108.105 25.8155 107.889 25.995C107.781 26.0668 107.637 26.1027 107.458 26.1027H106.775C106.416 26.1027 106.164 25.995 106.092 25.8155C106.02 25.6719 105.984 25.4925 105.984 25.2053V23.4105H104.295V23.4464ZM107.206 26.7847L107.673 26.9642C107.35 28.1487 106.775 29.1538 105.984 29.9435C106.667 30.446 107.422 30.805 108.284 31.0204C108.105 31.1998 107.961 31.3793 107.817 31.6665C106.919 31.3793 106.092 30.9845 105.409 30.446C104.691 30.9845 103.864 31.4152 102.894 31.7024C102.786 31.4511 102.642 31.2357 102.498 31.0563C103.433 30.805 104.223 30.446 104.87 29.9435C104.295 29.3333 103.828 28.6154 103.469 27.7539L104.116 27.5744C104.403 28.3282 104.834 28.9743 105.409 29.5128C105.984 28.9743 106.416 28.2923 106.739 27.5385H102.93V26.8565H107.062L107.206 26.7847Z" fill="white"/>
<path d="M112.561 30.2307L114.789 29.9435L114.825 30.6255C113.855 30.7691 112.13 31.0204 109.65 31.3793L109.542 30.6255C109.973 30.5896 110.764 30.4819 111.878 30.3384V28.5795H109.937V27.8975H111.878V26.7129H112.597V27.8975H114.502V28.5795H112.597V30.2307H112.561ZM112.777 24.631L113.316 24.3079C114.106 25.2412 114.645 25.9591 114.897 26.5693L114.322 26.9283C114.214 26.7488 114.106 26.5334 113.962 26.2822C113.567 26.3181 112.094 26.3898 109.614 26.5334L109.542 25.8155L110.441 25.7796C110.728 25.1694 110.98 24.4874 111.195 23.7695H109.542V23.0875H114.681V23.7695H112.094C111.698 24.8104 111.411 25.4566 111.267 25.7437C112.561 25.7078 113.316 25.6719 113.603 25.636C113.316 25.2771 113.028 24.954 112.777 24.631ZM115.903 23.6977V29.2256H115.184V23.6977H115.903ZM117.556 22.7644H118.275V30.6614C118.275 31.0922 118.167 31.3793 117.952 31.487C117.916 31.5229 117.88 31.5229 117.844 31.5588C117.592 31.6306 117.017 31.7024 116.119 31.7024C116.083 31.4511 115.975 31.1998 115.867 30.9127C116.191 30.9127 116.658 30.9486 117.341 30.9486C117.484 30.8768 117.556 30.805 117.592 30.6973V22.7644H117.556Z" fill="white"/>
<path d="M122.228 22.5134L122.911 22.7288C122.623 23.4108 122.3 24.0928 121.905 24.7748V31.595H121.186V25.8517C120.791 26.3901 120.395 26.8209 120.072 27.1439C119.964 26.8927 119.82 26.6414 119.641 26.3901C120.503 25.5645 121.258 24.5595 121.869 23.2672C122.012 23.0519 122.12 22.7647 122.228 22.5134ZM126.684 30.4822H129.092V31.2001H122.48V30.4822H125.966C126.433 29.2618 126.828 27.7901 127.152 26.103C127.187 25.9594 127.187 25.8517 127.223 25.744L128.014 25.8876C127.583 27.6824 127.151 29.2259 126.684 30.4822ZM122.731 24.4518H125.319V22.5852H126.073V24.4518H128.805V25.1338H122.695V24.4518H122.731ZM125.067 29.872L124.348 30.0156C124.276 28.9746 124.061 27.7542 123.701 26.3183C123.666 26.1748 123.63 26.0671 123.594 25.9235L124.241 25.8158C124.636 27.1798 124.887 28.4362 125.031 29.6207C125.031 29.7284 125.031 29.8002 125.067 29.872Z" fill="white"/>
<path d="M131.931 25.7439C132.686 26.3541 133.405 27.072 134.087 27.8617C134.123 27.8976 134.159 27.9335 134.159 27.9694L133.477 28.5437C132.758 27.6823 132.003 26.9284 131.248 26.3182L131.931 25.7439Z" fill="white"/>
<path d="M145.264 26.1027H141.455C142.102 28.077 143.072 29.5128 144.437 30.4102C144.761 30.6256 145.084 30.7692 145.408 30.9127C145.192 31.1281 144.977 31.3794 144.833 31.6307C143.036 30.7692 141.67 29.118 140.808 26.6412C140.197 29.0103 138.867 30.6615 136.783 31.6307C136.639 31.3794 136.459 31.164 136.208 31.0204C138.292 30.0871 139.622 28.4718 140.125 26.1027H136.423V25.3489H140.269C140.341 24.7387 140.412 23.8054 140.412 22.5132V22.4773H141.203C141.203 23.6977 141.131 24.631 141.059 25.3489H145.228V26.1027H145.264Z" fill="white"/>
<path d="M31.9171 49.4708H36.014V50.1887H26.9578V49.4708H31.1624V48.2144H27.9999V47.5324H31.1624V46.4197H31.9171V47.5324H34.9359V48.2144H31.9171V49.4708ZM30.3718 44.4454H29.0781C28.9343 45.4864 28.4312 46.312 27.5687 46.8504C27.425 46.6709 27.2812 46.4915 27.0656 46.3479C27.7843 45.8812 28.2515 45.271 28.3953 44.4813H27.1734V43.7634H28.4312V42.3635H27.4968V41.7173H32.025V42.3635H31.0906V43.7634H32.2406V44.4095H31.0906V46.5632H30.3718V44.4454ZM29.114 43.7634H30.3359V42.3635H29.114V43.7634ZM33.5343 41.8968V45.2351H32.8515V41.8968H33.5343ZM35.4031 41.3943V45.8812C35.4031 46.2043 35.3312 46.4197 35.1515 46.5273C35.1156 46.5632 35.0796 46.5632 35.0078 46.5991C34.7562 46.6709 34.2531 46.7427 33.4984 46.7427C33.4624 46.5273 33.3906 46.312 33.2468 46.0607C33.8937 46.0966 34.289 46.0966 34.4687 46.0607C34.5765 46.0248 34.6484 45.9889 34.6484 45.8812V41.4302H35.4031V41.3943Z" fill="white"/>
<path d="M41.1891 41.3225H41.9437C42.6625 42.3994 43.5969 43.3685 44.7828 44.2659C45.3219 44.6608 45.825 44.9838 46.3281 45.2351C46.1484 45.4505 45.9687 45.6659 45.825 45.8812C44.675 45.2351 43.6328 44.4095 42.6625 43.4044C42.2312 42.9378 41.8719 42.5071 41.5844 42.0763C41.0094 43.0096 40.1469 43.907 39.0328 44.8403C38.4937 45.271 37.9547 45.63 37.4156 45.953C37.3078 45.7377 37.1281 45.5582 36.9484 45.3787C38.0984 44.7326 39.1766 43.8711 40.1109 42.7942C40.5781 42.2558 40.9375 41.7533 41.1891 41.3225ZM42.0875 47.0299V49.5067H45.8969V50.1887H37.3797V49.5067H38.6375V45.8094H39.3922V49.5067H41.2969V44.0147H42.0875V46.3479H44.9625V47.0299H42.0875Z" fill="white"/>
<path d="M56.2469 48.1068H52.9047C53.6953 48.7529 54.7015 49.2195 55.9594 49.5426C56.139 49.5785 56.3187 49.6503 56.4984 49.6862C56.2828 49.9015 56.1031 50.1169 55.9953 50.3682C54.7734 50.0092 53.6953 49.4708 52.725 48.7529C52.5453 48.6093 52.3656 48.4657 52.1859 48.2862V50.4759H51.4312V48.3221C50.6406 49.0401 49.5625 49.6503 48.2328 50.1169C48.0531 50.1887 47.8375 50.2605 47.6578 50.2964C47.55 50.081 47.3703 49.8656 47.1906 49.6503C48.3406 49.399 49.3828 48.9683 50.3172 48.358C50.4609 48.2503 50.6047 48.1427 50.7484 48.0709H47.4781V47.4248H51.4312V46.6709H48.4125V46.0966H51.4312V45.3787H47.9094V44.7685H50.1016C50.0297 44.4813 49.85 44.1224 49.5984 43.7634L49.9578 43.6916H47.514V43.0455H49.1312C48.9875 42.6865 48.7359 42.184 48.3406 41.6097L48.9875 41.3943C49.3828 41.9327 49.6703 42.3994 49.85 42.866L49.3469 43.0455H50.5687V41.2866H51.2516V43.0455H52.4375V41.2866H53.1562V43.0455H54.3781L54.0187 42.9378C54.3062 42.4712 54.5578 41.9686 54.7734 41.3943L55.5281 41.6097C55.1328 42.2917 54.8453 42.7583 54.6297 43.0455H56.175V43.6916H54.1625C53.9828 44.0147 53.8031 44.3736 53.5156 44.7685H55.8156V45.3787H52.1859V46.0966H55.3484V46.6709H52.1859V47.4248H56.2109V48.1068H56.2469ZM53.3719 43.7634H50.425C50.6766 44.0865 50.8203 44.4454 50.9281 44.7685L50.6047 44.8403H52.9766L52.8687 44.8044C53.0844 44.3736 53.2641 44.0147 53.3719 43.7634Z" fill="white"/>
<path d="M59.8046 45.953V48.4657C60.2718 49.1836 61.0984 49.5426 62.3562 49.6144C63.9015 49.6503 65.375 49.6503 66.7765 49.5426C66.8484 49.5426 66.8843 49.5426 66.9562 49.5426C66.8484 49.758 66.7406 50.0092 66.7046 50.2964C65.1593 50.3323 63.7218 50.3682 62.3921 50.3323C61.1343 50.2605 60.2 49.9015 59.625 49.2554C59.589 49.2195 59.5531 49.1836 59.5531 49.1477C59.1937 49.4708 58.7265 49.9015 58.1156 50.44L57.7203 49.6862C58.1875 49.3631 58.6547 48.9683 59.1578 48.5375V46.6709H57.8281V45.9889H59.8046V45.953ZM60.0562 44.6249L59.5531 45.1633C59.1937 44.8044 58.6906 44.4095 58.0078 44.0506C57.9359 44.0147 57.9 43.9788 57.8281 43.9788L58.3312 43.5121C59.014 43.8352 59.5531 44.1583 59.9843 44.5531C60.0203 44.5531 60.0562 44.589 60.0562 44.6249ZM60.3437 42.6506L59.8406 43.1532C59.5531 42.7942 59.05 42.3994 58.3671 42.0045C58.2953 41.9686 58.2593 41.9327 58.1875 41.8968L58.6906 41.4302C59.4093 41.8251 59.9484 42.2199 60.3078 42.5789C60.3437 42.6148 60.3437 42.6506 60.3437 42.6506ZM61.0984 49.0042V44.1942C60.9906 44.3377 60.775 44.5531 60.5234 44.7685C60.3796 44.589 60.164 44.4095 59.9484 44.23C60.739 43.5839 61.35 42.7224 61.8531 41.6456C61.925 41.5379 61.9609 41.3943 61.9968 41.2866L62.7156 41.4661C62.5359 41.9327 62.2843 42.4353 61.9968 42.9019H63.614C63.8656 42.3276 64.0812 41.7892 64.225 41.3584L65.0156 41.5379C64.8 42.0763 64.5843 42.5071 64.3687 42.9378H66.5609V43.5839H64.2968V44.589H66.2734V45.2351H64.2968V46.2402H66.2375V46.8863H64.2968V47.9273H66.7765V48.5734H61.8171V49.0401H61.0984V49.0042ZM63.5781 44.589V43.5839H61.8171V44.589H63.5781ZM63.5781 46.2402V45.2351H61.8171V46.2402H63.5781ZM63.5781 47.9273V46.8863H61.8171V47.9273H63.5781Z" fill="white"/>
<path d="M68.4656 50.0092L68.0344 49.7579C68.3219 49.3272 68.5015 48.5734 68.5375 47.5324L69.0047 47.6042C68.9687 48.7888 68.7891 49.5785 68.4656 50.0092ZM70.8734 46.2761H72.4187C72.4187 46.2761 72.4187 46.3838 72.4187 46.5632C72.3109 48.4657 72.2031 49.6144 72.0594 50.0092C72.0234 50.1169 71.9875 50.1887 71.9156 50.2246C71.7719 50.3682 71.5922 50.4759 71.3766 50.4759C71.1609 50.5118 70.8734 50.5118 70.4781 50.4759C70.4422 50.2246 70.4062 50.0451 70.2984 49.8656C70.6578 49.9015 70.9094 49.9015 71.089 49.9015C71.2328 49.9015 71.3047 49.8656 71.3766 49.7938C71.4844 49.6503 71.5562 49.2195 71.6281 48.5375L71.3047 48.6811C71.1969 48.2503 70.9812 47.8196 70.7297 47.3529L71.089 47.2094C71.3047 47.5683 71.5203 47.9632 71.6641 48.3939C71.7 47.9632 71.7359 47.4606 71.7719 46.8504H68.6094V41.7174H72.3109V42.3635H70.8734V43.2609H72.1312V43.8352H70.8734V44.7326H72.1312V45.3428H70.8734V46.2761ZM70.2266 42.3635H69.2562V43.2609H70.2266V42.3635ZM70.2266 44.7685V43.8711H69.2562V44.7685H70.2266ZM69.2562 45.3428V46.2402H70.2266V45.3428H69.2562ZM69.2562 47.6401L69.6516 47.6042C69.7594 48.2503 69.8312 48.8606 69.8312 49.4349L69.4 49.5067C69.4359 48.9682 69.4 48.358 69.2562 47.6401ZM70.8016 49.0759L70.4062 49.1477C70.3703 48.717 70.2265 48.1785 70.0109 47.5324L70.3703 47.4606C70.6219 47.9991 70.7297 48.5375 70.8016 49.0759ZM75.2578 49.4708H77.4141V50.1528H72.3469V49.4708H74.5391V46.8145H72.85V46.1325H74.5391V43.8711H72.6344V43.1532H75.4375C74.9344 42.6865 74.3234 42.2558 73.5328 41.8609C73.4969 41.825 73.4609 41.825 73.425 41.825L73.8922 41.3225C74.7547 41.7174 75.4015 42.1481 75.9047 42.6147C75.9406 42.6506 76.0125 42.6865 76.0484 42.7224L75.6531 43.1891H77.2344V43.907H75.2937V46.1684H77.0547V46.8504H75.2937V49.4708H75.2578Z" fill="white"/>
<path d="M81.1156 46.312H80.3609V45.0198H81.6906V46.0607C81.6906 46.7787 81.4031 47.2812 80.8281 47.6401C80.7203 47.7119 80.6484 47.7478 80.6484 47.7478L80.3968 47.353C80.864 47.1017 81.1156 46.7428 81.1156 46.312Z" fill="white"/>
<path d="M93.6937 46.7786H89.6328C89.5969 46.8862 89.5609 47.0298 89.4891 47.2093C89.4531 47.3529 89.4172 47.4247 89.3812 47.4965H93.1547V49.7938C93.1547 50.0809 93.0828 50.2963 92.9031 50.3681C92.8672 50.3681 92.8672 50.404 92.8312 50.404C92.6516 50.4758 92.2563 50.5117 91.6813 50.5117C91.6453 50.2963 91.5734 50.1168 91.4297 49.9015C91.8609 49.9015 92.1484 49.9015 92.2922 49.9015C92.3641 49.8656 92.4359 49.8297 92.4359 49.7579V48.1067H90.8547V50.4399H90.1719V48.1067H88.6266V50.4399H87.9437V48.1067H86.4344V50.5117H85.7156V47.4965H88.6266C88.7344 47.0657 88.8062 46.8144 88.8422 46.7786H84.9609V46.1683H93.6937V46.7786ZM85.7516 43.4403V44.8043H85.0687V42.9018H88.9141V42.3275H85.6437V41.7173H92.9391V42.3275H89.5969V42.9018H93.5141V44.8043H92.8312V43.4403H89.6328V45.8094H88.9141V43.4403H85.7516ZM86.0391 45.5581V45.0556H88.4109V45.5581H86.0391ZM88.4109 44.0146V44.5171H86.2547V44.0146H88.4109ZM90.1359 44.0146H92.3641V44.5171H90.1359V44.0146ZM90.1359 45.5581V45.0556H92.5797V45.5581H90.1359Z" fill="white"/>
<path d="M95.2031 49.5426L94.7359 48.8606C95.5265 48.4657 96.6765 47.8196 98.114 46.994L98.3656 47.676C97.1796 48.3939 96.1015 49.04 95.2031 49.5426ZM101.133 41.3584C101.995 41.7891 102.606 42.184 103.002 42.4712L102.534 42.9737H103.792V43.6916H99.7672V43.8352C100.055 44.6967 100.414 45.4505 100.845 46.1325C101.564 45.4864 102.211 44.8044 102.714 44.1224L103.361 44.589C102.714 45.3428 101.995 46.0607 101.241 46.7068C102.067 47.8555 103.002 48.6452 104.116 49.1118C103.864 49.3272 103.684 49.5426 103.577 49.758C102.067 49.0041 100.845 47.676 99.875 45.7018C99.839 45.63 99.8031 45.5582 99.8031 45.5223V49.4708C99.8031 49.9015 99.6953 50.1887 99.4796 50.3323L99.3359 50.4041C99.0843 50.5118 98.4734 50.5476 97.5031 50.5476C97.4671 50.2964 97.3593 50.0451 97.2515 49.758C98.0062 49.7938 98.5093 49.7938 98.7968 49.758C98.9765 49.7221 99.0484 49.6144 99.0484 49.5067V43.7634H95.0953V43.0455H99.0484V41.3943H99.8031V43.0455H102.57C102.103 42.6506 101.492 42.2558 100.737 41.8609L101.133 41.3584ZM95.7421 44.8762C95.6703 44.8044 95.5984 44.7685 95.5625 44.6967L96.1375 44.3018C96.8921 44.948 97.4312 45.5582 97.7187 46.0607C97.7187 46.0966 97.7546 46.0966 97.7546 46.1325L97.1437 46.5632C96.8921 46.0607 96.425 45.5223 95.7421 44.8762Z" fill="white"/>
<path d="M108.212 48.5733H106.092V49.363H105.409V42.0762H108.248V48.5733H108.212ZM107.53 42.7582H106.092V44.9478H107.53V42.7582ZM106.092 47.9272H107.53V45.6298H106.092V47.9272ZM111.627 49.363H114.178V50.0809H108.141V49.363H110.872V46.2042H108.859V45.4863H110.872V42.7223H108.608V42.0044H114.034V42.7223H111.627V45.4863H113.783V46.2042H111.627V49.363Z" fill="white"/>
<path d="M118.778 44.589H117.017C116.873 45.7376 116.55 46.6709 116.011 47.317C115.867 47.1376 115.687 46.994 115.436 46.8863C115.4 46.8863 115.4 46.8504 115.364 46.8504C115.975 46.0966 116.298 45.0197 116.298 43.6198V42.4353H120.036C119.964 42.1122 119.928 41.7174 119.892 41.3225H120.647C120.683 41.7174 120.719 42.1122 120.791 42.4353H122.408C122.048 42.0763 121.725 41.7891 121.437 41.6456L121.941 41.3225C122.408 41.6097 122.767 41.9327 123.055 42.2199L122.695 42.4712H124.241V43.1173H120.898C121.078 43.7634 121.33 44.3736 121.653 44.9479C122.156 44.4813 122.587 43.9429 122.911 43.4044L123.594 43.6198C123.198 44.3018 122.695 44.9121 122.048 45.5223C122.48 46.0607 122.947 46.3479 123.378 46.3479C123.558 46.3479 123.666 46.1684 123.737 45.7735C123.773 45.5941 123.773 45.3787 123.809 45.1274C123.989 45.271 124.169 45.3787 124.42 45.4505C124.348 46.2043 124.169 46.6709 123.917 46.8504C123.773 46.9581 123.594 46.994 123.342 46.994C122.659 46.994 122.048 46.635 121.473 45.9171C121.006 46.2761 120.503 46.5991 119.964 46.8863C119.82 46.6709 119.641 46.4915 119.461 46.3479C120.036 46.0966 120.611 45.7735 121.078 45.3787C120.683 44.7685 120.395 43.9788 120.18 43.0814H117.053V43.6198C117.053 43.7634 117.053 43.8711 117.053 43.9788H119.533C119.533 43.9788 119.533 44.0865 119.497 44.2659C119.461 45.4146 119.353 46.0966 119.173 46.2761C119.173 46.2761 119.173 46.2761 119.137 46.312C119.03 46.4556 118.85 46.5274 118.598 46.5274C118.419 46.5633 118.059 46.5274 117.556 46.5274C117.52 46.2761 117.484 46.0966 117.377 45.953C117.628 45.9889 117.952 45.9889 118.275 45.9889C118.419 45.9889 118.527 45.953 118.562 45.9171C118.67 45.7735 118.742 45.3428 118.778 44.589ZM123.306 49.6144H124.456V50.2964H115.436V49.6144H116.658V47.2094H123.27V49.6144H123.306ZM117.377 47.8196V49.6144H118.634V47.8196H117.377ZM120.575 47.8196H119.281V49.6144H120.575V47.8196ZM122.552 47.8196H121.258V49.6144H122.552V47.8196Z" fill="white"/>
<path d="M128.086 41.3584L128.769 41.5738C128.481 42.3276 128.122 43.0455 127.762 43.7275V50.4759H127.008V44.8403C126.684 45.3069 126.361 45.7018 126.002 46.0607C125.858 45.7735 125.714 45.5223 125.57 45.3069C126.397 44.4813 127.116 43.4403 127.727 42.1122C127.87 41.8609 127.978 41.6097 128.086 41.3584ZM130.206 47.9273L130.925 48.1427C130.422 49.0041 129.847 49.7221 129.128 50.3682C129.092 50.4041 129.056 50.44 129.02 50.4759C128.805 50.2605 128.625 50.1169 128.409 50.0092C129.092 49.5067 129.667 48.8606 130.098 48.1427C130.134 48.0709 130.17 47.9991 130.206 47.9273ZM133.405 46.635H134.95V47.353H128.445V46.635H129.991V44.1942H128.697V43.4762H129.991V41.4661H130.709V43.4762H132.686V41.4302H133.405V43.4762H134.842V44.1942H133.405V46.635ZM130.745 44.1942V46.635H132.722V44.1942H130.745ZM132.47 48.3221L133.045 47.9991C133.728 48.6452 134.303 49.2913 134.734 49.9374C134.77 50.0092 134.806 50.081 134.842 50.1169L134.195 50.5118C133.872 49.9374 133.369 49.2554 132.686 48.5375C132.65 48.4657 132.542 48.3939 132.47 48.3221Z" fill="white"/>
<path d="M136.639 47.0299L137.286 47.1376C137.142 48.2144 136.891 49.0759 136.567 49.6862C136.423 49.5785 136.208 49.4708 135.992 49.399C136.28 48.8606 136.495 48.0709 136.639 47.0299ZM138.436 44.7685L138.939 44.5531C139.37 45.2351 139.694 45.8812 139.838 46.4915C139.838 46.5274 139.873 46.5633 139.873 46.5992L139.298 46.8504C139.263 46.7068 139.191 46.5274 139.119 46.2761L138.328 46.312V50.4759H137.681V46.3479C136.998 46.3838 136.459 46.4197 136.1 46.4197L136.028 45.7736L136.675 45.7377C136.855 45.5223 137.07 45.1992 137.358 44.8044C137.034 44.3377 136.603 43.8711 136.064 43.3686L136.459 42.9019C136.531 42.9737 136.639 43.0455 136.747 43.1532C137.07 42.6506 137.358 42.0045 137.645 41.2866L138.292 41.5379C137.825 42.4712 137.43 43.1532 137.178 43.548C137.358 43.7275 137.538 43.9429 137.753 44.1942C138.113 43.6198 138.436 43.0455 138.759 42.3994L139.406 42.6865C138.688 43.8711 138.041 44.8762 137.394 45.6659L138.903 45.5941C138.795 45.3787 138.616 45.0915 138.436 44.7685ZM138.688 47.1376L139.227 46.9581C139.55 47.6042 139.766 48.2145 139.873 48.7888L139.298 48.9683C139.191 48.3939 139.011 47.7837 138.688 47.1376ZM141.958 41.4302H142.713C143.359 42.4353 144.078 43.2968 144.905 44.0865C145.12 44.2659 145.336 44.4454 145.552 44.589C145.336 44.8403 145.192 45.0915 145.084 45.271C144.294 44.6249 143.575 43.8352 142.856 42.9019C142.677 42.6507 142.533 42.4353 142.389 42.2199C141.886 43.1173 141.239 43.9429 140.412 44.7326C140.197 44.948 139.945 45.1633 139.73 45.3428C139.622 45.0915 139.442 44.8762 139.298 44.6967C140.089 44.0865 140.808 43.3327 141.455 42.3635C141.634 42.0404 141.814 41.7174 141.958 41.4302ZM140.341 50.5118V46.5274H144.617V50.4759H143.898V49.9374H141.023V50.5118H140.341ZM140.772 44.6249H144.114V45.3069H140.772V44.6249ZM143.934 47.1735H141.059V49.2554H143.934V47.1735Z" fill="white"/>
<path d="M29.9765 65.3008L29.5812 65.8751C29.4734 65.6238 29.2578 65.229 28.9343 64.7623V69.357H28.2874V64.87C27.8921 66.0187 27.5328 66.8443 27.1375 67.4186C27.0656 67.275 26.9578 67.0597 26.7781 66.7725C27.2453 66.1264 27.6406 65.2649 27.9999 64.1521C28.0359 64.0085 28.0718 63.865 28.1437 63.7214H26.9218V63.0394H28.2515V61.4241C27.9281 61.4959 27.5687 61.5676 27.2093 61.6394C27.1734 61.4959 27.1015 61.3164 26.9937 61.0651C28.1796 60.8497 29.0421 60.5626 29.6171 60.2754L30.0484 60.8856C29.689 61.0292 29.3296 61.1728 28.9343 61.2805V63.0394H30.0484V63.7214H28.9343V64.0085C29.2937 64.4034 29.6171 64.7982 29.9406 65.229C29.9406 65.2649 29.9406 65.3008 29.9765 65.3008ZM36.0859 64.0444H32.3124C32.0968 64.4393 31.8453 64.87 31.5937 65.229H32.8875V64.3316H33.5703V65.229H35.6187V67.7417C35.6187 68.0288 35.5468 68.2442 35.4031 68.316C35.3671 68.3519 35.3312 68.3519 35.3312 68.3519C35.1515 68.4237 34.7921 68.4596 34.2531 68.4596C34.2171 68.2801 34.1453 68.0647 34.0374 67.8135C34.4328 67.8135 34.6843 67.8135 34.7921 67.8135C34.864 67.8135 34.8999 67.7776 34.9359 67.7058V65.8392H33.6062V69.3211H32.9234V65.8392H31.6656V68.4596H30.9828V66.0187C30.7312 66.27 30.5156 66.4853 30.3359 66.593C30.1562 66.3776 29.9765 66.1982 29.8328 66.0905C30.5156 65.5879 31.0906 64.9059 31.5578 64.0444H30.3359V63.3983H31.9171C32.0968 62.9676 32.2406 62.6445 32.2765 62.465C31.5218 62.7522 31.0546 62.9317 30.839 63.0035C30.6234 62.7163 30.4796 62.5009 30.3718 62.4291C31.1265 62.2138 31.8812 61.9625 32.6359 61.6394C31.989 61.3882 31.3421 61.1728 30.7312 60.9574L31.1984 60.4549C31.989 60.7062 32.7437 60.9574 33.4265 61.2446C34.0734 60.8856 34.5765 60.5626 34.9 60.2036L35.5468 60.4908C35.1874 60.8138 34.7203 61.1728 34.1453 61.5318C34.9359 61.8907 35.5468 62.2138 35.9781 62.4291L35.5109 63.0035C35.0437 62.6804 34.3249 62.3215 33.4265 61.9266C33.2109 62.0343 32.8874 62.1779 32.4562 62.3932L33.0312 62.5368C33.0312 62.5727 32.9953 62.6086 32.9953 62.6445C32.9953 62.6804 32.9593 62.7163 32.9593 62.7881C32.9234 62.824 32.9234 62.8958 32.9234 62.8958C32.9234 62.9317 32.8875 62.9676 32.8875 63.0394C32.8515 63.1112 32.8515 63.147 32.8515 63.147C32.8515 63.147 32.8156 63.2188 32.7796 63.2906L32.7437 63.3983H36.1937V64.0444H36.0859Z" fill="white"/>
<path d="M41.0452 68.4237H40.3984V67.9211H37.9546V68.7826H37.3437V64.9418H37.9546V67.2391H38.8171V64.2598H37.0562V63.5778H38.8171V62.1061H38.1702C38.0265 62.6086 37.8468 63.0753 37.6312 63.4701C37.4874 63.3624 37.2718 63.2188 36.9843 63.1111C37.3796 62.3932 37.6671 61.4241 37.8828 60.1677L38.6015 60.3113C38.5656 60.5985 38.4937 60.9574 38.3499 61.4241H41.0812V62.1061H39.5359V63.5778H41.2249V64.2598H39.5359V67.2391H40.3984V64.9418H41.0452V68.4237ZM46.2203 65.3726H43.9921C44.4234 66.8802 45.1062 67.957 46.0406 68.6032C46.1484 68.675 46.2203 68.7108 46.2921 68.7826C46.0765 68.9621 45.8968 69.1775 45.7531 69.4288C44.6749 68.7467 43.9202 67.5981 43.4171 65.9828C43.0937 67.3827 42.3749 68.4955 41.2249 69.2852C41.1531 69.3211 41.0812 69.3929 41.0093 69.4288C40.8296 69.2134 40.6499 69.0339 40.4703 68.8903C41.6562 68.1365 42.4109 67.0955 42.6984 65.7674C42.7343 65.6597 42.7343 65.5161 42.7703 65.4085H41.2968V64.7264H42.914C42.9499 64.4034 42.9499 64.0444 42.9499 63.6496V62.5368H41.4765V61.8548H42.9499V60.2395H43.6687V61.8548H45.4656V64.7264H46.2203V65.3726ZM43.6687 62.465V63.5778C43.6687 63.9368 43.6687 64.2957 43.6328 64.6547H44.7468V62.465H43.6687Z" fill="white"/>
<path d="M49.9578 65.157H49.2031V63.8647H50.5328V64.9057C50.5328 65.6236 50.2453 66.1262 49.6703 66.4851C49.5625 66.5569 49.4906 66.5928 49.4906 66.5928L49.2391 66.198C49.7063 65.9467 49.9578 65.5877 49.9578 65.157Z" fill="white"/>
<path d="M60.3437 63.9368L60.8469 64.2598C60.3078 65.552 59.4453 66.6289 58.2234 67.4904C59.3375 68.0647 60.6312 68.4596 62.1406 68.675C61.9609 68.8544 61.8172 69.0698 61.6734 69.3929C60.0203 69.1416 58.6547 68.6391 57.5047 67.957C56.3547 68.6032 54.9531 69.0698 53.3359 69.357C53.2641 69.1416 53.1562 68.9262 52.9766 68.675C52.9766 68.6391 52.9406 68.6391 52.9406 68.6391C54.45 68.3878 55.7437 67.9929 56.8578 67.4545C55.9594 66.7366 55.2766 65.911 54.7734 64.9059L55.3844 64.6905H53.8031V63.9368H57.1812V62.4291H53.3719V61.7112H57.1094V60.1677H57.8641V61.7112H61.7094V62.4291H57.8641V63.9726H60.1641L60.3437 63.9368ZM59.7687 64.7264H55.4203C55.8875 65.6597 56.6062 66.4494 57.5047 67.0956C58.5109 66.4494 59.2656 65.6597 59.7687 64.7264Z" fill="white"/>
<path d="M66.0578 65.0854L64.9796 65.4444V68.4596C64.9796 68.8185 64.8718 69.0698 64.6562 69.1775H64.6203C64.4046 69.2852 64.0093 69.3211 63.3625 69.3211C63.3265 69.1057 63.2546 68.8903 63.1468 68.6391C63.65 68.6391 63.9734 68.6391 64.1171 68.6391C64.225 68.6032 64.2609 68.5314 64.2968 68.4596V65.6597L63.1109 66.0546L62.9312 65.3367C63.039 65.3008 63.2187 65.2649 63.4703 65.1572C63.8297 65.0495 64.1171 64.9777 64.2968 64.9059V62.8599H63.039V62.1779H64.2968V60.1677H65.0156V62.1779H66.0578V62.8599H65.0156V64.6905L66.0218 64.3675L66.0578 65.0854ZM72.0953 66.6648V67.275H70.7656V68.6032C70.7656 68.9262 70.6937 69.1057 70.514 69.2134C70.4781 69.2493 70.4421 69.2493 70.4062 69.2493C70.2265 69.3211 69.7593 69.357 69.0047 69.357C68.9687 69.1416 68.8968 68.9262 68.789 68.7109C69.364 68.7109 69.7234 68.7109 69.8671 68.7109C69.975 68.675 70.0468 68.6391 70.0468 68.5673V67.3468C69.2921 67.9929 68.3218 68.4955 67.1359 68.9262C66.8125 69.0339 66.525 69.1416 66.2375 69.2134C66.1296 68.9621 65.9859 68.7826 65.8421 68.6032C66.9562 68.3878 67.9625 68.0288 68.8968 67.4545C69.0046 67.3827 69.1125 67.3109 69.2203 67.2391H66.0218V66.6289H66.9562V65.8033H66.2734V65.229H71.8437V65.8033H70.7656V66.6289H72.0953V66.6648ZM66.8843 62.2138V63.2547H66.2375V61.6394H67.2437C67.1 61.2805 66.9203 60.9574 66.6687 60.5985L67.2437 60.3831C67.5312 60.742 67.7828 61.1369 67.9265 61.5676L67.7468 61.6394H68.7171V60.2036H69.4359V61.6394H70.4422L70.2625 61.5676C70.55 61.1369 70.7656 60.7421 70.9093 60.3472L71.6281 60.5626C71.2687 61.1369 71.0171 61.4959 70.9453 61.6035H72.0593V63.2188H71.3765V62.1779H66.8843V62.2138ZM71.2687 64.7982H67.0281V62.824H71.2687V64.7982ZM67.675 65.8392V66.6648H70.0468V65.8392H67.675ZM67.7109 63.3624V64.2598H70.5859V63.3624H67.7109Z" fill="white"/>
<path d="M81.8344 65.8033H77.45C77.4141 66.0546 77.3781 66.3417 77.3062 66.593H80.8281C80.8281 66.593 80.8281 66.7007 80.7922 66.8802C80.6844 68.0647 80.5047 68.8185 80.325 69.0698C80.2891 69.1057 80.2891 69.1057 80.2531 69.1416C80.0734 69.2852 79.8578 69.3569 79.5703 69.3928C79.3187 69.4287 78.8875 69.3928 78.3125 69.3569C78.2766 69.1057 78.2047 68.8903 78.0969 68.7108C78.4203 68.7467 78.8156 68.7467 79.2828 68.7467C79.4625 68.7467 79.5703 68.7108 79.6422 68.6749C79.8219 68.4954 79.9297 67.9929 80.0016 67.1673H77.0906C76.7672 68.0288 76.1203 68.6749 75.2219 69.0698C74.9703 69.1775 74.7187 69.2851 74.4312 69.3569C74.3234 69.1416 74.1797 68.9262 74 68.7826C75.1141 68.4955 75.8687 67.957 76.264 67.2032C76.4437 66.8443 76.5875 66.3417 76.6594 65.8033H74.5031C74.3594 67.2391 73.9281 68.4237 73.2812 69.2852C73.1734 69.1057 73.0297 68.9621 72.8141 68.8185C72.7781 68.7826 72.7422 68.7826 72.7062 68.7467C73.425 67.8493 73.7844 66.4853 73.8203 64.6905C73.8203 64.5469 73.8203 64.3675 73.8203 64.188V60.6702L74.5031 60.8497C76.9828 60.742 78.8875 60.5984 80.2531 60.3113L80.7562 60.8856C79.2469 61.1728 77.1984 61.3522 74.5391 61.4599V62.0343H81.0437V64.2598H74.5391C74.5391 64.5469 74.5391 64.87 74.5031 65.1931H77.2703V64.2957H78.025V65.1931H81.7625V65.8033H81.8344ZM80.3969 62.6445H74.6109V63.6496H80.3969V62.6445Z" fill="white"/>
<path d="M84.7093 60.2393L85.3922 60.4187C85.1406 61.1366 84.889 61.7828 84.6015 62.3571V69.3208H83.8828V63.6852C83.5593 64.2237 83.2359 64.6903 82.9125 65.0493C82.8046 64.7621 82.6609 64.5108 82.5172 64.2955C83.3078 63.3981 83.9546 62.2135 84.4578 60.7777C84.6015 60.5982 84.6734 60.4187 84.7093 60.2393ZM87.5125 67.9568L88.0515 68.3157C87.4406 68.7465 86.65 69.0696 85.6437 69.3208C85.6078 69.3208 85.5718 69.3208 85.5718 69.3567C85.4281 69.1413 85.2843 68.9619 85.1406 68.8542C85.9671 68.6747 86.6859 68.3875 87.3687 68.0286C87.4047 67.9927 87.4765 67.9568 87.5125 67.9568ZM87.4406 61.8546V61.2802H85.464V60.7059H91.8609V61.2802H89.7765V61.8546H91.5375V63.7929H85.6796V61.8546H87.4406ZM91.4656 67.885H85.9312V64.2955H91.4656V67.885ZM86.3625 62.3571V63.3263H87.4406V62.3571H86.3625ZM86.614 64.7621V65.3364H90.7468V64.7621H86.614ZM86.614 65.7672V66.3415H90.7468V65.7672H86.614ZM86.614 66.8081V67.3825H90.7468V66.8081H86.614ZM89.1656 61.8546V61.2802H88.0515V61.8546H89.1656ZM88.0515 62.3571V63.3263H89.1656V62.3571H88.0515ZM89.1656 68.3875L89.6328 67.9568C90.7109 68.3516 91.5375 68.6747 92.0406 68.926L91.3937 69.3567C90.8906 69.0695 90.1359 68.7465 89.1656 68.3875ZM90.8906 62.3571H89.7765V63.3263H90.8906V62.3571Z" fill="white"/>
<path d="M95.1312 60.2036L95.814 60.419C95.4906 61.2087 95.1671 61.8907 94.8078 62.5009V69.3211H94.089V63.5778C93.7656 64.0444 93.4062 64.4752 93.0109 64.87C92.8312 64.547 92.6875 64.2957 92.5797 64.1521C93.4422 63.3265 94.1609 62.2856 94.7718 61.0292C94.8796 60.7421 95.0234 60.4908 95.1312 60.2036ZM101.887 65.7315H99.5156C100.091 66.6289 100.773 67.3468 101.564 67.957C101.78 68.1006 101.959 68.2083 102.139 68.316C101.959 68.4596 101.78 68.675 101.6 68.9262C100.845 68.4237 100.091 67.7058 99.4078 66.7366C99.264 66.5571 99.1562 66.3776 99.0484 66.1982V69.357H98.2937V66.2341C97.6468 67.2032 96.9281 68.0288 96.0656 68.6391C95.9218 68.7467 95.7421 68.8544 95.5984 68.9262C95.3828 68.6391 95.239 68.4596 95.0953 68.316C95.9218 67.8853 96.7125 67.275 97.3953 66.4135C97.575 66.1982 97.7187 65.9828 97.8625 65.7674H95.3828V65.0854H98.2937V63.8291H96.1375V60.6344H101.312V63.8291H99.0484V65.0854H101.852V65.7315H101.887ZM96.8562 61.3164V63.147H100.594V61.3164H96.8562Z" fill="white"/>
<path d="M104.906 60.2036L105.589 60.419C105.302 61.2446 104.942 61.9984 104.583 62.7163V69.357H103.9V63.8291C103.648 64.188 103.361 64.547 103.037 64.9059C102.966 64.6906 102.822 64.4752 102.642 64.1521C103.469 63.2906 104.152 62.142 104.727 60.7779C104.762 60.5985 104.834 60.3831 104.906 60.2036ZM110.944 68.4237H111.842V69.0698H105.122V68.4237H106.092V62.7881H107.817C107.889 62.4291 107.961 62.142 107.997 61.8548H105.553V61.2087H108.105C108.177 60.7062 108.212 60.3472 108.248 60.2036L109.039 60.2395C109.039 60.3113 109.003 60.419 108.967 60.5626C108.931 60.8497 108.859 61.0651 108.859 61.2087H111.555V61.8548H108.752C108.644 62.3932 108.536 62.7163 108.536 62.7881H110.98V68.4237H110.944ZM110.261 63.3983H106.775V64.2598H110.261V63.3983ZM110.261 65.6238V64.7623H106.775V65.6238H110.261ZM106.739 66.1623V67.0238H110.225V66.1623H106.739ZM106.739 67.5981V68.4237H110.225V67.5981H106.739Z" fill="white"/>
<path d="M112.848 64.8341L112.273 64.6547C112.525 64.0444 112.705 63.1829 112.776 62.0702L113.352 62.142C113.28 63.1471 113.136 64.0085 112.884 64.7623C112.884 64.7982 112.884 64.8341 112.848 64.8341ZM113.747 69.357V60.1677H114.502V69.357H113.747ZM114.537 62.0343L115.041 61.783C115.4 62.4291 115.651 62.9676 115.795 63.4701L115.22 63.7214C115.112 63.2547 114.897 62.6804 114.537 62.0343ZM118.958 68.2801H121.473V68.998H115.328V68.2801H118.203V65.7674H116.083V65.0854H118.203V63.0035H116.73C116.514 63.6496 116.298 64.1521 116.047 64.547C115.939 64.4752 115.723 64.3675 115.364 64.2239C115.903 63.3983 116.298 62.2138 116.586 60.6344L117.305 60.742C117.197 61.2446 117.089 61.7471 116.945 62.2856H118.203V60.2036H118.958V62.2856H121.222V63.0035H118.958V65.0854H121.006V65.7674H118.958V68.2801Z" fill="white"/>
<path d="M127.044 61.1369H131.069V61.783H122.408V61.1369H126.325V60.1677H127.08V61.1369H127.044ZM130.673 65.0495V68.4955C130.673 68.8544 130.566 69.0698 130.386 69.2134C130.35 69.2493 130.314 69.2493 130.278 69.2493C130.062 69.3211 129.487 69.357 128.589 69.357C128.553 69.1057 128.445 68.8544 128.337 68.675C129.056 68.7108 129.523 68.7108 129.739 68.675C129.847 68.6391 129.919 68.5673 129.955 68.4955V65.6597H123.558V69.357H122.839V65.0495H130.673ZM124.061 62.3573H129.452V64.4034H124.061V62.3573ZM128.697 63.865V62.8958H124.78V63.865H128.697ZM128.625 68.4237H125.462V68.9262H124.78V66.3058H128.625V68.4237ZM127.978 66.8443H125.498V67.8494H127.978V66.8443Z" fill="white"/>
<path d="M133.548 64.7622C133.548 64.3315 133.728 63.9366 134.087 63.6854C134.339 63.5059 134.627 63.3982 134.914 63.3982C135.345 63.3982 135.741 63.5777 135.992 63.9366C136.172 64.1879 136.28 64.4751 136.28 64.7981C136.28 65.2289 136.1 65.6237 135.741 65.875C135.489 66.0545 135.202 66.1621 134.878 66.1621C134.447 66.1621 134.087 65.9827 133.8 65.6237C133.62 65.3724 133.548 65.0853 133.548 64.7622ZM134.016 64.7622C134.016 65.0853 134.159 65.3365 134.447 65.516C134.591 65.6237 134.77 65.6596 134.95 65.6596C135.273 65.6596 135.525 65.516 135.705 65.2289C135.812 65.0853 135.848 64.9058 135.848 64.7263C135.848 64.4033 135.705 64.152 135.417 63.9725C135.273 63.8648 135.094 63.8289 134.914 63.8289C134.591 63.8289 134.339 63.9725 134.159 64.2238C134.052 64.4392 134.016 64.5827 134.016 64.7622Z" fill="white"/>
<path d="M37.5234 0.868164H5.25154H0.795288V5.3192V37.5534H5.25154V5.3192H37.5234V0.868164Z" fill="#B18053"/>
</svg>
