<svg width="300" height="124" viewBox="0 0 300 124" fill="none" xmlns="http://www.w3.org/2000/svg">
<path d="M13.2265 31.0972L12.8179 30.6885V22.7202L13.2265 22.3115L22.666 22.475H54.4577L63.8972 22.3115L64.3058 22.7202V30.6885L63.8972 31.0972L54.4577 30.9337H22.666L13.2265 31.0972Z" fill="white"/>
<path d="M91.1123 20.391C89.8047 26.6431 88.5379 32.3231 87.1486 37.4719C88.7422 36.9407 90.3768 36.4912 92.0522 35.9191V42.0078C92.0522 42.7024 91.7661 42.9068 91.194 43.1519C85.514 45.3586 79.0167 47.4017 71.5796 49.1997L71.0075 49.0363L68.3922 42.3755L68.7191 41.8034C72.642 41.1088 76.2789 40.3324 79.834 39.4742C81.4685 32.364 82.7353 24.6408 83.5526 18.1435L84.0021 18.0209L90.9897 19.9006L91.1123 20.391ZM76.9327 0.939979L77.3413 0.531344H84.4107L84.8193 0.939979V10.0525H85.0645L92.706 9.88908L93.0329 10.1751V16.509L92.706 16.795L85.0645 16.6315H77.3413L69.4955 16.795L69.0869 16.4681V10.2568L69.4138 9.92994L76.9735 10.0934V0.939979H76.9327ZM79.0984 36.4503L72.8872 38.4935L72.356 38.1666C71.7839 31.6284 71.0075 25.8258 69.9042 21.2491L70.1902 20.7179L76.4423 18.879L76.8918 19.1242C78.036 24.4773 78.8941 30.2391 79.4662 35.9191L79.0984 36.4503ZM100.879 50.63V54.1442H92.8694L93.1555 40.6593V33.2221L92.992 26.97L93.3189 26.5614L99.9388 26.7248H101.246V0.817387L101.532 0.490479H108.97L109.297 0.817387V10.3386H114.486L121.719 10.1751L122.046 10.4612V16.9585L121.637 17.3671L114.486 17.2036H109.337V26.7657H113.097L119.594 26.6022L120.003 27.0109L119.839 33.263V40.6593L120.125 53.8582H111.748V50.6708H100.879V50.63ZM111.707 33.3856H100.879V43.6423H111.707V33.3856Z" fill="white"/>
<path d="M176.966 52.6731C176.721 53.2452 176.558 53.2452 175.945 53.2452C171.205 53.4086 166.424 53.5312 162.051 53.5312C157.025 53.5312 152.448 53.4086 148.852 53.1226C143.949 52.7956 139.29 51.6923 135.939 47.4425C133.774 49.2814 131.444 51.3246 129.115 53.4903L128.584 53.2452L124.539 46.5844L124.702 46.0532C127.481 44.2961 129.646 42.9884 132.139 41.5991V29.3809H130.995L125.928 29.5443L125.519 29.2174V22.7201L125.846 22.3932L130.954 22.5567H132.139L139.495 22.3932L139.903 22.8019L139.74 31.3423V41.7625C141.62 45.1951 145.869 46.0123 151.508 46.2575C158.578 46.5435 170.265 46.0123 180.072 45.2768L176.966 52.6731ZM135.163 14.098H134.428C132.057 11.0332 129.973 8.86743 126.418 6.17044L126.459 5.72095L131.485 1.67546L132.18 1.79805C135.204 3.84122 137.697 5.8844 140.475 8.94916L140.434 9.56211L135.163 14.098ZM159.599 8.33621C160.866 5.96612 162.092 3.22828 163.032 0.817331L163.563 0.531288L170.224 2.53359L170.51 3.10568C169.652 4.74022 168.589 6.70167 167.486 8.33621H170.673L177.743 8.17275L178.151 8.4588V14.098L177.743 14.384L170.673 14.2614H166.751V17.6122H169.08L176.19 17.4488L176.599 17.7348V23.2922L176.19 23.5783L169.08 23.4148H166.751V26.8882H169.202L176.313 26.7248L176.721 27.0517V32.5274L176.313 32.8134L169.202 32.65H166.751V36.3685H171L177.988 36.2051L178.397 36.4911V42.2937L177.988 42.7024L171 42.5389H152.489V44.909H144.521L144.807 29.5852V21.0039C144.398 21.4534 143.949 21.9029 143.54 22.3115C143.213 22.6384 142.927 22.8427 142.641 22.8427C142.355 22.8427 142.069 22.5976 141.742 22.2706L137.492 17.8983C142.886 12.8721 147.177 6.70167 149.547 0.32697L150.119 0.0817871L156.535 2.24755L156.698 2.81964C155.922 4.74022 154.982 6.57908 153.96 8.37707H159.599V8.33621ZM152.489 17.6122H159.191V14.2614H152.489V17.6122ZM152.489 26.8882H159.191V23.4148H152.489V26.8882ZM152.489 36.3277H159.191V32.6091H152.489V36.3277Z" fill="white"/>
<path d="M191.636 22.3524L183.954 22.5158L183.505 22.1072V15.4056L183.954 14.9969L191.636 15.1604H196.826V1.63459L197.235 1.22596H204.631L205.04 1.63459V34.3662L205.326 53.4903H196.581L196.744 42.6615C193.598 44.1326 190.492 45.4402 185.589 47.32L185.057 47.0748L182.401 40.128L182.646 39.5559C188.286 37.8396 192.168 36.4911 196.867 34.5297V22.3115H191.636V22.3524ZM218.606 18.3478C222.57 16.3046 226.411 13.8528 229.599 11.1149H230.211L235.319 16.3454L235.279 16.9175C229.435 20.7178 224.409 23.5783 218.606 25.8666V43.3971C218.606 44.8681 218.892 45.1542 221.385 45.1542C224.531 45.1542 225.553 45.0316 226.452 44.2552C227.433 43.4788 227.801 42.212 228.046 37.2675L234.993 40.2097C235.605 40.4958 235.605 40.6592 235.605 41.3539C235.442 46.421 234.747 48.9953 232.868 50.5073C230.579 52.4279 229.108 52.7139 220.282 52.7139C211.823 52.7139 210.107 51.2428 210.107 46.9522L210.27 34.2845V1.512L210.679 1.0625H218.116L218.565 1.59373V18.3478H218.606Z" fill="white"/>
<path d="M261.227 0.449494L261.635 0H269.604L270.013 0.408635V7.55974H283.743L292.324 7.39628L292.733 7.80492V14.3839L292.324 14.7926L283.743 14.6291H248.355L239.814 14.7926L239.406 14.3431V7.72319L239.855 7.39628L248.314 7.55974H261.227V0.449494ZM269.89 40.4548L270.176 54.471H261.063L261.349 40.4548V27.9506H253.667V48.2597H245.086L245.372 35.9598V27.7054L245.208 21.2081L245.617 20.7995L254.77 20.963H261.349V16.4271L261.758 16.0185H269.522L269.849 16.468V20.963H277.409L286.562 20.7995L286.971 21.2081L286.807 28.441V32.936L287.053 41.6399C287.053 46.8295 284.723 48.9953 275.856 48.9953C274.875 48.9953 274.671 48.8727 274.426 48.2189L271.974 41.1495C273.608 41.1904 275.325 41.1495 276.796 41.1086C277.981 41.0678 278.267 40.7 278.267 39.5558V27.9506H269.849V40.4548H269.89Z" fill="white"/>
<path d="M39.7468 112.211V100.565L40.1555 100.157H47.8787L48.2056 100.606V110.618L48.4916 123.081H39.7468V119.444H8.85407V123.081H0.313599L0.599642 110.618V100.565L1.00828 100.157H8.52716L8.85407 100.606V112.211H19.7237V96.5197H12.0414L3.50095 96.6831L3.09232 96.2745L3.25577 86.6716V76.2514L3.6644 75.8427H11.0607L11.4693 76.2514V89.4503H19.7237V70.1219L20.1324 69.6724H27.8147L28.2233 70.081V89.4911H36.6004V76.2922L37.009 75.8836H44.6505L45.0591 76.2922V86.4264L45.2226 96.3153L44.6913 96.724L36.3143 96.5605H28.1825V112.252H39.7468V112.211Z" fill="white"/>
<path d="M76.8917 89.2866C75.5841 95.5387 74.3173 101.219 72.928 106.368C74.5216 105.836 76.1562 105.387 77.8316 104.815V110.903C77.8316 111.598 77.5455 111.802 76.9734 112.048C71.2934 114.254 64.7961 116.297 57.359 118.095L56.7869 117.932L54.1716 111.271L54.4985 110.699C58.4214 110.004 62.0583 109.228 65.6134 108.37C67.2479 101.26 68.5147 93.5364 69.332 87.0391L69.7815 86.9165L76.7691 88.7962L76.8917 89.2866ZM62.7121 69.8356L63.1207 69.4269H70.1901L70.5987 69.8356V78.9481H70.8439L78.4854 78.7847L78.8123 79.0707V85.4046L78.4854 85.6906L70.8439 85.5271H63.1207L55.2749 85.6906L54.8663 85.3637V79.1524L55.1932 78.8255L62.753 78.989V69.8356H62.7121ZM64.8779 105.305L58.6666 107.348L58.1354 107.021C57.5633 100.483 56.7869 94.6806 55.6836 90.1039L55.9696 89.5726L62.2217 87.7338L62.6712 87.979C63.8154 93.3321 64.6735 99.0938 65.2456 104.774L64.8779 105.305ZM86.6581 119.485V122.999H78.6488L78.9349 109.514V102.077L78.7714 95.8247L79.0983 95.4161L85.7182 95.5796H87.0259V69.6721L87.3119 69.3452H94.749L95.076 69.6721V79.1933H100.266L107.498 79.0299L107.825 79.3159V85.8132L107.417 86.2218L100.266 86.0584H95.076V95.6204H98.8354L105.333 95.457L105.741 95.8656L105.578 102.118V109.514L105.864 122.713H97.4869V119.526H86.6581V119.485ZM97.4869 102.24H86.6581V112.497H97.4869V102.24Z" fill="white"/>
<path d="M129.687 108.166L129.974 116.093C129.974 121.61 127.767 123.081 121.392 123.081C120.493 123.081 120.207 122.958 119.962 122.386L117.837 117.033C117.551 117.728 117.224 118.382 116.856 119.076C116.734 119.321 116.529 119.403 116.284 119.403C115.998 119.403 115.753 119.281 115.549 119.158L110.441 115.971C112.647 112.089 113.792 108.533 114.936 103.63L115.467 103.385L121.229 105.387L121.515 105.918C120.616 109.841 119.758 112.579 118.491 115.644C119.512 115.603 120.248 115.521 120.861 115.48C122.005 115.358 122.291 115.031 122.291 113.641V101.055H120.82L114.282 101.219L113.873 100.81L114.037 94.3947V90.6352L113.873 84.7918L114.282 84.3831L121.229 84.5466H130.341L137.329 84.3831L137.656 84.7918L137.492 90.6352V94.3947L137.656 100.81L137.329 101.219L130.341 101.055H129.728V108.166H129.687ZM144.031 81.5227C144.071 78.0493 144.031 74.1264 143.99 69.5906L144.398 69.1411H151.386L151.835 69.5497C151.835 74.0447 151.795 78.0084 151.672 81.6044H157.066C155.718 79.1117 154.042 76.946 152.162 74.9845V74.4533L156.78 71.2251L157.311 71.1842C159.232 72.9414 161.398 75.3523 162.828 77.4363V78.0084L157.802 81.5227L163.645 81.4001L163.972 81.8087V88.02L163.645 88.4286L156.535 88.2652H151.304C151.182 89.6954 151.018 91.1665 150.855 92.5967H154.9L155.309 93.0462V113.682C155.309 114.99 155.309 114.99 156.453 114.99C157.761 114.99 158.006 114.213 158.333 107.553L164.544 110.045C165.116 110.291 165.157 110.454 165.116 111.026C164.871 115.399 164.34 118.708 163.073 119.975C161.438 121.61 159.109 122.182 155.391 122.182C149.465 122.182 148.24 121.569 148.24 116.543L148.28 105.51C146.36 113.028 143.622 118.382 138.718 123.203C138.473 123.449 138.31 123.53 138.146 123.53C137.901 123.53 137.697 123.367 137.411 123.122L131.812 118.79C134.264 116.665 136.266 114.254 137.86 111.435L133.978 113.805L133.529 113.56C132.548 111.067 131.526 108.779 129.892 106L130.137 105.469L134.795 102.894L135.368 103.017C136.839 105.06 137.983 106.981 139.004 109.228C140.598 105.796 141.783 101.954 142.723 97.582C143.336 94.6399 143.704 91.616 143.908 88.2652L138.718 88.3878L138.31 87.9791V82.0539L132.752 81.9313H118.491L111.422 82.0948L111.013 81.6861V75.6792L111.422 75.2706L118.491 75.434H121.719V69.468L122.046 69.0593H129.115L129.524 69.468V75.434H132.752L139.862 75.2706L140.189 75.6792V81.4818L144.031 81.5227ZM130.382 95.2119V90.5535H120.861V95.2119H130.382Z" fill="white"/>
<path d="M190.411 100.156L197.848 99.9929L198.256 100.402V106.735L197.848 107.144L190.411 106.981H188.367V111.802C192.29 111.23 196.213 110.658 200.259 109.964V115.521C200.259 116.216 199.932 116.502 199.278 116.583C190.615 118.422 180.767 120.016 170.469 121.324L169.938 121.16L167.486 114.499L167.895 113.968C172.226 113.56 176.313 113.192 180.317 112.701V106.899H177.375L169.938 107.062L169.529 106.654V100.279L169.938 99.8703L177.375 100.034H180.317V94.8033L180.726 94.3946H187.959L188.367 94.8033V100.034H190.411V100.156ZM194.456 95.5797C193.884 94.3129 193.312 93.1279 192.699 91.9837C185.629 93.0053 178.601 93.8225 170.919 94.3538L170.387 94.0677L168.549 87.8156L168.875 87.2844C170.796 87.2435 172.635 87.1618 174.392 87.0392C175.128 84.3014 175.863 81.5635 176.517 78.8665H176.353L169.202 79.03L168.794 78.6213V72.4101L169.202 72.0015L176.353 72.1649H191.391L198.828 72.0015L199.237 72.4101V78.6213L198.828 79.03L191.391 78.8665H184.853C184.444 80.2967 183.995 81.727 183.505 83.0755C183.096 84.2605 182.646 85.4455 182.197 86.5897C184.526 86.4671 186.937 86.2628 189.266 86.0176C188.49 84.7509 187.632 83.6475 186.814 82.5851L186.937 82.013L192.004 79.5612L192.576 79.5203C195.355 82.3808 198.134 86.3854 200.545 90.5535V76.0878L200.953 75.6792H207.737L208.145 76.0878V92.3515L208.431 108.288H200.299L200.585 92.4332L195.11 95.6205L194.456 95.5797ZM219.178 113.805C219.178 120.506 217.585 122.386 208.309 122.386C207.165 122.386 207.124 122.264 206.838 121.691L203.201 114.336C205.857 114.336 208.595 114.213 209.575 114.091C210.76 113.968 211.128 113.641 211.128 112.252V70.5712L211.537 70.1626H218.606L219.015 70.5712V101.423L219.178 113.805Z" fill="white"/>
<path d="M261.921 89.0006C262.453 91.575 263.107 94.1085 263.965 96.5604C266.416 94.6398 268.868 92.3923 270.748 90.1856H271.361L276.632 95.1301V95.7022C273.445 98.3583 269.767 100.974 266.743 102.772C269.318 107.226 272.955 110.863 279.248 114.949L273.608 120.425C273.282 120.752 273.036 120.874 272.75 120.874C272.505 120.874 272.219 120.752 271.892 120.465C265.763 115.807 262.207 110.944 259.551 105.223C259.102 104.243 258.816 103.63 258.571 103.099C259.02 105.019 259.47 107.267 259.47 110.25C259.47 120.711 256.732 123.203 247.864 123.203C246.72 123.203 246.557 123.04 246.23 122.223L243.574 116.42C239.528 118.586 235.115 120.343 230.375 121.651C230.089 121.691 229.844 121.773 229.639 121.773C229.312 121.773 229.026 121.61 228.863 121.324L225.063 115.644C235.401 113.192 245.045 108.533 251.011 103.303C250.847 102.731 250.602 102.24 250.398 101.709C244.554 105.877 238.384 109.105 231.151 111.394C230.865 111.516 230.62 111.516 230.416 111.516C230.089 111.516 229.803 111.353 229.639 111.067L225.716 105.428C234.012 103.589 241.408 100.238 247.047 96.4378C246.72 95.9883 246.352 95.5796 245.985 95.2527C241.367 97.7454 236.259 99.8703 230.906 101.464C230.62 101.587 230.334 101.587 230.171 101.587C229.844 101.587 229.558 101.464 229.312 101.055L225.553 95.6613C232.622 94.1903 239.447 91.6976 244.677 88.9597H243.655L236.218 89.1232L235.81 88.7963V82.9528L236.137 82.6259L243.655 82.7894H260.328L267.479 82.6259L267.806 82.912V88.878L267.479 89.1641L261.921 89.0006ZM247.292 69.1818L247.701 68.7732H255.342L255.751 69.1818V73.5542H267.315L276.714 73.3908L277.164 73.7994L277 78.1309V79.6837L277.286 86.9574H269.113V79.9698H234.584V86.9574H226.615L226.901 79.6837V78.6621L226.738 73.8403L227.147 73.4316L236.586 73.5951H247.415V69.1818H247.292ZM249.172 116.134C250.766 115.97 251.828 115.398 252.033 110.944C249.54 112.947 246.843 114.704 244.023 116.216C245.74 116.297 248.191 116.257 249.172 116.134ZM251.379 91.8202C253.994 94.3129 256.037 97.0916 257.222 99.5025C256.364 96.7647 255.383 93.087 254.77 89.2458C253.708 90.1857 252.605 91.0438 251.379 91.8202Z" fill="white"/>
<path d="M299.965 113.928C299.965 116.951 297.473 119.403 294.49 119.403C291.466 119.403 288.973 116.951 288.973 113.928C288.973 110.904 291.466 108.411 294.49 108.411C297.473 108.411 299.965 110.904 299.965 113.928ZM298.944 103.793H289.995V73.3501H298.944V103.793Z" fill="white"/>
</svg>
