<svg width="296" height="85" viewBox="0 0 296 85" fill="none" xmlns="http://www.w3.org/2000/svg">
<path d="M7.07759 26.9124C6.09686 29.732 4.50319 32.9193 3.11383 34.9216C2.41915 34.3496 0.907205 33.328 0.0490723 32.7967C1.39757 30.9579 2.66433 28.3018 3.4816 25.8499L7.07759 26.9124ZM12.5533 24.6649V37.6595H8.05831V24.6649H0.784616V20.742H8.05831V17.7181H0.539433V13.877H4.33974C4.13542 12.6919 3.68592 11.0165 3.19556 9.79061L6.42378 9.01422H1.15238V5.2139H7.81313C7.44536 4.15145 7.03673 3.04814 6.62809 2.10828L11.2865 0.964111C11.8586 2.27174 12.5942 3.86541 13.0437 5.17304H18.6419V8.97334H13.7383L16.9257 9.58629C16.3536 11.0574 15.7406 12.6102 15.1686 13.7952H19.2549V17.6364H12.5533V20.6603H18.6011V24.5832H12.5533V24.6649ZM6.91414 9.05507C7.48622 10.3627 8.01745 12.0381 8.22177 13.1414L5.40219 13.9178H11.0413C11.6134 12.5285 12.349 10.5262 12.7167 9.05507H6.91414ZM36.7036 18.5354H33.0667V37.7412H28.5309V18.5354H24.8941V18.9849C24.8941 24.7466 24.4037 32.7968 21.0529 37.823C20.2765 37.0057 18.4376 35.4937 17.4569 35.0442C18.1925 33.9 18.8054 32.6333 19.214 31.2439L16.4353 32.9602C15.8224 31.4074 14.4739 28.8738 13.3706 27.0758L16.4353 25.4413C17.4978 26.9941 18.7237 29.0782 19.3775 30.5492C20.4808 26.7898 20.6034 22.5809 20.6034 18.9849V5.05046C24.8532 4.27405 29.5934 3.04813 32.4538 1.7405L36.0089 5.13219C32.7807 6.43982 28.7352 7.37966 24.8941 8.07434V14.2039H36.7036V18.5354Z" fill="#E2C18F"/>
<path d="M47.6959 11.7113H52.15V37.9865H47.6959V28.261H45.2032C45.1215 31.3666 44.5903 35.2078 41.5664 38.1499C40.8308 37.2509 39.278 36.025 38.1747 35.4529C40.5856 33.2463 41.1986 30.4676 41.2803 28.261H38.992V24.1746H47.7776V21.7228H40.4222V12.692H44.5085V17.7999H47.7776V11.7113H47.6959ZM46.1839 8.11527H39.2371V3.98805H46.1839V1.3728H50.7606V3.98805H56.032V8.11527H50.7606V10.8123H46.1839V8.11527ZM66.0436 23.153V32.3882H73.8894V36.638H54.1114V32.3882H61.3851V23.153H53.4576V18.9032H61.3851V11.7521H66.0027V18.9032H74.4614V23.153H66.0436ZM62.8971 8.11527H57.4214V3.98805H62.8971V1.3728H67.5147V3.98805H74.1345V8.11527H67.5147V10.9757H62.8971V8.11527Z" fill="#E2C18F"/>
<path d="M94.0351 32.429C88.5594 33.7775 82.5525 35.1668 78.0983 36.1884L77.0359 31.8569C79.692 31.4074 83.2471 30.6718 87.0066 29.8954L86.0667 29.6503C86.5979 27.4436 87.2518 24.1337 87.4561 21.6819L91.9919 22.6626C91.3381 24.9509 90.6434 27.3619 90.0305 29.2825L93.6265 28.5469L94.0351 32.429ZM93.463 7.42052H77.7306V3.17071H93.463V7.42052ZM92.6049 21.1506H78.793V10.1992H92.6049V21.1506ZM80.5501 29.9363C80.5093 28.0974 80.0189 25.1553 79.2425 22.9895L82.9611 22.0496C83.7784 24.2563 84.3505 27.0758 84.473 28.9147L80.5501 29.9363ZM88.4368 13.8361H82.6751V17.5138H88.4368V13.8361ZM102.821 32.7559C100.696 34.7582 97.1407 36.8422 94.1168 37.9455C93.463 37.1283 92.0737 35.7798 91.0521 34.9625C93.9942 33.9409 97.345 31.9386 98.9796 30.3041L102.821 32.7559ZM100.451 9.46369C100.614 8.60556 100.737 7.70655 100.859 6.84842H94.4029V2.92554H113.241V6.84842H105.926C105.64 7.74742 105.395 8.64642 105.109 9.46369H112.383V30.1406H95.3019V9.46369H100.451ZM107.929 12.9371H99.5517V15.3889H107.929V12.9371ZM107.929 18.5354H99.5517V20.9872H107.929V18.5354ZM107.929 24.2563H99.5517V26.7489H107.929V24.2563ZM107.929 30.631C110.013 32.0203 112.955 34.0635 114.467 35.4937L110.748 37.9455C109.4 36.5562 106.58 34.3087 104.414 32.8376L107.929 30.631Z" fill="#E2C18F"/>
<path d="M134.776 33.2872C134.776 35.2895 134.367 36.3928 133.06 37.0466C131.793 37.7004 129.995 37.7822 127.625 37.7822C127.38 36.5971 126.726 34.8809 126.154 33.8184C127.584 33.9001 129.178 33.9001 129.668 33.8593C130.118 33.8593 130.281 33.6958 130.281 33.2463V29.7729H123.375C122.926 32.756 122.027 35.6981 120.474 37.9048C119.779 37.1692 117.94 35.739 117 35.2895C119.411 31.7752 119.656 26.8308 119.656 22.9896V14.0405H134.776V33.2872ZM152.552 7.17545V11.3435H117.123V7.17545H125.5C124.805 5.82695 123.661 4.15155 122.558 2.88478L126.971 1.37283C128.36 2.84391 129.954 4.9688 130.608 6.43988L128.442 7.17545H139.312C140.497 5.37745 141.723 3.04824 142.54 1.25024L147.607 2.72132C146.667 4.23327 145.605 5.78607 144.624 7.13457H152.552V7.17545ZM130.281 26.3813V23.8477H123.865C123.865 24.665 123.825 25.4823 123.743 26.3813H130.281ZM123.825 17.6773V20.3743H130.24V17.6773H123.825ZM142.377 30.4267H138.127V14.4491H142.377V30.4267ZM145.932 13.3458H150.508V32.7968C150.508 35.0852 150.059 36.2294 148.506 36.9649C147.035 37.6596 144.91 37.7822 142.091 37.7413C141.845 36.4745 141.11 34.554 140.415 33.3689C142.417 33.4506 144.461 33.4506 145.114 33.4098C145.727 33.4098 145.932 33.2463 145.932 32.7151V13.3458Z" fill="#E2C18F"/>
<path d="M166.322 22.0087C166.322 23.9292 164.729 25.5229 162.808 25.5229C160.888 25.5229 159.294 23.9292 159.294 22.0087C159.294 20.0881 160.888 18.4944 162.808 18.4944C164.729 18.4944 166.322 20.0881 166.322 22.0087Z" fill="#E2C18F"/>
<path d="M179.971 5.54077H186.795L196.112 34.5538H190.064L188.021 27.1167H178.622L176.579 34.5538H170.695L179.971 5.54077ZM179.889 22.5808H186.795L185.937 19.3935C185.038 16.3696 184.261 13.0596 183.444 9.91314H183.24C182.504 13.1005 181.646 16.3696 180.788 19.3935L179.889 22.5808Z" fill="#E2C18F"/>
<path d="M197.542 31.0397L200.239 27.4029C201.956 29.0783 204.08 30.3859 206.696 30.3859C209.638 30.3859 211.64 28.9966 211.64 26.5448C211.64 23.8069 209.965 22.1315 203.672 22.1315V17.9634C208.984 17.9634 210.7 16.2063 210.7 13.7954C210.7 11.5887 209.311 10.322 206.818 10.322C204.734 10.322 203.059 11.3027 201.343 12.8964L198.4 9.38211C200.893 7.17549 203.672 5.78613 207.104 5.78613C212.703 5.78613 216.503 8.52398 216.503 13.3867C216.503 16.4515 214.705 18.5355 211.681 19.7614V19.9658C214.909 20.8239 217.443 23.194 217.443 26.9125C217.443 32.0613 212.784 35.0852 207.268 35.0852C202.65 35.0852 199.545 33.3281 197.542 31.0397Z" fill="#E2C18F"/>
<path d="M223.327 12.3651C222.878 12.8555 222.387 13.3867 221.938 13.7953C221.529 13.0189 220.426 11.2618 219.69 10.4854C222.019 8.31964 224.144 4.92798 225.288 1.45459L228.844 2.4353C228.517 3.45688 228.108 4.43762 227.618 5.4592H230.601C230.274 4.51934 229.865 3.49776 229.416 2.59876L233.257 1.5363C233.829 2.7622 234.605 4.27416 234.973 5.4592H237.834V8.40138H233.747V9.87245H237.016V9.95419C239.1 7.66583 240.857 4.60108 241.92 1.45459L245.557 2.47618C245.189 3.49776 244.78 4.47847 244.331 5.50006H247.314C246.987 4.5602 246.578 3.53862 246.17 2.72135L250.011 1.65891C250.583 2.84395 251.319 4.31502 251.727 5.50006H255.241V8.40138H250.379V9.87245H254.22V12.5694H250.379V14.0405H254.22V16.7784H250.379V18.2495H255.691V21.1508H239.999V12.3651C239.55 12.9372 239.019 13.5093 238.569 13.9997C238.242 13.5093 237.629 12.6103 237.016 11.793V12.4877H233.747V13.9588H237.016V16.6967H233.747V18.1677H238.16V21.0691H223.286V12.3651H223.327ZM252.054 24.5424C250.215 27.5255 247.6 29.8547 244.535 31.7344C247.968 32.47 251.809 33.0012 255.854 33.2464C254.874 34.3497 253.607 36.3928 252.994 37.6596C247.559 37.1692 242.655 36.1885 238.324 34.554C233.42 36.2703 227.904 37.3327 222.183 37.9048C221.815 36.638 221.039 34.7992 220.303 33.7367C224.553 33.4098 228.721 32.8377 232.562 31.9387C230.356 30.6311 228.394 29.0783 226.678 27.362L228.476 26.5447H222.469V22.7853H248.009L248.867 22.581L252.054 24.5424ZM230.07 8.3605H227.25V9.8316H230.07V8.3605ZM230.07 12.5694H227.25V14.0405H230.07V12.5694ZM230.07 16.7784H227.25V18.2495H230.07V16.7784ZM232.154 26.5856C233.87 27.975 236.036 29.0374 238.569 29.9773C240.817 29.0374 242.737 27.9341 244.331 26.5856H232.154ZM246.742 8.3605H244.004V9.8316H246.742V8.3605ZM246.742 12.5694H244.004V14.0405H246.742V12.5694ZM246.742 16.7784H244.004V18.2495H246.742V16.7784Z" fill="#E2C18F"/>
<path d="M271.342 21.968C270.075 22.3766 268.849 22.7444 267.582 23.1122V33.0011C267.582 35.1669 267.214 36.311 266.07 37.0875C264.844 37.823 263.21 37.9865 260.635 37.9456C260.513 36.8014 260.022 34.8808 259.45 33.6549C260.84 33.7367 262.229 33.7367 262.679 33.6958C263.128 33.6958 263.332 33.5323 263.332 33.042V24.3789C262.025 24.7876 260.758 25.1145 259.614 25.4414L258.592 20.9873C259.941 20.7012 261.575 20.2926 263.332 19.8431V13.0597H259.205V8.80996H263.332V1.45453H267.541V8.80996H271.096V13.0597H267.541V18.658L270.729 17.759L271.342 21.968ZM284.99 33.4097C286.053 33.5323 287.156 33.5732 288.259 33.5732C289.485 33.5732 294.143 33.5732 295.737 33.4915C295.165 34.4722 294.593 36.3519 294.43 37.4961H287.932C282.538 37.4961 278.288 36.5562 275.346 32.8785C274.447 34.9626 273.303 36.7197 271.914 38.0682C271.219 37.3735 269.38 36.1067 268.4 35.5346C271.219 33.0828 272.608 29.0374 273.221 24.4607L277.43 24.9919C277.226 26.2586 277.022 27.4437 276.736 28.6287C277.757 30.3859 279.065 31.53 280.699 32.2656V23.8886H273.385V20.456H280.699V18.4537H271.096V14.8577H280.699V13.0597H273.385V9.58635H280.699V7.95181H271.75V4.31498H280.699V1.3728H284.99V4.31498H294.797V7.95181H284.99V9.58635H293.285V14.8577H295.696V18.4537H293.285V23.8886H284.99V26.1769H293.571V29.8138H284.99V33.4097ZM284.99 14.8577H288.995V13.0597H284.99V14.8577ZM284.99 20.456H288.995V18.4537H284.99V20.456Z" fill="#E2C18F"/>
<path d="M53.5805 61.1561V82.5686H49.3715V64.18L43.9775 66.264L43.3237 64.5886L52.1502 61.1152H53.5805V61.1561Z" fill="#E2C18F"/>
<path d="M77.6081 76.5206C77.6081 80.7296 73.1132 82.9362 67.8009 82.9362C62.4887 82.9362 58.0345 80.7296 58.0345 76.5206C58.0345 73.3741 60.0369 71.617 63.5102 70.7997C60.4864 69.9825 59.383 68.2662 59.383 66.2231C59.383 63.1583 62.4887 60.9517 67.8009 60.9517C73.0723 60.9517 76.2597 63.1583 76.2597 66.2231C76.2597 68.2662 75.1155 69.9825 72.0916 70.8406C75.565 71.6579 77.6081 73.415 77.6081 76.5206ZM72.8271 75.5808C72.8271 73.0472 70.9474 71.7396 67.8009 71.7396C64.6544 71.7396 62.8156 73.0472 62.8156 75.5808V77.2562C62.8156 79.7897 64.6544 81.0973 67.8009 81.0973C70.9474 81.0973 72.8271 79.7489 72.8271 77.2562V75.5808ZM63.878 66.9586C63.878 68.7975 65.3082 69.9008 67.8009 69.9008C70.2936 69.9008 71.7647 68.7975 71.7647 66.9586V65.7327C71.7647 63.853 70.2936 62.7497 67.8009 62.7497C65.3082 62.7497 63.878 63.853 63.878 65.7327V66.9586Z" fill="#E2C18F"/>
<path d="M80.387 73.6602H89.7038V76.2754H80.387V73.6602Z" fill="#E2C18F"/>
<path d="M109.441 77.9919H106.54V82.5686H102.29V77.9919H91.8287V76.6434L104.782 61.197H106.54V76.1531H109.441V77.9919ZM102.29 76.1531V66.9996L94.6892 76.1531H102.29Z" fill="#E2C18F"/>
<path d="M128.32 75.867C128.32 80.3211 124.724 82.9363 119.044 82.9363C115.448 82.9363 112.751 81.7513 110.994 79.749L112.015 78.5231H112.424C113.936 80.2394 115.856 81.1384 118.676 81.1384C121.904 81.1384 123.58 79.5447 123.58 76.9703V75.254C123.58 72.557 122.231 71.1677 120.065 71.1677C118.839 71.1677 117.736 71.5354 116.755 72.1484L115.734 71.0451L122.231 63.1584H111.77L112.465 61.3196H127.462V62.5455L121.7 69.574C126.236 69.86 128.32 72.557 128.32 75.867Z" fill="#E2C18F"/>
<path d="M134.408 79.0952V68.1846H130.894V66.6726H134.408V60.2571H135.92V66.6726H139.067V68.1846H135.92V78.7682C137.146 78.4822 138.372 78.1553 139.557 77.8692L139.68 79.2995C136.983 80.1167 134 80.8523 130.772 81.4244L130.445 79.8715L134.408 79.0952ZM139.271 74.1915H146.831V63.4444H140.211V61.9734H154.799V63.4444H148.343V74.1915H155.331V75.6626H148.343V84.4074H146.872V75.6626H139.312V74.1915H139.271ZM142.663 71.8623C142.254 70.1869 141.641 68.2663 140.865 66.1823L142.213 65.8145C143.194 68.5524 143.807 70.473 144.052 71.5354L142.663 71.8623ZM154.636 66.1823C153.941 68.1029 153.083 70.0643 151.98 72.0666L150.754 71.658C151.653 69.9417 152.511 67.9803 153.287 65.7328L154.636 66.1823Z" fill="#E2C18F"/>
<path d="M165.832 61.9734H166.731V81.6696H165.832V61.9734Z" fill="white"/>
<path d="M186.509 58.6224V82.5684H181.769V62.0141L175.721 64.3433L174.986 62.4636L184.834 58.5815H186.509V58.6224Z" fill="#E2C18F"/>
<path d="M191.331 72.6387H201.751V75.5808H191.331V72.6387Z" fill="#E2C18F"/>
<path d="M221.529 75.0496C221.529 79.9941 217.525 82.9771 211.15 82.9771C207.105 82.9771 204.121 81.6695 202.16 79.422L203.263 78.0326H203.754C205.47 79.9532 207.595 80.9748 210.741 80.9748C214.337 80.9748 216.217 79.2177 216.217 76.3164V74.3958C216.217 71.3719 214.705 69.8599 212.294 69.8599C210.946 69.8599 209.679 70.2686 208.576 70.9633L207.472 69.7373L214.746 60.9108H203.059L203.835 58.8677H220.63V60.2162L214.174 68.1028C219.159 68.3889 221.529 71.3719 221.529 75.0496Z" fill="#E2C18F"/>
<path d="M227.332 59.1538C235.791 59.2355 243.105 58.7452 249.357 57.6418L250.256 59.2764C244.045 60.298 236.935 60.7883 229.007 60.7883V62.9541H249.725V69.4105H240.776C240.939 70.3504 241.103 71.2494 241.266 72.1484H251.196V73.742H237.752V74.4367C237.752 75.2131 237.711 75.9895 237.589 76.7251H248.785V81.1792C248.785 83.4675 247.6 84.6526 245.271 84.6526H240.98L240.49 82.9772H245.23C246.456 82.9772 247.069 82.3642 247.069 81.1383V78.2779H237.221C236.322 81.1383 234.32 83.3041 231.173 84.8978L229.988 83.5901C234.074 81.5878 236.118 78.5231 236.118 74.4367V73.742H230.478V72.1892H239.632C239.509 71.2902 239.346 70.3504 239.101 69.4514H229.048V72.0258C229.048 77.1337 227.904 81.4244 225.616 84.8569L224.226 83.8353C226.31 80.6888 227.373 76.7659 227.414 72.0258V59.1538H227.332ZM248.009 64.5069H228.966V67.8577H248.009V64.5069Z" fill="#E2C18F"/>
</svg>
