<?xml version="1.0" encoding="utf-8"?>
<!-- Generator: Adobe Illustrator 25.2.3, SVG Export Plug-In . SVG Version: 6.00 Build 0)  -->
<svg version="1.1" id="圖層_1" xmlns="http://www.w3.org/2000/svg" xmlns:xlink="http://www.w3.org/1999/xlink" x="0px" y="0px"
	 viewBox="0 0 160 126.5" style="enable-background:new 0 0 160 126.5;" xml:space="preserve">
<g>
	<path d="M5.7,21v1.1h3.8V28c0,0.5-0.1,0.7-0.4,0.9C8.7,29,8.1,29,7.4,29c-0.1-0.3-0.2-0.6-0.3-0.9c0.5,0,1.1,0,1.2,0
		c0.2,0,0.2-0.1,0.2-0.2v-5H5.7v6H4.7v-1.8c-0.1,0.1-0.3,0.2-0.4,0.4c-0.4-0.5-0.6-1-0.8-1.6c-0.2,0.7-0.5,1.2-0.9,1.6
		c-0.1-0.1-0.4-0.3-0.5-0.4c0.7-0.7,1-1.6,1.1-2.8H2.6v-0.7h1.3C3.9,24.8,4,26,4.7,27v-4H2v6H1.1v-6.9h3.6V21h-4v-1h9v1H5.7z
		 M7.5,23.7c0,1.1,0.1,2.4,0.9,3.4c-0.2,0.1-0.4,0.3-0.6,0.4c-0.4-0.5-0.6-1-0.8-1.6c-0.2,0.6-0.5,1.2-0.9,1.6
		c-0.1-0.1-0.4-0.3-0.5-0.4c0.6-0.6,0.9-1.6,1.1-2.7H6.2v-0.7H7.5z"/>
	<path d="M16.1,25.4c0,0.3-0.1,0.5-0.1,0.7h3.5c0,0,0,0.3,0,0.4c-0.1,1.4-0.3,2-0.5,2.3C18.8,29,18.6,29,18.2,29c-0.3,0-0.8,0-1.3,0
		c0-0.3-0.1-0.6-0.3-0.8c0.5,0.1,1,0.1,1.2,0.1c0.2,0,0.3,0,0.4-0.1c0.1-0.1,0.2-0.5,0.3-1.3h-2.7c-0.4,1-1.2,1.7-2.7,2.2
		c-0.1-0.2-0.3-0.6-0.5-0.8c2-0.5,2.5-1.5,2.7-2.9h-2.1c-0.1,1.3-0.5,2.7-1.3,3.7c-0.1-0.2-0.5-0.6-0.7-0.7c1.1-1.4,1.2-3.4,1.2-4.9
		v-3.3h0c2.4-0.1,5.1-0.4,6.7-0.8l0.7,0.7c-1.8,0.4-4.2,0.6-6.5,0.8v0.5h6.7v2.4h-6.7c0,0.3,0,0.6,0,0.9h3c-0.1-0.2-0.2-0.5-0.3-0.7
		l0.9-0.2c0.2,0.3,0.4,0.6,0.5,0.9h3.3v0.8H16.1z M13.2,22.2V23h5.7v-0.9H13.2z"/>
	<path d="M26.2,26.1c-1.4,0.7-3,1.3-4.1,1.8l-0.4-1c0.4-0.1,0.9-0.3,1.4-0.5L22.9,20l1,0l0.2,5.9c0.6-0.3,1.2-0.5,1.8-0.8L26.2,26.1
		z M30.7,29c-0.5-0.7-1.3-1.7-2.2-2.7c-0.8,1.2-1.9,2-3.4,2.7c-0.1-0.2-0.5-0.7-0.8-0.9c3.5-1.3,4.6-3.8,5-8.2l1.1,0.1
		c-0.2,2.2-0.6,4-1.3,5.4c0.9,0.9,1.9,2,2.4,2.8L30.7,29z M26.7,23.7c-0.3-0.7-0.9-1.8-1.6-2.6l0.9-0.4c0.7,0.8,1.3,1.8,1.6,2.5
		L26.7,23.7z"/>
	<path d="M33.7,19.3h3.4v0.9h-2.4v5.8h-1V19.3z"/>
	<path d="M38.7,22.1c-0.1,0.2-0.3,0.4-0.5,0.5c-0.1-0.2-0.3-0.5-0.5-0.7c0.6-0.6,1.2-1.6,1.5-2.5l0.8,0.2c-0.1,0.3-0.2,0.6-0.4,0.9
		h1c-0.1-0.3-0.2-0.6-0.4-0.9l0.8-0.2c0.2,0.3,0.4,0.8,0.5,1.1h0.9v0.6h-1.2v0.5h1v0.1c0.6-0.6,1.1-1.5,1.4-2.4l0.8,0.2
		c-0.1,0.3-0.3,0.6-0.4,0.9h1c-0.1-0.3-0.2-0.6-0.4-0.8l0.8-0.2c0.2,0.3,0.4,0.8,0.5,1.1h1.1v0.7h-1.4v0.5h1.1v0.6h-1.1v0.5h1.1v0.6
		h-1.1V24h1.5v0.7h-4.1v-2.5c-0.2,0.2-0.3,0.4-0.5,0.6c-0.1-0.1-0.3-0.3-0.4-0.5l0,0.1h-1v0.5h1v0.6h-1V24h1.3v0.6h-3.9V22.1z
		 M46.2,25.5c-0.5,0.8-1.3,1.5-2.2,2c1,0.3,2.1,0.5,3.3,0.6c-0.2,0.2-0.5,0.7-0.6,0.9c-1.4-0.2-2.8-0.4-4-0.9
		c-1.4,0.5-2.9,0.8-4.4,1c-0.1-0.3-0.2-0.7-0.4-0.9c1.2-0.1,2.5-0.3,3.6-0.6c-0.7-0.4-1.4-0.9-1.9-1.5l0.3-0.1h-1.5v-0.8h6.9l0.2,0
		L46.2,25.5z M40.5,21.2h-1v0.5h1V21.2z M40.5,22.3h-1v0.5h1V22.3z M40.5,23.5h-1V24h1V23.5z M40.8,26c0.5,0.5,1.2,0.8,2,1.2
		c0.7-0.3,1.4-0.7,1.8-1.2H40.8z M45,21.2h-1v0.5h1V21.2z M45,22.4h-1v0.5h1V22.4z M45,23.5h-1V24h1V23.5z"/>
	<path d="M52,20.2c-0.3,0.9-0.7,2-1,2.8c0.7,0.8,0.9,1.6,0.9,2.2c0,0.6-0.1,1-0.4,1.2c-0.2,0.1-0.4,0.2-0.6,0.2c-0.2,0-0.5,0-0.7,0
		c0-0.2-0.1-0.6-0.2-0.8c0.2,0,0.4,0,0.5,0c0.1,0,0.2,0,0.3-0.1c0.1-0.1,0.2-0.4,0.2-0.7c0-0.5-0.2-1.2-0.9-2
		c0.3-0.7,0.5-1.6,0.7-2.4h-1.1v8.3h-0.9v-9.2h2.3l0.1,0L52,20.2z M54,24.6c-0.1,0.2-0.2,0.4-0.3,0.6h4.1l0,0.4
		c-0.1,2-0.2,2.8-0.5,3.1c-0.2,0.2-0.3,0.3-0.6,0.3c-0.2,0-0.6,0-1,0c0-0.3-0.1-0.6-0.2-0.8c0.3,0,0.6,0,0.7,0c0.1,0,0.2,0,0.3-0.1
		c0.1-0.2,0.2-0.7,0.3-2.2h-0.5c-0.4,1.2-1.2,2.3-2,3c-0.1-0.1-0.4-0.4-0.6-0.6c0.8-0.6,1.4-1.5,1.8-2.5h-0.7
		c-0.6,1.2-1.5,2.2-2.5,2.8c-0.1-0.2-0.4-0.5-0.5-0.6c0.9-0.5,1.7-1.3,2.2-2.2h-0.7c-0.4,0.5-0.8,0.9-1.2,1.2
		c-0.1-0.2-0.4-0.5-0.6-0.6c0.7-0.5,1.4-1.2,1.8-2h-1.3v-0.8h6.2v0.8H54z M57.3,23.3h-4.6v-3.5h4.6V23.3z M56.4,20.5h-2.8v0.7h2.8
		V20.5z M56.4,21.9h-2.8v0.7h2.8V21.9z"/>
	<path d="M65.6,20.5c1,0.9,2.2,2.2,2.8,3l-0.8,0.6c-0.2-0.3-0.4-0.6-0.6-0.9c-5.8,0.3-6.4,0.3-6.9,0.5c0-0.2-0.2-0.7-0.3-1
		c0.3,0,0.5-0.3,0.9-0.6c0.4-0.3,1.6-1.6,2.3-2.9l1,0.4c-0.8,1.1-1.6,2.1-2.5,2.9l4.9-0.2c-0.5-0.5-0.9-1-1.4-1.4L65.6,20.5z
		 M60.5,24.6h6.8V29h-1v-0.5h-4.8v0.6h-1V24.6z M61.5,25.5v2h4.8v-2H61.5z"/>
	<path d="M71,24.1c0-0.5,0.4-0.9,0.9-0.9s0.9,0.4,0.9,0.9S72.5,25,72,25S71,24.6,71,24.1z"/>
	<path d="M76.1,22.1c-0.1,0.2-0.3,0.4-0.5,0.5c-0.1-0.2-0.3-0.5-0.5-0.7c0.6-0.6,1.2-1.6,1.5-2.5l0.8,0.2c-0.1,0.3-0.2,0.6-0.4,0.9
		h1c-0.1-0.3-0.2-0.6-0.4-0.9l0.8-0.2c0.2,0.3,0.4,0.8,0.5,1.1h0.9v0.6h-1.2v0.5h1v0.1c0.6-0.6,1.1-1.5,1.4-2.4l0.8,0.2
		c-0.1,0.3-0.3,0.6-0.4,0.9h1c-0.1-0.3-0.2-0.6-0.4-0.8l0.8-0.2c0.2,0.3,0.4,0.8,0.5,1.1h1.1v0.7h-1.4v0.5h1.1v0.6h-1.1v0.5h1.1v0.6
		h-1.1V24h1.5v0.7h-4.1v-2.5c-0.2,0.2-0.3,0.4-0.5,0.6c-0.1-0.1-0.3-0.3-0.4-0.5l0,0.1h-1v0.5h1v0.6h-1V24H80v0.6h-3.9V22.1z
		 M83.6,25.5c-0.5,0.8-1.3,1.5-2.2,2c1,0.3,2.1,0.5,3.3,0.6c-0.2,0.2-0.5,0.7-0.6,0.9c-1.4-0.2-2.8-0.4-4-0.9
		c-1.4,0.5-2.9,0.8-4.4,1c-0.1-0.3-0.2-0.7-0.4-0.9c1.2-0.1,2.5-0.3,3.6-0.6c-0.7-0.4-1.4-0.9-1.9-1.5l0.3-0.1h-1.5v-0.8h6.9l0.2,0
		L83.6,25.5z M77.9,21.2h-1v0.5h1V21.2z M77.9,22.3h-1v0.5h1V22.3z M77.9,23.5h-1V24h1V23.5z M78.2,26c0.5,0.5,1.2,0.8,2,1.2
		c0.7-0.3,1.4-0.7,1.8-1.2H78.2z M82.4,21.2h-1v0.5h1V21.2z M82.4,22.4h-1v0.5h1V22.4z M82.4,23.5h-1V24h1V23.5z"/>
	<path d="M89.1,24.7c-0.4,0.1-0.7,0.2-1.1,0.3V28c0,0.5-0.1,0.7-0.4,0.9c-0.3,0.1-0.7,0.2-1.4,0.2c0-0.2-0.1-0.7-0.3-0.9
		c0.4,0,0.8,0,0.9,0c0.1,0,0.2,0,0.2-0.2v-2.7c-0.4,0.1-0.8,0.2-1.1,0.4l-0.2-0.9c0.4-0.1,0.9-0.2,1.4-0.4v-2h-1.2v-0.9h1.2v-2H88v2
		h1v0.9h-1v1.7l1-0.3L89.1,24.7z M93.3,25.4c0.6,0.9,1.5,1.8,2.4,2.3c-0.2,0.2-0.5,0.5-0.6,0.7c-0.8-0.5-1.7-1.4-2.3-2.4V29h-0.9
		v-2.9c-0.7,1-1.6,1.9-2.5,2.4c-0.2-0.2-0.4-0.6-0.7-0.7c1-0.5,2-1.4,2.6-2.3h-2v-0.9h2.6v-1.1h0.9v1.1h2.6v0.9H93.3z M95.1,20.3
		c-1.5,0.4-3.8,0.7-5.7,0.8c0-0.2-0.1-0.6-0.3-0.8c1.8-0.1,4-0.4,5.3-0.7L95.1,20.3z M90,23.6c-0.1-0.5-0.4-1.4-0.7-2l0.8-0.2
		c0.3,0.6,0.7,1.4,0.8,1.9L90,23.6z M91.8,23.3c0-0.5-0.2-1.3-0.5-1.9l0.8-0.1c0.3,0.6,0.5,1.4,0.5,1.9L91.8,23.3z M93.2,23.6
		c0.4-0.7,1-1.8,1.3-2.6l0.9,0.3c-0.4,0.9-1,1.9-1.4,2.5L93.2,23.6z"/>
	<path d="M104.7,27.9c0.3,0,0.4-0.1,0.4-0.9c0.2,0.2,0.6,0.3,0.9,0.4c-0.1,1.2-0.4,1.5-1.2,1.5h-1.5c-1.1,0-1.3-0.3-1.3-1.3v-3.4
		h-1.5c-0.2,2.3-0.7,4-3.3,4.9c-0.1-0.3-0.4-0.6-0.6-0.8c2.4-0.8,2.8-2.2,2.9-4.1h-2.7v-0.9h4v-3.8h1v3.8h4v0.9H103v3.4
		c0,0.3,0.1,0.4,0.5,0.4H104.7z M99,22.7c-0.3-0.6-0.9-1.5-1.5-2.2l0.8-0.5c0.6,0.7,1.3,1.6,1.6,2.2L99,22.7z M105.3,20.5
		c-0.5,0.8-1.2,1.7-1.7,2.2l-0.8-0.4c0.5-0.6,1.1-1.5,1.5-2.2L105.3,20.5z"/>
	<path d="M108.4,24.1c0-0.5,0.4-0.9,0.9-0.9s0.9,0.4,0.9,0.9s-0.4,0.9-0.9,0.9S108.4,24.6,108.4,24.1z"/>
	<path d="M113.5,22.1c-0.1,0.2-0.3,0.4-0.5,0.5c-0.1-0.2-0.3-0.5-0.5-0.7c0.6-0.6,1.2-1.6,1.5-2.5l0.8,0.2c-0.1,0.3-0.2,0.6-0.4,0.9
		h1c-0.1-0.3-0.2-0.6-0.4-0.9l0.8-0.2c0.2,0.3,0.4,0.8,0.5,1.1h0.9v0.6h-1.2v0.5h1v0.1c0.6-0.6,1.1-1.5,1.4-2.4l0.8,0.2
		c-0.1,0.3-0.3,0.6-0.4,0.9h1c-0.1-0.3-0.2-0.6-0.4-0.8l0.8-0.2c0.2,0.3,0.4,0.8,0.5,1.1h1.1v0.7h-1.4v0.5h1.1v0.6h-1.1v0.5h1.1v0.6
		h-1.1V24h1.5v0.7h-4.1v-2.5c-0.2,0.2-0.3,0.4-0.5,0.6c-0.1-0.1-0.3-0.3-0.4-0.5l0,0.1h-1v0.5h1v0.6h-1V24h1.3v0.6h-3.9V22.1z
		 M121,25.5c-0.5,0.8-1.3,1.5-2.2,2c1,0.3,2.1,0.5,3.3,0.6c-0.2,0.2-0.5,0.7-0.6,0.9c-1.4-0.2-2.8-0.4-4-0.9c-1.4,0.5-2.9,0.8-4.4,1
		c-0.1-0.3-0.2-0.7-0.4-0.9c1.2-0.1,2.5-0.3,3.6-0.6c-0.7-0.4-1.4-0.9-1.9-1.5l0.3-0.1h-1.5v-0.8h6.9l0.2,0L121,25.5z M115.3,21.2
		h-1v0.5h1V21.2z M115.3,22.3h-1v0.5h1V22.3z M115.3,23.5h-1V24h1V23.5z M115.6,26c0.5,0.5,1.2,0.8,2,1.2c0.7-0.3,1.4-0.7,1.8-1.2
		H115.6z M119.7,21.2h-1v0.5h1V21.2z M119.7,22.4h-1v0.5h1V22.4z M119.7,23.5h-1V24h1V23.5z"/>
	<path d="M125.8,22c-0.2,0.4-0.4,0.8-0.6,1.1v5.9h-0.9v-4.7c-0.3,0.3-0.5,0.6-0.8,0.9c-0.1-0.2-0.4-0.7-0.5-0.9
		c0.8-0.7,1.5-1.8,2-2.9l0.8,0.3v-0.2h1c0.1-0.2,0.1-0.5,0.1-0.8h-0.9v-0.7h1c0-0.3,0.1-0.5,0.1-0.8l0.9,0.1c0,0.2-0.1,0.5-0.1,0.7
		h1.6v1.5h0.6v0.8h-4.4V22z M125.7,19.8c-0.5,0.9-1.4,1.8-2.1,2.4c-0.1-0.2-0.3-0.6-0.5-0.7c0.7-0.5,1.4-1.4,1.8-2L125.7,19.8z
		 M128.8,27.9v1.2h-0.9v-1.2h-2.1c0.1-0.4,0.2-1,0.3-1.6h-0.4v-0.7h2.2V25h-1.8v-2.1h3.7V25h-1v0.6h1.3v0.7h-1.3v0.9h1.5v0.7H128.8z
		 M127.9,27.1v-0.9h-1c0,0.3-0.1,0.6-0.1,0.9H127.9z M126.9,24.3h2.2v-0.8h-2.2V24.3z M127.9,20.9c0,0.3-0.1,0.5-0.1,0.8h1.1v-0.8
		H127.9z M132.9,23.7H132v4.2c0,0.5-0.1,0.8-0.4,0.9c-0.3,0.2-0.8,0.2-1.4,0.2c0-0.3-0.1-0.7-0.3-0.9c0.5,0,0.9,0,1,0
		c0.1,0,0.2,0,0.2-0.2v-4.2h-1v-0.9h2.8V23.7z M132.7,20.9h-2.4v-0.9h2.4V20.9z"/>
	<path d="M135.7,24.2c-0.4-0.3-1.2-0.8-1.8-1.1l0.5-0.7c0.6,0.3,1.4,0.7,1.8,1L135.7,24.2z M134.3,28.3c0.4-0.7,1-1.9,1.5-3l0.8,0.6
		c-0.4,1-0.9,2.1-1.4,3L134.3,28.3z M136.3,21.5c-0.4-0.4-1.2-0.9-1.8-1.3l0.6-0.7c0.6,0.3,1.4,0.9,1.9,1.2L136.3,21.5z M140.5,21.6
		c-0.1,0.1-0.1,0.2-0.2,0.3c0.9,1.4,2,2.3,3.4,3c-0.2,0.2-0.5,0.5-0.7,0.8c-0.2-0.1-0.4-0.3-0.6-0.4V29h-1v-0.3h-3.1v0.4h-1v-3.8
		c-0.2,0.1-0.4,0.3-0.7,0.4c-0.1-0.3-0.4-0.6-0.7-0.8c1.5-0.7,2.8-2,3.5-3.6L140.5,21.6z M139.5,19.9c-0.6,1-1.5,2.1-2.2,2.8
		c-0.2-0.2-0.6-0.5-0.8-0.6c0.8-0.6,1.6-1.6,2.1-2.5L139.5,19.9z M142.1,25.1c-0.9-0.6-1.6-1.3-2.3-2.3c-0.6,0.9-1.3,1.7-2.2,2.3
		H142.1z M141.4,27.8V26h-3.1v1.8H141.4z M142.6,22.5c-0.5-0.7-1.4-1.7-2.2-2.5l0.8-0.5c0.7,0.7,1.8,1.7,2.3,2.4L142.6,22.5z"/>
	<path d="M147.6,29.2h-3.4v-0.9h2.4v-5.8h1V29.2z"/>
	<path d="M159.3,21.1c0,0,0,0.3,0,0.5c-0.1,4.7-0.3,6.4-0.7,6.9c-0.3,0.3-0.5,0.4-0.9,0.5c-0.4,0-1,0-1.6,0c0-0.3-0.1-0.7-0.3-0.9
		c0.7,0.1,1.3,0.1,1.5,0.1c0.2,0,0.3,0,0.4-0.2c0.3-0.3,0.5-1.9,0.6-5.9h-2.5c-0.3,0.7-0.6,1.3-1,1.8c-0.2-0.1-0.5-0.4-0.8-0.5V28
		h-2.8v0.8h-0.9v-7.7h1.2c0.1-0.5,0.3-1.2,0.4-1.7l1.1,0.2c-0.2,0.5-0.4,1.1-0.5,1.5h1.7v2c0.7-0.9,1.2-2.3,1.6-3.7l0.9,0.2
		c-0.1,0.5-0.3,1-0.4,1.4H159.3z M151.3,22v2h2v-2H151.3z M153.2,27.1v-2.3h-2v2.3H153.2z M156.7,26.3c-0.3-0.6-1-1.7-1.5-2.4
		l0.8-0.4c0.6,0.7,1.3,1.7,1.6,2.3L156.7,26.3z"/>
	<path d="M3.3,35.7c-0.2,0.7-0.5,1.3-0.7,2v7.4H1.6v-5.6c-0.3,0.4-0.5,0.8-0.8,1.1c-0.1-0.2-0.3-0.8-0.5-1c0.8-1,1.6-2.6,2-4.1
		L3.3,35.7z M9.2,42.6c-0.4,0.5-0.9,1-1.6,1.4c0.8,0.2,1.6,0.3,2.5,0.4c-0.2,0.2-0.4,0.5-0.5,0.7c-1.1-0.1-2.2-0.3-3.1-0.7
		c-0.9,0.3-1.9,0.5-3.1,0.7c-0.1-0.2-0.3-0.5-0.5-0.7c1-0.1,1.8-0.3,2.6-0.5c-0.3-0.2-0.6-0.3-0.9-0.5c-0.3,0.2-0.6,0.4-1,0.5
		c-0.1-0.2-0.4-0.4-0.6-0.6c0.3-0.1,0.7-0.3,1-0.5c-0.1-0.1-0.3-0.3-0.4-0.5l0.7-0.3c0.1,0.1,0.2,0.2,0.3,0.3
		C5,42.3,5.2,42,5.4,41.8c-0.3-0.1-0.4-0.3-0.4-0.7v-0.1c-0.3,0.4-0.6,0.8-1,1l-0.6-0.4c0.4-0.2,0.8-0.7,1-1l0.5,0.3v-0.3h0.8v0.6
		c0,0.2,0.1,0.2,0.4,0.2h1.1c0.2,0,0.3-0.1,0.3-0.4c0.1,0.1,0.4,0.2,0.6,0.2C8.2,41,8.1,40.9,8,40.8l0.5-0.3
		c0.4,0.3,0.9,0.9,1.1,1.2L9.1,42c-0.2-0.3-0.5-0.6-0.8-0.9c-0.1,0.6-0.3,0.7-0.9,0.7H6.4C6.3,42,6.1,42.1,6,42.3h2.4l0.2,0
		L9.2,42.6z M10.1,39.7v1.4H9.2v-0.9H6.7c0.3,0.2,0.6,0.4,0.8,0.6l-0.6,0.3C6.7,41,6.3,40.7,6,40.5l0.3-0.2H3.9v0.9H3.1v-1.4h1v-2.6
		h1.8c0-0.2,0.1-0.3,0.1-0.5H3.4v-0.7h6.5v0.7H7l-0.2,0.5h2.3v2.6H10.1z M5,37.6V38h3.2v-0.4H5z M8.2,38.4H5v0.4h3.2V38.4z M5,39.7
		h3.2v-0.4H5V39.7z M5.2,43c0.4,0.2,0.8,0.5,1.3,0.7c0.5-0.2,1-0.5,1.3-0.7L5.2,43L5.2,43z"/>
	<path d="M12.7,37.7c-0.1,0.5-0.4,1.1-1,1.5c-0.1-0.2-0.5-0.5-0.6-0.6c0.8-0.6,0.9-1.3,0.9-1.9v-0.8c1.1-0.1,2.4-0.2,3.1-0.5
		l0.6,0.6c-0.7,0.2-1.8,0.4-2.8,0.5v0.2c0,0.1,0,0.2,0,0.3h3v0.7h-1.1v1.2h-0.9v-1.2H12.7z M17.4,43.4c1.1,0.3,2.3,0.7,3.1,1
		L20,45.1c-0.7-0.3-2-0.8-3.1-1.1l0.4-0.6h-2.9l0.7,0.4c-0.9,0.5-2.2,1-3.3,1.3c-0.1-0.2-0.3-0.6-0.5-0.8c1-0.2,2.2-0.6,3-0.9h-1.7
		v-4.3h6.6v4.3H17.4z M13.6,40.3h4.7v-0.6h-4.7V40.3z M13.6,41.5h4.7v-0.6h-4.7V41.5z M13.6,42.8h4.7v-0.6h-4.7V42.8z M20.6,37v0.7
		H19v1.2l-0.9,0v-1.2H17c-0.1,0.5-0.3,1-0.7,1.4c-0.1-0.1-0.5-0.4-0.7-0.5c0.6-0.6,0.7-1.4,0.7-1.9v-0.8c1.1-0.1,2.5-0.2,3.2-0.4
		l0.6,0.6c-0.8,0.3-2,0.4-3,0.5v0.2c0,0.1,0,0.2,0,0.3H20.6z"/>
	<path d="M25.3,43.6c-0.3-0.4-0.8-1.2-1.2-1.8c-0.3,1.1-0.7,2.2-1.7,3.1c-0.1-0.2-0.5-0.5-0.7-0.7c1.2-1,1.6-2.5,1.7-3.8h-1.6v-0.9
		h1.6c0-0.2,0-0.4,0-0.7V38H22v-0.9h1.4v-1.6h0.9v1.6h1.4V38h-1.4v0.9c0,0.2,0,0.4,0,0.7H26v0.9h-1.7c0,0.1,0,0.3,0,0.4
		c0.4,0.4,1.5,1.7,1.7,2L25.3,43.6z M30.4,44c0.2,0,0.2-0.1,0.2-0.8c0.2,0.1,0.5,0.3,0.8,0.4c-0.1,1-0.3,1.3-0.9,1.3h-0.8
		c-0.8,0-1-0.3-1-1.1v-2h-0.6c-0.2,1.6-0.7,2.7-2.5,3.4c-0.1-0.2-0.3-0.6-0.5-0.7c1.6-0.5,2-1.4,2.1-2.6h-0.9v-5.9h4.5v5.9h-1.2v2
		c0,0.3,0,0.3,0.2,0.3H30.4z M27.2,37.5h2.7v-0.8h-2.7V37.5z M27.2,39.2h2.7v-0.9h-2.7V39.2z M27.2,40.8h2.7V40h-2.7V40.8z"/>
	<path d="M37.8,37.1h0.6v0.6h-0.6v1.1h-2v0.4H38v0.6h-2.1v0.4h2.5v0.7h-5.9v-0.7h2.4v-0.4H33v-0.6h1.9v-0.4H33v-0.6h1.9v-0.5h-2.5
		v-0.6h2.5v-0.4h-1.9v-0.6h1.9v-0.6h0.9v0.6h2V37.1z M32.5,44c1.5,0,3.8-0.1,6-0.2l0,0.7c-2.1,0.1-4.4,0.2-5.9,0.3L32.5,44z
		 M37.8,41.2v2.3h-4.8v-2.3H37.8z M33.9,42.1H35v-0.4h-1.2V42.1z M33.9,43H35v-0.4h-1.2V43z M35.8,37.1H37v-0.4h-1.2V37.1z M37,37.7
		h-1.2v0.5H37V37.7z M37,41.7h-1.2v0.4H37V41.7z M37,42.6h-1.2V43H37V42.6z M39.7,42.5h-0.9v-5.8h0.9V42.5z M41.7,35.6v8.3
		c0,0.5-0.1,0.8-0.5,1c-0.3,0.1-0.9,0.2-1.7,0.2c0-0.3-0.2-0.7-0.3-1c0.6,0,1.1,0,1.3,0c0.2,0,0.2-0.1,0.2-0.2v-8.3H41.7z"/>
	<path d="M44.1,41.7c0.8-0.3,1.3-0.8,1.3-1.4c0,0-0.1,0-0.1,0c-0.5,0-0.9-0.3-0.9-0.8c0-0.5,0.4-0.8,0.9-0.8c0.7,0,1,0.5,1,1.3
		c0,1.2-0.7,2.1-1.9,2.5L44.1,41.7z"/>
	<path d="M58.1,40.5h-2.2v4.5h-1v-4.5h-3c-0.1,1.7-0.6,3.4-2.7,4.6c-0.1-0.2-0.5-0.6-0.7-0.7c1.8-1,2.3-2.4,2.4-3.8h-2.3v-0.9h2.3
		v-2.1c-0.6,0.2-1.3,0.3-1.9,0.5c-0.1-0.2-0.2-0.6-0.3-0.8c1.6-0.4,3.4-1,4.5-1.6l0.7,0.8c-0.6,0.3-1.3,0.6-2,0.8v2.4h3v-4h1v4h2.2
		V40.5z"/>
	<path d="M62.7,41.8c0-0.2-0.1-0.3-0.1-0.6c-2.3,0.4-2.7,0.5-2.9,0.6c0-0.2-0.2-0.7-0.3-0.9c0.3-0.1,0.5-0.3,0.8-0.7
		c0.2-0.2,0.5-0.5,0.8-1c-1,0.1-1.2,0.2-1.4,0.3c-0.1-0.2-0.2-0.6-0.3-0.9c0.2-0.1,0.4-0.3,0.6-0.6c0.2-0.3,0.9-1.5,1.3-2.6l0.9,0.4
		c-0.4,0.9-1,1.9-1.5,2.6l0.9-0.1c0.3-0.4,0.5-0.9,0.8-1.4l0.8,0.5c-0.7,1.1-1.5,2.3-2.3,3.2l1.5-0.2c-0.1-0.3-0.2-0.6-0.4-0.9
		l0.7-0.2c0.3,0.7,0.7,1.6,0.8,2.1L62.7,41.8z M60.5,42.3c-0.1,0.9-0.3,1.9-0.5,2.5c-0.2-0.1-0.5-0.2-0.7-0.3
		c0.2-0.6,0.4-1.6,0.5-2.4L60.5,42.3z M61.6,42.1c0.1,0.7,0.2,1.5,0.3,2.1l-0.7,0.2c0-0.6-0.1-1.4-0.2-2.1L61.6,42.1z M68.6,39
		c-0.3,1.5-0.8,2.8-1.4,3.8c0.5,0.6,1.1,1,1.7,1.3c-0.2,0.2-0.5,0.6-0.7,0.8c-0.7-0.3-1.2-0.8-1.7-1.4c-0.5,0.6-1.1,1-1.7,1.4
		c-0.1-0.2-0.4-0.6-0.6-0.8c0.6-0.3,1.2-0.8,1.7-1.5c-0.4-0.7-0.8-1.5-1-2.4c-0.2,1.8-0.6,3.4-1.4,4.6c-0.1-0.2-0.6-0.5-0.8-0.6
		c0.2-0.3,0.4-0.5,0.5-0.8l-0.7,0.2c-0.1-0.5-0.3-1.2-0.5-1.7l0.7-0.2c0.2,0.5,0.4,1.2,0.5,1.7c0.8-1.6,1-4,1-6.7h-1v-0.9h3.6l0.1,0
		l0.7,0.1c-0.1,0.9-0.3,2-0.5,2.9h0.6l0.2,0L68.6,39z M65.1,36.8c0,0.7,0,1.4-0.1,2h1.2c0.1-0.7,0.3-1.4,0.4-2H65.1z M65.6,39.7
		c0.2,0.8,0.5,1.6,0.9,2.3c0.4-0.7,0.7-1.5,0.9-2.3H65.6z"/>
	<path d="M79.3,43.8v0.9H70v-0.9h4.2v-2.4h-3v-0.9h3v-2.1h-2.3c-0.3,0.6-0.7,1.2-1,1.6c-0.2-0.2-0.6-0.5-0.9-0.6
		c0.8-0.9,1.5-2.3,1.9-3.8l1,0.2c-0.2,0.5-0.3,1.1-0.5,1.6h1.9v-2h1v2h3.7v1h-3.7v2.1h3.3v0.9h-3.3v2.4H79.3z"/>
	<path d="M82.5,40.3c-0.4-0.3-1.3-0.8-1.9-1.1l0.5-0.7c0.6,0.3,1.5,0.8,1.9,1L82.5,40.3z M80.8,44.3c0.6-0.8,1.4-2.1,2-3.3l0.7,0.7
		c-0.5,1.1-1.2,2.3-1.9,3.3L80.8,44.3z M83,37.4c-0.4-0.3-1.3-0.8-1.9-1.2l0.5-0.7c0.6,0.3,1.5,0.8,2,1.1L83,37.4z M87.3,39.4V41
		h2.2v4h-0.9v-0.4h-3.5v0.4h-0.9V41h2.2v-1.6h-2.9v-0.9h2.9V37c-0.7,0.1-1.5,0.2-2.2,0.3c0-0.2-0.2-0.6-0.3-0.8c1.8-0.2,3.8-0.5,5-1
		l0.8,0.8c-0.7,0.3-1.5,0.5-2.4,0.6v1.6h2.8v0.9H87.3z M88.6,41.8h-3.5v1.9h3.5V41.8z"/>
	<path d="M92.8,37.7c-0.1,0.5-0.4,1.1-1,1.5c-0.1-0.2-0.5-0.5-0.6-0.6c0.8-0.6,0.9-1.3,0.9-1.9v-0.8c1.1-0.1,2.4-0.2,3.1-0.5
		l0.6,0.6c-0.7,0.2-1.8,0.4-2.8,0.5v0.2c0,0.1,0,0.2,0,0.3h3v0.7h-1.1v1.2h-0.9v-1.2H92.8z M97.5,43.4c1.1,0.3,2.3,0.7,3.1,1
		l-0.5,0.7c-0.7-0.3-2-0.8-3.1-1.1l0.4-0.6h-2.9l0.7,0.4c-0.9,0.5-2.2,1-3.3,1.3c-0.1-0.2-0.3-0.6-0.5-0.8c1-0.2,2.2-0.6,3-0.9h-1.7
		v-4.3h6.6v4.3H97.5z M93.6,40.3h4.7v-0.6h-4.7V40.3z M93.6,41.5h4.7v-0.6h-4.7V41.5z M93.6,42.8h4.7v-0.6h-4.7V42.8z M100.7,37v0.7
		h-1.6v1.2l-0.9,0v-1.2H97c-0.1,0.5-0.3,1-0.7,1.4c-0.1-0.1-0.5-0.4-0.7-0.5c0.6-0.6,0.7-1.4,0.7-1.9v-0.8c1.1-0.1,2.5-0.2,3.2-0.4
		l0.6,0.6c-0.8,0.3-2,0.4-3,0.5v0.2c0,0.1,0,0.2,0,0.3H100.7z"/>
	<path d="M111,37.9c-0.4,1-0.9,1.9-1.6,2.6c0.3,2.1,0.7,3.6,1.1,3.6c0.2,0,0.3-0.5,0.3-1.7c0.2,0.2,0.5,0.4,0.7,0.5
		c-0.1,1.7-0.4,2.1-1.2,2.1c-0.9,0-1.5-1.5-1.8-3.7c-0.3,0.2-0.5,0.4-0.8,0.6c-0.1-0.1-0.3-0.4-0.5-0.5H104V39h3.4v2.1
		c0.4-0.2,0.7-0.5,1-0.8c-0.1-0.9-0.2-2-0.2-3h-4.6v0.6h4.2v0.7h-4.2v0.1c0,1.8-0.1,4.6-1.1,6.5c-0.1-0.2-0.6-0.4-0.8-0.5
		c0.9-1.8,1-4.3,1-6v-2.1h5.4c0-0.3,0-0.7,0-1h0.9c0,0.3,0,0.7,0,1h1c-0.3-0.2-0.7-0.5-1-0.7l0.6-0.4c0.4,0.2,0.9,0.5,1.2,0.8
		l-0.4,0.3h0.9v0.8h-2.2c0,0.7,0.1,1.4,0.1,2c0.3-0.5,0.6-1,0.8-1.6L111,37.9z M103.2,44.4c0.2-0.6,0.4-1.5,0.5-2.2l0.6,0.2
		c-0.1,0.6-0.3,1.6-0.5,2.2L103.2,44.4z M106.8,44.3c0.3,0,0.3-0.1,0.4-1.2c0.2,0.1,0.5,0.3,0.7,0.3c-0.1,1.2-0.3,1.5-1,1.5h-1.2
		c-0.8,0-1-0.2-1-1v-1.8h0.8V44c0,0.3,0.1,0.3,0.4,0.3H106.8z M106.6,39.7h-1.8v1h1.8V39.7z M106.3,43.3c-0.2-0.4-0.6-1.1-0.9-1.6
		l0.6-0.3c0.3,0.5,0.7,1.1,0.9,1.5L106.3,43.3z M108,42.2c0.3,0.7,0.8,1.6,1,2.1l-0.7,0.3c-0.2-0.5-0.6-1.5-0.9-2.2L108,42.2z"/>
	<path d="M113.6,41.7c0.8-0.3,1.3-0.8,1.3-1.4c0,0-0.1,0-0.1,0c-0.5,0-0.9-0.3-0.9-0.8c0-0.5,0.4-0.8,0.9-0.8c0.7,0,1,0.5,1,1.3
		c0,1.2-0.7,2.1-1.9,2.5L113.6,41.7z"/>
	<path d="M127.5,39.6v1.1H118v-1.1H127.5z"/>
	<path d="M133.7,41.4c0,0.3-0.1,0.5-0.1,0.7h3.5c0,0,0,0.3,0,0.4c-0.1,1.4-0.3,2-0.5,2.3c-0.2,0.2-0.4,0.3-0.7,0.3
		c-0.3,0-0.8,0-1.3,0c0-0.3-0.1-0.6-0.3-0.8c0.5,0.1,1,0.1,1.2,0.1c0.2,0,0.3,0,0.4-0.1c0.1-0.1,0.2-0.5,0.3-1.3h-2.7
		c-0.4,1-1.2,1.7-2.7,2.2c-0.1-0.2-0.3-0.6-0.5-0.8c2-0.5,2.5-1.5,2.7-2.9h-2.1c-0.1,1.3-0.5,2.7-1.3,3.7c-0.1-0.2-0.5-0.6-0.7-0.7
		c1.1-1.4,1.2-3.4,1.2-4.9v-3.3h0c2.4-0.1,5.1-0.4,6.7-0.8l0.7,0.7c-1.8,0.4-4.2,0.6-6.5,0.8v0.5h6.7v2.4h-6.7c0,0.3,0,0.6,0,0.9h3
		c-0.1-0.2-0.2-0.5-0.3-0.7l0.9-0.2c0.2,0.3,0.4,0.6,0.5,0.9h3.3v0.8H133.7z M130.7,38.2V39h5.7v-0.9H130.7z"/>
	<path d="M148.9,39.6v1.1h-9.6v-1.1H148.9z"/>
	<path d="M151.5,39.4c0,1.6-0.1,4.1-0.9,5.7c-0.2-0.2-0.5-0.4-0.8-0.5c0.7-1.5,0.8-3.6,0.8-5.1v-3.3h3.9c-0.1-0.2-0.2-0.4-0.3-0.5
		l0.8-0.3c0.2,0.2,0.4,0.6,0.6,0.8h3.9v0.8h-8V39.4z M153.8,42.3c-0.2,0.1-0.5,0.1-0.8,0.1V43h0.6v0.6H153v0.5l0.7-0.1l0,0.6
		c-0.8,0.1-1.5,0.2-2.2,0.3l-0.1-0.7c0.3,0,0.6,0,0.9-0.1v-0.6h-0.7V43h0.7v-0.5c-0.3,0-0.5,0-0.7,0c0-0.2-0.1-0.4-0.2-0.6
		c0.7-0.1,1.5-0.2,2-0.3L153.8,42.3z M154.6,38.1v7h-0.7v-3.8c-0.8,0.1-1.6,0.1-2.2,0.2l-0.1-0.7l0.6,0v-2.7h-0.4v-0.6h3.3v0.6
		H154.6z M153.9,38.1h-1v0.5h1V38.1z M153.9,39.1h-1v0.5h1V39.1z M153.9,40.7v-0.5h-1v0.6L153.9,40.7z M154.7,44.4
		c0.3-0.4,0.4-1,0.5-1.6l0.6,0.2c-0.1,0.6-0.2,1.3-0.5,1.7L154.7,44.4z M159.5,42.1h-2.4c0.3,0.3,0.7,0.8,0.8,1.1l-0.6,0.3
		c-0.1-0.3-0.5-0.9-0.9-1.2l0.4-0.2H155v-0.7h4.5V42.1z M157.6,37.2v0.6h1.7v0.7h-1.7v0.5h1.7v2h-4v-2h1.5v-0.5h-1.6v-0.7h1.6v-0.6
		H157.6z M156.4,39.5h-0.5v0.9h0.5V39.5z M157.6,44.4c0.2,0,0.2-0.1,0.2-0.7c0.1,0.1,0.4,0.2,0.6,0.3c-0.1,0.9-0.3,1.1-0.8,1.1h-0.8
		c-0.7,0-0.8-0.2-0.8-0.9v-1.4h0.7v1.4c0,0.2,0,0.2,0.2,0.2H157.6z M157.5,39.5H157v0.9h0.6V39.5z M158.1,40.4h0.6v-0.9h-0.6V40.4z
		 M158.8,42.7c0.4,0.5,0.7,1.2,0.8,1.7l-0.7,0.3c-0.1-0.5-0.4-1.2-0.8-1.7L158.8,42.7z"/>
	<path d="M2.9,55.3c-0.3,1.3-0.9,2.5-1.5,3.3c-0.2-0.2-0.6-0.4-0.8-0.6c0.6-0.7,1.1-1.8,1.3-3L2.9,55.3z M7.2,54.1v5.7
		c0,0.6-0.1,0.9-0.5,1S5.7,61,4.8,61c0-0.3-0.2-0.7-0.3-1c0.6,0,1.2,0,1.4,0c0.2,0,0.2-0.1,0.2-0.2v-5.7H4.7v1.1
		c0,1.8-0.3,4.2-2.6,5.9c-0.2-0.2-0.5-0.6-0.7-0.7c2.2-1.5,2.4-3.6,2.4-5.2v-1.1h-3v-1h4.4c-0.2-0.4-0.5-1-0.8-1.5l0.9-0.3
		c0.3,0.5,0.7,1.1,0.8,1.5l-0.8,0.3h4.6v1H7.2z M8.4,55.1c0.7,1,1.3,2.4,1.6,3.3L9,58.9c-0.2-0.9-0.9-2.3-1.5-3.4L8.4,55.1z"/>
	<path d="M15.1,59.6c-0.3-0.4-0.8-1.2-1.2-1.8c-0.3,1.1-0.7,2.2-1.7,3.1c-0.1-0.2-0.5-0.5-0.7-0.7c1.2-1,1.6-2.5,1.7-3.8h-1.6v-0.9
		h1.6c0-0.2,0-0.4,0-0.7V54h-1.4v-0.9h1.4v-1.6h0.9v1.6h1.4V54h-1.4v0.9c0,0.2,0,0.4,0,0.7h1.6v0.9H14c0,0.1,0,0.3,0,0.4
		c0.4,0.4,1.5,1.7,1.7,2L15.1,59.6z M20.1,60c0.2,0,0.2-0.1,0.2-0.8c0.2,0.1,0.5,0.3,0.8,0.4c-0.1,1-0.3,1.3-0.9,1.3h-0.8
		c-0.8,0-1-0.3-1-1.1v-2h-0.6c-0.2,1.6-0.7,2.7-2.5,3.4c-0.1-0.2-0.3-0.6-0.5-0.7c1.6-0.5,2-1.4,2.1-2.6H16v-5.9h4.5v5.9h-1.2v2
		c0,0.3,0,0.3,0.2,0.3H20.1z M16.9,53.5h2.7v-0.8h-2.7V53.5z M16.9,55.2h2.7v-0.9h-2.7V55.2z M16.9,56.8h2.7V56h-2.7V56.8z"/>
	<path d="M27.9,53.1h0.6v0.6h-0.6v1.1h-2v0.4h2.1v0.6h-2.1v0.4h2.5v0.7h-5.9v-0.7H25v-0.4h-1.9v-0.6H25v-0.4h-1.9v-0.6H25v-0.5h-2.5
		v-0.6H25v-0.4h-1.9v-0.6H25v-0.6h0.9v0.6h2V53.1z M22.6,60c1.5,0,3.8-0.1,6-0.2l0,0.7c-2.1,0.1-4.4,0.2-5.9,0.3L22.6,60z
		 M27.9,57.2v2.3h-4.8v-2.3H27.9z M24,58.1h1.2v-0.4H24V58.1z M24,59h1.2v-0.4H24V59z M25.9,53.1h1.2v-0.4h-1.2V53.1z M27.1,53.7
		h-1.2v0.5h1.2V53.7z M27.1,57.7H26v0.4h1.2V57.7z M27.1,58.6H26V59h1.2V58.6z M29.8,58.5h-0.9v-5.8h0.9V58.5z M31.8,51.6v8.3
		c0,0.5-0.1,0.8-0.5,1c-0.3,0.1-0.9,0.2-1.7,0.2c0-0.3-0.2-0.7-0.3-1c0.6,0,1.1,0,1.3,0c0.2,0,0.2-0.1,0.2-0.2v-8.3H31.8z"/>
	<path d="M35.1,53.6c-0.3,0.3-0.7,0.6-1.1,0.9c-0.1-0.2-0.3-0.7-0.4-0.9c0.8-0.5,1.7-1.3,2.2-2.2l0.8,0.3c-0.1,0.1-0.1,0.2-0.2,0.4
		c0.6,0.3,1.3,0.8,1.6,1.1l-0.5,0.7c-0.4-0.3-1-0.8-1.6-1.1c-0.2,0.3-0.4,0.5-0.6,0.8h1.6v0.7h-1.8V53.6z M42.9,54.5
		c-0.2,1.7-0.7,3.1-1.4,4.3c0.5,0.7,1.1,1.2,1.8,1.5c-0.2,0.2-0.5,0.5-0.6,0.8c-0.7-0.4-1.2-0.9-1.7-1.5c-0.5,0.7-1.1,1.2-1.8,1.6
		c-0.1-0.2-0.4-0.6-0.6-0.7c0.7-0.4,1.3-0.9,1.8-1.6c-0.5-0.9-0.9-1.9-1.2-3.1c0,1.6-0.1,3.9-1,5.4c-0.2-0.1-0.5-0.4-0.7-0.5
		l0.1-0.1L37,60.7c-0.1-0.2-0.1-0.5-0.2-0.8c-2.1,0.8-2.4,0.9-2.6,1.1c-0.1-0.2-0.2-0.6-0.3-0.8c0.2-0.1,0.4-0.2,0.4-0.6v-5h3.3v3.6
		h-2.4v1.6l1.4-0.5c-0.1-0.2-0.2-0.4-0.3-0.7l0.7-0.2c0.3,0.6,0.6,1.4,0.8,1.9c0.7-1.4,0.7-3.3,0.7-4.7V52h4.4v0.9h-3.6v1.4h2.9
		l0.2,0L42.9,54.5z M35.1,55.3V56h1.6v-0.7H35.1z M36.7,57.5v-0.8h-1.6v0.8H36.7z M40,55.2c0.2,1,0.5,1.9,1,2.7
		c0.4-0.8,0.7-1.7,0.9-2.7H40z"/>
	<path d="M54.1,52.7v0.9h-7.6v1.8c0,1.6-0.2,4.1-1.1,5.7c-0.2-0.2-0.6-0.5-0.9-0.6c0.9-1.5,1-3.7,1-5.2v-2.7h4
		c-0.1-0.3-0.3-0.7-0.5-1l1-0.2c0.3,0.4,0.5,0.8,0.6,1.2H54.1z M50.5,55h3.3v0.9h-3.3v1.2h2.8v3.8h-1v-0.4h-4.1v0.4h-1v-3.8h2.2
		v-3.2h1V55z M52.3,58h-4.1v1.6h4.1V58z"/>
	<path d="M59.2,57.8c0-0.2-0.1-0.3-0.1-0.6c-2.3,0.4-2.7,0.5-2.9,0.6c0-0.2-0.2-0.7-0.3-0.9c0.3-0.1,0.5-0.3,0.8-0.7
		c0.2-0.2,0.5-0.5,0.8-1c-1,0.1-1.2,0.2-1.4,0.3c-0.1-0.2-0.2-0.6-0.3-0.9c0.2-0.1,0.4-0.3,0.6-0.6c0.2-0.3,0.9-1.5,1.3-2.6l0.9,0.4
		c-0.4,0.9-1,1.9-1.5,2.6l0.9-0.1c0.3-0.4,0.5-0.9,0.8-1.4l0.8,0.5c-0.7,1.1-1.5,2.3-2.3,3.2l1.5-0.2c-0.1-0.3-0.2-0.6-0.4-0.9
		l0.7-0.2c0.3,0.7,0.7,1.6,0.8,2.1L59.2,57.8z M57,58.3c-0.1,0.9-0.3,1.9-0.5,2.5c-0.2-0.1-0.5-0.2-0.7-0.3c0.2-0.6,0.4-1.6,0.5-2.4
		L57,58.3z M58.1,58.1c0.1,0.7,0.2,1.5,0.3,2.1l-0.7,0.2c0-0.6-0.1-1.4-0.2-2.1L58.1,58.1z M65.1,55c-0.3,1.5-0.8,2.8-1.4,3.8
		c0.5,0.6,1.1,1,1.7,1.3c-0.2,0.2-0.5,0.6-0.7,0.8c-0.7-0.3-1.2-0.8-1.7-1.4c-0.5,0.6-1.1,1-1.7,1.4c-0.1-0.2-0.4-0.6-0.6-0.8
		c0.6-0.3,1.2-0.8,1.7-1.5c-0.4-0.7-0.8-1.5-1-2.4c-0.2,1.8-0.6,3.4-1.4,4.6c-0.1-0.2-0.6-0.5-0.8-0.6c0.2-0.3,0.4-0.5,0.5-0.8
		L59,59.8c-0.1-0.5-0.3-1.2-0.5-1.7l0.7-0.2c0.2,0.5,0.4,1.2,0.5,1.7c0.8-1.6,1-4,1-6.7h-1v-0.9h3.6l0.1,0l0.7,0.1
		c-0.1,0.9-0.3,2-0.5,2.9h0.6l0.2,0L65.1,55z M61.7,52.8c0,0.7,0,1.4-0.1,2h1.2c0.1-0.7,0.3-1.4,0.4-2H61.7z M62.1,55.7
		c0.2,0.8,0.5,1.6,0.9,2.3c0.4-0.7,0.7-1.5,0.9-2.3H62.1z"/>
	<path d="M75.9,52.3v8.3h-1V60h-6.6v0.8h-1v-8.4H75.9z M74.9,59v-1.5c-0.1,0.1-0.4,0.1-0.6,0.1h-1c-0.8,0-1-0.4-1-1.3v-3h-1.3
		c-0.1,2.7-0.3,4.2-2,5.1c-0.1-0.2-0.4-0.6-0.6-0.8c1.5-0.7,1.6-2,1.7-4.3h-1.7V59H74.9z M74.9,53.3h-1.8v3.1c0,0.3,0,0.5,0.3,0.5
		h0.9c0.2,0,0.5,0,0.6-0.1c0,0.2,0,0.3,0,0.5V53.3z"/>
	<path d="M81,51.7c-0.3,0.8-0.6,1.5-1,2.3v7h-0.9v-5.6c-0.3,0.4-0.5,0.7-0.8,1c-0.1-0.2-0.4-0.8-0.5-1c1-1,1.8-2.5,2.4-4L81,51.7z
		 M87.4,57.5h-2.8v3.6h-1v-3.6h-2.9v-1h2.9v-2.1h-1.5c-0.2,0.6-0.4,1.1-0.7,1.5c-0.2-0.1-0.6-0.4-0.8-0.5c0.6-0.8,1-2.2,1.2-3.5
		l0.9,0.2c-0.1,0.5-0.2,0.9-0.3,1.3h1.2v-2h1v2h2.3v1h-2.3v2.1h2.8V57.5z"/>
	<path d="M95.4,54.3c0.2,3.3,1,5.8,1.9,5.8c0.3,0,0.4-0.6,0.4-1.9c0.2,0.2,0.6,0.5,0.9,0.6c-0.2,1.9-0.5,2.4-1.4,2.4
		c-1.7,0-2.6-3.1-2.8-6.8H89v-1h5.3c0-0.6,0-1.2,0-1.8h1c0,0.6,0,1.2,0,1.8h3v1H95.4z M92.1,59.2c0.7-0.1,1.4-0.3,2.1-0.4l0.1,0.9
		c-1.7,0.4-3.6,0.8-5,1.1l-0.3-1c0.6-0.1,1.3-0.2,2.1-0.4v-2.8h-1.7v-0.9H94v0.9h-1.8V59.2z M96.5,51.5c0.5,0.3,1.2,0.8,1.5,1.2
		l-0.7,0.6c-0.3-0.4-0.9-0.9-1.4-1.3L96.5,51.5z"/>
	<path d="M102.5,54c-0.2,0.4-0.4,0.8-0.6,1.1v5.9H101v-4.7c-0.3,0.3-0.5,0.6-0.8,0.9c-0.1-0.2-0.4-0.7-0.5-0.9
		c0.8-0.7,1.5-1.8,2-2.9l0.8,0.3v-0.2h1c0.1-0.2,0.1-0.5,0.1-0.8h-0.9v-0.7h1c0-0.3,0.1-0.5,0.1-0.8l0.8,0.1c0,0.2-0.1,0.5-0.1,0.7
		h1.6v1.5h0.6v0.8h-4.4V54z M102.4,51.8c-0.5,0.9-1.4,1.8-2.1,2.4c-0.1-0.2-0.3-0.6-0.5-0.7c0.7-0.5,1.4-1.4,1.8-2L102.4,51.8z
		 M105.5,59.9v1.2h-0.9v-1.2h-2.1c0.1-0.4,0.2-1,0.3-1.6h-0.4v-0.7h2.2V57h-1.8v-2.1h3.7V57h-1v0.6h1.3v0.7h-1.3v0.9h1.5v0.7H105.5z
		 M104.6,59.1v-0.9h-1c0,0.3-0.1,0.6-0.1,0.9H104.6z M103.6,56.3h2.2v-0.8h-2.2V56.3z M104.6,52.9c0,0.3-0.1,0.5-0.1,0.8h1.1v-0.8
		H104.6z M109.6,55.7h-0.8v4.2c0,0.5-0.1,0.8-0.4,0.9c-0.3,0.2-0.8,0.2-1.4,0.2c0-0.3-0.1-0.7-0.3-0.9c0.5,0,0.9,0,1,0
		c0.1,0,0.2,0,0.2-0.2v-4.2h-1v-0.9h2.8V55.7z M109.4,52.9H107v-0.9h2.4V52.9z"/>
	<path d="M112.8,56.2c-0.4-0.3-1.2-0.8-1.8-1.1l0.5-0.7c0.6,0.3,1.4,0.7,1.8,1L112.8,56.2z M111.4,60.3c0.4-0.7,1-1.9,1.5-3l0.8,0.6
		c-0.4,1-0.9,2.1-1.4,3L111.4,60.3z M113.4,53.5c-0.4-0.4-1.2-0.9-1.8-1.3l0.6-0.7c0.6,0.3,1.4,0.9,1.9,1.2L113.4,53.5z M117.6,53.6
		c-0.1,0.1-0.1,0.2-0.2,0.3c0.9,1.4,2,2.3,3.4,3c-0.2,0.2-0.5,0.5-0.7,0.8c-0.2-0.1-0.4-0.3-0.6-0.4V61h-1v-0.3h-3.1v0.4h-1v-3.8
		c-0.2,0.1-0.4,0.3-0.7,0.4c-0.1-0.3-0.4-0.6-0.7-0.8c1.5-0.7,2.8-2,3.5-3.6L117.6,53.6z M116.6,51.9c-0.6,1-1.5,2.1-2.2,2.8
		c-0.2-0.2-0.6-0.5-0.8-0.6c0.8-0.6,1.6-1.6,2.1-2.5L116.6,51.9z M119.2,57.1c-0.9-0.6-1.6-1.3-2.3-2.3c-0.6,0.9-1.3,1.7-2.2,2.3
		H119.2z M118.5,59.8V58h-3.1v1.8H118.5z M119.7,54.5c-0.5-0.7-1.4-1.7-2.2-2.5l0.8-0.5c0.7,0.7,1.8,1.7,2.3,2.4L119.7,54.5z"/>
	<path d="M123.1,57.7c0.8-0.3,1.3-0.8,1.3-1.4c0,0-0.1,0-0.1,0c-0.5,0-0.9-0.3-0.9-0.8c0-0.5,0.4-0.8,0.9-0.8c0.7,0,1,0.5,1,1.3
		c0,1.2-0.7,2.1-1.9,2.5L123.1,57.7z"/>
	<path d="M135.4,51.4c0,0.6-0.1,1.2-0.3,1.6c0.7,0.3,1.6,0.8,2.1,1.2l-0.5,0.5h0.3v1.9h-1v-1.2h-6.9v1.2h-0.9v-1.9h0.1
		c-0.1-0.2-0.3-0.5-0.5-0.6c1.8-0.4,2.1-1.2,2.2-2.7h0.9c0,0.7-0.1,1.2-0.3,1.7c0.5,0.3,1.2,0.7,1.6,1l-0.6,0.6
		c-0.3-0.2-0.8-0.6-1.3-0.9c-0.4,0.4-0.9,0.8-1.7,1h4.2c-0.1-0.2-0.3-0.5-0.5-0.7c1.8-0.4,2.1-1.1,2.2-2.6H135.4z M129,53.1
		c-0.2-0.3-0.5-0.7-0.8-1l0.6-0.4c0.3,0.3,0.6,0.7,0.8,1L129,53.1z M132.3,58.6h4.1v2.5h-1v-0.3H130v0.3h-0.9v-2.5h2.4
		c0.1-0.2,0.1-0.3,0.2-0.5h-1.9v-2h5.6v2h-2.9L132.3,58.6z M135.4,59.3H130v0.8h5.4V59.3z M130.7,57.4h3.8v-0.7h-3.8V57.4z
		 M132.6,52.2c-0.3,0.4-0.7,0.8-0.9,1l-0.6-0.2c0.3-0.3,0.5-0.8,0.7-1.1L132.6,52.2z M133.4,53.1c-0.2-0.3-0.5-0.7-0.8-1l0.6-0.4
		c0.3,0.3,0.7,0.7,0.8,1L133.4,53.1z M136.4,54.8c-0.4-0.3-1.1-0.7-1.7-1c-0.4,0.5-1,0.8-1.8,1H136.4z M137.2,52.2
		c-0.3,0.4-0.7,0.8-1,1.1l-0.6-0.3c0.3-0.3,0.6-0.8,0.8-1.1L137.2,52.2z"/>
	<path d="M141.9,56.3c-0.2,1-0.6,2-1,2.8c0.2,0.1,0.4,0.3,0.6,0.4c0.7,0.4,1.7,0.5,2.9,0.5c1.3,0,3-0.1,4.2-0.2
		c-0.1,0.3-0.3,0.7-0.3,1c-0.8,0.1-2.7,0.1-4,0.1c-1.4,0-2.3-0.1-3-0.6c-0.4-0.2-0.8-0.6-1-0.6c-0.2,0-0.6,0.7-0.9,1.3l-0.7-0.9
		c0.4-0.6,0.9-1,1.2-1.2c0.3-0.5,0.6-1.3,0.7-2h-1.4c0.3-0.6,0.6-1.4,0.9-2.2h-1.3v-0.9h2.4c-0.2,0.7-0.6,1.6-0.8,2.3h0.7l0.1,0
		L141.9,56.3z M140.1,53.5c-0.1-0.5-0.4-1.2-0.6-1.7l0.9-0.3c0.2,0.5,0.4,1.2,0.6,1.7L140.1,53.5z M143.1,53.5
		c-0.2,0.4-0.5,0.7-0.8,1c-0.2-0.1-0.6-0.4-0.8-0.5c0.7-0.6,1.2-1.6,1.5-2.5l0.9,0.2c-0.1,0.3-0.2,0.6-0.4,0.9h1v-1.2h1v1.2h2.4v0.8
		h-2.4v1.1h2.8v0.8h-6.7v-0.8h2.9v-1.1H143.1z M146.7,59.4v-0.3h-3.2v0.3h-0.9v-3.2h5.1v3.2H146.7z M146.7,58.3V57h-3.2v1.3H146.7z"
		/>
	<path d="M150.4,56.5h3.8V61h-1v-0.5h-1.9v0.5h-0.9V56.5z M151.3,57.4v2.2h1.9v-2.2H151.3z M157.7,55.5h-5.9v-3.6h5.9V55.5z
		 M156.7,52.8h-3.9v1.7h3.9V52.8z M159.2,56.5V61h-1v-0.5h-2.1v0.5h-0.9v-4.6H159.2z M158.2,59.6v-2.2h-2.1v2.2H158.2z"/>
	<path d="M1.7,74.5v0.8H0.8v-6.9h2.9v6.1H1.7z M1.7,69.3v4.2h1.1v-4.2H1.7z M7.7,72.5c0.6,1.3,1.5,2.5,2.4,3.1
		c-0.2,0.2-0.6,0.5-0.7,0.8c-0.7-0.6-1.4-1.6-2-2.7v3.3h-1v-3.3c-0.7,1.1-1.5,2.1-2.5,2.7c-0.1-0.2-0.4-0.6-0.7-0.8
		c1.1-0.6,2.2-1.9,2.8-3.2H4v-0.9h2.4V70h-2v-0.9h2v-1.6h1v1.6h2.2V70H7.4v1.6H10v0.9H7.7z"/>
	<path d="M15.2,73.1l-0.9,0.8c-0.7-0.8-1.6-1.7-2.3-2.3l0.9-0.7C13.7,71.4,14.6,72.4,15.2,73.1z"/>
	<path d="M19.7,73.2c-0.1-0.3-0.3-0.7-0.5-1.1v5.1h-0.8v-4.5c-0.3,0.9-0.5,1.8-0.9,2.3c-0.1-0.3-0.3-0.7-0.4-1
		c0.5-0.8,1-2.3,1.2-3.6h-1v-0.9h1v-2h0.8v2H20v0.9h-0.8v0.6c0.2,0.3,0.8,1.3,1,1.6L19.7,73.2z M26.2,73.9c-0.3,0.6-0.7,1.2-1.2,1.6
		c0.3,0.3,0.6,0.6,0.9,0.6c0.2,0,0.3-0.4,0.4-1.1c0.1,0.2,0.5,0.4,0.6,0.5c-0.2,1.2-0.6,1.6-1,1.6c-0.7-0.1-1.2-0.4-1.6-1
		c-0.5,0.4-1.1,0.7-1.8,0.9c-0.1-0.2-0.3-0.5-0.5-0.6c0.7-0.3,1.3-0.6,1.9-1c-0.2-0.5-0.4-1.1-0.6-1.8h-1.6c0,0.1,0,0.2,0,0.3
		c0.5,0.4,1.1,0.9,1.4,1.2l-0.6,0.6c-0.2-0.2-0.6-0.6-0.9-0.9c-0.2,0.8-0.6,1.6-1.5,2.3c-0.1-0.2-0.5-0.5-0.7-0.6
		c1.2-0.9,1.5-2,1.5-2.9h-0.7v-0.8h3c-0.2-1.5-0.4-3.3-0.4-5.3h0.8c0.1,2,0.2,3.9,0.5,5.3h1.3c-0.2-0.2-0.5-0.4-0.8-0.6l0.4-0.4
		c-0.5,0.1-0.6,0.1-0.7,0.2c0-0.1-0.2-0.5-0.2-0.7c0.2,0,0.3-0.2,0.5-0.5c0.1-0.1,0.3-0.5,0.6-0.8c-0.7,0.1-0.8,0.1-1,0.2
		c0-0.2-0.2-0.5-0.2-0.7c0.1,0,0.2-0.2,0.4-0.4c0.1-0.2,0.5-0.9,0.7-1.6l0.7,0.2c-0.2,0.6-0.6,1.2-0.9,1.7l0.6-0.1
		c0.1-0.2,0.2-0.5,0.3-0.7l0.7,0.3c-0.4,0.8-1,1.6-1.5,2.3l0.9-0.1c-0.1-0.2-0.1-0.4-0.2-0.5l0.6-0.2c0.2,0.5,0.5,1.1,0.5,1.5
		l-0.6,0.2c0-0.1-0.1-0.3-0.1-0.5c-0.4,0.1-0.7,0.1-0.9,0.1c0.3,0.2,0.8,0.5,1,0.7l-0.3,0.3h0.9v0.8h-2.4c0.1,0.5,0.2,0.9,0.4,1.2
		c0.3-0.4,0.6-0.8,0.8-1.2L26.2,73.9z M22.3,72.3c0-0.1,0-0.3-0.1-0.4c-1.4,0.2-1.6,0.3-1.8,0.3c0-0.1-0.1-0.5-0.2-0.7
		c0.2,0,0.3-0.2,0.5-0.5c0.1-0.1,0.3-0.5,0.6-0.9c-0.7,0.1-0.9,0.1-1,0.2c0-0.2-0.2-0.5-0.2-0.7c0.1,0,0.3-0.2,0.4-0.4
		c0.1-0.2,0.6-1,0.8-1.8l0.7,0.2c-0.3,0.7-0.6,1.3-1,1.8l0.7-0.1c0.1-0.2,0.2-0.5,0.3-0.7l0.7,0.3c-0.5,0.8-1,1.6-1.5,2.3l0.8-0.1
		c-0.1-0.2-0.1-0.4-0.2-0.6l0.6-0.2c0.2,0.5,0.4,1.1,0.5,1.5L22.3,72.3z"/>
	<path d="M32.7,76.1c0,0.4-0.1,0.7-0.4,0.8C32,77,31.5,77,30.9,77c0-0.2-0.2-0.6-0.3-0.8c0.4,0,0.9,0,1,0c0.1,0,0.2,0,0.2-0.2v-1.4
		c-0.6,0.4-1.2,0.8-1.8,1.1l-0.3-0.7c-0.1,0.7-0.3,1.4-0.7,2c-0.1-0.2-0.5-0.5-0.7-0.7c0.6-0.8,0.6-1.9,0.6-2.8v-2.5h3.8V76.1z
		 M32.1,68.2c0.5,0.7,1.1,1.7,1.3,2.3l-0.8,0.4c-0.1-0.2-0.2-0.4-0.3-0.7c-2.8,0.3-3.1,0.3-3.4,0.4c-0.1-0.2-0.2-0.7-0.3-0.9
		c0.2,0,0.3-0.2,0.6-0.4c0.2-0.2,0.9-1,1.3-1.9l1,0.3c-0.4,0.7-0.9,1.3-1.4,1.8l1.9-0.1c-0.2-0.3-0.4-0.7-0.6-0.9L32.1,68.2z
		 M29.8,73.6c0,0.4,0,0.9-0.1,1.3c0.5-0.2,1.3-0.6,2-1v-0.4L31.3,74c-0.3-0.3-1-0.8-1.5-1.1l0.5-0.5c0.5,0.3,1.1,0.7,1.4,1V72h-2
		V73.6z M34.9,72c-1.1,0-1.4-0.4-1.4-1.4v-3.1h1v1.4h2.7v0.8h-2.7v1c0,0.4,0.1,0.5,0.4,0.5h1.8c0.3,0,0.7,0,0.9-0.1
		c0,0.3,0.1,0.6,0.1,0.8c-0.2,0.1-0.6,0.1-1,0.1H34.9z M36.6,76.1c0.4,0,0.5-0.2,0.5-1.2c0.2,0.2,0.6,0.3,0.9,0.4
		c-0.1,1.4-0.4,1.7-1.3,1.7h-1.7c-1.1,0-1.4-0.3-1.4-1.3v-3.4h1v1.2h2.8v0.9h-2.8v1.4c0,0.4,0.1,0.4,0.5,0.4H36.6z"/>
	<path d="M43,73.1l-0.9,0.8c-0.7-0.8-1.6-1.7-2.3-2.3l0.9-0.7C41.5,71.4,42.4,72.4,43,73.1z"/>
	<path d="M48.2,73.4l0.2,0.9c-1,0.5-2.1,0.9-3,1.2l-0.4-1c0.4-0.1,0.8-0.3,1.3-0.4v-3.3h-1.1v-0.9h1.1v-2.3h0.9v2.3h1v0.9h-1v3
		L48.2,73.4z M54.7,73.5h-2.8v3.6h-1v-3.6h-2.8v-0.9h2.8v-3.7h-2.5v-0.9h5.9v0.9h-2.5v3.7h2.8V73.5z M49.5,69.4
		c0.3,0.8,0.5,1.8,0.6,2.5l-0.8,0.2c-0.1-0.7-0.3-1.7-0.6-2.5L49.5,69.4z M52.6,71.9c0.2-0.7,0.5-1.8,0.7-2.6l0.9,0.2
		c-0.3,0.9-0.6,1.9-0.8,2.6L52.6,71.9z"/>
	<path d="M58.2,70.2c-0.4,0.9-1,2-1.6,2.6c-0.1-0.2-0.5-0.5-0.7-0.6c0.5-0.6,1-1.5,1.4-2.3L58.2,70.2z M59.8,76
		c-0.2-0.4-0.6-0.9-1-1.5c-0.6,0.9-1.3,1.7-2.2,2.3c-0.1-0.2-0.5-0.6-0.7-0.7c0.9-0.6,1.7-1.4,2.2-2.3c-0.4-0.5-0.8-0.9-1.2-1.3
		l0.7-0.5c0.3,0.3,0.6,0.6,0.9,0.9c0.2-0.4,0.3-0.8,0.4-1.3l0.9,0.2c-0.2,0.7-0.4,1.3-0.7,1.9c0.5,0.6,1,1.2,1.3,1.7L59.8,76z
		 M61,69.8h-4.8v-0.9h2.2c-0.1-0.4-0.4-0.8-0.7-1.2l0.8-0.3c0.3,0.4,0.6,0.9,0.7,1.2l-0.6,0.3H61V69.8z M65,70.2
		c-0.3,1.7-0.7,3.1-1.3,4.2c0.5,0.8,1.2,1.5,2,1.9c-0.2,0.2-0.5,0.5-0.7,0.8c-0.7-0.5-1.4-1.1-1.9-1.9c-0.6,0.8-1.4,1.4-2.3,1.9
		c-0.1-0.2-0.5-0.6-0.7-0.7c1.1-0.5,1.9-1.2,2.5-2c-0.3-0.7-0.6-1.4-0.9-2.2c-0.2,0.3-0.3,0.6-0.5,0.8c-0.1-0.2-0.4-0.6-0.6-0.8
		c0.1-0.1,0.2-0.2,0.2-0.3l-0.6,0.4c-0.2-0.5-0.7-1.3-1.2-1.9l0.7-0.4c0.5,0.5,1,1.3,1.2,1.8c0.7-1.1,1.1-2.7,1.3-4.3l0.9,0.1
		c-0.1,0.6-0.2,1.2-0.4,1.7h2.7v0.9H65z M62.6,70.2c-0.1,0.2-0.2,0.5-0.2,0.7c0.2,0.9,0.5,1.8,0.8,2.5c0.4-0.9,0.7-2,0.9-3.2H62.6z"
		/>
	<path d="M73.9,74.4c0.8,0.7,1.8,1.4,2.8,1.7c-0.2,0.2-0.5,0.5-0.7,0.8c-0.9-0.4-1.9-1.1-2.7-1.9v2.1h-0.9v-2.7h-1.2v2.7h-0.9v-2
		c-0.7,0.8-1.7,1.4-2.6,1.8c-0.1-0.2-0.4-0.6-0.6-0.7c1-0.4,2-1,2.7-1.8H68v-0.8h2.2v-0.8h-3V72h3v-0.8h-2.1v-0.8h2.1v-0.8h-2.9
		v-0.8h2.3c-0.2-0.3-0.6-0.7-0.9-1l0.9-0.4c0.4,0.4,0.9,0.9,1.2,1.2l-0.4,0.2H73c0.4-0.4,0.8-1,1-1.4l1,0.3
		c-0.3,0.4-0.6,0.8-0.9,1.1h2.1v0.8h-3v0.8h2.2V72h1v0.8h-1v1.6H73.9z M71.2,70.4h1.2v-0.8h-1.2V70.4z M71.2,72h1.2v-0.8h-1.2V72z
		 M72.4,73.6v-0.8h-1.2v0.8H72.4z M73.4,71.2V72h1.2v-0.8H73.4z M74.6,72.8h-1.2v0.8h1.2V72.8z"/>
	<path d="M84.6,74.8c1.1,0.5,2.3,1.1,3.1,1.5L86.9,77c-0.7-0.5-1.9-1.1-3-1.6l0.6-0.6h-3.4l0.8,0.6c-0.8,0.6-2.1,1.3-3.1,1.7
		c-0.2-0.2-0.5-0.5-0.7-0.7c1-0.3,2.3-1,3-1.5h-2.8v-0.9h1.5v-6h6.4v6h1.4v0.9H84.6z M80.7,68.7v0.7h4.5v-0.7H80.7z M85.2,70.2h-4.5
		v0.7h4.5V70.2z M80.7,71.6v0.8h4.5v-0.8H80.7z M80.7,73.9h4.5v-0.8h-4.5V73.9z"/>
	<path d="M98.4,69.1c0,0,0,0.3,0,0.5c-0.1,4.7-0.3,6.4-0.7,6.9c-0.3,0.3-0.5,0.4-0.9,0.5c-0.4,0-1,0-1.6,0c0-0.3-0.1-0.7-0.3-0.9
		c0.7,0.1,1.3,0.1,1.5,0.1c0.2,0,0.3,0,0.4-0.2c0.3-0.3,0.5-1.9,0.6-5.9H95c-0.3,0.7-0.6,1.3-1,1.8c-0.2-0.1-0.5-0.4-0.8-0.5V76
		h-2.8v0.8h-0.9v-7.7h1.2c0.1-0.5,0.3-1.2,0.4-1.7l1.1,0.2c-0.2,0.5-0.4,1.1-0.5,1.5h1.7v2c0.7-0.9,1.2-2.3,1.6-3.7l0.9,0.2
		c-0.1,0.5-0.3,1-0.4,1.4H98.4z M90.4,70v2h2v-2H90.4z M92.4,75.1v-2.3h-2v2.3H92.4z M95.9,74.3c-0.3-0.6-1-1.7-1.5-2.4l0.8-0.4
		c0.6,0.7,1.3,1.7,1.6,2.3L95.9,74.3z"/>
	<path d="M103.4,74.8c-0.2-0.5-0.7-1.6-0.9-2v4.3h-0.9v-4.4c-0.2,1.1-0.7,2.5-1.2,3.2c-0.1-0.3-0.3-0.7-0.4-1c0.4-0.6,0.9-1.6,1-2.5
		l0.6,0.2v-0.7h-1.5v-0.9h1.5v-3.5h0.9v3.5h1.2v0.9h-1.2v0.9l0.5-0.4c0.2,0.3,0.9,1.4,1.1,1.7L103.4,74.8z M100.7,70.5
		c-0.1-0.6-0.3-1.5-0.5-2.2l0.7-0.2c0.2,0.7,0.5,1.6,0.5,2.2L100.7,70.5z M109.7,70.8v0.7h-5.9v-0.7h2.4v-0.6h-2v-0.7h2V69H104v-0.5
		c-0.3,0.7-0.6,1.6-0.9,2.1l-0.6-0.2c0.2-0.6,0.5-1.6,0.7-2.2l0.8,0.3v-0.1h2.3v-0.8h0.9v0.8h2.4V69h-2.4v0.5h2.2v0.7h-2.2v0.6
		H109.7z M109.2,76.1c0,0.4-0.1,0.7-0.4,0.8c-0.3,0.1-0.8,0.1-1.4,0.1c0-0.2-0.2-0.6-0.3-0.8c0.4,0,0.9,0,1,0c0.1,0,0.2,0,0.2-0.2
		v-0.7h-3.1c-0.1,0.6-0.3,1.3-0.8,1.8c-0.1-0.2-0.5-0.5-0.7-0.6c0.6-0.8,0.7-1.8,0.7-2.6v-1.9h4.7V76.1z M108.3,74.8v-0.7h-3
		c0,0.2,0,0.4,0,0.7H108.3z M105.3,72.8v0.6h3v-0.6H105.3z"/>
	<path d="M120.7,70.4v0.7h-1.8l-0.1,0.9h-6l0.1-0.9h-1.7v-0.7h1.8l0.1-0.8h5.9l-0.1,0.8H120.7z M117.5,75.6c1.1,0.3,2.2,0.6,2.9,0.9
		l-0.7,0.6c-0.7-0.3-2-0.7-3.2-1l0.4-0.5h-2.1l0.6,0.4c-0.9,0.5-2.3,0.9-3.5,1c-0.1-0.2-0.4-0.5-0.5-0.7c1-0.1,2.3-0.5,3-0.8h-1.8
		v-3.3h6.7v3.3H117.5z M112.4,70h-0.9v-1.7h3.9c-0.1-0.3-0.3-0.5-0.4-0.7l0.8-0.2c0.2,0.3,0.4,0.7,0.6,1h3.8V70h-0.9v-1h-7V70z
		 M113.6,73.3h4.8v-0.4h-4.8V73.3z M113.6,74.2h4.8v-0.4h-4.8V74.2z M113.6,75.1h4.8v-0.4h-4.8V75.1z M113.7,71.4h1.7
		c0-0.1,0-0.3,0.1-0.5h-1.7L113.7,71.4z M113.9,70l-0.1,0.4h1.7l0-0.4H113.9z M117.9,71.4l0-0.5h-1.7c0,0.2,0,0.3-0.1,0.5H117.9z
		 M118.1,70h-1.7l0,0.4h1.7L118.1,70z"/>
	<path d="M123.5,71h-1v-2.4h4c-0.1-0.3-0.3-0.7-0.4-0.9l1-0.3c0.2,0.4,0.5,0.8,0.6,1.2h3.7v2.2h-1v-1.3h-1.8V71
		c0,0.3,0.1,0.4,0.4,0.4h1.7c0.3,0,0.7,0,0.9-0.1c0,0.3,0.1,0.6,0.1,0.9c-0.2,0.1-0.6,0.1-1,0.1h-1.7c-1,0-1.3-0.3-1.3-1.3v-1.5
		h-1.1c-0.1,1.8-0.7,2.7-3.5,3.1c-0.1-0.2-0.3-0.6-0.5-0.8c2.4-0.3,2.8-0.9,2.9-2.3h-2V71z M127.5,75.9h4v0.9h-9v-0.9h4v-2h-3V73h7
		v0.9h-3V75.9z"/>
	<path d="M134.6,71.5v5.6h-1v-9.2h3.9v3.7H134.6z M134.6,68.6v0.7h2v-0.7H134.6z M136.6,70.8V70h-2v0.8H136.6z M142.3,75.9
		c0,0.6-0.1,0.9-0.5,1c-0.4,0.2-0.9,0.2-1.8,0.2c0-0.3-0.2-0.7-0.3-1h-2.8v0.5H136v-4.4h3.9v3.8c0.5,0,1,0,1.2,0
		c0.2,0,0.2-0.1,0.2-0.2v-4.3h-3v-3.7h4V75.9z M136.9,73v0.8h2.1V73H136.9z M139,75.4v-0.9h-2.1v0.9H139z M139.3,68.6v0.7h2v-0.7
		H139.3z M141.3,70.8V70h-2v0.8H141.3z"/>
	<path d="M145.2,73.7c0.8-0.3,1.3-0.8,1.3-1.4c0,0-0.1,0-0.1,0c-0.5,0-0.9-0.3-0.9-0.8c0-0.5,0.4-0.8,0.9-0.8c0.7,0,1,0.5,1,1.3
		c0,1.2-0.7,2.1-1.9,2.5L145.2,73.7z"/>
	<path d="M151.7,69.4c-0.4,0.5-0.8,0.9-1.3,1.2c-0.1-0.2-0.4-0.6-0.6-0.8c0.9-0.6,1.7-1.6,2.2-2.6l0.9,0.3c-0.2,0.3-0.4,0.7-0.6,1
		h6.7v0.9H151.7z M159.4,73.5v0.9h-9.2v-0.9h1.5v-1.6h-1.2V71h1.2V70h0.9V71h0.9V70h0.8V71h1V70h0.8V71h1V70h0.9V71h1.1v0.9H158v1.6
		H159.4z M150.2,76.7c0.4-0.5,0.8-1.3,1.1-2l0.9,0.2c-0.3,0.7-0.7,1.6-1.1,2.2L150.2,76.7z M152.5,73.5h0.9v-1.6h-0.9V73.5z
		 M154,74.9c0.1,0.6,0.2,1.4,0.3,1.9l-1,0.1c0-0.5-0.1-1.3-0.2-1.9L154,74.9z M154.3,71.9v1.6h1v-1.6H154.3z M156.1,74.9
		c0.3,0.6,0.5,1.4,0.6,1.9l-1,0.2c-0.1-0.5-0.3-1.3-0.6-1.9L156.1,74.9z M156.1,71.9v1.6h1v-1.6H156.1z M158.2,74.6
		c0.4,0.6,0.9,1.5,1.2,2l-1,0.4c-0.2-0.5-0.7-1.4-1.1-2.1L158.2,74.6z"/>
	<path d="M3.7,86H0.5v-0.8h1.6c-0.2-0.4-0.5-1-0.8-1.4l0.8-0.4c0.3,0.4,0.6,1,0.8,1.4l-0.8,0.4h1.6V86z M3.5,92.5H1.6v0.5H0.8v-3.5
		h2.7V92.5z M3.4,87.3H0.8v-0.8h2.6V87.3z M0.8,88h2.6v0.7H0.8V88z M1.6,90.2v1.5h1.1v-1.5H1.6z M7.5,83.9c-0.1,0.1-0.1,0.2-0.2,0.3
		c0.6,0.9,1.8,1.8,2.9,2.2C10,86.6,9.6,87,9.5,87.3c-0.3-0.1-0.6-0.3-1-0.5v0.4H5v-0.5c-0.3,0.3-0.7,0.5-1,0.7
		c-0.1-0.3-0.4-0.7-0.6-0.9c1.3-0.6,2.7-1.9,3.3-3.1L7.5,83.9z M9.4,92.1c0,0.4-0.1,0.6-0.3,0.7C9,93,8.7,93,8.3,93
		c0-0.2-0.1-0.6-0.2-0.8c0.2,0,0.4,0,0.5,0c0.1,0,0.1,0,0.1-0.1v-1.3H7.9v2H7.2v-2H6.4v2H5.7v-2H5v2.3H4.2v-5.2h5.3V92.1z M5.7,90
		v-1.2H5V90H5.7z M8,86.3c-0.5-0.4-0.9-0.9-1.2-1.4c-0.4,0.5-0.8,1-1.3,1.4H8z M7.2,90v-1.2H6.4V90H7.2z M8.7,90v-1.2H7.9V90H8.7z"
		/>
	<path d="M22.6,91.7h-4.2v1.4h-1v-1.4h-4.1v-0.9h4.1v-0.7h-3.1v-3.8h7.3v3.8h-3.2v0.7h4.2V91.7z M17.6,85.9h-3.6v-2.1h3.6V85.9z
		 M16.7,84.5h-1.8v0.8h1.8V84.5z M15.3,87.9h2.1v-0.7h-2.1V87.9z M17.4,89.4v-0.8h-2.1v0.8H17.4z M21.9,85.9h-3.6v-2.1h3.6V85.9z
		 M20.7,87.1h-2.2v0.7h2.2V87.1z M20.7,88.6h-2.2v0.8h2.2V88.6z M21,84.5h-1.8v0.8H21V84.5z"/>
	<path d="M35.3,87.2c-0.5,0.7-1.1,1.4-1.7,2v2.5c0,0.6-0.1,0.9-0.5,1.1C32.6,93,32,93,30.9,93c-0.1-0.3-0.2-0.8-0.3-1
		c0.7,0,1.5,0,1.7,0c0.2,0,0.3-0.1,0.3-0.3v-1.7c-1.7,1.3-3.8,2.3-6,2.9c-0.1-0.2-0.5-0.7-0.7-0.9c2-0.5,3.8-1.2,5.4-2.3
		c-1.8,0.1-3.6,0.3-4.9,0.4l-0.1-0.9c0.4,0,0.8-0.1,1.3-0.1v-4.8h2.2c0.1-0.3,0.3-0.7,0.4-1l1.2,0.2c-0.2,0.3-0.3,0.6-0.5,0.9h2.8
		v3.4c0.3-0.3,0.6-0.7,0.8-1L35.3,87.2z M28.6,85.3v0.8h4v-0.8H28.6z M28.6,87.6h4v-0.8h-4V87.6z M28.6,89.2
		c1.2-0.1,2.6-0.2,3.9-0.3l0.1-0.1v-0.5h-4V89.2z"/>
	<path d="M40,86.7h-1v-2.2h4c-0.1-0.3-0.3-0.5-0.4-0.8l1-0.3c0.2,0.3,0.4,0.7,0.6,1.1h3.7v2.2h-1v-1.3H40V86.7z M46.3,91.9
		c0.6,0,0.7-0.2,0.7-1.4c0.2,0.2,0.7,0.3,1,0.4c-0.1,1.5-0.5,1.9-1.6,1.9h-2.2c-1.4,0-1.7-0.3-1.7-1.5v-1.6h-3.2v-1h3.2v-1.3
		c-0.8,0.1-1.7,0.2-2.4,0.3c0-0.2-0.2-0.6-0.3-0.9c2.1-0.2,4.5-0.6,5.8-1.2l0.8,0.8c-0.8,0.3-1.8,0.5-2.8,0.7v1.5h3.9v1h-3.9v1.6
		c0,0.5,0.1,0.5,0.7,0.5H46.3z"/>
	<path d="M55.1,89.1l-0.9,0.8c-0.7-0.8-1.6-1.7-2.3-2.3l0.9-0.7C53.5,87.4,54.5,88.4,55.1,89.1z"/>
	<path d="M64,85v1.1h3.8V92c0,0.5-0.1,0.7-0.4,0.9C67,93,66.4,93,65.7,93c-0.1-0.3-0.2-0.6-0.3-0.9c0.5,0,1.1,0,1.2,0
		c0.2,0,0.2-0.1,0.2-0.2v-5H64v6H63v-1.8c-0.1,0.1-0.3,0.2-0.4,0.4c-0.4-0.5-0.6-1-0.8-1.6c-0.2,0.7-0.5,1.2-0.9,1.6
		c-0.1-0.1-0.4-0.3-0.5-0.4c0.7-0.7,1-1.6,1.1-2.8h-0.6v-0.7h1.3c0,1.1,0.1,2.3,0.8,3.3v-4h-2.7v6h-0.9v-6.9H63V85h-4v-1h9v1H64z
		 M65.8,87.7c0,1.1,0.1,2.4,0.9,3.4c-0.2,0.1-0.4,0.3-0.6,0.4c-0.4-0.5-0.6-1-0.8-1.6c-0.2,0.6-0.5,1.2-0.9,1.6
		c-0.1-0.1-0.4-0.3-0.5-0.4c0.6-0.6,0.9-1.6,1.1-2.7h-0.6v-0.7H65.8z"/>
	<path d="M76.8,83.5c0,0.4,0,0.9-0.1,1.6c0.1,1.3,0.8,5.5,4.5,7.1c-0.3,0.2-0.6,0.6-0.7,0.8c-2.5-1.2-3.6-3.5-4.2-5.4
		c-0.5,2-1.6,4.1-4,5.4c-0.2-0.3-0.5-0.6-0.8-0.8c4.3-2.2,4.2-7.1,4.2-8.8H76.8z"/>
	<path d="M90.3,88.6v1.1h2.5V93h-1v-0.3h-4v0.3h-0.9v-3.4h2.4v-1.1h-3.2c-0.1,1.5-0.4,3.3-1.2,4.5c-0.2-0.2-0.6-0.4-0.9-0.5
		c1.1-1.6,1.2-3.9,1.2-5.6v-3H93v2.7h-2.7v1h3.2v0.9H90.3z M89.3,87.7v-1h-3.1V87c0,0.2,0,0.5,0,0.7H89.3z M86.2,84.8v1H92v-1H86.2z
		 M91.9,90.5h-4v1.4h4V90.5z"/>
	<path d="M100.7,89.1l-0.9,0.8c-0.7-0.8-1.6-1.7-2.3-2.3l0.9-0.7C99.1,87.4,100.1,88.4,100.7,89.1z"/>
	<path d="M113.8,87.9v0.7h-9.3v-0.7h4.1v-0.5h-3.1v-0.6h3.1v-0.5h-3.5v-0.7h3.5v-0.4h1v0.4h3.6v0.7h-3.6v0.5h3.3v0.6h-3.3v0.5H113.8
		z M106.6,84.8h-2V84h2v-0.6h1V84h1.4v0.8h-1.4v0.6h-1V84.8z M112.6,92.2c0,0.5-0.1,0.7-0.4,0.8c-0.3,0.1-0.9,0.1-1.6,0.1
		c-0.1-0.2-0.2-0.5-0.3-0.7c0.5,0,1.1,0,1.2,0c0.2,0,0.2,0,0.2-0.2v-0.4h-5c-0.1,0.5-0.4,1-1,1.4c-0.1-0.2-0.5-0.6-0.7-0.7
		c0.8-0.6,0.9-1.3,0.9-2V89h6.8V92.2z M111.6,91.2v-0.5h-4.8c0,0.2,0,0.3,0,0.5H111.6z M106.7,89.7v0.4h4.8v-0.4H106.7z M110.8,84.8
		h-1.5V84h1.5v-0.6h1V84h2v0.8h-2v0.6h-1V84.8z"/>
	<path d="M122.1,90.1c-0.4,1.2-1.6,2.3-4.5,3c-0.1-0.2-0.4-0.6-0.6-0.8c2.5-0.5,3.6-1.3,4-2.2h-3.9v-0.9h1.1v-2.5h3v-1h1v1h3.2v2.5
		h1v0.9H122.1z M119.2,85.3h-1.9v-0.8h1.9v-1h1v1h1.4v0.8h-1.4v1h-1V85.3z M121.3,89.2c0-0.2,0-0.3,0-0.5v-1.1h-2.1v1.7H121.3z
		 M122.5,90.2c1.4,0.5,3.2,1.4,4.1,2l-0.5,0.8c-0.9-0.6-2.7-1.6-4.1-2.1L122.5,90.2z M123.6,85.2h-1.5v-0.8h1.5v-1h1v1h1.8v0.8h-1.8
		v1h-1V85.2z M122.3,87.5v1.2c0,0.2,0,0.3,0,0.5h2.3v-1.7H122.3z"/>
	<path d="M138.3,87.8c-0.5,0.4-1,0.7-1.5,1.1c0.5,1.3,1.4,2.4,2.6,2.9c-0.2,0.2-0.5,0.5-0.6,0.8c-1.3-0.6-2.2-1.8-2.8-3.2
		c-0.1,0.1-0.3,0.2-0.4,0.3c0.3,1.3,0.1,2.6-0.5,3c-0.3,0.3-0.6,0.4-1.1,0.4c-0.2,0-0.6,0-0.9,0c0-0.3-0.1-0.6-0.3-0.9
		c0.4,0,0.7,0.1,0.9,0.1c0.3,0,0.5,0,0.6-0.2c0.3-0.2,0.4-0.8,0.4-1.5c-1.2,0.9-2.9,1.7-4.4,2.1c-0.1-0.2-0.3-0.6-0.5-0.8
		c1.7-0.4,3.7-1.3,4.7-2.2c-0.1-0.2-0.1-0.4-0.2-0.6c-1,0.7-2.6,1.4-3.8,1.8c-0.1-0.2-0.3-0.6-0.5-0.8c1.3-0.3,3-1,3.9-1.6
		c-0.1-0.2-0.3-0.3-0.4-0.5c-0.9,0.5-2,0.9-3,1.2c-0.1-0.2-0.3-0.6-0.5-0.8c1.2-0.3,2.6-0.7,3.6-1.3h-2.1V86h5.9v0.8H135
		c-0.2,0.2-0.4,0.3-0.7,0.5c0.5,0.4,0.8,0.9,1,1.5c0.8-0.5,1.6-1.2,2.1-1.7L138.3,87.8z M131.1,86.6h-0.9v-2.2h3.8
		c-0.1-0.2-0.2-0.5-0.3-0.7l1-0.3c0.2,0.3,0.4,0.7,0.5,1h3.8v2.2h-1v-1.4h-6.9V86.6z"/>
	<path d="M144.2,87.4c0,1.6-0.1,4.1-0.9,5.7c-0.2-0.2-0.6-0.4-0.8-0.5c0.7-1.5,0.8-3.6,0.8-5.1v-3h4.2c-0.1-0.3-0.3-0.6-0.4-0.8
		l0.9-0.2c0.2,0.3,0.4,0.7,0.5,1h3.5v0.9h-7.8V87.4z M147.3,88.3c-0.2,1.3-0.5,2.3-1,3.1c0.7,0.6,1.7,0.7,2.9,0.7c0.4,0,2.4,0,3,0
		c-0.1,0.2-0.3,0.6-0.3,0.9h-2.7c-1.4,0-2.5-0.2-3.3-0.9c-0.4,0.4-0.8,0.8-1.2,1c-0.1-0.2-0.4-0.5-0.6-0.6c0.5-0.3,0.9-0.6,1.3-1
		c-0.3-0.4-0.6-1-0.8-1.7l0.7-0.2c0.1,0.5,0.3,0.9,0.5,1.2c0.3-0.5,0.5-1.1,0.6-1.8h-1.2v0h-0.6c0.4-0.6,0.8-1.4,1.2-2.2h-1.3v-0.8
		h2.6c-0.4,0.7-0.8,1.5-1.2,2.2h0.7l0.2,0L147.3,88.3z M149.2,90.3v-1.5h-1.4V88h1.4v-1.1c-0.5,0.1-1,0.1-1.5,0.2
		c0-0.2-0.1-0.5-0.3-0.7c1.2-0.1,2.7-0.4,3.6-0.7l0.5,0.7c-0.4,0.1-0.9,0.3-1.4,0.4V88h1.4v0.8h-1.4v1.5h1.8v0.8h-4.5v-0.8H149.2z"
		/>
	<path d="M159,89.1l-0.9,0.8c-0.7-0.8-1.6-1.7-2.3-2.3l0.9-0.7C157.4,87.4,158.4,88.4,159,89.1z"/>
	<path d="M0.5,107.2l0.7-0.8c0.6,0.6,1.3,0.9,2.1,0.9c0.9,0,1.5-0.4,1.5-1.1c0-0.7-0.5-0.9-1.2-1.2l-1.1-0.5c-0.7-0.3-1.6-0.9-1.6-2
		c0-1.2,1.1-2.1,2.5-2.1c0.9,0,1.8,0.4,2.3,1l-0.6,0.8c-0.5-0.4-1-0.7-1.7-0.7c-0.8,0-1.3,0.4-1.3,1c0,0.7,0.6,0.9,1.2,1.2l1.1,0.5
		c0.9,0.4,1.6,1,1.6,2.1c0,1.2-1,2.2-2.7,2.2C2.2,108.4,1.2,108,0.5,107.2z"/>
	<path d="M7,104.3c0-2.5,1.4-4,3.4-4s3.4,1.5,3.4,4s-1.4,4-3.4,4S7,106.8,7,104.3z M12.5,104.3c0-1.8-0.8-2.9-2.1-2.9
		c-1.3,0-2.1,1.1-2.1,2.9s0.8,3,2.1,3C11.6,107.3,12.5,106.2,12.5,104.3z"/>
	<path d="M15.3,100.5h1.2v3.1h3.3v-3.1h1.2v7.7h-1.2v-3.5h-3.3v3.5h-1.2V100.5z"/>
	<path d="M22.7,104.3c0-2.5,1.4-4,3.4-4c2,0,3.4,1.5,3.4,4s-1.4,4-3.4,4C24,108.4,22.7,106.8,22.7,104.3z M28.1,104.3
		c0-1.8-0.8-2.9-2.1-2.9c-1.3,0-2.1,1.1-2.1,2.9s0.8,3,2.1,3C27.3,107.3,28.1,106.2,28.1,104.3z"/>
	<path d="M36.1,105.8c0,0.1,0,0.3-0.1,0.4H40v2.7h-0.9v-0.4h-2.3v0.4H36v-2.6c-0.1,0.8-0.4,1.6-0.8,2.3c-0.2-0.1-0.6-0.3-0.8-0.4
		c0.8-1.3,0.9-3.1,0.9-4.3v-1.3h4.4v3.2H36.1z M38.3,99.8c-0.1,0.1-0.1,0.2-0.2,0.3c0.8,0.5,1.7,1,2.2,1.4l-0.5,0.8
		c-0.5-0.4-1.4-1-2.3-1.5c-0.3,0.3-0.6,0.6-0.9,0.8h2v0.6h-2.2v-0.5c-0.5,0.4-1.1,0.8-1.6,1.1c-0.1-0.2-0.4-0.7-0.5-0.9
		c1.2-0.5,2.4-1.4,3-2.4L38.3,99.8z M38.8,105.1v-0.6h-2.6c0,0.2,0,0.4,0,0.6H38.8z M36.2,103.4v0.6h2.6v-0.6H36.2z M36.8,106.9v0.9
		h2.3v-0.9H36.8z M41.7,106.3h-0.9v-5.8h0.9V106.3z M43.6,99.5v8.4c0,0.6-0.1,0.8-0.5,1c-0.3,0.2-0.9,0.2-1.7,0.2
		c0-0.3-0.2-0.7-0.3-1c0.6,0,1.1,0,1.3,0c0.2,0,0.2-0.1,0.2-0.2v-8.4H43.6z"/>
	<path d="M48.9,107.4c-0.7,0.6-2,1.1-3.1,1.4c-0.1-0.2-0.4-0.5-0.6-0.7c1.1-0.2,2.3-0.5,3-1L48.9,107.4z M54.3,105.8v0.8h-4.1v2.4
		h-1v-2.4h-4.1v-0.8h4.1v-0.6h-3.1v-0.7h3.1v-0.6h-3.6v-0.8h2.1c-0.1-0.3-0.3-0.6-0.5-0.9l0.6-0.1h-2.7v-0.8h1.6
		c-0.2-0.4-0.5-1-0.8-1.4l0.9-0.3c0.3,0.5,0.7,1.1,0.8,1.5l-0.6,0.2h1.2v-1.8h0.9v1.8h1v-1.8h0.9v1.8h1.1l-0.4-0.1
		c0.3-0.4,0.6-1.1,0.7-1.6l1,0.3c-0.3,0.5-0.6,1-0.9,1.4h1.5v0.8h-2.8l0.8,0.2c-0.2,0.3-0.5,0.6-0.7,0.8h2.2v0.8h-3.7v0.6h3.2v0.7
		h-3.2v0.6H54.3z M48.2,102c0.2,0.3,0.4,0.7,0.5,0.9l-0.5,0.1h2.9l-0.4-0.1c0.2-0.3,0.4-0.7,0.6-0.9H48.2z M51.4,107
		c0.9,0.3,2.2,0.8,2.9,1.2l-0.7,0.6c-0.7-0.3-1.9-0.9-2.9-1.2L51.4,107z"/>
	<path d="M59.2,105.1l-0.9,0.8c-0.7-0.8-1.6-1.7-2.3-2.3l0.9-0.7C57.7,103.4,58.6,104.4,59.2,105.1z"/>
	<path d="M70.1,101v0.9h-5.6c-0.4,0.7-0.8,1.5-1.2,2.1v5h-1v-3.9c-0.3,0.3-0.7,0.6-1.1,0.9c-0.1-0.3-0.3-0.7-0.5-0.9
		c1.2-0.8,2-2,2.7-3.2h-2.4V101h2.8c0.2-0.5,0.4-1,0.5-1.5l1,0.3c-0.1,0.4-0.3,0.9-0.5,1.3H70.1z M67.4,107.9h2.6v0.9h-6.3v-0.9h2.6
		v-2.7h-2.2v-0.9h2.2v-1.9h1v1.9h2.2v0.9h-2.2V107.9z"/>
	<path d="M72.6,102.7h-1v-2.2h4c-0.1-0.3-0.3-0.5-0.4-0.8l1-0.3c0.2,0.3,0.4,0.7,0.6,1.1h3.7v2.2h-1v-1.3h-6.8V102.7z M78.9,107.9
		c0.6,0,0.7-0.2,0.7-1.4c0.2,0.2,0.7,0.3,1,0.4c-0.1,1.5-0.5,1.9-1.6,1.9h-2.2c-1.4,0-1.7-0.3-1.7-1.5v-1.6h-3.2v-1H75v-1.3
		c-0.8,0.1-1.7,0.2-2.4,0.3c0-0.2-0.2-0.6-0.3-0.9c2.1-0.2,4.5-0.6,5.8-1.2l0.8,0.8c-0.8,0.3-1.8,0.5-2.8,0.7v1.5H80v1h-3.9v1.6
		c0,0.5,0.1,0.5,0.7,0.5H78.9z"/>
	<path d="M83.7,106.3c-0.1,1-0.4,2.1-1.3,2.8c-0.1-0.2-0.4-0.5-0.6-0.6c0.8-0.5,1-1.4,1-2.2h-1v-0.8h1v-1.1h-1.1v-0.8h1.6
		c0.2-0.5,0.3-1.4,0.4-1.9l0.8,0.2c-0.2,0.6-0.3,1.2-0.5,1.8h0.8v0.8h-1.1v1.1h1v0.8H83.7z M84.8,101.6h-3v-0.8h1.1
		c-0.1-0.3-0.3-0.7-0.4-1l0.8-0.2c0.2,0.4,0.4,0.9,0.6,1.2h1V101.6z M82.3,103.5c0-0.4-0.1-1.1-0.3-1.7l0.7-0.2
		c0.2,0.5,0.3,1.2,0.3,1.6L82.3,103.5z M87.7,102.2c-0.1,4.5-0.1,5.9-0.4,6.3c-0.2,0.3-0.3,0.4-0.6,0.4c-0.2,0-0.5,0-0.8,0
		c0-0.2-0.1-0.6-0.2-0.8c0.3,0,0.5,0,0.7,0c0.1,0,0.2,0,0.3-0.2c0.2-0.3,0.2-1.6,0.3-5.4h-0.6c-0.1,2.7-0.4,4.9-1.5,6.5
		c-0.1-0.1-0.5-0.4-0.6-0.6c1-1.4,1.3-3.4,1.4-5.9H85v-0.8h0.6c0-0.7,0-1.5,0-2.3h0.8c0,0.8,0,1.6,0,2.3h1.4V102.2z M90.2,104.4v1.2
		h1v0.8h-1v2.6h-0.9v-2.6h-1v-0.8h1v-1.2h-1.2v-0.8h1.7c0.2-0.6,0.4-1.4,0.4-2l0.7,0.2c-0.1,0.6-0.3,1.3-0.5,1.8h0.8v0.8H90.2z
		 M91.2,101.6h-3.1v-0.8h1.1c-0.1-0.3-0.3-0.7-0.5-1l0.8-0.2c0.2,0.4,0.4,0.9,0.6,1.3h1V101.6z M88.7,103.6c0-0.5-0.1-1.2-0.3-1.7
		l0.7-0.2c0.2,0.5,0.3,1.2,0.3,1.7L88.7,103.6z"/>
	<path d="M96.1,100.1c-0.7,1.7-1.9,3.4-3.1,4.5c-0.2-0.2-0.6-0.6-0.9-0.8c1.1-0.9,2.2-2.5,2.9-4L96.1,100.1z M99,105
		c0.8,1.1,1.8,2.6,2.3,3.5l-1,0.5c-0.1-0.3-0.3-0.6-0.6-1c-5.3,0.4-5.9,0.4-6.4,0.6c0-0.2-0.2-0.8-0.4-1c0.3-0.1,0.6-0.4,1-0.9
		c0.4-0.5,1.8-2.3,2.6-4l1.1,0.5c-0.9,1.5-1.9,3.1-3,4.3l4.4-0.3c-0.4-0.6-0.8-1.2-1.2-1.7L99,105z M99.2,99.7
		c0.5,1.6,1.5,3.1,2.7,3.9c-0.2,0.2-0.6,0.7-0.8,1c-1.2-0.9-2.2-2.4-2.7-3.9h-1.8v-1H99.2z"/>
	<path d="M103.7,105.7c0.8-0.3,1.3-0.8,1.3-1.4c0,0-0.1,0-0.1,0c-0.5,0-0.9-0.3-0.9-0.8c0-0.5,0.4-0.8,0.9-0.8c0.7,0,1,0.5,1,1.3
		c0,1.2-0.7,2.1-1.9,2.5L103.7,105.7z"/>
	<path d="M112.7,102.4c0,0.3,0,0.7,0,0.9c-3,0.6-3.4,0.7-3.7,0.9c-0.1-0.2-0.3-0.6-0.4-0.8c0.2-0.1,0.6-0.4,0.6-0.8v-3h1v1.1h2.4
		v0.9h-2.4v1.4L112.7,102.4z M113.1,103.7c-0.1,0.3-0.3,0.6-0.4,0.8h3.6v4.5h-1v-0.4h-4.8v0.4h-1v-4.5h2.2c0.1-0.3,0.3-0.8,0.4-1
		L113.1,103.7z M115.3,105.4h-4.8v0.9h4.8V105.4z M115.3,107.9V107h-4.8v0.9H115.3z M116.1,103c0.4,0,0.4-0.1,0.5-1
		c0.2,0.2,0.6,0.3,0.9,0.4c-0.1,1.2-0.4,1.5-1.3,1.5h-1.7c-1.1,0-1.4-0.3-1.4-1.3v-3.2h1v1.1h3v0.9h-3v1.2c0,0.3,0.1,0.4,0.5,0.4
		H116.1z"/>
	<path d="M123.5,104.4c-0.2,0.9-0.5,2-0.8,2.8c0.2,0.1,0.4,0.3,0.7,0.5c0.6,0.4,1.2,0.5,2.1,0.5c0.7,0,1.8-0.1,2.6-0.2
		c-0.1,0.3-0.2,0.7-0.2,0.9c-0.5,0-1.7,0.1-2.4,0.1c-1,0-1.7-0.2-2.3-0.6c-0.4-0.3-0.7-0.6-0.9-0.6c-0.3,0-0.6,0.6-0.9,1.3l-0.6-0.8
		c0.4-0.5,0.8-0.9,1.1-1.1c0.3-0.6,0.5-1.4,0.7-2.1h-1v0.1c0,0.6-0.1,1-0.4,1.2c-0.1,0.1-0.3,0.2-0.5,0.2c-0.2,0-0.4,0-0.7,0
		c0-0.2-0.1-0.5-0.2-0.7c0.2,0,0.4,0,0.5,0c0.1,0,0.2,0,0.3-0.1c0.1-0.1,0.2-0.4,0.2-0.7c0-0.6-0.2-1.3-0.8-2.1
		c0.2-0.7,0.5-1.5,0.7-2.2h-1.1v8.3h-0.8v-9.2h2.3l0.1,0l0.6,0.3c-0.3,0.9-0.6,1.9-1,2.8c0.6,0.8,0.8,1.5,0.9,2.1
		c0.2-0.6,0.5-1.5,0.7-2.2h-0.9v-0.8h1.8c0.3-0.3,0.6-0.7,0.9-1.1h-0.9v-0.7h1.2c0.1-0.2,0.2-0.5,0.2-0.7l0.8,0.2
		c-0.1,0.2-0.1,0.4-0.2,0.6h2.7v0.7h-3c-0.1,0.2-0.2,0.4-0.3,0.6h3v0.6h-1.2v0.6h1.4v0.6H124v-0.6h1.6V102h-0.9v-0.6
		c-0.3,0.6-0.8,1.1-1.3,1.5c-0.1-0.1-0.2-0.2-0.3-0.4c-0.2,0.6-0.4,1.3-0.6,1.8h0.4l0.1,0L123.5,104.4z M122.2,101.4
		c-0.1-0.5-0.3-1.2-0.5-1.7l0.8-0.2c0.2,0.5,0.4,1.2,0.5,1.7L122.2,101.4z M127.6,106.8c0,0.4-0.1,0.5-0.3,0.7
		c-0.3,0.1-0.7,0.1-1.2,0.1c0-0.2-0.1-0.5-0.2-0.6c0.4,0,0.7,0,0.8,0c0.1,0,0.1,0,0.1-0.1v-0.7c-0.6,0.1-1.3,0.3-1.8,0.4l-0.3-0.7
		c0,0.6-0.1,1.2-0.4,1.7c-0.2-0.1-0.5-0.4-0.7-0.5c0.3-0.6,0.3-1.4,0.3-2v-1.5h3.7V106.8z M126.8,105.5v-1.4h-2v0.9
		c0,0.2,0,0.5,0,0.7c0.4-0.1,1-0.1,1.5-0.2c-0.3-0.2-0.8-0.6-1.3-0.8l0.4-0.5c0.5,0.2,1,0.5,1.3,0.7l-0.4,0.6L126.8,105.5z"/>
	<path d="M130.8,103.3c-0.2,1.3-0.5,3.1-0.9,4.2l-1-0.4c0.4-1.1,0.7-2.7,0.9-4L130.8,103.3z M132.6,102.4v5c0,0.5,0.1,0.6,0.7,0.6
		h1.8c0.6,0,0.7-0.3,0.8-2.1c0.2,0.2,0.7,0.4,0.9,0.4c-0.1,2-0.4,2.6-1.6,2.6h-1.9c-1.2,0-1.6-0.3-1.6-1.5v-5H132.6z M132.7,99.7
		c1,0.6,2.2,1.6,2.9,2.2l-0.7,0.7c-0.6-0.7-1.8-1.7-2.8-2.3L132.7,99.7z M137.3,102.8c0.6,1.2,1.2,2.8,1.4,3.9l-1,0.4
		c-0.2-1.1-0.7-2.7-1.3-4L137.3,102.8z"/>
	<path d="M141,105.3c-0.1,1.3-0.3,2.8-0.9,3.8c-0.2-0.2-0.6-0.5-0.8-0.6c0.7-1.2,0.7-3,0.7-4.4v-3.7c1.2-0.2,2.7-0.4,3.5-0.8
		l0.6,0.8c-0.9,0.3-2.1,0.6-3.2,0.7v0.9h2.8v3.3H141z M141,102.9v1.2v0.3h1.8v-1.5H141z M149.1,103.9h-1.1v5.1h-1v-5.1h-1.4
		c0,1.6-0.2,3.9-1.7,5.2c-0.2-0.2-0.6-0.5-0.8-0.7c1.3-1.3,1.4-3.2,1.4-4.6v-3.4c1.3-0.2,2.8-0.5,3.6-0.9l0.7,0.8
		c-0.9,0.3-2.2,0.6-3.3,0.8v1.8h3.5V103.9z"/>
	<path d="M154.3,108.4h-2.6v0.6h-0.9v-3.7c-0.1,0.1-0.2,0.2-0.4,0.3c-0.1-0.2-0.4-0.5-0.7-0.7c1-0.7,2-2,2.4-3.4l0.8,0.3
		c0,0.1-0.1,0.2-0.1,0.4c0.8,0.8,1.7,1.9,2.2,2.5l-0.7,0.7l-0.1-0.2V108.4z M152.3,99.9c-0.4,0.9-1.1,1.9-1.7,2.5
		c-0.1-0.2-0.5-0.5-0.7-0.6c0.6-0.5,1.2-1.4,1.5-2.2L152.3,99.9z M154.1,104.8c-0.4-0.6-1-1.3-1.6-1.9c-0.4,0.7-0.8,1.3-1.3,1.9
		H154.1z M153.4,105.6h-1.7v1.8h1.7V105.6z M154.3,101.9c-0.3-0.5-0.9-1.3-1.5-1.9l0.7-0.4c0.5,0.6,1.2,1.3,1.5,1.8L154.3,101.9z
		 M156.1,102.1c-0.2,0.7-0.5,1.3-0.9,1.8c-0.2-0.2-0.6-0.4-0.8-0.5c0.7-0.9,1.1-2.4,1.4-4l1,0.2c-0.1,0.6-0.2,1.1-0.3,1.6h2.5l0.1,0
		l0.7,0.2c-0.2,0.9-0.4,2-0.6,2.7l-0.8-0.2c0.1-0.5,0.2-1.1,0.3-1.8H156.1z M157.6,102.4c0,0.5-0.1,1-0.1,1.5
		c0.4,2.1,0.9,3.3,2.2,4.4c-0.2,0.2-0.5,0.5-0.7,0.8c-0.9-0.9-1.5-1.8-1.9-3.1c-0.4,1.3-1,2.4-2,3.1c-0.1-0.2-0.5-0.6-0.7-0.7
		c1.6-1.1,2.1-3.2,2.3-6L157.6,102.4z"/>
	<path d="M4.2,121.1l-0.9,0.8c-0.7-0.8-1.6-1.7-2.3-2.3l0.9-0.7C2.7,119.4,3.6,120.4,4.2,121.1z"/>
	<path d="M14.2,116.8v8.2h-1v-0.5H7.9v0.6h-1v-8.3h2.6c0.1-0.5,0.3-1,0.3-1.4l1.2,0.1c-0.2,0.4-0.3,0.9-0.5,1.3H14.2z M7.9,117.8
		v1.3h5.3v-1.3H7.9z M7.9,120v1.3h5.3V120H7.9z M13.2,123.6v-1.4H7.9v1.4H13.2z"/>
	<path d="M25.1,117.4v7.6h-1v-0.6h-6.2v0.6h-1v-7.6h3.5v-2h1v2H25.1z M17.9,118.4v2h2.6v-2H17.9z M17.9,123.5h2.6v-2.1h-2.6V123.5z
		 M21.5,118.4v2h2.6v-2H21.5z M24.1,123.5v-2.1h-2.6v2.1H24.1z"/>
	<path d="M28.5,117.4c-0.4,0.5-0.8,0.9-1.3,1.2c-0.1-0.2-0.4-0.6-0.6-0.8c0.9-0.6,1.7-1.6,2.2-2.6l0.9,0.3c-0.2,0.3-0.4,0.7-0.6,1
		h6.7v0.9H28.5z M36.1,121.5v0.9h-9.2v-0.9h1.5v-1.6h-1.2V119h1.2V118h0.9v1.1h0.9V118H31v1.1h1V118h0.8v1.1h1V118h0.9v1.1h1.1v0.9
		h-1.1v1.6H36.1z M26.9,124.7c0.4-0.5,0.8-1.3,1.1-2l0.9,0.2c-0.3,0.7-0.7,1.6-1.1,2.2L26.9,124.7z M29.3,121.5h0.9v-1.6h-0.9V121.5
		z M30.7,122.9c0.1,0.6,0.2,1.4,0.3,1.9l-1,0.1c0-0.5-0.1-1.3-0.2-1.9L30.7,122.9z M31,119.9v1.6h1v-1.6H31z M32.8,122.9
		c0.3,0.6,0.5,1.4,0.6,1.9l-1,0.2c-0.1-0.5-0.3-1.3-0.6-1.9L32.8,122.9z M32.9,119.9v1.6h1v-1.6H32.9z M35,122.6
		c0.4,0.6,0.9,1.5,1.2,2l-1,0.4c-0.2-0.5-0.7-1.4-1.1-2.1L35,122.6z"/>
	<path d="M40.5,120.8l-1.2,0.4v2.7c0,0.5-0.1,0.8-0.4,0.9c-0.3,0.2-0.7,0.2-1.4,0.2c0-0.2-0.2-0.7-0.3-0.9c0.4,0,0.8,0,0.9,0
		c0.1,0,0.2,0,0.2-0.2v-2.4c-0.4,0.1-0.8,0.2-1.1,0.3l-0.2-0.9c0.4-0.1,0.8-0.2,1.3-0.4v-2.2h-1.2v-0.9h1.2v-2h0.9v2h1.1v0.9h-1.1
		v1.9l1-0.3L40.5,120.8z M46.5,117.1v0.5c-0.1,4.7-0.3,6.4-0.7,6.9c-0.2,0.3-0.5,0.4-0.9,0.5c-0.3,0.1-0.9,0-1.5,0
		c0-0.3-0.1-0.7-0.3-1c0.6,0.1,1.1,0.1,1.4,0.1c0.2,0,0.3,0,0.4-0.2c0.3-0.3,0.4-1.9,0.5-5.9h-3.6c-0.2,0.4-0.4,0.8-0.7,1.1h3.1v3.5
		H42v0.7h-0.9v-4c-0.1,0.1-0.2,0.3-0.3,0.4c-0.2-0.2-0.6-0.5-0.8-0.6c0.8-0.9,1.5-2.3,1.9-3.7l0.9,0.2c-0.1,0.5-0.3,1-0.5,1.5h3.5v0
		H46.5z M42,120v1.8h1.4V120H42z"/>
	<path d="M49.9,118.6c0.9,0,1.6,0.7,1.6,1.6c0,0.9-0.7,1.6-1.6,1.6c-0.9,0-1.6-0.7-1.6-1.6C48.3,119.4,49,118.6,49.9,118.6z
		 M49.9,121.3c0.6,0,1-0.5,1-1s-0.5-1-1-1c-0.5,0-1,0.5-1,1S49.4,121.3,49.9,121.3z"/>
</g>
<g>
	<path d="M12.3,10.9v1.4H0.8v-1.4h4.9V9.7H1.9V8.4h3.8v-1h1.6v1h4v1.3h-4v1.1H12.3z M2.3,4H0.8V1.5h5C5.7,1.2,5.6,0.9,5.5,0.7L7,0.2
		c0.2,0.4,0.4,0.8,0.6,1.2h4.6V4h-1.4v1H9.3c0.8,0.6,1.7,1.4,2.2,2l-1.2,0.8C10,7.6,9.8,7.3,9.5,7C3.7,7.5,3,7.6,2.5,7.8
		c-0.1-0.3-0.3-1-0.4-1.3C2.3,6.4,2.6,6.2,3,6c0.2-0.1,0.7-0.5,1.2-1H2.3V4z M2.3,2.9v0.8h8.3V2.9H2.3z M8.4,6
		C8.2,5.8,8,5.6,7.8,5.4L8.4,5H6.1c-0.5,0.4-1,0.9-1.5,1.2L8.4,6z"/>
	<path d="M24.8,10.8c0,0.8-0.2,1.3-0.7,1.5c-0.5,0.2-1.4,0.3-2.5,0.3c-0.1-0.4-0.3-1.1-0.5-1.6c0.7,0,1.6,0,1.8,0
		c0.2,0,0.3-0.1,0.3-0.3V8.4c-0.3,0.3-0.7,0.8-0.9,1.1c-1.4-0.8-2.2-2-2.8-3.5c-0.6,1.6-1.5,2.8-3,3.6c-0.1-0.2-0.4-0.6-0.7-0.9v3.9
		h-1.6V3.3h4.6c0-0.3-0.1-0.7-0.1-1h-2.2V1h3.5c0,0.8,0.1,1.6,0.2,2.4h4.4V10.8z M15.9,8.2c1.3-0.7,2.1-1.9,2.5-3.4h-2.5V8.2z
		 M20.7,4.8c0.5,1.4,1.2,2.6,2.5,3.2V4.8H20.7z"/>
	<path d="M32.1,3.2c-0.2,2.2-0.9,3.3-4.6,3.8c-0.1-0.4-0.4-1-0.7-1.3c3.2-0.3,3.6-1,3.8-2.5h-2.2V5h-1.5V1.8h4.8
		c-0.1-0.4-0.3-0.7-0.4-1l1.6-0.5c0.2,0.5,0.5,1,0.7,1.5h4.6v2.9h-1.6V3.2h-1.8v1.6c0,0.4,0.1,0.5,0.5,0.5h1.9c0.4,0,0.9,0,1.2-0.1
		c0,0.4,0.1,1,0.1,1.4c-0.3,0.1-0.8,0.1-1.3,0.1h-2c-1.5,0-2-0.5-2-1.9V3.2H32.1z M33.4,10.8h4.8v1.5H26.8v-1.5h4.9V8.7h-3.5V7.3H37
		v1.4h-3.6V10.8z"/>
	<path d="M41.6,5.6v7h-1.5V0.9h5v4.7H41.6z M41.6,2v0.7h2V2H41.6z M43.6,4.5V3.8h-2v0.7H43.6z M51,10.7c0,0.8-0.2,1.3-0.7,1.5
		c-0.5,0.3-1.3,0.3-2.4,0.3c0-0.3-0.2-0.8-0.3-1.2h-3.2V12H43V6.4h5V11c0.5,0,1,0,1.2,0c0.2,0,0.3-0.1,0.3-0.3V5.6h-3.5V0.9H51V10.7
		z M44.4,7.5v0.8h2.1V7.5H44.4z M46.5,10.2V9.4h-2.1v0.8H46.5z M47.4,2v0.7h2.1V2H47.4z M49.5,4.5V3.8h-2.1v0.8H49.5z"/>
	<path d="M59.4,3.7c-0.3,0.6-0.6,1.2-0.9,1.8h1.4V4.1h1.5v1.4h2.8v3.8c0,0.6-0.1,1-0.5,1.3c-0.4,0.2-0.9,0.2-1.7,0.2
		c-0.1-0.4-0.2-1-0.4-1.4c0.4,0,0.8,0,0.9,0c0.1,0,0.2,0,0.2-0.2V6.9h-1.3v5.6h-1.5V6.9h-1.2v4h-1.4V7.3c-0.3,0.4-0.6,0.7-1,1
		c-0.2-0.3-0.6-0.9-0.9-1.2v5.5h-1.5V5.9c-0.3,0.4-0.6,0.7-0.9,1c-0.1-0.4-0.6-1.2-0.8-1.6c1.2-1.2,2.3-3,3-4.9l1.5,0.5
		c-0.3,0.9-0.8,1.8-1.2,2.7v3.3c1-0.8,1.8-1.9,2.4-3.2H56V2.3h2.3c0.2-0.6,0.4-1.3,0.5-2l1.5,0.3c-0.1,0.6-0.3,1.1-0.5,1.7h4.7v1.4
		H59.4z"/>
	<path d="M77.1,5.6c0,0,0,0.4,0,0.6c-0.1,3.8-0.3,5.2-0.7,5.7c-0.3,0.4-0.6,0.5-1,0.6c-0.4,0.1-1,0.1-1.6,0.1c0-0.4-0.1-0.9-0.3-1.3
		h-3.1v0.8h-1.4V7.7h5.1v3.5c0.2,0,0.4,0,0.5,0c0.2,0,0.3,0,0.4-0.2c0.2-0.3,0.4-1.3,0.5-4h-7.2c-0.2,1.9-0.7,3.9-1.7,5.3
		c-0.3-0.3-0.9-0.8-1.2-1c1.4-2,1.6-5,1.6-7.1V1h9.2v3.7h-7.7c0,0.3,0,0.5,0,0.8H77.1z M68.4,2.3v1.1h6.2V2.3H68.4z M72.6,8.9h-2.2
		v1.2h2.2V8.9z"/>
</g>
</svg>
