<?xml version="1.0" encoding="utf-8"?>
<!-- Generator: Adobe Illustrator 25.2.3, SVG Export Plug-In . SVG Version: 6.00 Build 0)  -->
<svg version="1.1" id="圖層_1" xmlns="http://www.w3.org/2000/svg" xmlns:xlink="http://www.w3.org/1999/xlink" x="0px" y="0px"
	 viewBox="0 0 150 49" style="enable-background:new 0 0 150 49;" xml:space="preserve">
<style type="text/css">
	.st0{fill:#1F1E1D;}
</style>
<path d="M9.5,5.2l0.9,0.5C9.4,8,7.5,9.5,4.6,10.4c-0.9,0.3-1.9,0.5-3,0.6C1.5,10.7,1.3,10.2,1,9.8c1.8-0.2,3.3-0.5,4.6-1.1
	c-0.4-0.4-1-0.8-1.7-1.2C3.4,7.7,2.8,7.9,2.2,8.2C2,7.8,1.8,7.5,1.5,7.2c0,0-0.1-0.1-0.1-0.1c2-0.6,3.6-1.5,4.7-2.6c0,0,0,0,0.1-0.1
	c-1.5,1-3.3,1.7-5.4,2.1C0.5,6,0.3,5.6,0.1,5.3C1.5,5.1,2.8,4.7,4,4.1c-0.4-0.3-1-0.7-1.6-1C2,3.3,1.5,3.6,1.1,3.7
	C0.9,3.4,0.6,3.1,0.3,2.8c0,0-0.1,0-0.1-0.1C2,2.1,3.4,1.3,4.4,0.3c0,0,0.1-0.1,0.1-0.1L6,0.4C5.8,0.6,5.6,0.8,5.4,1h2.3L8,0.9
	l0.9,0.5c-0.5,1-1.4,1.9-2.4,2.7l1.4,0.3C7.7,4.7,7.5,4.9,7.1,5.2h2.1L9.5,5.2z M6.8,2.1H4c-0.1,0-0.2,0.1-0.4,0.3
	c0.7,0.4,1.2,0.7,1.6,1C5.8,3.1,6.4,2.7,6.8,2.1z M8.4,6.4H5.7C5.5,6.5,5.3,6.7,5.1,6.8C5.8,7.2,6.4,7.6,6.8,8C7.5,7.5,8,7,8.4,6.4z
	"/>
<path d="M19.3,9.5h1.1c0.2,0,0.3-0.1,0.4-0.3c0.1-0.3,0.1-0.8,0.1-1.6c0.3,0.3,0.7,0.4,1.2,0.6c0,0,0,0,0,0c-0.1,1.2-0.3,2-0.6,2.3
	c-0.2,0.3-0.6,0.4-1.1,0.4h-1.4c-0.7,0-1.2-0.2-1.4-0.5c-0.2-0.3-0.3-0.7-0.3-1.3V5.5h-1.8c-0.1,1.5-0.4,2.6-0.9,3.4
	c-0.5,0.9-1.4,1.6-2.7,2.1c-0.2-0.4-0.4-0.7-0.8-1.1c0,0-0.1,0-0.1-0.1c1.2-0.5,2-1.2,2.4-2.1c0.2-0.5,0.4-1.3,0.4-2.3h-2.6V4.1
	h10.4v1.3h-3.1V9c0,0.3,0,0.4,0.1,0.5C19,9.5,19.1,9.5,19.3,9.5z M20.9,0.9v1.3h-8.3V0.9H20.9z"/>
<path d="M33.3,2.3h-2.1c0,0.1-0.2,0.4-0.5,0.9H33v6.3c0,0.6-0.1,1-0.4,1.2c0,0-0.1,0.1-0.2,0.1c-0.4,0.1-1,0.2-2,0.2
	c0-0.3-0.2-0.7-0.4-1.2h-2.8v0.7h-1.2V6.8h4.6v2.9c0.3,0,0.6,0,0.9,0c0.1,0,0.2-0.1,0.3-0.2V5.9c-0.1,0.3-0.5,0.5-0.9,0.5h-0.9
	c-0.6,0-0.9-0.1-1.1-0.4c-0.1-0.2-0.1-0.5-0.1-0.9V4.3h-0.9c-0.1,0.8-0.3,1.3-0.7,1.7c-0.4,0.3-0.9,0.5-1.6,0.7
	C25.2,6.5,25,6.2,24.8,6v5h-1.3V3.2h2.1c-0.1-0.3-0.2-0.5-0.4-0.9H23V1h4.3V0.1h1.4V1h4.5V2.3z M24.8,4.4v1.5
	c0.7-0.1,1.2-0.4,1.4-0.7c0.1-0.2,0.1-0.4,0.2-0.7H24.8z M27,3.2h2.1c0.3-0.6,0.4-0.9,0.4-0.9h-2.9C26.8,2.7,27,3,27,3.2z M29.2,8.8
	v-1h-2.1v1H29.2z M31.7,5.1V4.4h-1.9v0.7c0,0.1,0,0.3,0.1,0.3c0,0,0.1,0,0.1,0h0.6c0.1,0,0.2-0.1,0.2-0.2c0-0.1,0-0.3,0.1-0.4
	C31,4.9,31.3,5,31.7,5.1z"/>
<path d="M44.9,2.4h-0.7c-0.3,0.7-0.7,1.2-1.2,1.7c0.7,0.3,1.4,0.5,2.2,0.7c-0.3,0.3-0.6,0.7-0.8,1.2v0c-0.8-0.2-1.6-0.5-2.4-1
	c-0.6,0.4-1.4,0.7-2.4,1c-0.1-0.1-0.2-0.3-0.3-0.5c-0.2,0.8-0.4,1.4-0.6,1.9L37.7,7c0.1-0.5,0.3-1.1,0.4-1.6h-0.6v4.1
	c0,0.5-0.1,0.9-0.3,1.1c0,0-0.1,0.1-0.1,0.1c-0.3,0.2-0.9,0.3-1.6,0.3c0-0.4-0.2-0.8-0.4-1.3c0.3,0,0.7,0,1.1,0
	c0.1,0,0.2-0.1,0.2-0.2V7c-0.4,0.9-0.9,1.7-1.5,2.1c-0.1-0.3-0.3-0.7-0.6-1.3c0.7-0.6,1.2-1.4,1.6-2.4h-1.5V4.2H37
	c-0.7-0.4-1.4-0.8-2.3-1.1l0.9-0.9c0.2,0.1,0.5,0.2,0.9,0.4c0.3-0.2,0.5-0.4,0.7-0.7h-2.8V0.7h3.8l0.2,0l0.9,0.5
	c-0.4,0.7-1,1.3-1.7,1.9c0.3,0.2,0.6,0.3,0.8,0.5l-0.6,0.6h0.6l0.2-0.1l0.8,0.3l0,0.3c0.5-0.1,1-0.3,1.4-0.5c-0.3-0.3-0.6-0.6-0.8-1
	c-0.1,0.2-0.3,0.3-0.5,0.5C39,3.3,38.6,3,38.3,2.8c0.8-0.6,1.5-1.3,2-2.2c0.1-0.2,0.2-0.4,0.3-0.5l1.3,0.3c-0.1,0.2-0.3,0.5-0.4,0.8
	h3.4V2.4z M42.1,6.6h2.6c0,0,0,0.2-0.1,0.5c-0.1,1.7-0.4,2.8-0.7,3.2c0,0,0,0.1-0.1,0.1c-0.2,0.2-0.5,0.4-0.8,0.4
	c-0.3,0-0.8,0-1.3,0c0-0.4-0.1-0.9-0.4-1.3c0.4,0,0.7,0.1,1,0.1c0.1,0,0.3,0,0.4-0.1c0.2-0.2,0.3-0.8,0.4-1.7h-1.4
	c-0.4,1.3-1.1,2.3-2.3,2.9c-0.3,0.1-0.5,0.3-0.8,0.4c-0.1-0.4-0.4-0.7-0.7-1c0,0,0,0-0.1-0.1c1.2-0.4,2-1.1,2.4-2c0,0,0-0.1,0.1-0.1
	H39V6.6h1.7c0.1-0.4,0.1-0.7,0.1-1h1.4C42.2,6,42.2,6.4,42.1,6.6z M42.7,2.4h-1.8c0.3,0.4,0.6,0.7,1,1C42.2,3.2,42.5,2.8,42.7,2.4z"
	/>
<path d="M51.8,2.1h4.1V8h-1.5V7.4h-2.6V11h-1.5V7.4h-2.6V8h-1.4V2.1h4v-2h1.5V2.1z M47.7,6h2.6V3.5h-2.6V6z M51.8,6h2.6V3.5h-2.6V6z
	"/>
<path d="M58.1,4.3l1.4,0.3c-0.2,2.1-0.7,3.6-1.2,4.5l-1.3-0.7C57.5,7.4,57.9,6.1,58.1,4.3z M60.2,3.5h1.5V9c0,0.3,0,0.5,0.1,0.6
	c0.1,0,0.3,0.1,0.5,0.1h1.6c0.3,0,0.4-0.1,0.5-0.3c0.1-0.3,0.1-0.9,0.2-1.9c0.3,0.3,0.8,0.5,1.3,0.6c-0.1,1.2-0.3,2-0.6,2.4
	C65,10.8,64.6,11,64,11h-1.9c-0.8,0-1.4-0.2-1.6-0.5c-0.2-0.3-0.3-0.8-0.3-1.4L60.2,3.5L60.2,3.5z M60.2,1.3l0.9-1.1
	c1.2,0.4,2.4,1,3.5,1.7C64.7,2,64.9,2.1,65,2.2l-0.9,1.2c-0.8-0.7-1.8-1.3-3.2-1.9C60.7,1.5,60.4,1.3,60.2,1.3z M64.8,4.5L66,3.8
	c0.8,1.1,1.4,2.2,1.9,3.4C68,7.5,68.1,7.8,68.2,8l-1.4,0.7c-0.2-0.9-0.6-2-1.4-3.3C65.2,5.1,65,4.8,64.8,4.5z"/>
<path class="st0" d="M3.1,24.8l-0.4,0.4c-0.2-0.3-0.5-0.8-1-1.3c-0.2,1-0.7,1.8-1.3,2.3c-0.1-0.1-0.2-0.3-0.4-0.4
	c0.8-0.6,1.2-1.6,1.3-2.9H0.1v-0.5h1.3v-1.2H0.3v-0.5h1.1v-1.2h0.5v1.2H3v0.5H1.9v1.2h1.2v0.5H1.9c0,0.1,0,0.3,0,0.4
	C2.1,23.7,2.6,24.1,3.1,24.8z M5.9,25.7h0.5c0.1,0,0.1,0,0.2-0.1c0-0.1,0-0.4,0.1-0.9c0.1,0.1,0.3,0.1,0.5,0.2c0,0.7-0.1,1-0.3,1.2
	c-0.1,0.1-0.2,0.1-0.4,0.1H5.9c-0.3,0-0.5-0.1-0.5-0.2c0-0.1-0.1-0.3-0.1-0.5v-1.6H4.6c-0.1,0.8-0.4,1.4-0.8,1.8
	c-0.3,0.3-0.6,0.5-1.1,0.6c-0.1-0.1-0.2-0.3-0.3-0.4c0.7-0.2,1.2-0.6,1.4-1.2c0.1-0.2,0.2-0.5,0.2-0.8H3.4v-4.2h3.3v4.2H5.8v1.6
	C5.8,25.7,5.8,25.7,5.9,25.7C5.8,25.7,5.9,25.7,5.9,25.7z M3.9,20.2V21h2.2v-0.8H3.9z M3.9,21.4v0.8h2.2v-0.8H3.9z M3.9,22.6v0.8
	h2.2v-0.8H3.9z"/>
<path class="st0" d="M7.7,26.2l0-0.5c0.1,0,1.5-0.1,4.4-0.2v0.4C9.7,26.1,8.3,26.1,7.7,26.2z M11.6,19.9v0.7h0.5V21h-0.5v0.8h-1.5
	v0.4h1.6v0.4h-1.6v0.4H12v0.4H7.7v-0.4h1.9v-0.4H8.1v-0.4h1.5v-0.4H8.1v-0.4h1.4V21H7.7v-0.4h1.9v-0.4H8.1v-0.4h1.4v-0.5h0.5v0.5
	H11.6z M8.2,23.6h3.4v1.7H8.2V23.6z M8.6,23.9v0.4h1v-0.4H8.6z M8.6,24.5v0.4h1v-0.4H8.6z M10.1,20.2v0.4h1v-0.4H10.1z M11.1,21.4
	V21h-1v0.4H11.1z M11.1,24.2v-0.4h-1v0.4H11.1z M11.1,24.9v-0.4h-1v0.4H11.1z M12.9,20.3v4.2h-0.5v-4.2H12.9z M13.8,19.5h0.5v6.1
	c0,0.3-0.1,0.5-0.3,0.6c0,0,0,0-0.1,0c-0.2,0.1-0.6,0.1-1.2,0.1c0-0.2-0.1-0.4-0.2-0.5c0.5,0,0.8,0,0.9,0c0.1,0,0.2-0.1,0.2-0.2
	L13.8,19.5L13.8,19.5z"/>
<path class="st0" d="M21.9,19.9v0.5H21v5.1c0,0.3-0.1,0.5-0.3,0.7c0,0-0.1,0-0.1,0c-0.2,0.1-0.8,0.1-1.6,0.1c0-0.2-0.1-0.4-0.3-0.6
	c0.5,0,1,0,1.4,0c0.1,0,0.2,0,0.2-0.1c0,0,0,0,0-0.1v-5.1h-5.3v-0.5L21.9,19.9L21.9,19.9z M19,24.5h-2.6v0.6h-0.5v-3.5H19V24.5z
	 M18.5,22.2h-2v1.7h2V22.2z"/>
<path class="st0" d="M23.7,22.9v1.9c0.4,0.5,1,0.8,1.9,0.9c1.1,0,2.2,0,3.3,0c0.1,0,0.1,0,0.2,0c-0.1,0.2-0.1,0.4-0.2,0.5
	c-1.2,0-2.3,0-3.3,0c-0.9,0-1.7-0.3-2.1-0.8c0,0,0-0.1-0.1-0.1c-0.3,0.3-0.6,0.6-1.1,1l-0.3-0.5c0.4-0.3,0.8-0.6,1.1-0.9v-1.5h-1
	v-0.5L23.7,22.9L23.7,22.9z M23.9,21.9l-0.4,0.4c-0.3-0.3-0.7-0.6-1.2-0.8c0,0-0.1,0-0.1-0.1l0.4-0.4C23.1,21.3,23.6,21.5,23.9,21.9
	C23.9,21.8,23.9,21.9,23.9,21.9z M24.1,20.4l-0.4,0.4c-0.2-0.3-0.6-0.6-1.1-0.9c0,0-0.1,0-0.1-0.1l0.4-0.3c0.5,0.3,0.9,0.5,1.2,0.8
	C24.1,20.3,24.1,20.4,24.1,20.4z M26.8,25.4h-0.5v-1.5c-0.5,0.4-1.1,0.8-1.8,1.1c-0.1-0.2-0.2-0.3-0.3-0.4c0.9-0.3,1.6-0.7,2-1.2
	h-1.4v-1.6h3.6v1.6h-1.6v0c0.2,0.3,0.4,0.5,0.7,0.7c0.4-0.3,0.8-0.5,1.1-0.8l0.4,0.3c-0.4,0.3-0.7,0.5-1.1,0.8
	c0.4,0.2,0.8,0.4,1.3,0.5c-0.1,0.1-0.3,0.3-0.3,0.4c-0.8-0.2-1.4-0.6-1.9-1.2L26.8,25.4L26.8,25.4z M26.3,21v-0.5h-1.7V20h1.7v-0.6
	h0.5V20h1.8v0.4h-1.8V21H29v0.4h-4.9V21H26.3z M25.2,22.2V23h2.6v-0.8H25.2z"/>
<path class="st0" d="M31.6,24.4l0.8-0.2l0.1,0.5c-0.3,0.1-0.8,0.2-1.4,0.3c-0.6,0.1-1,0.3-1.2,0.3l-0.1-0.6c0.3,0,0.8-0.1,1.6-0.3
	l-0.2,0c0.2-0.8,0.3-1.7,0.4-2.7c0,0,0,0,0-0.1l0.5,0.1C31.9,22.9,31.7,23.8,31.6,24.4z M32.2,20.9v0.5h-2.4v-0.5h0.9v-1.4h0.5v1.4
	H32.2z M30.8,24.2l-0.5,0.1c0-0.7-0.1-1.5-0.3-2.5l0.4-0.1C30.6,22.6,30.7,23.4,30.8,24.2z M36.7,22.6h-1.9
	c-0.1,0.2-0.1,0.4-0.2,0.7h2v2.5c0,0.3-0.1,0.4-0.2,0.4c-0.1,0.1-0.4,0.1-0.7,0.1c0-0.1-0.1-0.3-0.2-0.5c0.3,0,0.4,0,0.5,0
	c0.1,0,0.1,0,0.1-0.1v-2h-0.7v2.4H35v-2.4h-0.7v2.4h-0.4v-2.4h-0.7v2.5h-0.5v-3h1.5c0.1-0.3,0.1-0.5,0.1-0.7h-1.9v-0.5h4.4
	L36.7,22.6L36.7,22.6z M36.4,19.8v1.8h-3.8v-1.8h0.5v1.3h1.1v-1.7h0.5v1.7h1.2v-1.3H36.4z"/>
<path class="st0" d="M37.6,23.4v-0.9H38v0.9c0,1.1-0.1,1.9-0.3,2.4c-0.1-0.1-0.2-0.2-0.4-0.3C37.5,25,37.6,24.3,37.6,23.4z
	 M40.1,21.9H39v4.4h-0.5v-4.4h-1.1v-0.5h2.7V21.9z M40,19.9v0.5h-2.3v-0.5H40z M40,22.5v2.7h-0.4v-2.7H40z M43.1,25.8h0.6
	c0.1,0,0.1,0,0.2-0.1c0-0.1,0-0.4,0.1-0.8c0.1,0.1,0.3,0.1,0.5,0.2c0,0.6-0.1,0.9-0.3,1.1c-0.1,0.1-0.2,0.1-0.4,0.1h-0.7
	c-0.3,0-0.5-0.1-0.6-0.2c0-0.1-0.1-0.3-0.1-0.5v-1.6h-0.6c-0.1,0.8-0.3,1.3-0.7,1.7c-0.3,0.3-0.6,0.4-1,0.6
	c-0.1-0.2-0.2-0.3-0.3-0.4c0.7-0.2,1.1-0.6,1.3-1.1c0.1-0.2,0.1-0.5,0.2-0.8h-0.6v-4.3h3.2v4.3H43v1.6c0,0.1,0,0.2,0.1,0.2
	C43,25.8,43.1,25.8,43.1,25.8z M41.2,20.2V21h2.1v-0.8H41.2z M41.2,21.5v0.8h2.1v-0.8H41.2z M41.2,22.7v0.8h2.1v-0.8H41.2z"/>
<path class="st0" d="M47.6,20.6v0.5h-2.8v-0.5H47.6z M47.4,25.9h-1.8v0.4h-0.5v-2.5h2.2L47.4,25.9L47.4,25.9z M47.4,21.7v0.5h-2.2
	v-0.5H47.4z M45.1,23.1v-0.5h2.2v0.5H45.1z M47.4,19.7v0.5h-2.2v-0.5H47.4z M46.9,24.2h-1.2v1.3h1.2V24.2z M47.8,19.8v0.5h0.9v2.3
	h-1v0.5h1v3.2h0.5v-3.2h1v-0.5h-1v-2.3h1.3c0,0.8,0,1.5,0,2.2c0,0.7,0,1.3,0.1,1.8c0,0.5,0.1,0.9,0.2,1.3s0.3,0.5,0.4,0.6
	c0.1,0,0.1,0,0.2,0c0.1,0,0.3-0.1,0.3-0.3c0.1-0.2,0.1-0.5,0.2-0.9c0,0-0.1-0.1-0.1-0.2c-0.1-0.1-0.1-0.1-0.2-0.2c0,0.1,0,0.3,0,0.4
	c0,0.1,0,0.2,0,0.3c0,0.1,0,0.2,0,0.2s0,0.1,0,0.1c-0.1,0-0.1-0.1-0.2-0.3c0-0.1-0.1-0.4-0.1-0.6c0-0.3,0-0.6-0.1-0.9
	c0-0.4,0-0.8,0-1.2c0-0.4,0-0.9,0-1.4c0-0.5,0-1,0-1.5L47.8,19.8L47.8,19.8z"/>
<path class="st0" d="M55.2,21.8c0.6,0.5,1.1,1,1.6,1.6c0,0,0,0.1,0.1,0.1L56.4,24c-0.5-0.7-1.1-1.2-1.7-1.7L55.2,21.8z"/>
<path class="st0" d="M61.5,22.3l-0.3,0.5c-0.3-0.3-0.8-0.5-1.4-0.8c0,0,0,0,0,0l0.3-0.4C60.7,21.7,61.1,22,61.5,22.3
	C61.5,22.2,61.5,22.2,61.5,22.3z M60.6,26.2l-0.5-0.4c0.5-0.7,0.9-1.5,1.4-2.4l0.4,0.4C61.5,24.6,61,25.4,60.6,26.2z M61.9,20.3
	l-0.3,0.4c-0.3-0.3-0.7-0.5-1.3-0.8c0,0-0.1,0-0.1,0l0.3-0.4C61.1,19.7,61.6,19.9,61.9,20.3C61.9,20.3,61.9,20.3,61.9,20.3z
	 M64,19.4h0.5c0.4,0.8,1,1.4,1.7,2c0.3,0.2,0.5,0.4,0.7,0.5c-0.1,0.2-0.3,0.4-0.3,0.5c-0.7-0.5-1.3-1.1-1.8-1.8
	c-0.2-0.2-0.3-0.4-0.4-0.7c-0.4,0.7-0.9,1.3-1.6,2c-0.2,0.2-0.4,0.4-0.7,0.5c-0.1-0.1-0.2-0.3-0.3-0.5c0.7-0.4,1.2-1,1.8-1.7
	C63.7,20,63.8,19.7,64,19.4z M62.5,26.4v-3.1h3.7v3h-0.6V26H63v0.3H62.5z M62.9,21.8h2.9v0.5h-2.9V21.8z M65.6,23.8H63v1.7h2.6V23.8
	z"/>
<path class="st0" d="M70.1,20.6v0.5h-2.8v-0.5H70.1z M69.9,23.7v2.2h-1.8v0.4h-0.5v-2.5H69.9z M69.9,21.7v0.5h-2.2v-0.5H69.9z
	 M67.6,23.1v-0.5h2.2v0.5H67.6z M69.9,19.7v0.5h-2.2v-0.5H69.9z M69.4,24.2h-1.2v1.3h1.2V24.2z M72.5,22.5v1.1
	c0,0.4,0.1,0.8,0.4,1.1c0.3,0.5,0.8,0.9,1.5,1.1c-0.1,0.2-0.3,0.3-0.3,0.5c-0.7-0.3-1.2-0.7-1.6-1.3c-0.1-0.2-0.2-0.4-0.2-0.5
	c-0.1,0.4-0.3,0.8-0.7,1.1c-0.4,0.3-0.8,0.6-1.3,0.8c-0.1-0.2-0.2-0.3-0.3-0.5c0.9-0.3,1.6-0.9,1.9-1.6c0.1-0.3,0.1-0.5,0.1-0.7
	v-1.1H72.5z M70.5,24.8l-0.4-0.3c0.4-0.3,0.6-0.7,0.7-1.3l0.5,0.1C71.2,24,70.9,24.4,70.5,24.8z M74.3,22.3l-0.4,0.4
	c-0.4-0.4-1-0.8-1.8-1.3c-0.3,0.5-0.8,1-1.5,1.2c-0.1,0-0.1,0-0.2,0.1c-0.1-0.2-0.2-0.3-0.3-0.4c0.7-0.2,1.2-0.6,1.5-1.1
	c0.2-0.4,0.3-1,0.4-1.8c0,0,0-0.1,0-0.1h0.5c0,0.7-0.1,1.3-0.2,1.6C73.2,21.5,73.9,22,74.3,22.3z M70.9,19.9l0.5,0.1
	c-0.1,0.6-0.3,1.1-0.6,1.3l-0.4-0.2C70.6,20.9,70.8,20.5,70.9,19.9L70.9,19.9z M73.6,19.8l0.5,0.2c-0.4,0.6-0.6,1-0.8,1.2L73,21
	C73.2,20.7,73.4,20.3,73.6,19.8z M73.4,24.6l-0.4-0.2c0.3-0.4,0.5-0.8,0.7-1.3l0.5,0.2C73.8,23.9,73.6,24.4,73.4,24.6z"/>
<path class="st0" d="M77.9,22.3h-2.2v4.1h-0.5v-6.7h2.8V22.3z M77.4,20.1h-1.7v0.6h1.7V20.1z M75.7,21.8h1.7v-0.7h-1.7V21.8z
	 M80.3,24.5h-1.1v1.7h-0.5v-1.7h-1.1c0,0.6-0.3,1.1-0.7,1.5c-0.1,0.1-0.2,0.2-0.4,0.3c-0.1-0.1-0.3-0.3-0.4-0.3
	c0.5-0.3,0.8-0.7,0.9-1.3c0,0,0-0.1,0-0.1h-0.9V24h1v-0.8h-0.8v-0.5h3.8v0.5h-0.9V24h1.1V24.5z M77.7,24h1.1v-0.8h-1.1V24z
	 M81.4,19.7v5.9c0,0.3-0.1,0.5-0.3,0.6c0,0,0,0,0,0c-0.2,0.1-0.6,0.1-1.2,0.1c0-0.2-0.1-0.4-0.2-0.6c0.5,0,0.8,0,0.9,0
	c0.1,0,0.1-0.1,0.1-0.2v-3.3h-2.3v-2.5H81.4z M80.9,20.1h-1.8v0.6h1.8V20.1z M79.1,21.8h1.8v-0.7h-1.8V21.8z"/>
<path class="st0" d="M85.4,19.4h0.5c0.7,0.7,1.5,1.2,2.6,1.6c0.3,0.1,0.5,0.2,0.8,0.3c-0.1,0.1-0.2,0.3-0.3,0.5
	c-0.7-0.2-1.3-0.5-1.9-0.9v0.3h-2.7v-0.4c-0.6,0.4-1.3,0.7-1.9,0.9c-0.1-0.2-0.2-0.3-0.3-0.4c1-0.3,1.9-0.8,2.6-1.4
	C85,19.8,85.2,19.6,85.4,19.4z M83.1,23.5v-1.9h5.2v1.9H83.1z M83.6,26.4v-2.5h4.3v2.5h-0.6v-0.2h-3.2v0.3L83.6,26.4L83.6,26.4z
	 M83.6,22v1.1h1.8V22H83.6z M84.1,22.2l0.4-0.1c0.2,0.3,0.4,0.6,0.5,0.9l-0.4,0.2C84.4,22.8,84.3,22.5,84.1,22.2z M87.3,24.3h-3.2
	v0.5h3.2V24.3z M84.1,25.7h3.2v-0.5h-3.2V25.7z M84.5,20.7h2.4c-0.5-0.3-0.9-0.7-1.2-0.9C85.4,20.1,85,20.4,84.5,20.7z M87.8,23.1
	V22h-1.9v1.1H87.8z M86.8,23.1l-0.4-0.1c0.2-0.4,0.4-0.7,0.4-0.9l0.5,0.1C87.1,22.6,86.9,22.9,86.8,23.1z"/>
<path class="st0" d="M91.3,20.5H91c-0.2,0.4-0.5,0.7-0.7,0.9c-0.1-0.1-0.3-0.2-0.5-0.3c0.5-0.4,0.8-1,1.1-1.7c0,0,0-0.1,0-0.1
	l0.5,0.1c-0.1,0.1-0.1,0.3-0.3,0.5h2v0.5h-1.4c0.1,0.3,0.2,0.5,0.3,0.7l-0.5,0.2C91.6,21.1,91.5,20.9,91.3,20.5z M96.8,23.3h-1.6V24
	h1.4v0.5h-1.4v1.2c0,0.3-0.1,0.4-0.2,0.5c0,0-0.1,0-0.1,0.1c-0.2,0.1-0.6,0.1-1.3,0.1c0-0.1-0.1-0.3-0.2-0.5c0.6,0,0.9,0,1.1,0
	c0.1,0,0.1-0.1,0.2-0.1v-1.2h-4.5V24h4.5v-0.7h-4.7v-0.5H93v-0.7h-2.3v-0.5h2.4v-0.5c0,0-0.1,0-0.1-0.1c0,0-0.1,0-0.1,0
	c0.4-0.4,0.8-0.9,1-1.5c0-0.1,0-0.1,0.1-0.2l0.5,0.1c-0.1,0.2-0.1,0.4-0.2,0.5h2.5v0.5h-1.6c0.2,0.3,0.3,0.5,0.4,0.7L95,21.4
	c-0.1-0.3-0.3-0.6-0.5-0.9H94c-0.1,0.2-0.3,0.4-0.5,0.6h0.1v0.5h2.5v0.5h-2.5v0.7h3.2L96.8,23.3L96.8,23.3z M91.3,24.8l0.4-0.3
	c0.5,0.3,0.9,0.7,1.2,1c0,0,0.1,0.1,0.1,0.1L92.5,26c-0.2-0.3-0.6-0.7-1.1-1C91.4,24.9,91.3,24.9,91.3,24.8z"/>
<path class="st0" d="M102.7,20l0.4,0.2c-0.6,1.1-1.6,1.9-3,2.5c-0.7,0.3-1.4,0.5-2.2,0.7c-0.1-0.2-0.2-0.4-0.3-0.5
	c1.1-0.2,2-0.5,2.9-1c-0.3-0.3-0.8-0.5-1.4-0.9c-0.3,0.1-0.7,0.3-1.1,0.5c-0.1-0.1-0.2-0.3-0.4-0.4c1.1-0.4,2-0.9,2.7-1.6
	c0.1-0.1,0.1-0.2,0.2-0.3l0.6,0.1c-0.1,0.1-0.3,0.3-0.5,0.5h2H102.7z M103.8,22.6l0.4,0.2c-0.8,1.9-2.8,3.1-5.8,3.5
	c-0.1-0.2-0.1-0.4-0.3-0.5c1.3-0.1,2.4-0.5,3.4-0.9c-0.4-0.4-0.9-0.7-1.5-1c-0.4,0.2-0.8,0.4-1.3,0.5c-0.1-0.2-0.2-0.3-0.4-0.4
	c1.3-0.4,2.3-0.9,3-1.7c0.1-0.1,0.3-0.3,0.3-0.4l0.6,0.1c-0.2,0.2-0.4,0.4-0.5,0.6h1.9L103.8,22.6z M102.2,20.5H100
	c-0.2,0.1-0.3,0.3-0.5,0.3c0.6,0.3,1.1,0.6,1.4,0.9C101.5,21.3,101.9,20.9,102.2,20.5z M103.4,23.1h-2.2c-0.3,0.2-0.5,0.3-0.7,0.4
	c0.6,0.3,1.1,0.7,1.5,1C102.6,24.2,103.1,23.7,103.4,23.1z"/>
<path class="st0" d="M109.8,25.7h1c0.1,0,0.2-0.1,0.3-0.2c0-0.1,0.1-0.5,0.1-1.2c0.1,0.1,0.3,0.2,0.5,0.3c0,0.7-0.1,1.2-0.3,1.4
	c-0.1,0.2-0.3,0.3-0.6,0.3h-1.1c-0.4,0-0.7-0.1-0.8-0.3c-0.1-0.1-0.1-0.3-0.1-0.6v-2.7h-1.4c-0.1,1-0.3,1.8-0.6,2.4
	c-0.4,0.6-0.9,1-1.6,1.3c-0.1-0.2-0.2-0.3-0.4-0.4c0.8-0.3,1.4-0.8,1.7-1.6c0.1-0.4,0.3-0.9,0.3-1.7H105v-0.5h6.7v0.5h-2.2v2.7
	c0,0.1,0,0.3,0.1,0.3C109.6,25.7,109.7,25.7,109.8,25.7z M111,20v0.5h-5.4V20H111z"/>
<path class="st0" d="M3,34.7l0.1,0.5c-0.5,0.1-1.5,0.4-3,0.8L0,35.5c0.1,0,0.4-0.1,0.7-0.2c0.2-0.1,0.4-0.1,0.5-0.1v-3.3H0.1v-0.5
	h2.8v0.5H1.8V35c0.1,0,0.3-0.1,0.5-0.1C2.7,34.8,2.9,34.8,3,34.7z M4.8,32.2h2.1c0,0,0,0.1,0,0.3c-0.1,2.2-0.2,3.6-0.3,4.1
	c-0.1,0.2-0.1,0.4-0.2,0.5c-0.1,0.1-0.3,0.3-0.5,0.3c0,0,0,0-0.1,0c-0.3,0-0.7,0-1.1,0c0-0.2-0.1-0.4-0.2-0.5c0.3,0,0.7,0,1.1,0
	c0.1,0,0.3,0,0.3-0.1c0.2-0.2,0.3-1.1,0.4-2.6c0-0.4,0-0.8,0.1-1.3H4.8c-0.1,1.4-0.4,2.5-0.8,3.3c-0.4,0.6-0.9,1.1-1.5,1.4
	c-0.1-0.1-0.2-0.3-0.4-0.4c0,0,0,0,0,0C3,36.5,3.7,35.7,4,34.6c0.1-0.5,0.2-1.1,0.3-1.8H3v-0.5h1.3c0-0.5,0-1.1,0-1.6h0.6
	C4.9,31.2,4.9,31.7,4.8,32.2z"/>
<path class="st0" d="M9.8,31.2l0.5-0.2c0.5,0.7,0.8,1.2,1,1.7l-0.5,0.2c0-0.1-0.1-0.3-0.2-0.5h-0.1h-0.1h-0.1h-0.1H10H9.9H9.8H9.6
	H9.5H9.4c-0.8,0-1.4,0.1-1.7,0.1l0-0.5c0.2,0,0.4,0,0.6,0c0.3-0.5,0.5-1,0.7-1.6l0.6,0.1C9.2,31.3,9,31.7,8.8,32l1.6-0.1
	C10.1,31.7,10,31.4,9.8,31.2z M10.7,33.2v3.6c0,0.3-0.1,0.4-0.2,0.5c0,0,0,0-0.1,0c-0.2,0.1-0.5,0.1-1,0.1c0-0.2-0.1-0.4-0.2-0.5
	c0.3,0,0.6,0,0.8,0c0.1,0,0.1-0.1,0.1-0.1V36H8.6v1.6H8v-4.3L10.7,33.2L10.7,33.2z M10.2,33.7H8.6v0.7h1.6V33.7z M8.6,35.5h1.6v-0.7
	H8.6V35.5z M13.7,33.8h-1.3c-0.4,0-0.7-0.1-0.8-0.3c-0.1-0.1-0.1-0.3-0.1-0.5v-2.5H12v1.3c0.8-0.3,1.4-0.5,1.8-0.7l0.4,0.4
	c-0.5,0.3-1.2,0.5-2.2,0.8V33c0,0.1,0,0.2,0.1,0.3c0.1,0,0.1,0,0.3,0h1.2c0.1,0,0.3-0.1,0.3-0.2s0.1-0.4,0.1-0.7
	c0.1,0.1,0.3,0.2,0.5,0.2c0,0.5-0.1,0.9-0.3,1C14.1,33.8,14,33.8,13.7,33.8z M12.5,36.9h1.2c0.1,0,0.3-0.1,0.3-0.2
	c0-0.1,0.1-0.4,0.1-0.8c0.1,0.1,0.3,0.2,0.5,0.2c0,0.6-0.1,0.9-0.3,1.1c-0.1,0.1-0.3,0.2-0.6,0.2h-1.4c-0.4,0-0.7-0.1-0.8-0.3
	c-0.1-0.1-0.1-0.3-0.1-0.5V34h0.5v1.2c0.8-0.3,1.5-0.5,1.9-0.8l0.4,0.4c-0.5,0.3-1.2,0.5-2.2,0.8v0.9c0,0.1,0,0.3,0.1,0.3
	C12.2,36.9,12.3,36.9,12.5,36.9z"/>
<path class="st0" d="M16.6,30.5l0.6,0.1c-0.1,0.5-0.3,0.8-0.4,1.1h1.3v5H16v0.6h-0.5v-5.6h0.9C16.5,31.2,16.6,30.8,16.6,30.5z
	 M17.6,33.8v-1.6H16v1.6H17.6z M16,36.1h1.6v-1.8H16V36.1z M21.9,31.7V32c-0.1,2.4-0.2,3.9-0.3,4.4c-0.1,0.3-0.1,0.5-0.2,0.6
	c-0.1,0.2-0.3,0.3-0.6,0.3h0c-0.2,0-0.6,0-1.1,0c0-0.2-0.1-0.4-0.2-0.5c0.3,0,0.7,0,1.1,0c0.1,0,0.3,0,0.3-0.1
	c0.2-0.2,0.3-0.9,0.4-2.2c0-0.6,0.1-1.3,0.1-2.3h-1.9c-0.3,0.6-0.5,1-0.7,1.3c-0.1-0.1-0.2-0.2-0.5-0.3c0.5-0.7,0.9-1.6,1.2-2.8
	l0.5,0.1c-0.1,0.4-0.2,0.7-0.3,1.1H21.9z M20.6,35.1l-0.5,0.3c-0.2-0.4-0.6-1.1-1.2-1.7l0.4-0.3C20,34.1,20.4,34.7,20.6,35.1z"/>
<path class="st0" d="M29.3,31.7h-1.4c-0.1,0.2-0.2,0.4-0.4,0.8H29v4.2c0,0.3-0.1,0.5-0.3,0.6c0,0,0,0,0,0c-0.2,0.1-0.6,0.1-1.3,0.1
	c0-0.2-0.1-0.4-0.2-0.5c0.4,0,0.8,0,1.1,0c0.1,0,0.2-0.1,0.2-0.1V33h-1.6v0.8c0,0.1,0,0.1,0.1,0.2c0,0,0.1,0,0.1,0h0.7
	c0.1,0,0.1,0,0.2-0.1c0-0.1,0-0.2,0-0.4c0.1,0.1,0.2,0.1,0.4,0.2c0,0.4-0.1,0.6-0.3,0.7c-0.1,0-0.2,0.1-0.3,0.1H27
	c-0.3,0-0.5-0.1-0.6-0.2c0-0.1-0.1-0.2-0.1-0.4v-0.8h-0.9c-0.1,0.5-0.2,0.9-0.5,1.2c-0.2,0.2-0.6,0.3-1,0.4
	c-0.1-0.1-0.1-0.3-0.3-0.4c0.6-0.1,0.9-0.3,1.1-0.6c0.1-0.2,0.1-0.4,0.2-0.7h-1.4v4.4H23v-4.9h1.5c-0.1-0.2-0.2-0.5-0.4-0.8h-1.5
	v-0.5h3v-0.7h0.6v0.7h3V31.7z M27.5,36.7h-2.4v0.5h-0.5v-2.3h2.9V36.7z M25.1,32.5h1.6c0.2-0.3,0.3-0.6,0.4-0.8h-2.4
	C24.9,32,25.1,32.3,25.1,32.5z M26.9,35.2h-1.9v1h1.9V35.2z"/>
<path class="st0" d="M32.5,35.1l-0.4-0.2c0.1-0.3,0.3-0.7,0.4-1.2h-0.7v3.2c0,0.3-0.1,0.4-0.2,0.5c0,0,0,0,0,0
	c-0.2,0.1-0.5,0.1-0.9,0.1c0-0.2-0.1-0.4-0.2-0.5c0.2,0,0.5,0,0.7,0c0.1,0,0.1,0,0.1-0.1v-2.4c-0.4,0.9-0.7,1.5-1.1,1.9
	c0-0.1-0.1-0.3-0.3-0.5c0.4-0.4,0.8-0.9,1.1-1.7c0-0.1,0.1-0.2,0.1-0.3h-1.2v-0.5h2c-0.4-0.3-0.9-0.7-1.6-0.9c0,0-0.1,0-0.1-0.1
	l0.4-0.4c0.2,0.1,0.5,0.2,0.8,0.4c0.3-0.2,0.5-0.5,0.8-0.8h-2.2v-0.5h2.6l0.1,0l0.4,0.2c-0.3,0.5-0.7,0.9-1.2,1.3
	c0.3,0.1,0.4,0.3,0.7,0.5l-0.3,0.3h0.6l0.1,0l0.3,0.1c0,0,0,0.1-0.1,0.4c0.5-0.1,1-0.4,1.4-0.6c-0.3-0.3-0.6-0.6-0.8-0.9
	c-0.3,0.3-0.4,0.4-0.5,0.5c-0.1-0.1-0.3-0.3-0.5-0.3c0.5-0.4,1-0.9,1.3-1.6c0-0.1,0.1-0.2,0.1-0.3l0.5,0.1c-0.1,0.1-0.2,0.4-0.4,0.7
	h2.6v0.5h-0.6c-0.2,0.5-0.5,0.9-0.9,1.3c0.5,0.3,1.1,0.5,1.7,0.7c-0.1,0.2-0.3,0.3-0.4,0.5c-0.7-0.2-1.2-0.4-1.8-0.8
	c-0.5,0.3-1,0.6-1.7,0.8c0-0.1-0.1-0.2-0.2-0.3C32.8,34.4,32.7,34.8,32.5,35.1z M34.8,34.8h1.8c0,0,0,0.1,0,0.3
	c-0.1,1.2-0.3,1.9-0.4,2.1c0,0,0,0-0.1,0.1c-0.1,0.1-0.3,0.2-0.5,0.2c-0.3,0-0.6,0-0.8,0c0-0.2-0.1-0.4-0.1-0.5c0.3,0,0.5,0,0.8,0
	c0.1,0,0.2,0,0.3-0.1c0.1-0.1,0.3-0.7,0.4-1.6h-1.3c-0.3,0.9-0.7,1.5-1.4,1.9c-0.2,0.1-0.4,0.2-0.7,0.3c-0.1-0.2-0.2-0.3-0.3-0.4
	c0.8-0.3,1.4-0.8,1.7-1.5c0-0.1,0.1-0.2,0.1-0.3h-1.2v-0.5h1.3c0-0.2,0.1-0.5,0.1-0.8h0.6C34.9,34.2,34.8,34.5,34.8,34.8z
	 M35.5,31.8h-1.6c0.2,0.4,0.5,0.7,0.9,1C35.1,32.5,35.4,32.1,35.5,31.8z"/>
<path class="st0" d="M41.1,31.8h2.8v3.6h-0.6V35h-2.2v2.5h-0.6V35h-2.2v0.5h-0.5v-3.6h2.7v-1.3h0.6V31.8z M38.2,34.4h2.2v-2h-2.2
	V34.4z M41.1,34.4h2.2v-2h-2.2V34.4z"/>
<path class="st0" d="M45.3,33.2l0.5,0.1c-0.2,1.4-0.5,2.4-0.9,2.9L44.4,36C44.9,35.4,45.2,34.5,45.3,33.2z M46.6,32.6h0.6v3.8
	c0,0.2,0,0.3,0.1,0.4c0.1,0,0.2,0,0.4,0h1.4c0.2,0,0.4-0.1,0.4-0.3c0.1-0.2,0.1-0.7,0.2-1.3c0.1,0.1,0.3,0.2,0.5,0.3
	c0,0.8-0.1,1.3-0.3,1.5c-0.1,0.2-0.4,0.3-0.8,0.3h-1.5c-0.5,0-0.8-0.1-0.9-0.3c-0.1-0.1-0.1-0.4-0.1-0.7L46.6,32.6L46.6,32.6z
	 M46.6,30.9l0.4-0.4c0.8,0.3,1.6,0.6,2.4,1.1c0.1,0,0.2,0.1,0.3,0.1l-0.4,0.5c-0.5-0.4-1.3-0.8-2.1-1.1C47,31.1,46.8,31,46.6,30.9z
	 M49.7,33.2l0.5-0.3c0.5,0.7,0.9,1.5,1.3,2.3c0.1,0.2,0.1,0.4,0.2,0.6l-0.5,0.3c-0.1-0.7-0.5-1.4-0.9-2.2
	C50,33.6,49.9,33.4,49.7,33.2z"/>
<path class="st0" d="M58.4,35.2h0.8v0.5h-6.9v-0.5h0.8L52.9,31l0.4,0.1c0.4-0.2,0.8-0.4,1-0.6l0.4,0.4c-0.3,0.1-0.7,0.4-1.3,0.6
	l0,0.8h1v0.5h-1l0,0.9h1v0.5h-1l0,0.9h1.3v-1.8h0.5v1.8h0.7v-2.1h-1.2v-2.5h0.5v0.8h1.4v0.5h-1.4v0.8h1.2v2.6h1.3c0-0.2,0-0.5,0-0.9
	h-0.9v-0.5h1c0-0.1,0-0.3,0-0.5s0-0.4,0-0.5h-1v-0.5h1c0-0.4,0-0.7,0-0.9h-1.1v-0.5h1.6C58.5,32.4,58.5,33.9,58.4,35.2z M54.4,35.9
	l0.5,0.3c-0.6,0.4-1.3,0.9-2.1,1.2c0,0-0.1,0-0.1,0.1c-0.1-0.1-0.3-0.3-0.4-0.4c0.7-0.3,1.3-0.6,1.9-1C54.3,36,54.3,35.9,54.4,35.9z
	 M56.4,36.2l0.4-0.4c0.9,0.4,1.6,0.8,2.3,1.3l-0.5,0.4C58,37.1,57.3,36.6,56.4,36.2z"/>
<path class="st0" d="M62.6,30.5h0.5c0.7,0.7,1.5,1.2,2.6,1.6c0.3,0.1,0.5,0.2,0.8,0.3c-0.1,0.1-0.2,0.3-0.3,0.5
	c-0.7-0.2-1.3-0.5-1.9-0.9v0.3h-2.7v-0.4c-0.6,0.4-1.3,0.7-1.9,0.9c-0.1-0.2-0.2-0.3-0.3-0.4c1-0.3,1.9-0.8,2.6-1.4
	C62.3,30.9,62.5,30.7,62.6,30.5z M60.4,34.6v-1.9h5.2v1.9H60.4z M60.8,37.5V35h4.3v2.5h-0.6v-0.2h-3.2v0.3L60.8,37.5L60.8,37.5z
	 M60.9,33.1v1.1h1.8v-1.1H60.9z M61.4,33.3l0.4-0.1c0.2,0.3,0.4,0.6,0.5,0.9l-0.4,0.2C61.7,33.9,61.6,33.6,61.4,33.3z M64.6,35.4
	h-3.2v0.5h3.2V35.4z M61.4,36.8h3.2v-0.5h-3.2V36.8z M61.8,31.9h2.4c-0.5-0.3-0.9-0.7-1.2-0.9C62.7,31.2,62.3,31.5,61.8,31.9z
	 M65.1,34.2v-1.1h-1.9v1.1H65.1z M64.1,34.2l-0.4-0.1c0.2-0.4,0.4-0.7,0.4-0.9l0.5,0.1C64.4,33.7,64.2,34,64.1,34.2z"/>
<path class="st0" d="M69.5,31.7v0.5h-2.4v-0.5H69.5z M69.3,34.8V37h-1.5v0.4h-0.5v-2.5H69.3z M67.4,33.2v-0.5h1.9v0.5H67.4z
	 M67.4,34.3v-0.5h1.9v0.5H67.4z M69.3,30.8v0.5h-1.9v-0.5H69.3z M68.8,35.3h-1v1.3h1V35.3z M73.3,35.4l0.4,0.2
	c-0.2,0.3-0.4,0.6-0.8,0.9c0.2,0.4,0.4,0.5,0.6,0.5c0.1,0,0.2-0.2,0.3-0.7c0.1,0.1,0.2,0.1,0.4,0.2c-0.1,0.5-0.2,0.8-0.4,0.9
	c-0.1,0-0.1,0-0.3,0c-0.4,0-0.7-0.3-0.9-0.7c-0.3,0.3-0.6,0.4-0.9,0.5c-0.1-0.1-0.2-0.2-0.3-0.3c0.4-0.2,0.8-0.4,1.1-0.7
	c-0.1-0.4-0.2-0.8-0.3-1.2h-1v0.5l0.8-0.1V36l-0.8,0.1v0.8c0,0.2-0.1,0.4-0.2,0.4h0c-0.1,0-0.4,0.1-0.9,0.1c0-0.1-0.1-0.3-0.2-0.4
	c0.4,0,0.7,0,0.7,0c0.1,0,0.1,0,0.1-0.1v-0.7l-1,0.1l-0.1-0.5c0.3,0,0.6-0.1,1.1-0.1v-0.6h-1.1v-0.4h1.1v-0.5
	c-0.4,0-0.7,0.1-0.8,0.1c0-0.1-0.1-0.3-0.1-0.4c0.8-0.1,1.5-0.2,1.9-0.4l0.3,0.4c-0.3,0.1-0.5,0.1-0.8,0.2v0.6h1
	c0-0.4-0.1-0.8-0.1-1.1h0.5c0,0.4,0,0.7,0.1,1.1H74v0.4h-1.4c0,0.3,0.1,0.5,0.2,0.8C73,35.9,73.2,35.6,73.3,35.4z M71.5,32.1v-0.5
	h-1.7v-0.4h0.9c-0.1-0.1-0.2-0.3-0.4-0.6l0.4-0.1c0.2,0.3,0.4,0.5,0.5,0.7h0h1.2c0.2-0.3,0.3-0.6,0.4-0.8l0.5,0.1
	c-0.1,0.1-0.2,0.3-0.4,0.6h0.9v0.4H72v0.5h1.6v0.4H72v0.5h2v0.4h-4.5v-0.4h2v-0.5H70v-0.4H71.5z M72.8,34l0.3-0.3
	c0.4,0.3,0.7,0.5,0.8,0.7l-0.3,0.3C73.4,34.4,73.2,34.2,72.8,34z"/>
<path class="st0" d="M78.4,36.7h3.1v0.5h-6.8v-0.5h3.1v-0.9h-2.3v-0.5h2.3v-0.9c-0.4,0-1,0-1.7,0.1h-0.2h-0.2h-0.2h-0.1l0-0.5
	c0.1,0,0.3,0,0.5,0c0.3,0,0.4,0,0.5,0c0.2-0.3,0.4-0.7,0.7-1.1h-1.4v-0.5h5v0.5h-3c-0.3,0.4-0.5,0.8-0.7,1.1c1.6,0,2.5-0.1,2.8-0.1
	c-0.2-0.2-0.5-0.4-0.8-0.6l0.4-0.3c0.6,0.4,1.2,0.8,1.6,1.2c0.1,0.1,0.1,0.1,0.2,0.2l-0.4,0.3c-0.1-0.1-0.3-0.3-0.4-0.5
	c-0.8,0-1.5,0-1.9,0.1v0.9h2.4v0.5h-2.4L78.4,36.7L78.4,36.7z M75.4,31.6v0.9h-0.5V31h3v-0.6h0.6V31h3v1.4h-0.5v-0.9H75.4z"/>
<path class="st0" d="M85.8,34.3h-0.6v-1h1v0.8c0,0.5-0.2,0.9-0.7,1.2c-0.1,0-0.1,0.1-0.1,0.1l-0.2-0.3
	C85.6,34.9,85.8,34.6,85.8,34.3z"/>
<path class="st0" d="M91.9,33.8l0.1,0.5c-0.1,0-0.3,0.1-0.5,0.2c-0.1,0-0.3,0.1-0.3,0.1v2.1c0,0.3-0.1,0.4-0.2,0.5c0,0,0,0-0.1,0
	c-0.2,0.1-0.5,0.1-0.9,0.1c0-0.1-0.1-0.3-0.2-0.5c0.2,0,0.5,0,0.7,0c0.1,0,0.1-0.1,0.1-0.1v-2c-0.4,0.1-0.7,0.2-0.9,0.3l-0.1-0.5
	c0.1,0,0.5-0.1,1-0.3v-1.7h-0.9V32h0.9v-1.5h0.5V32H92v0.5h-0.8V34L91.9,33.8z M94.5,35.6v1.2c0.2,0,0.5,0,0.7,0c0.8,0,1.3,0,1.5,0
	c-0.1,0.1-0.1,0.3-0.2,0.5h-1.4c-0.8,0-1.4-0.1-1.7-0.4c-0.3-0.2-0.5-0.5-0.7-0.9c-0.2,0.6-0.5,1.1-0.9,1.4
	c-0.1-0.1-0.3-0.3-0.4-0.3c0.6-0.5,1-1.3,1.1-2.5l0.5,0.1c0,0.3-0.1,0.6-0.1,0.8c0.2,0.6,0.5,1,1,1.2v-2.4h-1.9v-0.5h4.4v0.5h-2v0.9
	h1.6v0.5h-1.6V35.6z M96.1,30.8v2.5h-3.6v-2.5H96.1z M95.5,31.8v-0.6H93v0.6H95.5z M95.5,32.8v-0.6H93v0.6H95.5z"/>
<path class="st0" d="M98.9,30.5l0.5,0.2c-0.2,0.5-0.5,1.1-0.8,1.6v5.1h-0.5v-4.3c-0.3,0.4-0.5,0.7-0.8,0.9c-0.1-0.2-0.2-0.4-0.3-0.5
	c0.7-0.6,1.2-1.4,1.6-2.4C98.8,30.9,98.9,30.7,98.9,30.5z M100.6,35.5l0.5,0.2c-0.4,0.7-0.8,1.2-1.4,1.7c0,0-0.1,0.1-0.1,0.1
	c-0.1-0.1-0.3-0.3-0.5-0.4c0.5-0.4,0.9-0.9,1.3-1.4C100.5,35.6,100.5,35.6,100.6,35.5z M103,34.5h1.2v0.5h-5v-0.5h1.2v-1.9h-1v-0.5
	h1v-1.5h0.5v1.5h1.5v-1.5h0.5v1.5h1.1v0.5H103L103,34.5L103,34.5z M100.9,32.7v1.9h1.5v-1.9H100.9z M102.3,35.8l0.4-0.3
	c0.5,0.5,0.9,1,1.3,1.5c0,0,0.1,0.1,0.1,0.1l-0.5,0.3c-0.3-0.4-0.6-0.9-1.1-1.5C102.4,35.9,102.3,35.9,102.3,35.8z"/>
<path class="st0" d="M106.4,30.5l0.5,0.1c-0.2,0.5-0.5,1.1-0.8,1.6v5.2h-0.5v-4.4c-0.3,0.4-0.6,0.7-0.8,1c-0.1-0.2-0.2-0.4-0.3-0.5
	c0.7-0.6,1.2-1.4,1.7-2.4C106.2,30.9,106.2,30.7,106.4,30.5z M109.4,36.7h2.2v0.5h-4.9v-0.5h2.2v-1.9H107v-0.5h1.8v-1.7h-2V32h2.6
	c-0.4-0.4-0.9-0.7-1.6-1.1c0,0,0,0,0,0l0.4-0.4c0.8,0.4,1.3,0.8,1.7,1.2l-0.3,0.4h1.9v0.5h-2v1.7h1.8v0.5h-1.8L109.4,36.7
	L109.4,36.7z"/>
<path class="st0" d="M1.7,43.6h4.5v3H5.6v-0.4h-4c-0.2,1-0.5,1.8-1.1,2.4c-0.1-0.1-0.2-0.3-0.4-0.4c0,0,0,0,0,0
	c0.7-0.7,1-1.6,1.1-2.9c0-0.1,0-0.3,0-0.5v-2.4l0.4,0.1c1.8-0.3,3.1-0.5,3.9-0.8L6,42c-1,0.3-2.4,0.6-4.2,0.8L1.7,43.6L1.7,43.6z
	 M1.6,45.6h3.9v-1.5H1.7v0.7C1.7,45.1,1.6,45.4,1.6,45.6z"/>
<path class="st0" d="M14.2,44.7h-2.4c0,0.1-0.1,0.3-0.2,0.4c-0.1,0.1-0.1,0.3-0.1,0.3h2.7v0.5h-0.9c-0.1,0.6-0.4,1.1-0.7,1.5
	c0.6,0.3,1.1,0.5,1.5,0.8l-0.4,0.4c-0.4-0.3-0.9-0.5-1.5-0.8c-0.6,0.4-1.5,0.7-2.6,0.8c-0.1-0.2-0.1-0.4-0.2-0.5
	c1-0.1,1.8-0.3,2.3-0.6c-0.4-0.2-0.8-0.3-1-0.4l-0.1,0.2L10,47.2c0.2-0.3,0.4-0.7,0.6-1.2H9.5v-0.4l-0.7,0.2V48
	c0,0.3-0.1,0.5-0.2,0.5c0,0,0,0,0,0c-0.2,0.1-0.5,0.1-1,0.1c0-0.2-0.1-0.4-0.2-0.5c0.4,0,0.6,0,0.8,0c0.1,0,0.1-0.1,0.1-0.1v-2
	l-1,0.3l-0.1-0.5c0.2,0,0.6-0.1,1.2-0.3v-1.8h-1v-0.5h1v-1.5h0.5v1.5h0.7v0.5H8.8v1.5l0.7-0.2l0.1,0.5h1.2c0.1-0.3,0.3-0.5,0.3-0.8
	H9.4v-0.5h1.4c-0.1-0.4-0.1-0.8-0.3-1.2l0.4-0.1H9.8v-0.5h1.8v-0.8h0.5v0.8H14v0.5H13l0.3,0c-0.2,0.6-0.4,1-0.5,1.2h1.4L14.2,44.7
	L14.2,44.7z M12.7,45.9h-1.5c-0.1,0.1-0.2,0.4-0.4,0.8c0.4,0.1,0.8,0.3,1.2,0.4C12.4,46.8,12.6,46.4,12.7,45.9z M12.7,42.9H11
	c0.2,0.4,0.3,0.8,0.3,1.2l-0.2,0h1.4l-0.2,0C12.5,43.7,12.6,43.3,12.7,42.9z"/>
<path class="st0" d="M16.6,43.3l0.5,0.2c-0.2,0.3-0.4,0.6-0.6,0.9v4.1H16v-3.5c-0.3,0.3-0.6,0.6-0.9,0.8c-0.1-0.2-0.2-0.4-0.3-0.5
	c0.6-0.5,1.2-1,1.6-1.6C16.5,43.6,16.5,43.4,16.6,43.3z M16.5,41.6l0.5,0.2c-0.4,0.5-0.9,1.1-1.5,1.6c-0.1,0.1-0.2,0.2-0.4,0.3
	c-0.1-0.1-0.2-0.3-0.3-0.5c0.5-0.3,1-0.7,1.4-1.2C16.3,41.8,16.4,41.7,16.5,41.6z M21.9,44.6h-1.1v0.8h1v0.5h-1v1.9
	c0,0.3-0.1,0.4-0.2,0.5c0,0-0.1,0-0.1,0c-0.2,0.1-0.6,0.1-1.2,0.1c0-0.1-0.1-0.3-0.2-0.5c0.5,0,0.8,0,1,0c0.1,0,0.1-0.1,0.2-0.1
	v-1.9h-3.1v-0.5h3.1v-0.8h-3.2V44h2.1v-1h-1.7v-0.5h1.7v-0.9h0.5v0.9h1.8v0.5h-1.8v1h2.2V44.6z M17.7,46.4l0.5-0.3
	c0.4,0.5,0.7,0.9,0.9,1.3v0l-0.5,0.3c-0.2-0.4-0.4-0.8-0.8-1.2C17.7,46.5,17.7,46.4,17.7,46.4z"/>
<path class="st0" d="M25.1,42.9v0.5h-2.8v-0.5H25.1z M24.9,48.1h-1.8v0.4h-0.5v-2.5h2.3L24.9,48.1L24.9,48.1z M24.9,43.9v0.5h-2.3
	v-0.5H24.9z M22.6,45.4v-0.5h2.3v0.5H22.6z M24.9,41.9v0.5h-2.2v-0.5H24.9z M24.4,46.4h-1.3v1.3h1.3V46.4z M29.3,43.5H27
	c0,0.3,0,0.7-0.1,1.2H29c0,0,0,0.1,0,0.3c-0.1,1.7-0.2,2.8-0.3,3.1c0,0.1-0.1,0.2-0.1,0.2c-0.1,0.1-0.3,0.2-0.5,0.3h0
	c-0.2,0-0.5,0-0.9,0c0-0.2-0.1-0.4-0.2-0.5c0.3,0,0.6,0,0.9,0c0.1,0,0.2,0,0.3-0.1c0.1-0.1,0.3-0.9,0.3-2.1c0-0.2,0-0.4,0-0.6h-1.6
	c-0.2,1.5-0.7,2.5-1.4,3.2c-0.1,0.1-0.1,0.1-0.2,0.2c-0.1-0.1-0.2-0.3-0.4-0.4c0.8-0.6,1.2-1.6,1.4-3c0.1-0.4,0.1-1,0.1-1.7h-1.2V43
	H27v-1.4h0.5V43h1.8L29.3,43.5L29.3,43.5z"/>
<path class="st0" d="M35,43.5l0.4,0.3c-0.4,0.5-0.8,1-1.5,1.5c0.9,0.4,1.9,0.7,3,0.8c-0.1,0.2-0.3,0.3-0.4,0.5c-0.4,0-0.7-0.1-1-0.2
	v2.2h-0.6v-0.3h-3.1v0.3h-0.5v-2.1c-0.4,0.1-0.8,0.2-1.2,0.3c-0.1-0.2-0.2-0.4-0.3-0.5c1.1-0.2,2.1-0.5,3-1c-0.4-0.3-0.8-0.6-1-0.9
	c-0.4,0.3-0.8,0.5-1.2,0.8c-0.1-0.2-0.2-0.3-0.4-0.4c0.9-0.4,1.5-0.9,2-1.5c0.1-0.1,0.1-0.1,0.2-0.2l0.6,0.1
	c-0.1,0.2-0.3,0.4-0.4,0.5h2.3L35,43.5z M30.6,42.8v0.9h-0.5v-1.4H33v-0.7h0.6v0.7h2.9v1.4h-0.6v-0.9H30.6z M31.7,46.2h3.4
	c-0.7-0.2-1.3-0.4-1.8-0.7C32.8,45.8,32.2,46,31.7,46.2z M31.7,47.8h3.1v-1.1h-3.1V47.8z M32.1,43.9c0.3,0.4,0.7,0.7,1.1,0.9
	c0.5-0.3,0.9-0.6,1.2-0.9H32.1z"/>
<path class="st0" d="M40.2,44.1c0.6,0.5,1.1,1,1.6,1.6c0,0,0,0.1,0.1,0.1l-0.5,0.4c-0.5-0.7-1.1-1.2-1.7-1.7L40.2,44.1z"/>
<path class="st0" d="M51.6,42.8h-1.4c-0.1,0.2-0.2,0.4-0.4,0.8h1.6v4.2c0,0.3-0.1,0.5-0.3,0.6c0,0,0,0,0,0c-0.2,0.1-0.6,0.1-1.3,0.1
	c0-0.2-0.1-0.4-0.2-0.5c0.4,0,0.8,0,1.1,0c0.1,0,0.2-0.1,0.2-0.1v-3.7h-1.6v0.8c0,0.1,0,0.1,0.1,0.2c0,0,0.1,0,0.1,0h0.7
	c0.1,0,0.1,0,0.2-0.1c0-0.1,0-0.2,0-0.4c0.1,0.1,0.2,0.1,0.4,0.2c0,0.4-0.1,0.6-0.3,0.7c-0.1,0-0.2,0.1-0.3,0.1h-0.8
	c-0.3,0-0.5-0.1-0.6-0.2c0-0.1-0.1-0.2-0.1-0.4v-0.8h-0.9c-0.1,0.5-0.2,0.9-0.5,1.2c-0.2,0.2-0.6,0.3-1,0.4
	c-0.1-0.1-0.1-0.3-0.3-0.4c0.6-0.1,0.9-0.3,1.1-0.6c0.1-0.2,0.1-0.4,0.2-0.7h-1.4v4.4h-0.5v-4.9h1.5c-0.1-0.2-0.2-0.5-0.4-0.8H45
	v-0.5h3v-0.7h0.6v0.7h3V42.8z M49.8,47.8h-2.4v0.5h-0.5v-2.3h2.9V47.8z M47.4,43.6h1.6c0.2-0.3,0.3-0.6,0.4-0.8h-2.4
	C47.3,43.1,47.4,43.4,47.4,43.6z M49.2,46.3h-1.9v1h1.9V46.3z"/>
<path class="st0" d="M54.8,46.2L54.4,46c0.1-0.3,0.3-0.7,0.4-1.2h-0.7v3.2c0,0.3-0.1,0.4-0.2,0.5c0,0,0,0,0,0
	c-0.2,0.1-0.5,0.1-0.9,0.1c0-0.2-0.1-0.4-0.2-0.5c0.2,0,0.5,0,0.7,0c0.1,0,0.1,0,0.1-0.1v-2.5c-0.4,0.9-0.7,1.5-1.1,1.9
	c0-0.1-0.1-0.3-0.3-0.5c0.4-0.4,0.8-0.9,1.1-1.7c0-0.1,0.1-0.2,0.1-0.3h-1.2v-0.5h2c-0.4-0.3-0.9-0.7-1.6-0.9c0,0-0.1,0-0.1-0.1
	l0.4-0.4c0.2,0.1,0.5,0.2,0.8,0.4c0.3-0.2,0.5-0.5,0.8-0.8h-2.2V42h2.6l0.1,0l0.4,0.2c-0.3,0.5-0.7,0.9-1.2,1.3
	c0.3,0.1,0.4,0.3,0.7,0.5l-0.3,0.3h0.6l0.1,0l0.3,0.1c0,0,0,0.1-0.1,0.4c0.5-0.1,1-0.4,1.4-0.6c-0.3-0.3-0.6-0.6-0.8-0.9
	c-0.3,0.3-0.4,0.4-0.5,0.5c-0.1-0.1-0.3-0.3-0.5-0.3c0.5-0.4,1-0.9,1.3-1.6c0-0.1,0.1-0.2,0.1-0.3l0.5,0.1c-0.1,0.1-0.2,0.4-0.4,0.7
	h2.6v0.5h-0.6c-0.2,0.5-0.5,0.9-0.9,1.3c0.5,0.3,1.1,0.5,1.7,0.7c-0.1,0.2-0.3,0.3-0.4,0.5c-0.7-0.2-1.2-0.4-1.8-0.8
	c-0.5,0.3-1,0.6-1.7,0.8c0-0.1-0.1-0.2-0.2-0.3C55.1,45.5,55,45.9,54.8,46.2z M57.1,45.9h1.8c0,0,0,0.1,0,0.3
	c-0.1,1.2-0.3,1.9-0.4,2.1c0,0,0,0-0.1,0.1c-0.1,0.1-0.3,0.2-0.5,0.2c-0.3,0-0.6,0-0.8,0c0-0.2-0.1-0.4-0.1-0.5c0.3,0,0.5,0,0.8,0
	c0.1,0,0.2,0,0.3-0.1c0.1-0.1,0.3-0.7,0.4-1.6H57c-0.3,0.9-0.7,1.5-1.4,1.9c-0.2,0.1-0.4,0.2-0.7,0.3c-0.1-0.2-0.2-0.3-0.3-0.4
	c0.8-0.3,1.4-0.8,1.7-1.5c0-0.1,0.1-0.2,0.1-0.3h-1.2v-0.5h1.3c0-0.2,0.1-0.5,0.1-0.8h0.6C57.2,45.3,57.2,45.6,57.1,45.9z
	 M57.9,42.9h-1.6c0.2,0.4,0.5,0.7,0.9,1C57.4,43.6,57.7,43.2,57.9,42.9z"/>
<path class="st0" d="M64.3,44.7l0.6,0.2c-0.3,0.8-0.7,1.4-1.2,1.9c0.8,0.6,1.8,1.1,3.1,1.2c-0.1,0.1-0.3,0.3-0.4,0.5
	c-1.3-0.3-2.3-0.7-3.2-1.4c-0.8,0.6-1.8,1.1-3.1,1.4c-0.1-0.1-0.2-0.3-0.3-0.5c0,0,0,0,0,0c1.3-0.3,2.3-0.7,3.1-1.3
	c-0.5-0.5-0.9-1.2-1.2-1.9l0.5-0.2c0.3,0.7,0.6,1.2,1.1,1.7C63.7,45.9,64.1,45.4,64.3,44.7z M61.8,43.4l0.6,0.2
	c-0.4,0.6-1,1.2-1.8,1.7c-0.1,0.1-0.2,0.1-0.3,0.2c-0.2-0.2-0.3-0.4-0.5-0.4c0.7-0.4,1.3-0.8,1.8-1.4C61.7,43.6,61.8,43.5,61.8,43.4
	z M66.5,42.6v0.5h-6.7v-0.5h3v-1h0.6v1H66.5z M64.1,43.7l0.4-0.3c0.9,0.6,1.5,1.1,2,1.6c0,0,0.1,0.1,0.1,0.1l-0.5,0.4
	c-0.4-0.4-0.9-0.9-1.7-1.5C64.3,43.8,64.2,43.8,64.1,43.7z"/>
<path class="st0" d="M68.9,44.5L68.6,45c-0.3-0.3-0.7-0.5-1.3-0.8c0,0-0.1,0-0.1,0l0.3-0.4C68.1,43.9,68.6,44.2,68.9,44.5z
	 M68.8,45.6l0.4,0.4c-0.4,0.8-0.8,1.6-1.3,2.5l-0.5-0.4C67.9,47.3,68.4,46.5,68.8,45.6z M69.3,42.5L69,42.9
	c-0.3-0.3-0.7-0.5-1.3-0.8c0,0-0.1,0-0.1,0l0.3-0.4C68.5,41.9,68.9,42.2,69.3,42.5C69.3,42.4,69.3,42.5,69.3,42.5z M70,46v-0.8h0.5
	V46c0,0.8-0.2,1.5-0.5,2c-0.2,0.2-0.4,0.4-0.6,0.6c-0.1-0.1-0.3-0.3-0.4-0.4c0.6-0.4,0.9-1.1,1-1.9C70,46.2,70,46.1,70,46z
	 M69.5,44.9l-0.1-0.5c0.3,0,0.5,0,0.9,0c0.2-0.3,0.4-0.7,0.6-1.2h-1.6v-0.5h2v-1h0.6v1h2.3v0.5h-2.6c-0.3,0.5-0.5,0.9-0.7,1.2
	c0.2,0,0.4,0,0.8,0c0.6,0,1,0,1.3,0c-0.2-0.2-0.4-0.4-0.6-0.6l0.4-0.3c0.5,0.5,1,0.9,1.3,1.4c0,0.1,0.1,0.1,0.1,0.2l-0.5,0.3
	c-0.1-0.1-0.2-0.3-0.4-0.5C70.8,44.8,69.5,44.9,69.5,44.9z M71.3,48.2v-3h0.5v3H71.3z M73.4,48h0.2c0.1,0,0.1,0,0.2,0
	c0,0,0.1-0.1,0.1-0.2s0-0.4,0-0.8c0.1,0.1,0.2,0.1,0.4,0.2c0,0.5,0,0.8-0.1,0.9c0,0.1-0.1,0.3-0.2,0.3c-0.1,0.1-0.2,0.1-0.4,0.1
	h-0.4c-0.2,0-0.3,0-0.4-0.1c-0.1-0.1-0.1-0.3-0.1-0.5c0-0.1,0-0.1,0-0.2v-2.5h0.5v2.5C73.3,47.8,73.3,47.9,73.4,48
	C73.3,48,73.3,48,73.4,48z"/>
<path class="st0" d="M76.2,41.6l0.6,0.1c-0.1,0.5-0.3,0.8-0.4,1.1h1.3v5h-2.1v0.6h-0.5v-5.6H76C76.1,42.3,76.2,41.9,76.2,41.6z
	 M77.2,44.9v-1.6h-1.6v1.6H77.2z M75.6,47.3h1.6v-1.8h-1.6V47.3z M81.5,42.8v0.3c-0.1,2.4-0.2,3.9-0.3,4.4C81.1,47.8,81,48,81,48.1
	c-0.1,0.2-0.3,0.3-0.6,0.3h0c-0.2,0-0.6,0-1.1,0c0-0.2-0.1-0.4-0.2-0.5c0.3,0,0.7,0,1.1,0c0.1,0,0.3,0,0.3-0.1
	c0.2-0.2,0.3-0.9,0.4-2.2c0-0.6,0.1-1.3,0.1-2.3H79c-0.3,0.6-0.5,1-0.7,1.3c-0.1-0.1-0.2-0.2-0.5-0.3c0.5-0.7,0.9-1.6,1.2-2.8
	l0.5,0.1c-0.1,0.4-0.2,0.7-0.3,1.1H81.5z M80.3,46.2l-0.5,0.3c-0.2-0.4-0.6-1.1-1.2-1.7l0.4-0.3C79.6,45.2,80,45.8,80.3,46.2z"/>
<path class="st0" d="M89,45.4v0.5h-3.1v2.7h-0.6v-2.7h-3.1v-0.5h3.1v-2.7h-2.7v-0.5h6v0.5h-2.7v2.7H89z M83.1,43.2l0.5-0.1
	c0.4,0.7,0.6,1.2,0.7,1.7L83.8,45C83.7,44.4,83.5,43.9,83.1,43.2z M87.2,45l-0.5-0.2c0.3-0.5,0.6-1.1,0.8-1.8l0.6,0.2
	C87.8,44,87.5,44.6,87.2,45z"/>
<path class="st0" d="M93.6,42.8l0.4-0.3c0.7,0.6,1.3,1.2,1.8,1.7c0.1,0.1,0.2,0.3,0.3,0.4L95.7,45c-0.1-0.2-0.3-0.5-0.5-0.7
	c-0.7,0-2.6,0.1-5.7,0.3l0-0.6c0.2,0,0.5,0,1.1,0c0.5-0.8,0.9-1.6,1.3-2.3l0.6,0.2c-0.4,0.7-0.8,1.4-1.2,2.1c0.8,0,1.9-0.1,3.4-0.1
	C94.3,43.4,94,43.1,93.6,42.8z M90.3,48.6v-3.2h4.9v3.2h-0.6v-0.3h-3.7v0.3L90.3,48.6L90.3,48.6z M94.5,45.9h-3.7v1.8h3.7V45.9z"/>
<path class="st0" d="M99.2,45.1c0-0.3,0.1-0.6,0.4-0.8c0.2-0.1,0.4-0.2,0.6-0.2c0.3,0,0.6,0.1,0.8,0.4c0.1,0.2,0.2,0.4,0.2,0.7
	c0,0.3-0.1,0.6-0.4,0.8c-0.2,0.1-0.4,0.2-0.7,0.2c-0.3,0-0.6-0.1-0.8-0.4C99.3,45.5,99.2,45.3,99.2,45.1z M99.5,45.1
	c0,0.3,0.1,0.4,0.3,0.6c0.1,0.1,0.3,0.1,0.4,0.1c0.3,0,0.4-0.1,0.6-0.3c0.1-0.1,0.1-0.3,0.1-0.4c0-0.3-0.1-0.4-0.3-0.6
	c-0.1-0.1-0.3-0.1-0.4-0.1c-0.3,0-0.4,0.1-0.6,0.3C99.6,44.8,99.5,45,99.5,45.1z"/>
</svg>
