<svg width="210" height="67" viewBox="0 0 210 67" fill="none" xmlns="http://www.w3.org/2000/svg">
<path d="M18.8 15.9307C19.8 16.8307 20.4 17.3307 20.4 17.6307C20.4 17.8307 20.3 17.9307 20.2 17.9307H6.49998C3.99998 17.9307 2.39999 18.0307 1.79999 18.1307C1.69999 17.7307 1.49999 17.4307 1.29999 17.0307C2.29999 17.1307 4.09998 17.2307 6.49998 17.2307H16.4C17.1 16.3307 17.6 15.7307 18 15.5307C18.1 15.5307 18.1 15.5307 18.2 15.5307C18.4 15.6307 18.6 15.7307 18.8 15.9307ZM17.4 1.73071C18.4 2.63071 19 3.13069 19 3.43069C19 3.63069 18.9 3.73071 18.8 3.73071H7.29999C5.19999 3.73071 3.89998 3.83069 3.39998 3.93069C3.29998 3.53069 3.09998 3.23069 2.89998 2.83069C3.69998 2.93069 5.09999 3.0307 7.09999 3.0307H15.2C15.9 2.1307 16.4 1.53069 16.8 1.33069C16.9 1.33069 16.9 1.33069 17 1.33069C17 1.43069 17.2 1.53071 17.4 1.73071ZM15.9 8.23071C16.9 9.03071 17.3 9.53069 17.3 9.83069C17.3 10.0307 17.2 10.1307 17.1 10.1307H7.79999C6.09999 10.1307 4.99999 10.2307 4.59999 10.4307C4.49999 10.0307 4.29999 9.73069 4.09999 9.33069C4.69999 9.43069 5.79998 9.5307 7.39998 9.5307H13.7C14.4 8.6307 14.9 8.13069 15.2 7.93069C15.3 7.93069 15.3 7.93069 15.4 7.93069C15.5 8.03069 15.7 8.13071 15.9 8.23071Z" fill="#00404B"/>
<path d="M39.7 5.33069C40.7 6.13069 41.1 6.63069 41.1 6.93069C41.1 7.13069 41 7.23071 40.9 7.23071H33.3C34.1 11.1307 36.1 13.9307 39.1 15.7307C40 16.3307 40.8 16.6307 41.4 16.8307C41.4 17.0307 41.4 17.1307 41.3 17.2307C41 17.3307 40.8 17.3307 40.6 17.5307C40.4 17.7307 40.2 18.0307 40 18.4307C39.8 18.8307 39.6 19.0307 39.5 19.0307C39.3 19.0307 39 18.8307 38.5 18.4307C35.4 16.3307 33.5 12.6307 32.8 7.23071H32.4C31.7 13.7307 28.4 17.8307 22.5 19.4307C22.4 19.4307 22.4 19.3307 22.3 19.2307C26.8 16.8307 29.5 12.8307 30.2 7.23071H27.8C25.4 7.23071 23.9 7.33069 23.3 7.43069C23.2 7.03069 23 6.73069 22.8 6.33069C23.8 6.43069 25.4 6.5307 27.8 6.5307H30.2C30.3 5.7307 30.3 4.83069 30.3 3.93069C30.2 2.33069 30.1 1.13069 30 0.430695C32 0.730695 33.1 0.930707 33.1 1.13071C33.1 1.33071 32.9 1.53071 32.5 1.63071C32.5 2.63071 32.5 3.5307 32.4 4.5307C32.4 5.2307 32.4 5.9307 32.3 6.5307H37.4C38.1 5.6307 38.6 5.13069 38.9 4.93069C39 4.93069 39 4.93069 39.1 4.93069C39.3 5.13069 39.5 5.23069 39.7 5.33069Z" fill="#00404B"/>
<path d="M60.9 1.13071C61.9 2.03071 62.5 2.53069 62.5 2.83069C62.5 3.03069 62.4 3.13071 62.3 3.13071H54C53.4 4.63071 52.6 5.9307 51.6 6.9307H57.3C57.9 6.1307 58.3 5.63071 58.5 5.63071C58.7 5.63071 59 5.83071 59.4 6.13071C60 6.53071 60.3 6.83071 60.3 7.03071C60.3 7.13071 60.2 7.3307 59.9 7.4307C59.5 7.7307 59.3 7.8307 59.3 7.9307V14.5307C59.3 16.8307 59.4 18.3307 59.4 19.1307C59.4 19.5307 58.9 19.8307 58 19.8307C57.6 19.8307 57.5 19.6307 57.5 19.3307V18.0307H48.2V18.9307C48.1 19.4307 47.7 19.6307 47 19.6307C46.5 19.6307 46.3 19.5307 46.2 19.4307C46.2 17.3307 46.2 15.3307 46.3 13.3307V9.3307C46.3 7.6307 46.2 6.63069 46.1 6.33069L48.1 7.13071H51C51.3 6.03071 51.5 4.73069 51.7 3.33069H48.6C46.1 3.33069 44.5 3.43071 43.9 3.63071C43.8 3.23071 43.6 2.93071 43.4 2.53071C44.4 2.63071 46.2 2.73072 48.6 2.73072H58.6C59.3 1.83072 59.8 1.23071 60.2 1.03071C60.3 1.03071 60.3 1.03071 60.4 1.03071C60.5 0.830707 60.7 0.930713 60.9 1.13071ZM57.4 11.9307V7.4307H48.1V11.9307H57.4ZM57.4 17.4307V12.4307H48.1V17.4307H57.4Z" fill="#00404B"/>
<path d="M65.1 6.23071C64.9 6.13071 64.8 6.1307 64.7 6.0307C67 4.4307 68.6999 2.43071 69.8999 0.130707C71.5999 0.930707 72.3999 1.43071 72.3999 1.63071C72.3999 1.83071 72 1.93069 71.2 1.93069C70.8 2.33069 70.3999 2.73071 69.8999 3.13071V5.33069C69.8999 5.83069 70 6.43071 70 7.13071C70 7.43071 69.6 7.63071 69 7.63071C68.5 7.63071 68.2 7.63069 68.2 7.43069C68.2 7.13069 68.2 6.33071 68.2 5.13071V4.43069C67.1 5.13069 66.1 5.73071 65.1 6.23071ZM73.3 17.4307C73.3 17.6307 73.1 17.7307 72.8 17.7307C72.3 17.7307 72 17.7307 72 17.7307C70.4 18.6307 68.1 19.3307 65.1 19.6307C65 19.5307 65 19.5307 64.8 19.4307C66.4 18.9307 67.7 18.3307 68.7 17.8307C69.7 17.2307 70.3 16.7307 70.7 16.1307C72.5 16.8307 73.3 17.2307 73.3 17.4307ZM69.5 8.73071H78.2C78.8 8.03071 79.1999 7.73071 79.3999 7.63071C79.5999 7.63071 80 7.93069 80.6 8.33069C81.1 8.73069 81.3999 9.03071 81.3999 9.23071C81.3999 9.33071 81.3 9.53071 81 9.63071C80.6 9.93071 80.3999 10.0307 80.3999 10.1307V13.3307C80.4999 14.6307 80.5 15.4307 80.5 15.7307C80.5 16.2307 80.1 16.5307 79.3 16.5307C78.7 16.5307 78.3999 16.4307 78.3999 16.1307V15.6307H69.6V15.8307C69.5 16.3307 69.0999 16.5307 68.3999 16.5307C67.8999 16.5307 67.7 16.4307 67.6 16.3307C67.6 15.0307 67.6 13.7307 67.7 12.4307V9.93069C67.7 8.83069 67.6 8.2307 67.6 8.0307L69.5 8.73071ZM78.5 10.7307V9.33069H69.7V10.7307H78.5ZM78.5 12.9307V11.3307H69.7V12.9307H78.5ZM78.5 15.1307V13.4307H69.7V15.1307H78.5ZM76.2 1.13071C76.2 1.33071 75.8 1.53069 75.2 1.83069V3.43069C77.5 2.83069 79.3 1.8307 80.7 0.530701C80.9 0.630701 81.2999 0.930688 81.8999 1.33069C82.3999 1.73069 82.7 1.9307 82.7 2.0307C82.7 2.1307 82.6 2.23071 82.5 2.23071C81.9 2.13071 81.6 2.13071 81.5 2.13071C80.2 2.93071 78.1 3.43071 75.3 3.73071V4.93069C75.3 5.43069 75.6 5.73071 76.2 5.73071H80.1C80.8 5.73071 81.2 5.4307 81.5 5.0307C81.7 4.7307 81.9 4.03069 82.2 2.83069C82.4 2.83069 82.5 2.83069 82.5 2.83069V5.0307C82.5 5.2307 82.5999 5.33069 82.8999 5.43069C83.1999 5.63069 83.3 5.83069 83.3 5.93069C83.3 6.53069 82.7 6.8307 81.7 7.0307C80.8 7.1307 79.8 7.13071 78.8 7.13071C76.8 7.13071 75.6 7.1307 75.1 7.0307C74.1 7.0307 73.5 6.1307 73.5 4.5307V2.23071C73.5 1.23071 73.4999 0.630713 73.3999 0.230713C75.1999 0.730713 76.2 1.03071 76.2 1.13071ZM81.6 18.5307C81.6 18.7307 81.6 18.9307 81.5 19.1307C81.4 19.4307 81.2 19.6307 80.7 19.6307C80.4 19.6307 79.9 19.3307 79.3 18.7307C77.9 17.7307 76.6 17.0307 75.3 16.6307C75.3 16.5307 75.4 16.4307 75.5 16.2307C79.5 16.7307 81.6 17.4307 81.6 18.5307Z" fill="#00404B"/>
<path d="M94.2 13.7307L93.8 13.3307C94.6 12.6307 95 12.0307 95 11.3307C95 11.2307 94.9 11.1307 94.7 11.1307C93.7 10.9307 93.2 10.4307 93.2 9.63071C93.2 9.23071 93.3 8.93071 93.6 8.63071C93.9 8.33071 94.3 8.13071 94.8 8.13071C95.3 8.13071 95.7 8.33071 96 8.73071C96.2 9.03071 96.3999 9.43069 96.3999 9.83069C96.3999 11.4307 95.6 12.7307 94.2 13.7307Z" fill="#00404B"/>
<path d="M110.3 1.83069H120.9C121.5 1.03069 121.9 0.630707 122.1 0.630707C122.4 0.630707 122.7 0.930688 123.2 1.33069C123.7 1.73069 124 2.03071 124 2.23071C124 2.33071 123.9 2.4307 123.8 2.5307C123.6 2.7307 123.4 2.8307 123.1 3.0307C123.1 6.4307 123.1 9.43069 123 11.9307C123.1 14.8307 123.5 16.2307 124.1 16.2307C124.3 16.2307 124.7 15.3307 125.1 13.6307C125.2 13.6307 125.3 13.7307 125.3 13.7307C125 15.3307 124.9 16.4307 124.9 17.2307C124.9 17.5307 124.9 17.7307 125 17.9307C125.1 18.3307 125.2 18.7307 125.2 18.8307C125.2 19.1307 125.1 19.2307 124.8 19.3307C123.5 19.3307 122.4 17.9307 121.5 15.0307C121.2 13.7307 121 9.53069 121 2.33069H110V6.73071C110 9.43071 109.9 11.4307 109.7 12.8307C109.6 13.9307 109.3 15.0307 108.8 16.2307C108.1 17.8307 107.5 18.8307 106.9 19.4307C106.8 19.4307 106.7 19.3307 106.6 19.2307C107.1 17.9307 107.5 16.4307 107.8 14.5307C108.1 13.0307 108.2 10.4307 108.2 6.93069C108.2 4.63069 108.2 3.13071 108.2 2.63071C108.2 2.13071 108.2 1.6307 108.1 1.0307L110.3 1.83069ZM119.3 3.63071C120 4.23071 120.4 4.63069 120.5 4.83069C120.5 5.03069 120.4 5.13071 120.3 5.13071H116.4V7.73071H117.8C118.3 7.13071 118.6 6.73071 118.8 6.73071C119 6.73071 119.3 6.93071 119.8 7.23071C120.2 7.53071 120.5 7.83069 120.5 7.93069C120.5 8.03069 120.4 8.13071 120.2 8.23071C119.9 8.43071 119.8 8.53071 119.7 8.63071V11.1307C119.8 12.1307 119.8 12.7307 119.8 13.0307C119.8 13.4307 119.5 13.6307 118.9 13.6307C118.4 13.6307 118.2 13.5307 118.2 13.3307V12.6307H116.6V16.0307C117.6 16.0307 118.4 15.9307 119.1 15.8307C118.8 15.2307 118.4 14.6307 117.9 14.2307C117.9 14.2307 118 14.1307 118.1 14.0307C120.2 15.0307 121.3 16.1307 121.3 17.0307C121.3 17.4307 121.2 17.6307 121 17.8307C120.9 17.9307 120.7 18.0307 120.5 18.0307C120 18.0307 119.6 17.5307 119.4 16.6307C119.4 16.5307 119.3 16.3307 119.3 16.2307C117.7 16.7307 115.3 17.3307 112.1 17.9307C112 18.5307 111.8 18.8307 111.7 18.8307C111.6 18.8307 111.4 18.5307 111.2 18.0307C111 17.5307 110.8 16.8307 110.6 15.9307C111 16.0307 111.6 16.0307 112.5 16.0307C113.3 16.0307 114.1 16.0307 114.8 15.9307V12.5307H113.2V13.3307C113.1 13.7307 112.8 13.8307 112.2 13.8307C111.8 13.8307 111.6 13.8307 111.5 13.6307C111.5 12.5307 111.5 11.5307 111.6 10.5307V8.43069C111.6 7.53069 111.5 7.03069 111.5 6.83069L113.1 7.43069H114.8V4.83069H113.2C112.3 4.83069 111.7 4.9307 111.2 5.0307C111.1 4.7307 111 4.53071 110.9 4.23071C111.3 4.33071 112.1 4.33069 113.2 4.33069H118.1C118.4 3.93069 118.6 3.63069 118.9 3.33069C119 3.23069 119.1 3.23071 119.1 3.23071C119 3.43071 119.2 3.53071 119.3 3.63071ZM114.6 12.2307V8.33069H113V12.2307H114.6ZM116.4 12.2307H118V8.33069H116.4V12.2307Z" fill="#00404B"/>
<path d="M129.8 7.83069C129.8 8.13069 129.8 8.3307 129.7 8.5307C129.6 8.9307 129.3 9.13071 128.9 9.13071C128.7 9.13071 128.5 8.83071 128.2 8.23071C127.9 7.63071 127.5 7.13071 127.2 6.73071C127.3 6.73071 127.3 6.63069 127.3 6.43069C128.9 6.73069 129.8 7.13069 129.8 7.83069ZM132 6.23071C131.8 7.53071 131.5 9.3307 131 11.5307C130.6 13.6307 130.4 14.9307 130.4 15.2307C130.4 15.6307 130.5 16.2307 130.6 16.8307C130.8 17.4307 130.9 17.8307 130.9 18.2307C130.9 18.8307 130.6 19.1307 129.9 19.1307C129.1 19.1307 128.7 18.7307 128.7 18.0307C128.7 17.7307 128.7 17.0307 128.9 16.0307C128.9 15.4307 128.7 15.0307 128.4 14.8307C128.1 14.7307 127.8 14.5307 127.3 14.4307C127.3 14.3307 127.3 14.2307 127.4 14.1307C127.6 14.1307 127.8 14.1307 128.1 14.1307C128.7 14.1307 129.2 13.7307 129.4 12.9307L131.7 6.23071C131.8 6.23071 131.8 6.23071 132 6.23071ZM131.6 3.13071C131.6 3.43071 131.6 3.63069 131.5 3.83069C131.4 4.23069 131.1 4.43069 130.7 4.43069C130.5 4.43069 130.2 4.13069 129.8 3.43069C129.4 2.83069 128.9 2.23069 128.4 1.83069C128.5 1.83069 128.5 1.7307 128.5 1.5307C130.4 1.8307 131.5 2.33071 131.6 3.13071ZM138.5 2.23071C139.2 2.83071 139.6 3.23069 139.7 3.43069C139.7 3.63069 139.6 3.73071 139.5 3.73071H136.6V5.83069H137.2C137.7 5.33069 138 5.0307 138.2 5.0307C138.3 5.0307 138.7 5.2307 139.2 5.5307C139.6 5.8307 139.9 6.13071 139.9 6.23071C139.9 6.33071 139.8 6.4307 139.6 6.5307C139.3 6.7307 139.2 6.83069 139.1 6.93069V9.5307C139.2 10.5307 139.2 11.2307 139.2 11.5307C139.2 11.9307 138.9 12.1307 138.3 12.1307C137.8 12.1307 137.6 12.0307 137.6 11.8307V11.7307H136.9V14.4307H137.4C137.7 14.1307 137.9 13.8307 138.2 13.5307C138.3 13.4307 138.3 13.4307 138.4 13.4307C138.5 13.4307 138.6 13.5307 138.7 13.6307C139.3 14.2307 139.7 14.5307 139.7 14.7307C139.7 14.9307 139.6 15.0307 139.5 15.0307H136.9V16.1307C136.9 16.9307 137 17.9307 137 19.1307C137 19.4307 136.6 19.5307 135.9 19.6307C135.3 19.6307 135 19.5307 135 19.3307C135 18.7307 135.1 17.6307 135.1 16.0307V15.0307H134.2C133.3 15.0307 132.6 15.1307 132.2 15.2307C132.1 14.9307 132 14.7307 131.9 14.4307C132.3 14.5307 133.1 14.5307 134.2 14.5307H135.1V11.8307H134.4V11.9307C134.3 12.3307 134 12.4307 133.4 12.4307C133 12.4307 132.8 12.4307 132.7 12.2307C132.7 11.1307 132.7 10.0307 132.8 8.93069V6.83069C132.8 5.93069 132.7 5.33071 132.7 5.23071L134.1 5.83069H135.1V3.73071H134.6C133.7 3.73071 133.1 3.83069 132.6 3.93069C132.5 3.63069 132.5 3.4307 132.3 3.0307C132.7 3.1307 133.5 3.13071 134.6 3.13071H135.1V2.33069C135.1 1.53069 135.1 0.930695 135 0.430695C136.7 0.730695 137.5 0.930707 137.5 1.13071C137.5 1.33071 137.4 1.43069 137.2 1.43069C136.8 1.53069 136.7 1.73069 136.7 1.83069V3.23071H137.2C137.5 2.83071 137.7 2.53071 138 2.23071C138.1 2.13071 138.2 2.13071 138.2 2.13071C138.2 2.03071 138.3 2.13071 138.5 2.23071ZM137.4 8.5307V6.33069H134.1V8.5307H137.4ZM137.4 11.1307V9.13071H134.1V11.1307H137.4ZM141.3 13.7307C141.2 14.6307 140.8 15.6307 140.3 16.6307C139.6 18.0307 138.8 18.9307 138.1 19.3307C138 19.3307 137.9 19.2307 137.8 19.1307C138.5 18.0307 139 16.7307 139.5 15.1307C139.9 13.8307 140 11.6307 140.1 8.63071C140.1 5.73071 140.1 3.93071 140.1 3.23071C140.1 2.63071 140.1 1.93071 140 1.23071L141.6 1.93069H143.6C144 1.43069 144.3 1.03069 144.5 0.930695C144.7 0.930695 145 1.13069 145.4 1.43069C145.9 1.73069 146.2 2.03071 146.2 2.23071C146.2 2.33071 146.1 2.53071 145.8 2.63071C145.5 2.83071 145.4 2.9307 145.4 3.0307V17.2307C145.4 18.5307 144.6 19.2307 143 19.5307C142.9 19.5307 142.8 19.4307 142.8 19.1307C142.7 18.6307 142.4 18.2307 142.1 17.9307C141.7 17.6307 141.4 17.4307 141.2 17.4307C141.2 17.4307 141.2 17.3307 141.2 17.1307C141.7 17.2307 142.4 17.2307 143.4 17.2307C143.7 17.2307 143.8 17.1307 143.8 16.8307V12.0307H141.5C141.5 12.6307 141.4 13.2307 141.3 13.7307ZM141.7 8.63071C141.7 9.63071 141.7 10.6307 141.6 11.4307H143.8V7.0307H141.7V8.63071V8.63071ZM141.7 6.43069H143.8V2.5307H141.6L141.7 6.43069Z" fill="#00404B"/>
<path d="M150.5 7.73071C150.5 9.03071 150 9.63071 149.1 9.63071C148.5 9.63071 148.2 9.4307 148.2 9.0307C148.2 8.6307 148.4 8.23069 148.7 7.83069C149.1 7.23069 149.4 6.4307 149.5 5.5307C149.5 5.1307 149.6 4.83069 149.6 4.43069C149.7 4.43069 149.8 4.43069 149.9 4.33069C150.3 5.63069 150.5 6.73071 150.5 7.73071ZM153 0.730713C153.5 0.830713 153.8 0.930707 153.8 1.13071C153.8 1.23071 153.7 1.33069 153.4 1.43069C153 1.53069 152.9 1.63071 152.9 1.73071V14.6307C152.9 16.8307 153 18.3307 153 19.3307C153 19.6307 152.6 19.8307 151.7 19.8307C151.3 19.8307 151 19.7307 151 19.4307C151 18.6307 151 17.0307 151.1 14.5307V2.33069C151.1 1.73069 151 1.03069 150.9 0.430695C151.6 0.530695 152.3 0.630713 153 0.730713ZM155.7 7.23071C155.7 7.93071 155.4 8.23071 154.8 8.23071C154.3 8.23071 154 7.93069 154 7.43069C154 7.23069 154 6.9307 153.9 6.5307C153.8 6.1307 153.7 5.73071 153.6 5.23071C153.5 4.83071 153.4 4.53069 153.3 4.43069C153.5 4.33069 153.6 4.23071 153.6 4.23071C155 5.23071 155.7 6.23071 155.7 7.23071ZM164.5 4.13071C165 4.63071 165.3 4.9307 165.3 5.0307C165.3 5.2307 165 5.53069 164.4 5.83069V10.2307H164.7C165.3 8.93071 165.6 8.33069 165.8 8.33069C165.9 8.33069 166.2 8.63069 166.5 9.33069C166.9 9.93069 167.1 10.3307 167.1 10.5307C167.1 10.7307 167 10.8307 166.8 10.8307H160.9C161.4 12.5307 162.3 13.9307 163.7 15.0307C164.9 16.1307 166 16.8307 167.2 17.2307C167.2 17.3307 167.1 17.5307 167.1 17.7307C166.7 17.7307 166.4 17.9307 166.2 18.1307C166.1 18.2307 165.9 18.5307 165.7 18.9307C165.6 19.1307 165.4 19.2307 165.3 19.3307C164.9 19.3307 164.2 18.6307 163.1 17.5307C161.5 15.4307 160.6 13.2307 160.3 10.8307H159.9C159.1 15.1307 156.9 18.0307 153.5 19.4307C153.5 19.3307 153.4 19.3307 153.3 19.2307C154.7 18.2307 155.9 16.6307 156.9 14.5307C157.4 13.6307 157.8 12.3307 158 10.7307H157.1C155.1 10.7307 154 10.8307 154 10.9307C153.9 10.6307 153.7 10.3307 153.6 9.83069C153.9 9.93069 155 10.0307 156.8 10.1307H158C158.1 9.33071 158.1 8.43069 158.2 7.33069V4.93069H157.4C156 4.93069 155.2 5.03071 155.1 5.13071C155 4.83071 154.8 4.5307 154.7 4.0307C155.2 4.2307 156 4.23071 157.3 4.23071H158.1V2.73071C158.1 1.63071 158 0.730701 157.9 0.0307007C160 0.330701 161.1 0.530688 161.1 0.830688C161.1 1.03069 160.9 1.13071 160.6 1.23071C160.3 1.33071 160.2 1.53071 160.1 1.63071V4.13071H162C162.6 3.43071 163 3.13071 163.3 3.13071C163.7 3.53071 164.1 3.73071 164.5 4.13071ZM162.6 10.2307V5.0307H160.4V8.13071C160.4 8.83071 160.3 9.53071 160.2 10.1307H162.6V10.2307Z" fill="#00404B"/>
<path d="M171.9 2.73071H174.2C174.7 2.03071 175.1 1.73071 175.3 1.73071C175.5 1.73071 175.9 1.93069 176.4 2.33069C176.9 2.73069 177.2 3.03071 177.2 3.13071C177.2 3.23071 177.1 3.4307 176.8 3.5307C176.4 3.8307 176.2 3.9307 176.2 4.0307V10.7307C176.3 13.3307 176.3 15.0307 176.3 15.7307C176.3 16.2307 175.9 16.4307 175.2 16.4307C174.7 16.4307 174.4 16.3307 174.3 16.0307V14.8307H172V16.4307C171.9 16.8307 171.5 17.0307 170.8 17.0307C170.4 17.0307 170.1 16.9307 170 16.8307C170 14.4307 170 12.1307 170.1 9.93069V5.43069C170.1 3.53069 170 2.3307 170 2.0307L171.9 2.73071ZM174.4 8.33069V3.23071H172.1V8.33069H174.4ZM174.4 14.2307V8.83069H172.1V14.2307H174.4ZM188 10.7307C188.3 11.0307 188.4 11.2307 188.4 11.4307C188.4 11.6307 188.3 11.7307 188.1 11.7307H185.4V17.2307C185.4 18.4307 184.7 19.2307 183.3 19.7307C183.1 19.7307 182.9 19.5307 182.9 19.2307C182.8 18.7307 182.5 18.3307 181.8 17.9307C181.3 17.7307 180.8 17.5307 180.4 17.4307C180.4 17.3307 180.5 17.1307 180.5 17.0307C181.4 17.1307 182.3 17.1307 183.3 17.1307C183.5 17.1307 183.7 16.9307 183.7 16.5307V11.6307H179.2C178.6 11.6307 178 11.6307 177.4 11.7307C177.2 11.4307 177.1 11.0307 177 10.7307C177.6 10.9307 178.3 10.9307 179 10.9307H183.7C183.7 9.83069 183.6 8.93071 183.6 8.23071C184.1 8.33071 184.6 8.4307 185.1 8.5307C185.8 8.6307 186.2 8.73071 186.3 8.73071C186.4 8.73071 186.5 8.8307 186.5 9.0307C186.5 9.1307 186.3 9.33069 185.9 9.43069C185.7 9.53069 185.6 9.5307 185.6 9.5307V10.8307H185.9C186.5 10.1307 186.9 9.6307 187 9.5307C187.1 9.5307 187.1 9.5307 187.1 9.5307C187.1 9.7307 187.4 10.1307 188 10.7307ZM185.9 2.63071C186.7 3.33071 187.2 3.8307 187.3 4.0307C187.3 4.2307 187.2 4.33069 187.1 4.33069H182.8V7.63071H184.9C185.2 7.13071 185.6 6.73069 185.9 6.33069C186 6.23069 186.1 6.13071 186.2 6.13071C186.3 6.13071 186.4 6.23069 186.6 6.33069C187.4 7.13069 187.9 7.53069 188 7.83069C188 8.03069 187.9 8.13071 187.8 8.13071H179.1C178.2 8.13071 177.5 8.23071 177.1 8.23071C177 8.03071 176.9 7.73069 176.8 7.43069C177.3 7.53069 178 7.5307 179.1 7.5307H180.8V4.23071H179.6C178.7 4.23071 178.1 4.33069 177.6 4.43069C177.5 4.13069 177.4 3.93071 177.3 3.63071C177.7 3.73071 178.5 3.73071 179.6 3.73071H180.8V2.73071C180.8 1.83071 180.8 1.0307 180.7 0.530701C182.7 0.830701 183.7 1.03069 183.7 1.33069C183.7 1.53069 183.6 1.63071 183.3 1.63071C182.9 1.83071 182.7 1.9307 182.7 2.0307V3.73071H184.1C184.4 3.23071 184.8 2.8307 185.1 2.5307C185.2 2.4307 185.3 2.33069 185.4 2.33069C185.6 2.43069 185.7 2.53071 185.9 2.63071ZM180.2 13.0307C181.1 13.6307 181.5 14.3307 181.5 15.1307C181.5 15.6307 181.4 15.9307 181.1 16.1307C181 16.2307 180.7 16.3307 180.4 16.3307C179.9 16.3307 179.6 15.9307 179.5 15.1307C179.3 14.4307 179.1 13.9307 178.9 13.5307C178.8 13.2307 178.5 13.0307 178.3 12.7307C178.3 12.6307 178.4 12.6307 178.5 12.5307C179.2 12.5307 179.8 12.7307 180.2 13.0307Z" fill="#00404B"/>
<path d="M201.7 1.13071C201.7 1.33071 201.6 1.43069 201.3 1.43069C200.9 1.63069 200.7 1.73069 200.7 1.83069V7.33069H205.7C206.3 6.63069 206.7 6.33069 206.9 6.33069C207.1 6.43069 207.4 6.53069 207.8 6.83069C208.4 7.23069 208.7 7.53071 208.7 7.73071C208.7 7.93071 208.6 8.03071 208.4 8.13071C208.2 8.23071 208 8.3307 207.9 8.5307V17.0307C207.9 18.3307 207.1 19.1307 205.5 19.4307C205.2 19.3307 205 19.2307 205 19.0307C204.9 18.5307 204.6 18.2307 204.3 18.0307C204 17.8307 203.4 17.6307 202.7 17.3307C202.7 17.2307 202.7 17.1307 202.7 17.0307C203.7 17.1307 204.6 17.2307 205.3 17.2307C205.8 17.2307 206 17.1307 206 16.8307V8.0307H193.9V18.8307C193.8 19.2307 193.4 19.4307 192.7 19.4307C192.3 19.4307 192 19.3307 191.9 19.2307C191.9 17.2307 191.9 15.3307 192 13.4307V9.63071C192 8.03071 191.9 7.03071 191.8 6.73071L193.7 7.43069H198.8V2.63071C198.8 1.73071 198.8 0.930695 198.7 0.430695C200.7 0.630695 201.7 0.930707 201.7 1.13071ZM196.7 5.43069C196.7 6.03069 196.6 6.43071 196.4 6.63071C196.2 6.83071 196 6.93069 195.7 6.93069C195.4 6.93069 195 6.43071 194.7 5.23071C194.2 3.93071 193.4 2.83069 192.4 1.83069C192.4 1.73069 192.5 1.6307 192.5 1.5307C195.2 2.6307 196.6 3.93069 196.7 5.43069ZM197.7 10.4307H201.3C201.8 9.73069 202.2 9.43069 202.4 9.43069C202.6 9.43069 203 9.6307 203.5 10.0307C204 10.4307 204.3 10.7307 204.3 10.8307C204.3 10.9307 204.2 11.1307 204 11.2307C203.7 11.5307 203.5 11.6307 203.4 11.7307V13.8307C203.5 14.6307 203.5 15.1307 203.5 15.4307C203.5 15.9307 203.1 16.1307 202.4 16.1307C201.9 16.1307 201.6 16.0307 201.5 15.7307V15.1307H198V15.9307C197.9 16.3307 197.5 16.5307 196.9 16.5307C196.5 16.5307 196.2 16.4307 196.1 16.3307C196.1 15.3307 196.1 14.2307 196.2 13.2307V11.2307C196.2 10.3307 196.1 9.83071 196 9.73071L197.7 10.4307ZM201.6 10.9307H198V14.6307H201.6V10.9307ZM208 2.63071C208 2.83071 207.6 2.9307 206.9 3.0307C206.1 4.3307 204.6 5.63069 202.6 6.93069C202.4 6.93069 202.3 6.83071 202.1 6.73071C203.6 4.93071 204.7 3.13071 205.2 1.13071C207 1.93071 208 2.43071 208 2.63071Z" fill="#00404B"/>
<path d="M18.3 31.1307C19.2 31.9307 19.6 32.3307 19.6 32.5307C19.6 32.7307 19.5 32.8307 19.4 32.8307H11.5V34.9307H15C15.5 34.3307 15.9 34.0307 16.1 34.0307C16.3 34.0307 16.7 34.2307 17.2 34.6307C17.7 35.0307 18 35.3307 18 35.4307C18 35.5307 17.9 35.7307 17.7 35.8307C17.4 36.1307 17.2 36.2307 17.2 36.3307V39.5307C17.3 40.8307 17.3 41.6307 17.3 41.9307C17.3 42.4307 16.9 42.6307 16.2 42.6307C15.7 42.6307 15.4 42.5307 15.3 42.2307V41.7307H11.5V43.3307C11.5 43.6307 11.5 44.0307 11.5 44.2307H16.7C17.4 43.3307 17.9 42.8307 18.2 42.6307C18.2 42.6307 18.3 42.6307 18.4 42.6307C18.6 42.7307 18.8 42.8307 19 43.0307C19.9 43.8307 20.4 44.3307 20.4 44.6307C20.4 44.8307 20.3 44.9307 20.2 44.9307H11.5C11.5 46.5307 11.5 47.6307 11.6 48.4307C11.6 48.8307 11.1 48.9307 10.2 48.9307C9.69997 48.9307 9.49997 48.8307 9.49997 48.5307C9.49997 47.8307 9.49998 46.7307 9.59998 44.9307H6.29997C3.79997 44.9307 2.19998 45.0307 1.59998 45.1307C1.49998 44.7307 1.29998 44.4307 1.09998 44.0307C2.09998 44.1307 3.89997 44.2307 6.49997 44.2307H9.59998V41.7307H5.99997V42.2307C5.89997 42.6307 5.49997 42.8307 4.79997 42.8307C4.39997 42.8307 4.09997 42.7307 3.99997 42.6307C3.99997 41.3307 3.99998 40.0307 4.09998 38.7307V36.1307C4.09998 35.0307 3.99997 34.4307 3.99997 34.1307L5.79997 34.8307H9.59998V32.7307H6.59998C4.19998 32.7307 2.79997 32.8307 2.19997 32.9307C2.09997 32.5307 1.89997 32.2307 1.69997 31.8307C2.69997 31.9307 4.29997 32.0307 6.69997 32.0307H9.59998V31.4307C9.59998 30.7307 9.49996 30.1307 9.39996 29.4307C10.1 29.5307 10.9 29.6307 11.7 29.7307C12.3 29.8307 12.6 30.0307 12.6 30.1307C12.6 30.2307 12.5 30.3307 12.2 30.4307C11.8 30.5307 11.6 30.7307 11.6 30.7307V31.9307H16.3C16.9 31.1307 17.4 30.6307 17.7 30.5307C17.7 30.5307 17.8 30.5307 17.9 30.5307C17.9 30.9307 18.1 31.0307 18.3 31.1307ZM9.59998 37.9307V35.5307H5.99997V37.9307H9.59998ZM9.59998 41.3307V38.5307H5.99997V41.3307H9.59998ZM15.4 37.9307V35.5307H11.6V37.9307H15.4ZM15.4 41.3307V38.5307H11.6V41.3307H15.4Z" fill="#00404B"/>
<path d="M30.2 33.0307C31 33.7307 31.5 34.2307 31.6 34.4307C31.6 34.6307 31.5 34.7307 31.4 34.7307H24.4C23.5 34.7307 22.8 34.8307 22.4 34.9307C22.3 34.6307 22.2 34.4307 22.1 34.0307C22.6 34.1307 23.3 34.1307 24.4 34.1307H28.6C28.9 33.7307 29.3 33.3307 29.6 32.9307C29.7 32.8307 29.8 32.7307 29.9 32.7307C29.9 32.7307 30 32.8307 30.2 33.0307ZM31 36.6307C31 36.8307 30.6 37.0307 29.9 37.2307C29.4 39.8307 28.6 42.0307 27.6 43.9307C28.8 43.7307 29.9 43.5307 30.8 43.2307C30.8 43.2307 30.9 43.3307 30.9 43.4307C29.2 44.6307 26.9 45.6307 23.8 46.5307C23.8 46.9307 23.7 47.2307 23.6 47.2307C23.5 47.2307 23.3 47.0307 23.1 46.6307C22.9 46.2307 22.6 45.5307 22.2 44.6307C24 44.5307 25.5 44.3307 26.9 44.1307C27.6 41.2307 28 38.3307 28.2 35.4307C30 36.0307 31 36.4307 31 36.6307ZM26.3 41.5307C26.3 42.5307 25.9 43.0307 25.2 43.1307C24.7 43.1307 24.3 42.8307 24.3 42.2307C24.3 41.9307 24.3 41.4307 24.3 40.7307C24.3 40.2307 24.3 39.4307 24.3 38.4307C24.2 37.1307 24 36.2307 23.7 35.7307C23.8 35.7307 23.9 35.6307 24 35.6307C25.4 37.7307 26.2 39.6307 26.3 41.5307ZM27.7 32.3307C27.7 32.8307 27.6 33.1307 27.3 33.3307C27.1 33.5307 26.9 33.5307 26.6 33.5307C26.2 33.5307 26 33.1307 25.9 32.2307C25.7 31.2307 25.4 30.5307 24.9 29.9307C25 29.9307 25 29.8307 25.2 29.7307C26.8 30.6307 27.7 31.5307 27.7 32.3307ZM37.2 30.4307C37.2 30.6307 37.1 30.7307 36.8 30.7307C36.4 30.9307 36.2 31.0307 36.2 31.1307V34.4307H38.2C38.8 33.6307 39.2 33.1307 39.4 32.9307H39.5C39.7 33.0307 40 33.2307 40.4 33.6307C41 34.1307 41.3 34.5307 41.3 34.7307C41.3 34.9307 41.3 35.0307 41.2 35.1307H36.1V39.9307H37.6C38.1 39.2307 38.5 38.9307 38.7 38.8307C38.9 38.8307 39.3 39.0307 39.8 39.4307C40.3 39.8307 40.6 40.1307 40.6 40.2307C40.6 40.3307 40.5 40.5307 40.3 40.6307C40 40.8307 39.8 41.0307 39.8 41.1307V45.0307C39.9 46.5307 39.9 47.5307 39.9 47.9307C39.9 48.4307 39.5 48.6307 38.8 48.6307C38.3 48.6307 38 48.5307 37.9 48.2307V46.7307H32.9V48.1307C32.8 48.5307 32.4 48.7307 31.7 48.7307C31.3 48.7307 31 48.6307 30.9 48.5307C30.9 47.0307 30.9 45.6307 31 44.2307V41.3307C31 40.1307 30.9 39.3307 30.9 39.1307L32.7 39.8307H34.2V31.7307C34.2 30.8307 34.2 30.0307 34.1 29.5307C36.2 29.9307 37.2 30.2307 37.2 30.4307ZM38.1 40.5307H33.1V46.3307H38.1V40.5307Z" fill="#00404B"/>
<path d="M43.6 35.2307C43.5 34.9307 43.3 34.6307 43.2 34.1307C43.5 34.2307 44.3999 34.3307 45.8999 34.4307V31.3307C45.8999 30.7307 45.8 30.1307 45.7 29.6307C46.3 29.7307 46.9 29.8307 47.6 29.9307C48.1 30.0307 48.3 30.1307 48.3 30.3307C48.3 30.4307 48.2 30.5307 48 30.5307C47.7 30.6307 47.5 30.7307 47.5 30.8307V34.4307C47.9 33.6307 48.1999 33.2307 48.3999 33.2307C48.4999 33.2307 48.7 33.4307 49 33.9307C49.3 34.3307 49.4 34.6307 49.5 34.8307C49.5 35.0307 49.4 35.1307 49.3 35.1307H47.6V36.7307C48.9 37.6307 49.5 38.5307 49.5 39.3307C49.5 39.6307 49.4 39.8307 49.3 39.8307C49.2 39.9307 49.0999 39.9307 48.8999 39.9307C48.4999 39.9307 48.2 39.5307 48 38.6307C47.9 38.1307 47.7 37.7307 47.5 37.4307V44.1307C47.5 46.1307 47.6 47.6307 47.6 48.4307C47.6 48.7307 47.1999 48.9307 46.3999 48.9307C45.9999 48.9307 45.8 48.8307 45.8 48.5307C45.8 47.8307 45.7999 46.3307 45.8999 44.0307V39.5307C45.1999 41.5307 44.4 43.0307 43.5 44.1307C43.4 44.1307 43.3 44.0307 43.2 43.8307C44.4 41.2307 45.2 38.3307 45.7 35.0307C44.3 35.1307 43.6 35.1307 43.6 35.2307ZM61.6 40.0307C62 40.4307 62.3 40.7307 62.3 40.8307C62.3 41.0307 62.2 41.1307 62.1 41.1307H57.1C57.2 41.5307 57.2999 41.9307 57.3999 42.2307C57.5999 42.7307 57.8 43.1307 58 43.5307C58.5 42.9307 58.9 42.2307 59.3 41.5307C60.6 42.3307 61.3 42.8307 61.3 43.1307C61.3 43.2307 61.2 43.2307 61 43.2307C60.5 43.2307 60.3 43.2307 60.2 43.2307C59.8 43.8307 59.3 44.3307 58.8 44.8307C59.3 45.5307 59.9 46.0307 60.5 46.2307C60.9 46.2307 61.3 45.3307 61.7 43.6307C61.8 43.6307 61.9 43.7307 62 43.7307C61.9 44.2307 61.9 45.1307 61.8 46.4307C61.8 46.8307 61.9 47.1307 62.2 47.3307C62.4 47.5307 62.5 47.7307 62.5 48.0307C62.5 48.3307 62.1 48.5307 61.3 48.5307C59.7 48.3307 58.5 47.4307 57.5 45.9307C57.3 46.0307 57.0999 46.2307 56.8999 46.3307C55.1999 47.3307 53.3 48.1307 51.3 48.5307C51.2 48.4307 51.2 48.3307 51.1 48.2307C52.9 47.5307 54.4999 46.7307 55.8999 45.6307C56.2999 45.3307 56.5999 45.1307 56.8999 44.8307C56.7999 44.6307 56.7 44.4307 56.6 44.1307C56.2 43.3307 55.9 42.3307 55.6 41.2307H52.8C52.8 41.7307 52.7 42.0307 52.7 42.3307C53.1 42.4307 53.5 42.6307 53.8 42.8307C54.7 43.3307 55.2 43.9307 55.2 44.6307C55.2 44.9307 55.0999 45.1307 54.8999 45.2307C54.7999 45.3307 54.7 45.3307 54.5 45.3307C53.9 45.3307 53.5 44.9307 53.2 44.2307C53 43.7307 52.8 43.3307 52.5 43.0307C52 45.4307 50.5999 47.2307 48.3999 48.5307C48.3999 48.4307 48.3 48.4307 48.3 48.3307C50.1 46.4307 51.1 44.1307 51.1 41.2307C49.8 41.2307 49.1 41.3307 49.1 41.4307C49 41.1307 48.8 40.8307 48.7 40.3307C49 40.4307 49.7 40.5307 51.1 40.6307C51.1 39.6307 51.1 38.9307 51 38.6307C52.7 38.8307 53.6 39.0307 53.6 39.3307C53.6 39.5307 53.3 39.6307 52.8 39.6307C52.8 40.0307 52.8 40.3307 52.8 40.6307H55.3999C54.9999 38.4307 54.7 35.8307 54.7 32.5307C54.7 31.9307 54.6 31.3307 54.6 30.6307C54.6 30.1307 54.6 29.7307 54.5 29.5307C56.3 29.8307 57.1 30.1307 57.1 30.3307C57.1 30.5307 56.8 30.7307 56.2 30.9307C56.2 35.1307 56.4999 38.4307 56.8999 40.5307H59.6C60.2 39.8307 60.6 39.4307 60.8 39.4307C61 39.3307 61.2 39.5307 61.6 40.0307ZM53.3999 31.0307C53.3999 31.1307 53.0999 31.3307 52.3999 31.3307C51.9999 32.2307 51.5 33.0307 50.8 33.8307C51.2 33.8307 51.7 33.9307 52.2 33.9307C52.4 33.4307 52.5 33.0307 52.6 32.5307C53.8 33.0307 54.3999 33.3307 54.3999 33.4307C54.3999 33.5307 54.1 33.6307 53.7 33.7307C53.2 34.8307 52.3 35.9307 51.1 37.0307C51.8 37.0307 52.5 37.0307 53.3 37.0307C53.2 36.6307 52.9999 36.2307 52.8999 35.9307C52.8999 35.9307 53 35.8307 53.1 35.8307C54.1 36.5307 54.7 37.2307 54.7 37.8307C54.7 38.1307 54.5999 38.4307 54.3999 38.5307C54.2999 38.6307 54.0999 38.7307 53.8999 38.7307C53.6999 38.7307 53.6 38.4307 53.5 37.7307V37.6307C52.8 38.0307 51.6999 38.3307 50.3999 38.6307C50.2999 38.9307 50.3 39.0307 50.2 39.0307C50.2 39.1307 50.1 39.1307 50.1 39.1307C50 39.1307 49.8 38.4307 49.5 37.1307C49.8 37.1307 50.2 37.1307 50.6 37.1307C51.1 36.3307 51.6 35.5307 52 34.7307C51.5 34.9307 50.9999 35.1307 50.3999 35.3307C50.2999 35.6307 50.3 35.7307 50.2 35.7307C50.2 35.8307 50.1 35.8307 50.1 35.8307C50 35.8307 49.8 35.1307 49.5 33.8307C49.8 33.8307 50.0999 33.9307 50.3999 33.9307C50.8999 32.5307 51.2 31.3307 51.2 30.2307C52.7 30.5307 53.3999 30.8307 53.3999 31.0307ZM60.5 30.7307C60.5 30.8307 60.2 30.9307 59.5 31.0307C59.1 31.9307 58.6 32.8307 57.8 33.6307C58.3 33.6307 58.8999 33.6307 59.3999 33.6307C59.5999 33.1307 59.7999 32.7307 59.8999 32.2307C61.1999 32.7307 61.8999 33.0307 61.8999 33.2307C61.8999 33.3307 61.6 33.4307 61.1 33.5307C60.5 34.5307 59.6 35.6307 58.3 36.8307C59 36.8307 59.7 36.8307 60.5 36.8307C60.4 36.4307 60.2 36.0307 60 35.8307C60 35.8307 60.1 35.7307 60.2 35.6307C61.4 36.3307 62 37.0307 62 37.7307C62 38.1307 61.9 38.3307 61.7 38.5307C61.5 38.6307 61.4 38.7307 61.2 38.7307C61 38.7307 60.8 38.4307 60.7 37.7307C60.7 37.6307 60.7 37.5307 60.6 37.4307C60 37.7307 59.2 38.0307 58.3 38.2307C58.6 38.3307 58.8 38.4307 59 38.5307C59.5 38.8307 59.8 39.2307 59.8 39.5307C59.8 39.9307 59.7 40.1307 59.5 40.3307C59.4 40.4307 59.2 40.4307 59 40.4307C58.8 40.4307 58.6 40.2307 58.6 39.8307C58.5 39.4307 58.4 39.1307 58.3 39.0307C58.2 38.8307 58 38.6307 57.8 38.4307C57.7 38.4307 57.4999 38.5307 57.3999 38.5307C57.2999 38.8307 57.3 38.9307 57.2 38.9307L57.1 39.0307C57 39.0307 56.8 38.3307 56.5 37.0307H57.5C58.1 36.2307 58.6 35.3307 59 34.5307C58.5 34.7307 57.9 34.9307 57.1 35.2307C57 35.4307 57 35.5307 57 35.6307L56.8999 35.7307C56.7999 35.7307 56.6 35.1307 56.3 33.9307C56.6 33.9307 56.9 33.9307 57.2 33.9307C57.7 32.4307 58 31.1307 58.1 30.0307C59.7 30.1307 60.5 30.5307 60.5 30.7307Z" fill="#00404B"/>
<path d="M71.1 30.8307C71.1 31.0307 70.7 31.1307 69.9 31.2307C69.2 32.4307 68.1 33.6307 66.8 34.7307C67.5 34.8307 68.2 34.8307 69.1 34.8307C70.3 34.8307 71.4 34.8307 72.3 34.7307C72 33.8307 71.6 33.1307 71.1 32.6307C71.1 32.6307 71.2 32.5307 71.3 32.4307C73.4 33.6307 74.4 34.7307 74.4 35.8307C74.4 36.2307 74.3 36.5307 74.1 36.6307C73.9 36.7307 73.7 36.8307 73.5 36.8307C73 36.8307 72.7 36.3307 72.5 35.3307C72.5 35.2307 72.4 35.1307 72.4 35.0307C70.5 35.8307 68.2 36.3307 65.5 36.4307C65.4 36.7307 65.3 36.9307 65.1 36.9307C65 36.9307 64.9 36.7307 64.8 36.2307C64.6 35.4307 64.5 34.8307 64.4 34.3307C64.8 34.4307 65.3 34.5307 66 34.5307C67.3 32.8307 68.1 31.1307 68.4 29.4307C70.2 30.2307 71.1 30.6307 71.1 30.8307ZM67.4 37.9307H71.1C71.7 37.3307 72.1 37.0307 72.2 37.0307C72.4 37.0307 72.7 37.2307 73.1 37.5307C73.7 37.9307 74 38.2307 74 38.4307C74 38.6307 73.9 38.7307 73.7 38.8307C73.5 38.9307 73.4 39.0307 73.2 39.2307V46.3307C73.2 47.6307 72.5 48.4307 71.2 48.7307C70.9 48.6307 70.8 48.5307 70.8 48.3307C70.7 47.8307 70.5 47.5307 70.2 47.3307C69.9 47.1307 69.5 46.9307 68.9 46.6307C68.9 46.5307 68.9 46.4307 68.9 46.3307C69.6 46.4307 70.2 46.5307 70.6 46.5307C71 46.5307 71.3 46.4307 71.3 46.1307V43.8307H67.5V48.3307C67.4 48.7307 67 48.9307 66.4 48.9307C66 48.9307 65.7 48.8307 65.6 48.7307C65.6 46.9307 65.6 45.1307 65.7 43.4307V39.9307C65.7 38.4307 65.6 37.5307 65.6 37.3307L67.4 37.9307ZM71.4 40.4307V38.4307H67.6V40.4307H71.4ZM71.4 43.2307V41.0307H67.6V43.2307H71.4ZM77.8 39.9307C77.8 40.1307 77.4 40.4307 76.7 40.6307V43.3307C78.5 42.4307 79.9 41.4307 80.7 40.2307C82.1 41.2307 82.8 41.8307 82.8 41.8307C82.8 42.0307 82.7 42.1307 82.5 42.1307C82.2 42.1307 81.9 42.1307 81.6 42.0307C80.3 42.7307 78.6 43.3307 76.6 43.9307V45.7307C76.6 46.3307 76.9 46.6307 77.6 46.7307H79.6C80.4 46.7307 80.9 46.4307 81.2 45.9307C81.4 45.6307 81.7 44.8307 82 43.6307C82.2 43.6307 82.4 43.6307 82.4 43.6307V45.9307C82.4 46.1307 82.6 46.2307 82.9 46.3307C83.3 46.5307 83.5 46.7307 83.5 46.8307C83.5 47.5307 82.8 47.9307 81.6 48.1307C80.9 48.2307 80.2 48.3307 79.4 48.3307C77.9 48.3307 77 48.3307 76.6 48.2307C75.5 48.1307 74.9 47.2307 74.9 45.3307V41.1307C74.9 40.1307 74.8 39.3307 74.8 39.0307C76.8 39.4307 77.8 39.7307 77.8 39.9307ZM77.6 30.3307C77.6 30.5307 77.2 30.7307 76.6 31.0307V33.8307C78.4 33.0307 79.6 32.0307 80.5 30.9307C81.9 31.9307 82.6 32.5307 82.6 32.5307C82.6 32.7307 82.5 32.8307 82.3 32.8307C82 32.8307 81.7 32.8307 81.4 32.8307C80.1 33.5307 78.5 34.0307 76.6 34.5307V36.2307C76.6 36.8307 76.9 37.1307 77.5 37.1307H79.7C80.4 37.1307 80.9 36.8307 81.1 36.4307C81.3 36.1307 81.5 35.4307 81.8 34.3307C82 34.3307 82.1 34.3307 82.2 34.3307V36.4307C82.2 36.6307 82.4 36.7307 82.7 36.8307C83.1 37.0307 83.2 37.1307 83.2 37.3307C83.2 37.9307 82.6 38.3307 81.5 38.5307C80.8 38.6307 80.1 38.6307 79.3 38.6307C77.8 38.6307 76.8 38.6307 76.4 38.5307C75.4 38.5307 74.8 37.6307 74.8 35.8307V31.6307C74.8 30.6307 74.8 30.0307 74.7 29.6307C76.7 29.9307 77.6 30.2307 77.6 30.3307Z" fill="#00404B"/>
<path d="M94.2 42.9307L93.8 42.5307C94.6 41.8307 95 41.2307 95 40.5307C95 40.4307 94.9 40.3307 94.7 40.3307C93.7 40.1307 93.2 39.6307 93.2 38.8307C93.2 38.4307 93.3 38.1307 93.6 37.8307C93.9 37.5307 94.3 37.3307 94.8 37.3307C95.3 37.3307 95.7 37.5307 96 37.9307C96.2 38.2307 96.3999 38.6307 96.3999 39.0307C96.3999 40.6307 95.6 41.9307 94.2 42.9307Z" fill="#00404B"/>
<path d="M115.7 34.5307C116.1 34.9307 116.3 35.2307 116.3 35.3307C116.3 35.4307 116.1 35.6307 115.7 35.7307C115.5 35.8307 115.4 35.8307 115.3 35.9307C114.7 37.8307 114.3 39.1307 114 40.0307H114.4C114.9 39.4307 115.2 39.1307 115.3 39.1307C115.5 39.1307 115.8 39.3307 116.2 39.6307C116.7 40.0307 117 40.2307 117 40.3307C117 40.4307 116.9 40.6307 116.6 40.7307C116.3 40.8307 116.2 40.9307 116.2 41.0307C115.8 42.7307 115.1 44.1307 114.3 45.2307C114.9 45.7307 115.6 46.0307 116.3 46.1307C117.6 46.4307 119.3 46.5307 121.1 46.5307C123.2 46.5307 124.7 46.4307 125.3 46.2307C125.3 46.3307 125.3 46.4307 125.3 46.6307C125 46.6307 124.8 46.7307 124.5 47.0307C124.3 47.2307 124.2 47.4307 124.1 47.8307C124 48.1307 123.8 48.2307 123.4 48.2307C122.8 48.2307 121.8 48.2307 120.4 48.1307C118.2 48.0307 116.6 47.7307 115.7 47.2307C114.8 46.8307 114.2 46.3307 113.8 45.7307C113.6 45.9307 113.5 46.1307 113.3 46.2307C112.3 47.3307 111.2 48.1307 110 48.6307C109.9 48.6307 109.9 48.5307 109.9 48.4307C111.1 47.4307 112.1 46.2307 112.8 44.9307C113.7 43.3307 114.2 41.8307 114.4 40.3307H113.7C113.7 40.4307 113.6 40.5307 113.6 40.6307C113.5 40.8307 113.3 40.9307 112.9 40.9307C112.6 40.9307 112.5 40.9307 112.3 40.8307C112.3 42.4307 111.6 43.3307 110.4 43.6307C110.2 43.6307 110.1 43.5307 110.1 43.3307C110 42.9307 109.8 42.7307 109.6 42.5307C109.4 42.4307 109.2 42.2307 108.9 42.2307C108.9 42.2307 108.9 42.1307 108.9 41.9307C109.2 41.8307 109.5 41.8307 109.9 41.8307C110.4 41.8307 110.7 41.4307 110.7 40.6307C110.7 38.8307 110.2 37.4307 109.3 36.4307C109.7 35.1307 110 33.3307 110.1 31.2307H108.3V48.2307C108.2 48.6307 107.9 48.7307 107.3 48.7307C106.9 48.7307 106.7 48.6307 106.6 48.5307C106.6 45.6307 106.6 42.7307 106.7 39.9307V34.3307C106.7 31.9307 106.6 30.5307 106.6 30.0307L108.2 30.6307H109.9C110.4 30.1307 110.8 29.8307 111 29.7307C111.1 29.7307 111.4 29.9307 111.9 30.4307C112.4 30.9307 112.7 31.2307 112.7 31.3307C112.7 31.4307 112.6 31.6307 112.4 31.6307C112 31.8307 111.7 31.9307 111.6 31.9307C111.2 33.2307 110.5 34.6307 109.6 36.2307C110.9 37.2307 111.7 38.4307 112 39.8307C112.6 38.1307 113.1 36.6307 113.6 35.1307H112.4C112.2 35.1307 111.9 35.2307 111.6 35.2307C111.5 34.9307 111.4 34.7307 111.3 34.4307C111.7 34.5307 112 34.5307 112.3 34.5307H113.5C114.1 33.9307 114.4 33.6307 114.5 33.6307C115.1 34.0307 115.3 34.2307 115.7 34.5307ZM115.4 32.6307C115.4 33.3307 115.1 33.6307 114.6 33.6307C114.1 33.6307 113.9 33.3307 113.9 32.8307C113.9 32.6307 113.9 32.3307 113.8 32.0307C113.7 31.6307 113.6 31.2307 113.5 30.8307C113.4 30.4307 113.2 30.2307 113.2 30.0307C113.3 29.9307 113.4 29.8307 113.4 29.8307C114.7 30.8307 115.4 31.7307 115.4 32.6307ZM124.1 30.6307C124.8 31.2307 125.2 31.6307 125.2 31.8307C125.2 32.0307 125.1 32.1307 125 32.1307H119.5C119.3 32.6307 119.1 33.0307 118.8 33.5307H121.8C122.2 33.0307 122.5 32.6307 122.7 32.5307C122.7 32.5307 122.7 32.5307 122.8 32.5307C122.9 32.5307 123.1 32.7307 123.5 33.0307C123.9 33.4307 124.1 33.7307 124.2 33.8307C124.2 34.0307 124.1 34.1307 124.1 34.1307H121.6V35.7307H122.9C123.3 35.2307 123.6 34.9307 123.8 34.8307H123.9C124 34.9307 124.1 34.9307 124.3 35.0307C124.9 35.5307 125.2 35.9307 125.2 36.0307C125.2 36.2307 125.1 36.3307 125 36.3307H119.3C118.3 36.3307 117.6 36.4307 117.3 36.5307C117.2 36.3307 117.2 36.2307 117.1 36.0307C116.7 36.4307 116.4 36.8307 116 37.1307C115.9 37.1307 115.8 37.0307 115.8 36.9307C116.8 35.4307 117.5 33.7307 118 32.0307C117 32.0307 116.3 32.1307 116 32.2307C115.9 31.8307 115.7 31.5307 115.5 31.1307C115.9 31.2307 116.7 31.3307 117.8 31.3307H118.2C118.4 30.7307 118.5 30.0307 118.6 29.3307C120.1 29.6307 120.9 29.9307 120.9 30.1307C120.9 30.3307 120.6 30.4307 120 30.5307C119.9 30.8307 119.8 31.0307 119.8 31.2307H122.4C122.9 30.6307 123.3 30.2307 123.6 30.0307H123.7C123.8 30.4307 123.9 30.5307 124.1 30.6307ZM118.5 37.6307H122.1C122.6 37.1307 122.9 36.9307 123.1 36.9307C123.2 36.9307 123.5 37.1307 123.9 37.3307C124.4 37.7307 124.6 37.9307 124.7 38.0307C124.7 38.1307 124.6 38.3307 124.4 38.4307C124.2 38.5307 124.1 38.6307 124 38.7307V43.9307C124 44.9307 123.4 45.5307 122.3 45.8307C122 45.8307 121.9 45.7307 121.9 45.5307C121.8 45.2307 121.6 44.9307 121.4 44.7307C121.1 44.5307 120.7 44.4307 120.2 44.2307C120.2 44.1307 120.2 44.0307 120.2 43.9307C120.9 44.0307 121.4 44.0307 121.9 44.0307C122.3 44.0307 122.5 43.9307 122.5 43.7307V42.1307H119V45.3307C118.9 45.7307 118.6 45.8307 118 45.8307C117.6 45.8307 117.4 45.8307 117.3 45.6307C117.3 44.2307 117.3 42.9307 117.4 41.6307V39.0307C117.4 37.9307 117.3 37.2307 117.3 37.0307L118.5 37.6307ZM119.8 34.1307H118.5C118.2 34.7307 117.8 35.2307 117.4 35.7307C117.8 35.7307 118.3 35.8307 118.8 35.8307H119.7V34.1307H119.8ZM122.4 39.6307V38.2307H119V39.6307H122.4ZM122.4 41.7307V40.1307H119V41.7307H122.4Z" fill="#00404B"/>
<path d="M134.1 30.7307C134.1 30.9307 133.7 31.1307 132.8 31.3307C132.4 32.6307 131.9 33.9307 131.3 35.0307C132 35.2307 132.4 35.4307 132.4 35.5307C132.4 35.6307 132.3 35.7307 132 35.8307C131.7 35.9307 131.6 36.0307 131.6 36.1307V43.0307C131.6 44.9307 131.7 46.7307 131.7 48.3307C131.6 48.6307 131.2 48.8307 130.4 48.9307C129.9 48.9307 129.6 48.8307 129.6 48.5307C129.6 46.7307 129.7 44.9307 129.7 43.1307V37.6307C129 38.5307 128.3 39.3307 127.5 40.1307C127.3 40.1307 127.2 40.0307 127.2 39.8307C129.1 36.7307 130.4 33.3307 131 29.6307C133.1 30.0307 134.1 30.4307 134.1 30.7307ZM144.9 31.0307C145.6 31.6307 146 32.0307 146 32.2307C146 32.4307 145.9 32.5307 145.8 32.5307H140V33.8307H142.7C143.2 33.2307 143.5 32.9307 143.7 32.8307C143.9 32.8307 144.2 33.0307 144.7 33.4307C145.2 33.8307 145.4 34.0307 145.4 34.2307C145.4 34.3307 145.3 34.4307 145.1 34.5307C144.8 34.7307 144.6 34.9307 144.5 35.0307V36.8307C144.6 37.5307 144.6 38.0307 144.6 38.2307C144.6 38.6307 144.2 38.9307 143.6 38.9307C143.1 38.9307 142.8 38.8307 142.8 38.5307H139.8V40.0307C141.1 40.0307 142 39.9307 142.7 39.8307C142.4 39.5307 142.2 39.3307 141.9 39.1307C141.9 39.1307 142 39.0307 142 38.9307C143.8 39.1307 144.8 39.7307 144.9 40.7307C144.9 40.9307 144.9 41.1307 144.8 41.2307C144.7 41.5307 144.5 41.6307 144.2 41.6307C144 41.6307 143.7 41.3307 143.3 40.6307C143.2 40.4307 143.1 40.2307 143 40.1307C142.3 40.4307 141.7 40.6307 141 40.8307C141.4 40.9307 141.8 41.0307 142.2 41.1307C142.9 41.2307 143.3 41.3307 143.4 41.3307C143.5 41.3307 143.6 41.4307 143.6 41.6307C143.6 41.7307 143.4 41.8307 143 41.9307C142.8 42.0307 142.7 42.0307 142.7 42.0307V43.0307H143.7C144.3 42.2307 144.7 41.8307 144.8 41.7307C144.9 41.7307 144.9 41.7307 144.9 41.7307C145 41.7307 145.4 42.0307 145.9 42.6307C146.2 42.9307 146.3 43.1307 146.3 43.3307C146.3 43.5307 146.2 43.6307 146 43.6307H142.5V46.6307C142.5 47.6307 141.9 48.4307 140.6 48.7307C140.4 48.7307 140.3 48.6307 140.3 48.3307C140.3 47.9307 139.9 47.5307 139.4 47.2307C139 47.0307 138.6 46.8307 138.2 46.8307C138.2 46.7307 138.2 46.6307 138.2 46.5307C138.9 46.6307 139.5 46.6307 140.3 46.6307C140.5 46.6307 140.7 46.4307 140.7 46.1307V43.6307H134.5C133.7 43.6307 133 43.6307 132.2 43.7307C132 43.4307 131.9 43.0307 131.8 42.7307C132.6 42.9307 133.5 43.0307 134.4 43.0307H140.6V42.9307C140.6 42.1307 140.5 41.4307 140.5 40.9307C138.7 41.3307 136.6 41.6307 134.3 41.7307C134.2 42.4307 134 42.7307 133.8 42.7307C133.6 42.7307 133.5 42.3307 133.3 41.6307C133.1 40.9307 132.9 40.3307 132.9 39.9307C133.6 40.0307 134.6 40.1307 136 40.1307C136.7 40.1307 137.3 40.1307 137.9 40.1307V38.5307H135.3V38.7307C135.2 39.1307 134.9 39.3307 134.3 39.3307C133.9 39.3307 133.7 39.2307 133.6 39.1307C133.6 38.2307 133.6 37.3307 133.7 36.3307V34.5307C133.7 33.7307 133.6 33.3307 133.6 33.1307L135.4 33.8307H138.1V32.5307H136.6C134.9 32.5307 133.9 32.6307 133.5 32.8307C133.4 32.4307 133.2 32.1307 133 31.7307C133.7 31.8307 134.8 31.9307 136.5 31.9307H138.1C138.1 31.0307 138.1 30.2307 138 29.7307C140 30.0307 141 30.2307 141 30.5307C141 30.7307 140.9 30.8307 140.6 30.8307C140.2 31.0307 140 31.1307 140 31.2307V31.9307H143.2C143.7 31.3307 144.1 30.9307 144.4 30.7307H144.5C144.6 30.8307 144.8 30.9307 144.9 31.0307ZM138 45.8307C138 46.1307 138 46.3307 137.9 46.4307C137.8 46.7307 137.5 46.9307 137.2 46.9307C137 46.9307 136.7 46.6307 136.3 45.9307C135.9 45.2307 135.5 44.7307 135 44.2307C135 44.2307 135.1 44.1307 135.1 44.0307C137 44.2307 137.9 44.8307 138 45.8307ZM138.1 35.7307V34.3307H135.5V35.7307H138.1ZM138.1 37.9307V36.2307H135.5V37.9307H138.1ZM140 35.7307H143V34.3307H140V35.7307ZM140 37.9307H143V36.2307H140V37.9307Z" fill="#00404B"/>
<path d="M157.7 34.5307C158.1 34.9307 158.3 35.2307 158.3 35.3307C158.3 35.4307 158.1 35.6307 157.7 35.7307C157.5 35.8307 157.4 35.8307 157.3 35.9307C156.7 37.8307 156.3 39.1307 156 40.0307H156.4C156.9 39.4307 157.2 39.1307 157.3 39.1307C157.5 39.1307 157.8 39.3307 158.2 39.6307C158.7 40.0307 159 40.2307 159 40.3307C159 40.4307 158.9 40.6307 158.6 40.7307C158.3 40.8307 158.2 40.9307 158.2 41.0307C157.8 42.7307 157.1 44.1307 156.3 45.2307C156.9 45.7307 157.6 46.0307 158.3 46.1307C159.6 46.4307 161.3 46.5307 163.1 46.5307C165.2 46.5307 166.7 46.4307 167.3 46.2307C167.3 46.3307 167.3 46.4307 167.3 46.6307C167 46.6307 166.8 46.7307 166.5 47.0307C166.3 47.2307 166.2 47.4307 166.1 47.8307C166 48.1307 165.8 48.2307 165.4 48.2307C164.8 48.2307 163.8 48.2307 162.4 48.1307C160.2 48.0307 158.6 47.7307 157.7 47.2307C156.8 46.8307 156.2 46.3307 155.8 45.7307C155.6 45.9307 155.5 46.1307 155.3 46.2307C154.3 47.3307 153.2 48.1307 152 48.6307C151.9 48.6307 151.9 48.5307 151.9 48.4307C153.1 47.4307 154.1 46.2307 154.8 44.9307C155.7 43.3307 156.2 41.8307 156.4 40.3307H155.7C155.7 40.4307 155.6 40.5307 155.6 40.6307C155.5 40.8307 155.3 40.9307 154.9 40.9307C154.6 40.9307 154.5 40.9307 154.3 40.8307C154.3 42.4307 153.6 43.3307 152.4 43.6307C152.2 43.6307 152.1 43.5307 152.1 43.3307C152 42.9307 151.8 42.7307 151.6 42.5307C151.4 42.4307 151.2 42.2307 150.9 42.2307C150.9 42.2307 150.9 42.1307 150.9 41.9307C151.2 41.8307 151.5 41.8307 151.9 41.8307C152.4 41.8307 152.7 41.4307 152.7 40.6307C152.7 38.8307 152.2 37.4307 151.3 36.4307C151.7 35.1307 152 33.3307 152.1 31.2307H150.3V48.2307C150.2 48.6307 149.9 48.7307 149.3 48.7307C148.9 48.7307 148.7 48.6307 148.6 48.5307C148.6 45.6307 148.6 42.7307 148.7 39.9307V34.3307C148.7 31.9307 148.6 30.5307 148.6 30.0307L150.2 30.6307H151.9C152.4 30.1307 152.8 29.8307 153 29.7307C153.1 29.7307 153.4 29.9307 153.9 30.4307C154.4 30.9307 154.7 31.2307 154.7 31.3307C154.7 31.4307 154.6 31.6307 154.4 31.6307C154 31.8307 153.7 31.9307 153.6 31.9307C153.2 33.2307 152.5 34.6307 151.6 36.2307C152.9 37.2307 153.7 38.4307 154 39.8307C154.6 38.1307 155.1 36.6307 155.6 35.1307H154.4C154.2 35.1307 153.9 35.2307 153.6 35.2307C153.5 34.9307 153.4 34.7307 153.3 34.4307C153.7 34.5307 154 34.5307 154.3 34.5307H155.5C156.1 33.9307 156.4 33.6307 156.5 33.6307C157.1 34.0307 157.3 34.2307 157.7 34.5307ZM157.4 32.6307C157.4 33.3307 157.1 33.6307 156.6 33.6307C156.1 33.6307 155.9 33.3307 155.9 32.8307C155.9 32.6307 155.9 32.3307 155.8 32.0307C155.7 31.6307 155.6 31.2307 155.5 30.8307C155.4 30.4307 155.2 30.2307 155.2 30.0307C155.3 29.9307 155.4 29.8307 155.4 29.8307C156.7 30.8307 157.4 31.7307 157.4 32.6307ZM166.1 30.6307C166.8 31.2307 167.2 31.6307 167.2 31.8307C167.2 32.0307 167.1 32.1307 167 32.1307H161.5C161.3 32.6307 161.1 33.0307 160.8 33.5307H163.8C164.2 33.0307 164.5 32.6307 164.7 32.5307C164.7 32.5307 164.7 32.5307 164.8 32.5307C164.9 32.5307 165.1 32.7307 165.5 33.0307C165.9 33.4307 166.1 33.7307 166.2 33.8307C166.2 34.0307 166.1 34.1307 166.1 34.1307H163.6V35.7307H164.9C165.3 35.2307 165.6 34.9307 165.8 34.8307H165.9C166 34.9307 166.1 34.9307 166.3 35.0307C166.9 35.5307 167.2 35.9307 167.2 36.0307C167.2 36.2307 167.1 36.3307 167 36.3307H161.3C160.3 36.3307 159.6 36.4307 159.3 36.5307C159.2 36.3307 159.2 36.2307 159.1 36.0307C158.7 36.4307 158.4 36.8307 158 37.1307C157.9 37.1307 157.8 37.0307 157.8 36.9307C158.8 35.4307 159.5 33.7307 160 32.0307C159 32.0307 158.3 32.1307 158 32.2307C157.9 31.8307 157.7 31.5307 157.5 31.1307C157.9 31.2307 158.7 31.3307 159.8 31.3307H160.2C160.4 30.7307 160.5 30.0307 160.6 29.3307C162.1 29.6307 162.9 29.9307 162.9 30.1307C162.9 30.3307 162.6 30.4307 162 30.5307C161.9 30.8307 161.8 31.0307 161.8 31.2307H164.4C164.9 30.6307 165.3 30.2307 165.6 30.0307H165.7C165.8 30.4307 165.9 30.5307 166.1 30.6307ZM160.5 37.6307H164.1C164.6 37.1307 164.9 36.9307 165.1 36.9307C165.2 36.9307 165.5 37.1307 165.9 37.3307C166.4 37.7307 166.6 37.9307 166.7 38.0307C166.7 38.1307 166.6 38.3307 166.4 38.4307C166.2 38.5307 166.1 38.6307 166 38.7307V43.9307C166 44.9307 165.4 45.5307 164.3 45.8307C164 45.8307 163.9 45.7307 163.9 45.5307C163.8 45.2307 163.6 44.9307 163.4 44.7307C163.1 44.5307 162.7 44.4307 162.2 44.2307C162.2 44.1307 162.2 44.0307 162.2 43.9307C162.9 44.0307 163.4 44.0307 163.9 44.0307C164.3 44.0307 164.5 43.9307 164.5 43.7307V42.1307H161V45.3307C160.9 45.7307 160.6 45.8307 160 45.8307C159.6 45.8307 159.4 45.8307 159.3 45.6307C159.3 44.2307 159.3 42.9307 159.4 41.6307V39.0307C159.4 37.9307 159.3 37.2307 159.3 37.0307L160.5 37.6307ZM161.8 34.1307H160.5C160.2 34.7307 159.8 35.2307 159.4 35.7307C159.8 35.7307 160.3 35.8307 160.8 35.8307H161.7V34.1307H161.8ZM164.4 39.6307V38.2307H161V39.6307H164.4ZM164.4 41.7307V40.1307H161V41.7307H164.4Z" fill="#00404B"/>
<path d="M179.4 29.9307C180.3 30.7307 180.8 31.2307 181 31.5307C181 31.7307 180.9 31.8307 180.8 31.8307H176.1C175.4 33.5307 174.4 34.9307 173.2 36.2307C175.5 36.2307 177.3 36.1307 178.6 36.1307C178.2 35.4307 177.6 34.8307 177 34.2307C177 34.1307 177.1 34.0307 177.1 33.9307C179.5 34.7307 180.8 35.7307 180.8 36.8307C180.8 37.3307 180.7 37.7307 180.5 37.9307C180.3 38.1307 180.1 38.2307 179.9 38.2307C179.6 38.2307 179.3 37.8307 179 36.9307C179 36.8307 178.9 36.7307 178.9 36.6307C178.1 36.8307 177.2 37.1307 176.1 37.3307V41.0307H177.6C177.9 40.5307 178.3 40.1307 178.6 39.7307C178.7 39.6307 178.8 39.5307 178.9 39.5307C179 39.5307 179.1 39.6307 179.3 39.7307C180.2 40.5307 180.6 40.9307 180.7 41.2307C180.7 41.4307 180.6 41.5307 180.5 41.5307H176V45.4307C178 45.2307 179.6 45.0307 180.8 44.7307C180.9 44.8307 180.9 45.0307 181 45.1307C179.1 46.0307 175.9 46.9307 171.3 47.8307C171.2 48.5307 171 48.8307 170.9 48.8307C170.8 48.8307 170.6 48.5307 170.4 47.8307C170.2 47.2307 169.9 46.4307 169.7 45.5307C170.2 45.6307 170.9 45.6307 171.9 45.6307C172.7 45.6307 173.5 45.5307 174.2 45.5307V41.4307H172.7C171.8 41.4307 171.2 41.5307 170.7 41.6307C170.6 41.3307 170.5 41.1307 170.4 40.8307C170.8 40.9307 171.6 40.9307 172.7 40.9307H174.2V37.5307C173.3 37.7307 172.3 37.8307 171.3 38.0307C171.2 38.6307 171 38.9307 170.9 38.9307C170.8 38.9307 170.6 38.6307 170.4 38.1307C170.2 37.6307 170 36.9307 169.8 36.1307C170.2 36.2307 170.8 36.2307 171.7 36.2307H172.4C173.1 34.9307 173.5 33.4307 173.8 31.8307H172C171.1 31.8307 170.5 31.9307 170 32.0307C169.9 31.7307 169.8 31.5307 169.7 31.2307C170.1 31.3307 170.9 31.3307 172 31.3307H177.6C178 30.8307 178.3 30.3307 178.7 29.9307C178.8 29.8307 178.9 29.7307 179 29.7307C179 29.6307 179.1 29.7307 179.4 29.9307ZM183.4 32.0307C183.9 32.1307 184.2 32.3307 184.2 32.4307C184.2 32.5307 184.1 32.6307 183.8 32.7307C183.4 32.8307 183.2 32.9307 183.2 33.0307V39.6307C183.2 41.8307 183.3 43.4307 183.3 44.3307C183.3 44.6307 182.9 44.8307 182 44.8307C181.6 44.8307 181.3 44.7307 181.3 44.4307C181.3 43.6307 181.3 42.0307 181.4 39.5307V33.6307C181.4 33.0307 181.3 32.3307 181.2 31.7307C182 31.8307 182.7 31.9307 183.4 32.0307ZM188.2 30.4307C188.2 30.5307 188.1 30.6307 188 30.6307C187.8 30.7307 187.7 30.7307 187.5 30.9307C187.3 31.0307 187.2 31.1307 187.2 31.2307V46.0307C187.2 47.8307 186.5 48.6307 185 48.6307C184.7 48.6307 184.6 48.5307 184.6 48.2307C184.5 47.8307 184.2 47.5307 183.8 47.2307C183.5 47.0307 183 46.8307 182.3 46.7307C182.3 46.6307 182.3 46.5307 182.3 46.4307C182.7 46.4307 183.6 46.4307 184.9 46.4307C185.1 46.4307 185.3 46.2307 185.3 45.8307V32.2307C185.3 31.0307 185.2 30.1307 185.1 29.5307C187 29.9307 188.1 30.1307 188.2 30.4307Z" fill="#00404B"/>
<path d="M198.2 33.0307C199 33.7307 199.5 34.2307 199.6 34.4307C199.6 34.6307 199.5 34.7307 199.4 34.7307H192.4C191.5 34.7307 190.8 34.8307 190.4 34.9307C190.3 34.6307 190.2 34.4307 190.1 34.0307C190.6 34.1307 191.3 34.1307 192.4 34.1307H196.6C196.9 33.7307 197.3 33.3307 197.6 32.9307C197.7 32.8307 197.8 32.7307 197.9 32.7307C197.9 32.7307 198 32.8307 198.2 33.0307ZM199 36.6307C199 36.8307 198.6 37.0307 197.9 37.2307C197.4 39.8307 196.6 42.0307 195.6 43.9307C196.8 43.7307 197.9 43.5307 198.8 43.2307C198.8 43.2307 198.9 43.3307 198.9 43.4307C197.2 44.6307 194.9 45.6307 191.8 46.5307C191.8 46.9307 191.7 47.2307 191.6 47.2307C191.5 47.2307 191.3 47.0307 191.1 46.6307C190.9 46.2307 190.6 45.5307 190.2 44.6307C192 44.5307 193.5 44.3307 194.9 44.1307C195.6 41.2307 196 38.3307 196.2 35.4307C198 36.0307 199 36.4307 199 36.6307ZM194.3 41.5307C194.3 42.5307 193.9 43.0307 193.2 43.1307C192.7 43.1307 192.3 42.8307 192.3 42.2307C192.3 41.9307 192.3 41.4307 192.3 40.7307C192.3 40.2307 192.3 39.4307 192.3 38.4307C192.2 37.1307 192 36.2307 191.7 35.7307C191.8 35.7307 191.9 35.6307 192 35.6307C193.4 37.7307 194.2 39.6307 194.3 41.5307ZM195.7 32.3307C195.7 32.8307 195.6 33.1307 195.3 33.3307C195.1 33.5307 194.9 33.5307 194.6 33.5307C194.2 33.5307 194 33.1307 193.9 32.2307C193.7 31.2307 193.4 30.5307 192.9 29.9307C193 29.9307 193 29.8307 193.2 29.7307C194.8 30.6307 195.7 31.5307 195.7 32.3307ZM205.2 30.4307C205.2 30.6307 205.1 30.7307 204.8 30.7307C204.4 30.9307 204.2 31.0307 204.2 31.1307V34.4307H206.2C206.8 33.6307 207.2 33.1307 207.4 32.9307H207.5C207.7 33.0307 208 33.2307 208.4 33.6307C209 34.1307 209.3 34.5307 209.3 34.7307C209.3 34.9307 209.3 35.0307 209.2 35.1307H204.1V39.9307H205.6C206.1 39.2307 206.5 38.9307 206.7 38.8307C206.9 38.8307 207.3 39.0307 207.8 39.4307C208.3 39.8307 208.6 40.1307 208.6 40.2307C208.6 40.3307 208.5 40.5307 208.3 40.6307C208 40.8307 207.8 41.0307 207.8 41.1307V45.0307C207.9 46.5307 207.9 47.5307 207.9 47.9307C207.9 48.4307 207.5 48.6307 206.8 48.6307C206.3 48.6307 206 48.5307 205.9 48.2307V46.7307H200.9V48.1307C200.8 48.5307 200.4 48.7307 199.7 48.7307C199.3 48.7307 199 48.6307 198.9 48.5307C198.9 47.0307 198.9 45.6307 199 44.2307V41.3307C199 40.1307 198.9 39.3307 198.9 39.1307L200.7 39.8307H202.2V31.7307C202.2 30.8307 202.2 30.0307 202.1 29.5307C204.2 29.9307 205.2 30.2307 205.2 30.4307ZM206.1 40.5307H201.1V46.3307H206.1V40.5307Z" fill="#00404B"/>
<path d="M0.5 66.4307H13.6" stroke="#C9A063" stroke-width="0.75" stroke-miterlimit="10"/>
</svg>
