<svg width="150" height="65" viewBox="0 0 150 65" fill="none" xmlns="http://www.w3.org/2000/svg">
<path d="M3.03131 1.35088V9.46858H1.13214V10.3786H0.072998V1.35088H3.03131ZM1.89912 2.55215H1.09563V4.77268H1.89912V2.55215ZM1.09563 8.2309H1.89912V5.93756H1.09563V8.2309ZM6.68355 9.10456H4.74786V11.3615H3.46958V0.950439H6.75659V4.95469H4.74786V5.82835H6.53745V6.95682H4.74786V7.9761H6.68355V9.10456ZM5.58788 2.07892H4.78438V3.82623H5.58788V2.07892ZM9.64186 5.46433L10.4088 5.64634C10.1897 7.06603 9.78794 8.2673 9.16706 9.21376C9.56881 9.68699 10.0436 10.0874 10.5914 10.3422C10.2627 10.5971 10.0071 10.9247 9.78795 11.3615C9.24011 11.0339 8.76532 10.6335 8.43662 10.1966C7.9253 10.6699 7.30443 11.0703 6.57398 11.3979C6.39137 10.9975 6.17223 10.6335 5.88005 10.3786C6.6105 10.0874 7.19486 9.65059 7.70617 9.10456C7.34095 8.37651 7.08529 7.61206 6.90268 6.7748L7.70617 6.59279H6.82963V5.46433H9.42272H9.64186ZM10.2627 0.950439V4.9183H7.12181V3.75342H9.0575V2.11532H7.12181V0.950439H10.2627ZM9.02098 6.62921H7.96183C8.0714 7.10244 8.25401 7.61207 8.47314 8.0853C8.7288 7.53927 8.91141 7.06604 9.02098 6.62921Z" fill="black"/>
<path d="M13.915 5.75559V8.66777C14.3533 9.35941 15.1568 9.72344 16.3255 9.83265C16.3985 9.83265 16.4716 9.83265 16.5081 9.83265C18.0785 9.90545 19.7586 9.86905 21.5847 9.75984C21.7673 9.75984 21.9499 9.72344 22.096 9.72344C21.8769 10.1967 21.7308 10.6699 21.6577 11.1067C19.8316 11.1795 18.1151 11.2159 16.5081 11.1431C15.3028 11.0703 14.3898 10.7791 13.7689 10.2695C13.6228 10.1239 13.4767 9.97826 13.3306 9.83265C12.7098 10.3787 12.1619 10.8519 11.6871 11.2523L11.0297 9.83265C11.6141 9.46862 12.1254 9.14099 12.5637 8.77697V7.02967H11.2489V5.75559H13.915ZM14.0976 4.19029L13.1115 5.17316C12.7463 4.77273 12.1619 4.33589 11.3949 3.86266C11.3219 3.82626 11.2854 3.78986 11.2123 3.75346L12.1254 2.87982C13.0019 3.28025 13.6593 3.71706 14.0976 4.19029ZM14.4993 1.93335L13.5132 2.87982C13.148 2.44299 12.6367 2.00616 11.8697 1.53293C11.7967 1.49653 11.7237 1.46013 11.6871 1.42373L12.6002 0.550065C13.3306 0.95049 13.9515 1.38731 14.3898 1.86054C14.4628 1.86054 14.4993 1.89695 14.4993 1.93335ZM14.9741 6.30162V4.22669C14.6089 3.89907 14.2802 3.60785 13.8785 3.38944C14.755 2.8434 15.4124 2.07896 15.9237 1.0961C16.0333 0.914088 16.1063 0.695683 16.1794 0.513672L17.5307 0.841279C17.4577 1.05969 17.3846 1.2417 17.2751 1.38731H18.9551L19.1742 1.35092L20.0873 1.89695C19.8681 2.33378 19.6125 2.7706 19.3203 3.13462H21.256V6.33804H18.9551V7.97614C18.9551 8.15815 18.9916 8.26734 19.0646 8.30375C19.1377 8.30375 19.2107 8.34016 19.3568 8.34016H20.3429C20.489 8.34016 20.5986 8.26734 20.6351 8.12174C20.6716 8.01253 20.6716 7.83052 20.7081 7.5757C21.0003 7.75771 21.3656 7.90333 21.8038 8.01253C21.7308 8.70418 21.5116 9.1046 21.2195 9.28661C21.0368 9.35942 20.8177 9.43223 20.489 9.43223H19.1742C18.5168 9.43223 18.0785 9.28662 17.8959 8.9954C17.7498 8.77699 17.7133 8.44937 17.7133 7.97614V7.61212C17.129 8.44937 16.2159 9.06819 14.9741 9.50502C14.8281 9.14099 14.6089 8.84979 14.3167 8.55857C14.2802 8.52217 14.2437 8.48576 14.2437 8.48576C15.5585 8.04893 16.4716 7.3573 16.9098 6.44724C16.9463 6.41084 16.9463 6.37444 16.9829 6.33804H14.9741V6.30162ZM18.2977 2.40657H16.6907C16.5811 2.58858 16.3985 2.80701 16.1794 3.09823H17.7864C17.969 2.87981 18.1151 2.66139 18.2977 2.40657ZM16.2159 5.20955H17.3481C17.4211 4.84553 17.4577 4.51792 17.4942 4.1539H16.2524V5.20955H16.2159ZM19.9412 5.20955V4.1539H18.7725C18.7359 4.51792 18.6994 4.88193 18.6264 5.20955H19.9412ZM19.2473 6.84766L19.9777 6.26523C20.4525 6.55645 20.7812 6.88406 21.0368 7.21168L20.2699 7.83052C20.0873 7.5393 19.7586 7.21168 19.2473 6.84766Z" fill="black"/>
<path d="M22.6803 4.77295L22.5342 4.70016L23.3012 3.68088C24.2873 4.11771 24.9812 4.55454 25.4195 4.91857L24.616 6.04703C24.1412 5.6102 23.5203 5.20978 22.6803 4.77295ZM24.0317 11.2526L22.7899 10.4153C23.4473 9.35964 24.0682 8.12198 24.6891 6.70229L25.7117 7.50312C25.1273 8.92281 24.5795 10.1969 24.0317 11.2526ZM25.8943 1.93358L24.9812 2.98925C24.616 2.58883 24.0317 2.15198 23.2282 1.67875C23.1551 1.64235 23.0821 1.60595 23.009 1.56955L23.8125 0.586686C24.7621 1.05992 25.456 1.49675 25.8943 1.93358ZM32.1396 10.0149C32.2492 10.0149 32.3222 9.94209 32.3588 9.72367C32.3953 9.54166 32.4318 9.06844 32.4318 8.34039C32.7605 8.5588 33.1257 8.74082 33.637 8.88643C33.564 9.97849 33.3814 10.6701 33.0892 10.9613C32.9066 11.1433 32.6144 11.2162 32.2857 11.2162H31.3727C30.7883 11.2162 30.3865 11.0706 30.2039 10.7429C30.0944 10.5245 30.0213 10.1241 30.0213 9.57806V6.52028H29.0352C28.9257 7.90356 28.67 8.92283 28.2317 9.61447C27.7569 10.3425 27.0265 10.9249 26.0769 11.3254C25.9308 10.9613 25.6752 10.5973 25.3465 10.3061C25.3099 10.2697 25.2734 10.2333 25.2734 10.2333C26.296 9.86927 26.9534 9.25043 27.3187 8.48599C27.5013 8.04916 27.6474 7.39392 27.7204 6.55667H25.9673V5.2462H26.9534C26.5152 4.91858 26.1134 4.66375 25.7482 4.48174C26.4056 3.64448 26.8439 2.44322 27.1361 0.877922C27.1361 0.805118 27.1726 0.732313 27.1726 0.695911L28.5604 0.950709C28.4874 1.35113 28.3778 1.78797 28.2317 2.2976H29.1083V0.550293H30.4961V2.2976H33.0162V3.60809H30.4961V5.2462H33.5275V6.55667H31.4822V9.61447C31.4822 9.86929 31.5187 10.0149 31.5918 10.0149C31.6283 10.0149 31.6648 10.0149 31.7014 10.0149H32.1396ZM26.8439 5.20978H28.9987V3.57168H27.6839C27.4282 4.26332 27.1361 4.84576 26.8439 5.20978Z" fill="black"/>
<path d="M43.4981 4.08113L44.6668 4.95477C43.8633 5.71922 42.9138 6.44726 41.8546 7.13891C42.5485 8.30378 43.6077 9.28666 45.0321 10.0875C44.6303 10.4151 44.3381 10.7791 44.119 11.1796C44.0825 11.2524 44.0459 11.2888 44.0459 11.3252C42.3659 10.2331 41.1607 8.95903 40.4302 7.46654C39.992 6.59288 39.6633 5.50081 39.4076 4.19033C38.9328 4.69996 38.4215 5.2096 37.8737 5.61003V9.32304C38.6406 9.17744 39.5902 8.99542 40.7224 8.77701L40.832 10.1603C40.1015 10.3059 39.0424 10.5243 37.5815 10.8156C36.4493 11.034 35.6458 11.216 35.171 11.2888L34.7693 9.86908C34.9884 9.83268 35.3171 9.79627 35.7919 9.68707C36.0841 9.65066 36.3032 9.61427 36.4493 9.57786V6.62929C35.938 6.95691 35.3536 7.24812 34.6962 7.57574C34.5136 7.21172 34.258 6.8113 33.9293 6.37447C35.2806 5.82843 36.5223 5.06399 37.5815 4.00832C37.7641 3.82631 37.9467 3.68069 38.0928 3.49868H34.258V2.15181H38.6772V0.477295H40.1015V2.15181H44.6303V3.49868H40.6494C40.832 4.44514 41.0511 5.28241 41.3068 5.97405C42.1468 5.35521 42.8772 4.73637 43.4981 4.08113Z" fill="black"/>
<path d="M56.1713 7.43022H51.3869C51.3504 7.72144 51.3138 7.93984 51.2773 8.04904H55.0391C55.0391 8.04904 55.0391 8.23107 55.0026 8.52229C54.893 9.86918 54.7104 10.67 54.4548 10.9612C54.2356 11.1796 53.9069 11.2888 53.5052 11.3252C53.213 11.3617 52.7017 11.3617 51.9712 11.3617C51.9712 10.9612 51.8252 10.5972 51.606 10.1968C52.0443 10.2332 52.446 10.2696 52.8843 10.2696C53.0669 10.2696 53.213 10.2332 53.286 10.1604C53.4321 10.0148 53.5052 9.68715 53.5782 9.10472H50.9121C50.4373 10.0876 49.5608 10.8156 48.2825 11.2525C48.1729 11.2889 48.0268 11.3253 47.9173 11.3617C47.7712 11.034 47.552 10.67 47.1868 10.3424L47.1503 10.306C46.9312 10.7064 46.712 11.0704 46.4564 11.3617C46.3103 11.0704 46.0546 10.8156 45.6529 10.5244C45.5433 10.4516 45.4703 10.4152 45.3972 10.3788C46.2007 9.39594 46.6755 7.93985 46.712 5.97413C46.712 5.71932 46.712 5.46449 46.712 5.17328V1.02341L47.8807 1.31462C50.693 1.20541 52.7747 0.987019 54.1991 0.695801L55.1122 1.75145C53.286 2.11548 50.9486 2.33389 48.0999 2.40669V2.84352H55.4409V5.6465H52.0443V6.37455H56.1348V7.43022H56.1713ZM49.999 7.43022H48.0268C47.8807 8.52229 47.6251 9.46875 47.2233 10.2696C48.4286 9.94198 49.2321 9.43235 49.6338 8.7043C49.7799 8.37668 49.926 7.93985 49.999 7.43022ZM50.7295 6.33815V5.61011H48.1729C48.1729 5.64651 48.1729 5.7557 48.1729 5.86491C48.1729 6.08332 48.1729 6.22895 48.1364 6.33815H50.7295ZM54.1261 3.8992H48.1729V4.59083H54.1261V3.8992Z" fill="black"/>
<path d="M6.93925 20.8627H3.68876V22.246L3.79833 22.1368C4.67487 22.5736 5.51488 23.0104 6.24533 23.52C6.35489 23.5929 6.42794 23.6657 6.50099 23.7021L6.09924 24.2117C5.58793 23.7749 4.82096 23.3016 3.83485 22.7556C3.76181 22.7192 3.72528 22.6828 3.68876 22.6828V26.7235H3.10441V20.8627H0.182617V20.3167H6.97577V20.8627H6.93925Z" fill="#1F1E1D"/>
<path d="M13.915 22.2461H12.381V22.6466H14.0611V23.8842H11.9428C11.7967 24.139 11.7236 24.2847 11.6871 24.3575H14.4263V24.8307H13.4767C13.3672 25.2311 13.148 25.5587 12.8924 25.8136C13.5132 25.9956 13.988 26.1776 14.3167 26.3596L13.988 26.76C13.6593 26.6144 13.148 26.396 12.4541 26.1412C11.9063 26.4324 11.0662 26.6508 9.93405 26.76C9.89753 26.6144 9.82448 26.4688 9.71492 26.3232C10.628 26.2504 11.3219 26.1048 11.8332 25.9228C11.6141 25.85 11.2854 25.7771 10.8836 25.6679L10.8106 25.7771L10.3358 25.5951C10.4819 25.4131 10.6645 25.1219 10.8836 24.7579H9.82448V24.2847H11.1393C11.1758 24.2119 11.2489 24.0663 11.3949 23.8114H10.2262V22.5737H11.8697V22.1733H10.3723V21.4817H9.86101V21.9185H9.02099V22.5009C9.24013 22.8286 9.56883 23.2654 9.89753 23.8478L9.60535 24.2482C9.53231 24.0662 9.31317 23.6658 9.02099 23.1562V26.7236H8.47316V23.229C8.18098 24.139 7.8888 24.8307 7.59662 25.3039C7.52358 25.1583 7.41401 25.0127 7.30444 24.7943C7.66967 24.2846 7.99836 23.5202 8.25402 22.5737C8.32707 22.3553 8.36359 22.1369 8.40011 21.9549H7.45053V21.4089H8.47316V19.7708H8.98447V21.4089H9.82448V21.0448H10.3358V20.2804H11.8332V19.7344H12.381V20.2804H13.915V21.0448H14.4263V21.4817H13.915V22.2461ZM10.701 23.0106V23.4838H11.8332V23.0106H10.701ZM11.8332 20.6444H10.8471V21.0448H11.8332V20.6444ZM10.8471 21.8821H11.8332V21.4453H10.8471V21.8821ZM12.9289 24.7943H11.3949C11.3584 24.8671 11.2489 25.0491 11.1028 25.2675C11.468 25.3403 11.9063 25.4495 12.381 25.5951C12.6367 25.4131 12.8193 25.1219 12.9289 24.7943ZM13.4037 20.6444H12.381V21.0448H13.4037V20.6444ZM12.381 21.8821H13.4037V21.4453H12.381V21.8821ZM13.5132 23.0106H12.381V23.4838H13.5132V23.0106Z" fill="#1F1E1D"/>
<path d="M15.5951 24.2119L16.1064 24.3211C15.9238 25.0855 15.6681 25.6679 15.3029 26.1412C15.1568 25.9956 15.0107 25.8864 14.8646 25.8136C15.2298 25.4131 15.449 24.9035 15.5951 24.2119ZM18.6629 20.7172V21.2269H15.0472V20.7172H16.5812V19.7344H17.1655V20.7172H18.6629ZM18.3342 23.8114H17.1655V26.0684C17.1655 26.3232 17.0925 26.4688 16.9829 26.578C16.9464 26.578 16.9464 26.6144 16.9099 26.6144C16.7273 26.6872 16.4351 26.7236 15.9603 26.7236C15.9238 26.5416 15.8507 26.3596 15.7777 26.214C16.1429 26.214 16.3986 26.214 16.5081 26.214C16.5812 26.214 16.6177 26.1776 16.6177 26.1048V23.8478H15.449V21.8457H18.2977V23.8114H18.3342ZM15.9968 22.3189V23.3382H17.7864V22.3189H15.9968ZM18.5534 25.4495L18.0786 25.6315C17.969 25.1947 17.7864 24.7579 17.5308 24.3211L18.0055 24.1755C18.2612 24.5759 18.4438 25.0127 18.5534 25.4495ZM20.8908 26.1412H21.2195C21.3291 26.1412 21.4021 26.1412 21.4386 26.1048C21.5117 26.0684 21.5482 25.9956 21.5482 25.8863C21.5847 25.6679 21.5847 25.3767 21.5847 24.9763C21.6943 25.0855 21.8404 25.1583 22.023 25.2311C22.023 25.7043 21.9865 26.0684 21.95 26.2504C21.8769 26.396 21.8039 26.5416 21.6943 26.6144C21.5847 26.6872 21.4021 26.6872 21.256 26.6872H20.7812C20.5986 26.6872 20.416 26.6508 20.2699 26.5416C20.1604 26.4688 20.1238 26.2868 20.0873 26.0684V23.6294C19.8317 24.9399 19.2838 25.9592 18.4438 26.76C18.2977 26.6144 18.1151 26.5052 17.9325 26.4324C18.9916 25.4859 19.576 24.1026 19.6856 22.3189H18.5899V21.7729H19.6856C19.6856 21.6637 19.6856 21.5545 19.6856 21.3725V19.7708H20.2334V21.3725C20.2334 21.5545 20.2334 21.7001 20.2334 21.7729H21.8769V22.3189H20.1969C20.1969 22.3553 20.1969 22.4281 20.1969 22.5009C20.1969 22.5737 20.1969 22.6466 20.1969 22.7194H20.5621V25.9956C20.5621 26.0684 20.5986 26.1048 20.6352 26.1412C20.7447 26.1048 20.8178 26.1412 20.8908 26.1412ZM21.8769 21.2269L21.4021 21.4453C21.256 21.0813 21.0004 20.7172 20.6352 20.3168C20.5986 20.2804 20.5621 20.244 20.5256 20.2076L20.9639 19.9892C21.3291 20.3532 21.6213 20.7172 21.8404 21.1541C21.8404 21.1541 21.8404 21.1905 21.8769 21.2269Z" fill="#1F1E1D"/>
<path d="M29.2544 21.2631H25.1274C24.9813 21.5907 24.7987 21.8819 24.6526 22.1367H28.3413V25.9954C28.3413 26.2866 28.2683 26.4686 28.1222 26.5414C28.0857 26.5778 28.0492 26.5778 28.0127 26.5778C27.7935 26.6506 27.3552 26.687 26.6613 26.687C26.6248 26.5414 26.5883 26.323 26.4787 26.141C26.6978 26.141 27.0631 26.141 27.5744 26.141C27.684 26.141 27.757 26.0682 27.757 25.9954V25.1945H24.543V26.687H23.9952V23.0104C23.5934 23.4836 23.1552 23.884 22.7169 24.2116C22.6439 24.066 22.4978 23.9204 22.3517 23.7748C23.2282 23.1924 23.9221 22.3551 24.47 21.2267H22.5343V20.6806H24.6891C24.8352 20.2802 24.9448 19.9526 25.0178 19.6978L25.6022 19.8434C25.4926 20.2074 25.383 20.4622 25.31 20.6806H29.2179V21.2631H29.2544ZM27.7935 23.4472V22.6827H24.5796V23.4472H27.7935ZM24.6161 24.7213H27.83V23.9204H24.6161V24.7213Z" fill="#1F1E1D"/>
<path d="M30.5692 24.9763L31.117 25.1219C30.8614 25.7771 30.5692 26.3232 30.1675 26.76C30.0214 26.6508 29.8753 26.5416 29.7292 26.4324C30.0944 25.9955 30.3866 25.5223 30.5692 24.9763ZM32.6145 20.0256V24.7943H30.1309V20.0256H32.6145ZM32.0666 21.4817V20.5352H30.6422V21.4817H32.0666ZM32.0666 22.9014V21.9185H30.6422V22.9014H32.0666ZM32.0666 24.321V23.3382H30.6422V24.321H32.0666ZM31.6283 25.1583L32.0666 24.9399C32.4318 25.4131 32.6875 25.8135 32.8336 26.1412L32.3588 26.396C32.2127 26.0319 31.957 25.6315 31.6283 25.1583ZM36.778 21.9185H34.9154V23.3746H36.4128V26.6872H35.8649V26.3596H33.6736V26.7236H33.1258V23.411H34.3675V19.7708H34.9154V21.4453H36.778V21.9185ZM35.8649 25.8499V23.8842H33.6736V25.8499H35.8649Z" fill="#1F1E1D"/>
<path d="M37.9832 22.4645L38.5311 22.5737C38.3484 23.957 38.0563 24.9399 37.618 25.5223L37.1067 25.1947C37.5815 24.6487 37.8371 23.7386 37.9832 22.4645ZM39.2615 21.8457H39.8459V25.6679C39.8459 25.8863 39.8824 25.9955 39.992 26.0319C40.065 26.0684 40.1746 26.0683 40.3572 26.0683H41.7816C42.0007 26.0683 42.1468 25.9956 42.1833 25.8135C42.2563 25.6315 42.3294 25.1583 42.3659 24.4667C42.512 24.5759 42.6946 24.6851 42.9137 24.7215C42.8772 25.5223 42.7677 26.0319 42.6216 26.2504C42.4755 26.4688 42.2198 26.578 41.8181 26.578H40.3207C39.8459 26.578 39.5537 26.5052 39.4441 26.3232C39.3346 26.1776 39.298 25.9592 39.298 25.6315V21.8457H39.2615ZM39.3346 20.2076L39.6998 19.7708C40.5033 20.0256 41.2702 20.3896 42.0737 20.8992C42.1468 20.9356 42.2563 21.0084 42.3294 21.0448L41.9642 21.5545C41.4163 21.154 40.6859 20.79 39.8459 20.426C39.6633 20.3168 39.4806 20.244 39.3346 20.2076ZM42.439 22.4645L42.9503 22.2097C43.4981 22.9014 43.8998 23.6658 44.2285 24.4667C44.3016 24.6851 44.3746 24.8671 44.4112 25.0491L43.8633 25.3039C43.7172 24.6487 43.3885 23.9206 42.9137 23.1198C42.7311 22.9014 42.585 22.6829 42.439 22.4645Z" fill="#1F1E1D"/>
<path d="M46.2373 19.7344L46.8582 19.8436C46.7121 20.3168 46.566 20.6808 46.4564 20.972H47.7347V25.9228H45.6164V26.5416H45.1051V20.972H45.9816C46.0912 20.426 46.2008 20.0256 46.2373 19.7344ZM47.2234 23.047V21.4817H45.6164V23.0834H47.2234V23.047ZM45.6164 25.4131H47.2234V23.593H45.6164V25.4131ZM51.4965 20.9356V21.2269C51.4235 23.6294 51.3139 25.1219 51.2043 25.6679C51.1313 25.9592 51.0582 26.1412 50.9852 26.2504C50.8391 26.4324 50.6565 26.5416 50.4008 26.5416H50.3643C50.1452 26.578 49.78 26.578 49.2321 26.5416C49.1956 26.3596 49.1591 26.1776 49.0495 25.9956C49.3782 26.032 49.78 26.032 50.1817 26.032C50.3278 26.032 50.4374 25.9956 50.5104 25.9228C50.693 25.7408 50.8026 25.0127 50.8756 23.7386C50.9122 23.1562 50.9487 22.3917 50.9852 21.4817H49.0495C48.7939 22.0641 48.5747 22.5009 48.3191 22.8286C48.246 22.7558 48.0999 22.6465 47.8443 22.5009C48.3556 21.8457 48.7208 20.9357 49.013 19.7344L49.5608 19.8436C49.4878 20.2076 49.3782 20.5716 49.2321 20.9356H51.4965ZM50.2548 24.3575L49.78 24.6487C49.5608 24.2119 49.1591 23.593 48.6113 22.9014L49.0495 22.6466C49.6339 23.3746 50.0356 23.9206 50.2548 24.3575Z" fill="#1F1E1D"/>
<path d="M55.3314 20.79H58.0706V26.7236H57.4862V26.3232H53.3957V26.76H52.8113V20.79H54.747C54.8931 20.3532 55.0027 19.9892 55.0392 19.7344L55.6966 19.8072C55.6236 20.0984 55.4775 20.426 55.3314 20.79ZM57.4862 21.2997H53.3957V22.4281H57.4862V21.2997ZM57.4862 22.9742H53.3957V24.1026H57.4862V22.9742ZM53.3957 25.7771H57.4862V24.6487H53.3957V25.7771Z" fill="#1F1E1D"/>
<path d="M62.5263 24.6849L62.5628 25.1945C62.0515 25.3037 60.9193 25.5585 59.1662 25.9954L59.0566 25.4129L59.6045 25.3037V20.1346H62.088V24.7577L62.5263 24.6849ZM61.5402 20.6442H60.1158V21.7727H61.5402V20.6442ZM61.5402 23.338V22.2459H60.1158V23.338H61.5402ZM60.1158 23.884V25.1945C60.2619 25.1581 60.5175 25.1217 60.8097 25.0489C61.1384 24.9761 61.3941 24.9397 61.5402 24.9033V23.884H60.1158ZM64.1332 21.4451H65.8498C65.8498 21.4451 65.8498 21.5543 65.8498 21.7363C65.7768 24.0296 65.7037 25.4129 65.5941 25.9226C65.5576 26.141 65.4846 26.2866 65.4115 26.3594C65.302 26.505 65.1194 26.6142 64.9002 26.6506H64.8637C64.7176 26.6506 64.3524 26.6506 63.8045 26.6506C63.768 26.4322 63.7315 26.2502 63.6219 26.1046C63.9141 26.141 64.2428 26.141 64.608 26.141C64.7541 26.141 64.8272 26.1046 64.9002 26.0318C65.0463 25.8497 65.1193 25.1217 65.1924 23.8112C65.2289 23.338 65.2289 22.7192 65.2654 21.9911H64.0602C63.9872 23.52 63.695 24.6849 63.1837 25.4857C62.855 25.9954 62.4532 26.3958 61.9784 26.7234C61.8689 26.5414 61.7593 26.4322 61.6132 26.323C61.6132 26.323 61.5767 26.323 61.5767 26.2866C62.4532 25.7405 63.0376 24.8305 63.3298 23.6292C63.4393 23.156 63.5124 22.6099 63.5489 21.9547H62.3437V21.4087H63.5854C63.5854 21.0446 63.6219 20.4622 63.6219 19.6978H64.1698C64.1698 20.4986 64.1332 21.0811 64.1332 21.4451Z" fill="#1F1E1D"/>
<path d="M68.2603 22.683L67.9316 23.1562C67.6394 22.865 67.2011 22.5738 66.6533 22.2825C66.6168 22.2825 66.6168 22.2461 66.6168 22.2461L66.9455 21.8457C67.4933 22.1369 67.9681 22.4281 68.2603 22.683ZM68.0046 23.8114L68.4064 24.139C68.0777 24.9399 67.7124 25.7771 67.2742 26.6144L66.7628 26.2504C67.2011 25.5223 67.6394 24.7215 68.0046 23.8114ZM68.5524 20.7172L68.1872 21.1541C67.9316 20.8628 67.4933 20.5716 66.9455 20.244L66.9089 20.2076L67.2376 19.8436C67.7855 20.1348 68.1872 20.3896 68.5159 20.6808C68.5524 20.6808 68.5524 20.6808 68.5524 20.7172ZM72.2777 26.1048H72.9351C73.0447 26.1048 73.0812 26.032 73.1177 25.9228C73.1543 25.7772 73.1908 25.4495 73.1908 24.9763C73.3369 25.0855 73.483 25.1583 73.7021 25.2311C73.6656 25.8864 73.5925 26.3232 73.4464 26.4688C73.3369 26.578 73.1908 26.6508 73.0082 26.6508H72.2412C71.9125 26.6508 71.6934 26.578 71.6203 26.396C71.5473 26.2868 71.5473 26.1048 71.5473 25.8863V23.4474H70.5612C70.4881 24.3939 70.342 25.1219 70.0864 25.5587C69.7942 26.0684 69.3194 26.4688 68.662 26.7236C68.589 26.5416 68.4794 26.396 68.3333 26.2868C68.3333 26.2868 68.3333 26.2868 68.2968 26.2504C68.9907 25.9956 69.429 25.5951 69.6846 25.0855C69.8672 24.7215 69.9403 24.1754 70.0133 23.411H68.662V22.865H70.8899V21.5181H69.7577C69.5385 22.0277 69.3559 22.3917 69.1733 22.6466C68.9907 22.5009 68.8081 22.3917 68.662 22.3553C69.1003 21.7729 69.429 20.9356 69.6116 19.8436L70.1959 19.9528C70.1229 20.2804 70.0499 20.6444 69.9403 20.972H70.8899V19.7344H71.4377V20.972H73.3369V21.5181H71.4377V22.865H73.629V23.411H72.0951V25.8136C72.0951 25.9592 72.1316 26.032 72.1682 26.0684C72.1682 26.1048 72.2047 26.1048 72.2777 26.1048Z" fill="#1F1E1D"/>
<path d="M80.3857 22.0639L80.8605 22.3915C80.2396 22.9376 79.5822 23.4472 78.8883 23.9204C79.3631 24.7941 80.1301 25.5585 81.1892 26.1774C81.0066 26.2866 80.897 26.4686 80.7875 26.6506V26.687C79.6918 25.9954 78.9248 25.1945 78.4135 24.2116C78.0848 23.5564 77.8291 22.7192 77.6465 21.7363C77.3178 22.1731 76.8796 22.6099 76.4048 23.0104V25.7405C76.4048 25.7405 77.1352 25.5949 78.5231 25.3037L78.5596 25.8497C77.9752 25.959 77.0987 26.141 75.93 26.3958C75.4187 26.505 75.0169 26.5778 74.7978 26.6142L74.6152 26.0318C74.7247 25.9954 74.9439 25.959 75.1995 25.9226C75.4552 25.8862 75.6378 25.8498 75.7839 25.8134V23.4108C75.3456 23.702 74.8708 23.9932 74.3595 24.2116C74.2865 24.066 74.1769 23.9204 74.0308 23.7384C74.9804 23.338 75.8204 22.7556 76.5509 22.0275C76.7335 21.8455 76.9161 21.6271 77.0622 21.4451H74.25V20.899H77.2813V19.6978H77.8657V20.899H80.9335V21.4451H78.1213C78.2309 22.2459 78.4135 22.9012 78.6692 23.4472C79.3266 23.0104 79.9109 22.5735 80.3857 22.0639Z" fill="#1F1E1D"/>
<path d="M6.97577 35.1322H3.61571C3.57919 35.3506 3.54267 35.5327 3.50614 35.7147H6.17228C6.17228 35.7147 6.17228 35.7875 6.17228 35.9331C6.09923 36.8431 5.95314 37.3892 5.80705 37.6076C5.77053 37.6076 5.77053 37.644 5.77053 37.644C5.62444 37.7532 5.47835 37.826 5.25922 37.826C5.07661 37.826 4.74791 37.826 4.30964 37.826C4.27312 37.644 4.23659 37.462 4.16355 37.3528C4.4192 37.3892 4.71138 37.3892 5.07661 37.3892C5.2227 37.3892 5.29574 37.3528 5.33226 37.3528C5.44183 37.2072 5.5514 36.8431 5.62444 36.2243H3.36006C3.1044 36.8795 2.62961 37.3528 1.93569 37.6804C1.75307 37.7532 1.57046 37.826 1.35133 37.8988C1.27828 37.7168 1.16872 37.5712 1.02263 37.462C1.86264 37.2436 2.447 36.8431 2.73918 36.2607C2.88527 35.9695 2.99483 35.6055 3.03136 35.1686H1.38785C1.27828 36.2607 0.94958 37.1344 0.438267 37.7896C0.365222 37.644 0.219133 37.5348 0.0730436 37.4256C0.0365212 37.3892 0 37.3892 0 37.3892C0.547835 36.6975 0.840012 35.6783 0.876534 34.3314C0.876534 34.2222 0.876534 34.0766 0.876534 33.9674V31.31L1.38785 31.4556C3.28701 31.3828 4.74791 31.2372 5.77053 31.0552L6.17228 31.492C5.04008 31.7104 3.46962 31.856 1.42437 31.9288V32.3657H6.39141V34.0402H1.42437C1.42437 34.2586 1.42437 34.5134 1.38785 34.7318H3.50614V34.0402H4.05398V34.7318H6.90272V35.1322H6.97577ZM5.8801 32.7297H1.46089V33.4941H5.8801V32.7297Z" fill="#1F1E1D"/>
<path d="M11.2124 34.6227H10.628V33.6399H11.6141V34.4407C11.6141 34.9868 11.395 35.3872 10.9567 35.642C10.8837 35.6784 10.8471 35.7148 10.8106 35.7148L10.628 35.4236C11.0297 35.2416 11.2124 34.9504 11.2124 34.6227Z" fill="#1F1E1D"/>
<path d="M16.5446 31.9654H16.2159C15.9968 32.3294 15.7411 32.6571 15.4855 32.9119C15.3759 32.8027 15.2298 32.6935 15.0107 32.5843C15.4855 32.1474 15.8507 31.6014 16.1429 30.9098C16.1429 30.8734 16.1794 30.8369 16.1794 30.8005L16.7272 30.9462C16.6542 31.0918 16.5811 31.2738 16.4716 31.4922H18.4803V31.9654H17.0925C17.2385 32.2566 17.3116 32.4751 17.3481 32.6571L16.8368 32.8391C16.8368 32.6207 16.7272 32.3294 16.5446 31.9654ZM22.0595 34.7684H20.416V35.4236H21.8404V35.9333H20.416V37.1709C20.416 37.4258 20.343 37.6078 20.1969 37.6806C20.1603 37.717 20.1238 37.717 20.0508 37.7534C19.8682 37.8262 19.4299 37.8262 18.736 37.8262C18.6994 37.6806 18.6264 37.4986 18.5168 37.2802C19.1012 37.2802 19.4664 37.2802 19.6125 37.2802C19.7221 37.2438 19.7586 37.2073 19.7951 37.1345V35.9333H15.3394V35.4236H19.7951V34.7684H15.0837V34.2588H18.2247V33.5671H15.8507V33.0939H18.2247V32.5843C18.1881 32.5479 18.1516 32.5479 18.0786 32.5114C18.042 32.475 18.0055 32.4751 18.0055 32.4751C18.4438 32.0746 18.809 31.6014 19.0281 31.019C19.0647 30.9462 19.0647 30.9098 19.1012 30.837L19.649 30.9462C19.576 31.1282 19.5029 31.3102 19.4299 31.4922H21.9134V31.9654H20.2699C20.4525 32.2202 20.5986 32.4751 20.7082 32.6571L20.1969 32.8755C20.1238 32.5843 19.9412 32.293 19.649 31.9654H19.1377C18.9916 32.1838 18.8455 32.4022 18.6629 32.5843H18.7725V33.1303H21.256V33.6035H18.7725V34.2952H21.9499V34.7684H22.0595ZM16.4716 36.2609L16.8733 35.9333C17.3846 36.2609 17.7864 36.5885 18.0786 36.9161C18.1151 36.9525 18.1516 37.0253 18.1881 37.0617L17.7499 37.4258C17.5307 37.0981 17.1655 36.7705 16.6907 36.4065C16.6177 36.3701 16.5446 36.2973 16.4716 36.2609Z" fill="#1F1E1D"/>
<path d="M24.47 32.5478L24.9813 32.7662C24.7987 33.0574 24.6161 33.385 24.3604 33.7127V37.8625H23.8126V34.3679C23.5204 34.6955 23.2282 34.9868 22.936 35.2052C22.863 35.0232 22.7534 34.8047 22.6439 34.6591C23.2647 34.1859 23.8126 33.6399 24.2508 33.021C24.3239 32.8026 24.3969 32.657 24.47 32.5478ZM24.3604 30.8733L24.9082 31.0917C24.543 31.6378 24.0317 32.1838 23.4108 32.657C23.3013 32.7662 23.1917 32.839 23.0456 32.9118C22.9726 32.7662 22.863 32.6206 22.7534 32.4386C23.2647 32.111 23.7395 31.7105 24.1048 31.2373C24.2143 31.0917 24.2874 30.9825 24.3604 30.8733ZM29.7292 33.8583H28.6335V34.6955H29.6562V35.2052H28.6335V37.1345C28.6335 37.4257 28.5605 37.5713 28.4509 37.6805C28.4144 37.7169 28.3779 37.7169 28.3413 37.7169C28.1587 37.7897 27.757 37.7897 27.0996 37.7897C27.0631 37.6441 27.0265 37.4621 26.917 37.2437C27.3918 37.2437 27.7205 37.2437 27.9031 37.2437C28.0126 37.2073 28.0492 37.1709 28.0857 37.0981V35.1688H24.9813V34.6591H28.0857V33.8583H24.9082V33.3486H27.0265V32.3658H25.3465V31.8562H27.0265V30.9097H27.5744V31.8562H29.3275V32.3658H27.5744V33.3486H29.7292V33.8583ZM25.5656 35.6784L26.0404 35.4236C26.4422 35.8968 26.7344 36.2972 26.9535 36.6977V36.7341L26.4787 37.0253C26.2961 36.6249 26.0404 36.2244 25.6752 35.7876C25.6387 35.7512 25.6022 35.7148 25.5656 35.6784Z" fill="#1F1E1D"/>
<path d="M32.651 31.3466V36.3337H31.0075V36.9525H30.4962V31.3466H32.651ZM32.1031 31.8562H31.0075V33.5671H32.1031V31.8562ZM31.0075 35.8241H32.1031V34.0403H31.0075V35.8241ZM37.2163 33.7127H36.2302V34.5864H37.1067V35.096H36.2302V37.1345C36.2302 37.4258 36.1571 37.6078 35.9745 37.6806C35.938 37.6806 35.938 37.6806 35.938 37.6806C35.7554 37.7534 35.3536 37.7534 34.6962 37.7534C34.6597 37.5714 34.6232 37.3894 34.5136 37.2074C35.0249 37.2074 35.3536 37.2074 35.5362 37.2074C35.6458 37.1709 35.6823 37.1345 35.7189 37.0617V35.0232H32.8336V34.5864H35.7189V33.7127H32.7971V33.2031H34.7327V32.2202H33.1258V31.7106H34.7327V30.8005H35.2806V31.7106H36.9241V32.2202H35.2806V33.2031H37.2528V33.7127H37.2163ZM33.2719 35.6421L33.7466 35.3872C34.1484 35.7877 34.4771 36.1881 34.6962 36.5885C34.7327 36.6249 34.7327 36.6613 34.7327 36.6977L34.258 36.9889C34.0753 36.5885 33.7832 36.1881 33.3814 35.7513C33.3449 35.6785 33.3084 35.6421 33.2719 35.6421Z" fill="#1F1E1D"/>
<path d="M44.4842 31.3829V31.9289H43.5346V36.9888C43.5346 37.3164 43.4251 37.5348 43.2424 37.644C43.2059 37.6804 43.1694 37.6804 43.1329 37.6804C42.9137 37.7532 42.3659 37.7896 41.5624 37.7896C41.5259 37.6076 41.4528 37.4256 41.3068 37.1708C41.8546 37.2072 42.3294 37.2072 42.7311 37.1708C42.8772 37.1708 42.9503 37.1344 42.9503 37.0252C42.9503 36.9888 42.9503 36.9888 42.9503 36.9524V31.8925H37.691V31.3464H44.4842V31.3829ZM41.5989 35.8967H39.0424V36.5156H38.4945V33.0573H41.5989V35.8967ZM41.0511 33.6034H39.0424V35.3507H41.0511V33.6034Z" fill="#1F1E1D"/>
<path d="M46.2738 34.3679V36.2972C46.639 36.8432 47.2964 37.098 48.246 37.1708C49.3052 37.2072 50.4008 37.2072 51.5696 37.1344C51.6426 37.1344 51.7156 37.1344 51.7887 37.1344C51.6791 37.28 51.6426 37.4621 51.6061 37.6805C50.3643 37.7169 49.2321 37.7169 48.2825 37.6805C47.333 37.6441 46.639 37.3892 46.1642 36.8796C46.1277 36.8432 46.0912 36.8068 46.0912 36.7704C45.799 37.0616 45.4338 37.3893 45.0321 37.7533L44.7399 37.2072C44.9955 37.0252 45.3608 36.734 45.7625 36.3336V34.8775H44.8129V34.3315H46.2738V34.3679ZM46.4564 33.3486L46.0912 33.749C45.8355 33.4578 45.4703 33.203 44.9225 32.8754C44.886 32.839 44.8494 32.839 44.8129 32.839L45.1781 32.4749C45.6529 32.6934 46.0547 32.9482 46.3469 33.2394C46.3834 33.2758 46.4199 33.3122 46.4564 33.3486ZM46.639 31.8197L46.2373 32.1837C46.0182 31.8925 45.6529 31.6377 45.1781 31.3465C45.1416 31.3101 45.0686 31.2737 45.0321 31.2737L45.3973 30.946C45.8721 31.2009 46.2738 31.4557 46.5295 31.7469C46.6025 31.7833 46.639 31.8197 46.639 31.8197ZM48.8669 36.9524V36.2244H46.6756V35.7875H48.8669V35.3143H47.1869V33.1302H48.8304V32.657H46.9312V32.2201H48.8304V31.7105H49.3782V32.2201H51.2774V32.657H49.3782V33.1302H51.0582V35.2779H49.3782V35.7512H51.6061V36.188H49.3782V36.916H48.8669V36.9524ZM47.2964 31.5285V32.0745H46.7851V31.0917H51.4965V32.0745H50.9852V31.5285H47.2964ZM47.6982 33.5306V34.0402H48.8669V33.5306H47.6982ZM47.6982 34.9139H48.8669V34.4043H47.6982V34.9139ZM50.5834 33.5306H49.4147V34.0402H50.5834V33.5306ZM50.5834 34.9139V34.4043H49.4147V34.9139H50.5834Z" fill="#1F1E1D"/>
<path d="M57.5592 32.6205H59.2027C59.2027 32.6205 59.2027 32.7297 59.2027 32.9118C59.1297 35.1687 59.0566 36.5156 58.9836 37.0252C58.9471 37.2436 58.874 37.4256 58.801 37.5348C58.6914 37.7168 58.5453 37.7897 58.3262 37.8261H58.2897C58.1071 37.8625 57.7783 37.8625 57.3766 37.8261C57.3401 37.6077 57.3036 37.4256 57.194 37.28C57.4862 37.3164 57.7784 37.3164 58.034 37.3164C58.1436 37.3164 58.2531 37.28 58.3262 37.2072C58.4723 37.0252 58.5453 36.188 58.6184 34.6591C58.6184 34.2586 58.6549 33.749 58.6549 33.203H57.5592C57.4862 34.6955 57.267 35.8603 56.8288 36.6612C56.5366 37.1708 56.2079 37.6077 55.7696 37.9353C55.6601 37.7897 55.514 37.644 55.3313 37.5348C55.4044 37.462 55.514 37.3892 55.6601 37.28C54.1992 37.462 53.14 37.5713 52.4461 37.6441L52.373 37.1344C52.8113 37.098 53.3591 37.0616 54.0531 36.9888V36.3336H52.5922V35.8967H54.0531V35.4235H52.6287V33.1666H54.0531V32.6933H52.4096V32.2565H54.0531V31.7469C53.3957 31.7833 52.9209 31.8197 52.6287 31.8197C52.5922 31.6377 52.5557 31.5285 52.4826 31.3829C53.9435 31.3101 55.0392 31.2008 55.8061 31.0188L56.0983 31.4557C55.7331 31.5285 55.2583 31.6013 54.6009 31.6741V32.2201H56.2444V32.6569H54.6009V33.1302H56.0983V35.3871H54.6009V35.8603H56.0983V36.2972H54.6009V36.916C54.9296 36.8796 55.4409 36.8432 56.1348 36.734V36.7704C56.6096 36.1152 56.9383 35.1323 57.0479 33.8218C57.0479 33.6398 57.0844 33.4214 57.0844 33.203H56.1714V32.6569H57.0844C57.0844 32.2929 57.0844 31.7469 57.0844 30.9824H57.6323C57.5957 31.7105 57.5592 32.2565 57.5592 32.6205ZM53.067 33.4578V34.0038H54.0166V33.4578H53.067ZM53.067 34.9503H54.0166V34.4042H53.067V34.9503ZM55.5505 33.4578H54.5644V34.0038H55.5505V33.4578ZM55.5505 34.9503V34.4042H54.5644V34.9503H55.5505Z" fill="#1F1E1D"/>
<path d="M61.2845 30.8733L61.7958 31.0189C61.6497 31.4921 61.4671 31.9654 61.248 32.4386V37.7897H60.7367V33.4215C60.481 33.8219 60.2619 34.1495 60.0427 34.3679C59.9332 34.1131 59.8236 33.8947 59.7505 33.7855C60.3349 33.1302 60.7732 32.2566 61.1384 31.2009C61.2115 31.0917 61.248 30.9825 61.2845 30.8733ZM62.9645 33.6035L63.2567 33.6763C63.1837 34.7683 62.9645 35.642 62.6723 36.37C63.0376 36.8433 63.6219 37.1345 64.4254 37.1709C64.5715 37.1709 64.7176 37.1709 64.9002 37.1709C66.0689 37.1709 66.7994 37.1709 67.0185 37.1709C66.9089 37.3529 66.8724 37.4985 66.8359 37.6805H64.9002C63.9871 37.6805 63.2932 37.4985 62.8184 37.1709C62.6723 37.0617 62.5628 36.9525 62.4532 36.8433C62.2341 37.2073 61.9784 37.5349 61.6497 37.7897C61.5401 37.6077 61.4306 37.4621 61.321 37.3893C61.6497 37.1709 61.9054 36.8069 62.161 36.4064C61.9054 36.006 61.7228 35.46 61.6132 34.8411L62.0515 34.6955C62.1245 35.1324 62.2706 35.5328 62.4167 35.8604C62.5993 35.3508 62.7454 34.7683 62.8184 34.0767H62.161L61.9784 34.4407L61.5036 34.3315C61.8323 33.6763 62.161 32.9118 62.5263 32.0018H61.7228V31.5285H62.7819L62.8549 31.4921L63.2202 31.6013C62.8915 32.3658 62.5993 33.0574 62.3436 33.6399H62.928L62.9645 33.6035ZM64.6445 32.5114V31.929H63.5124V31.4921H64.6445V30.8733H65.1559V31.4921H66.5437V32.5114H67.0185V32.9482H66.5437V33.9675H65.1559V34.5499H66.6168V34.9867H65.1559V35.5692H66.8359V36.006H65.1559V36.8797H64.6445V36.0424H63.1836V35.6056H64.6445V35.0232H63.4028V34.5863H64.6445V34.0039H63.5124V33.5671H64.6445V32.9846H63.001V32.5478H64.6445V32.5114ZM66.0324 31.929H65.1559V32.5114H66.0324V31.929ZM66.0324 33.5671V32.9846H65.1559V33.5671H66.0324Z" fill="#1F1E1D"/>
<path d="M73.8482 33.2759L74.3961 33.5671C74.0308 34.0768 73.6291 34.5864 73.1178 35.0232V37.0253C73.1178 37.353 73.0447 37.5714 72.8621 37.6806C72.8256 37.717 72.7891 37.717 72.7526 37.7534C72.5334 37.8262 72.0221 37.8626 71.2186 37.8262C71.1821 37.6442 71.1091 37.4258 70.9995 37.2437C71.5108 37.2801 71.9856 37.2801 72.3508 37.2437C72.4604 37.2437 72.5334 37.2074 72.5699 37.0981C72.5699 37.0617 72.5699 37.0617 72.5699 37.0253V35.4964C71.3282 36.4429 69.7942 37.2074 67.9681 37.7534C67.822 37.535 67.7125 37.353 67.6029 37.2437C69.1003 36.8433 70.4517 36.2609 71.5473 35.5328C69.6482 35.6784 68.3699 35.7877 67.749 35.8241L67.676 35.2416C67.749 35.2416 68.1507 35.2052 68.8812 35.1688V31.565H70.4517C70.5977 31.2374 70.7073 30.9825 70.7804 30.8005L71.4378 30.9098C71.3647 31.0918 71.2186 31.3102 71.0725 31.565H73.1908V34.1496C73.41 33.9311 73.6291 33.6035 73.8482 33.2759ZM72.5699 32.111H69.429V32.8027H72.5699V32.111ZM72.5699 33.9311V33.2395H69.429V33.9311H72.5699ZM69.3925 34.368V35.1688C70.0134 35.1324 70.9995 35.0596 72.2778 34.9868C72.3873 34.8776 72.4969 34.8048 72.5699 34.732V34.368H69.3925Z" fill="#1F1E1D"/>
<path d="M78.2674 36.0424L78.304 36.5885C76.2222 37.0253 75.1265 37.2801 74.9804 37.3165L74.8708 36.7341C76.4413 36.4065 77.5735 36.188 78.2674 36.0424ZM80.6779 33.1666L81.2257 33.3123C80.897 34.3679 80.4223 35.2416 79.8744 35.9696C80.1666 36.8069 80.5318 37.2437 80.8605 37.2437C81.0066 37.2437 81.1162 37.0253 81.1527 36.5521C81.1892 36.3701 81.1892 36.1516 81.1892 35.8604C81.3353 36.006 81.5179 36.1152 81.7005 36.1881C81.6275 36.9889 81.5179 37.4621 81.2988 37.6805C81.1892 37.7897 81.0066 37.8626 80.7875 37.8626C80.2396 37.8626 79.7649 37.4257 79.3996 36.5521C78.9248 37.0617 78.4135 37.4985 77.7926 37.8626C77.6465 37.6805 77.5005 37.5349 77.3544 37.4257C78.0848 37.0253 78.7057 36.5521 79.1805 35.9332C78.9248 35.096 78.7422 34.0039 78.6327 32.657H74.9439V32.111H78.6692C78.6692 31.8562 78.6327 31.4558 78.6327 30.9097H79.217C79.217 31.3101 79.217 31.7106 79.2535 32.111H81.5544V32.657H79.2901C79.3631 33.7127 79.5092 34.5863 79.6918 35.3144C80.1301 34.6591 80.4588 33.9675 80.6779 33.1666ZM75.3822 33.3123H78.0118V35.6056H75.3822V33.3123ZM77.4639 35.096V33.7855H75.8935V35.096H77.4639ZM81.3718 31.6378L81.0066 32.0382C80.751 31.7834 80.3127 31.4921 79.7649 31.2373C79.7283 31.2373 79.7283 31.2009 79.6918 31.2009L80.0205 30.8369C80.6414 31.1281 81.0797 31.383 81.3718 31.6378Z" fill="#1F1E1D"/>
<path d="M6.97577 46.963V47.4362H3.83485V48.3462C3.83485 48.6011 3.76181 48.7467 3.5792 48.8195C3.54268 48.8559 3.50615 48.8559 3.46963 48.8559C3.28702 48.8923 2.81223 48.9287 2.08178 48.9287C2.04526 48.7831 1.97221 48.6375 1.89917 48.4554C2.08178 48.4554 2.48352 48.4554 3.06788 48.4554C3.17745 48.419 3.25049 48.3827 3.25049 48.3099V47.4362H0.182617V46.963H3.25049V46.4897H3.5792C4.05399 46.3441 4.49226 46.1985 4.85748 46.0165H0.840021V45.5433H5.66097L5.80706 45.5069L6.17228 45.7981C5.51488 46.1985 4.74791 46.5261 3.79833 46.781V46.8902H6.97577V46.963ZM6.86621 42.5947V43.1043H0.255661V42.5947H3.25049V41.9395H3.83485V42.5947H6.86621ZM5.95315 45.1065H1.20524V43.5776H5.95315V45.1065ZM1.75308 44.0144V44.706H5.36879V44.0144H1.75308Z" fill="#1F1E1D"/>
<path d="M12.7828 45.4705L13.1481 45.7253C12.7828 46.4897 12.1985 47.145 11.395 47.6546C12.1985 48.0186 13.1481 48.2735 14.2437 48.3827C14.1342 48.5283 13.9881 48.6739 13.915 48.9287C12.7463 48.7467 11.7237 48.4555 10.8472 47.9822C10.0071 48.419 8.948 48.7467 7.74276 48.9287C7.63319 48.7467 7.52363 48.5647 7.41406 48.4191C8.54626 48.2734 9.49583 48.0186 10.2993 47.6546C9.64192 47.2178 9.13061 46.6717 8.76539 46.0893L8.83843 46.0529H8.50973V45.5069H12.6733L12.7828 45.4705ZM8.10799 44.6332V45.6889H7.56015V44.1236H8.76539C8.65582 43.8324 8.50973 43.5048 8.25407 43.1043L8.76539 42.9587C9.02105 43.3227 9.20366 43.6504 9.31322 43.9416L8.87496 44.0872H12.1985C12.4907 43.6503 12.7098 43.2135 12.9289 42.7767L13.5133 42.9587C13.2942 43.3591 13.075 43.7232 12.8194 44.0872H14.1342V45.6525H13.5863V44.5968H8.10799V44.6332ZM13.2576 41.9395L13.6594 42.4127C12.235 42.7039 10.2628 42.9223 7.77929 42.9951C7.77929 42.8495 7.74276 42.7039 7.66972 42.5219C9.97063 42.4127 11.7967 42.2671 13.075 42.0123C13.1481 41.9395 13.2211 41.9395 13.2576 41.9395ZM12.3081 46.0529H9.34974C9.71497 46.5625 10.1898 46.9994 10.8472 47.3634C11.5046 46.963 11.9794 46.5261 12.3081 46.0529ZM11.2489 43.978L10.7011 44.1236C10.628 43.7596 10.5185 43.3955 10.2993 42.9951L10.8106 42.8859C11.0298 43.2499 11.1759 43.6139 11.2489 43.978Z" fill="#1F1E1D"/>
<path d="M16.6542 41.9395L17.1655 42.1215C16.9464 42.5219 16.6907 42.9223 16.4716 43.25V46.3078H15.9238V43.9052C15.6316 44.1964 15.3759 44.4512 15.1568 44.6332C15.0837 44.4876 14.9377 44.342 14.7916 44.1964C15.449 43.7232 15.9968 43.1044 16.4351 42.3763C16.5081 42.1943 16.5812 42.0851 16.6542 41.9395ZM15.3759 48.6739L14.9011 48.3463C15.3759 48.0187 15.7046 47.4726 15.9603 46.7446L16.4716 46.9266C16.1794 47.7639 15.8142 48.3463 15.3759 48.6739ZM17.9325 48.3099H19.2838C19.4664 48.3099 19.5395 48.2735 19.6125 48.1643C19.649 48.0551 19.6856 47.8367 19.6856 47.4726C19.7951 47.5454 19.9777 47.6182 20.1969 47.691C20.1604 48.2007 20.0508 48.5283 19.9047 48.6739C19.7951 48.7831 19.576 48.8559 19.3203 48.8559H17.8594C17.3847 48.8559 17.129 48.7831 16.9829 48.6375C16.9099 48.5283 16.8733 48.3463 16.8733 48.1279V46.8174H17.4212V48.1279C17.4212 48.2371 17.4577 48.3099 17.5307 48.3463C17.6403 48.3099 17.7864 48.3099 17.9325 48.3099ZM21.8039 43.3592H21.183C21.0004 44.0508 20.6717 44.6333 20.2334 45.1065C20.7082 45.5433 21.2925 45.8345 21.9865 46.0166C21.8404 46.1622 21.6943 46.3442 21.6212 46.4898C20.9273 46.2714 20.343 45.9073 19.8317 45.4341C19.3934 45.7981 18.8455 46.0894 18.2247 46.3078C18.1516 46.1622 18.0421 46.0165 17.896 45.8709L17.8594 45.8345C18.5168 45.6525 19.0282 45.3613 19.4664 45.0337C19.1742 44.6697 18.8821 44.2328 18.6995 43.7596C18.4803 44.0508 18.2612 44.3056 18.0421 44.4877C17.9325 44.3784 17.7864 44.2328 17.6403 44.1236V45.8345H17.0925V42.8495H17.6403V44.0872C18.2247 43.5412 18.6995 42.8859 18.9916 42.0487C19.0282 41.9759 19.0282 41.9395 19.0647 41.9031L19.6125 42.0487C19.5029 42.3035 19.3934 42.5583 19.2838 42.8131H21.8404V43.3592H21.8039ZM19.1742 47.0722L18.809 47.4726C18.5534 47.1814 18.1151 46.9266 17.5673 46.6354C17.4942 46.599 17.4577 46.5626 17.3846 46.5626L17.7499 46.1986C18.2612 46.417 18.736 46.6718 19.1012 46.963C19.1012 46.9994 19.1377 47.0358 19.1742 47.0722ZM20.5986 43.3592H19.0282C19.2473 43.9052 19.503 44.342 19.8317 44.7425C20.1604 44.342 20.416 43.9052 20.5986 43.3592ZM19.9777 46.9266L20.4525 46.6354C21.0004 47.0722 21.4386 47.5454 21.7673 48.0187C21.8404 48.1279 21.8769 48.2007 21.9134 48.2735L21.4021 48.5647C21.183 48.1279 20.8178 47.6546 20.2699 47.145C20.1604 47.1086 20.0873 47.0358 19.9777 46.9266Z" fill="#1F1E1D"/>
<path d="M25.3465 44.8516H23.3013V48.9287H22.7534V42.3035H25.383V44.8516H25.3465ZM24.8352 42.7767H23.3013V43.3591H24.8352V42.7767ZM23.3013 44.3784H24.8352V43.796H23.3013V44.3784ZM27.0631 45.2885V48.0914C27.0631 48.3098 26.99 48.4554 26.8804 48.5282C26.8439 48.5282 26.8439 48.5647 26.8074 48.5647C26.6613 48.6375 26.3326 48.6375 25.8213 48.6375C25.8213 48.4918 25.7483 48.3462 25.6752 48.1642C26.077 48.1642 26.3326 48.1642 26.4422 48.1642C26.5152 48.1642 26.5517 48.1278 26.5517 48.055V47.4362H25.0178C24.9448 47.9822 24.7256 48.4191 24.47 48.7467C24.3239 48.6375 24.1778 48.5283 24.0317 48.4919C24.3969 48.055 24.5795 47.4362 24.5795 46.6353V45.252H27.0631V45.2885ZM25.0543 47.0722H26.5517V46.5989H25.0908V46.6717C25.0908 46.8538 25.0543 46.9994 25.0543 47.0722ZM26.5517 45.7253H25.0908V46.1985H26.5517V45.7253ZM28.8892 42.3035V48.237C28.8892 48.5283 28.8161 48.7103 28.6335 48.8195C28.597 48.8195 28.597 48.8559 28.5605 48.8559C28.3779 48.9287 27.9761 48.9651 27.3552 48.9651C27.3187 48.7467 27.2457 48.5647 27.1361 48.419C27.3187 48.419 27.6109 48.419 28.1222 48.419C28.2318 48.3826 28.2683 48.3462 28.3048 48.237V44.8516H26.1865V42.3035H28.8892ZM28.3048 42.7767H26.7344V43.3591H28.3048V42.7767ZM26.7344 44.3784H28.3048V43.796H26.7344V44.3784Z" fill="#1F1E1D"/>
<path d="M31.2631 41.9395L31.884 42.0487C31.7379 42.5219 31.5918 42.8859 31.4822 43.1771H32.7605V48.1278H30.6422V48.7467H30.1309V43.1771H31.0075C31.117 42.6311 31.2266 42.2307 31.2631 41.9395ZM32.2127 45.2885V43.6868H30.6057V45.2885H32.2127ZM30.6057 47.6182H32.2127V45.7981H30.6057V47.6182ZM36.4858 43.1407V43.4319C36.4128 45.8345 36.3032 47.327 36.1936 47.873C36.1206 48.1642 36.0475 48.3462 35.9745 48.4554C35.8284 48.6375 35.6458 48.7467 35.3901 48.7467H35.3536C35.1345 48.7831 34.7693 48.7831 34.2214 48.7467C34.1849 48.5647 34.1484 48.3827 34.0388 48.2007C34.3675 48.2371 34.7693 48.237 35.171 48.237C35.3171 48.237 35.4267 48.2006 35.4997 48.1278C35.6823 47.9458 35.7919 47.2178 35.8649 45.9437C35.9015 45.3613 35.938 44.5968 35.9745 43.6868H34.0388C33.7832 44.2692 33.564 44.706 33.3084 45.0336C33.2353 44.9608 33.0892 44.8516 32.8336 44.706C33.3449 44.0508 33.7101 43.1407 34.0023 41.9395L34.5501 42.0487C34.4771 42.4127 34.3675 42.7767 34.2214 43.1407H36.4858ZM35.2806 46.5989L34.8058 46.8902C34.5866 46.4533 34.1849 45.8345 33.6371 45.1428L34.0753 44.888C34.6232 45.5797 35.0249 46.1257 35.2806 46.5989Z" fill="#1F1E1D"/>
<path d="M39.1885 47.0358H37.9467V47.7638H37.4719V42.5219H39.152V47.0358H39.1885ZM38.7137 42.9587H37.9467V46.5261H38.7137V42.9587ZM40.6128 43.4684H41.7816C41.7816 43.4684 41.7816 43.5775 41.7816 43.7232C41.7085 46.1257 41.6355 47.5818 41.5259 48.0914C41.4894 48.2734 41.4529 48.4191 41.3798 48.4919C41.2703 48.6375 41.1242 48.7467 40.9415 48.7467C40.7224 48.7831 40.4668 48.7831 40.2476 48.7467C40.2476 48.5647 40.2111 48.3827 40.1381 48.237C40.3207 48.237 40.5033 48.2734 40.7224 48.2734C40.832 48.2734 40.905 48.237 40.9415 48.1642C41.0876 47.9822 41.1607 47.1086 41.2337 45.5433C41.2703 45.1064 41.2702 44.5968 41.2702 43.978H40.6128C40.5763 45.6161 40.3937 46.8538 40.065 47.6546C39.8824 48.1642 39.5902 48.6011 39.2615 48.9287C39.152 48.7831 39.0059 48.6739 38.8598 48.5647C39.4441 47.9458 39.8459 46.9994 39.992 45.6525C40.065 45.1793 40.1015 44.5968 40.1015 43.9416H39.4807V43.4319H40.1381C40.1381 43.1043 40.1381 42.5947 40.1381 41.9395H40.6494C40.6129 42.3399 40.6128 42.8495 40.6128 43.4684ZM42.0737 42.8495H43.9729V48.6011H43.4981V48.0186H42.5485V48.6739H42.0737V42.8495ZM42.5485 47.509H43.4981V43.3591H42.5485V47.509Z" fill="#1F1E1D"/>
<path d="M47.0042 46.7083H45.5434V47.3636H45.032V42.6677H47.0042V46.7083ZM46.4929 43.1773H45.5434V46.1623H46.4929V43.1773ZM49.3052 46.0167L49.3782 46.4535L48.9399 46.6355C48.7938 47.6184 48.3191 48.3828 47.5521 48.8925C47.5156 48.9289 47.479 48.9653 47.406 48.9653C47.2599 48.8197 47.1138 48.6741 47.0042 48.6013C47.6617 48.2008 48.0999 47.6184 48.3191 46.8539C47.9173 47.036 47.5156 47.1816 47.1138 47.3272L46.8947 46.8175C47.333 46.7083 47.8443 46.5263 48.4286 46.3443C48.4651 46.0895 48.4651 45.7983 48.4651 45.4343V45.3979H47.2234V44.8882H48.4651V43.8326H47.1869V43.2865H48.4651V42.0488H49.013V45.4343C49.013 45.6891 49.013 45.9075 48.9765 46.1623L49.3052 46.0167ZM51.7522 46.4171V46.9632H50.2547V48.9289H49.7069V42.0125H50.2547V43.2501H51.6791V43.7961H50.2547V44.8518H51.6061V45.3614H50.2547V46.4535H51.7522V46.4171Z" fill="#1F1E1D"/>
<path d="M54.7105 42.4491V47.4362H53.067V48.0551H52.5557V42.4491H54.7105ZM54.1626 42.9588H53.067V44.6697H54.1626V42.9588ZM53.067 46.9266H54.1626V45.1429H53.067V46.9266ZM59.2758 44.8517H58.2897V45.7253H59.1662V46.235H58.2897V48.2735C58.2897 48.5647 58.2166 48.7467 58.034 48.8195C57.9975 48.8195 57.9975 48.8195 57.9975 48.8195C57.8149 48.8923 57.4131 48.8923 56.7557 48.8923C56.7192 48.7103 56.6827 48.5283 56.5731 48.3463C57.0844 48.3463 57.4131 48.3463 57.5957 48.3463C57.7053 48.3099 57.7418 48.2735 57.7784 48.2007V46.1622H54.8566V45.6525H57.7418V44.7789H54.82V44.2692H56.7557V43.2864H55.1487V42.7768H56.7557V41.8667H57.3036V42.7768H58.9471V43.2864H57.3036V44.2692H59.2758V44.8517ZM55.3314 46.7446L55.8062 46.4898C56.2079 46.8902 56.5366 47.2906 56.7557 47.6911C56.7923 47.7275 56.7922 47.7639 56.7922 47.8003L56.3175 48.0915C56.1349 47.6911 55.8427 47.2906 55.4409 46.8538C55.4044 46.781 55.3679 46.7446 55.3314 46.7446Z" fill="#1F1E1D"/>
<path d="M64.9002 48.3827H65.8863C66.0324 48.3827 66.142 48.3099 66.1785 48.1643C66.215 48.0187 66.2516 47.6546 66.2881 47.0722C66.3976 47.1814 66.5803 47.2542 66.7994 47.327C66.7629 48.0187 66.6533 48.4919 66.5072 48.6739C66.3976 48.8195 66.1785 48.8923 65.9229 48.8923H64.8272C64.4254 48.8923 64.1698 48.8195 64.0602 48.6375C63.9872 48.5283 63.9506 48.3099 63.9506 48.0551V45.3613H62.5263C62.4532 46.3442 62.2341 47.0722 61.9419 47.5818C61.5767 48.2007 60.9558 48.6375 60.0793 48.9287C60.0062 48.7467 59.8967 48.6011 59.7506 48.4555C59.7506 48.4555 59.7506 48.4555 59.7141 48.4191C60.5906 48.1643 61.2115 47.7274 61.5037 47.0722C61.6863 46.6718 61.8323 46.0893 61.9054 45.3613H59.8601V44.8153H62.928V41.9031H63.5124V44.8153H66.6533V45.3613H64.462V48.0551C64.462 48.2007 64.4985 48.3099 64.5715 48.3463C64.7176 48.3827 64.7907 48.3827 64.9002 48.3827ZM62.015 44.1964L61.4671 44.4148C61.321 43.9416 61.0654 43.3592 60.6636 42.6675C60.6271 42.5947 60.5906 42.5583 60.5541 42.5219L61.0654 42.3399C61.5037 42.9951 61.7958 43.5776 61.9784 44.0872C61.9784 44.1236 61.9784 44.16 62.015 44.1964ZM65.5576 42.2307L66.142 42.4491C65.7402 43.3228 65.375 43.9416 65.0828 44.3784L64.6081 44.1964C64.9733 43.614 65.302 42.9951 65.5576 42.3399C65.5576 42.3035 65.5576 42.2671 65.5576 42.2307Z" fill="#1F1E1D"/>
<path d="M69.7942 45.4341C69.7942 45.1065 69.9403 44.8152 70.1959 44.5968C70.3785 44.4512 70.5977 44.3784 70.8168 44.3784C71.1455 44.3784 71.4377 44.524 71.6568 44.7788C71.8029 44.9608 71.876 45.1793 71.876 45.4341C71.876 45.7617 71.7299 46.0529 71.4742 46.2713C71.2916 46.4169 71.0725 46.4897 70.8168 46.4897C70.4881 46.4897 70.1959 46.3441 69.9768 46.0893C69.8672 45.9073 69.7942 45.6889 69.7942 45.4341ZM70.1594 45.4341C70.1594 45.6889 70.269 45.8709 70.4881 46.0165C70.5977 46.0893 70.7438 46.1257 70.8533 46.1257C71.109 46.1257 71.2916 46.0165 71.4377 45.7981C71.5107 45.6889 71.5473 45.5433 71.5473 45.4341C71.5473 45.1793 71.4377 44.9973 71.2186 44.8516C71.109 44.7788 70.9629 44.7424 70.8533 44.7424C70.5977 44.7424 70.4151 44.8516 70.269 45.07C70.1959 45.1793 70.1594 45.3249 70.1594 45.4341Z" fill="#1F1E1D"/>
<path d="M108 64.0721L149.051 28.2522" stroke="#B18053" stroke-miterlimit="10"/>
</svg>
