<?xml version="1.0" encoding="utf-8"?>
<!-- Generator: Adobe Illustrator 25.2.3, SVG Export Plug-In . SVG Version: 6.00 Build 0)  -->
<svg version="1.1" id="圖層_1" xmlns="http://www.w3.org/2000/svg" xmlns:xlink="http://www.w3.org/1999/xlink" x="0px" y="0px"
	 viewBox="0 0 150 65" style="enable-background:new 0 0 150 65;" xml:space="preserve">
<style type="text/css">
	.st0{fill:none;stroke:#B18053;stroke-miterlimit:10;}
</style>
<path class="st0" d="M108,64.1l41.1-35.8"/>
<g>
	<path d="M5.6,21.1v1.8l0.2-0.2c1.2,0.6,2.8,1.5,3.7,2.1l-0.7,0.9c-0.7-0.6-2-1.4-3.1-2V29h-1v-7.9H0.6v-1h9.3v1H5.6z"/>
	<path d="M13.7,25.3C13.5,25,13.3,24.5,13,24v5h-0.9v-4.7c-0.3,1-0.5,2-0.8,2.7c-0.1-0.3-0.3-0.7-0.5-1c0.5-0.9,0.9-2.5,1.2-3.7h-1
		v-0.9h1.1v-2H13v2h1v0.9h-1v0.5c0.3,0.4,1,1.6,1.2,1.9L13.7,25.3z M19.3,26.5c-0.2,0.4-0.5,0.8-0.8,1.2c0.7,0.2,1.4,0.5,2,0.7
		L19.8,29c-0.5-0.3-1.3-0.5-2.1-0.8c-0.8,0.4-1.8,0.7-3.3,0.8c-0.1-0.2-0.2-0.5-0.4-0.7c1.1-0.1,1.9-0.3,2.6-0.5
		c-0.6-0.2-1.3-0.4-1.9-0.5c0.2-0.2,0.5-0.5,0.8-0.9h-1.3v-0.8H16c0.2-0.2,0.3-0.5,0.5-0.7h-1.9v-1.8h2.3v-0.5h-2.1v-1.1h-0.6V21
		h0.6v-1h2.1v-0.6h0.9V20h2.1v1h0.6v0.7h-0.6v1.1h-2.1v0.5h2.4V25h-2.7c-0.1,0.2-0.3,0.5-0.4,0.7h1.7c0-0.1,0.1-0.3,0.1-0.4h0.9
		c0,0.1-0.1,0.3-0.1,0.4h1v0.8H19.3z M15.4,24.4h1.4v-0.5h-1.4V24.4z M15.6,20.6v0.5h1.2v-0.5H15.6z M16.9,22.2v-0.5h-1.2v0.5H16.9z
		 M16.5,26.5c-0.1,0.2-0.3,0.3-0.4,0.5c0.5,0.1,1,0.3,1.5,0.4c0.4-0.3,0.7-0.5,0.9-0.9H16.5z M17.8,20.6v0.5H19v-0.5H17.8z M19,22.2
		v-0.5h-1.3v0.5H19z M17.8,23.9v0.5h1.5v-0.5H17.8z"/>
	<path d="M23.3,25.5c-0.2,1-0.6,2-1,2.6c-0.2-0.1-0.5-0.4-0.7-0.5c0.4-0.6,0.7-1.5,0.9-2.4L23.3,25.5z M26.4,21.5h-4.7v-0.9h2.1
		c-0.1-0.3-0.3-0.7-0.4-1.1l0.9-0.2c0.2,0.4,0.4,0.9,0.5,1.3h1.6V21.5z M24.5,24.8V28c0,0.4-0.1,0.6-0.3,0.8C23.9,29,23.6,29,23,29
		c0-0.2-0.2-0.6-0.3-0.8c0.3,0,0.7,0,0.8,0c0.1,0,0.1,0,0.1-0.1v-3.2h-1.5v-2.6H26v2.6H24.5z M23,24.1h2.1V23H23V24.1z M25.5,25.2
		c0.3,0.6,0.7,1.3,0.8,1.8l-0.7,0.3c-0.1-0.5-0.4-1.3-0.7-1.9L25.5,25.2z M30.1,28.1c0.1,0,0.2,0,0.3-0.1c0.1,0,0.1-0.1,0.1-0.3
		c0-0.2,0-0.6,0-1.1c0.2,0.2,0.5,0.3,0.8,0.4c0,0.5-0.1,1-0.1,1.2c-0.1,0.2-0.2,0.4-0.4,0.5c-0.2,0.1-0.4,0.1-0.6,0.1h-0.7
		c-0.2,0-0.5-0.1-0.7-0.2c-0.2-0.1-0.2-0.3-0.2-1V24c-0.3,2-0.9,3.8-2.2,5c-0.2-0.2-0.5-0.5-0.7-0.6c1.5-1.3,2-3.4,2.2-5.5h-1.3
		v-0.9h1.3c0.1-0.9,0.1-1.8,0.1-2.7h0.9c0,0.9,0,1.8-0.1,2.7H31v0.9h-2.4c0,0.2-0.1,0.5-0.1,0.7h0.8v4c0,0.2,0,0.3,0.1,0.4
		c0.1,0,0.1,0.1,0.2,0.1H30.1z M30.1,21.8c-0.2-0.4-0.6-1.1-1-1.6l0.6-0.4c0.4,0.5,0.9,1.1,1.1,1.5L30.1,21.8z"/>
	<path d="M35.8,21.6c-0.2,0.4-0.4,0.7-0.6,1h5v5.2c0,0.5-0.1,0.8-0.5,1c-0.4,0.2-1,0.2-1.8,0.2c0-0.3-0.2-0.7-0.3-0.9
		c0.6,0,1.2,0,1.4,0c0.2,0,0.2-0.1,0.2-0.2V27H35c-0.2,0.8-0.5,1.6-1.1,2.1c-0.1-0.2-0.5-0.6-0.7-0.8c0.9-0.8,1-2,1-2.9v-1.2
		c-0.5,0.5-1,1-1.5,1.4c-0.1-0.2-0.4-0.6-0.6-0.8c1.2-0.8,2-1.9,2.7-3.2h-2.5v-0.9h2.9c0.2-0.4,0.3-0.9,0.4-1.3l1,0.2
		c-0.1,0.4-0.2,0.7-0.4,1.1h5.2v0.9H35.8z M39.3,26.2v-0.9h-4.1v0.2c0,0.2,0,0.5,0,0.7H39.3z M39.3,23.5h-4.1v0.9h4.1V23.5z"/>
	<path d="M44.5,26.8c-0.3,0.9-0.8,1.7-1.3,2.3c-0.2-0.2-0.6-0.4-0.8-0.6c0.5-0.5,1-1.2,1.2-1.9L44.5,26.8z M46.5,26.4H43v-6.6h3.5
		V26.4z M45.6,20.6h-1.6v1.2h1.6V20.6z M45.6,22.5h-1.6v1.2h1.6V22.5z M45.6,24.4h-1.6v1.2h1.6V24.4z M45.8,26.5
		c0.4,0.5,0.8,1.2,1,1.7L46,28.6c-0.2-0.5-0.6-1.2-1-1.7L45.8,26.5z M49.7,22.5v1.8h2V29h-1v-0.4h-2.7V29h-0.9v-4.6h1.6v-5h1v2.3
		h2.4v0.9H49.7z M50.7,25.3h-2.7v2.4h2.7V25.3z"/>
	<path d="M54.9,23.2c-0.2,1.3-0.5,3.1-0.9,4.2l-1-0.4c0.4-1.1,0.7-2.7,0.9-4L54.9,23.2z M56.7,22.3v5c0,0.5,0.1,0.6,0.7,0.6h1.8
		c0.6,0,0.7-0.3,0.8-2.1c0.2,0.2,0.7,0.4,0.9,0.4c-0.1,2-0.4,2.6-1.6,2.6h-1.9c-1.2,0-1.6-0.3-1.6-1.5v-5H56.7z M56.8,19.7
		c1,0.6,2.2,1.6,2.9,2.2L59,22.7c-0.6-0.7-1.8-1.7-2.8-2.3L56.8,19.7z M61.4,22.7c0.6,1.2,1.2,2.8,1.4,3.9l-1,0.4
		c-0.2-1.1-0.7-2.7-1.3-4L61.4,22.7z"/>
	<path d="M72.9,21c0,0,0,0.3,0,0.5c-0.1,4.7-0.3,6.4-0.7,6.9c-0.3,0.3-0.5,0.4-0.9,0.5c-0.4,0-1,0-1.6,0c0-0.3-0.1-0.7-0.3-0.9
		c0.7,0.1,1.3,0.1,1.5,0.1c0.2,0,0.3,0,0.4-0.2c0.3-0.3,0.5-1.9,0.6-5.9h-2.5c-0.3,0.7-0.6,1.3-1,1.8c-0.2-0.1-0.5-0.4-0.8-0.5v4.8
		h-2.8v0.8H64v-7.7h1.2c0.1-0.5,0.3-1.2,0.4-1.7l1.1,0.2c-0.2,0.5-0.4,1.1-0.5,1.5h1.7v2c0.7-0.9,1.2-2.3,1.6-3.7l0.9,0.2
		c-0.1,0.5-0.3,1-0.4,1.4H72.9z M64.9,21.9v2h2v-2H64.9z M66.9,27.1v-2.3h-2v2.3H66.9z M70.4,26.3c-0.3-0.6-1-1.7-1.5-2.4l0.8-0.4
		c0.6,0.7,1.3,1.7,1.6,2.3L70.4,26.3z"/>
	<path d="M82.6,20.8V29h-1v-0.5h-5.3V29h-1v-8.3H78c0.1-0.5,0.3-1,0.3-1.4l1.2,0.1c-0.2,0.4-0.3,0.9-0.5,1.3H82.6z M76.3,21.7v1.3
		h5.3v-1.3H76.3z M76.3,24v1.3h5.3V24H76.3z M81.6,27.6v-1.4h-5.3v1.4H81.6z"/>
	<path d="M89.4,26.9c-1.6,0.4-3.4,0.8-4.7,1.1l-0.2-1c0.2,0,0.5-0.1,0.7-0.1v-7h3.5v6.3l0.5-0.1L89.4,26.9z M86.2,20.8v1.3h1.7v-1.3
		H86.2z M87.9,22.9h-1.7v1.3h1.7V22.9z M86.2,26.7c0.5-0.1,1.1-0.2,1.7-0.4v-1.2h-1.7V26.7z M93.9,21.7c0,0,0,0.3,0,0.5
		c-0.1,4.3-0.2,5.9-0.5,6.3c-0.2,0.3-0.5,0.4-0.8,0.5c-0.3,0-0.9,0-1.4,0c0-0.3-0.1-0.7-0.3-0.9c0.5,0,1.1,0,1.3,0
		c0.2,0,0.3,0,0.4-0.2c0.2-0.3,0.3-1.7,0.4-5.3h-1.4c-0.2,2.7-0.7,5-2.8,6.4c-0.1-0.2-0.5-0.6-0.7-0.7c1.9-1.2,2.4-3.2,2.6-5.7h-1.5
		v-0.9h1.6c0-0.7,0-1.5,0-2.3h1c0,0.8,0,1.6,0,2.3H93.9z"/>
	<path d="M97,24.2c-0.4-0.4-1.2-0.9-1.8-1.2l0.5-0.7c0.7,0.3,1.5,0.8,1.9,1.1L97,24.2z M97.8,25.5c-0.5,1.1-1,2.4-1.5,3.4l-0.9-0.6
		c0.5-0.8,1.2-2.2,1.7-3.4L97.8,25.5z M97.4,21.4c-0.4-0.4-1.1-0.9-1.8-1.3l0.6-0.7c0.6,0.3,1.4,0.8,1.8,1.2L97.4,21.4z M103.8,28
		c0.2,0,0.3-0.2,0.3-1.5c0.2,0.2,0.6,0.3,0.9,0.4c-0.1,1.6-0.3,2-1.1,2h-1c-0.9,0-1.1-0.3-1.1-1.2v-3.1h-1.1
		c-0.2,2.1-0.6,3.6-2.6,4.4c-0.1-0.2-0.4-0.6-0.6-0.8c1.8-0.7,2.1-1.9,2.2-3.7H98v-0.9h2.9V22h-1.4c-0.2,0.6-0.5,1.1-0.8,1.5
		c-0.2-0.1-0.6-0.4-0.9-0.5c0.6-0.8,1.1-2.1,1.3-3.4l1,0.2c-0.1,0.5-0.2,0.9-0.3,1.3h1.1v-1.7h1V21h2.4V22h-2.4v1.7h2.8v0.9h-2v3.1
		c0,0.3,0,0.4,0.3,0.4H103.8z"/>
	<path d="M114.9,23.4c-0.7,0.7-1.6,1.5-2.3,2.1c0.6,0.9,1.5,1.7,2.8,2.5c-0.3,0.2-0.6,0.6-0.7,0.9c-2.7-1.7-3.7-3.7-4.2-6.4
		c-0.5,0.6-1,1.1-1.6,1.6v3.5l2.6-0.8c0,0.3,0.1,0.7,0.2,0.9c-3.2,1-3.6,1.2-3.9,1.4c-0.1-0.2-0.3-0.6-0.5-0.7
		c0.2-0.2,0.6-0.5,0.6-1v-2.5c-0.6,0.4-1.1,0.7-1.8,1c-0.1-0.3-0.4-0.7-0.6-0.9c1.5-0.7,3-1.8,3.9-3h-3.6V21h4.3
		c-0.1-0.4-0.3-1-0.6-1.4l1-0.3c0.3,0.5,0.6,1.1,0.7,1.5l-0.7,0.2h4.4V22h-3.7c0.2,1,0.4,1.9,0.8,2.6c0.7-0.6,1.4-1.3,1.9-1.9
		L114.9,23.4z"/>
	<path d="M5.5,41.4c0,0.3-0.1,0.5-0.1,0.7h3.5c0,0,0,0.3,0,0.4c-0.1,1.4-0.3,2-0.5,2.3C8.1,44.9,7.9,45,7.6,45c-0.3,0-0.8,0-1.3,0
		c0-0.3-0.1-0.6-0.3-0.8c0.5,0.1,1,0.1,1.2,0.1c0.2,0,0.3,0,0.4-0.1c0.1-0.1,0.2-0.5,0.3-1.3H5.1c-0.4,1-1.2,1.7-2.7,2.2
		c-0.1-0.2-0.3-0.6-0.5-0.8c2-0.5,2.5-1.5,2.7-2.9H2.5c-0.1,1.3-0.5,2.7-1.3,3.7c-0.1-0.2-0.5-0.6-0.7-0.7C1.5,43,1.6,41,1.6,39.5
		v-3.3h0C4,36,6.7,35.8,8.3,35.4L9,36.1c-1.8,0.4-4.2,0.6-6.5,0.8v0.5h6.7v2.4H2.6c0,0.3,0,0.6,0,0.9h3c-0.1-0.2-0.2-0.5-0.3-0.7
		l0.9-0.2c0.2,0.3,0.4,0.6,0.5,0.9h3.3v0.8H5.5z M2.6,38.1V39h5.7v-0.8H2.6z"/>
	<path d="M12.5,41.7c0.8-0.3,1.3-0.8,1.3-1.4c0,0-0.1,0-0.1,0c-0.5,0-0.9-0.3-0.9-0.8c0-0.5,0.4-0.8,0.9-0.8c0.7,0,1,0.5,1,1.3
		c0,1.2-0.7,2.1-1.9,2.5L12.5,41.7z"/>
	<path d="M19,36.9c-0.3,0.5-0.7,0.9-1,1.2c-0.1-0.2-0.5-0.5-0.7-0.7c0.7-0.5,1.2-1.3,1.6-2.2l0.9,0.3c-0.1,0.2-0.2,0.4-0.3,0.5H22
		v0.8h-1.7c0.3,0.3,0.7,0.6,0.8,0.8l-0.6,0.6c-0.2-0.3-0.7-0.7-1-1.1l0.4-0.3H19z M24.7,41.7h2v0.8h-2v1.6c0,0.5-0.1,0.7-0.5,0.8
		c-0.4,0.1-1,0.1-1.9,0.1c0-0.3-0.2-0.6-0.3-0.8c0.6,0,1.3,0,1.4,0c0.2,0,0.2-0.1,0.2-0.2v-1.5h-3.8c0.6,0.4,1.3,1.1,1.7,1.5
		l-0.7,0.6c-0.3-0.4-1.1-1.1-1.7-1.6l0.6-0.5h-2.4v-0.8h6.2v-0.6h1V41.7z M26.9,36.1v0.8h-2.1c0.3,0.3,0.7,0.7,0.8,0.9l-0.7,0.6
		c-0.2-0.3-0.6-0.8-1-1.1l0.4-0.4h-0.9c-0.3,0.5-0.6,0.9-0.9,1.2l0,0v0.3h3.8v0.8h-3.8v0.8h3.2v0.8h-7.4v-0.8h3.2v-0.8h-3.7v-0.8
		h3.7v-0.6h0.7c-0.1-0.1-0.3-0.2-0.4-0.3c0.6-0.6,1-1.4,1.3-2.3l0.9,0.2c-0.1,0.2-0.1,0.4-0.2,0.6H26.9z"/>
	<path d="M31.6,38c-0.2,0.4-0.5,0.9-0.8,1.3V45h-0.9v-4.6c-0.4,0.4-0.7,0.7-1.1,1c-0.1-0.2-0.3-0.7-0.5-1c0.9-0.7,1.9-1.7,2.5-2.8
		L31.6,38z M31.4,35.8c-0.6,0.9-1.7,1.9-2.6,2.5c-0.1-0.2-0.3-0.6-0.5-0.8c0.8-0.5,1.7-1.4,2.2-2.1L31.4,35.8z M37.9,36.7v0.9H35
		v1.1h2.4v0.9h-5.8v-0.9H34v-1.1h-2.8v-0.9H34v-1.2h1v1.2H37.9z M36.5,40.6h1.4v0.9h-1.4V44c0,0.5-0.1,0.8-0.5,0.9
		C35.7,45,35.1,45,34.3,45c0-0.3-0.2-0.7-0.3-0.9c0.6,0,1.2,0,1.4,0c0.2,0,0.2,0,0.2-0.2v-2.4h-4.3v-0.9h4.3v-0.8h1V40.6z
		 M32.8,41.7c0.5,0.5,1,1.3,1.3,1.8L33.2,44c-0.3-0.5-0.8-1.2-1.3-1.8L32.8,41.7z"/>
	<path d="M42.8,43h-2.2v0.9h-0.9V36h3.1V43z M40.6,36.9V39h1.3v-2.1H40.6z M41.9,42.1v-2.2h-1.3v2.2H41.9z M46.5,37.4v1.2h2.2v0.9
		h-0.9v1h1.1v0.9h-1.1v2.6c0,0.5-0.1,0.8-0.5,0.9C47,45,46.4,45,45.6,45c0-0.3-0.2-0.7-0.3-0.9c0.6,0,1.2,0,1.3,0
		c0.2,0,0.2-0.1,0.2-0.2v-2.6H43v-0.9h3.8v-1h-3.4v-0.9h2.1v-1.2H43v-0.9h2.5v-1.2h1v1.2H49v0.9H46.5z M44.4,41.6
		c0.5,0.5,1,1.2,1.3,1.7l-0.9,0.5c-0.2-0.5-0.8-1.2-1.3-1.8L44.4,41.6z"/>
	<path d="M59.9,37.1h-1.2v6.6c0,0.6-0.2,1-0.6,1.1C57.6,45,56.9,45,55.8,45c-0.1-0.3-0.3-0.8-0.4-1c0.8,0,1.7,0,1.9,0
		c0.2,0,0.3-0.1,0.3-0.3v-6.6h-7.1v-1h9.3V37.1z M52.6,42.4v0.8h-0.9v-4.8h4.3v3.9H52.6z M52.6,39.4v2.1H55v-2.1H52.6z"/>
	<path d="M64.2,40.4c-0.2,0.9-0.4,1.9-0.8,2.6c0.2,0.1,0.4,0.3,0.7,0.5C64.8,44,65.8,44,67,44c1.3,0,3-0.1,4.2-0.2
		c-0.1,0.3-0.3,0.7-0.3,1c-0.8,0.1-2.7,0.1-4,0.1c-1.4,0-2.3-0.1-3-0.6c-0.4-0.2-0.8-0.6-1-0.6c-0.2,0-0.6,0.7-0.9,1.3l-0.7-0.9
		c0.4-0.5,0.8-0.9,1.1-1.1c0.3-0.6,0.5-1.3,0.6-2h-1.4c0.3-0.6,0.6-1.5,0.9-2.3h-1.1v-0.9h2.3c-0.3,0.7-0.5,1.6-0.8,2.3h0.4l0.1,0
		L64.2,40.4z M62.6,37.4c-0.1-0.5-0.4-1.2-0.5-1.8l0.9-0.3c0.2,0.5,0.4,1.2,0.6,1.7L62.6,37.4z M65.1,37.7h-0.8v-2h6.6v2h-0.9v-1.2
		h-4.7v0.8h1.9v-0.5H68v0.5h1.8V38H68v0.5h2.2v3H68v0.5h2.8v0.7H68v0.8h-0.9v-0.8h-2.8v-0.7h2.8v-0.5h-2.2v-3h2.2V38h-2V37.7z
		 M65.7,39.7h1.4v-0.6h-1.4V39.7z M67.1,40.9v-0.6h-1.4v0.6H67.1z M68,39.2v0.6h1.4v-0.6H68z M69.4,40.3H68v0.6h1.4V40.3z"/>
	<path d="M81.9,37.8c0,0,0,0.3,0,0.5c-0.1,4.3-0.2,5.8-0.5,6.3c-0.2,0.3-0.4,0.4-0.7,0.5c-0.3,0-0.8,0-1.3,0c0-0.3-0.1-0.7-0.3-0.9
		c0.5,0,0.9,0,1.1,0c0.2,0,0.3,0,0.4-0.2c0.2-0.3,0.3-1.6,0.4-5.2h-1.2c-0.1,2.8-0.6,5-2.4,6.4c-0.1-0.2-0.5-0.6-0.7-0.7
		c0.1,0,0.1-0.1,0.2-0.1c-1.5,0.2-3,0.3-4.1,0.4l-0.1-0.8c0.6,0,1.4-0.1,2.2-0.2v-0.8h-1.9v-0.7h1.9v-0.5h-1.9v-3.2h1.9v-0.5h-2.2
		v-0.7h2.2v-0.6c-0.6,0.1-1.3,0.1-1.9,0.1c0-0.2-0.1-0.5-0.2-0.7c1.6-0.1,3.4-0.3,4.5-0.5l0.5,0.7c-0.6,0.1-1.2,0.2-2,0.3v0.7h2.1
		v0.6h1.1c0-0.7,0-1.5,0-2.2h0.9c0,0.8,0,1.5,0,2.2H81.9z M73.6,39.7h1.1v-0.6h-1.1V39.7z M74.7,41v-0.6h-1.1V41H74.7z M75.6,43.6
		c0.7-0.1,1.3-0.1,2-0.2c0.9-1.2,1.1-2.8,1.2-4.7h-1.1v-0.8h-2.1v0.5h2v3.2h-2v0.5h2v0.7h-2V43.6z M76.7,39.7v-0.6h-1.1v0.6H76.7z
		 M75.6,40.3V41h1.1v-0.6H75.6z"/>
	<path d="M86.2,35.7c-0.2,0.7-0.5,1.4-0.7,2.1V45h-0.9v-5.6c-0.2,0.3-0.4,0.7-0.6,0.9c-0.1-0.2-0.3-0.8-0.5-1c0.8-1,1.4-2.4,1.8-3.9
		L86.2,35.7z M88.5,39.2c-0.1,1.5-0.4,2.7-0.8,3.7c0.9,0.9,2.2,1.1,3.5,1.1c0.3,0,1.5,0,2,0c-0.1,0.2-0.3,0.6-0.3,0.8h-1.7
		c-1.5,0-2.8-0.2-3.9-1.2c-0.3,0.6-0.7,1-1.2,1.3c-0.1-0.2-0.5-0.5-0.6-0.6c0.5-0.3,0.9-0.8,1.3-1.4c-0.4-0.5-0.7-1.1-0.9-1.9
		l0.7-0.3c0.1,0.5,0.3,1,0.6,1.3c0.2-0.6,0.4-1.4,0.5-2.3H86c0.3-0.8,0.8-1.9,1.2-3h-1v-0.8h2.2c-0.3,1-0.8,2.1-1.1,3h0.6l0.1,0
		L88.5,39.2z M90.1,36.9h-1.3v-0.7h1.3v-0.8h0.8v0.8h1.6v1.4h0.7v0.7h-0.7v1.4h-1.6v0.6h1.7v0.8h-1.7v0.7h2v0.8h-2v1.1h-0.8v-1.1
		h-1.7v-0.8h1.7v-0.7h-1.4v-0.8h1.4v-0.6h-1.3V39h1.3v-0.7h-1.7v-0.7h1.7V36.9z M90.9,36.9v0.7h0.8v-0.7H90.9z M91.7,38.3h-0.8V39
		h0.8V38.3z"/>
	<path d="M104.1,39.2c-0.5,0.7-1.1,1.4-1.7,2v2.5c0,0.6-0.1,0.9-0.5,1.1c-0.4,0.2-1.1,0.2-2.1,0.2c-0.1-0.3-0.2-0.8-0.3-1
		c0.7,0,1.5,0,1.7,0c0.2,0,0.3-0.1,0.3-0.3V42c-1.7,1.3-3.8,2.3-6,2.9c-0.1-0.2-0.5-0.7-0.7-0.9c2-0.5,3.8-1.2,5.4-2.3
		c-1.8,0.1-3.6,0.3-4.9,0.4L95,41.3c0.4,0,0.8-0.1,1.3-0.1v-4.8h2.2c0.1-0.3,0.3-0.7,0.4-1l1.2,0.2c-0.2,0.3-0.3,0.6-0.5,0.9h2.8
		v3.4c0.3-0.3,0.6-0.7,0.8-1L104.1,39.2z M97.3,37.2v0.8h4v-0.8H97.3z M97.3,39.6h4v-0.8h-4V39.6z M97.3,41.1
		c1.2-0.1,2.6-0.2,3.9-0.3l0.1-0.1v-0.5h-4V41.1z"/>
	<path d="M110.6,43.4c-1.6,0.4-3.3,0.7-4.5,1l-0.2-1c1.2-0.2,2.9-0.6,4.6-0.9L110.6,43.4z M114.7,38.8c-0.4,1.4-1,2.6-1.8,3.7
		c0.3,0.9,0.7,1.5,1.1,1.5c0.3,0,0.4-0.5,0.4-1.9c0.2,0.2,0.6,0.5,0.8,0.6c-0.2,1.9-0.5,2.4-1.4,2.4c-0.7,0-1.3-0.6-1.8-1.6
		c-0.6,0.6-1.2,1.2-2,1.6c-0.1-0.2-0.5-0.6-0.8-0.8c0.9-0.5,1.7-1.2,2.3-1.9c-0.4-1.2-0.6-2.8-0.7-4.4h-5.1v-1h5
		c0-0.5,0-1.1-0.1-1.6h1c0,0.5,0,1.1,0,1.6h2.1c-0.4-0.3-1-0.7-1.6-1l0.6-0.6c0.6,0.3,1.3,0.7,1.7,1l-0.5,0.6h0.8v1h-3
		c0.1,1.2,0.3,2.4,0.5,3.3c0.5-0.8,0.9-1.7,1.2-2.7L114.7,38.8z M110.2,38.8V42h-3.7v-3.2H110.2z M109.3,39.6h-1.9v1.6h1.9V39.6z"/>
	<path d="M9.9,59.1H5.7v1c0,0.5-0.1,0.7-0.6,0.8S4.1,61,3.2,61c-0.1-0.3-0.2-0.6-0.3-0.8c0.7,0,1.4,0,1.6,0c0.2,0,0.3-0.1,0.3-0.2
		v-1H0.6v-0.8h4.1v-0.5h0l0,0c0.6-0.1,1.2-0.3,1.8-0.5H1.6v-0.8h6.2v0h0.3l0.2,0l0.6,0.6c-0.9,0.5-2,0.9-3.2,1.2v0.1h4.2V59.1z
		 M9.8,53.1H0.7v-0.8h4c-0.1-0.3-0.2-0.5-0.3-0.7l1-0.2c0.1,0.3,0.3,0.6,0.4,0.9h3.9V53.1z M2,55.8v-2.2h6.6v2.2H2z M3,55.1h4.6
		v-0.8H3V55.1z"/>
	<path d="M19,56.6c-0.5,1.1-1.3,1.9-2.2,2.6c1.1,0.4,2.3,0.7,3.7,0.9c-0.2,0.2-0.5,0.6-0.6,0.9c-1.6-0.2-2.9-0.6-4.1-1.2
		c-1.2,0.6-2.7,1-4.1,1.2c-0.1-0.3-0.4-0.7-0.6-0.9c1.4-0.2,2.7-0.5,3.8-0.9c-0.8-0.5-1.4-1.2-1.9-1.9l0.2-0.1h-0.5v-0.9h5.5l0.2,0
		L19,56.6z M12.2,56.6h-0.9v-2.2h1.6c-0.1-0.4-0.4-0.9-0.6-1.2l0.9-0.2c0.3,0.4,0.6,1,0.7,1.3l-0.6,0.2h2.3c-0.1-0.4-0.3-1-0.5-1.5
		l0.9-0.2c0.2,0.5,0.5,1.1,0.5,1.4l-0.9,0.2h2.1c0.3-0.5,0.6-1.2,0.8-1.7l1,0.3c-0.3,0.5-0.6,1-0.9,1.4h1.6v2.2h-1v-1.3h-7.1V56.6z
		 M19.7,52.1c-2.2,0.4-5.4,0.7-8.2,0.8c0-0.2-0.1-0.6-0.2-0.8c2.7-0.1,5.9-0.4,7.7-0.8L19.7,52.1z M13.9,57.2
		c0.5,0.6,1.1,1.1,1.8,1.5c0.7-0.4,1.3-0.9,1.7-1.5H13.9z"/>
	<path d="M24.7,51.7c-0.3,0.5-0.6,1-1,1.5v4.2h-0.9v-3.1c-0.3,0.3-0.6,0.6-0.8,0.8c-0.1-0.2-0.4-0.6-0.6-0.8c1-0.7,1.9-1.8,2.5-2.9
		L24.7,51.7z M21.5,60.2c0.5-0.6,0.9-1.5,1.1-2.2l0.9,0.3c-0.2,0.8-0.6,1.8-1.1,2.4L21.5,60.2z M27.6,60c0.5,0,0.6-0.1,0.7-1.1
		c0.2,0.2,0.6,0.3,0.9,0.3c-0.1,1.3-0.4,1.6-1.5,1.6h-2.2c-1.3,0-1.7-0.3-1.7-1.2v-1.8h1v1.8c0,0.3,0.1,0.4,0.8,0.4H27.6z
		 M25.3,52.7v1.5c0.8-0.7,1.4-1.7,1.8-2.8l0.9,0.3c-0.1,0.3-0.3,0.6-0.4,0.9h3.3v0.9h-0.7c-0.2,0.8-0.5,1.4-0.9,2
		c0.7,0.5,1.3,1,1.8,1.4l-0.7,0.7c-0.4-0.4-1-0.9-1.6-1.4c-0.6,0.6-1.4,1.1-2.4,1.5c-0.1-0.2-0.4-0.6-0.6-0.8
		c0.9-0.3,1.6-0.7,2.2-1.2c-0.5-0.3-0.9-0.7-1.4-0.9l0.7-0.6c0.4,0.2,0.8,0.5,1.3,0.8c0.3-0.4,0.5-0.9,0.7-1.4h-2
		c-0.4,0.6-0.8,1.1-1.2,1.5c-0.1-0.1-0.4-0.5-0.7-0.6v2.5h-0.9v-4.2H25.3z M25.8,57.3c0.6,0.4,1.4,1.1,1.8,1.5l-0.7,0.6
		c-0.4-0.4-1.1-1.1-1.8-1.6L25.8,57.3z M29.7,57.8c0.5,0.7,1.2,1.7,1.5,2.4l-0.9,0.4c-0.3-0.7-0.9-1.7-1.4-2.5L29.7,57.8z"/>
	<path d="M33.5,55.5V61h-1v-9.2h3.7v3.7H33.5z M33.5,52.6v0.7h1.8v-0.7H33.5z M35.3,54.7V54h-1.8v0.7H35.3z M38.5,59.8
		c0,0.4-0.1,0.6-0.4,0.8c-0.3,0.1-0.7,0.1-1.4,0.1c0-0.2-0.1-0.5-0.3-0.8c0.5,0,0.9,0,1,0c0.1,0,0.2,0,0.2-0.2v-0.7h-1.9
		c-0.1,0.6-0.3,1.3-0.7,1.7c-0.1-0.1-0.5-0.4-0.7-0.5c0.7-0.7,0.7-1.7,0.7-2.5V56h3.5V59.8z M37.7,58.5v-0.6h-1.8c0,0.2,0,0.4,0,0.6
		H37.7z M35.9,56.7v0.5h1.8v-0.5H35.9z M41,59.9c0,0.5-0.1,0.8-0.4,1C40.2,61,39.7,61,38.9,61c0-0.2-0.2-0.7-0.3-0.9
		c0.5,0,1,0,1.2,0c0.2,0,0.2-0.1,0.2-0.2v-4.4h-2.8v-3.7H41V59.9z M38.1,52.6v0.7H40v-0.7H38.1z M40,54.7V54h-1.9v0.7H40z"/>
	<path d="M51.8,53c0,0,0,0.3,0,0.5c-0.1,4.7-0.3,6.4-0.7,6.9c-0.3,0.3-0.5,0.4-0.9,0.5c-0.4,0-1,0-1.6,0c0-0.3-0.1-0.7-0.3-0.9
		c0.7,0.1,1.3,0.1,1.5,0.1c0.2,0,0.3,0,0.4-0.2c0.3-0.3,0.5-1.9,0.6-5.9h-2.5c-0.3,0.7-0.6,1.3-1,1.8c-0.2-0.1-0.5-0.4-0.8-0.5v4.8
		h-2.8v0.8h-0.9v-7.7h1.2c0.1-0.5,0.3-1.2,0.4-1.7l1.1,0.2c-0.2,0.5-0.4,1.1-0.5,1.5h1.7v2c0.7-0.9,1.2-2.3,1.6-3.7l0.9,0.2
		c-0.1,0.5-0.3,1-0.4,1.4H51.8z M43.8,53.9v2h2v-2H43.8z M45.7,59.1v-2.3h-2v2.3H45.7z M49.2,58.3c-0.3-0.6-1-1.7-1.5-2.4l0.8-0.4
		c0.6,0.7,1.3,1.7,1.6,2.3L49.2,58.3z"/>
	<path d="M54,58.5v1h-0.8v-7.3h2.4v6.3H54z M54,52.9v4.8h0.9v-4.8H54z M59.2,53.9c-0.1,4.5-0.2,6.1-0.5,6.5
		c-0.2,0.3-0.4,0.4-0.6,0.4c-0.2,0-0.6,0-0.9,0c0-0.2-0.1-0.6-0.2-0.9c0.3,0,0.6,0,0.7,0c0.1,0,0.2,0,0.3-0.2
		c0.2-0.3,0.3-1.7,0.4-5.5h-0.8c-0.1,3-0.4,5.3-1.8,6.8c-0.1-0.2-0.4-0.5-0.7-0.6c1.3-1.3,1.5-3.4,1.6-6.1H56v-0.9h0.8
		c0-0.7,0-1.3,0-2h0.8c0,0.7,0,1.4,0,2h1.6V53.9z M62.3,52.6v8h-0.8v-0.8h-1.1v0.9h-0.8v-8.1H62.3z M61.4,58.9v-5.5h-1.1v5.5H61.4z"
		/>
	<path d="M66.4,58.3h-1.8v1h-0.9v-6.9h2.6V58.3z M64.6,53.2v4.1h0.9v-4.1H64.6z M68.6,51.5h0.9v4.1c0,1.7-0.2,4.1-1.4,5.6
		c-0.2-0.2-0.6-0.5-0.8-0.6c0.5-0.7,0.9-1.5,1-2.4c-0.5,0.1-1,0.3-1.5,0.4l-0.2-1c0.5-0.1,1.1-0.2,1.8-0.3c0-0.4,0.1-0.7,0.1-1h-1.4
		v-0.9h1.4V54h-1.6v-0.9h1.6V51.5z M73,58.4h-1.8V61h-0.9v-9.6h0.9v1.6h1.7V54h-1.7v1.3h1.5v0.9h-1.5v1.3H73V58.4z"/>
	<path d="M77.4,59h-2.2v0.9h-0.9V52h3.1V59z M75.2,52.9V55h1.3v-2.1H75.2z M76.5,58.1v-2.2h-1.3v2.2H76.5z M81,53.4v1.2h2.2v0.9
		h-0.9v1h1.1v0.9h-1.1v2.6c0,0.5-0.1,0.8-0.5,0.9C81.5,61,81,61,80.2,61c0-0.3-0.2-0.7-0.3-0.9c0.6,0,1.2,0,1.3,0
		c0.2,0,0.2-0.1,0.2-0.2v-2.6h-3.8v-0.9h3.8v-1H78v-0.9h2.1v-1.2h-2.5v-0.9h2.5v-1.2h1v1.2h2.5v0.9H81z M78.9,57.6
		c0.5,0.5,1,1.2,1.3,1.7l-0.9,0.5c-0.2-0.5-0.8-1.2-1.3-1.8L78.9,57.6z"/>
	<path d="M92.7,59.9c0.3,0,0.4-0.1,0.4-0.9c0.2,0.2,0.6,0.3,0.9,0.4c-0.1,1.2-0.4,1.5-1.2,1.5h-1.5c-1.1,0-1.3-0.3-1.3-1.3v-3.4
		h-1.5c-0.2,2.3-0.7,4-3.3,4.9c-0.1-0.3-0.4-0.6-0.6-0.8c2.4-0.8,2.8-2.2,2.9-4.1h-2.7v-0.9h4v-3.8h1v3.8h4v0.9H91v3.4
		c0,0.3,0.1,0.4,0.5,0.4H92.7z M86.9,54.7c-0.3-0.6-0.9-1.5-1.5-2.2l0.8-0.5c0.6,0.7,1.3,1.6,1.6,2.2L86.9,54.7z M93.3,52.4
		c-0.5,0.8-1.2,1.7-1.7,2.2l-0.8-0.4c0.5-0.6,1.1-1.5,1.5-2.2L93.3,52.4z"/>
	<path d="M97.2,54.6c0.9,0,1.6,0.7,1.6,1.6c0,0.9-0.7,1.6-1.6,1.6c-0.9,0-1.6-0.7-1.6-1.6C95.5,55.3,96.3,54.6,97.2,54.6z
		 M97.2,57.2c0.6,0,1-0.5,1-1s-0.5-1-1-1c-0.5,0-1,0.5-1,1S96.6,57.2,97.2,57.2z"/>
</g>
<g>
	<path d="M4.2,10.4H2.1v1H0.9V1.3h3.3V10.4z M2.1,2.7v2.5H3V2.7H2.1z M3,9V6.5H2.1V9H3z M6.1,10v2.5H4.7V0.9h3.7v4.5H6.1v1h2v1.3h-2
		v1.1h2.1V10H6.1z M6.1,2.2v1.9H7V2.2H6.1z M12.4,6.2c-0.2,1.7-0.7,3-1.4,4c0.4,0.5,1,1,1.6,1.2c-0.3,0.3-0.7,0.8-0.9,1.1
		c-0.6-0.3-1.1-0.8-1.5-1.3c-0.6,0.6-1.3,1-2.1,1.4c-0.2-0.4-0.5-0.9-0.8-1.1c0.8-0.3,1.5-0.8,2.1-1.4C9.1,9.2,8.8,8.4,8.5,7.4
		l0.9-0.2h-1V6h2.9l0.2,0L12.4,6.2z M12.3,5.3H8.8V4h2.2V2.2H8.8V0.9h3.5V5.3z M9.7,7.2c0.1,0.6,0.3,1.1,0.6,1.6
		c0.2-0.5,0.5-1,0.6-1.6H9.7z"/>
	<path d="M17.1,6.5c-0.2,1.2-0.6,2.4-1,3.4c0.2,0.1,0.5,0.3,0.8,0.5c0.9,0.5,2.1,0.6,3.6,0.6c1.5,0,3.8-0.1,5.3-0.3
		c-0.2,0.4-0.4,1.2-0.5,1.6c-1.1,0.1-3.4,0.2-4.9,0.2c-1.7,0-2.8-0.1-3.8-0.7c-0.5-0.3-1-0.7-1.3-0.7c-0.3,0-0.8,0.9-1.1,1.6l-1-1.5
		c0.5-0.5,0.9-1,1.4-1.2c0.3-0.6,0.6-1.5,0.8-2.2h-1.6c0.3-0.8,0.7-1.8,0.9-2.8h-1.2V3.4h3c-0.3,0.9-0.6,2-0.9,2.9h0.5l0.2-0.1
		L17.1,6.5z M14.9,3c-0.1-0.6-0.5-1.5-0.7-2.2l1.4-0.4c0.2,0.7,0.6,1.6,0.8,2.1L14.9,3z M17.7,4.5c-0.3-0.3-0.9-0.7-1.2-0.9
		c1.1-0.7,2.1-1.9,2.6-3.2l1.5,0.4c-0.1,0.2-0.2,0.4-0.3,0.6h1.9l0.2-0.1l1,0.6c-0.2,0.4-0.5,0.9-0.9,1.4h2.1v3.5h-2.5v1.9
		c0,0.4,0.1,0.4,0.5,0.4h1.2c0.3,0,0.4-0.1,0.4-0.8c0.3,0.2,0.8,0.4,1.2,0.5C25.4,10,25,10.3,24,10.3h-1.5c-1.3,0-1.7-0.4-1.7-1.6V8
		c-0.7,1-1.6,1.8-3.2,2.4c-0.2-0.4-0.5-0.8-0.8-1.1c1.7-0.6,2.5-1.5,3.1-2.5h-2.2V4.5z M19.7,2.5c-0.2,0.3-0.4,0.5-0.6,0.8h1.8
		c0.2-0.2,0.4-0.5,0.6-0.8H19.7z M20.3,5.6c0.1-0.4,0.2-0.8,0.2-1.2h-1.4v1.2H20.3z M23.2,4.5H22c-0.1,0.4-0.1,0.8-0.2,1.2h1.5V4.5z
		 M23.3,6.8c0.4,0.3,0.9,0.7,1.2,1l-0.9,0.7c-0.2-0.3-0.7-0.8-1.2-1.1L23.3,6.8z"/>
	<path d="M28.7,6.6c-0.5-0.5-1.5-1.1-2.3-1.5l0.8-1.1c0.8,0.4,1.8,0.9,2.4,1.4L28.7,6.6z M30,8.2c-0.6,1.4-1.2,2.9-1.9,4.2l-1.4-0.9
		c0.6-1,1.4-2.6,2.1-4.1L30,8.2z M29.2,3.2C28.8,2.7,27.8,2,27,1.6l0.9-1.1c0.8,0.4,1.8,1,2.3,1.5L29.2,3.2z M37.1,11
		c0.3,0,0.3-0.3,0.3-1.8c0.3,0.2,0.9,0.5,1.3,0.6c-0.1,2-0.5,2.6-1.5,2.6h-1c-1.2,0-1.5-0.5-1.5-1.8V7.1h-1.1
		c-0.2,2.4-0.7,4.3-3.3,5.4c-0.2-0.4-0.6-0.9-0.9-1.2c2.2-0.8,2.5-2.2,2.7-4.1h-2V5.7h3.5V3.8h-1.5c-0.3,0.7-0.6,1.3-0.9,1.8
		c-0.3-0.2-1-0.7-1.3-0.9c0.8-1,1.3-2.6,1.6-4.2L33,0.8c-0.1,0.5-0.2,1-0.4,1.5h1v-2h1.5v2H38v1.5h-2.8v1.8h3.4v1.5h-2.3v3.4
		c0,0.4,0,0.5,0.3,0.5H37.1z"/>
	<path d="M51.2,5.6c-0.8,0.8-1.9,1.7-2.8,2.4c0.7,1.1,1.8,2,3.3,2.8c-0.4,0.3-0.9,0.9-1.1,1.4c-3.3-2.1-4.5-4.5-5.2-7.7
		c-0.5,0.6-1.1,1.2-1.7,1.8v4l2.9-0.8c0.1,0.4,0.2,1.1,0.3,1.4c-3.9,1.2-4.5,1.4-4.9,1.7c-0.1-0.3-0.6-0.9-0.8-1.2
		c0.3-0.2,0.9-0.7,0.9-1.5V7.5c-0.6,0.4-1.3,0.8-1.9,1.1c-0.2-0.4-0.6-1-0.9-1.4c1.8-0.7,3.5-2,4.6-3.3h-4.2V2.4h5.2
		c-0.1-0.5-0.4-1.1-0.6-1.6l1.6-0.5c0.3,0.6,0.7,1.4,0.8,1.8l-0.8,0.2h5.3v1.5h-4.4c0.2,1.1,0.5,2,0.8,2.9c0.8-0.6,1.6-1.4,2.2-2.1
		L51.2,5.6z"/>
	<path d="M59.1,8.1c0,0.2-0.1,0.5-0.1,0.7h4.2c0,0,0,0.4,0,0.5c-0.1,1.6-0.3,2.4-0.6,2.7c-0.3,0.3-0.6,0.4-1.1,0.4
		c-0.4,0.1-1,0.1-1.7,0c0-0.4-0.2-0.9-0.4-1.3c0.6,0.1,1.2,0.1,1.4,0.1c0.2,0,0.3,0,0.4-0.1c0.1-0.1,0.2-0.5,0.3-1.2h-3
		c-0.5,1.1-1.5,2-3.3,2.5c-0.1-0.4-0.5-0.9-0.8-1.2c-0.2,0.5-0.5,0.9-0.9,1.3c-0.2-0.3-0.8-0.9-1.1-1.1c1.4-1.7,1.5-4.1,1.5-6V1.4
		c3-0.2,6.3-0.5,8.3-1l1.2,1.1c-2.2,0.5-5.2,0.8-8,1v0.4h8.2V6H60c0.1,0.3,0.3,0.6,0.4,0.9h4v1.2H59.1z M55.3,8.1
		c-0.2,1.1-0.4,2.2-0.9,3.2c2.3-0.6,2.9-1.7,3.1-3.2H55.3z M58.7,6.9c-0.1-0.2-0.2-0.5-0.3-0.7L59.7,6h-4.3c0,0.3,0,0.6,0,0.9H58.7z
		 M55.4,4.1v0.8h6.6V4.1H55.4z"/>
</g>
</svg>
