<?xml version="1.0" encoding="utf-8"?>
<!-- Generator: Adobe Illustrator 25.2.3, SVG Export Plug-In . SVG Version: 6.00 Build 0)  -->
<svg version="1.1" id="圖層_1" xmlns="http://www.w3.org/2000/svg" xmlns:xlink="http://www.w3.org/1999/xlink" x="0px" y="0px"
	 viewBox="0 0 150 78.7" style="enable-background:new 0 0 150 78.7;" xml:space="preserve">
<g>
	<path d="M4,27.6c-0.3-0.4-0.8-1.2-1.2-1.8C2.5,27,2,28.1,1.1,28.9c-0.1-0.2-0.5-0.5-0.7-0.7c1.2-1,1.6-2.5,1.7-3.8H0.5v-0.9h1.6
		c0-0.2,0-0.4,0-0.7V22H0.7v-0.9h1.4v-1.6H3v1.6h1.4V22H3v0.9c0,0.2,0,0.4,0,0.7h1.6v0.9H3c0,0.1,0,0.3,0,0.4c0.4,0.4,1.5,1.7,1.7,2
		L4,27.6z M9.1,28c0.2,0,0.2-0.1,0.2-0.8c0.2,0.1,0.5,0.3,0.8,0.4c-0.1,1-0.3,1.3-0.9,1.3H8.4c-0.8,0-1-0.3-1-1.1v-2H6.8
		c-0.2,1.6-0.7,2.7-2.5,3.4c-0.1-0.2-0.3-0.6-0.5-0.7c1.6-0.5,2-1.4,2.1-2.6H5v-5.9h4.5v5.9H8.3v2c0,0.3,0,0.3,0.2,0.3H9.1z
		 M5.9,21.5h2.7v-0.8H5.9V21.5z M5.9,23.2h2.7v-0.9H5.9V23.2z M5.9,24.8h2.7V24H5.9V24.8z"/>
	<path d="M17,21.1h0.6v0.6H17v1.1h-2v0.4h2.1v0.6H15v0.4h2.5v0.7h-5.9v-0.7h2.4v-0.4h-1.9v-0.6h1.9v-0.4h-1.9v-0.6h1.9v-0.5h-2.5
		v-0.6h2.5v-0.4h-1.9v-0.6h1.9v-0.6H15v0.6h2V21.1z M11.6,28c1.5,0,3.8-0.1,6-0.2l0,0.7c-2.1,0.1-4.4,0.2-5.9,0.3L11.6,28z M17,25.2
		v2.3h-4.8v-2.3H17z M13,26.1h1.2v-0.4H13V26.1z M13,27h1.2v-0.4H13V27z M15,21.1h1.2v-0.4H15V21.1z M16.1,21.7H15v0.5h1.2V21.7z
		 M16.2,25.7H15v0.4h1.2V25.7z M16.2,26.6H15V27h1.2V26.6z M18.8,26.5h-0.9v-5.8h0.9V26.5z M20.8,19.6v8.3c0,0.5-0.1,0.8-0.5,1
		c-0.3,0.1-0.9,0.2-1.7,0.2c0-0.3-0.2-0.7-0.3-1c0.6,0,1.1,0,1.3,0c0.2,0,0.2-0.1,0.2-0.2v-8.3H20.8z"/>
	<path d="M32.2,21.1h-1.2v6.6c0,0.6-0.2,1-0.6,1.1c-0.5,0.2-1.2,0.2-2.2,0.2c-0.1-0.3-0.3-0.8-0.4-1c0.8,0,1.7,0,1.9,0
		c0.2,0,0.3-0.1,0.3-0.3v-6.6h-7.1v-1h9.3V21.1z M24.8,26.5v0.8h-0.9v-4.8h4.3v3.9H24.8z M24.8,23.4v2.1h2.4v-2.1H24.8z"/>
	<path d="M36.6,24.4c-0.2,0.9-0.5,1.9-0.9,2.7c0.2,0.1,0.4,0.3,0.8,0.5c0.7,0.4,1.7,0.5,2.9,0.5c1.3,0,3-0.1,4.2-0.2
		c-0.1,0.3-0.3,0.7-0.3,1c-0.8,0.1-2.7,0.1-4,0.1c-1.4,0-2.3-0.1-3-0.6c-0.4-0.2-0.8-0.6-1-0.6c-0.2,0-0.6,0.7-0.9,1.3l-0.7-0.9
		c0.4-0.5,0.7-0.9,1.1-1.1c0.3-0.6,0.5-1.3,0.7-2h-1.4c0.3-0.6,0.6-1.5,0.8-2.3h-1.1v-0.9h2.3c-0.2,0.8-0.5,1.6-0.8,2.3H36l0.1,0
		L36.6,24.4z M35,21.5c-0.1-0.5-0.4-1.2-0.5-1.8l0.9-0.3c0.2,0.5,0.4,1.2,0.6,1.7L35,21.5z M40.3,25.1c0.3,0.1,0.6,0.3,0.9,0.5
		c0.3-0.2,0.6-0.5,0.9-0.7h-2.1c-0.3,0.3-0.6,0.5-0.9,0.7v1.1l1.6-0.4c0,0.2,0,0.5,0,0.7c-2,0.6-2.3,0.7-2.5,0.8
		c0-0.2-0.2-0.5-0.3-0.7c0.2-0.1,0.4-0.2,0.4-0.5v-0.6c-0.5,0.2-0.9,0.4-1.4,0.5c-0.1-0.2-0.4-0.5-0.5-0.7c0.9-0.2,1.8-0.5,2.4-0.9
		h-1.5v-2.2h5v2l0.7,0.5c-0.4,0.3-0.9,0.6-1.3,0.8c0.6,0.3,1.1,0.7,1.4,0.9l-0.6,0.6c-0.6-0.5-1.9-1.3-3-1.8L40.3,25.1z M43.2,22.2
		h-6.7v-0.7h2.8v-0.6h-2.2v-0.7h2.2v-0.7h1v0.7h2.3v0.7h-2.3v0.6h2.9V22.2z M41.5,23.4h-3.2v0.9h3.2V23.4z"/>
	<path d="M48.5,26.3l0.1,0.9c-1.2,0.3-2.4,0.6-3.4,0.9l-0.2-1c0.5-0.1,1.2-0.3,1.9-0.4c0.2-1.1,0.4-2.9,0.5-4.1l0.8,0.1
		c-0.2,1.2-0.4,2.7-0.6,3.7L48.5,26.3z M48.6,22.2h-3.5v-0.9h3.5V22.2z M45.8,26.4c0-1-0.2-2.5-0.4-3.6l0.7-0.1
		c0.2,1.2,0.4,2.6,0.4,3.6L45.8,26.4z M46.9,19.5c0.3,0.5,0.6,1.1,0.7,1.5l-0.9,0.3c-0.1-0.4-0.4-1.1-0.7-1.5L46.9,19.5z M52,24
		c-0.1,0.3-0.2,0.6-0.3,0.8h2.6v3.4c0,0.4-0.1,0.6-0.3,0.7c-0.2,0.1-0.6,0.1-1,0.1c0-0.2-0.1-0.6-0.2-0.8c0.3,0,0.5,0,0.6,0
		s0.1,0,0.1-0.1v-2.5h-0.8v3.3h-0.8v-3.3h-0.8V29h-0.8v-3.3h-0.8v3.4h-0.9v-4.2h2c0.1-0.3,0.1-0.5,0.1-0.8h-2.4v-0.9h6.1V24H52z
		 M54.2,22.5h-5.3v-2.6h0.9v1.7H51v-2.2H52v2.2h1.3v-1.7h0.9V22.5z"/>
	<path d="M59.6,25.9c-0.2-0.3-0.6-0.8-1-1.2v4.3h-0.9V25c-0.4,0.4-0.9,0.8-1.3,1.1c-0.1-0.3-0.3-0.8-0.4-1c1.1-0.6,2.2-1.8,2.9-3
		h-2.6v-0.9h1.9c-0.2-0.4-0.6-0.9-0.9-1.3l0.7-0.5c0.4,0.4,0.8,0.9,1,1.3l-0.6,0.4h1l0.2,0l0.5,0.4c-0.3,0.8-0.8,1.5-1.3,2.2
		c0.4,0.4,1.2,1.2,1.4,1.4L59.6,25.9z M64.8,28.2c0.2,0,0.2-0.1,0.3-1.3c0.2,0.2,0.6,0.3,0.8,0.4c-0.1,1.4-0.3,1.7-1,1.7h-0.8
		c-0.8,0-1-0.3-1-1.1v-2.3h-0.8c-0.2,1.7-0.6,2.9-2.5,3.5c-0.1-0.2-0.3-0.6-0.5-0.7c1.7-0.5,2-1.4,2.1-2.8h-0.8v-5.7h4.6v5.7H64v2.3
		c0,0.3,0,0.3,0.2,0.3H64.8z M61.5,21.5h2.7v-0.9h-2.7V21.5z M61.5,23.2h2.7v-0.9h-2.7V23.2z M61.5,24.8h2.7v-0.9h-2.7V24.8z"/>
	<path d="M71.1,22h-3.8v-0.8h1.8c-0.2-0.4-0.5-1-0.7-1.4l0.7-0.4c0.3,0.4,0.6,1,0.7,1.4l-0.7,0.4h2V22z M67.7,23.3v-0.8h3v0.8H67.7z
		 M67.7,24h3v0.8h-3V24z M70.7,28.5h-2.2v0.5h-0.8v-3.5h3V28.5z M68.5,26.2v1.5h1.4v-1.5H68.5z M75.8,20c-0.1,3.9-0.1,7.8,0.4,7.9
		c0.1,0,0.1-0.7,0.2-1.4c0.1,0.2,0.4,0.6,0.5,0.7c-0.1,1.5-0.6,1.8-1.1,1.6c-1-0.4-1-3.9-1-8h-1.6v3h1.2v0.9h-1.2v4.3h-0.9v-4.3
		h-1.3v-0.9h1.3v-3h-1.2V20H75.8z"/>
	<path d="M82.2,25.1l-0.9,0.8c-0.7-0.8-1.6-1.7-2.3-2.3l0.9-0.7C80.6,23.4,81.6,24.4,82.2,25.1z"/>
	<path d="M86.2,24.3c-0.4-0.3-1.2-0.9-1.9-1.2l0.6-0.7c0.6,0.3,1.5,0.7,1.9,1.1L86.2,24.3z M84.6,28.3c0.6-0.8,1.4-2.1,2-3.3
		l0.7,0.6c-0.5,1.1-1.2,2.3-1.9,3.3L84.6,28.3z M86.9,21.5c-0.4-0.4-1.3-1-2-1.3l0.6-0.7c0.7,0.3,1.6,0.8,2,1.2L86.9,21.5z
		 M91.1,19.7c0,0.1-0.1,0.2-0.1,0.3c0.7,1.1,1.9,2.3,3,3c-0.2,0.2-0.6,0.5-0.7,0.8c-0.3-0.2-0.7-0.5-1-0.8v0.7h-3.6v-0.6
		c-0.3,0.3-0.7,0.6-1,0.8c-0.1-0.2-0.5-0.6-0.7-0.8c1.5-0.9,2.6-2.3,3.2-3.7L91.1,19.7z M88.1,24.7h4.7v4.3h-1v-0.5h-2.7v0.5h-1
		V24.7z M92.1,22.8c-0.6-0.6-1.1-1.2-1.6-1.9c-0.4,0.7-0.9,1.4-1.5,1.9H92.1z M89.1,25.6v2.1h2.7v-2.1H89.1z"/>
	<path d="M99.2,22h-3.8v-0.8h3.8V22z M95.8,23.3v-0.8h3v0.8H95.8z M98.8,24.7h-3V24h3V24.7z M102.4,25c0,0.1,0,0.2,0,0.3
		c0.4,1.4,1.2,2.5,2.7,2.9c-0.2,0.2-0.5,0.6-0.6,0.8c-1.2-0.4-1.9-1.2-2.4-2.2c-0.4,0.8-1.1,1.6-2.6,2.3c-0.1-0.2-0.4-0.5-0.6-0.6v0
		h-2.2v0.5h-0.9v-3.5h3.1v3c2.4-1,2.6-2.5,2.6-3.4v-1.2h0.9V25z M97.1,21.1c-0.1-0.4-0.4-1-0.6-1.4l0.8-0.3c0.3,0.4,0.5,1,0.7,1.4
		L97.1,21.1z M98,26.2h-1.4v1.5H98V26.2z M104.2,24.3c-0.5-0.5-1.4-1.1-2.2-1.6c-0.4,0.8-1.1,1.3-2.4,1.7c-0.1-0.2-0.3-0.6-0.5-0.8
		c2.2-0.6,2.4-1.6,2.5-4.1h0.9c0,0.9-0.1,1.7-0.2,2.3c0.9,0.5,2,1.2,2.5,1.7L104.2,24.3z M100.2,26.9c-0.2-0.5-0.7-1.3-1.1-2
		l0.7-0.4c0.4,0.6,0.9,1.4,1.1,1.9L100.2,26.9z M100.4,22.3c-0.2-0.5-0.7-1.3-1.1-1.9L100,20c0.4,0.6,0.9,1.3,1.1,1.8L100.4,22.3z
		 M104.7,20.4c-0.4,0.6-0.8,1.3-1.2,1.7l-0.7-0.3c0.3-0.5,0.7-1.2,1-1.7L104.7,20.4z M102.9,26.4c0.3-0.5,0.7-1.3,0.9-1.9l0.9,0.3
		c-0.4,0.7-0.8,1.4-1.2,1.8L102.9,26.4z"/>
	<path d="M108,23.4v5.6h-1v-9.2h3.9v3.6H108z M108,20.6v0.7h2v-0.7H108z M110,22.7V22h-2v0.8H110z M112.8,26.6v2.3h-0.9v-2.3h-1.3
		c-0.1,0.7-0.4,1.8-1.4,2.4c-0.1-0.2-0.4-0.4-0.6-0.6c0.8-0.5,1.1-1.3,1.2-1.8h-1.2v-0.8h1.2v-1h-1V24h5.1v0.8h-1.1v1h1.3v0.8H112.8
		z M111.9,25.8v-1h-1.2v1H111.9z M115.7,27.9c0,0.5-0.1,0.8-0.5,1c-0.3,0.2-0.9,0.2-1.6,0.2c0-0.3-0.2-0.7-0.3-1c0.5,0,1.1,0,1.2,0
		c0.2,0,0.2-0.1,0.2-0.2v-4.4h-3v-3.6h4V27.9z M112.7,20.6v0.7h2.1v-0.7H112.7z M114.7,22.7V22h-2.1v0.8H114.7z"/>
	<path d="M123.2,19.7c-0.1,0.1-0.1,0.1-0.2,0.2c1,0.9,2.8,1.7,4.4,2c-0.2,0.2-0.5,0.5-0.6,0.7c-0.3-0.1-0.5-0.2-0.8-0.3v2.7h-7.1
		v-2.6c-0.3,0.1-0.5,0.2-0.8,0.3c-0.1-0.2-0.4-0.6-0.5-0.7c1.9-0.5,3.8-1.4,4.7-2.6L123.2,19.7z M126,22.4c-0.6-0.2-1.1-0.4-1.7-0.7
		V22h-3.6v-0.3c-0.5,0.3-1,0.5-1.5,0.7H126z M119.5,25.6h6V29h-1v-0.3h-4v0.3h-1V25.6z M121,23.1c0.2,0.4,0.5,0.8,0.5,1.2l-0.7,0.2
		h1.2v-1.4h-2.3v1.4h1c-0.1-0.3-0.3-0.8-0.5-1.2L121,23.1z M120.5,26.2v0.6h4v-0.6H120.5z M124.5,28.1v-0.6h-4v0.6H124.5z
		 M123.7,21.3c-0.4-0.3-0.8-0.6-1.2-0.9c-0.3,0.3-0.7,0.6-1.1,0.9H123.7z M125.2,23.1h-2.3v1.4h1.2l-0.7-0.2
		c0.2-0.3,0.4-0.9,0.5-1.2l0.8,0.2c-0.2,0.5-0.5,0.9-0.7,1.2h1.1V23.1z"/>
	<path d="M130.5,21c-0.3,0.5-0.7,0.9-1,1.2c-0.1-0.2-0.5-0.5-0.7-0.7c0.7-0.5,1.2-1.3,1.6-2.2l0.9,0.3c-0.1,0.2-0.2,0.4-0.3,0.5h2.5
		V21h-1.7c0.3,0.3,0.7,0.6,0.9,0.8l-0.6,0.6c-0.2-0.3-0.7-0.7-1-1.1l0.4-0.3H130.5z M136.2,25.8h2v0.8h-2v1.6c0,0.5-0.1,0.7-0.5,0.8
		c-0.4,0.1-1,0.1-1.9,0.1c0-0.3-0.2-0.6-0.3-0.8c0.6,0,1.3,0,1.4,0c0.2,0,0.2-0.1,0.2-0.2v-1.5h-3.8c0.6,0.4,1.3,1.1,1.7,1.5
		l-0.7,0.6c-0.3-0.4-1.1-1.1-1.7-1.6l0.6-0.5H129v-0.8h6.2v-0.6h1V25.8z M138.4,20.1V21h-2.1c0.3,0.3,0.7,0.7,0.8,0.9l-0.7,0.6
		c-0.2-0.3-0.6-0.8-1-1.1l0.4-0.4H135c-0.3,0.5-0.6,0.9-0.9,1.2l0,0v0.3h3.8v0.8h-3.8v0.8h3.2v0.8h-7.4v-0.8h3.2v-0.8h-3.7v-0.8h3.7
		v-0.6h0.7c-0.1-0.1-0.3-0.2-0.4-0.3c0.6-0.6,1-1.4,1.3-2.3l0.9,0.2c-0.1,0.2-0.1,0.4-0.2,0.6H138.4z"/>
	<path d="M149.4,24.4c-1.5,3.1-5,4.3-8.8,4.7c-0.1-0.3-0.2-0.7-0.4-0.9c1.7-0.1,3.3-0.5,4.7-1c-0.3-0.4-0.9-0.8-1.3-1.2
		c-0.5,0.2-1,0.5-1.5,0.7c-0.1-0.2-0.4-0.6-0.6-0.8c2.1-0.7,3.6-1.8,4.4-2.8l1.1,0.2c-0.2,0.3-0.4,0.5-0.7,0.7h2.2l0.2,0L149.4,24.4
		z M147.9,20.7c-1.3,2.4-4.3,3.7-7.2,4.3c-0.1-0.2-0.3-0.7-0.5-0.9c1.1-0.2,2.3-0.5,3.3-1c-0.3-0.4-0.8-0.8-1.2-1.1
		c-0.3,0.2-0.7,0.4-1.1,0.6c-0.1-0.2-0.4-0.5-0.7-0.7c1.7-0.7,2.9-1.6,3.6-2.5l1.1,0.2c-0.2,0.2-0.4,0.5-0.7,0.7h2.5l0.2-0.1
		L147.9,20.7z M143.6,21.2c-0.2,0.1-0.3,0.2-0.5,0.3c0.5,0.4,1,0.8,1.4,1.1c0.8-0.4,1.4-0.9,1.9-1.5H143.6z M145.3,24.9
		c-0.3,0.2-0.5,0.4-0.8,0.6c0.5,0.4,1,0.8,1.4,1.2c0.8-0.5,1.5-1,2-1.8H145.3z"/>
	<path d="M8.7,44c0.4,0,0.5-0.3,0.5-1.8c0.2,0.2,0.7,0.3,0.9,0.4c-0.1,1.8-0.4,2.3-1.3,2.3H7.3c-1,0-1.3-0.3-1.3-1.4V40H4.2
		c-0.2,2.2-0.7,4-3.1,5c-0.1-0.3-0.4-0.6-0.6-0.8C2.7,43.4,3,41.9,3.2,40H0.7v-0.9h9.2V40H7v3.5C7,43.9,7.1,44,7.5,44H8.7z M9,37.2
		H1.6v-0.9H9V37.2z"/>
	<path d="M15.8,42.1c-1.4,0.4-2.9,0.8-4,1.1l-0.2-1c0.4-0.1,1-0.2,1.6-0.4v-4.3h-1.5v-0.9h3.9v0.9h-1.4v4l1.6-0.4L15.8,42.1z
		 M21,38.2c-0.2,4.3-0.3,5.8-0.7,6.3c-0.2,0.3-0.5,0.4-0.9,0.5c-0.3,0-0.9,0-1.5,0c0-0.3-0.1-0.7-0.3-1c0.6,0,1.2,0.1,1.4,0.1
		c0.2,0,0.3,0,0.4-0.2c0.3-0.3,0.4-1.7,0.6-5.2h-1.8c-0.2,2.8-0.8,5.1-3.1,6.4c-0.1-0.3-0.5-0.6-0.7-0.8c2.1-1.2,2.7-3.1,2.8-5.6
		h-1.6v-0.9h1.6c0-0.7,0-1.4,0-2.1h1c0,0.7,0,1.4,0,2.1H21V38.2z"/>
	<path d="M27.2,44.1c0,0.4-0.1,0.7-0.4,0.8C26.5,45,26,45,25.4,45c0-0.2-0.2-0.6-0.3-0.8c0.4,0,0.9,0,1,0c0.1,0,0.2,0,0.2-0.2v-1.4
		c-0.6,0.4-1.2,0.8-1.8,1.1l-0.3-0.7c-0.1,0.7-0.3,1.4-0.7,2c-0.1-0.2-0.5-0.5-0.7-0.7c0.6-0.8,0.6-1.9,0.6-2.8v-2.5h3.8V44.1z
		 M26.5,36.2c0.5,0.7,1.1,1.7,1.3,2.3L27,38.9c-0.1-0.2-0.2-0.4-0.3-0.7c-2.8,0.3-3.1,0.3-3.4,0.4c-0.1-0.2-0.2-0.7-0.3-0.9
		c0.2,0,0.3-0.2,0.6-0.4c0.2-0.2,0.9-1,1.3-1.9l1,0.3c-0.4,0.7-0.9,1.3-1.4,1.8l1.9-0.1c-0.2-0.3-0.4-0.7-0.6-0.9L26.5,36.2z
		 M24.3,41.6c0,0.4,0,0.9-0.1,1.3c0.5-0.2,1.3-0.6,2-1v-0.4L25.8,42c-0.3-0.3-1-0.8-1.5-1.1l0.5-0.5c0.5,0.3,1.1,0.7,1.4,1V40h-2
		V41.6z M29.4,40c-1.1,0-1.4-0.4-1.4-1.4v-3.1h1v1.4h2.7v0.8H29v1c0,0.4,0.1,0.5,0.4,0.5h1.8c0.3,0,0.7,0,0.9-0.1
		c0,0.3,0.1,0.6,0.1,0.8C32,40,31.6,40,31.2,40H29.4z M31,44.1c0.4,0,0.5-0.2,0.5-1.2c0.2,0.2,0.6,0.3,0.9,0.4
		C32.3,44.6,32,45,31.1,45h-1.7c-1.1,0-1.4-0.3-1.4-1.3v-3.4h1v1.2h2.8v0.9H29v1.4c0,0.4,0.1,0.4,0.5,0.4H31z"/>
	<path d="M43.2,37.1c0,0,0,0.3,0,0.5c-0.1,4.7-0.3,6.4-0.7,6.9c-0.3,0.3-0.5,0.4-0.9,0.5c-0.4,0-1,0-1.6,0c0-0.3-0.1-0.7-0.3-0.9
		c0.7,0.1,1.3,0.1,1.5,0.1c0.2,0,0.3,0,0.4-0.2c0.3-0.3,0.5-1.9,0.6-5.9h-2.5c-0.3,0.7-0.6,1.3-1,1.8c-0.2-0.1-0.5-0.4-0.8-0.5V44
		h-2.8v0.8h-0.9v-7.7h1.2c0.1-0.5,0.3-1.2,0.4-1.7l1.1,0.2c-0.2,0.5-0.4,1.1-0.5,1.5H38v2c0.7-0.9,1.2-2.3,1.6-3.7l0.9,0.2
		c-0.1,0.5-0.3,1-0.4,1.4H43.2z M35.2,38v2h2v-2H35.2z M37.2,43.1v-2.3h-2v2.3H37.2z M40.6,42.3c-0.3-0.6-1-1.7-1.5-2.4l0.8-0.4
		c0.6,0.7,1.3,1.7,1.6,2.3L40.6,42.3z"/>
	<path d="M54.4,37.3h-6.1c0.2,0.4,0.5,0.8,0.6,1.1l-0.8,0.3h2.5c0.2-0.4,0.5-1,0.7-1.4l1,0.2c-0.2,0.4-0.5,0.8-0.7,1.2h2.3v5.3
		c0,0.5-0.1,0.7-0.5,0.8S52.5,45,51.7,45c0-0.2-0.2-0.5-0.3-0.7c0.6,0,1.2,0,1.4,0c0.2,0,0.2-0.1,0.2-0.2v-4.5H51V40
		c0,0.2,0,0.3,0.2,0.3H52c0.2,0,0.5,0,0.6-0.1c0,0.2,0,0.5,0.1,0.7C52.5,41,52.3,41,52,41h-1c-0.7,0-0.9-0.3-0.9-1v-0.5h-1
		c-0.2,1-0.6,1.6-2.1,1.9c-0.1-0.2-0.3-0.5-0.4-0.7V45h-0.9v-6.3H48c-0.1-0.3-0.4-0.8-0.6-1.2l0.7-0.2h-2.9v-0.8h4.2
		c-0.1-0.3-0.2-0.6-0.3-0.9l0.9-0.2c0.1,0.4,0.3,0.8,0.4,1.1h3.9V37.3z M46.7,40.8c1.1-0.2,1.5-0.6,1.6-1.2h-1.6V40.8z M48.6,43.8
		v0.5h-0.8v-2.9h3.9v2.4H48.6z M48.6,42v1h2.3v-1H48.6z"/>
	<path d="M64.9,37.3c-0.3,0.7-0.7,1.2-1.2,1.7c0.6,0.4,1.3,0.6,2.1,0.8c-0.2,0.2-0.5,0.6-0.6,0.8c-0.8-0.2-1.6-0.6-2.3-1
		c-0.6,0.4-1.4,0.7-2.2,1c-0.1-0.1-0.2-0.3-0.3-0.4c-0.2,0.6-0.4,1.2-0.6,1.7l-0.7-0.3c0.2-0.4,0.3-1,0.5-1.6h-0.8v4
		c0,0.5-0.1,0.7-0.4,0.9C58.2,45,57.8,45,57.1,45c0-0.3-0.2-0.7-0.3-0.9c0.4,0,0.8,0,1,0s0.2,0,0.2-0.2v-2.8
		c-0.4,0.9-0.9,1.8-1.4,2.3c-0.1-0.3-0.3-0.7-0.5-0.9c0.6-0.6,1.2-1.6,1.6-2.5h-1.5v-0.9h2.7c-0.6-0.4-1.5-0.9-2.2-1.2l0.6-0.6
		c0.3,0.1,0.6,0.3,0.9,0.4c0.3-0.3,0.6-0.6,0.9-0.9h-2.8v-0.8h3.5l0.2,0l0.6,0.4c-0.4,0.6-1,1.3-1.6,1.8c0.3,0.2,0.6,0.4,0.8,0.6
		l-0.5,0.5H60l0.1-0.1l0.6,0.2c0,0.1-0.1,0.3-0.1,0.4c0.6-0.2,1.1-0.4,1.6-0.7c-0.4-0.3-0.7-0.7-0.9-1.1c-0.2,0.2-0.4,0.4-0.6,0.6
		c-0.2-0.2-0.6-0.4-0.8-0.6c0.8-0.6,1.6-1.5,2-2.5l0.9,0.3c-0.1,0.3-0.3,0.6-0.4,0.8h3.3v0.8H64.9z M65.4,41.3c0,0,0,0.3,0,0.4
		c-0.2,1.9-0.4,2.7-0.7,3c-0.2,0.2-0.4,0.3-0.7,0.3c-0.3,0-0.7,0-1.2,0c0-0.3-0.1-0.7-0.3-0.9c0.4,0,0.8,0.1,1,0.1
		c0.2,0,0.2,0,0.3-0.1c0.2-0.2,0.3-0.7,0.5-1.9h-1.5c-0.4,1.3-1.1,2.3-2.8,3c-0.1-0.2-0.4-0.6-0.6-0.8c1.4-0.5,2-1.3,2.3-2.2h-1.5
		v-0.8h1.7c0.1-0.3,0.1-0.7,0.1-1h1c0,0.3-0.1,0.7-0.1,1H65.4z M61.9,37.3c0.3,0.4,0.6,0.8,1.1,1.2c0.4-0.3,0.7-0.7,0.9-1.2H61.9z"
		/>
	<path d="M76.3,37.3v5h-1v-0.6h-2.7v3.3h-1v-3.3h-2.7v0.6h-1v-5.1h3.7v-1.8h1v1.8H76.3z M71.5,40.8v-2.5h-2.7v2.5H71.5z M75.3,40.8
		v-2.5h-2.7v2.5H75.3z"/>
	<path d="M80.3,39.3c-0.2,1.3-0.5,3.1-0.9,4.2l-1-0.4c0.4-1.1,0.7-2.7,0.9-4L80.3,39.3z M82.1,38.4v5c0,0.5,0.1,0.6,0.7,0.6h1.8
		c0.6,0,0.7-0.3,0.8-2.1c0.2,0.2,0.7,0.4,0.9,0.4c-0.1,2-0.4,2.6-1.6,2.6h-1.9c-1.2,0-1.6-0.3-1.6-1.5v-5H82.1z M82.2,35.7
		c1,0.6,2.2,1.6,2.9,2.2l-0.7,0.7c-0.6-0.7-1.8-1.7-2.8-2.3L82.2,35.7z M86.7,38.8c0.6,1.2,1.2,2.8,1.4,3.9l-1,0.4
		c-0.2-1.1-0.7-2.7-1.3-4L86.7,38.8z"/>
	<path d="M99.1,42.6h-9.5v-0.9h1l-0.2-5.5c0.7-0.2,1.4-0.5,2-0.8l0.5,0.8c-0.5,0.2-1,0.3-1.5,0.5l0,1.1h1.3v0.8h-1.3l0,1.1h1.3v0.8
		h-1.2l0,1.1h5.7c0-0.3,0-0.7,0.1-1.1H96v-0.8h1.3c0-0.4,0-0.7,0-1.1h-1.2v-0.8h1.3c0-0.4,0-0.8,0-1.1H96v-0.9h2.3
		c0,1.8-0.1,4.3-0.2,5.8h1V42.6z M93.4,43.3c-0.9,0.6-2.1,1.3-3.2,1.7c-0.1-0.2-0.4-0.5-0.6-0.7c1-0.4,2.3-1.1,2.9-1.6L93.4,43.3z
		 M94.1,39.4c-0.1,0.7-0.3,1.4-0.6,1.9c-0.1-0.1-0.5-0.3-0.6-0.4c0.3-0.4,0.4-1,0.5-1.6L94.1,39.4z M94.8,38.9h-1.6v-3.4H94v0.9h1.7
		v0.8H94v1h1.3v0h0.3v2.7c0,0.4-0.1,0.5-0.3,0.6c-0.3,0.1-0.6,0.1-1.1,0.1c0-0.2-0.1-0.5-0.2-0.6c0.3,0,0.6,0,0.7,0
		c0.1,0,0.1,0,0.1-0.1V38.9z M98.2,45c-0.7-0.5-1.8-1.2-2.9-1.7l0.5-0.7c1.1,0.5,2.3,1.2,3,1.6L98.2,45z"/>
	<path d="M106.2,35.7c-0.1,0.1-0.1,0.1-0.2,0.2c1,0.9,2.8,1.7,4.4,2c-0.2,0.2-0.5,0.5-0.6,0.7c-0.3-0.1-0.5-0.2-0.8-0.3v2.7h-7.1
		v-2.6c-0.3,0.1-0.5,0.2-0.8,0.3c-0.1-0.2-0.4-0.6-0.5-0.7c1.9-0.5,3.8-1.4,4.7-2.6L106.2,35.7z M109,38.4c-0.6-0.2-1.1-0.4-1.7-0.7
		V38h-3.6v-0.3c-0.5,0.3-1,0.5-1.5,0.7H109z M102.5,41.6h6V45h-1v-0.3h-4v0.3h-1V41.6z M103.9,39.1c0.2,0.4,0.5,0.8,0.5,1.2
		l-0.7,0.2h1.2v-1.4h-2.3v1.4h1c-0.1-0.3-0.3-0.8-0.5-1.2L103.9,39.1z M103.5,42.2v0.6h4v-0.6H103.5z M107.5,44.1v-0.6h-4v0.6H107.5
		z M106.7,37.3c-0.4-0.3-0.8-0.6-1.2-0.9c-0.3,0.3-0.7,0.6-1.1,0.9H106.7z M108.1,39.1h-2.3v1.4h1.2l-0.7-0.2
		c0.2-0.3,0.4-0.9,0.5-1.2l0.8,0.2c-0.2,0.5-0.5,0.9-0.7,1.2h1.1V39.1z"/>
	<path d="M115.1,38h-3.3v-0.8h3.3V38z M114.8,44.5h-2v0.5h-0.7v-3.5h2.7V44.5z M112.2,38.6h2.7v0.8h-2.7V38.6z M112.2,40h2.7v0.8
		h-2.7V40z M113.3,37.2c-0.1-0.4-0.3-1-0.5-1.4l0.7-0.3c0.2,0.4,0.5,1,0.6,1.4L113.3,37.2z M112.8,42.2v1.5h1.3v-1.5H112.8z
		 M120.9,42.6c-0.3,0.4-0.6,0.8-1,1.2c0.2,0.4,0.4,0.6,0.7,0.6c0.2,0,0.3-0.2,0.3-0.9c0.2,0.2,0.4,0.3,0.6,0.4c-0.1,1-0.4,1.3-1,1.3
		c-0.5,0-0.9-0.3-1.2-0.9c-0.4,0.3-0.8,0.5-1.2,0.7c-0.1-0.1-0.3-0.4-0.5-0.5c0.5-0.2,1-0.5,1.4-0.8c-0.1-0.4-0.3-1-0.3-1.6h-1.3
		v0.6c0.3,0,0.7-0.1,1-0.1l0,0.7l-1,0.1v0.9c0,0.4-0.1,0.6-0.4,0.7c-0.3,0.1-0.7,0.1-1.3,0.1c0-0.2-0.2-0.5-0.3-0.7
		c0.4,0,0.8,0,0.9,0c0.1,0,0.2,0,0.2-0.2v-0.8c-0.5,0.1-0.9,0.1-1.3,0.2l-0.1-0.8c0.4,0,0.9-0.1,1.4-0.2V42h-1.4v-0.7h1.4v-0.6
		c-0.4,0.1-0.7,0.1-1.1,0.1c0-0.2-0.1-0.4-0.2-0.6c0.9-0.1,2-0.3,2.6-0.5l0.5,0.6c-0.3,0.1-0.6,0.2-1,0.2v0.7h1.2
		c0-0.5-0.1-0.9-0.1-1.4h0.8c0,0.5,0,1,0.1,1.4h2V42h-1.9c0.1,0.4,0.1,0.7,0.2,1c0.2-0.3,0.4-0.5,0.6-0.8L120.9,42.6z M121.3,39.6
		h-6.2v-0.7h2.6v-0.6h-1.9v-0.6h1.9v-0.6h-2.3v-0.7h1.2c-0.1-0.2-0.3-0.5-0.5-0.7l0.7-0.3c0.2,0.3,0.5,0.7,0.6,1h1.4
		c0.2-0.3,0.4-0.7,0.5-1l0.9,0.2c-0.2,0.3-0.4,0.5-0.5,0.8h1.2v0.7h-2.4v0.6h2.1v0.6h-2.1v0.6h2.6V39.6z M120.1,39.8
		c0.4,0.3,0.9,0.7,1.1,1l-0.6,0.5c-0.2-0.3-0.7-0.7-1.1-1L120.1,39.8z"/>
	<path d="M132.4,43.9v0.9h-9.2v-0.9h4.1v-1.2h-3.1v-0.8h3.1v-1h1v1h3.3v0.8h-3.3v1.2H132.4z M124.2,38.2h-1v-1.9h4.1
		c-0.1-0.3-0.2-0.5-0.3-0.7l1-0.3c0.2,0.3,0.4,0.7,0.5,1h3.8v1.9h-1v-1h-7.1V38.2z M130.8,41.2c-0.1-0.2-0.3-0.4-0.6-0.7
		c-4.8,0.4-5.3,0.4-5.7,0.6c0-0.2-0.2-0.6-0.3-0.9c0.2,0,0.4-0.2,0.7-0.4c0.2-0.1,0.7-0.5,1.2-1h-1.9V38h6.9v0.8h-1.6
		c0.7,0.6,1.6,1.3,2,1.9L130.8,41.2z M127.4,38.8c-0.5,0.5-1,0.9-1.5,1.3l3.6-0.3c-0.2-0.2-0.5-0.4-0.7-0.6l0.7-0.4H127.4z"/>
	<path d="M135.1,41.7c0.8-0.3,1.3-0.8,1.3-1.4c0,0-0.1,0-0.1,0c-0.5,0-0.9-0.3-0.9-0.8c0-0.5,0.4-0.8,0.9-0.8c0.7,0,1,0.5,1,1.3
		c0,1.2-0.7,2.1-1.9,2.5L135.1,41.7z"/>
	<path d="M142.1,41.2v2.7c0,0.5-0.1,0.7-0.4,0.9c-0.3,0.2-0.7,0.2-1.4,0.2c0-0.2-0.1-0.7-0.3-0.9c0.4,0,0.8,0,0.9,0
		c0.1,0,0.2,0,0.2-0.2v-2.4l-1.1,0.3l-0.2-0.9c0.4-0.1,0.8-0.2,1.3-0.4v-2.1h-1.2v-0.9h1.2v-2h0.9v2h1.1v0.9h-1.1v1.8l1-0.3l0.1,0.9
		L142.1,41.2z M146.7,44c0.3,0,0.6,0.1,0.9,0.1s1.7,0,2.1,0c-0.1,0.2-0.2,0.6-0.3,0.9h-1.8c-1.5,0-2.6-0.3-3.2-1.6
		c-0.3,0.7-0.7,1.3-1.2,1.8c-0.1-0.2-0.5-0.5-0.7-0.6c0.9-0.7,1.4-1.9,1.5-3.4l0.9,0.1c-0.1,0.4-0.1,0.8-0.2,1.1
		c0.3,0.8,0.7,1.2,1.2,1.4v-3.1h-2.5v-0.8h6.1v0.8h-2.6v1.1h2.1v0.8h-2.1V44z M148.8,39.3h-5v-3.5h5V39.3z M147.9,36.5h-3.2v0.7h3.2
		V36.5z M147.9,37.8h-3.2v0.7h3.2V37.8z"/>
	<path d="M3.7,51.7c-0.3,0.7-0.6,1.5-1,2.2v7.1h-1v-5.6c-0.3,0.4-0.6,0.7-0.9,1.1c-0.1-0.2-0.4-0.8-0.5-1c1-1,1.9-2.5,2.5-4
		L3.7,51.7z M6,58.6c-0.5,0.9-1.3,1.8-2,2.4c-0.2-0.2-0.6-0.5-0.8-0.6c0.7-0.5,1.4-1.3,1.9-2.1L6,58.6z M10.1,56.9v1H3.3v-1h1.5
		v-2.4H3.6v-0.9h1.3v-2h1v2h1.8v-2.1h1v2.1H10v0.9H8.5v2.4H10.1z M5.8,56.9h1.8v-2.4H5.8V56.9z M8.2,58.4c0.7,0.7,1.4,1.6,1.8,2.2
		l-0.8,0.5c-0.3-0.6-1.1-1.6-1.8-2.3L8.2,58.4z"/>
	<path d="M14.9,51.8c-0.3,0.7-0.6,1.5-1,2.2V61h-1v-5.5c-0.3,0.4-0.6,0.7-0.9,1c-0.1-0.2-0.4-0.8-0.5-1c1-1,1.9-2.5,2.5-4L14.9,51.8
		z M21.2,59.8v0.9h-6.7v-0.9h2.9v-2.4h-2.3v-0.9h2.3v-2.1h-2.7v-0.9h6.3v0.9h-2.7v2.1h2.4v0.9h-2.4v2.4H21.2z M17.7,53.4
		c-0.1-0.5-0.5-1.2-0.8-1.7l0.9-0.3c0.3,0.5,0.7,1.2,0.9,1.7L17.7,53.4z"/>
	<path d="M31.1,54.2v4.2h-1v-0.5h-5.2c-0.2,1.2-0.6,2.4-1.5,3.3c-0.1-0.2-0.5-0.6-0.8-0.7c1.3-1.4,1.5-3.3,1.5-4.9v-3.1
		c2.1-0.2,4.5-0.6,5.9-1l0.8,0.8c-1.6,0.5-3.7,0.8-5.7,1v1H31.1z M30.1,56.9v-1.8h-5v0.5c0,0.4,0,0.9-0.1,1.3H30.1z"/>
	<path d="M37,56.8c-0.3,0.1-0.7,0.2-1,0.3v2.8c0,0.5-0.1,0.7-0.4,0.9C35.3,61,34.9,61,34.3,61c0-0.2-0.1-0.7-0.3-0.9
		c0.4,0,0.8,0,0.9,0c0.1,0,0.2,0,0.2-0.2v-2.5L34,57.8l-0.2-0.9c0.4-0.1,0.9-0.2,1.4-0.4v-2.1h-1.2v-0.9h1.2v-2H36v2h1v0.9h-1v1.8
		c0.3-0.1,0.6-0.2,0.9-0.3L37,56.8z M42.4,57.6c-0.2,0.7-0.6,1.3-1,1.8c0.7,0.3,1.4,0.7,1.9,1L42.6,61c-0.5-0.3-1.2-0.7-2-1.1
		c-0.8,0.5-1.8,0.8-3.1,1.1c-0.1-0.3-0.3-0.6-0.4-0.8c1.1-0.1,1.9-0.4,2.6-0.7c-0.7-0.3-1.3-0.5-2-0.8c0.3-0.3,0.5-0.7,0.8-1.2h-1.3
		v-0.8H39c0.2-0.3,0.4-0.7,0.5-1l0.9,0.2c-0.1,0.3-0.3,0.6-0.4,0.8h1.6c0-0.2,0.1-0.4,0.1-0.6l0.9,0.2c0,0.2-0.1,0.3-0.1,0.5h0.9
		v0.8H42.4z M43.3,55.7h-6.1v-0.8h1.7c-0.1-0.3-0.4-0.9-0.7-1.3l0.8-0.3c0.3,0.4,0.6,0.9,0.7,1.2L39,54.9h1.8
		c0.2-0.4,0.6-1.1,0.7-1.5l0.9,0.3c-0.2,0.4-0.5,0.9-0.7,1.3h1.7V55.7z M43.1,53.3h-5.6v-0.8h2.4c-0.1-0.3-0.3-0.6-0.4-0.9l1.1-0.2
		c0.2,0.3,0.4,0.7,0.5,1.1h2V53.3z M39.5,57.6c-0.2,0.3-0.3,0.6-0.5,0.8c0.5,0.2,1,0.3,1.4,0.5c0.4-0.4,0.7-0.8,0.9-1.4H39.5z"/>
	<path d="M48.2,54.1c-0.2,0.4-0.5,0.9-0.9,1.3v5.7h-0.9v-4.6c-0.4,0.4-0.7,0.7-1.1,1c-0.1-0.2-0.3-0.7-0.5-1
		c0.9-0.7,1.9-1.7,2.5-2.8L48.2,54.1z M48.1,51.8c-0.6,0.9-1.7,1.9-2.6,2.5c-0.1-0.2-0.3-0.6-0.5-0.8c0.8-0.5,1.7-1.4,2.2-2.1
		L48.1,51.8z M54.5,52.7v0.9h-2.9v1.1h2.4v0.9h-5.8v-0.9h2.4v-1.1h-2.8v-0.9h2.8v-1.2h1v1.2H54.5z M53.2,56.7h1.4v0.9h-1.4V60
		c0,0.5-0.1,0.8-0.5,0.9c-0.4,0.1-0.9,0.2-1.8,0.2c0-0.3-0.2-0.7-0.3-0.9c0.6,0,1.2,0,1.4,0c0.2,0,0.2,0,0.2-0.2v-2.4h-4.3v-0.9h4.3
		v-0.8h1V56.7z M49.4,57.8c0.5,0.5,1,1.3,1.3,1.8L49.9,60c-0.3-0.5-0.8-1.2-1.3-1.8L49.4,57.8z"/>
	<path d="M59.9,54h-3.8v-0.8h1.8c-0.1-0.4-0.4-1-0.7-1.4l0.7-0.4c0.3,0.4,0.6,1,0.7,1.4L58,53.2h2V54z M62.5,54.1c0,0.5,0,1-0.1,1.4
		h2.8c0,0,0,0.3,0,0.4c-0.1,3.1-0.3,4.2-0.6,4.6c-0.2,0.3-0.4,0.3-0.7,0.4c-0.3,0-0.8,0-1.3,0c0-0.3-0.1-0.7-0.3-0.9
		c0.5,0.1,1,0.1,1.2,0.1c0.2,0,0.3,0,0.4-0.1c0.2-0.2,0.3-1.2,0.4-3.5h-1.9c-0.2,1.9-0.8,3.5-2.2,4.6c-0.1-0.2-0.4-0.5-0.6-0.7v0
		h-2.2v0.5h-0.8v-3.5h2.9v3c1.8-1.3,2-3.7,2.1-6.3h-1.4v-0.9h2.4c-0.1-0.4-0.3-1-0.4-1.5l0.8-0.2c0.2,0.5,0.5,1.2,0.5,1.7l-0.1,0
		h2.2v0.9H62.5z M59.5,54.6v0.8h-2.9v-0.8H59.5z M56.6,56h3v0.8h-3V56z M58.7,58.2h-1.4v1.5h1.4V58.2z"/>
	<path d="M75,54.4c-0.5,0.8-1.2,1.4-2,2c1.1,0.5,2.5,0.8,3.9,1c-0.2,0.2-0.5,0.7-0.6,0.9c-0.4-0.1-0.9-0.1-1.3-0.3v3h-1v-0.3h-3.9
		v0.3h-1v-2.9c-0.5,0.1-1,0.3-1.5,0.4c-0.1-0.3-0.3-0.6-0.5-0.9c1.3-0.2,2.7-0.6,3.9-1.2c-0.4-0.3-0.8-0.6-1.2-1
		c-0.4,0.3-0.9,0.6-1.5,0.9c-0.1-0.2-0.4-0.6-0.6-0.7c1.4-0.6,2.4-1.5,3-2.2l1,0.2c-0.1,0.2-0.3,0.4-0.4,0.5h2.8l0.2,0L75,54.4z
		 M68.6,54.4h-1v-2.1h4c-0.1-0.3-0.3-0.5-0.4-0.8l1-0.2c0.2,0.3,0.4,0.7,0.6,1h3.7v2.1h-1v-1.2h-6.9V54.4z M74.2,57.8
		c-0.8-0.2-1.5-0.5-2.2-0.9c-0.6,0.3-1.3,0.6-2,0.9H74.2z M74,59.9v-1.3h-3.9v1.3H74z M70.7,54.9c0.4,0.4,0.9,0.8,1.4,1.1
		c0.6-0.3,1.1-0.7,1.4-1.1L70.7,54.9L70.7,54.9z"/>
	<path d="M82.2,57.1l-0.9,0.8c-0.7-0.8-1.6-1.7-2.3-2.3l0.9-0.7C80.6,55.4,81.6,56.4,82.2,57.1z"/>
	<path d="M93.7,53.3h-6.1c0.2,0.4,0.5,0.8,0.6,1.1l-0.8,0.3h2.5c0.2-0.4,0.5-1,0.7-1.4l1,0.2c-0.2,0.4-0.5,0.8-0.7,1.2h2.3v5.3
		c0,0.5-0.1,0.7-0.5,0.8S91.8,61,90.9,61c0-0.2-0.2-0.5-0.3-0.7c0.6,0,1.2,0,1.4,0c0.2,0,0.2-0.1,0.2-0.2v-4.5h-1.9V56
		c0,0.2,0,0.3,0.2,0.3h0.7c0.2,0,0.5,0,0.6-0.1c0,0.2,0,0.5,0.1,0.7c-0.1,0-0.4,0.1-0.6,0.1h-1c-0.7,0-0.9-0.3-0.9-1v-0.5h-1
		c-0.2,1-0.6,1.6-2.1,1.9c-0.1-0.2-0.3-0.5-0.4-0.7V61H85v-6.3h2.2c-0.1-0.3-0.4-0.8-0.6-1.2l0.7-0.2h-2.9v-0.8h4.2
		c-0.1-0.3-0.2-0.6-0.3-0.9l0.9-0.2c0.1,0.4,0.3,0.8,0.4,1.1h3.9V53.3z M86,56.8c1.1-0.2,1.5-0.6,1.6-1.2H86V56.8z M87.9,59.8v0.5
		h-0.8v-2.9H91v2.4H87.9z M87.9,58v1h2.3v-1H87.9z"/>
	<path d="M104.2,53.3c-0.3,0.7-0.7,1.2-1.2,1.7c0.6,0.4,1.3,0.6,2.1,0.8c-0.2,0.2-0.5,0.6-0.6,0.8c-0.8-0.2-1.6-0.6-2.3-1
		c-0.6,0.4-1.4,0.7-2.2,1c-0.1-0.1-0.2-0.3-0.3-0.4c-0.2,0.6-0.4,1.2-0.6,1.7l-0.7-0.3c0.2-0.4,0.3-1,0.5-1.6h-0.8v4
		c0,0.5-0.1,0.7-0.4,0.9C97.5,61,97,61,96.4,61c0-0.3-0.2-0.7-0.3-0.9c0.4,0,0.8,0,1,0s0.2,0,0.2-0.2v-2.8c-0.4,0.9-0.9,1.8-1.4,2.3
		c-0.1-0.3-0.3-0.7-0.5-0.9c0.6-0.6,1.2-1.6,1.6-2.5h-1.5v-0.9h2.7c-0.6-0.4-1.5-0.9-2.2-1.2l0.6-0.6c0.3,0.1,0.6,0.3,0.9,0.4
		c0.3-0.3,0.6-0.6,0.9-0.9h-2.8v-0.8h3.5l0.2,0l0.6,0.4c-0.4,0.6-1,1.3-1.6,1.8c0.3,0.2,0.6,0.4,0.8,0.6l-0.5,0.5h0.7l0.1-0.1
		l0.6,0.2c0,0.1-0.1,0.3-0.1,0.4c0.6-0.2,1.1-0.4,1.6-0.7c-0.4-0.3-0.7-0.7-0.9-1.1c-0.2,0.2-0.4,0.4-0.6,0.6
		c-0.2-0.2-0.6-0.4-0.8-0.6c0.8-0.6,1.6-1.5,2-2.5l0.9,0.3c-0.1,0.3-0.3,0.6-0.4,0.8h3.3v0.8H104.2z M104.7,57.3c0,0,0,0.3,0,0.4
		c-0.2,1.9-0.4,2.7-0.7,3c-0.2,0.2-0.4,0.3-0.7,0.3c-0.3,0-0.7,0-1.2,0c0-0.3-0.1-0.7-0.3-0.9c0.4,0,0.8,0.1,1,0.1
		c0.2,0,0.2,0,0.3-0.1c0.2-0.2,0.3-0.7,0.5-1.9h-1.5c-0.4,1.3-1.1,2.3-2.8,3c-0.1-0.2-0.4-0.6-0.6-0.8c1.4-0.5,2-1.3,2.3-2.2h-1.5
		v-0.8h1.7c0.1-0.3,0.1-0.7,0.1-1h1c0,0.3-0.1,0.7-0.1,1H104.7z M101.2,53.3c0.3,0.4,0.6,0.8,1.1,1.2c0.4-0.3,0.7-0.7,0.9-1.2H101.2
		z"/>
	<path d="M113.8,56.1c-0.4,1-1,1.9-1.7,2.6c1,0.7,2.4,1.2,4,1.5c-0.2,0.2-0.5,0.6-0.6,0.9c-1.7-0.3-3.1-0.9-4.1-1.7
		c-1.1,0.9-2.5,1.4-4.1,1.8c-0.1-0.2-0.4-0.7-0.6-0.9c1.6-0.3,3-0.8,4-1.6c-0.7-0.7-1.2-1.5-1.6-2.5l0.9-0.3
		c0.3,0.8,0.8,1.6,1.5,2.2c0.6-0.6,1.1-1.3,1.4-2.2L113.8,56.1z M110.3,54.4c-0.7,0.9-1.8,1.8-2.8,2.4c-0.2-0.2-0.5-0.6-0.8-0.7
		c0.9-0.5,2-1.3,2.6-2.1L110.3,54.4z M115.9,53.8h-9v-0.9h4.2c-0.2-0.4-0.4-0.8-0.6-1.2l0.9-0.3c0.3,0.4,0.6,1,0.8,1.4l-0.3,0.1h4.1
		V53.8z M113.2,54c0.9,0.6,2.1,1.6,2.7,2.2l-0.8,0.6c-0.5-0.7-1.7-1.6-2.6-2.3L113.2,54z"/>
	<path d="M119.6,56.3c-0.4-0.4-1.2-0.9-1.9-1.2l0.5-0.7c0.7,0.3,1.5,0.7,2,1.1L119.6,56.3z M120.6,57.6c-0.6,1.1-1.2,2.3-1.9,3.3
		l-0.8-0.7c0.6-0.8,1.4-2.1,2-3.3L120.6,57.6z M119.9,53.6c-0.4-0.4-1.2-0.9-1.8-1.3l0.5-0.7c0.6,0.3,1.4,0.8,1.8,1.2L119.9,53.6z
		 M121.5,56.4h0.9v1.1c0,1.2-0.2,2.6-1.5,3.6c-0.1-0.2-0.5-0.5-0.7-0.6c1.2-0.9,1.3-2,1.3-3V56.4z M126.4,56.4
		c-0.1-0.2-0.3-0.5-0.5-0.7c-4.1,0.3-4.6,0.3-4.9,0.5c-0.1-0.2-0.2-0.7-0.3-0.9c0.2-0.1,0.5-0.3,0.8-0.7c0.1-0.2,0.4-0.5,0.7-0.9
		h-1.6v-0.9h2.2c0.3-0.4,0.5-0.9,0.7-1.3l1,0.4c-0.2,0.3-0.4,0.6-0.6,0.9h3.2v0.9h-3.8c-0.4,0.5-0.8,1-1.2,1.4l3.2-0.2
		c-0.2-0.3-0.5-0.5-0.6-0.8l0.7-0.4c0.6,0.7,1.4,1.6,1.8,2.2L126.4,56.4z M123.3,56.5h0.9v4.1h-0.9V56.5z M126.7,60.1
		c0.1,0,0.3,0,0.5-0.1c0,0.2,0,0.6,0.1,0.8c-0.1,0.1-0.3,0.1-0.5,0.1h-0.6c-0.8,0-1-0.3-1-1.2v-3.3h0.9v3.3c0,0.3,0,0.4,0.2,0.4
		H126.7z"/>
	<path d="M138.1,53.1c0,0,0,0.3,0,0.5c-0.1,4.7-0.3,6.4-0.7,6.9c-0.3,0.3-0.5,0.4-0.9,0.5c-0.4,0-1,0-1.6,0c0-0.3-0.1-0.7-0.3-0.9
		c0.7,0.1,1.3,0.1,1.5,0.1c0.2,0,0.3,0,0.4-0.2c0.3-0.3,0.5-1.9,0.6-5.9h-2.5c-0.3,0.7-0.6,1.3-1,1.8c-0.2-0.1-0.5-0.4-0.8-0.5V60
		h-2.8v0.8h-0.9v-7.7h1.2c0.1-0.5,0.3-1.2,0.4-1.7l1.1,0.2c-0.2,0.5-0.4,1.1-0.5,1.5h1.7v2c0.7-0.9,1.2-2.3,1.6-3.7l0.9,0.2
		c-0.1,0.5-0.3,1-0.4,1.4H138.1z M130.2,54v2h2v-2H130.2z M132.1,59.1v-2.3h-2v2.3H132.1z M135.6,58.3c-0.3-0.6-1-1.7-1.5-2.4
		l0.8-0.4c0.6,0.7,1.3,1.7,1.6,2.3L135.6,58.3z"/>
	<path d="M149.5,57.5h-4.2v3.6h-1v-3.6h-4.2v-1h4.2v-3.4h-3.6v-1h8.2v1h-3.6v3.4h4.2V57.5z M142.2,53.5c0.4,0.7,0.8,1.7,0.9,2.3
		l-0.9,0.3c-0.1-0.6-0.5-1.6-0.9-2.3L142.2,53.5z M146.2,55.8c0.4-0.6,0.8-1.6,1-2.4l1,0.3c-0.4,0.8-0.8,1.8-1.2,2.4L146.2,55.8z"/>
	<path d="M7,68.5c1,0.9,2.2,2.2,2.8,3l-0.8,0.6c-0.2-0.3-0.4-0.6-0.6-0.9c-5.8,0.3-6.4,0.3-6.9,0.5c0-0.2-0.2-0.7-0.3-1
		c0.3,0,0.5-0.3,0.9-0.6c0.4-0.3,1.6-1.6,2.3-2.9l1,0.4c-0.8,1.1-1.6,2.1-2.5,2.9l4.9-0.2c-0.5-0.5-0.9-1-1.4-1.4L7,68.5z M1.8,72.6
		h6.8V77h-1v-0.5H2.8v0.6h-1V72.6z M2.8,73.5v2h4.8v-2H2.8z"/>
	<path d="M13.2,70.6c0.9,0,1.6,0.7,1.6,1.6c0,0.9-0.7,1.6-1.6,1.6c-0.9,0-1.6-0.7-1.6-1.6C11.5,71.4,12.3,70.6,13.2,70.6z
		 M13.2,73.3c0.6,0,1-0.5,1-1s-0.5-1-1-1c-0.5,0-1,0.5-1,1S12.6,73.3,13.2,73.3z"/>
</g>
<g>
	<path d="M12.4,6.8c-1.8,4-6.1,5.3-11.1,5.8c-0.1-0.4-0.4-1.1-0.6-1.5c2.1-0.1,4-0.4,5.6-1C6,9.7,5.5,9.3,5,8.9
		C4.5,9.1,3.9,9.4,3.3,9.6C3.1,9.2,2.7,8.7,2.4,8.4C5,7.6,6.8,6.3,7.8,5l1.7,0.4C9.2,5.7,9,6,8.7,6.3H11l0.3-0.1L12.4,6.8z M10.7,2
		C9,5,5.3,6.6,1.6,7.3C1.4,6.9,1.1,6.3,0.8,6c1.3-0.2,2.6-0.5,3.8-1C4.3,4.6,3.9,4.2,3.4,3.8C3,4,2.6,4.2,2.2,4.4
		C2,4,1.5,3.5,1.2,3.3c2.1-0.8,3.6-1.9,4.5-2.9l1.7,0.4C7.1,1,6.9,1.2,6.6,1.5h2.7l0.3-0.1L10.7,2z M5,2.8C4.9,2.9,4.7,3,4.6,3.1
		C5.1,3.5,5.7,4,6.1,4.4c0.8-0.4,1.6-0.9,2.1-1.5H5z M7.1,7.6C6.8,7.8,6.6,8,6.3,8.2C6.9,8.5,7.4,9,7.8,9.4C8.7,9,9.5,8.4,10,7.6
		H7.1z"/>
	<path d="M23.6,10.9c0.4,0,0.5-0.3,0.6-2.2c0.3,0.3,1,0.5,1.4,0.6c-0.2,2.3-0.5,3-1.9,3h-1.6c-1.5,0-1.8-0.5-1.8-2v-4h-2
		c-0.2,2.7-0.8,4.9-3.9,6.2c-0.2-0.4-0.6-1-1-1.3c2.7-1,3.1-2.8,3.2-4.9h-2.9V4.8h11.6v1.5h-3.4v4c0,0.5,0.1,0.6,0.5,0.6H23.6z
		 M24.1,2.8h-9.2V1.3h9.2V2.8z"/>
	<path d="M38.3,3h-3.8l1.2,0.2c-0.3,0.5-0.5,0.9-0.8,1.3h2.8v6.6c0,0.7-0.2,1-0.6,1.2c-0.5,0.2-1.2,0.2-2.2,0.2
		c-0.1-0.3-0.2-0.8-0.4-1.1c0.6,0,1.4,0,1.6,0c0.2,0,0.3-0.1,0.3-0.3V5.8h-2v0.3c0,0.2,0,0.4,0.2,0.4h0.6c0.2,0,0.6,0,0.8-0.1
		c0,0.4,0,0.7,0.1,1c-0.2,0.1-0.5,0.1-0.8,0.1h-1c-1.1,0-1.2-0.5-1.2-1.4V5.8H32c-0.2,1-0.6,1.6-1.7,2H35V11h-3.8v0.5h-1.3V7.9
		C29.8,8,29.6,8,29.4,8c-0.1-0.3-0.4-0.7-0.6-1v5.5h-1.5v-8H30c-0.1-0.4-0.4-0.9-0.6-1.3L30.3,3h-3.5V1.7h5.1
		c-0.1-0.3-0.2-0.7-0.3-1l1.5-0.4c0.2,0.4,0.3,0.9,0.5,1.4h4.8V3z M28.8,7c1.2-0.2,1.6-0.6,1.8-1.2h-1.8V7z M33.5,4.5
		C33.7,4.1,34,3.5,34.1,3h-3.3c0.2,0.4,0.5,0.9,0.7,1.3l-0.8,0.3H33.5z M31.2,8.9v1h2.5v-1H31.2z"/>
	<path d="M50.6,3c-0.3,0.7-0.8,1.4-1.3,1.9c0.7,0.3,1.5,0.6,2.4,0.8c-0.3,0.3-0.8,0.9-1,1.3c-1-0.2-1.9-0.6-2.7-1.1
		c-0.8,0.5-1.7,0.8-2.7,1.1c-0.1-0.1-0.2-0.3-0.4-0.5c-0.2,0.8-0.4,1.6-0.6,2.2l-1-0.5c0.1-0.5,0.3-1.1,0.4-1.8h-0.7v4.6
		c0,0.7-0.1,1.1-0.6,1.4c-0.4,0.2-1,0.3-1.8,0.3c0-0.4-0.2-1.1-0.4-1.5c0.5,0,1,0,1.2,0c0.2,0,0.2,0,0.2-0.2V8.1
		c-0.5,1-1,1.8-1.6,2.4C39.9,10,39.6,9.4,39.3,9c0.7-0.6,1.4-1.7,1.8-2.7h-1.6V5h3C41.8,4.5,40.8,4,40,3.7l1-1
		c0.3,0.1,0.7,0.3,1,0.4c0.3-0.2,0.6-0.5,0.8-0.8h-3.1V1h4.2L44.2,1l1,0.6c-0.4,0.7-1.2,1.5-1.9,2.1c0.4,0.2,0.7,0.4,0.9,0.6L43.6,5
		h0.6l0.2-0.1l0.9,0.3l-0.1,0.3c0.6-0.2,1.1-0.4,1.6-0.6c-0.3-0.3-0.6-0.7-0.9-1.1c-0.2,0.2-0.4,0.4-0.6,0.6
		c-0.3-0.2-0.9-0.7-1.3-0.9c1-0.7,2-1.9,2.5-3.1L48,0.8c-0.1,0.3-0.3,0.6-0.5,0.9h3.8V3H50.6z M51.2,7.7c0,0,0,0.4-0.1,0.6
		c-0.2,2.2-0.4,3.2-0.8,3.7c-0.3,0.3-0.6,0.4-0.9,0.5c-0.3,0-0.9,0.1-1.5,0c0-0.4-0.2-1-0.4-1.4C48,11,48.5,11,48.7,11
		c0.2,0,0.3,0,0.4-0.1c0.2-0.2,0.4-0.7,0.5-1.9h-1.5c-0.4,1.5-1.4,2.8-3.4,3.6c-0.2-0.4-0.6-0.9-0.9-1.2c1.6-0.6,2.3-1.4,2.7-2.4
		h-1.6V7.7h1.9c0.1-0.4,0.1-0.8,0.1-1.2h1.5c0,0.4-0.1,0.8-0.1,1.2H51.2z M47,3c0.3,0.4,0.6,0.8,1.1,1.1c0.4-0.3,0.6-0.7,0.9-1.1H47
		z"/>
	<path d="M63.9,2.7v6.5h-1.6V8.5h-2.9v4.1h-1.6V8.5h-2.9v0.7h-1.6V2.7h4.5V0.4h1.6v2.2H63.9z M57.7,7V4.2h-2.9V7H57.7z M62.2,7V4.2
		h-2.9V7H62.2z"/>
	<path d="M68,5.2c-0.2,1.7-0.5,3.9-0.9,5.4L65.5,10c0.5-1.4,0.8-3.3,1-5.1L68,5.2z M70.5,4.1v6c0,0.6,0.1,0.7,0.7,0.7H73
		c0.6,0,0.8-0.4,0.9-2.4c0.4,0.3,1,0.5,1.5,0.6c-0.2,2.5-0.6,3.2-2.2,3.2H71c-1.7,0-2.2-0.5-2.2-2.2v-6H70.5z M70.3,0.6
		c1.2,0.7,2.8,1.9,3.6,2.7l-1.1,1.2c-0.7-0.8-2.3-2-3.5-2.8L70.3,0.6z M76,4.5C76.7,6,77.4,8,77.7,9.3L76.1,10
		c-0.2-1.3-0.9-3.4-1.5-4.9L76,4.5z"/>
</g>
</svg>
