<svg width="137" height="152" viewBox="0 0 137 152" fill="none" xmlns="http://www.w3.org/2000/svg">
<path d="M1.39417 36.399V29.5789H4.71002V30.2947H2.14777V36.399H1.39417Z" fill="#1F1E1D"/>
<path d="M10.249 31.086H14.017V39.2626H13.2257V38.7351H7.6114V39.338H6.8201V31.1238H9.45771C9.64611 30.5209 9.79685 30.031 9.87221 29.6919L10.7765 29.805C10.6635 30.1441 10.4751 30.5962 10.249 31.086ZM13.2257 31.8396H7.6114V33.4222H13.2257V31.8396ZM13.2257 34.1758H7.6114V35.7207H13.2257V34.1758ZM7.6114 37.9815H13.2257V36.399H7.6114V37.9815Z" fill="#1F1E1D"/>
<path d="M21.2893 31.7266H24.982V39.2626H24.1907V38.6598H17.672V39.338H16.8807V31.7266H20.498V29.6919H21.2893V31.7266ZM20.498 32.4802H17.672V34.7787H20.498V32.4802ZM17.672 35.5323V37.8685H20.498V35.5323H17.672ZM24.1907 32.4802H21.2893V34.7787H24.1907V32.4802ZM21.2893 37.9062H24.1907V35.57H21.2893V37.9062Z" fill="#1F1E1D"/>
<path d="M35.4571 31.7267L36.06 32.1035C35.231 33.46 34.0629 34.7788 32.631 36.0976C31.9151 36.7382 31.2369 37.3034 30.5586 37.7555C31.3122 38.17 32.4427 38.3961 33.9875 38.3961C35.4571 38.3961 36.3614 38.3961 36.7005 38.3961C36.5498 38.6598 36.4367 38.8859 36.3991 39.1497H33.9499C32.3673 39.1497 31.1992 38.9236 30.4079 38.5091C29.805 38.2077 29.3152 37.7179 28.9384 37.115C28.4862 37.9816 28.0718 38.7353 27.6949 39.3005L26.9413 38.8483C27.5819 38.057 28.1471 37.0773 28.6746 35.8715C28.75 35.6831 28.8254 35.457 28.9007 35.3063L29.6543 35.6078C29.6166 35.7208 29.5036 35.9469 29.3152 36.3237C29.4659 36.6628 29.692 36.9643 29.9558 37.2281C31.1992 36.3991 32.4427 35.344 33.6107 33.9875C34.0629 33.46 34.4774 32.9702 34.7788 32.4803H27.5819V31.7267H31.3876V29.6543H32.1789V31.7267H35.3064H35.4571Z" fill="#1F1E1D"/>
<path d="M45.1032 38.0946H47.7031V38.8858H38.2454V38.0946H39.9033V30.7469L40.6193 30.9353C42.8801 30.5962 44.5757 30.257 45.7061 29.8425L46.309 30.4831C45.0278 30.8976 43.1815 31.312 40.6946 31.6135V33.4221H47.1379V34.1758H45.0278V38.0946H45.1032ZM40.7323 34.1758V38.0946H44.3119V34.1758H40.7323Z" fill="#1F1E1D"/>
<path d="M51.961 32.5933V39.4134H48.6451V38.6974H51.2074V32.5933H51.961Z" fill="#1F1E1D"/>
<path d="M68.8041 31.5006H60.7782V33.6859C60.7782 36.2105 60.4391 38.0569 59.7985 39.2626C59.5724 39.0742 59.384 38.9236 59.1579 38.8482C59.7608 37.7178 60.0622 36.0221 60.0622 33.6859V30.7846H64.0187V29.6919H64.81V30.7846H68.8041V31.5006ZM65.1868 36.7758V38.3583H68.8417V39.0366H60.8535V38.3583H64.4332V36.7758H61.5318V36.0975H64.4332V31.9527H65.1868V35.0425C66.0157 34.4019 66.5433 33.4222 66.7693 32.1411L67.4852 32.2165C67.4099 32.6309 67.2969 33.0454 67.1461 33.4975C67.9751 34.2135 68.578 34.7034 68.8794 35.0802L68.3896 35.6077C68.0881 35.2309 67.5606 34.7411 66.8824 34.1382C66.5809 34.7034 66.2041 35.1932 65.752 35.5323C65.6012 35.3816 65.4128 35.2309 65.2244 35.0802V36.1352H68.2388V36.8134H65.1868V36.7758ZM62.5491 32.1034L63.3028 32.1787C63.2274 32.6309 63.1143 33.0831 62.9636 33.4975C63.5288 34.0251 63.981 34.4395 64.2824 34.8163L63.7926 35.3062C63.4911 34.9294 63.1143 34.5149 62.6999 34.1005C62.3984 34.7033 62.0216 35.1932 61.5694 35.6077C61.381 35.4193 61.1927 35.2685 60.9666 35.1178C61.8332 34.5526 62.3607 33.4976 62.5491 32.1034Z" fill="#1F1E1D"/>
<path d="M72.6474 34.9295L72.1576 35.5324C71.7431 35.1556 71.1402 34.8165 70.3866 34.4397L70.8388 33.9122C71.5924 34.2513 72.1953 34.5527 72.6474 34.9295ZM72.9866 31.9905V31.0862H70.6127V30.3703H72.9866V29.6543H73.7402V30.3703H76.5662V29.6543H77.3198V30.3703H79.769V31.0862H77.3198V31.9905H76.5662V31.0862H73.7402V31.9905H72.9866ZM71.1779 39.2627L70.6127 38.6599C71.2909 37.9063 71.9692 37.0397 72.6851 36.0223L73.175 36.5875C72.4967 37.5672 71.8561 38.4715 71.1779 39.2627ZM71.1026 32.405L71.5547 31.8775C72.3837 32.292 72.9489 32.631 73.3634 32.9325L72.8735 33.5354C72.5344 33.2339 71.9315 32.8571 71.1026 32.405ZM78.7893 32.405L79.2791 32.7064C78.8647 33.4224 78.2241 34.0629 77.3951 34.6658C78.2995 35.1179 79.2038 35.4948 80.1458 35.7208C79.9574 35.9092 79.8067 36.0976 79.6559 36.3614C78.6763 36.0976 77.6966 35.6455 76.7169 35.0803C75.9256 35.5325 75.172 35.9092 74.343 36.173H78.9777V39.3005H78.1864V38.8483H74.9083V39.3005H74.1546V36.2483C73.8532 36.3614 73.5894 36.3991 73.4387 36.4367C73.3257 36.173 73.2126 35.9469 73.0619 35.7962C74.1546 35.5324 75.1343 35.1556 76.0763 34.6658C75.5865 34.3267 75.1343 33.9498 74.7575 33.6107C74.4184 33.9498 74.0416 34.2889 73.5894 34.6281C73.401 34.4397 73.2503 34.289 73.0242 34.1383C73.9286 33.4977 74.6822 32.7818 75.2474 31.8775C75.2851 31.8021 75.3604 31.689 75.3981 31.6136L76.1517 31.7644C76.114 31.8398 76.001 31.9528 75.8879 32.1412C75.8126 32.2543 75.7372 32.3296 75.6995 32.405H78.6009H78.7893ZM78.2241 36.8135H74.9083V38.2454H78.2241V36.8135ZM75.2851 33.0455L75.2097 33.1209C75.5865 33.4977 76.0763 33.8745 76.7169 34.289C77.3198 33.8745 77.8096 33.46 78.1487 33.0455H75.2851Z" fill="#1F1E1D"/>
<path d="M86.2123 37.1902L85.7601 37.7554C85.5341 37.4916 85.1196 37.1149 84.5544 36.5874V39.2626H83.8008V36.4743C83.2356 37.3409 82.6704 38.0192 82.0298 38.509C81.8791 38.2829 81.6907 38.0945 81.5023 37.9438C82.1429 37.5293 82.7081 36.9265 83.2733 36.0975C83.3863 35.9091 83.4993 35.7206 83.6124 35.5699H81.7284V34.8918H83.8008V33.7613H81.6907V33.0831H86.5891V33.7613H84.5544V34.8918H86.5138V35.5699H84.5544V35.8338C85.1196 36.2482 85.6471 36.7004 86.1746 37.1526C86.1746 37.1902 86.2123 37.1902 86.2123 37.1902ZM86.4761 30.7846V31.4628H81.8791V30.7846H83.8008V29.7295H84.5544V30.7846H86.4761ZM83.537 32.97L82.8965 33.1584C82.8588 32.7063 82.708 32.1787 82.482 31.6512L83.0849 31.5005C83.3109 31.9904 83.4617 32.4802 83.537 32.97ZM85.2703 33.1207L84.6297 32.97C84.8935 32.3671 85.0819 31.8396 85.1573 31.4628L85.8732 31.6135C85.6094 32.3294 85.3834 32.8569 85.2703 33.1207ZM91.2615 33.1961V33.9497H90.0934V39.2626H89.3398V33.9497H87.7572V34.2135C87.7572 36.3613 87.3051 37.9815 86.363 39.0742C86.2877 39.1872 86.1746 39.2626 86.0993 39.3757C85.9862 39.2249 85.8355 39.0365 85.6094 38.8858C85.5718 38.8481 85.5718 38.8482 85.5341 38.8482C86.4384 37.9815 86.9282 36.6627 87.0036 34.9671C87.0036 34.741 87.0413 34.5149 87.0413 34.2511V30.5962L87.6065 30.7846C88.9253 30.4831 89.905 30.1817 90.5455 29.8803L91.1861 30.4831C90.4702 30.8222 89.3398 31.1237 87.7949 31.4251V33.3091H91.2615V33.1961Z" fill="#1F1E1D"/>
<path d="M95.7077 32.3295V29.8425H96.499V39.1872H95.7077V36.8134C94.8787 37.1902 93.9744 37.567 93.0324 37.9438L92.6556 37.1525C93.0324 37.0395 94.0498 36.6627 95.67 36.0221V33.0831H92.9571V32.2917H95.7077V32.3295ZM99.5888 38.3206H101.134C101.36 38.3206 101.51 38.2075 101.586 37.9438C101.661 37.68 101.737 37.0771 101.774 36.1351C102 36.3235 102.226 36.4365 102.528 36.5119C102.49 37.6046 102.339 38.3206 102.151 38.6598C101.963 38.9612 101.624 39.1119 101.209 39.1119H99.5134C98.9859 39.1119 98.6091 38.9989 98.4584 38.7351C98.3453 38.509 98.27 38.1699 98.27 37.68V29.9179H99.0612V33.3845C100.192 32.7063 101.058 32.0657 101.661 31.5005L102.264 32.1787C101.586 32.7062 100.531 33.3845 99.0612 34.2135V37.68C99.0612 38.0192 99.1366 38.2076 99.2496 38.283C99.325 38.283 99.4381 38.3206 99.5888 38.3206Z" fill="#1F1E1D"/>
<path d="M113.304 33.4975H109.31C109.989 35.57 111.006 37.0772 112.438 38.0192C112.777 38.2452 113.116 38.396 113.455 38.5467C113.229 38.7728 113.003 39.0366 112.852 39.3003C110.968 38.396 109.536 36.6627 108.632 34.0627C107.991 36.5496 106.597 38.283 104.412 39.3003C104.261 39.0366 104.073 38.8105 103.809 38.6598C105.994 37.6801 107.389 35.9844 107.916 33.4975H104.035V32.7063H108.067C108.142 32.0657 108.218 31.086 108.218 29.7295V29.6919H109.047C109.047 30.973 108.971 31.9527 108.896 32.7063H113.267V33.4975H113.304Z" fill="#1F1E1D"/>
<path d="M2.44921 50.5668V53.2044C2.93905 53.958 3.80569 54.3348 5.1245 54.4101C6.74475 54.4478 8.28963 54.4478 9.75916 54.3348C9.83452 54.3348 9.8722 54.3348 9.94756 54.3348C9.83452 54.5609 9.7215 54.8247 9.68382 55.1261C8.06357 55.1638 6.55636 55.2014 5.16219 55.1638C3.84338 55.0884 2.86369 54.7116 2.26081 54.0333C2.22313 53.9957 2.18544 53.9581 2.18544 53.9204C1.80864 54.2595 1.3188 54.7116 0.678237 55.2768L0.263763 54.4856C0.753606 54.1465 1.24345 53.7319 1.77097 53.2797V51.3204H0.376799V50.6045H2.44921V50.5668ZM2.67528 49.1349L2.14777 49.7001C1.80865 49.2856 1.24343 48.9089 0.527506 48.5321C0.452146 48.4944 0.41448 48.4944 0.376799 48.4568L0.904309 47.9669C1.62023 48.306 2.18545 48.6828 2.63761 49.0596C2.63761 49.0596 2.6376 49.0972 2.67528 49.1349ZM2.97672 47.0249L2.44921 47.5524C2.14777 47.1756 1.62023 46.7611 0.904309 46.3466C0.866628 46.3089 0.828953 46.309 0.791273 46.2713L1.3188 45.7814C2.07241 46.1959 2.6376 46.5727 2.97672 46.9495C2.93904 47.0249 2.93904 47.0249 2.97672 47.0249ZM3.99409 48.6074H5.76506C5.84043 48.2683 5.87811 48.0046 5.91579 47.7031H3.12745V47.0249H4.86073C4.71001 46.6858 4.48394 46.309 4.14482 45.8945L4.74769 45.6307C5.1245 46.0452 5.38827 46.4597 5.53899 46.8365L5.16219 46.9872H7.53604L7.15924 46.8741C7.423 46.4596 7.64907 46.0452 7.87515 45.593L8.66645 45.7814C8.365 46.3089 8.10123 46.7234 7.87515 46.9872H9.75916V47.6654H6.74474C6.70706 47.7785 6.6317 48.0046 6.55634 48.2306C6.51866 48.3814 6.48098 48.4944 6.4433 48.5321H8.89252V53.6189H8.10124V53.2797H4.71002V53.6189H3.95642V48.6074H3.99409ZM8.10124 50.0016V49.2104H4.71002V50.0016H8.10124ZM4.71002 50.5668V51.3957H8.10124V50.5668H4.71002ZM4.71002 52.7523H8.10124V51.9233H4.71002V52.7523Z" fill="#1F1E1D"/>
<path d="M20.6111 52.1492H21.7038V52.8651H12.133V52.1492H13.2257L13.0373 46.4218L13.5649 46.5726C14.1678 46.2711 14.6576 46.0073 14.959 45.7812L15.5619 46.3465C15.1474 46.5725 14.5446 46.8363 13.7533 47.1754L13.7909 48.3058H15.2228V48.9841H13.8663L13.904 50.2652H15.2605V50.9434H13.904L13.9417 52.2246H15.7503V49.7754H16.4286V52.2246H17.4459V49.3232H15.788V45.8566H16.4662V46.9494H18.3126V47.6275H16.4662V48.7203H18.1242V52.2622H19.8575C19.8951 51.9608 19.8951 51.5463 19.9328 50.9811H18.614V50.3029H19.9705C19.9705 50.1522 19.9705 49.9638 20.0082 49.6623C20.0082 49.3609 20.0082 49.1348 20.0459 48.9841H18.6517V48.3058H20.0459C20.0459 47.7406 20.0835 47.3261 20.0835 47.0623H18.5763V46.3842H20.8371C20.7618 48.3812 20.7241 50.3028 20.6111 52.1492ZM15.1851 53.0912L15.901 53.5434C15.1098 54.184 14.1678 54.7491 12.9997 55.2766C12.9243 55.3143 12.8866 55.352 12.8113 55.352C12.6229 55.1259 12.3968 54.9375 12.2084 54.7868C13.1881 54.3723 14.017 53.9202 14.7706 53.3926C14.959 53.2796 15.0721 53.1665 15.1851 53.0912ZM17.8981 53.581L18.4633 53.0535C19.6691 53.6188 20.7241 54.2216 21.6284 54.8245L20.9125 55.352C20.1212 54.7491 19.1039 54.1839 17.8981 53.581Z" fill="#1F1E1D"/>
<path d="M24.6805 54.7869L23.9646 54.4101C24.4168 53.8449 24.7936 53.016 25.1327 51.8856L25.8109 52.1493C25.4341 53.3928 25.0573 54.2594 24.6805 54.7869ZM32.3296 46.1582V50.9059H24.982V46.1582H32.3296ZM25.7356 46.8365V48.1553H28.2978V46.8365H25.7356ZM25.7356 48.8335V50.19H28.2978V48.8335H25.7356ZM27.9587 54.3725H29.9558C30.2195 54.3725 30.3702 54.2971 30.4456 54.1464C30.521 53.9957 30.5586 53.6189 30.5963 53.016C30.7847 53.129 31.0108 53.2421 31.3122 53.3174C31.2746 54.1087 31.1238 54.6363 30.8978 54.8247C30.7094 55.0131 30.4079 55.0884 29.9934 55.0884H27.8834C27.2051 55.0884 26.7906 54.9753 26.6399 54.7869C26.5269 54.6362 26.4515 54.3725 26.4515 54.0333V51.9233H27.2428V53.9957C27.2428 54.1841 27.3181 54.2595 27.4312 54.2972C27.5442 54.3725 27.7326 54.3725 27.9587 54.3725ZM30.1818 52.5638L29.6543 53.0913C29.2398 52.6392 28.5616 52.1871 27.6949 51.6596C27.6196 51.6219 27.5442 51.5842 27.4689 51.5465L27.9964 51.0566C28.75 51.4334 29.4282 51.8479 29.9934 52.3754C30.0688 52.4508 30.1442 52.5262 30.1818 52.5638ZM31.576 48.1929V46.8741H29.0891V48.1929H31.576ZM31.576 50.19V48.8335H29.0891V50.19H31.576ZM31.2369 52.074L31.9151 51.8102C32.5557 52.6769 33.0455 53.4682 33.347 54.1841C33.3847 54.2595 33.3847 54.2971 33.4223 54.3725L32.6687 54.7116C32.4803 54.0333 32.0658 53.2421 31.3876 52.3001C31.3499 52.1871 31.3122 52.1493 31.2369 52.074Z" fill="#1F1E1D"/>
<path d="M37.8686 49.6625L37.4164 50.303C37.0773 49.9639 36.4744 49.5871 35.7208 49.2103C35.6831 49.2103 35.6831 49.1726 35.6455 49.1726L36.0976 48.6074C36.9266 48.9842 37.4918 49.3233 37.8686 49.6625ZM37.4541 51.3581L38.0947 51.7725C37.6425 52.9029 37.115 54.0333 36.5875 55.1637L35.8716 54.7116C36.4368 53.6565 37.0019 52.5638 37.4541 51.3581ZM38.3584 46.9495L37.9063 47.5523C37.5672 47.1755 37.002 46.7987 36.286 46.4219C36.2483 46.3842 36.2107 46.3843 36.173 46.3843L36.6252 45.8191C37.4164 46.1959 38.0193 46.5727 38.3584 46.9495ZM44.8017 51.6971H42.8047V54.5232C42.8047 54.8623 42.7293 55.0883 42.5409 55.1637C42.5033 55.2014 42.4656 55.2014 42.4279 55.2014C42.2018 55.2768 41.7497 55.3145 40.9961 55.3145C40.9584 55.0884 40.883 54.8623 40.77 54.6362C40.9584 54.6362 41.3352 54.6362 41.8627 54.6362C41.9757 54.5985 42.0511 54.5609 42.0511 54.4855V51.6595H40.1671V48.0422H41.8627C41.9757 47.5523 42.0511 47.1755 42.0888 46.9118H39.5642V49.0595C39.5642 51.8479 39.0744 53.9203 38.17 55.2768C37.9816 55.126 37.7556 54.9754 37.4918 54.8623C38.3208 53.7319 38.7352 51.9986 38.7729 49.7378C38.7729 49.5494 38.7729 49.3233 38.7729 49.0973V46.2335H45.1786V46.9495H42.8801H42.9554C42.9554 46.9872 42.8424 47.364 42.6163 48.0799H44.8017V51.6971ZM40.5439 52.2624L41.2598 52.4131C40.883 53.3551 40.4308 54.1087 39.9033 54.6739C39.6396 54.4855 39.4135 54.3348 39.3004 54.2594C39.7903 53.7696 40.2048 53.0913 40.5439 52.2624ZM40.8453 48.6451V49.5494H44.0481V48.6451H40.8453ZM40.8453 50.1523V51.0943H44.0481V50.1523H40.8453ZM43.4829 52.4508L44.1612 52.187C44.7641 52.9783 45.1786 53.6565 45.4046 54.2217V54.2594L44.7264 54.5985C44.5003 53.9956 44.1235 53.3174 43.5583 52.5261C43.5206 52.4884 43.5206 52.4884 43.4829 52.4508Z" fill="#1F1E1D"/>
<path d="M56.1058 46.7234L56.5957 46.9495C56.2565 47.9669 55.7667 48.9089 55.0508 49.7378C55.8044 50.4537 56.5957 50.9813 57.4623 51.2827C57.2739 51.4711 57.1232 51.6595 56.9725 51.9233C56.9348 51.8856 56.8594 51.8856 56.7841 51.8479C56.7087 51.8103 56.671 51.8102 56.6333 51.7725V55.2392H55.8797V54.9H53.2421V55.2768H52.5262V51.7725C52.4508 51.8102 52.2248 51.9233 51.8856 52.074C51.8103 51.9233 51.6972 51.7349 51.5088 51.5465H50.3784V53.4305C50.6799 53.3551 51.132 53.242 51.7726 53.0913L51.8479 53.8073C51.5088 53.8827 50.9813 54.0334 50.2654 54.1841C49.0973 54.4855 48.2683 54.6739 47.7785 54.7869L47.6278 54.0333L48.1553 53.9204V50.303H48.8335V53.7696L49.6625 53.5812V49.361H48.193V46.1582H51.6219V48.9465C52.4508 48.1552 53.0914 47.1002 53.5059 45.8191C53.5059 45.7814 53.5436 45.7437 53.5436 45.7061L54.2972 45.8945C54.2595 46.0452 54.1465 46.3466 53.9581 46.7987H55.9928L56.1058 46.7234ZM48.9089 46.7987V48.6451H50.8683V46.7987H48.9089ZM51.6972 50.8682V51.3581C52.6016 50.9813 53.3928 50.416 54.0711 49.7001C53.732 49.2856 53.3928 48.7959 53.0914 48.2683C52.79 48.7205 52.4885 49.135 52.1494 49.4741C51.961 49.2857 51.7726 49.135 51.6219 49.0219V49.3233H50.4161V50.8305H51.6972V50.8682ZM52.9784 51.5088H56.1058C55.5783 51.2073 55.0885 50.7928 54.5609 50.2653C54.1088 50.7551 53.5812 51.1696 52.9784 51.5088ZM53.2421 54.2217H55.8797V52.187H53.2421V54.2217ZM55.616 47.4393H53.5813L53.4682 47.6277C53.7696 48.2306 54.1465 48.7582 54.5233 49.2103C54.9754 48.6828 55.3522 48.0799 55.616 47.4393Z" fill="#1F1E1D"/>
<path d="M60.1753 46.761H68.0128V54.9752H67.1838V54.1463H60.9666V55.0506H60.1753V46.761ZM60.9666 53.355H67.1838V47.5522H60.9666V53.355Z" fill="#1F1E1D"/>
<path d="M74.8329 50.9058H74.0416V49.5493H75.4358V50.642C75.4358 51.3956 75.1343 51.9232 74.5314 52.3C74.4184 52.3754 74.343 52.413 74.343 52.413L74.0793 51.9985C74.5691 51.7348 74.8329 51.3957 74.8329 50.9058Z" fill="#1F1E1D"/>
<path d="M89.7919 49.5117H85.8355C86.5137 51.5841 87.5311 53.0913 88.963 54.0333C89.3021 54.2594 89.6412 54.4102 89.9803 54.5609C89.7542 54.787 89.5282 55.0507 89.3774 55.3145C87.4934 54.4102 86.0616 52.6768 85.1573 50.0769C84.5167 52.5638 83.1225 54.2971 80.9371 55.3145C80.7864 55.0507 80.598 54.8247 80.3342 54.674C82.5197 53.6943 83.9138 51.9986 84.4413 49.5117H80.5603V48.7205H84.5921C84.6674 48.0799 84.7428 47.1002 84.7428 45.7437V45.7061H85.5717C85.5717 46.9872 85.4964 47.9669 85.421 48.7205H89.7919V49.5117Z" fill="#1F1E1D"/>
<path d="M94.5773 50.5668V53.2044C95.0671 53.958 95.9338 54.3348 97.2526 54.4101C98.8729 54.4478 100.418 54.4478 101.887 54.3348C101.963 54.3348 102 54.3348 102.076 54.3348C101.963 54.5609 101.85 54.8247 101.812 55.1261C100.192 55.1638 98.6845 55.2014 97.2903 55.1638C95.9715 55.0884 94.9918 54.7116 94.3889 54.0333C94.3512 53.9957 94.3136 53.9581 94.3136 53.9204C93.9368 54.2595 93.4469 54.7116 92.8063 55.2768L92.3919 54.4856C92.8817 54.1465 93.3716 53.7319 93.8991 53.2797V51.3204H92.5049V50.6045H94.5773V50.5668ZM94.7657 49.1349L94.2382 49.7001C93.8991 49.2856 93.3339 48.9089 92.6179 48.5321C92.5426 48.4944 92.5049 48.4944 92.4672 48.4568L92.9948 47.9669C93.7107 48.306 94.2759 48.6828 94.728 49.0596C94.728 49.0596 94.7657 49.0972 94.7657 49.1349ZM95.0672 47.0249L94.5396 47.5524C94.2382 47.1756 93.7107 46.7611 92.9948 46.3466C92.9571 46.3089 92.9194 46.309 92.8817 46.2713L93.4092 45.7814C94.1628 46.1959 94.728 46.5727 95.0672 46.9495C95.0295 47.0249 95.0295 47.0249 95.0672 47.0249ZM96.0845 48.6074H97.8555C97.9309 48.2683 97.9686 48.0046 98.0062 47.7031H95.2179V47.0249H96.9512C96.8005 46.6858 96.5744 46.309 96.2352 45.8945L96.8381 45.6307C97.2149 46.0452 97.4787 46.4597 97.6294 46.8365L97.2526 46.9872H99.6265L99.2497 46.8741C99.5134 46.4596 99.7395 46.0452 99.9656 45.593L100.757 45.7814C100.455 46.3089 100.192 46.7234 99.9656 46.9872H101.85V47.6654H98.8352C98.7975 47.7785 98.7221 48.0046 98.6468 48.2306C98.6091 48.3814 98.5714 48.4944 98.5337 48.5321H100.983V53.6189H100.192V53.2797H96.8004V53.6189H96.0468V48.6074H96.0845ZM100.192 50.0016V49.2104H96.8004V50.0016H100.192ZM96.8004 50.5668V51.3957H100.192V50.5668H96.8004ZM96.8004 52.7523H100.192V51.9233H96.8004V52.7523Z" fill="#1F1E1D"/>
<path d="M113.455 47.1003H109.235V48.4191H113.116V54.4102C113.116 54.7493 113.041 55.0131 112.852 55.1262C112.815 55.1639 112.777 55.1638 112.739 55.2015C112.475 55.2769 111.948 55.3522 111.157 55.3522C111.119 55.1261 111.006 54.9001 110.893 54.6363C111.496 54.674 111.91 54.674 112.174 54.6363C112.287 54.5986 112.362 54.5233 112.362 54.4479V49.1727H109.235V55.3146H108.481V49.1727H105.505V55.3522H104.751V48.4568H108.444V47.138H104.374V46.3467H113.417V47.1003H113.455ZM106.22 49.9263H107.464C107.464 51.0944 107.615 51.9987 107.954 52.6393C108.104 52.903 108.255 53.1668 108.444 53.4306C108.293 53.5059 108.142 53.6189 108.029 53.7697C107.615 53.2421 107.313 52.6016 107.162 51.8857C106.899 52.7146 106.56 53.3552 106.107 53.8074C105.994 53.6943 105.844 53.5812 105.655 53.4682C106.296 52.8653 106.71 51.848 106.899 50.4915H106.22V49.9263ZM109.875 49.9263H111.157C111.157 51.0567 111.307 51.9233 111.609 52.5262C111.759 52.8276 111.986 53.1291 112.212 53.3929C112.023 53.4682 111.873 53.5813 111.722 53.732C111.27 53.2045 110.931 52.5639 110.78 51.8103C110.516 52.6016 110.177 53.2422 109.762 53.6943C109.649 53.5813 109.499 53.4683 109.31 53.3552C109.951 52.7524 110.328 51.7726 110.516 50.4915H109.838V49.9263H109.875Z" fill="#1F1E1D"/>
<path d="M2.29848 61.7578L3.01442 61.9462C2.75066 62.6998 2.48689 63.3781 2.18545 63.981V71.2909H1.43184V65.3751C1.09272 65.9404 0.753595 66.4302 0.414473 66.807C0.301432 66.5056 0.150721 66.2418 0 66.0157C0.828965 65.0737 1.50719 63.8302 2.03472 62.323C2.14776 62.1346 2.22312 61.9462 2.29848 61.7578ZM3.88106 69.0301L4.5593 69.3316C4.14481 70.1229 3.69265 70.7258 3.16512 71.2533C3.16512 71.2533 3.16513 71.2532 3.12745 71.2909C3.01441 71.1779 2.82601 71.0649 2.56225 70.8388C3.01441 70.4243 3.3912 69.8968 3.73033 69.2562C3.80569 69.1809 3.84338 69.1055 3.88106 69.0301ZM6.2926 62.323V68.8041H3.24049V62.323H6.2926ZM5.57667 64.2825V62.9637H3.91873V64.2825H5.57667ZM5.57667 66.2041V64.8853H3.91873V66.2041H5.57667ZM5.57667 68.1634V66.8446H3.91873V68.1634H5.57667ZM5.08683 69.3316L5.65203 69.0301C6.14187 69.746 6.44332 70.3112 6.59404 70.7257L5.99114 71.1025C5.84042 70.575 5.53899 70.0098 5.08683 69.3316ZM7.79981 62.7753V68.9548H7.12155V62.7753H7.79981ZM8.89252 61.8332H9.60845V70.3866C9.60845 70.8011 9.4954 71.0648 9.26932 71.1779H9.23165C9.00557 71.2909 8.51572 71.3286 7.76211 71.3286C7.72443 71.0649 7.64908 70.8388 7.53604 70.575C7.72444 70.575 8.10124 70.575 8.70412 70.575C8.85484 70.575 8.93021 70.4997 8.93021 70.3866V61.8332H8.89252Z" fill="#1F1E1D"/>
<path d="M12.1707 66.0156H21.7415V66.8823H12.1707V66.0156Z" fill="#1F1E1D"/>
<path d="M26.0747 66.5809V69.2563C26.5645 70.0099 27.4689 70.3866 28.7877 70.4243C30.2572 70.462 31.7644 70.462 33.347 70.3867C33.46 70.3867 33.5731 70.3866 33.6484 70.3489C33.5354 70.575 33.4223 70.8011 33.3846 71.1025C31.6514 71.1779 30.1441 71.1779 28.7877 71.1403C27.4689 71.1026 26.4892 70.7257 25.8863 70.0475C25.8486 70.0098 25.8109 69.9345 25.7732 69.8968C25.3588 70.3113 24.8689 70.7635 24.3414 71.2533L23.9269 70.4997C24.3037 70.236 24.7559 69.8214 25.3588 69.2939V67.2969H24.04V66.5809H26.0747ZM26.3008 65.1491L25.7732 65.6766C25.4341 65.2998 24.9066 64.8853 24.1907 64.5085C24.153 64.4708 24.1153 64.4709 24.04 64.4332L24.5298 63.9433C25.208 64.2448 25.7356 64.6216 26.15 64.9984C26.2254 65.0737 26.2631 65.1114 26.3008 65.1491ZM26.6022 63.0766L26.0747 63.6042C25.7733 63.2274 25.2834 62.8506 24.6052 62.4361C24.5298 62.3984 24.4921 62.3607 24.4168 62.323L24.9443 61.8333C25.6225 62.1724 26.15 62.5492 26.5268 62.9637C26.5268 63.0014 26.5645 63.039 26.6022 63.0766ZM31.6137 68.8417H29.1645C28.7877 69.4069 28.1094 69.8214 27.1297 70.0852C27.0167 69.8591 26.9037 69.7084 26.7529 69.5577C27.7326 69.3316 28.3355 68.9548 28.637 68.4649C28.7123 68.3142 28.7877 68.1635 28.8254 67.9751H26.6776V67.4853H29.579V66.8447H30.2949V67.4853H33.46V67.9751H29.5036C29.4659 68.0504 29.4282 68.2012 29.3906 68.3896H32.3673C32.3673 68.3896 32.3673 68.5026 32.3296 68.6533C32.1789 69.3693 32.0282 69.7837 31.8021 69.9721C31.6514 70.0852 31.463 70.1229 31.1992 70.1605C30.8978 70.1605 30.4833 70.1606 29.9934 70.1229C29.9934 69.9345 29.9181 69.7838 29.8427 69.6331C30.2195 69.6707 30.5963 69.7084 30.9731 69.7084C31.1239 69.7084 31.2369 69.6707 31.3122 69.6331C31.4253 69.4823 31.5006 69.2562 31.6137 68.8417ZM27.4312 66.0534V66.6563H26.7529V65.6013H29.579V65.1868H27.5065V62.2477H29.4282C29.5413 61.9839 29.6166 61.7956 29.6166 61.7202L30.4456 61.8333C30.3702 61.9463 30.2949 62.0593 30.1818 62.2477H32.5557V65.1868H30.2949V65.6013H33.347V66.6563H32.631V66.0534H30.8601V66.4302C30.8601 66.5433 30.8978 66.581 30.9354 66.6186C30.9731 66.6186 31.0108 66.6186 31.0862 66.6186H31.8021C31.9151 66.6186 31.9528 66.5809 31.9905 66.4679C31.9905 66.4302 32.0282 66.3172 32.0282 66.2041C32.1412 66.2795 32.2919 66.3172 32.518 66.3925C32.4803 66.7316 32.3673 66.9577 32.1412 67.0331C32.0658 67.0707 31.9905 67.0708 31.8774 67.0708H30.9731C30.5963 67.0708 30.3702 66.9954 30.2949 66.8824C30.2572 66.7693 30.2195 66.6563 30.2195 66.4302V66.0534H29.3152C29.1645 66.5433 28.8254 66.8824 28.3355 67.1085C28.0718 67.2215 27.6949 67.3345 27.2805 67.4099C27.2051 67.2591 27.0921 67.1084 26.9413 66.9577C27.808 66.8447 28.3355 66.6186 28.5993 66.3172C28.6369 66.2418 28.7123 66.1665 28.75 66.0534H27.4312ZM28.2601 62.6245V63.039H31.8021V62.6245H28.2601ZM28.2601 63.4534V63.9057H31.8021V63.4534H28.2601ZM28.2601 64.2825V64.7346H31.8021V64.2825H28.2601Z" fill="#1F1E1D"/>
<path d="M41.1091 68.8793V70.3112C41.4859 70.3489 41.9004 70.3865 42.3525 70.3865C44.0481 70.3865 45.1032 70.3865 45.48 70.3865C45.3293 70.6126 45.2539 70.8764 45.2162 71.1401H42.3525C40.9584 71.1401 39.9033 70.9517 39.2251 70.5749C38.7352 70.3112 38.3584 69.8967 38.057 69.4068C37.6425 70.2358 37.0773 70.8764 36.3991 71.4039C36.2483 71.2155 36.0599 71.0271 35.8339 70.8387C36.8889 70.1228 37.6048 68.9923 37.8686 67.4098L38.6599 67.5228C38.5845 67.8243 38.5092 68.2011 38.3961 68.5779C38.7729 69.4068 39.3758 69.972 40.2801 70.2358C40.3178 70.2358 40.3555 70.2735 40.3932 70.2735V67.1084H36.06V66.3924H45.3293V67.1084H41.1468V68.2764H44.6133V68.9547H41.1091V68.8793ZM44.1235 62.1345V65.6012H37.115V62.1345H44.1235ZM43.3322 63.6041V62.7374H37.8686V63.6041H43.3322ZM43.3322 64.9983V64.1693H37.8686V64.9983H43.3322Z" fill="#1F1E1D"/>
<path d="M52.2625 69.2185L51.8103 69.7837C51.5842 69.52 51.1697 69.1432 50.6045 68.6157V71.2909H49.8509V68.5026C49.2857 69.3693 48.7205 70.0475 48.0799 70.5373C47.9292 70.3112 47.7408 70.1228 47.5524 69.9721C48.193 69.5576 48.7582 68.9548 49.3234 68.1258C49.4364 67.9374 49.5495 67.749 49.6625 67.5982H47.7785V66.9201H49.8509V65.7897H47.7408V65.1114H52.6393V65.7897H50.6045V66.9201H52.5639V67.5982H50.6045V67.8621C51.1697 68.2766 51.6972 68.7287 52.2248 69.1809C52.2248 69.2186 52.2248 69.2185 52.2625 69.2185ZM52.4885 62.8129V63.4911H47.8915V62.8129H49.8132V61.7578H50.5668V62.8129H52.4885ZM49.5871 64.9983L48.9466 65.1867C48.9089 64.7346 48.7582 64.2071 48.5321 63.6795L49.135 63.5289C49.3611 64.0187 49.5118 64.5085 49.5871 64.9983ZM51.2828 65.149L50.6422 64.9983C50.9059 64.3955 51.0944 63.8679 51.1697 63.4911L51.8857 63.6418C51.6219 64.3954 51.4335 64.8853 51.2828 65.149ZM57.2739 65.2245V65.9781H56.1058V71.2909H55.3522V65.9781H53.7697V66.2418C53.7697 68.3896 53.3175 70.0098 52.3755 71.1025C52.3001 71.2156 52.1871 71.2909 52.1117 71.404C51.9987 71.2533 51.848 71.0648 51.6219 70.9141C51.5842 70.8764 51.5842 70.8765 51.5465 70.8765C52.4508 70.0099 52.9407 68.691 53.0161 66.9954C53.0161 66.7693 53.0537 66.5432 53.0537 66.2794V62.6245L53.6189 62.8129C54.9377 62.5114 55.9174 62.21 56.558 61.9086L57.1986 62.5114C56.4826 62.8505 55.3522 63.152 53.8073 63.4534V65.3374H57.2739V65.2245Z" fill="#1F1E1D"/>
<path d="M62.5868 63.8303V65.5636C62.5868 65.7143 62.5868 65.8273 62.5868 65.9404H64.5462V66.694H62.5114C62.5114 66.8447 62.4738 67.1084 62.3984 67.4099C62.7375 67.749 63.4535 68.5403 64.5085 69.7084L63.981 70.3867C63.5665 69.8215 63.0013 69.1056 62.2477 68.2389C61.8332 69.5577 61.1173 70.6127 60.0622 71.3663C59.9492 71.1779 59.7608 70.9895 59.5724 70.8011L59.5347 70.7635C60.8535 69.8215 61.6071 68.465 61.7578 66.7317H59.6478V65.9781H61.8332V63.868H60.9666C60.6651 64.6216 60.3637 65.1491 60.0999 65.5259C59.9869 65.4128 59.7608 65.2621 59.4594 65.0737C60.0246 64.3201 60.4767 63.1897 60.7782 61.7202L61.5318 61.8709C61.4564 62.21 61.3434 62.6246 61.1926 63.1521H64.207V63.868H62.5868V63.8303ZM64.8853 62.6245H68.6533V70.9519H67.862V70.2359H65.6389V71.0649H64.8853V62.6245ZM65.6389 69.4823H67.862V63.3781H65.6389V69.4823Z" fill="#1F1E1D"/>
<path d="M71.6678 62.1724H80.4095V71.3287H79.6183V70.8765H72.3837V71.3287H71.6301V62.1724H71.6678ZM72.4214 70.1983H79.6559V62.8883H72.4214V70.1983ZM78.5255 67.3723L79.0154 67.6737C78.6763 67.9752 78.2241 68.2766 77.6966 68.578C78.2241 68.8794 78.7893 69.1055 79.3545 69.2563C79.2038 69.3693 79.0531 69.5577 78.94 69.7837C77.9604 69.4823 77.0937 68.9925 76.3778 68.3143C76.3401 68.2766 76.2647 68.2012 76.2271 68.1635V69.8968H75.5111V68.3143C74.7952 68.8041 74.0416 69.2186 73.175 69.52C73.0619 69.3693 72.9112 69.1809 72.7228 68.9925C73.8532 68.6157 74.7952 68.1635 75.5111 67.5983H73.5894V65.8273H78.4879V67.3723H78.5255ZM79.1284 64.81V65.2998H72.9489V64.81H75.6619V64.1317H73.5518V63.6419H75.6619V63.039H76.3778V63.6419H78.6009V64.1317H76.3778V64.81H79.1284ZM74.2677 66.2795V67.1085H77.8096V66.2795H74.2677ZM78.2618 67.5983H76.4531C76.6792 67.862 76.943 68.0882 77.2821 68.3143C77.6966 68.0505 77.998 67.7867 78.2618 67.5983Z" fill="#1F1E1D"/>
<path d="M92.5049 70.1229V70.8388H84.2529V71.3287H83.4617V62.1724H92.2035V62.8883H84.2153V70.1229H92.5049ZM85.1573 69.3316V66.6186H87.9079V69.3316H85.1573ZM85.7978 67.1838V68.7664H87.192V67.1838H85.7978ZM90.2064 63.5665V65.9027H86.2876V63.5665H90.2064ZM89.4528 65.3375V64.1317H87.0413V65.3375H89.4528ZM91.4499 66.6186V69.3316H88.6238V66.6186H91.4499ZM90.7339 68.7664V67.1838H89.2644V68.7664H90.7339Z" fill="#1F1E1D"/>
<path d="M97.441 65.1113C98.2323 65.7519 98.9859 66.5055 99.7018 67.3344C99.7395 67.3721 99.7772 67.4098 99.7772 67.4475L99.0613 68.0504C98.3076 67.1461 97.5164 66.3547 96.7251 65.7142L97.441 65.1113Z" fill="#1F1E1D"/>
<path d="M108.632 69.2185L108.18 69.7837C107.954 69.52 107.539 69.1432 106.974 68.6157V71.2909H106.22V68.5026C105.655 69.3693 105.09 70.0475 104.45 70.5373C104.299 70.3112 104.11 70.1228 103.922 69.9721C104.563 69.5576 105.128 68.9548 105.693 68.1258C105.806 67.9374 105.919 67.749 106.032 67.5982H104.148V66.9201H106.22V65.7897H104.11V65.1114H109.009V65.7897H106.974V66.9201H108.933V67.5982H106.974V67.8621C107.539 68.2766 108.067 68.7287 108.594 69.1809C108.594 69.2186 108.594 69.2185 108.632 69.2185ZM108.858 62.8129V63.4911H104.261V62.8129H106.183V61.7578H106.936V62.8129H108.858ZM105.957 64.9983L105.316 65.1867C105.278 64.7346 105.128 64.2071 104.902 63.6795L105.505 63.5289C105.731 64.0187 105.881 64.5085 105.957 64.9983ZM107.652 65.149L107.012 64.9983C107.276 64.3955 107.464 63.8679 107.539 63.4911L108.255 63.6418C107.991 64.3954 107.803 64.8853 107.652 65.149ZM113.644 65.2245V65.9781H112.475V71.2909H111.722V65.9781H110.139V66.2418C110.139 68.3896 109.687 70.0098 108.745 71.1025C108.67 71.2156 108.557 71.2909 108.481 71.404C108.368 71.2533 108.218 71.0648 107.991 70.9141C107.954 70.8764 107.954 70.8765 107.916 70.8765C108.82 70.0099 109.31 68.691 109.386 66.9954C109.386 66.7693 109.423 66.5432 109.423 66.2794V62.6245L109.989 62.8129C111.307 62.5114 112.287 62.21 112.928 61.9086L113.568 62.5114C112.852 62.8505 111.722 63.152 110.177 63.4534V65.3374H113.644V65.2245Z" fill="#1F1E1D"/>
<path d="M3.20281 80.3717V77.8848H3.99408V87.2295H3.20281V84.8556C2.37384 85.2324 1.4695 85.6092 0.527498 85.986L0.150696 85.1948C0.527498 85.0817 1.54486 84.7049 3.16511 84.0644V81.1253H0.452156V80.334H3.20281V80.3717ZM7.12153 86.3628H8.66644C8.89252 86.3628 9.04324 86.2498 9.1186 85.986C9.19396 85.7222 9.26932 85.1193 9.307 84.1773C9.53309 84.3657 9.75917 84.4788 10.0606 84.5541C10.0229 85.6469 9.87221 86.3629 9.68381 86.702C9.49541 87.0034 9.15628 87.1541 8.7418 87.1541H7.04619C6.51867 87.1541 6.14185 87.0411 5.99113 86.7773C5.87809 86.5513 5.80273 86.2121 5.80273 85.7223V77.9601H6.59403V81.4268C7.72443 80.7485 8.59106 80.108 9.19395 79.5428L9.79684 80.2209C9.1186 80.7484 8.06355 81.4267 6.59403 82.2557V85.7223C6.59403 86.0614 6.66939 86.2498 6.78243 86.3252C6.82011 86.3252 6.97081 86.3628 7.12153 86.3628Z" fill="#1F1E1D"/>
<path d="M19.1792 81.1631H21.4023V81.8037H13.4895V82.8587C13.4895 84.8558 13.1127 86.4007 12.3591 87.4558C12.2461 87.305 12.0577 87.1543 11.7939 86.9659C11.7939 86.9659 11.7562 86.9659 11.7562 86.9282C12.3968 85.9862 12.7359 84.6297 12.7359 82.8211V81.1255H13.9417C13.8286 80.8994 13.7156 80.7487 13.6779 80.6733C14.5446 80.5226 15.3358 80.3342 16.1271 80.1081C15.3358 79.882 14.6953 79.6936 14.1677 79.5805L14.6199 79.2037H12.6229V78.5632H16.3155V77.6965H17.1068V78.5632H20.9502V79.2037H19.1415L19.3299 79.3168C18.9908 79.5429 18.501 79.8067 17.8604 80.1081C18.4256 80.2965 19.0285 80.5225 19.6691 80.7863L19.1792 81.1631ZM17.9358 85.1949V86.476H21.2893V87.1543H13.8663V86.476H17.1822V85.1949H14.8083V84.592H17.1822V83.537H15.1851C14.9214 83.9514 14.6576 84.2529 14.4315 84.5167C14.2431 84.366 14.0547 84.2152 13.8286 84.1022C14.3938 83.537 14.846 82.8587 15.1474 82.0298L15.8257 82.1805C15.7503 82.3689 15.6373 82.6327 15.5242 82.8964H17.1822V82.0675H17.9735V82.8964H20.7618V83.537H17.9735V84.592H20.498V85.1949H17.9358ZM14.3185 81.1631H18.9155C18.3503 80.937 17.7097 80.6733 16.9938 80.4095C16.0894 80.7486 15.1851 80.9747 14.3185 81.1631ZM18.3503 79.2415H14.846C15.3358 79.3545 16.0518 79.5805 16.9938 79.8443C17.5213 79.6936 17.9735 79.4675 18.3503 79.2415Z" fill="#1F1E1D"/>
<path d="M32.8948 84.8558H29.3906C30.2195 85.534 31.2746 86.0239 32.5934 86.363C32.7818 86.4007 32.9702 86.4761 33.1586 86.5138C32.9325 86.7398 32.7441 86.9659 32.631 87.2296C31.3499 86.8528 30.2195 86.2876 29.2022 85.534C29.0138 85.3833 28.8254 85.2326 28.637 85.0442V87.3427H27.8457V85.0819C27.0167 85.8355 25.8863 86.4761 24.4921 86.9659C24.3037 87.0413 24.0776 87.1166 23.8892 87.1543C23.7762 86.9282 23.5878 86.7021 23.3994 86.476C24.6052 86.2123 25.6979 85.7601 26.6776 85.1195C26.8283 85.0065 26.979 84.8935 27.1297 84.8181H23.7008V84.1399H27.8457V83.3486H24.6805V82.7457H27.8457V81.9921H24.153V81.3515H26.4515C26.3761 81.0501 26.1877 80.6733 25.924 80.2965L26.3008 80.2211H23.7385V79.5429H25.4341C25.2834 79.1661 25.0197 78.6386 24.6052 78.0357L25.2834 77.8096C25.6979 78.3748 25.9993 78.8647 26.1877 79.3545L25.6602 79.5429H26.9413V77.6965H27.6573V79.5429H28.9007V77.6965H29.6543V79.5429H30.9354L30.5586 79.4299C30.8601 78.94 31.1239 78.4125 31.3499 77.8096L32.1412 78.0357C31.7267 78.7516 31.4253 79.2415 31.1992 79.5429H32.8195V80.2211H30.7094C30.521 80.5602 30.3326 80.937 30.0311 81.3515H32.4426V81.9921H28.637V82.7457H31.9528V83.3486H28.637V84.1399H32.8571V84.8558H32.8948ZM29.8804 80.2588H26.7906C27.0544 80.5979 27.2051 80.9747 27.3181 81.3139L26.979 81.3892H29.4659L29.3529 81.3515C29.5789 80.8993 29.7674 80.5602 29.8804 80.2588Z" fill="#1F1E1D"/>
<path d="M35.4194 78.1863H44.1612V87.3426H43.3699V86.8904H36.1353V87.3426H35.3817V78.1863H35.4194ZM36.173 86.2122H43.4076V78.9022H36.173V86.2122ZM42.2772 83.4238L42.767 83.7253C42.4279 84.0267 41.9757 84.3282 41.4482 84.6296C41.9757 84.9311 42.5409 85.1571 43.1061 85.3078C42.9554 85.4208 42.8047 85.6093 42.6917 85.8354C41.712 85.5339 40.8453 85.044 40.1294 84.3658C40.0917 84.3281 40.0164 84.2528 39.9787 84.2151V85.9484H39.2628V84.3658C38.5469 84.8556 37.7932 85.2702 36.9266 85.5716C36.8136 85.4209 36.6628 85.2325 36.4744 85.0441C37.6048 84.6673 38.5469 84.2151 39.2628 83.6499H37.3411V81.879H42.2395V83.4238H42.2772ZM42.8801 80.8239V81.3138H36.7005V80.8239H39.4135V80.1456H37.3034V79.6558H39.4135V79.0529H40.1294V79.6558H42.3525V80.1456H40.1294V80.8239H42.8801ZM38.0193 82.2934V83.1224H41.5613V82.2934H38.0193ZM42.0134 83.6122H40.2048C40.4309 83.876 40.6946 84.1021 41.0337 84.3282C41.4105 84.0644 41.7497 83.8006 42.0134 83.6122Z" fill="#1F1E1D"/>
<path d="M56.0681 86.137V86.8528H47.8162V87.3427H47.0249V78.1487H55.7667V78.8647H47.7785V86.0992H56.0681V86.137ZM48.7205 85.3456V82.6327H51.4711V85.3456H48.7205ZM49.3987 83.1979V84.7804H50.7929V83.1979H49.3987ZM53.7697 79.5805V81.9167H49.8509V79.5805H53.7697ZM53.016 81.3515V80.1458H50.6045V81.3515H53.016ZM55.0131 82.6327V85.3456H52.1871V82.6327H55.0131ZM54.3349 84.7804V83.1979H52.8653V84.7804H54.3349Z" fill="#1F1E1D"/>
<path d="M60.9289 78.9398V80.8238H62.7752V81.5397H60.9289V81.8036C61.3811 82.2557 61.9462 82.9339 62.6622 83.8383C62.6622 83.8383 62.6998 83.8383 62.6998 83.876L62.21 84.5165C61.9839 84.1397 61.5318 83.5369 60.9289 82.7456V87.3425H60.1376V82.7079C59.5724 84.0643 58.9318 85.1194 58.2536 85.8353C58.1782 85.6092 58.0275 85.3831 57.8391 85.1193C58.4797 84.4788 59.0826 83.5745 59.6101 82.4064C59.7608 82.1049 59.8738 81.8412 59.9492 81.5774H58.1029V80.8616H60.1753V79.1282C59.4217 79.2413 58.8565 79.3166 58.442 79.392C58.4043 79.1282 58.329 78.9398 58.2159 78.7514C59.9869 78.5253 61.3057 78.2239 62.1723 77.8848L62.6998 78.4877C62.1723 78.6384 61.5695 78.7891 60.9289 78.9398ZM63.1143 78.7137H67.0331V86.815H66.2418V86.0237H63.8679V86.8904H63.1143V78.7137ZM63.9056 85.2701H66.2795V79.4673H63.9056V85.2701Z" fill="#1F1E1D"/>
<path d="M69.5576 78.9022V78.2241H75.3604V78.9022H69.5576ZM69.8214 87.3427V82.8587H75.172V87.1919H74.4184V86.7397H70.5373V87.3427H69.8214ZM70.1982 79.6182H74.7198V82.0674H70.1982V79.6182ZM72.1199 83.4616H70.5373V84.4413H72.1199V83.4616ZM70.575 86.1369H72.1576V85.0818H70.575V86.1369ZM74.0039 81.4645V80.2965H70.9518V81.4645H74.0039ZM74.4184 84.4413V83.4616H72.8358V84.4413H74.4184ZM72.8735 86.1369H74.4561V85.0818H72.8735V86.1369ZM76.7169 79.0153V84.8181H76.001V79.0153H76.7169ZM77.8473 77.9226H78.6009V86.3253C78.6009 86.7398 78.4879 87.0035 78.2618 87.1165C78.2241 87.1542 78.1864 87.1543 78.1487 87.1543C77.8473 87.2673 77.2821 87.3049 76.3778 87.3049C76.3401 87.0789 76.2647 86.8152 76.114 86.5137C76.7169 86.5514 77.2067 86.5514 77.5835 86.5137C77.7342 86.476 77.8473 86.4006 77.8473 86.2876V77.9226Z" fill="#1F1E1D"/>
<path d="M86.5891 78.2617C86.4007 78.7516 86.1369 79.2038 85.9109 79.6183C85.6848 80.0327 85.3833 80.4472 85.0819 80.8617H86.4384V81.5399H84.5167C84.366 81.7283 84.1776 81.8791 84.0269 82.0675C83.8761 82.2559 83.6877 82.4066 83.4993 82.5573H85.9485V87.1166H85.1949V86.6267H82.8211V87.2674H82.1052V83.65C81.9921 83.7631 81.8414 83.8384 81.6907 83.9138C81.54 83.9891 81.3892 84.0645 81.2762 84.1399C81.2385 84.1022 81.2385 84.0645 81.2008 83.9891C81.1632 83.9514 81.1255 83.8761 81.0501 83.8007C81.0124 83.7253 80.9371 83.6877 80.8994 83.6123C80.8617 83.5746 80.824 83.4993 80.7863 83.4616C81.3139 83.1979 81.8037 82.9341 82.2559 82.595C82.708 82.2558 83.1225 81.9168 83.537 81.5023H81.0501V80.824H83.1225V79.5429H81.5023V78.8269H83.1225V77.6965H83.8761V78.8269H85.1949V79.3921C85.3457 79.1661 85.4587 78.94 85.6094 78.7139C85.7225 78.4878 85.8355 78.2241 85.9485 77.998L86.5891 78.2617ZM85.1949 83.2355H82.8211V84.2529H85.1949V83.2355ZM85.1949 86.0239V84.8935H82.8211V86.0239H85.1949ZM84.1399 80.8994C84.2906 80.7109 84.479 80.4849 84.6297 80.2965C84.7805 80.0704 84.9312 79.882 85.0819 79.6559H83.8385V80.9371H84.1399V80.8994ZM90.6209 78.6385C90.5078 78.9023 90.3948 79.1284 90.2818 79.4299C90.1687 79.6936 90.018 79.9574 89.905 80.2588C89.7919 80.5226 89.6412 80.7863 89.4905 81.0878C89.3397 81.3892 89.2267 81.6153 89.1137 81.8414C89.3774 82.1051 89.6035 82.3313 89.7919 82.5573C89.9803 82.7834 90.131 83.0095 90.2064 83.1979C90.3194 83.424 90.3948 83.6123 90.4325 83.8007C90.4702 83.9891 90.5079 84.1775 90.5079 84.3659C90.5079 84.705 90.4702 84.9689 90.3948 85.1949C90.3194 85.421 90.1687 85.6094 89.9803 85.7224C89.7919 85.8355 89.6035 85.9486 89.3775 85.9486C89.1514 85.9862 88.9629 85.9862 88.7369 85.9862C88.6615 85.9862 88.5861 85.9862 88.5108 85.9862C88.4354 85.9862 88.3601 85.9862 88.2847 85.9862C88.2847 85.8731 88.2471 85.7224 88.2094 85.6094C88.1717 85.4587 88.0963 85.3456 88.021 85.2326C88.2471 85.2703 88.4354 85.2703 88.6238 85.2703C88.6615 85.2703 88.7369 85.2703 88.7746 85.2703C88.8123 85.2703 88.8499 85.2703 88.8876 85.2703C89.0006 85.2703 89.076 85.2703 89.1514 85.2326C89.2267 85.2326 89.3021 85.1949 89.3775 85.1572C89.4905 85.0819 89.5658 85.0065 89.6035 84.8558C89.6412 84.7051 89.6789 84.5544 89.6789 84.3283C89.6789 83.9892 89.5659 83.6123 89.3775 83.2355C89.1891 82.8587 88.8122 82.4066 88.247 81.9544C88.4731 81.5023 88.6992 81.0124 88.9253 80.4849C89.1513 79.9574 89.3398 79.5052 89.5282 79.0907H87.5688V87.3803H86.7775V78.3371H89.8673L89.9803 78.2995L90.6209 78.6385Z" fill="#1F1E1D"/>
<path d="M93.673 81.5021L94.4266 81.6528C94.2005 83.5368 93.786 84.931 93.1831 85.7223L92.4672 85.3078C93.1078 84.4788 93.5223 83.2354 93.673 81.5021ZM95.444 80.6355H96.2352V85.9107C96.2352 86.1745 96.3106 86.3628 96.4236 86.4382C96.5367 86.4759 96.6874 86.5136 96.9135 86.5136H98.8352C99.1366 86.5136 99.325 86.4005 99.4004 86.1744C99.5134 85.9107 99.5888 85.3078 99.6264 84.3281C99.8148 84.5165 100.079 84.6296 100.342 84.7049C100.305 85.7977 100.154 86.4759 99.9279 86.815C99.7018 87.1164 99.3627 87.2672 98.8352 87.2672H96.8004C96.1599 87.2672 95.7454 87.1542 95.557 86.8904C95.4063 86.702 95.3686 86.4006 95.3686 85.9484V80.6355H95.444ZM95.5193 78.3746L96.0092 77.7717C97.1019 78.1485 98.1946 78.6384 99.2873 79.3167C99.4004 79.392 99.5134 79.4674 99.6264 79.5051L99.1366 80.1833C98.383 79.6181 97.4033 79.0906 96.2352 78.6008C95.9715 78.5254 95.7454 78.45 95.5193 78.3746ZM99.8148 81.5021L100.493 81.1629C101.247 82.105 101.812 83.16 102.226 84.2904C102.339 84.5542 102.415 84.818 102.452 85.0817L101.699 85.4585C101.51 84.5542 101.058 83.5745 100.418 82.4441C100.229 82.0673 100.003 81.7659 99.8148 81.5021Z" fill="#1F1E1D"/>
<path d="M113.417 79.4297H111.458C111.345 79.6558 111.157 80.0326 110.855 80.5224H113.078V86.3629C113.078 86.7773 112.965 87.0411 112.702 87.1918C112.664 87.1918 112.664 87.2295 112.626 87.2295C112.362 87.3049 111.76 87.3426 110.818 87.3426C110.78 87.0411 110.667 86.8151 110.554 86.589C111.157 86.6267 111.684 86.6267 112.061 86.589C112.212 86.5513 112.287 86.4759 112.287 86.3629V81.2007H110.064V82.2558C110.064 82.3688 110.102 82.4441 110.177 82.4818C110.215 82.4818 110.29 82.4818 110.365 82.4818H111.307C111.42 82.4818 111.533 82.4441 111.533 82.3311C111.571 82.2181 111.571 82.0674 111.609 81.8036C111.722 81.9167 111.91 81.992 112.212 82.0674C112.174 82.5949 112.023 82.8963 111.835 83.0094C111.722 83.0847 111.571 83.0847 111.383 83.0847H110.29C109.838 83.0847 109.574 83.0094 109.461 82.821C109.386 82.7079 109.348 82.5195 109.348 82.2558V81.2007H108.104C108.029 81.9543 107.803 82.5195 107.389 82.8586C107.049 83.1223 106.597 83.3108 105.994 83.4615C105.919 83.2354 105.768 83.0847 105.618 82.934C106.409 82.7833 106.936 82.4818 107.162 82.105C107.276 81.8789 107.389 81.5775 107.426 81.2007H105.542V87.3049H104.826V80.5224H106.899C106.786 80.221 106.635 79.8442 106.409 79.4297H104.412V78.7138H108.481V77.7341H109.273V78.7138H113.455V79.4297H113.417ZM110.931 86.2122H107.652V86.8527H106.974V83.6122H110.968V86.2122H110.931ZM107.728 80.5601H109.989C110.252 80.108 110.441 79.7311 110.554 79.4674H107.238C107.464 79.8442 107.615 80.221 107.728 80.5601ZM110.215 84.2528H107.652V85.6093H110.215V84.2528Z" fill="#1F1E1D"/>
<path d="M3.57962 99.6641L3.61729 100.342C3.46657 100.38 3.24048 100.418 2.97672 100.455C2.67528 100.493 2.4869 100.531 2.33617 100.568C2.22313 101.812 1.73328 102.754 0.866638 103.394C0.715917 103.168 0.5652 103.018 0.376799 102.867C1.09272 102.415 1.5072 101.699 1.62024 100.681C1.43184 100.719 1.01735 100.794 0.41447 100.87L0.263763 100.192C0.602885 100.154 1.05503 100.079 1.65791 100.003V98.609H0.301434V97.9307H3.61729V98.609H2.37385V99.8902L3.57962 99.6641ZM3.50425 95.1424V95.8207H0.376799V95.1424H1.62024V93.7483H2.33617V95.1424H3.50425ZM1.65791 97.667L1.05504 97.8178C1.05504 97.2902 0.941989 96.6874 0.715908 96.1222L1.28111 95.9714C1.50719 96.5366 1.62023 97.1018 1.65791 97.667ZM2.75065 97.8554L2.22312 97.7047C2.41152 97.0641 2.56224 96.4613 2.67528 95.9338L3.31585 96.0467C3.05209 96.9887 2.86369 97.5916 2.75065 97.8554ZM6.2549 96.1598V96.5366C6.21722 99.8524 6.14187 101.774 6.02883 102.377C5.99115 102.603 5.95346 102.792 5.8781 102.867C5.76506 103.055 5.57667 103.206 5.35059 103.244C5.16219 103.281 4.86073 103.281 4.48393 103.244C4.48393 102.98 4.40857 102.754 4.29553 102.565C4.52161 102.603 4.7477 102.603 5.01146 102.603C5.1245 102.603 5.23755 102.528 5.27523 102.452C5.38827 102.226 5.46363 100.907 5.53899 98.4959C5.53899 98.0061 5.57666 97.4787 5.57666 96.8758H4.82306C4.7477 99.2496 4.44625 101.058 3.91873 102.302C3.73032 102.716 3.54193 103.093 3.31585 103.432C3.20281 103.281 3.0144 103.131 2.78832 102.942C3.54192 101.887 3.9941 100.229 4.14482 97.9685C4.1825 97.6293 4.18249 97.2526 4.18249 96.8758H3.50425V96.1598H4.22019C4.22019 95.6323 4.22019 94.841 4.22019 93.7483H4.86073C4.86073 94.5773 4.86074 95.4062 4.82306 96.1598H6.2549ZM9.90989 98.5714H8.47804V100.079H9.75916V100.757H8.47804V103.394H7.76211V100.757H6.51867V100.079H7.76211V98.5714H6.40563V97.8931H9.90989V98.5714ZM9.75916 95.1424V95.8207H6.4433V95.1424H7.72444V93.7483H8.44035V95.1424H9.75916ZM7.72444 97.7047L7.12154 97.8554C7.12154 97.3656 7.00852 96.7627 6.78243 96.0844L7.34764 95.9338C7.57372 96.5743 7.68676 97.1395 7.72444 97.7047ZM8.93021 97.8554L8.40268 97.7047C8.62876 96.9511 8.77949 96.3482 8.85485 95.896L9.53309 96.0467C9.26932 96.9134 9.04325 97.5163 8.93021 97.8554Z" fill="#1F1E1D"/>
<path d="M21.2516 94.2004V103.357H20.4603V102.905H13.2257V103.357H12.4721V94.2004H21.2516ZM20.4603 94.9163H13.2257V102.226H20.4603V94.9163ZM18.2372 97.7047H19.9328V98.2322H18.5387C18.9531 98.7974 19.4807 99.2496 20.0459 99.5134C19.8575 99.6641 19.7067 99.8524 19.6314 100.003C19.0285 99.7017 18.501 99.2119 18.0865 98.609C18.0111 98.496 17.9358 98.3829 17.8604 98.2322H15.8634C15.7126 98.4206 15.5996 98.6091 15.4866 98.7598H18.1995V99.0235C18.1619 99.438 18.1618 99.7394 18.1242 99.9655C18.0865 100.154 18.0488 100.305 17.9735 100.38C17.9358 100.418 17.8604 100.493 17.7851 100.493C17.7097 100.493 17.6343 100.531 17.4836 100.568C17.4459 100.568 17.4083 100.568 17.3329 100.568C17.2575 100.568 17.2199 100.568 17.1445 100.568C17.0691 100.568 16.9938 100.568 16.9184 100.568C16.843 100.568 16.7677 100.568 16.6923 100.568C16.6923 100.493 16.6546 100.418 16.617 100.305C16.5793 100.229 16.5416 100.116 16.5039 100.079C16.6546 100.079 16.7677 100.116 16.9184 100.116C17.0691 100.116 17.1822 100.116 17.3329 100.116C17.4083 100.116 17.4836 100.079 17.5213 100.041C17.559 100.003 17.559 99.9278 17.5967 99.8148C17.5967 99.7017 17.6343 99.5511 17.6343 99.325H15.7126V100.945C15.7126 101.096 15.7503 101.171 15.8257 101.247C15.901 101.284 16.0518 101.322 16.3155 101.322H18.1619C18.2749 101.322 18.3503 101.322 18.3879 101.284C18.4256 101.247 18.501 101.209 18.5387 101.171C18.5763 101.096 18.614 101.021 18.614 100.908C18.614 100.794 18.6517 100.644 18.6517 100.455C18.7271 100.493 18.8024 100.531 18.9155 100.606C19.0285 100.644 19.1039 100.681 19.2169 100.681C19.1792 100.907 19.1792 101.134 19.1415 101.284C19.1039 101.435 19.0662 101.548 18.9908 101.661C18.9154 101.736 18.8401 101.812 18.7271 101.85C18.614 101.887 18.4633 101.887 18.2749 101.887H16.3155C16.0894 101.887 15.9011 101.887 15.7126 101.85C15.5619 101.812 15.4112 101.774 15.3358 101.699C15.2605 101.623 15.1851 101.548 15.1474 101.435C15.1098 101.322 15.0721 101.171 15.0721 100.983V99.2873C14.7706 99.5887 14.4315 99.8525 14.0547 100.079C13.9417 99.9279 13.7909 99.7771 13.6025 99.5887C14.2431 99.2119 14.7706 98.7597 15.1851 98.2322H13.8286V97.7047H15.5242C15.675 97.441 15.788 97.2148 15.9011 96.9887H14.2431V96.499H15.0721C14.9967 96.1975 14.8083 95.8583 14.5445 95.4815L15.0721 95.2931C15.3358 95.6323 15.5242 95.9714 15.6373 96.3482L15.1474 96.499H16.0895C16.2402 96.0845 16.3532 95.6323 16.4286 95.1802L17.0691 95.2555C16.9938 95.7453 16.8807 96.1222 16.7677 96.499H18.3503L17.9358 96.3482C18.1995 95.9337 18.4256 95.5569 18.5763 95.2178L19.1792 95.4062C18.9154 95.8584 18.6894 96.2352 18.4633 96.4613H19.7067V96.9511H18.0488C18.0111 97.1772 18.1242 97.441 18.2372 97.7047ZM16.1648 97.7047H17.6343C17.5213 97.441 17.4082 97.1771 17.3706 96.9887H16.5039C16.4286 97.2148 16.3155 97.441 16.1648 97.7047Z" fill="#1F1E1D"/>
<path d="M27.6196 98.9481H26.8283V97.5916H28.2225V98.6842C28.2225 99.4378 27.921 99.9654 27.3181 100.342C27.2051 100.418 27.1297 100.455 27.1297 100.455L26.866 100.041C27.3558 99.777 27.6196 99.4379 27.6196 98.9481Z" fill="#1F1E1D"/>
<path d="M33.1962 98.0437H42.767V98.9104H33.1962V98.0437Z" fill="#1F1E1D"/>
<path d="M47.1379 98.609V101.284C47.6278 102.038 48.5321 102.415 49.8509 102.452C51.3204 102.49 52.8276 102.49 54.4102 102.415C54.5232 102.415 54.6363 102.415 54.7117 102.377C54.5986 102.603 54.4856 102.829 54.4479 103.131C52.7146 103.206 51.2074 103.206 49.8509 103.168C48.5321 103.131 47.5524 102.754 46.9495 102.076C46.9118 102.038 46.8742 101.963 46.8365 101.925C46.422 102.339 45.9322 102.792 45.4046 103.281L44.9901 102.528C45.3669 102.264 45.8191 101.849 46.422 101.322V99.325H45.1032V98.609H47.1379ZM47.364 97.1771L46.8365 97.7047C46.4974 97.3279 45.9698 96.9134 45.2539 96.5366C45.2162 96.4989 45.1786 96.4989 45.1032 96.4612L45.593 95.9714C46.2713 96.2728 46.7988 96.6496 47.2133 97.0265C47.2886 97.1018 47.3263 97.1395 47.364 97.1771ZM47.6655 95.1047L47.1379 95.6323C46.8365 95.2555 46.3466 94.8787 45.6684 94.4642C45.593 94.4265 45.5554 94.3888 45.48 94.3511L46.0075 93.8614C46.6858 94.2005 47.2133 94.5773 47.5901 94.9918C47.5901 95.0294 47.6278 95.067 47.6655 95.1047ZM52.6769 100.87H50.2277C49.8509 101.435 49.1726 101.85 48.193 102.113C48.0799 101.887 47.9669 101.737 47.8162 101.586C48.7958 101.36 49.3987 100.983 49.7002 100.493C49.7755 100.342 49.8509 100.192 49.8886 100.003H47.7785V99.5134H50.6799V98.8727H51.3958V99.5134H54.5609V100.003H50.6045C50.5668 100.079 50.5291 100.229 50.4915 100.418H53.4682C53.4682 100.418 53.4682 100.531 53.4305 100.681C53.2798 101.397 53.1291 101.812 52.903 102C52.7523 102.113 52.5639 102.151 52.3001 102.189C51.9987 102.189 51.5842 102.189 51.0943 102.151C51.0943 101.963 51.019 101.812 50.9436 101.661C51.3204 101.699 51.6972 101.736 52.074 101.736C52.2248 101.736 52.3378 101.699 52.4131 101.661C52.4885 101.51 52.5639 101.284 52.6769 100.87ZM48.4944 98.0815V98.6843H47.8162V97.6294H50.6422V97.2149H48.5698V94.2758H50.4915C50.6045 94.012 50.6799 93.8237 50.6799 93.7483L51.5088 93.8614C51.4335 93.9744 51.3581 94.0874 51.2451 94.2758H53.6189V97.2149H51.3581V97.6294H54.4102V98.6843H53.6943V98.0815H51.9233V98.4583C51.9233 98.5714 51.961 98.609 51.9987 98.6467C52.0364 98.6467 52.074 98.6467 52.1494 98.6467H52.8653C52.9784 98.6467 53.016 98.609 53.0537 98.4959C53.0537 98.4583 53.0914 98.3452 53.0914 98.2322C53.2044 98.3076 53.3552 98.3452 53.5812 98.4206C53.5436 98.7597 53.4305 98.9858 53.2044 99.0611C53.1291 99.0988 53.0537 99.0989 52.9407 99.0989H52.0363C51.6595 99.0989 51.4335 99.0235 51.3581 98.9105C51.3204 98.7974 51.2827 98.6844 51.2827 98.4583V98.0815H50.3784C50.2277 98.5714 49.8886 98.9105 49.3987 99.1366C49.135 99.2496 48.7582 99.3626 48.3437 99.4379C48.2683 99.2872 48.1553 99.1365 48.0046 98.9858C48.8712 98.8728 49.3987 98.6467 49.6625 98.3453C49.7002 98.2699 49.7755 98.1946 49.8132 98.0815H48.4944ZM49.3234 94.6526V95.0671H52.8653V94.6526H49.3234ZM49.3234 95.4815V95.9338H52.8653V95.4815H49.3234ZM49.3234 96.3106V96.7627H52.8653V96.3106H49.3234Z" fill="#1F1E1D"/>
<path d="M62.21 100.945V102.377C62.5868 102.415 63.0013 102.452 63.4535 102.452C65.1491 102.452 66.2041 102.452 66.5809 102.452C66.4302 102.678 66.3548 102.942 66.3172 103.206H63.4535C62.0593 103.206 61.0042 103.017 60.326 102.641C59.8362 102.377 59.4594 101.962 59.1579 101.473C58.7434 102.302 58.1782 102.942 57.5 103.47C57.3493 103.281 57.1609 103.093 56.9348 102.904C57.9898 102.189 58.7058 101.058 58.9695 99.4755L59.7608 99.5886C59.6854 99.89 59.6101 100.267 59.497 100.644C59.8738 101.473 60.4767 102.038 61.381 102.302C61.4187 102.302 61.4564 102.339 61.4941 102.339V99.1741H57.1609V98.4582H66.4302V99.1741H62.2477V100.342H65.7143V101.02H62.21V100.945ZM65.2244 94.1626V97.6293H58.2159V94.1626H65.2244ZM64.4332 95.6322V94.7655H58.9695V95.6322H64.4332ZM64.4332 97.0263V96.1974H58.9695V97.0263H64.4332Z" fill="#1F1E1D"/>
<path d="M73.1373 101.171L73.2126 101.849C71.9692 102.151 70.575 102.49 68.9924 102.791L68.804 102.075C69.4446 101.962 70.462 101.736 71.8562 101.473L71.3286 101.322C71.517 100.644 71.6677 99.9654 71.8185 99.1741L72.5721 99.3625C72.3083 100.342 72.0822 101.058 71.9692 101.435L73.1373 101.171ZM73.0996 94.3134V95.0293H68.9548V94.3134H73.0996ZM72.8358 96.0466V98.8726H69.2562V96.0466H72.8358ZM70.575 101.209L69.8968 101.36C69.8968 100.719 69.7461 100.041 69.52 99.4002L70.1605 99.2494C70.4243 99.8523 70.575 100.493 70.6127 101.133C70.575 101.171 70.575 101.171 70.575 101.209ZM72.1199 98.1945V96.6873H69.9345V98.1945H72.1199ZM74.6822 101.623L75.3604 102C74.8329 102.49 74.1546 102.904 73.3257 103.281C73.2126 103.319 73.1373 103.357 73.0619 103.394C72.9112 103.206 72.7228 103.055 72.5344 102.867C73.2503 102.603 73.8909 102.264 74.4561 101.812C74.5314 101.736 74.6068 101.661 74.6822 101.623ZM73.6648 95.9336H75.1343C75.2474 95.3684 75.3227 95.0292 75.3604 94.9162H73.3634V94.238H78.4125V94.9162H76.2271C76.114 95.3307 76.001 95.6699 75.9256 95.9336H78.0734V101.397H73.6648V95.9336ZM77.3198 97.5538V96.5365H74.3807V97.5538H77.3198ZM77.3198 99.1365V98.119H74.3807V99.1365H77.3198ZM77.3198 100.757V99.7017H74.3807V100.757H77.3198ZM76.2647 102.038L76.8676 101.661C77.6966 102.151 78.2618 102.603 78.6763 102.942L78.0734 103.357C77.5835 102.98 76.9806 102.528 76.2647 102.038Z" fill="#1F1E1D"/>
<path d="M87.5311 95.4061H90.018V96.122H80.6357V95.4061H83.2356C83.0472 94.9916 82.7457 94.5394 82.2936 94.0119L83.0095 93.7482C83.4993 94.2757 83.8385 94.7655 84.0645 95.2177L83.537 95.4061H86.6645C87.0413 94.9162 87.3427 94.3133 87.6442 93.7104L88.4731 93.9742C88.134 94.5017 87.8326 94.9539 87.5311 95.4061ZM85.1196 97.064V102.49C85.1196 102.829 85.0065 103.055 84.8181 103.168C84.7805 103.168 84.7428 103.206 84.7428 103.206C84.5167 103.281 84.0269 103.357 83.2733 103.357C83.2356 103.093 83.1225 102.867 83.0095 102.678C83.5747 102.716 83.9515 102.716 84.1399 102.678C84.2529 102.641 84.3283 102.565 84.3283 102.49V101.096H81.9921V103.357H81.2385V97.064H85.1196ZM84.366 97.7422H82.0298V98.7597H84.366V97.7422ZM82.0298 100.418H84.366V99.3625H82.0298V100.418ZM87.1167 97.177V101.435H86.4007V97.177H87.1167ZM88.5108 102.377V96.8379H89.3021V102.377C89.3021 102.754 89.2267 102.98 89.0383 103.093C89.0007 103.131 88.9253 103.131 88.8876 103.168C88.5862 103.281 88.0209 103.319 87.2297 103.319C87.192 103.055 87.079 102.791 86.9659 102.565C87.6442 102.603 88.0963 102.603 88.3224 102.565C88.3978 102.565 88.4731 102.49 88.5108 102.377Z" fill="#1F1E1D"/>
<path d="M97.4033 102.415H101.774V103.055H92.3919V102.415H96.6497V101.51H93.1832V100.87H96.6497V100.154H93.4846V96.9135H96.6497V96.2729H92.4295V95.6324H96.6497V94.8788C95.4816 94.9542 94.4266 94.9918 93.4092 95.0295C93.4092 94.8411 93.3339 94.6527 93.2208 94.3889C96.3483 94.3136 98.6845 94.1252 100.267 93.8237L100.682 94.4267C99.8526 94.5774 98.7598 94.6904 97.4033 94.8035V95.6324H101.699V96.2729H97.4033V96.9135H100.719V100.154H97.4033V100.87H101.096V101.51H97.4033V102.415ZM94.2382 97.4411V98.2323H96.612V97.4411H94.2382ZM94.2382 99.5511H96.612V98.7599H94.2382V99.5511ZM99.9279 97.4411H97.4033V98.2323H99.9279V97.4411ZM99.9279 99.5511V98.7599H97.4033V99.5511H99.9279Z" fill="#1F1E1D"/>
<path d="M104.148 103.131L104.073 102.49C104.186 102.49 106.183 102.377 110.139 102.226L110.102 102.829C106.899 102.98 104.939 103.093 104.148 103.131ZM109.499 94.4266V95.4439H110.177V95.9714H109.499V97.0265H107.426V97.5163H109.649V98.0062H107.426V98.4959H110.102V99.0235H104.148V98.4959H106.71V98.0062H104.638V97.5163H106.71V97.0265H104.751V96.5366H106.71V95.9714H104.11V95.4439H106.71V94.9163H104.789V94.4266H106.71V93.7483H107.426V94.4266H109.499ZM104.789 99.5134H109.461V101.85H104.789V99.5134ZM105.429 99.9278V100.418H106.786V99.9278H105.429ZM105.429 100.87V101.36H106.786V100.87H105.429ZM107.426 94.9163V95.4439H108.82V94.9163H107.426ZM108.82 96.5366V95.9714H107.426V96.5366H108.82ZM108.82 100.418V99.9278H107.464V100.418H108.82ZM108.82 101.36V100.87H107.464V101.36H108.82ZM111.27 94.9918V100.794H110.554V94.9918H111.27ZM112.551 93.9367H113.304V102.377C113.304 102.792 113.191 103.055 112.965 103.168C112.928 103.206 112.89 103.206 112.89 103.206C112.626 103.281 112.099 103.357 111.27 103.357C111.232 103.131 111.157 102.867 111.044 102.603C111.684 102.641 112.136 102.641 112.362 102.603C112.513 102.565 112.588 102.49 112.626 102.377V93.9367H112.551Z" fill="#1F1E1D"/>
<path d="M9.83453 118.165V118.881H1.58257V119.371H0.791275V110.177H9.53309V110.893H1.54488V118.127H9.83453V118.165ZM2.48688 117.374V114.661H5.23754V117.374H2.48688ZM3.12745 115.226V116.809H4.52162V115.226H3.12745ZM7.53604 111.609V113.945H3.61729V111.609H7.53604ZM6.78244 113.38V112.174H4.37089V113.38H6.78244ZM8.77948 114.661V117.374H5.95347V114.661H8.77948ZM8.06355 116.809V115.226H6.59404V116.809H8.06355Z" fill="#1F1E1D"/>
<path d="M12.7736 118.542C12.6229 118.429 12.3968 118.316 12.1707 118.24C12.5098 117.637 12.7359 116.808 12.8489 115.753L13.5272 115.867C13.3388 116.997 13.1127 117.901 12.7736 118.542ZM16.2402 115.188C16.2402 115.226 16.2779 115.264 16.2779 115.301L15.675 115.565C15.6373 115.414 15.5619 115.226 15.4866 114.962L14.6576 115V119.371H13.9793V115.038C13.2634 115.075 12.6982 115.113 12.3214 115.113L12.2461 114.435L12.9243 114.397C13.1127 114.171 13.3388 113.832 13.6402 113.417C13.3011 112.927 12.8489 112.438 12.2837 111.91L12.6982 111.42C12.7736 111.496 12.8866 111.571 12.9997 111.684C13.3388 111.156 13.6402 110.478 13.9417 109.725L14.6199 109.988C14.1301 110.968 13.7156 111.684 13.4518 112.098C13.6402 112.287 13.8286 112.513 14.0547 112.777C14.4315 112.174 14.7706 111.571 15.1098 110.893L15.788 111.194C15.0344 112.438 14.3562 113.493 13.6779 114.322L15.2605 114.246C15.1098 113.907 14.959 113.606 14.7706 113.304L15.2982 113.078C15.7503 113.907 16.0518 114.585 16.2402 115.188ZM15.675 117.788C15.5619 117.185 15.3358 116.545 15.0344 115.867L15.5996 115.678C15.9387 116.356 16.1648 116.997 16.2779 117.6L15.675 117.788ZM19.443 118.466C19.4807 118.466 19.556 118.504 19.5937 118.504C19.6314 118.504 19.7067 118.504 19.7821 118.504H20.4603C20.5357 118.504 20.6488 118.504 20.7241 118.504C20.7995 118.504 20.8748 118.504 20.9125 118.466C20.9502 118.466 20.9879 118.429 21.0632 118.391C21.1009 118.353 21.1386 118.316 21.1386 118.24C21.1763 118.09 21.214 117.788 21.214 117.298C21.2893 117.374 21.4023 117.449 21.5154 117.487C21.6284 117.524 21.7415 117.6 21.8922 117.637C21.8922 117.826 21.8545 118.052 21.8168 118.24C21.7791 118.466 21.7415 118.617 21.7038 118.693C21.6661 118.806 21.5907 118.881 21.5154 118.956C21.44 119.032 21.327 119.069 21.214 119.107C21.1009 119.145 20.9879 119.145 20.8748 119.145C20.7618 119.145 20.6488 119.145 20.5357 119.145H19.6691C19.4053 119.145 19.2169 119.107 19.0662 119.069C18.9155 118.994 18.8024 118.919 18.7271 118.806C18.6517 118.693 18.614 118.542 18.5763 118.353C18.5763 118.165 18.5387 117.977 18.5387 117.713V116.356H17.2575V117.185H16.5793V112.814H17.2575V115.64H18.5387V111.835H16.3155V111.119H18.5387V109.725H19.2546V111.119H21.7415V111.835H19.2546V115.64H20.6111V112.814H21.327V116.959H20.6487V116.394H19.2923V117.864C19.2923 118.203 19.3676 118.429 19.443 118.466Z" fill="#1F1E1D"/>
<path d="M26.6022 109.8L27.3181 110.026C27.0167 110.817 26.6399 111.533 26.2631 112.212V119.408H25.5095V113.342C25.095 113.907 24.7182 114.359 24.3414 114.736C24.1907 114.435 24.04 114.171 23.8892 113.983C24.7936 113.116 25.5849 112.023 26.2254 110.704C26.3761 110.365 26.4892 110.064 26.6022 109.8ZM30.7847 118.278H33.7615V119.032H26.979V118.278H30.0311V115.64H27.6196V114.887H30.0311V112.551H27.2428V111.835H30.8224C30.2572 111.345 29.5413 110.817 28.6746 110.29C28.6746 110.29 28.637 110.29 28.637 110.252L29.1645 109.687C30.2195 110.29 30.9731 110.817 31.5006 111.27L31.0485 111.797H33.6107V112.513H30.7847V114.849H33.2716V115.603H30.7847V118.278Z" fill="#1F1E1D"/>
<path d="M41.3729 118.579H43.6337C43.9351 118.579 44.1235 118.466 44.2365 118.278C44.3119 118.09 44.3873 117.637 44.4249 116.997C44.6133 117.11 44.8394 117.223 45.2162 117.336C45.1409 118.203 44.9901 118.768 44.8017 118.994C44.6133 119.22 44.2366 119.371 43.709 119.371H41.3729C40.6946 119.371 40.2425 119.258 40.0164 118.994C39.8657 118.806 39.7903 118.504 39.7903 118.052V116.093L36.0976 116.507L35.9846 115.753L39.7903 115.339V113.756C38.8106 113.945 37.944 114.096 37.228 114.171C37.1904 113.945 37.115 113.719 37.002 113.493C39.6773 113.078 41.6366 112.588 42.8047 112.061L43.4453 112.701C42.767 113.003 41.825 113.267 40.6569 113.568V115.188L45.2162 114.661L45.3293 115.377L40.6569 115.904V117.939C40.6569 118.203 40.7323 118.353 40.8453 118.391C40.883 118.542 41.0714 118.579 41.3729 118.579ZM37.0396 111.571V113.078H36.2484V110.817H40.2048V109.725H41.0337V110.817H45.0655V113.078H44.2365V111.571H37.0396Z" fill="#1F1E1D"/>
<path d="M57.2739 114.887V115.565H55.9174V119.371H55.2015V115.565H53.8073C53.732 117.185 53.3552 118.466 52.5639 119.371C52.4508 119.182 52.2624 119.032 52.074 118.881C52.0364 118.881 52.0363 118.843 52.0363 118.843C52.2624 118.579 52.4131 118.316 52.5262 118.052H50.6045V119.371H49.8886V118.052H47.7031V117.449H49.8886V116.733H48.1176V114.02H49.8886V113.342H47.9669V112.739H49.8886V112.023H50.6045V112.739H52.5262V113.342H50.6045V114.02H52.4132V116.733H50.6045V117.449H52.6016V117.864C52.903 117.148 53.0914 116.206 53.0914 115.038V112.777L53.6566 112.927C54.8624 112.701 55.7667 112.438 56.3319 112.174L56.9348 112.701C56.1812 113.041 55.1638 113.267 53.845 113.493V114.887H57.2739ZM56.6333 110.026V111.872H48.306V110.026H49.0973V111.194H52.074V109.725H52.8653V111.194H55.8421V110.026H56.6333ZM48.7582 114.548V115.151H49.9263V114.548H48.7582ZM48.7582 115.64V116.281H49.9263V115.64H48.7582ZM51.7349 115.151V114.548H50.5291V115.151H51.7349ZM51.7349 116.281V115.64H50.5291V116.281H51.7349Z" fill="#1F1E1D"/>
<path d="M64.1694 117.298L63.7172 117.864C63.4911 117.6 63.0766 117.223 62.5114 116.696V119.371H61.7578V116.582C61.1926 117.449 60.6274 118.127 59.9869 118.617C59.8362 118.391 59.6478 118.203 59.4594 118.052C60.0999 117.638 60.6651 117.035 61.2303 116.206C61.3434 116.017 61.4564 115.829 61.5694 115.678H59.6854V115H61.7578V113.87H59.6478V113.191H64.5462V113.87H62.5114V115H64.4708V115.678H62.5114V115.942C63.0766 116.356 63.6042 116.809 64.1317 117.261C64.1317 117.261 64.1694 117.261 64.1694 117.298ZM64.4331 110.855V111.533H59.8362V110.855H61.7578V109.8H62.5114V110.855H64.4331ZM61.4941 113.041L60.8535 113.229C60.8158 112.777 60.6651 112.249 60.439 111.722L61.0419 111.571C61.268 112.061 61.4187 112.551 61.4941 113.041ZM63.2274 113.191L62.5868 113.041C62.8506 112.438 63.039 111.91 63.1143 111.533L63.8302 111.684C63.5665 112.438 63.3404 112.928 63.2274 113.191ZM69.2185 113.304V114.058H68.0504V119.371H67.2968V114.058H65.7143V114.322C65.7143 116.469 65.2621 118.09 64.3201 119.182C64.2447 119.296 64.1317 119.371 64.0563 119.484C63.9433 119.333 63.7926 119.145 63.5665 118.994C63.5288 118.956 63.5288 118.956 63.4911 118.956C64.3955 118.09 64.8853 116.771 64.9607 115.075C64.9607 114.849 64.9983 114.623 64.9983 114.359V110.704L65.5635 110.893C66.8824 110.591 67.862 110.29 68.5026 109.988L69.1432 110.591C68.4272 110.93 67.2968 111.232 65.752 111.533V113.417H69.2185V113.304Z" fill="#1F1E1D"/>
<path d="M73.4764 111.872L74.1546 112.099C73.8909 112.626 73.5894 113.154 73.2503 113.681V119.409H72.5344V114.623C72.3083 114.887 72.0069 115.226 71.5924 115.565C71.4794 115.377 71.3286 115.151 71.1026 114.887C71.9315 114.209 72.6474 113.38 73.2126 112.362C73.288 112.174 73.401 112.023 73.4764 111.872ZM73.1373 109.762L73.8532 110.026C73.401 110.817 72.7982 111.496 72.0822 112.136C71.9692 112.249 71.8185 112.362 71.7054 112.438C71.5547 112.174 71.404 111.986 71.2533 111.872C71.8938 111.42 72.4213 110.855 72.8735 110.177C72.9865 110.026 73.0619 109.913 73.1373 109.762ZM78.1111 117.374V118.052C77.4705 118.127 76.0387 118.316 73.8532 118.58L73.7402 117.864C74.6068 117.788 75.2097 117.713 75.5865 117.675V116.055H74.0416V115.377H75.5865V114.096H76.3401V115.377H77.885V116.055H76.3401V117.6L78.1111 117.374ZM75.5865 113.191V111.797H74.1923V111.119H75.5865V109.8H76.3024V111.119H77.7343V111.797H76.3024V113.191H77.9227V113.87H73.9662V113.191H75.5865ZM80.9748 113.191V113.907H79.9951V118.467C79.9951 118.843 79.882 119.107 79.6936 119.22C79.656 119.22 79.6183 119.258 79.5806 119.258C79.3168 119.371 78.7893 119.409 77.998 119.409C77.9603 119.145 77.885 118.919 77.7719 118.617C78.3748 118.655 78.7893 118.655 79.0154 118.617C79.1284 118.58 79.2038 118.504 79.2038 118.429V113.907H78.0734V113.191H80.9748ZM80.8617 110.365V111.081H78.2241V110.365H80.8617Z" fill="#1F1E1D"/>
<path d="M92.5049 111.307H84.4413V113.87C84.4413 116.356 84.1399 118.203 83.4993 119.409C83.3863 119.258 83.1979 119.107 82.9341 118.994C82.8964 118.994 82.8965 118.994 82.8965 118.956C83.424 117.901 83.6877 116.281 83.7254 114.058C83.7254 113.983 83.7254 113.907 83.7254 113.87V110.629H87.7195V109.762H88.5108V110.629H92.5049V111.307ZM87.2674 116.884V117.072C87.3051 117.072 87.9079 117.035 89.076 116.959V117.562C88.8876 117.562 88.6615 117.6 88.2847 117.6C87.8326 117.638 87.4558 117.675 87.2674 117.675V118.73C87.2674 119.032 87.192 119.22 87.0036 119.296C86.9659 119.296 86.9659 119.333 86.9282 119.333C86.7398 119.409 86.2877 119.409 85.5717 119.409C85.5341 119.258 85.4964 119.069 85.3833 118.843C85.9109 118.843 86.25 118.843 86.4007 118.843C86.5137 118.843 86.5514 118.768 86.5514 118.693V117.675L84.6297 117.788L84.5544 117.185C85.1573 117.148 85.8355 117.148 86.5514 117.11V116.583H86.8152C87.0413 116.469 87.305 116.319 87.5688 116.13H85.0442V115.603H88.247L88.3978 115.565L88.8123 115.904C88.4354 116.206 87.9456 116.545 87.2674 116.884ZM88.963 112.287V112.89H84.8181V112.287H86.5514V111.571H87.2674V112.287H88.963ZM88.5862 115.075H85.2326V113.342H88.5862V115.075ZM85.8732 113.794V114.586H87.9456V113.794H85.8732ZM92.0151 111.986L92.5426 112.287C92.2412 113.003 91.8643 113.832 91.3745 114.736C92.0904 115.414 92.4295 116.093 92.4295 116.809C92.4295 117.374 92.2788 117.788 91.9774 117.977C91.8267 118.09 91.6383 118.127 91.4122 118.165C91.1861 118.203 90.9223 118.203 90.6209 118.165C90.6209 117.901 90.5455 117.675 90.4325 117.487C90.7716 117.525 91.0354 117.525 91.1484 117.525C91.2614 117.525 91.4122 117.487 91.4875 117.412C91.6383 117.299 91.7136 117.072 91.7136 116.733C91.6759 116.093 91.3368 115.452 90.6209 114.812C90.8846 114.246 91.2238 113.53 91.5629 112.664H90.0557V119.409H89.3775V112.023H91.8643L92.0151 111.986Z" fill="#1F1E1D"/>
<path d="M98.5337 114.962H97.7424V113.606H99.1366V114.698C99.1366 115.452 98.8352 115.98 98.2323 116.356C98.1193 116.432 98.0439 116.469 98.0439 116.469L97.7801 116.055C98.2699 115.791 98.5337 115.452 98.5337 114.962Z" fill="#1F1E1D"/>
<path d="M106.56 109.8L107.276 110.026C106.974 110.817 106.597 111.533 106.22 112.212V119.408H105.467V113.342C105.052 113.907 104.676 114.359 104.299 114.736C104.148 114.435 103.997 114.171 103.847 113.983C104.751 113.116 105.542 112.023 106.183 110.704C106.334 110.365 106.447 110.064 106.56 109.8ZM110.78 118.278H113.757V119.032H106.974V118.278H110.026V115.64H107.615V114.887H110.026V112.551H107.238V111.835H110.818C110.252 111.345 109.536 110.817 108.67 110.29C108.67 110.29 108.632 110.29 108.632 110.252L109.16 109.687C110.215 110.29 110.968 110.817 111.496 111.27L111.044 111.797H113.606V112.513H110.78V114.849H113.267V115.603H110.78V118.278Z" fill="#1F1E1D"/>
<path d="M4.22019 127.397H9.64612V128.15H3.88106C3.50425 128.942 3.05208 129.657 2.59992 130.298V135.385H1.84632V131.24C1.50719 131.617 1.09272 131.994 0.602873 132.295C0.527513 132.069 0.376801 131.843 0.1884 131.579C1.31881 130.75 2.2608 129.62 2.97672 128.15H0.452166V127.397H3.31585C3.54193 126.907 3.73034 126.342 3.88106 125.776L4.67233 125.965C4.63465 126.342 4.44627 126.831 4.22019 127.397ZM6.8578 131.466V134.443H9.64612V135.159H3.31585V134.443H6.1042V131.466H3.73033V130.712H6.1042V128.715H6.89547V130.712H9.26932V131.466H6.8578Z" fill="#1F1E1D"/>
<path d="M14.4315 130.637V133.275C14.9214 134.029 15.788 134.405 17.1068 134.481C18.727 134.518 20.272 134.518 21.7415 134.405C21.8168 134.405 21.8545 134.405 21.9299 134.405C21.8168 134.631 21.7038 134.895 21.6661 135.197C20.0459 135.234 18.5387 135.272 17.1445 135.234C15.8257 135.159 14.846 134.782 14.2431 134.104C14.2054 134.066 14.1677 134.029 14.1677 133.991C13.7909 134.33 13.3011 134.782 12.6605 135.347L12.2461 134.556C12.7359 134.217 13.2257 133.802 13.7533 133.35V131.391H12.3591V130.675H14.4315V130.637ZM14.6953 129.205L14.1677 129.771C13.7909 129.394 13.2634 128.979 12.5475 128.603C12.4721 128.565 12.4345 128.527 12.3591 128.527L12.8866 128.037C13.6026 128.377 14.1677 128.716 14.6199 129.13C14.6199 129.168 14.6576 129.205 14.6953 129.205ZM14.9967 127.171L14.4692 127.698C14.1677 127.321 13.6402 126.907 12.9243 126.492C12.8489 126.455 12.8113 126.417 12.7359 126.379L13.2634 125.89C14.017 126.304 14.5822 126.719 14.959 127.095C14.959 127.133 14.9967 127.133 14.9967 127.171ZM21.7415 127.434V128.037H15.1851V127.434H21.7415ZM20.8748 133.915H20.0835V133.614H16.73V133.915H15.9764V131.165H20.8371V133.915H20.8748ZM20.7618 128.678V129.243H16.1271V128.678H20.7618ZM16.1271 130.524V129.921H20.7241V130.524H16.1271ZM20.6487 126.191V126.756H16.2402V126.191H20.6487ZM16.73 133.049H20.0835V131.768H16.73V133.049Z" fill="#1F1E1D"/>
<path d="M27.9587 132.031L27.5065 132.559C27.3558 132.295 26.979 131.805 26.4515 131.127V135.423H25.6979V131.504C25.2834 131.994 24.8312 132.446 24.4168 132.785C24.266 132.483 24.1153 132.257 24.0023 132.107C24.8313 131.466 25.5472 130.637 26.1877 129.62C26.4138 129.243 26.6399 128.829 26.7906 128.452H24.266V127.736H25.6225V125.852H26.3761V127.736H27.1297L27.2804 127.698L27.6949 127.962C27.4312 128.716 27.0167 129.507 26.4892 130.336C26.5645 130.411 26.7152 130.562 26.9036 130.788C27.2051 130.373 27.4688 130.034 27.6573 129.695L28.1471 130.072C27.7703 130.562 27.4688 130.939 27.2804 131.202C27.6573 131.617 27.8834 131.918 27.9587 132.031ZM31.1615 134.368H33.7991V135.083H27.5442V134.368H30.4079V132.785H28.1471V132.069H30.4079V130.826H28.1848V126.266H33.3846V130.826H31.1615V132.069H33.46V132.785H31.1615V134.368ZM28.9384 127.02V128.263H30.4079V127.02H28.9384ZM28.9384 130.147H30.4079V128.904H28.9384V130.147ZM32.6687 128.263V127.02H31.1992V128.263H32.6687ZM32.6687 130.147V128.904H31.1992V130.147H32.6687Z" fill="#1F1E1D"/>
<path d="M39.7149 130.976H38.9236V129.62H40.3178V130.713C40.3178 131.466 40.0164 131.994 39.4135 132.371C39.3004 132.446 39.2251 132.484 39.2251 132.484L38.9613 132.069C39.4512 131.843 39.7149 131.466 39.7149 130.976Z" fill="#1F1E1D"/>
<path d="M51.5842 132.295L52.074 131.881C53.0914 132.333 53.8827 132.823 54.5233 133.275C54.5609 133.313 54.6363 133.35 54.674 133.388L54.1465 133.84C53.9204 133.652 53.732 133.501 53.5059 133.35L50.4161 133.426V135.385H49.6625V133.463C47.4771 133.539 46.1206 133.576 45.6307 133.576L45.5177 132.898C45.9322 132.898 46.7611 132.898 48.0423 132.86C48.2307 132.785 48.3437 132.71 48.4191 132.672C47.8539 132.295 47.251 131.956 46.5727 131.655L47.1003 131.24C47.364 131.353 47.6278 131.466 47.8915 131.617C48.193 131.429 48.4944 131.202 48.7959 130.939C48.6075 130.939 48.4191 130.939 48.2307 130.939C48.2307 130.75 48.193 130.6 48.1176 130.487C48.2683 130.524 48.4567 130.524 48.6451 130.524C48.7582 130.524 48.7959 130.487 48.8335 130.411C48.8712 130.374 48.8712 130.298 48.9089 130.223H46.422C46.422 130.298 46.3843 130.373 46.3843 130.487C46.3843 130.562 46.3467 130.6 46.3467 130.637L45.7438 130.6C45.8568 130.072 45.9322 129.545 46.0075 129.055H45.2916V128.565H46.0829C46.1206 128.376 46.1582 128.075 46.1959 127.661C46.1582 127.698 46.1206 127.736 46.0452 127.811C45.9699 127.887 45.9322 127.924 45.8945 127.962C45.6307 127.774 45.4047 127.661 45.2916 127.585C45.8568 127.095 46.309 126.455 46.5727 125.701L47.251 125.852C47.2133 126.003 47.1003 126.191 46.9872 126.455H50.2277V127.02H46.6481C46.4974 127.246 46.3843 127.397 46.309 127.51H49.7379C49.7379 127.51 49.7379 127.585 49.7379 127.774C49.7379 128.037 49.7379 128.339 49.7002 128.603H50.4538V129.092H49.6625C49.6625 129.318 49.6248 129.544 49.6248 129.771H50.2277V130.26H49.5871C49.5495 130.487 49.5118 130.6 49.4741 130.675L49.9639 130.901C49.5495 131.24 49.0219 131.579 48.4567 131.956C48.7582 132.107 48.9843 132.258 49.1727 132.371C50.0016 131.918 50.7552 131.429 51.3581 130.976L51.9987 131.353C51.2074 131.881 50.3407 132.408 49.3234 132.898C49.9263 132.898 51.0567 132.86 52.6769 132.823C52.2624 132.634 51.9233 132.446 51.5842 132.295ZM47.9292 133.652L48.6451 133.915C47.8915 134.443 46.9872 134.895 45.9322 135.272C45.6307 134.97 45.4423 134.782 45.3293 134.744C46.4974 134.405 47.364 134.066 47.9292 133.652ZM47.3263 129.055H46.6104C46.6104 129.168 46.5727 129.281 46.5351 129.469C46.4974 129.582 46.4974 129.695 46.4974 129.771H48.0423C47.7031 129.544 47.4017 129.394 47.1379 129.281L47.3263 129.055ZM47.4771 127.962H46.7611L46.6858 128.603H48.1553C47.8162 128.414 47.5524 128.263 47.2887 128.188L47.4771 127.962ZM48.306 129.771H49.0219C49.0596 129.544 49.0596 129.318 49.0596 129.055H47.5901C47.9669 129.205 48.2683 129.356 48.4944 129.545L48.306 129.771ZM49.0973 128.603L49.135 127.962H47.7408C48.0423 128.075 48.306 128.188 48.4944 128.376L48.306 128.64H49.0973V128.603ZM54.787 127.434H54.0711C53.845 128.226 53.4682 128.866 52.9784 129.431C53.5812 129.921 54.2595 130.298 55.0508 130.487C54.8624 130.675 54.7116 130.901 54.5986 131.127C53.7696 130.863 53.0914 130.449 52.4885 129.921C51.961 130.373 51.2828 130.75 50.5291 131.052C50.3784 130.826 50.2277 130.637 50.0393 130.487C50.8306 130.223 51.4712 129.884 52.0364 129.431C51.6972 129.055 51.3958 128.565 51.132 128C50.9813 128.226 50.7929 128.414 50.6045 128.603C50.4161 128.414 50.2277 128.226 50.077 128.113C50.7552 127.547 51.2451 126.794 51.5842 125.852C51.5842 125.814 51.6219 125.814 51.6219 125.777L52.3378 125.927C52.2624 126.153 52.1494 126.417 51.961 126.832H54.9001V127.434H54.787ZM51.4712 134.066L51.9987 133.652C52.9784 133.953 53.845 134.33 54.5233 134.707C54.5609 134.744 54.5986 134.782 54.6363 134.782L54.0334 135.272C53.5059 134.895 52.7146 134.518 51.6596 134.142C51.6219 134.104 51.5465 134.066 51.4712 134.066ZM53.3175 127.434H51.5465C51.7349 128 52.0364 128.489 52.4509 128.942C52.8277 128.527 53.1291 128.037 53.3175 127.434Z" fill="#1F1E1D"/>
<path d="M66.8447 130.675H64.923V131.73H66.3172V132.408H62.4738V133.313H66.7316V133.991H62.4738V135.385H61.6825V133.991H57.5377V133.313H61.6825V132.408H57.9898V131.73H59.3086V130.675H57.3869V129.997H59.3086V128.979H58.1406V128.301H66.1288V128.979H64.8853V129.997H66.807V130.675H66.8447ZM59.9115 128.037V127.208H57.5377V126.492H59.9115V125.739H60.6651V126.492H63.4911V125.739H64.2447V126.492H66.694V127.208H64.2447V128.037H63.4911V127.208H60.6651V128.037H59.9115ZM60.0622 128.979V129.997H61.6825V128.979H60.0622ZM60.0622 131.73H61.6825V130.675H60.0622V131.73ZM64.2071 129.997V128.979H62.4738V129.997H64.2071ZM64.2071 131.73V130.675H62.4738V131.73H64.2071Z" fill="#1F1E1D"/>
<path d="M77.6212 132.258H78.7139V132.973H69.1432V132.258H70.2359L70.0475 126.53L70.575 126.681C71.1779 126.379 71.6677 126.116 71.9692 125.89L72.5721 126.455C72.1576 126.681 71.5547 126.945 70.7634 127.284L70.8011 128.414H72.233V129.092H70.8388L70.8765 130.374H72.233V131.052H70.8765L70.9141 132.333H72.7228V129.884H73.401V132.333H74.4184V129.432H72.7605V125.965H73.4387V127.058H75.285V127.736H73.4387V128.829H75.0966V132.371H76.8299C76.8676 132.069 76.8676 131.655 76.9053 131.089H75.5865V130.411H76.943C76.943 130.261 76.943 130.072 76.9807 129.771C76.9807 129.469 76.9806 129.243 77.0183 129.092H75.6618V128.414H77.056C77.056 127.849 77.0937 127.435 77.0937 127.171H75.5865V126.492H77.8473C77.7719 128.452 77.7343 130.411 77.6212 132.258ZM72.1953 133.162L72.9112 133.614C72.1199 134.255 71.1779 134.82 70.0098 135.347C69.9345 135.385 69.8968 135.423 69.8214 135.423C69.633 135.197 69.4069 135.008 69.2185 134.857C70.1982 134.443 71.0272 133.991 71.7808 133.463C71.9692 133.35 72.0822 133.237 72.1953 133.162ZM74.9082 133.652L75.4734 133.124C76.6792 133.689 77.7343 134.292 78.6386 134.895L77.9227 135.423C77.1314 134.857 76.114 134.255 74.9082 133.652Z" fill="#1F1E1D"/>
<path d="M90.3571 131.504V132.107H81.2762V131.504H82.2559V129.959H89.4528V131.504H90.3571ZM85.1573 127.246L84.7805 127.623C84.8181 127.623 84.8182 127.623 84.8558 127.66C85.4964 127.886 86.0239 128.15 86.4007 128.489L86.8152 128.037C86.4007 127.736 85.9109 127.472 85.2703 127.284H89.5282V128.376H90.2441V126.605H86.2123V125.814H85.421V126.605H81.3893V128.376H82.1052V127.284H85.1573V127.246ZM83.0849 127.886C83.0849 127.924 83.0472 127.962 83.0472 127.962C82.6704 128.602 82.1429 129.092 81.4646 129.356L81.9545 129.846C82.6704 129.507 83.2356 128.941 83.6501 128.15L83.0849 127.886ZM82.0675 132.709H89.6412V133.312H86.2123V134.518C86.2123 134.744 86.1746 134.895 86.1369 135.008C86.0616 135.121 85.9486 135.234 85.7978 135.272C85.6848 135.309 85.4964 135.347 85.308 135.347C85.1196 135.347 84.8935 135.347 84.6297 135.347H83.9892C83.9892 135.234 83.9515 135.121 83.9138 135.008C83.8761 134.895 83.8008 134.744 83.7631 134.669C84.1022 134.706 84.4037 134.707 84.6674 134.707C84.7805 134.707 84.8935 134.707 85.0065 134.707C85.1196 134.707 85.1573 134.707 85.1949 134.707C85.2703 134.707 85.3457 134.669 85.3833 134.669C85.421 134.631 85.421 134.593 85.421 134.518V133.312H82.0298V132.709H82.0675ZM82.9718 131.504H84.479V130.486H82.9718V131.504ZM83.9892 128.715C83.9892 128.979 84.0269 129.168 84.1399 129.318C84.2529 129.469 84.6297 129.544 85.1573 129.544H87.0036C87.2673 129.544 87.4558 129.507 87.5688 129.431C87.7572 129.318 87.9079 129.054 87.9456 128.565C87.6818 128.527 87.4934 128.452 87.3427 128.339C87.3427 128.565 87.3051 128.715 87.2674 128.791C87.2297 128.904 87.1166 128.941 86.9282 128.941H85.2326C85.0442 128.941 84.9312 128.941 84.8558 128.904C84.7428 128.866 84.7051 128.791 84.7051 128.678V127.773H84.0269V128.715H83.9892ZM85.0819 130.524V131.541H86.6268V130.524H85.0819ZM87.192 130.524V131.541H88.7746V130.524H87.192ZM90.2441 129.318C90.2064 129.281 90.1688 129.205 90.0934 129.168C89.6412 128.678 89.0383 128.226 88.3601 127.811L87.8703 128.226C87.9456 128.263 88.0586 128.339 88.134 128.414C88.8499 128.904 89.3775 129.356 89.7166 129.808L90.2441 129.318Z" fill="#1F1E1D"/>
<path d="M97.328 129.168V129.771H92.9194V129.168H94.7657V128.489H93.2585V127.924H94.7657V127.284H93.0701V126.681H94.7657V125.739H95.4816V126.681H97.2149V127.284H95.4816V127.924H97.0265V128.489H95.4816V129.168H97.328ZM96.0092 134.782C96.0845 134.782 96.1222 134.744 96.1222 134.744C96.1599 134.707 96.1599 134.669 96.1599 134.631V133.614H94.1628V135.423H93.4846V130.373H96.8381V134.631C96.8381 134.82 96.8004 134.933 96.7628 135.046C96.7251 135.159 96.6497 135.234 96.5367 135.31C96.4237 135.347 96.2729 135.385 96.0845 135.423C95.8961 135.423 95.6323 135.46 95.3309 135.46C95.3309 135.347 95.2932 135.272 95.2556 135.121C95.2179 135.008 95.1425 134.895 95.1048 134.782C95.3309 134.782 95.5193 134.82 95.67 134.82C95.8584 134.782 95.9715 134.782 96.0092 134.782ZM94.1628 131.692H96.1599V130.939H94.1628V131.692ZM94.1628 133.011H96.1599V132.257H94.1628V133.011ZM98.9859 134.594C99.0613 134.594 99.1366 134.556 99.1366 134.556C99.1743 134.518 99.1743 134.481 99.1743 134.405V132.936H97.554V132.295H99.1743V131.24H97.328V130.562H99.1743V129.695H97.554V129.055H101.774V130.562H102.452V131.24H101.774V133.426H101.171V132.936H99.8149V134.405C99.8149 134.631 99.7772 134.82 99.7395 134.933C99.7018 135.046 99.5888 135.121 99.4381 135.197C99.2873 135.272 99.0989 135.31 98.8352 135.31C98.6091 135.31 98.27 135.347 97.8932 135.347C97.8932 135.234 97.8555 135.121 97.8178 134.97C97.7801 134.82 97.7425 134.707 97.6671 134.594C97.8178 134.594 97.9685 134.594 98.0816 134.594C98.1946 134.594 98.3453 134.594 98.4584 134.594H98.9859ZM97.3656 126.643C97.7424 126.605 98.1192 126.568 98.5337 126.492C98.9482 126.455 99.325 126.379 99.7018 126.304C100.079 126.229 100.455 126.191 100.757 126.116C101.096 126.04 101.397 125.965 101.624 125.89L102.113 126.455C101.812 126.568 101.473 126.643 101.096 126.718C100.719 126.794 100.342 126.869 99.9279 126.945C99.5134 127.02 99.1366 127.058 98.7221 127.133C98.3076 127.208 97.8932 127.246 97.5164 127.246C97.5164 127.171 97.4787 127.058 97.441 126.945C97.441 126.794 97.4033 126.719 97.3656 126.643ZM98.0062 127.359C98.1193 127.547 98.27 127.811 98.3453 128.037C98.4584 128.301 98.5338 128.527 98.5714 128.716L98.0439 128.979C98.0062 128.791 97.9685 128.565 97.8555 128.301C97.7425 128.037 97.6294 127.811 97.5164 127.585L98.0062 127.359ZM99.6641 127.171C99.7018 127.284 99.7772 127.397 99.8149 127.51C99.8525 127.623 99.8902 127.773 99.9656 127.887C100.003 128 100.041 128.15 100.079 128.263C100.116 128.376 100.116 128.489 100.154 128.603L99.5888 128.791C99.5511 128.603 99.5134 128.339 99.4381 128.075C99.3627 127.811 99.2497 127.547 99.1743 127.321L99.6641 127.171ZM99.8525 130.562H101.209V129.695H99.8525V130.562ZM101.209 132.257V131.202H99.8525V132.257H101.209ZM102.076 127.208C101.925 127.472 101.774 127.774 101.624 128.037C101.473 128.301 101.322 128.565 101.209 128.753L100.644 128.527C100.719 128.414 100.795 128.301 100.87 128.15C100.945 128 101.021 127.887 101.096 127.736C101.171 127.585 101.247 127.472 101.284 127.321C101.36 127.171 101.397 127.058 101.435 126.945L102.076 127.208Z" fill="#1F1E1D"/>
<path d="M114.096 126.53V127.321H112.815V134.292C112.815 134.782 112.701 135.083 112.438 135.196C112.4 135.234 112.325 135.234 112.287 135.272C111.986 135.385 111.27 135.423 110.102 135.423C110.064 135.196 109.951 134.895 109.762 134.594C110.516 134.631 111.157 134.631 111.722 134.631C111.91 134.631 111.986 134.556 112.023 134.443C112.023 134.405 112.023 134.367 112.023 134.33V127.359H104.789V126.568H114.096V126.53ZM110.102 132.747H106.56V133.576H105.806V128.828H110.102V132.747ZM109.348 129.62H106.597V132.031H109.348V129.62Z" fill="#1F1E1D"/>
<path d="M4.71001 148.385C4.33321 148.535 3.99408 148.724 3.61728 148.874C3.24048 149.025 2.86369 149.213 2.52457 149.364C2.14776 149.515 1.80862 149.666 1.4695 149.816C1.13038 149.967 0.828938 150.118 0.527496 150.231L0.226059 149.402C0.41446 149.327 0.640537 149.251 0.904298 149.138C1.13038 149.025 1.39415 148.912 1.6956 148.799L1.5072 142.28L2.29847 142.243L2.4492 148.46C2.78832 148.309 3.12745 148.196 3.46657 148.045C3.80569 147.895 4.14481 147.744 4.52161 147.593L4.71001 148.385ZM9.34467 151.361C9.23163 151.173 9.08091 150.985 8.89251 150.758C8.70411 150.532 8.5157 150.306 8.3273 150.08C8.10122 149.854 7.91283 149.59 7.64906 149.327C7.42298 149.063 7.19691 148.837 6.97083 148.611C6.55634 149.251 6.0665 149.779 5.46362 150.231C4.89841 150.683 4.18248 151.097 3.35351 151.437C3.31583 151.399 3.27816 151.361 3.24048 151.286C3.2028 151.211 3.12745 151.173 3.08977 151.098C3.01441 151.022 2.97673 150.984 2.90137 150.909C2.82601 150.834 2.78832 150.796 2.75064 150.758C3.65496 150.419 4.40857 150.005 5.01145 149.515C5.61433 149.025 6.14186 148.422 6.51866 147.744C6.89546 147.066 7.23459 146.274 7.42299 145.37C7.64907 144.466 7.79979 143.448 7.91283 142.318L8.77947 142.393C8.66643 143.524 8.47802 144.541 8.25194 145.445C8.02586 146.35 7.72442 147.141 7.3853 147.857C7.61138 148.083 7.87515 148.347 8.10123 148.611C8.36499 148.874 8.59106 149.138 8.81714 149.402C9.04322 149.666 9.26931 149.892 9.45771 150.156C9.64611 150.382 9.83451 150.608 9.94755 150.796L9.34467 151.361ZM5.27522 146.011C5.19986 145.822 5.12449 145.634 5.01145 145.408C4.89841 145.182 4.74769 144.956 4.63465 144.73C4.48393 144.504 4.3332 144.277 4.18248 144.051C4.03176 143.825 3.84336 143.637 3.69264 143.411L4.37088 143.072C4.55928 143.26 4.71001 143.486 4.89841 143.675C5.04913 143.901 5.23754 144.127 5.35058 144.353C5.5013 144.579 5.61433 144.805 5.76505 144.993C5.87809 145.219 5.99113 145.408 6.06649 145.596L5.27522 146.011Z" fill="#1F1E1D"/>
<path d="M19.4053 148.686H17.6343C18.0111 149.063 18.501 149.44 19.0285 149.779C19.556 150.118 20.1212 150.382 20.6111 150.57C20.385 150.759 20.1966 150.985 20.0835 151.211C19.5937 150.985 19.0662 150.683 18.5387 150.306C18.0111 149.93 17.559 149.553 17.1445 149.101V151.437H16.3909V148.686H14.9967V151.437H14.2431V149.214C13.4142 150.118 12.5098 150.759 11.4548 151.211C11.3417 150.985 11.1533 150.796 10.9273 150.608C11.4171 150.419 11.9446 150.156 12.4721 149.779C12.9997 149.44 13.4518 149.063 13.7909 148.648H11.9069V148.008H14.2054V146.991H11.1157V146.312H14.2054V145.408H11.9823V144.767H14.2054V143.825H11.2664V143.147H13.6779C13.4518 142.808 13.1127 142.431 12.6605 142.017L13.3765 141.715C13.8663 142.13 14.2431 142.582 14.5446 142.996L14.1301 143.185H17.0315C17.4459 142.733 17.7851 142.243 18.0865 141.715L18.9155 141.979C18.5387 142.469 18.2372 142.883 17.9735 143.185H20.2343V143.863H17.1822V144.805H19.3676V146.312H20.4227V146.991H19.3676V148.686H19.4053ZM14.9967 143.901V144.843H16.4663V143.901H14.9967ZM14.9967 145.446V146.35H16.4663V145.446H14.9967ZM14.9967 148.046H16.4663V147.028H14.9967V148.046ZM18.6517 145.446H17.2199V146.35H18.6517V145.446ZM18.6517 148.046V147.028H17.2199V148.046H18.6517Z" fill="#1F1E1D"/>
<path d="M24.04 144.127L24.7182 144.39C24.4921 144.805 24.1907 145.257 23.8516 145.672V151.399H23.0603V146.576C22.6458 147.028 22.2313 147.405 21.8168 147.706C21.7038 147.443 21.5907 147.216 21.4023 146.953C22.3067 146.274 23.0603 145.521 23.6632 144.617C23.8139 144.466 23.9269 144.277 24.04 144.127ZM23.8516 141.828L24.6052 142.13C24.0776 142.883 23.3617 143.599 22.4951 144.277C22.3444 144.39 22.1559 144.503 22.0052 144.617C21.8922 144.39 21.7791 144.202 21.5907 143.976C22.3443 143.486 22.9472 142.921 23.4748 142.28C23.6255 142.13 23.7385 141.979 23.8516 141.828ZM31.1992 147.857V148.535H29.6166V150.57C29.6166 150.909 29.5036 151.135 29.3152 151.286C29.2775 151.324 29.2398 151.324 29.2022 151.324C28.9761 151.399 28.4109 151.437 27.6196 151.437C27.5819 151.248 27.5065 151.022 27.3558 150.721C27.9964 150.758 28.4109 150.758 28.6369 150.721C28.75 150.683 28.8253 150.608 28.8253 150.532V148.535H24.6052V147.857H28.8253V146.953H24.8312V146.274H30.9731V146.953H29.579V147.857H31.1992ZM30.4833 142.13V145.596H25.4718V142.13H30.4833ZM25.5095 149.063L26.0747 148.724C26.6776 149.251 27.1297 149.741 27.4312 150.193L26.8283 150.608C26.5269 150.155 26.1124 149.666 25.5095 149.063ZM29.7297 143.561V142.733H26.2631V143.561H29.7297ZM29.7297 144.993V144.127H26.2631V144.993H29.7297Z" fill="#1F1E1D"/>
<path d="M34.5151 148.045L34.2513 143.938L34.2136 142.695H35.4571L35.4194 143.938L35.1556 148.045H34.5151ZM34.2513 149.251H35.4571V150.457H34.2513V149.251Z" fill="#1F1E1D"/>
<path d="M136.854 38.5092V4.63468V0H132.182H98.3453V4.63468H132.182V38.5092H136.854Z" fill="#B18053"/>
</svg>
