<?xml version="1.0" encoding="utf-8"?>
<!-- Generator: Adobe Illustrator 25.2.3, SVG Export Plug-In . SVG Version: 6.00 Build 0)  -->
<svg version="1.1" id="圖層_1" xmlns="http://www.w3.org/2000/svg" xmlns:xlink="http://www.w3.org/1999/xlink" x="0px" y="0px"
	 viewBox="0 0 355.2 77" style="enable-background:new 0 0 355.2 77;" xml:space="preserve">
<style type="text/css">
	.st0{fill:#1F1E1D;}
	.st1{fill:#B18053;}
</style>
<path class="st0" d="M30.9,58.5V52H34v0.7h-2.4v5.8H30.9z"/>
<path class="st0" d="M39.1,53.4h3.6v7.8h-0.8v-0.5h-5.3v0.6h-0.8v-7.8h2.5c0.2-0.6,0.3-1,0.4-1.4l0.9,0.1
	C39.5,52.5,39.3,53,39.1,53.4z M41.9,54.2h-5.3v1.5h5.3V54.2z M41.9,56.3h-5.3v1.5h5.3V56.3z M36.6,60h5.3v-1.5h-5.3V60z"/>
<path class="st0" d="M48.8,54h3.5v7.2h-0.8v-0.6h-6.2v0.6h-0.8V54H48v-1.9h0.8L48.8,54L48.8,54z M48.1,54.8h-2.7v2.2h2.7V54.8z
	 M45.4,57.7v2.2h2.7v-2.2H45.4z M51.5,54.8h-2.8v2.2h2.8V54.8z M48.8,59.9h2.8v-2.2h-2.8V59.9z"/>
<path class="st0" d="M61.5,54l0.6,0.4c-0.8,1.3-1.9,2.5-3.3,3.8c-0.7,0.6-1.3,1.1-2,1.6c0.7,0.4,1.8,0.6,3.3,0.6c1.4,0,2.3,0,2.6,0
	c-0.1,0.3-0.3,0.5-0.3,0.7h-2.3c-1.5,0-2.6-0.2-3.4-0.6c-0.6-0.3-1-0.8-1.4-1.3c-0.4,0.8-0.8,1.5-1.2,2.1l-0.7-0.4
	c0.6-0.8,1.1-1.7,1.6-2.8c0.1-0.2,0.1-0.4,0.2-0.5l0.7,0.3c0,0.1-0.1,0.3-0.3,0.7c0.1,0.3,0.4,0.6,0.6,0.9c1.2-0.8,2.4-1.8,3.5-3.1
	c0.4-0.5,0.8-1,1.1-1.4h-6.8V54h3.6v-2h0.8v2h3H61.5z"/>
<path class="st0" d="M69.9,60.1h2.5v0.8h-9v-0.8H65v-7l0.7,0.2c2.1-0.3,3.8-0.6,4.8-1l0.6,0.6c-1.2,0.4-3,0.8-5.3,1.1v1.7h6.1v0.7
	h-2L69.9,60.1L69.9,60.1z M65.8,56.4v3.7h3.4v-3.7H65.8z"/>
<path class="st0" d="M76.2,54.8v6.5h-3.1v-0.7h2.4v-5.8H76.2z"/>
<path class="st0" d="M83.4,60.5v-0.8h1.6v-5.5h-1.3v-0.6c0.6-0.1,1.1-0.3,1.5-0.5H86v6.6h1.5v0.8H83.4z"/>
<path class="st0" d="M90.6,60.6c-0.8,0-1.4-0.3-1.9-0.8c-0.3-0.4-0.5-0.8-0.5-1.2c0-0.8,0.4-1.4,1-1.8c0.1-0.1,0.2-0.1,0.3-0.2v0
	c-0.6-0.5-1-1-1-1.7c0-0.7,0.3-1.2,0.8-1.5c0.4-0.2,0.8-0.4,1.2-0.4c0.8,0,1.4,0.3,1.7,0.8c0.2,0.3,0.3,0.7,0.3,1.1
	c0,0.6-0.3,1.1-0.8,1.6c-0.1,0.1-0.1,0.1-0.2,0.1v0c0.8,0.5,1.3,1.1,1.3,1.9c0,0.6-0.3,1.1-0.8,1.5C91.6,60.5,91.1,60.6,90.6,60.6z
	 M90.6,59.9c0.6,0,1-0.2,1.2-0.6c0.1-0.2,0.2-0.4,0.2-0.6c0-0.5-0.3-1-0.9-1.3c-0.2-0.1-0.6-0.3-1.1-0.5c-0.6,0.5-1,1-1,1.6
	c0,0.5,0.2,0.9,0.6,1.1C89.9,59.8,90.2,59.9,90.6,59.9z M91.1,56.5c0.5-0.5,0.8-0.9,0.8-1.5c0-0.5-0.2-0.9-0.6-1.1
	c-0.2-0.1-0.4-0.2-0.7-0.2c-0.5,0-0.8,0.2-1,0.6c-0.1,0.2-0.1,0.4-0.1,0.6c0,0.5,0.3,0.9,0.9,1.3C90.5,56.2,90.7,56.3,91.1,56.5z"/>
<path class="st0" d="M98.5,58.2l1.1-0.4l0.1,0.6c-0.7,0.3-1.6,0.7-2.8,1.2l-0.3-0.8c0.3-0.1,0.7-0.2,1.3-0.4v-3.3h-1.1v-0.7h1.1
	v-2.3h0.7v2.3h1v0.7h-1V58.2z M105.7,57v0.7H103v3.5h-0.7v-3.5h-2.7V57h2.7v-3.7h-2.4v-0.7h5.6v0.7H103V57H105.7z M100.2,54l0.6-0.1
	c0.3,0.9,0.5,1.7,0.6,2.4l-0.6,0.2C100.7,55.7,100.5,54.9,100.2,54z M104.3,56.5l-0.6-0.1c0.3-0.8,0.5-1.6,0.7-2.5l0.7,0.1
	C104.8,55.2,104.5,56.1,104.3,56.5z"/>
<path class="st0" d="M110.2,55.3c0.8,0.6,1.5,1.3,2.1,2.1c0,0,0.1,0.1,0.1,0.1l-0.7,0.6c-0.7-0.9-1.5-1.6-2.2-2.2L110.2,55.3z"/>
<path class="st0" d="M116.2,60.5v-0.5c1.8-1.6,2.9-2.9,3.3-3.9c0.1-0.3,0.1-0.5,0.1-0.8c0-0.7-0.2-1.1-0.7-1.3
	c-0.2-0.1-0.4-0.1-0.6-0.1c-0.5,0-1,0.3-1.5,0.9l-0.5-0.5c0.6-0.6,1.2-1,1.8-1.1c0.1,0,0.2,0,0.4,0c0.8,0,1.4,0.3,1.8,0.9
	c0.2,0.4,0.3,0.8,0.3,1.3c0,1-0.6,2.2-1.9,3.6c-0.3,0.3-0.6,0.7-1,1c0.6,0,1-0.1,1.2-0.1h2v0.8L116.2,60.5L116.2,60.5z"/>
<path class="st0" d="M121.8,60.5v-0.8h1.6v-5.5h-1.3v-0.6c0.6-0.1,1.1-0.3,1.5-0.5h0.7v6.6h1.5v0.8H121.8z"/>
<path class="st0" d="M131.5,58.2l1.1-0.4l0.1,0.6c-0.7,0.3-1.6,0.7-2.8,1.2l-0.3-0.8c0.3-0.1,0.7-0.2,1.3-0.4v-3.3h-1.1v-0.7h1.1
	v-2.3h0.7v2.3h1v0.7h-1V58.2z M138.7,57v0.7H136v3.5h-0.7v-3.5h-2.7V57h2.7v-3.7h-2.4v-0.7h5.6v0.7H136V57H138.7z M133.2,54l0.6-0.1
	c0.3,0.9,0.5,1.7,0.6,2.4l-0.6,0.2C133.7,55.7,133.6,54.9,133.2,54z M137.3,56.5l-0.6-0.1c0.3-0.8,0.5-1.6,0.7-2.5l0.7,0.1
	C137.8,55.2,137.5,56.1,137.3,56.5z"/>
<path class="st0" d="M143.2,55.3c0.8,0.6,1.5,1.3,2.1,2.1c0,0,0.1,0.1,0.1,0.1l-0.7,0.6c-0.7-0.9-1.5-1.6-2.2-2.2L143.2,55.3z"/>
<path class="st0" d="M151.4,60.6c-1,0-1.7-0.3-2.4-1l0.5-0.6c0.5,0.5,1.1,0.8,1.8,0.9c0.6,0,1-0.2,1.3-0.6c0.1-0.2,0.2-0.5,0.2-0.8
	c0-1-0.8-1.5-2.3-1.5v-0.7c1.4,0,2-0.5,2-1.4c0-0.5-0.2-0.9-0.7-1.1c-0.2-0.1-0.4-0.1-0.6-0.1c-0.5,0-1,0.3-1.5,0.8l-0.5-0.6
	c0.6-0.6,1.3-0.9,2-0.9c0.8,0,1.4,0.3,1.8,0.8c0.2,0.3,0.3,0.7,0.3,1.1c0,0.8-0.4,1.3-1.1,1.7c-0.1,0-0.1,0.1-0.2,0.1v0
	c0.6,0.1,1.1,0.5,1.4,1c0.1,0.3,0.2,0.6,0.2,0.9c0,0.8-0.3,1.3-0.9,1.7C152.5,60.5,152,60.6,151.4,60.6z"/>
<path class="st0" d="M154.7,60.5v-0.8h1.6v-5.5h-1.3v-0.6c0.6-0.1,1.1-0.3,1.5-0.5h0.7v6.6h1.5v0.8H154.7z"/>
<path class="st0" d="M164.4,58.2l1.1-0.4l0.1,0.6c-0.7,0.3-1.6,0.7-2.8,1.2l-0.3-0.8c0.3-0.1,0.7-0.2,1.3-0.4v-3.3h-1.1v-0.7h1.1
	v-2.3h0.7v2.3h1v0.7h-1V58.2z M171.6,57v0.7h-2.8v3.5h-0.7v-3.5h-2.7V57h2.7v-3.7h-2.4v-0.7h5.6v0.7h-2.5V57H171.6z M166.1,54
	l0.6-0.1c0.3,0.9,0.5,1.7,0.6,2.4l-0.6,0.2C166.6,55.7,166.4,54.9,166.1,54z M170.2,56.5l-0.6-0.1c0.3-0.8,0.5-1.6,0.7-2.5l0.7,0.1
	C170.6,55.2,170.4,56.1,170.2,56.5z"/>
<path class="st0" d="M176.1,55.3c0.8,0.6,1.5,1.3,2.1,2.1c0,0,0.1,0.1,0.1,0.1l-0.7,0.6c-0.7-0.9-1.5-1.6-2.2-2.2L176.1,55.3z"/>
<path class="st0" d="M186.9,57.7v0.8h-1v2h-0.9v-2h-3.2v-0.6l3.1-4.7h1v4.6H186.9z M182.8,57.7h2.3v-2.3c0-0.1,0-0.6,0.1-1.3h0
	c-0.2,0.3-0.4,0.7-0.6,1.1L182.8,57.7z"/>
<path class="st0" d="M189.5,60.6c-1,0-1.7-0.3-2.4-1l0.5-0.6c0.5,0.5,1.1,0.8,1.8,0.9c0.6,0,1-0.2,1.3-0.6c0.1-0.2,0.2-0.5,0.2-0.8
	c0-1-0.8-1.5-2.3-1.5v-0.7c1.4,0,2-0.5,2-1.4c0-0.5-0.2-0.9-0.7-1.1c-0.2-0.1-0.4-0.1-0.6-0.1c-0.5,0-1,0.3-1.5,0.8l-0.5-0.6
	c0.6-0.6,1.3-0.9,2-0.9c0.8,0,1.4,0.3,1.8,0.8c0.2,0.3,0.3,0.7,0.3,1.1c0,0.8-0.4,1.3-1.1,1.7c-0.1,0-0.1,0.1-0.2,0.1v0
	c0.6,0.1,1.1,0.5,1.4,1c0.1,0.3,0.2,0.6,0.2,0.9c0,0.8-0.3,1.3-0.9,1.7C190.5,60.5,190,60.6,189.5,60.6z"/>
<path class="st0" d="M196.6,58.2l1.1-0.4l0.1,0.6c-0.7,0.3-1.6,0.7-2.8,1.2l-0.3-0.8c0.3-0.1,0.7-0.2,1.3-0.4v-3.3h-1.1v-0.7h1.1
	v-2.3h0.7v2.3h1v0.7h-1V58.2z M203.8,57v0.7H201v3.5h-0.7v-3.5h-2.7V57h2.7v-3.7h-2.4v-0.7h5.6v0.7H201V57H203.8z M198.3,54l0.6-0.1
	c0.3,0.9,0.5,1.7,0.6,2.4l-0.6,0.2C198.8,55.7,198.6,54.9,198.3,54z M202.4,56.5l-0.6-0.1c0.3-0.8,0.5-1.6,0.7-2.5l0.7,0.1
	C202.9,55.2,202.6,56.1,202.4,56.5z"/>
<path class="st0" d="M209.2,57h-0.8v-1.3h1.3v1c0,0.7-0.3,1.2-0.9,1.6c-0.1,0.1-0.2,0.1-0.2,0.1l-0.3-0.4
	C209,57.8,209.2,57.5,209.2,57z"/>
<path class="st0" d="M214.7,60.5v-0.8h1.6v-5.5h-1.3v-0.6c0.6-0.1,1.1-0.3,1.5-0.5h0.7v6.6h1.5v0.8H214.7z"/>
<path class="st0" d="M219.1,58v-0.7h2.6V58H219.1z"/>
<path class="st0" d="M224.4,60.6c-1,0-1.7-0.3-2.4-1l0.5-0.6c0.5,0.5,1.1,0.8,1.8,0.9c0.6,0,1-0.2,1.3-0.6c0.1-0.2,0.2-0.5,0.2-0.8
	c0-1-0.8-1.5-2.3-1.5v-0.7c1.4,0,2-0.5,2-1.4c0-0.5-0.2-0.9-0.7-1.1c-0.2-0.1-0.4-0.1-0.6-0.1c-0.5,0-1,0.3-1.5,0.8l-0.5-0.6
	c0.6-0.6,1.3-0.9,2-0.9c0.8,0,1.4,0.3,1.8,0.8c0.2,0.3,0.3,0.7,0.3,1.1c0,0.8-0.4,1.3-1.1,1.7c-0.1,0-0.1,0.1-0.2,0.1v0
	c0.6,0.1,1.1,0.5,1.4,1c0.1,0.3,0.2,0.6,0.2,0.9c0,0.8-0.3,1.3-0.9,1.7C225.4,60.5,224.9,60.6,224.4,60.6z"/>
<path class="st0" d="M238.6,57.7h-4.4c0,0.3-0.1,0.5-0.1,0.8h3.5c0,0,0,0.1,0,0.3c-0.1,1.2-0.3,1.9-0.5,2.2c0,0,0,0-0.1,0.1
	c-0.2,0.1-0.4,0.2-0.7,0.3c-0.3,0-0.7,0-1.3,0c0-0.3-0.1-0.5-0.2-0.6c0.3,0,0.7,0,1.2,0c0.2,0,0.3,0,0.4-0.1
	c0.2-0.2,0.3-0.7,0.4-1.5h-2.9c-0.3,0.9-1,1.5-1.9,1.9c-0.3,0.1-0.5,0.2-0.8,0.3c-0.1-0.2-0.2-0.4-0.4-0.6c1.1-0.3,1.9-0.8,2.3-1.6
	c0.2-0.4,0.3-0.9,0.4-1.4h-2.1c-0.1,1.4-0.6,2.6-1.2,3.5c-0.1-0.2-0.3-0.3-0.5-0.5c0,0-0.1,0-0.1-0.1c0.7-0.9,1.1-2.3,1.1-4
	c0-0.1,0-0.3,0-0.5v-3.5l0.7,0.2c2.5-0.1,4.4-0.3,5.7-0.5l0.5,0.6c-1.5,0.3-3.5,0.5-6.2,0.6v0.6h6.5v2.2h-6.5c0,0.3,0,0.6,0,0.9h2.8
	v-0.9h0.8v0.9h3.7L238.6,57.7L238.6,57.7z M237.1,54.6h-5.8v1h5.8V54.6z"/>
<path class="st0" d="M241.2,56.3c0.1,0.1,0.2,0.2,0.3,0.4c0.1,0.2,0.3,0.4,0.4,0.5c0.1,0.2,0.2,0.4,0.4,0.5c0.1,0.2,0.2,0.3,0.2,0.4
	l-0.5,0.6c0-0.1-0.1-0.2-0.1-0.3c-0.1-0.1-0.1-0.3-0.2-0.4c-0.1-0.1-0.1-0.3-0.2-0.4c-0.1-0.1-0.1-0.3-0.2-0.4v3.9h-0.7v-3.7
	c-0.1,0.5-0.3,1-0.5,1.4c-0.2,0.4-0.4,0.8-0.6,1.1c0-0.1-0.1-0.3-0.2-0.4c-0.1-0.1-0.1-0.3-0.2-0.4c0.1-0.2,0.3-0.4,0.4-0.6
	c0.1-0.3,0.3-0.5,0.4-0.8c0.1-0.3,0.2-0.6,0.4-0.9c0.1-0.3,0.2-0.6,0.3-0.9h-1.3v-0.7h1.4V52h0.7v3.3h1.1v0.7h-1.1V56.3z M239.8,55
	c0-0.1,0-0.3-0.1-0.5c0-0.2-0.1-0.4-0.1-0.6c0-0.2-0.1-0.4-0.2-0.6c-0.1-0.2-0.1-0.4-0.2-0.5l0.5-0.1c0.1,0.2,0.1,0.4,0.2,0.5
	c0.1,0.2,0.1,0.4,0.2,0.6c0,0.2,0.1,0.4,0.1,0.5c0,0.2,0.1,0.4,0.1,0.5L239.8,55z M241.3,54.9c0-0.1,0.1-0.3,0.2-0.5
	c0.1-0.2,0.1-0.4,0.2-0.6c0.1-0.2,0.1-0.4,0.2-0.6c0-0.2,0.1-0.4,0.1-0.5l0.6,0.1c-0.1,0.2-0.1,0.4-0.2,0.6
	c-0.1,0.2-0.1,0.4-0.2,0.6c-0.1,0.2-0.1,0.4-0.2,0.6c-0.1,0.2-0.1,0.4-0.2,0.5L241.3,54.9z M248.3,55.3v0.6h-5.6v-0.6h2.4v-0.7h-1.9
	v-0.5h1.9v-0.6h-2.1v-0.6h2.1v-0.8h0.7v0.8h2.3v0.6h-2.3v0.6h2v0.5h-2v0.7H248.3z M247.6,60.5c0,0.2,0,0.3-0.1,0.4
	c0,0.1-0.1,0.2-0.3,0.2c-0.1,0-0.3,0.1-0.5,0.1c-0.2,0-0.5,0-0.8,0c0-0.1,0-0.2-0.1-0.3c0-0.1-0.1-0.2-0.1-0.3c0.2,0,0.4,0,0.6,0
	c0.2,0,0.3,0,0.4,0c0.1,0,0.1,0,0.1,0c0,0,0-0.1,0-0.1v-0.9H244v1.6h-0.7v-4.7h4.3L247.6,60.5L247.6,60.5z M244,57v0.8h2.9V57H244z
	 M246.9,59.1v-0.8H244v0.8H246.9z"/>
<path class="st0" d="M249,61.2v-4.4h3.5v4.3h-0.8v-0.5h-2.1v0.5L249,61.2L249,61.2z M251.9,57.6h-2.1V60h2.1V57.6z M255.9,52.5v3.3
	h-5.4v-3.3H255.9z M255.2,55.1v-1.9h-4v1.9H255.2z M253.7,56.9h3.7v4.3h-0.8v-0.5h-2.3v0.5h-0.7V56.9z M254.4,60h2.3v-2.4h-2.3V60z"
	/>
<path class="st0" d="M262.9,52.9h3.9v1.8H266v-1.2h-7v1.2h-0.7v-1.8h3.8v-0.9h0.8L262.9,52.9L262.9,52.9z M266.3,57.8v2.7
	c0,0.3-0.1,0.5-0.3,0.6c0,0-0.1,0-0.1,0c-0.2,0.1-0.6,0.1-1.3,0.1c0-0.2-0.1-0.4-0.2-0.6c0.5,0,0.9,0,1,0c0.1,0,0.1-0.1,0.2-0.1
	v-2.1h-2.8v0.9l1.2,0c-0.1-0.1-0.3-0.3-0.5-0.5l0.5-0.2c0.5,0.5,0.9,0.9,1.1,1.4c0,0,0,0.1,0.1,0.1l-0.5,0.3
	c-0.1-0.2-0.2-0.3-0.3-0.5c-0.4,0-0.9,0-1.7,0.1c-1.3,0.1-2.2,0.1-2.7,0.1l0-0.6c0.1,0,0.4,0,0.8,0c0.6,0,1,0,1.4,0v-0.9h-2.6v2.8
	h-0.7v-3.5h3.4v-0.6h-2.4v-2.9h5.6v2.9h-2.5v0.6L266.3,57.8L266.3,57.8z M260.4,54.7v0.7h1.8v-0.7H260.4z M260.4,56.6h1.8v-0.7h-1.8
	V56.6z M264.7,55.4v-0.7h-1.8v0.7H264.7z M264.7,56.6v-0.7h-1.8v0.7H264.7z"/>
<path class="st0" d="M271.8,57.7h-3c-0.1,1.5-0.4,2.6-0.9,3.5c-0.1-0.2-0.2-0.3-0.5-0.4c0,0-0.1,0-0.1,0c0.5-0.9,0.7-2.1,0.7-3.9
	c0-0.1,0-0.2,0-0.4v-3.5l0.5,0.1c1.3-0.3,2.1-0.6,2.7-0.9l0.6,0.6c-0.7,0.3-1.7,0.6-3,0.9v0.9h3L271.8,57.7L271.8,57.7z M271.1,55.2
	h-2.3v1.3c0,0.3,0,0.4,0,0.5h2.3L271.1,55.2L271.1,55.2z M276.7,55.4v0.7h-1.1v5h-0.7v-5h-1.7c-0.1,2.2-0.6,3.9-1.7,5
	c-0.1-0.2-0.3-0.4-0.5-0.5c0,0,0,0-0.1,0c0.9-1,1.4-2.4,1.5-4.3c0-0.2,0-0.4,0-0.7V53l0.6,0.1c1.3-0.3,2.2-0.7,2.8-1l0.7,0.6
	c-0.8,0.4-1.9,0.8-3.4,1.1v1.6H276.7z"/>
<path class="st0" d="M33.5,71.6l0.1,0.7c-0.1,0-0.3,0.1-0.6,0.2c-0.4,0.1-0.7,0.2-0.9,0.3v2.8c0,0.4-0.1,0.6-0.3,0.7c0,0,0,0-0.1,0
	c-0.2,0.1-0.7,0.1-1.4,0.1c0-0.2-0.1-0.5-0.3-0.7c0.3,0,0.7,0,1,0c0.1,0,0.2-0.1,0.2-0.2v-2.5c-0.2,0-0.4,0.1-0.8,0.3
	c-0.3,0.1-0.5,0.1-0.6,0.2l-0.2-0.8c0.1,0,0.4-0.1,0.8-0.2c0.4-0.1,0.6-0.2,0.9-0.2v-2.1h-1.5v-0.7h1.5v-2h0.8v2h1.4v0.7h-1.4V72
	L33.5,71.6z M38.9,68.2v0.8h-1.8v6.5c0,0.4-0.1,0.7-0.4,0.8c0,0-0.1,0-0.1,0.1c-0.3,0.1-0.9,0.1-1.9,0.1c-0.1-0.3-0.2-0.5-0.3-0.8
	c0.8,0,1.3,0,1.7,0c0.2,0,0.3-0.1,0.3-0.3v-6.5h-2.9v-0.8L38.9,68.2L38.9,68.2z"/>
<path class="st0" d="M41.4,71.9v2.5c0.5,0.7,1.3,1.1,2.5,1.1c1.5,0,3,0,4.4-0.1c0.1,0,0.1,0,0.2,0c-0.1,0.2-0.2,0.5-0.3,0.7
	c-1.5,0-3,0.1-4.3,0c-1.2,0-2.1-0.4-2.8-1c0,0-0.1-0.1-0.1-0.1c-0.4,0.3-0.8,0.8-1.4,1.3l-0.4-0.8c0.5-0.4,1-0.8,1.4-1.1v-1.9h-1.3
	v-0.7H41.4z M41.6,70.6l-0.5,0.5c-0.3-0.4-0.9-0.8-1.6-1.1c0,0-0.1,0-0.1,0l0.5-0.5C40.6,69.8,41.2,70.2,41.6,70.6
	C41.6,70.6,41.6,70.6,41.6,70.6z M41.9,68.6l-0.5,0.5c-0.3-0.4-0.8-0.8-1.5-1.2c0,0-0.1,0-0.1-0.1l0.5-0.5
	C41.1,67.9,41.6,68.3,41.9,68.6z M44.7,69.2h-1.5c-0.2,0.4-0.5,0.7-0.8,1.1c-0.2-0.1-0.4-0.3-0.6-0.4c0.6-0.6,1.1-1.4,1.4-2.4
	c0,0,0,0,0-0.1l0.7,0.2c-0.1,0.2-0.2,0.5-0.4,1h1.1v-1.3h0.8v1.3h2.4v0.6h-2.4v1.3h2.8v0.6h-6.4v-0.6h2.8V69.2z M47.6,75h-0.8v-0.3
	h-3.3V75h-0.7v-3.1h4.7L47.6,75L47.6,75z M43.5,74h3.3v-1.5h-3.3V74z"/>
<path class="st0" d="M58.1,72.1h-3.3v1.2h2.5v3.2h-0.8v-0.3h-4.2v0.4h-0.7v-3.2h2.4v-1.2h-3v-0.6h3v-1.1H51v0.5
	c0,2.6-0.4,4.5-1.2,5.7c-0.2-0.1-0.4-0.3-0.6-0.4c0.7-1.1,1.1-2.7,1.1-4.9c0-0.1,0-0.3,0-0.4v-2.9h7.3v2.4h-2.6v1.1h3.3L58.1,72.1
	L58.1,72.1z M50.9,68.5v1.1h5.8v-1.1H50.9z M56.7,75.4v-1.5h-4.2v1.5H56.7z"/>
<path class="st0" d="M61.5,67.3l0.7,0.2c-0.3,0.8-0.6,1.4-1,2.1v6.8h-0.7v-5.8c-0.4,0.5-0.8,1-1.1,1.3c-0.1-0.3-0.3-0.5-0.4-0.7
	c0.9-0.8,1.6-1.9,2.2-3.1C61.2,67.9,61.4,67.6,61.5,67.3z M65.4,75.4h2.8v0.7h-6.4v-0.7h2.9v-2.5h-2.3v-0.7h2.3v-2.2h-2.6v-0.7h3.4
	c-0.5-0.5-1.2-1-2-1.5c0,0,0,0,0,0l0.5-0.5c1,0.6,1.7,1.1,2.2,1.5l-0.4,0.5h2.4v0.7h-2.7v2.2h2.4v0.7h-2.4V75.4z"/>
<path class="st0" d="M72.7,70.5c0.8,0.6,1.5,1.3,2.1,2.1c0,0,0.1,0.1,0.1,0.1l-0.7,0.6c-0.7-0.9-1.5-1.6-2.2-2.2L72.7,70.5z"/>
<path class="st0" d="M83.7,74.9h4.1v0.8h-8.9v-0.8h4v-5.8h-3.5v-0.8h7.9v0.8h-3.6V74.9z"/>
<path class="st0" d="M90.3,67.3l0.7,0.3c-0.3,0.6-0.6,1.4-1,2.1v6.7h-0.8v-5.6c-0.3,0.4-0.6,0.9-1,1.2c-0.1-0.3-0.3-0.5-0.4-0.7
	c0,0,0,0,0,0c0.9-0.8,1.6-1.9,2.1-3.2C90.1,67.8,90.2,67.6,90.3,67.3z M97,69.7H94v1.4h2.9v0.7H94v1.5h3V74h-3v2.4h-0.8v-6.8h-0.7
	c-0.5,0.8-0.9,1.5-1.4,2.1c-0.2-0.2-0.4-0.4-0.6-0.5c0.8-0.8,1.5-1.9,2-3.3c0.1-0.2,0.1-0.4,0.2-0.6l0.7,0.2
	c-0.1,0.3-0.3,0.8-0.5,1.4h4.2L97,69.7L97,69.7z"/>
<path class="st0" d="M101.5,70.5c0.8,0.6,1.5,1.3,2.1,2.1c0,0,0.1,0.1,0.1,0.1l-0.7,0.6c-0.7-0.9-1.5-1.6-2.2-2.2L101.5,70.5z"/>
<path class="st0" d="M109.5,67.3l0.7,0.2c-0.3,0.8-0.5,1.4-0.8,1.9v7h-0.7v-5.7c-0.4,0.5-0.7,1-1,1.3c-0.1-0.3-0.3-0.5-0.4-0.8
	c0.8-0.9,1.5-2,2-3.5C109.4,67.7,109.4,67.5,109.5,67.3z M110.5,67.9h5.8v8.4h-0.7v-0.5h-4.4v0.6h-0.7V67.9z M111.2,75.2h4.4v-6.6
	h-4.4V75.2z M115.3,70.6h-1.5v1.1h1.1v2.7H112v-2.7h1.1v-1.1h-1.5V70h1.5v-1.1h0.6V70h1.5L115.3,70.6L115.3,70.6z M114.3,73.8v-1.5
	h-1.7v1.5H114.3z"/>
<path class="st0" d="M117.8,71.9l-0.6-0.2c0.3-0.6,0.4-1.5,0.5-2.6l0.6,0.1C118.2,70.3,118.1,71.1,117.8,71.9
	C117.8,71.9,117.8,71.9,117.8,71.9z M118.6,76.5v-9.2h0.8v9.2H118.6z M119.4,69.1l0.5-0.3c0.4,0.6,0.6,1.2,0.8,1.7l-0.6,0.3
	C120,70.4,119.8,69.8,119.4,69.1z M123.8,75.4h2.5v0.7h-6.1v-0.7h2.9v-2.5H121v-0.7h2.1v-2.1h-1.5c-0.2,0.6-0.4,1.1-0.7,1.5
	c-0.1-0.1-0.3-0.2-0.7-0.3c0.5-0.8,0.9-2,1.2-3.6l0.7,0.1c-0.1,0.5-0.2,1-0.4,1.5h1.3v-2.1h0.8v2.1h2.3v0.7h-2.3v2.1h2v0.7h-2V75.4z
	"/>
<path class="st0" d="M130.9,70.5c0.8,0.6,1.5,1.3,2.1,2.1c0,0,0.1,0.1,0.1,0.1l-0.7,0.6c-0.7-0.9-1.5-1.6-2.2-2.2L130.9,70.5z"/>
<path class="st0" d="M145.8,68.9H144c-0.1,0.2-0.3,0.6-0.6,1h2.1v5.5c0,0.4-0.1,0.6-0.4,0.8c0,0,0,0-0.1,0c-0.3,0.1-0.8,0.1-1.7,0.1
	c0-0.3-0.1-0.5-0.3-0.7c0.6,0,1.1,0,1.4,0c0.1,0,0.2-0.1,0.2-0.2v-4.9h-2.1v1c0,0.1,0,0.2,0.1,0.2c0,0,0.1,0,0.2,0h0.9
	c0.1,0,0.2,0,0.2-0.1c0-0.1,0-0.3,0.1-0.5c0.1,0.1,0.3,0.2,0.6,0.3c0,0.5-0.2,0.8-0.4,0.9c-0.1,0.1-0.3,0.1-0.4,0.1h-1
	c-0.4,0-0.7-0.1-0.8-0.3c-0.1-0.1-0.1-0.3-0.1-0.5v-1h-1.2c-0.1,0.7-0.3,1.3-0.7,1.6c-0.3,0.3-0.8,0.4-1.3,0.6
	c-0.1-0.2-0.2-0.4-0.4-0.5c0.8-0.1,1.3-0.4,1.5-0.8c0.1-0.2,0.2-0.5,0.3-0.9h-1.8v5.8h-0.7V70h2c-0.1-0.3-0.3-0.6-0.5-1h-1.9v-0.7
	h3.9v-0.9h0.8v0.9h4L145.8,68.9L145.8,68.9z M143.5,75.4h-3.1V76h-0.6v-3.1h3.8L143.5,75.4L143.5,75.4z M140.4,70h2.1
	c0.3-0.4,0.4-0.8,0.5-1H140C140.2,69.3,140.3,69.7,140.4,70z M142.8,73.5h-2.4v1.3h2.4V73.5z"/>
<path class="st0" d="M150,73.3l-0.5-0.3c0.2-0.4,0.4-1,0.5-1.6h-1v4.1c0,0.3-0.1,0.6-0.3,0.7c0,0,0,0-0.1,0
	c-0.2,0.1-0.6,0.1-1.3,0.1c0-0.3-0.1-0.5-0.2-0.7c0.3,0,0.6,0,1,0c0.1,0,0.1-0.1,0.1-0.1v-3.2c-0.5,1.1-0.9,1.9-1.5,2.5
	c-0.1-0.2-0.2-0.4-0.4-0.7c0.5-0.5,1-1.3,1.4-2.2c0.1-0.1,0.1-0.3,0.2-0.5h-1.5v-0.6h2.7c-0.5-0.5-1.2-0.9-2-1.3
	c-0.1,0-0.1-0.1-0.2-0.1l0.5-0.5c0.3,0.1,0.6,0.3,1,0.5c0.4-0.3,0.8-0.6,1-1h-2.8v-0.6h3.4l0.1,0l0.5,0.3c-0.4,0.6-0.9,1.2-1.6,1.7
	c0.3,0.2,0.6,0.4,0.9,0.6l-0.4,0.4h0.8l0.1,0l0.5,0.2c0,0-0.1,0.2-0.1,0.5c0.7-0.2,1.3-0.5,1.8-0.8c-0.4-0.4-0.8-0.8-1-1.2
	c-0.3,0.4-0.6,0.6-0.7,0.7c-0.2-0.2-0.4-0.3-0.6-0.4c0.7-0.5,1.3-1.2,1.7-2.1c0.1-0.1,0.1-0.3,0.2-0.4l0.7,0.2
	c-0.1,0.2-0.3,0.5-0.5,0.9h3.3V69h-0.8c-0.3,0.6-0.7,1.2-1.2,1.7c0.7,0.4,1.4,0.7,2.2,0.9c-0.2,0.2-0.4,0.4-0.5,0.6
	c-0.9-0.3-1.6-0.6-2.3-1.1c-0.6,0.4-1.3,0.8-2.2,1c0-0.1-0.1-0.3-0.2-0.4C150.4,72.4,150.2,72.9,150,73.3z M153.1,72.9h2.3
	c0,0,0,0.1,0,0.3c-0.1,1.5-0.4,2.5-0.6,2.8c0,0-0.1,0.1-0.1,0.1c-0.1,0.1-0.4,0.2-0.6,0.3c-0.4,0-0.8,0-1.1,0c0-0.3-0.1-0.5-0.2-0.7
	c0.4,0,0.7,0,1,0c0.1,0,0.3,0,0.4-0.1c0.2-0.2,0.4-0.9,0.5-2.1H153c-0.3,1.1-0.9,2-1.8,2.5c-0.3,0.2-0.5,0.3-0.9,0.4
	c-0.1-0.3-0.3-0.4-0.4-0.6c1.1-0.4,1.8-1.1,2.2-2c0-0.1,0.1-0.2,0.1-0.3h-1.5v-0.6h1.7c0-0.3,0.1-0.6,0.1-1h0.8
	C153.2,72.2,153.1,72.5,153.1,72.9z M154,69h-2.1c0.3,0.5,0.6,0.9,1.1,1.3C153.5,69.9,153.8,69.5,154,69z"/>
<path class="st0" d="M161.1,72.3h-0.8V71h1.3v1c0,0.7-0.3,1.2-0.9,1.6c-0.1,0.1-0.2,0.1-0.2,0.1l-0.2-0.4
	C160.9,73.1,161.1,72.7,161.1,72.3z"/>
<path class="st0" d="M170.6,74.5l-0.4,0.5c-0.2-0.3-0.6-0.6-1.1-1.1v2.5h-0.7v-2.6c-0.5,0.8-1.1,1.5-1.7,1.9
	c-0.1-0.2-0.3-0.4-0.5-0.5c0.6-0.4,1.1-1,1.7-1.8c0.1-0.2,0.2-0.4,0.3-0.5h-1.8v-0.6h2v-1.1h-2v-0.6h4.7v0.6H169v1.1h1.9v0.6H169
	v0.3C169.6,73.6,170.1,74,170.6,74.5C170.6,74.4,170.6,74.4,170.6,74.5z M170.8,68.3V69h-4.4v-0.6h1.8v-1h0.7v1H170.8z M168.1,70.4
	l-0.6,0.2c0-0.4-0.2-0.9-0.4-1.4l0.6-0.1C167.8,69.5,168,69.9,168.1,70.4z M169.7,70.6l-0.6-0.1c0.3-0.6,0.4-1.1,0.5-1.4l0.7,0.1
	C170,69.8,169.8,70.3,169.7,70.6z M175.4,70.7v0.7h-1.1v5h-0.7v-5H172v0.3c0,2-0.4,3.6-1.3,4.6c-0.1,0.1-0.2,0.2-0.3,0.3
	c-0.1-0.1-0.2-0.3-0.5-0.5c0,0,0,0-0.1,0c0.9-0.8,1.3-2.1,1.4-3.7c0-0.2,0-0.4,0-0.7v-3.5l0.5,0.2c1.3-0.3,2.2-0.6,2.8-0.9l0.6,0.6
	c-0.7,0.3-1.8,0.6-3.2,0.9v1.8h3.3V70.7z"/>
<path class="st0" d="M180.9,75.4h4.1v0.7h-9v-0.7h4.2v-1.3H177v-0.7h3.1v-1.1h0.8v1.1h3v0.7h-3V75.4z M179.4,70.4h-1.3
	c-0.1,1-0.6,1.9-1.5,2.4c-0.1-0.2-0.3-0.4-0.5-0.5c0.7-0.5,1.2-1.1,1.3-1.9h-1.2v-0.6h1.3v-1.4h-0.9v-0.6h4.5v0.6h-0.9v1.4h1.1v0.6
	h-1.1v2.1h-0.7V70.4z M178.2,69.7h1.2v-1.4h-1.2V69.7z M182.6,67.9v3.3h-0.7v-3.3H182.6z M184.4,67.4v4.5c0,0.3-0.1,0.5-0.2,0.6
	c0,0-0.1,0-0.1,0.1c-0.2,0.1-0.8,0.1-1.5,0.1c0-0.2-0.1-0.4-0.2-0.7c0.6,0,1,0,1.2,0c0.1,0,0.2-0.1,0.2-0.2v-4.4L184.4,67.4
	L184.4,67.4z"/>
<path class="st0" d="M186.4,76.3l-0.6-0.4c0.6-0.4,1.1-0.9,1.4-1.7l0.6,0.3C187.5,75.3,187,75.9,186.4,76.3z M186,69.4l0-0.6l0.8,0
	c0.3-0.5,0.6-1,0.8-1.5l0.7,0.2c-0.4,0.6-0.6,1-0.8,1.3l1.9-0.1c-0.1-0.2-0.4-0.4-0.6-0.6l0.5-0.3c0.5,0.5,1,0.9,1.3,1.4
	c0,0.1,0.1,0.1,0.1,0.2l-0.6,0.3c-0.1-0.2-0.2-0.4-0.3-0.5c-0.4,0-1,0-1.9,0.1C187,69.3,186.3,69.3,186,69.4z M189.3,74l0.4-0.4
	c-0.2,0-0.5,0.1-1.1,0.1c0-0.1-0.1-0.3-0.2-0.5c0.5,0,0.8,0,0.9,0c0.1,0,0.1-0.1,0.1-0.1v-0.6h-2.2v1.3h-0.7v-3.9h3.5V73
	c0,0.3-0.1,0.5-0.2,0.5c0.7,0.3,1.3,0.7,1.6,1l-0.5,0.5C190.6,74.7,190.1,74.3,189.3,74C189.4,74,189.3,74,189.3,74z M189.4,70.4
	h-2.1v0.5h2.2L189.4,70.4L189.4,70.4z M187.2,72h2.2v-0.5h-2.2V72z M189.8,75.7h1.9c0.2,0,0.4-0.1,0.4-0.2c0-0.1,0.1-0.4,0.1-0.7
	c0.2,0.1,0.4,0.2,0.6,0.3c0,0.6-0.2,1-0.4,1.1c-0.1,0.1-0.4,0.2-0.8,0.2h-2c-0.6,0-1-0.1-1.1-0.3c-0.1-0.1-0.1-0.3-0.1-0.6v-1.2h0.7
	v1.2c0,0.1,0.1,0.2,0.2,0.3C189.4,75.7,189.6,75.7,189.8,75.7z M193.8,70.4H192c-0.5,0-0.9-0.1-1-0.3c-0.1-0.1-0.1-0.4-0.1-0.6v-2.1
	h0.7v1c1-0.3,1.7-0.5,2.1-0.8l0.5,0.5c-0.6,0.3-1.5,0.6-2.7,0.9v0.5c0,0.1,0,0.3,0.1,0.3c0.1,0,0.2,0,0.4,0h1.6
	c0.2,0,0.3-0.1,0.4-0.2c0-0.1,0.1-0.3,0.1-0.7c0.1,0.1,0.4,0.2,0.6,0.3c0,0.6-0.2,0.9-0.4,1.1C194.3,70.3,194,70.4,193.8,70.4z
	 M193.8,73.8H192c-0.5,0-0.9-0.1-1-0.3c-0.1-0.1-0.1-0.4-0.1-0.6v-2.3h0.7v1.1c1.1-0.3,1.8-0.6,2.3-0.8l0.6,0.5
	c-0.6,0.3-1.6,0.6-2.8,0.9v0.6c0,0.1,0,0.3,0.1,0.3c0.1,0,0.2,0,0.4,0h1.6c0.2,0,0.3-0.1,0.4-0.2c0-0.1,0.1-0.4,0.1-0.7
	c0.1,0.1,0.4,0.2,0.6,0.3c0,0.6-0.2,1-0.4,1.1C194.3,73.7,194.1,73.8,193.8,73.8z M192.6,74.4l0.6-0.4c0.6,0.4,1.2,0.9,1.6,1.5
	c0.1,0.1,0.1,0.2,0.2,0.3l-0.6,0.4c-0.2-0.5-0.7-1-1.4-1.5C192.9,74.6,192.7,74.5,192.6,74.4z"/>
<path class="st0" d="M200.6,75.4h4v0.7h-8.9v-0.7h4v-2.5h-3v-0.7h3V70h-2.4c-0.3,0.7-0.7,1.2-1,1.6c-0.2-0.2-0.4-0.3-0.7-0.4
	c0.8-0.8,1.4-2,1.8-3.5c0,0,0-0.1,0-0.1l0.8,0.2c-0.2,0.6-0.4,1.1-0.6,1.6h2v-1.9h0.8v1.9h3.6V70h-3.6v2.2h3.2v0.7h-3.2L200.6,75.4
	L200.6,75.4z"/>
<path class="st0" d="M207.6,71.2l-0.4,0.6c-0.5-0.3-1.1-0.7-1.8-1.1l0.4-0.5C206.8,70.6,207.4,70.9,207.6,71.2z M206.2,76.3
	l-0.6-0.5c0.6-0.9,1.3-1.9,1.9-3.2l0.5,0.5C207.5,74.2,206.9,75.3,206.2,76.3z M208.2,68.4l-0.4,0.6c-0.4-0.3-1-0.6-1.9-1.1l0.4-0.5
	C207.1,67.8,207.7,68.2,208.2,68.4z M214.5,70.9h-2.8v1.6h2.1v3.8h-0.7v-0.4h-3.6v0.4h-0.7v-3.9h2.1V71h-2.9v-0.7h2.9v-1.6
	c-0.8,0.1-1.5,0.2-2.2,0.3c0-0.2-0.1-0.4-0.2-0.6c2.2-0.2,3.8-0.5,4.8-0.9l0.6,0.6c-0.7,0.2-1.4,0.4-2.3,0.6v1.7h2.8V70.9z
	 M213.1,75.3v-2h-3.6v2.1L213.1,75.3L213.1,75.3z"/>
<path class="st0" d="M218.2,72.5l0.2,0.7c-0.8,0.4-1.8,0.9-2.9,1.4l-0.3-0.7c0.4-0.2,0.9-0.4,1.4-0.6v-3.1h-1.2v-0.7h1.2v-2.1h0.7
	v2.1h1.1v0.7h-1.1V73L218.2,72.5z M224.4,72h-4.1c-0.1,0.2-0.3,0.5-0.4,0.7h4.3c0,0,0,0.1,0,0.3c-0.1,1.6-0.3,2.6-0.5,3
	c0,0.1-0.1,0.1-0.1,0.1c-0.1,0.1-0.3,0.2-0.6,0.3c-0.3,0-0.6,0-1,0c0-0.3-0.1-0.4-0.2-0.6c0.3,0,0.6,0,0.9,0c0.1,0,0.3,0,0.3-0.1
	c0.2-0.2,0.3-1,0.5-2.4h-0.8c-0.3,1-0.8,1.9-1.4,2.6c-0.2,0.2-0.4,0.4-0.6,0.6c-0.1-0.1-0.3-0.3-0.5-0.4c0.6-0.4,1.2-1.1,1.6-2.1
	c0.1-0.2,0.2-0.4,0.3-0.6h-1c-0.4,0.8-1,1.5-1.7,2.1c-0.3,0.2-0.5,0.4-0.7,0.5c-0.1-0.2-0.3-0.3-0.5-0.5c0.6-0.4,1.3-0.9,1.9-1.7
	c0.1-0.2,0.3-0.4,0.4-0.6h-1c-0.4,0.5-0.8,0.8-1.3,1.1c-0.1-0.2-0.3-0.3-0.5-0.5c0.8-0.5,1.5-1.1,2-2c0,0,0,0,0,0h-1.4v-0.6h6.3
	L224.4,72L224.4,72z M223.6,67.6v3.2h-4.6v-3.2H223.6z M223,68.9v-0.8h-3.2v0.8H223z M223,70.3v-0.8h-3.2v0.8H223z"/>
<path class="st0" d="M227.7,73.1l0.2,0.6c-1.1,0.6-2,1-2.6,1.4l-0.3-0.8c0.1,0,0.5-0.2,1.1-0.5v-3.4h-1.1v-0.7h1.1v-2.3h0.7v2.3h0.9
	v0.7h-0.9v3.1c0.1,0,0.3-0.1,0.5-0.3C227.4,73.2,227.6,73.1,227.7,73.1z M231,73.7l0.1,0.6c-0.5,0.1-1.3,0.4-2.4,0.7
	c-0.5,0.1-0.8,0.3-1,0.3l-0.2-0.7c0.4-0.1,1.3-0.3,2.4-0.6C230.4,73.9,230.8,73.8,231,73.7z M233.1,70.4l0.7,0.1
	c-0.4,1.3-0.9,2.5-1.5,3.5c0.2,1.1,0.6,1.7,0.9,1.8c0.2,0,0.3-0.4,0.3-1.3c0,0,0-0.1,0-0.1c0.1,0.1,0.3,0.3,0.5,0.4
	c-0.1,0.9-0.2,1.4-0.4,1.6c-0.1,0.1-0.3,0.2-0.5,0.2c-0.6,0-1-0.6-1.4-1.7c-0.5,0.6-1,1.2-1.7,1.6c-0.1-0.1-0.3-0.3-0.5-0.5
	c0.8-0.5,1.5-1.1,2-2c-0.2-1.1-0.4-2.6-0.4-4.4h-3.4v-0.7h3.4c0-0.5,0-1,0-1.5h0.7c0,0.6,0,1.1,0,1.5h1.6c-0.3-0.3-0.7-0.7-1.2-1.1
	l0.4-0.4c0.5,0.4,1,0.7,1.2,1l-0.4,0.4h0.5v0.7h-2.1c0,1.3,0.1,2.5,0.3,3.5C232.6,72.2,232.9,71.4,233.1,70.4z M228.1,70.4h2.5v2.9
	h-2.5V70.4z M230,72.7V71h-1.3v1.7H230z"/>
<path class="st1" d="M36.6,0H4.4H0v4.4v32.2h4.4V4.4h32.2V0z"/>
<path class="st0" d="M40.3,34.8H37c1.2,0.6,2.3,1.1,3.3,1.6l-1.3,0.9c-1.1-0.7-2.2-1.3-3.2-1.8l0.9-0.8h-3.5l1.1,0.8
	c-0.9,0.6-1.9,1.2-3.1,1.7c-0.1,0-0.2,0.1-0.3,0.1c-0.3-0.3-0.6-0.6-1.1-1c1-0.4,2-0.9,2.8-1.5c0.1,0,0.1-0.1,0.2-0.1h-3.1v-1.3h1
	l-0.2-6.3l0.9,0.2c0.4-0.3,0.8-0.5,1-0.7l0.4,0.5h4.2v6.3h1.1c0-0.1,0-0.3,0-0.6c0-0.2,0-0.4,0-0.5h-0.9v-1.1h0.9c0-0.4,0-0.8,0-1
	h-1v-1.1h1c0-0.1,0-0.3,0-0.5s0-0.4,0-0.5h-1v-1.1h2.2c0,2.2-0.1,4.3-0.2,6.3h0.9L40.3,34.8L40.3,34.8z M31.9,32.5l0,1.1h1V28
	c-0.4,0.2-0.8,0.4-1.2,0.5l0,0.9h0.9v1.1h-0.9l0,1h0.8v1.1H31.9z M36.1,28.2h-2.2v5.3h2.2V28.2z M35.8,28.8v0.8h-1.7v-0.8H35.8z
	 M34.2,32.8v-2.6h1.6v2.6H34.2z M34.7,31v1h0.5v-1H34.7z"/>
<path class="st0" d="M45.4,26.7h1.4c0.9,1.3,2.1,2.4,3.5,3.3c0.5,0.3,0.9,0.5,1.4,0.7c-0.3,0.3-0.6,0.7-0.9,1.2
	c-0.6-0.3-1.2-0.7-1.8-1.1v0.8h-5.7v-0.8c-0.5,0.4-1.1,0.8-1.8,1.1c-0.2-0.4-0.5-0.8-0.9-1.1c1.3-0.6,2.5-1.5,3.6-2.7
	C44.8,27.6,45.1,27.2,45.4,26.7z M42.6,37.4v-4.7h7.3v4.7h-1.4V37H44v0.4H42.6z M43.9,30.4h4.6c-1-0.8-1.8-1.6-2.4-2.3
	C45.7,28.8,44.9,29.6,43.9,30.4z M48.5,33.9H44v1.9h4.5V33.9z"/>
<path class="st0" d="M57.8,29.1h4.7c0,0,0,0.2,0,0.6C62.2,33,62,35.1,61.7,36c-0.1,0.3-0.2,0.5-0.3,0.6c-0.3,0.4-0.6,0.5-1,0.6
	c0,0-0.1,0-0.1,0c-0.4,0-1,0.1-1.8,0c0-0.5-0.2-0.9-0.4-1.3c0,0,0-0.1,0-0.1c0.5,0,1,0.1,1.7,0.1c0.2,0,0.4-0.1,0.5-0.2
	c0.3-0.4,0.6-2.1,0.8-5.1c0,0,0-0.1,0-0.1h-3.2c-0.2,2.6-1.1,4.5-2.8,6c-0.4,0.4-0.9,0.7-1.4,1c-0.2-0.3-0.5-0.7-1-1
	c0,0-0.1,0-0.1-0.1c2.2-1.2,3.5-3.1,3.8-5.6c0-0.1,0-0.2,0-0.3h-3.4v-1.4h3.5v-2.4h1.5L57.8,29.1L57.8,29.1z"/>
<path class="st0" d="M66.3,30.5l0.8,0.2c-0.1,1.6-0.4,3-0.8,4.1c0.8,0.6,1.8,0.9,3.3,1c0.3,0,0.6,0,0.9,0c2,0,3.3,0,3.8,0
	c-0.2,0.3-0.4,0.8-0.5,1.3h-3.3c-1.7,0-3-0.2-4-0.7c-0.3-0.1-0.5-0.3-0.7-0.4c-0.4,0.6-0.8,1.1-1.3,1.5c-0.2-0.3-0.5-0.5-0.9-0.8
	c-0.1,0-0.1-0.1-0.2-0.1c0.5-0.4,1-0.9,1.3-1.5c-0.4-0.5-0.8-1.3-1.1-2.2l1.1-0.4c0.1,0.4,0.3,0.8,0.6,1.3c0.2-0.6,0.3-1.2,0.4-1.9
	H65l-0.1,0.3l-1.3-0.3c0.4-0.9,0.9-2,1.5-3.3h-1.5v-1.2h2.1l0.2,0l0.9,0.3c-0.3,0.9-0.8,1.9-1.3,3h0.6L66.3,30.5z M69.7,28.9v-0.5
	h-2.1v-1h2.1v-0.6H71v0.6h2.4v1.5h0.9v1h-0.9v1.5H71V32h2.5v1H71v0.5h3v1.1h-3v0.9h-1.3v-0.9h-2.7v-1.1h2.7V33h-2.2v-1h2.2v-0.5
	h-2.1v-1h2.1V30h-2.9v-1H69.7z M72,28.5h-1v0.5h1V28.5z M72,30.5V30h-1v0.5H72z"/>
<path class="st0" d="M77.4,28.6h-0.2c-0.3,0.4-0.6,0.8-0.9,1c-0.4-0.3-0.8-0.6-1.1-0.8c0.7-0.5,1.2-1.2,1.6-2c0-0.1,0.1-0.1,0.1-0.2
	l1.3,0.4c0,0.1-0.1,0.3-0.3,0.5h2.5v0.9c0.5-0.5,0.8-1.1,1.1-1.8l1.3,0.3c-0.1,0.2-0.1,0.4-0.3,0.6h3.3v1.1h-2
	c0.2,0.3,0.4,0.6,0.4,0.7L83,29.6c-0.1-0.3-0.3-0.6-0.6-1h-0.6c-0.3,0.4-0.6,0.8-0.9,1c-0.4-0.3-0.8-0.5-1.2-0.6
	c0.2-0.1,0.4-0.3,0.4-0.4h-1.6c0.2,0.4,0.3,0.6,0.4,0.7l-1.1,0.3C77.8,29.4,77.6,29,77.4,28.6z M85.8,34.7h-3.7c1,0.6,2.2,1,3.6,1.2
	c0.1,0,0.1,0,0.2,0c-0.3,0.3-0.6,0.7-0.9,1.1c-1.5-0.3-2.8-0.9-3.8-1.7c0,0-0.1,0-0.1-0.1v2h-1.3v-2.1c-1,0.8-2.2,1.4-3.7,1.8
	c-0.1,0-0.1,0-0.2,0c-0.3-0.5-0.5-0.9-0.8-1.1c1.4-0.2,2.6-0.6,3.6-1.2c0.1,0,0.1-0.1,0.1-0.1h-3.5v-1.1h4.5v-0.3c0,0-0.1,0-0.1,0.1
	c0,0-0.1,0-0.1,0c-0.1-0.3-0.4-0.5-0.7-0.8c0,0-0.1-0.1-0.1-0.1c-1.2,0.2-2.3,0.4-3.3,0.5L75.5,32c0.1,0,0.7-0.1,1.7-0.3v-1.1h-1.4
	v-0.9h4.1v0.9h-1.4v1l1.4-0.2l0,0.6c0.3-0.3,0.5-0.7,0.5-1.2v-1.1h4.1v2c0,0.2,0,0.3,0,0.4c0,0,0.1,0.1,0.1,0.1h0.2
	c0.1,0,0.1,0,0.1,0c0,0,0.1-0.1,0.1-0.3c0-0.1,0-0.4,0-0.8c0.2,0.2,0.5,0.3,0.9,0.5c0,0.6-0.1,0.9-0.1,1.1c-0.1,0.2-0.2,0.4-0.4,0.4
	c-0.1,0.1-0.4,0.1-0.6,0.1h-0.6c-0.4,0-0.6-0.1-0.8-0.3c-0.1-0.2-0.2-0.4-0.3-0.8l-0.6,0.6c-0.2-0.3-0.6-0.6-1.1-1.1
	c-0.1,0.5-0.4,1-0.9,1.4h0.6v0.7h4.5L85.8,34.7L85.8,34.7z M83.2,30.6h-1.7v0.3c0,0.1,0,0.3,0,0.5l0.6-0.5c0.5,0.4,0.9,0.6,1.1,0.9
	V30.6z"/>
<path class="st0" d="M87.2,27.1h9.6v10.3h-1.3v-0.5h-7.1v0.6h-1.2L87.2,27.1L87.2,27.1z M88.5,35.8h7.1v-7.7h-7.1V35.8z M95.3,33.5
	v0.7h-1.5v0.8c0,0.3-0.1,0.5-0.3,0.6c0,0-0.1,0-0.2,0.1c-0.2,0.1-0.7,0.1-1.4,0.1c0-0.2-0.1-0.4-0.3-0.7c0.4,0,0.7,0,0.8,0
	s0.1-0.1,0.1-0.1v-0.7h-2c0.4,0.4,0.6,0.7,0.8,0.9l-0.9,0.4c-0.2-0.3-0.4-0.7-0.8-1l0.7-0.4h-1.8v-0.7h4v-0.3h1.1v0.3h0.6
	c0-0.1-0.1-0.2-0.3-0.4c-2.1,0.1-3.9,0.1-5.2,0.1l0-0.7h2.6v-0.4h-2.3v-2.3h2.3v-0.4h-2.6v-0.7h2.6v-0.4h1.1v0.4h2.6v0.7h-2.6v0.4
	h2.3v2.3h-0.6c0.4,0.4,0.8,0.6,1,0.9l-0.6,0.4L95.3,33.5L95.3,33.5z M90.2,30.3v0.3h1.3v-0.3H90.2z M90.2,31.5h1.3v-0.3h-1.3V31.5z
	 M93.8,30.3h-1.2v0.3h1.2V30.3z M93.8,31.5v-0.3h-1.2v0.3H93.8z M92.6,32.1v0.4h0.9l-0.1-0.1l0.4-0.3L92.6,32.1L92.6,32.1z"/>
<path class="st0" d="M108.9,31.1c-0.3,0.3-0.5,0.5-0.9,0.7c-0.3,0.3-0.6,0.5-0.8,0.6c0.2,0.6,0.5,1.1,0.8,1.6c0.3,0.5,0.6,0.9,1,1.2
	c-0.1,0.1-0.3,0.3-0.5,0.5c-0.2,0.2-0.3,0.4-0.4,0.6c-0.4-0.4-0.8-0.9-1.1-1.4c-0.3-0.5-0.6-1.1-0.8-1.8c0.1,0.4,0.2,0.8,0.2,1.2
	c0,0.4,0,0.8,0,1.1c0,0.3-0.1,0.6-0.2,0.9c-0.1,0.3-0.2,0.5-0.4,0.6c-0.2,0.2-0.4,0.3-0.6,0.4c-0.2,0.1-0.4,0.1-0.7,0.1
	c-0.1,0-0.3,0-0.4,0s-0.2,0-0.4,0c0-0.2,0-0.4-0.1-0.6c0-0.2-0.1-0.4-0.3-0.6c0.2,0,0.4,0,0.5,0c0.1,0,0.3,0,0.4,0
	c0.1,0,0.2,0,0.3-0.1c0.1,0,0.2-0.1,0.3-0.3c0.1-0.1,0.2-0.3,0.3-0.6c0.1-0.3,0.1-0.6,0.1-0.9c-0.2,0.2-0.5,0.4-0.7,0.6
	c-0.2,0.2-0.5,0.4-0.8,0.6c-0.3,0.2-0.5,0.4-0.8,0.5c-0.2,0.1-0.5,0.3-0.8,0.4c-0.1-0.1-0.2-0.3-0.4-0.5c-0.1-0.2-0.3-0.3-0.4-0.4
	c0.3-0.1,0.6-0.3,1-0.5c0.3-0.2,0.6-0.4,1-0.6c0.3-0.2,0.6-0.4,0.9-0.7c0.3-0.3,0.5-0.5,0.7-0.8c0-0.2-0.1-0.3-0.2-0.5
	c-0.3,0.3-0.7,0.6-1.1,0.9c-0.4,0.3-0.8,0.5-1.1,0.7c-0.1-0.2-0.2-0.4-0.4-0.6c0,0.4-0.2,0.7-0.3,0.9c-0.2,0.2-0.4,0.3-0.8,0.4
	c-0.1,0-0.2,0-0.4,0c-0.1,0-0.2,0-0.4,0c0-0.2,0-0.4-0.1-0.6c0-0.2-0.1-0.4-0.2-0.6c0.1,0,0.2,0,0.3,0c0.1,0,0.1,0,0.2,0
	c0.1,0,0.2,0,0.3-0.1c0.1,0,0.1-0.1,0.1-0.1c0-0.1,0.1-0.1,0.1-0.2c0-0.1,0-0.2,0-0.3c0-0.3,0-0.6-0.1-0.9c-0.1-0.4-0.3-0.7-0.6-1.1
	c0.1-0.4,0.2-0.8,0.4-1.2c0.1-0.5,0.2-0.9,0.3-1.3H100v9h-1.2V27.2h2.5l0.2-0.1l0.9,0.5c-0.1,0.3-0.1,0.5-0.3,0.8
	c-0.1,0.3-0.2,0.5-0.3,0.8c-0.1,0.3-0.2,0.5-0.2,0.8c-0.1,0.3-0.2,0.5-0.3,0.7c0.4,0.4,0.6,0.9,0.7,1.2c0.1,0.4,0.2,0.7,0.2,1.1
	c0.4-0.2,0.7-0.4,1.1-0.6c0.4-0.3,0.7-0.5,1-0.7c-0.1-0.1-0.2-0.3-0.4-0.4c-0.2,0.1-0.5,0.3-0.7,0.4c-0.2,0.1-0.5,0.3-0.7,0.4
	c0-0.1-0.1-0.1-0.1-0.2c-0.1-0.1-0.1-0.2-0.2-0.3c-0.1-0.1-0.1-0.2-0.2-0.3c-0.1-0.1-0.1-0.1-0.2-0.2c0.4-0.2,0.9-0.4,1.3-0.6
	c0.4-0.3,0.8-0.5,1.1-0.8h-2v-1.2h1.3c-0.1-0.2-0.2-0.4-0.3-0.7c-0.1-0.3-0.2-0.5-0.4-0.7l1.1-0.4c0.2,0.3,0.3,0.5,0.5,0.8
	c0.1,0.3,0.3,0.6,0.3,0.8l-0.3,0.1h1.9l-0.3-0.1c0.1-0.1,0.1-0.3,0.2-0.4c0.1-0.1,0.1-0.3,0.2-0.4c0.1-0.1,0.1-0.3,0.2-0.4
	c0.1-0.1,0.1-0.3,0.1-0.4l1.3,0.4c-0.1,0.3-0.3,0.5-0.4,0.8c-0.1,0.3-0.3,0.5-0.4,0.7h1.4v1.2h-2.3c0.1,0.3,0.1,0.6,0.2,0.9
	c0.1,0.3,0.1,0.6,0.2,0.9c0.2-0.2,0.4-0.4,0.6-0.6c0.2-0.2,0.4-0.4,0.5-0.6L108.9,31.1z M104.6,30.6c0.3,0.3,0.6,0.6,0.8,1
	c0.2,0.4,0.4,0.7,0.5,1.1c-0.1-0.4-0.3-0.9-0.4-1.4c-0.1-0.5-0.2-0.9-0.3-1.4c-0.1,0.1-0.2,0.3-0.4,0.4
	C104.9,30.4,104.8,30.5,104.6,30.6z"/>
<path class="st0" d="M120.3,33.9V35h-2.5v1.1c0,0.5-0.1,0.9-0.4,1c-0.1,0-0.1,0.1-0.2,0.1c-0.3,0.1-1,0.2-2,0.2
	c0-0.3-0.2-0.7-0.4-1.2c0.4,0,0.8,0,1.4,0c0.1,0,0.3-0.1,0.3-0.2v-1.1h-3.2c0.6,0.4,1,0.8,1.2,1l-1,0.9c-0.3-0.4-0.9-0.9-1.6-1.4
	c0,0-0.1-0.1-0.1-0.1l0.5-0.4h-2.3v-1.1h6.6v-0.4c-2.5,0-4.5,0.1-6,0.1l0-1c0,0,1.4,0,4,0v-0.4h-3.3v-3.2h3.3v-0.4h-4.2v-1h4.2v-0.7
	h1.3v0.7h4.2v1h-4.2v0.4h3.5v3.3h-0.8c0.6,0.3,1.1,0.6,1.5,0.9l-0.8,0.7c-0.2-0.2-0.4-0.3-0.5-0.4l-0.8,0v0.5L120.3,33.9L120.3,33.9
	z M112.4,29.7v0.4h2v-0.4H112.4z M112.4,31.4h2v-0.4h-2V31.4z M117.8,29.7h-2.1v0.4h2.1V29.7z M115.7,31.4h2.1v-0.4h-2.1V31.4z
	 M115.7,32.2v0.4h1.4l-0.5-0.2l0.3-0.2H115.7z"/>
<path class="st0" d="M131.8,33.2c0,0.6-0.1,1.1-0.1,1.5c0,0.4-0.1,0.8-0.2,1.1c-0.1,0.3-0.1,0.5-0.2,0.7c-0.1,0.2-0.1,0.3-0.3,0.4
	c-0.1,0.1-0.3,0.3-0.4,0.3c-0.1,0.1-0.3,0.1-0.5,0.1c-0.2,0-0.5,0-0.8,0c-0.1,0-0.2,0-0.3,0c-0.1,0-0.2,0-0.4,0
	c0-0.2-0.1-0.4-0.1-0.6c-0.1-0.2-0.1-0.4-0.2-0.6c0.2,0,0.4,0,0.6,0c0.2,0,0.4,0,0.6,0c0.1,0,0.2,0,0.2,0c0.1,0,0.1,0,0.2-0.1
	c0.1-0.1,0.2-0.3,0.3-0.6c0.1-0.3,0.1-0.9,0.2-1.5h-6.7c-0.1,0.1-0.2,0.1-0.3,0.2c-0.1,0.1-0.1,0.1-0.2,0.2l1,0.3
	c-0.1,0.5-0.3,1-0.5,1.5c-0.2,0.5-0.5,0.9-0.8,1.3l-1-0.8c0.3-0.3,0.5-0.6,0.7-1c0.2-0.4,0.3-0.8,0.4-1.2c-0.2,0.1-0.4,0.3-0.5,0.4
	c-0.2,0.1-0.4,0.2-0.6,0.3c0-0.1-0.1-0.2-0.1-0.3c-0.1-0.1-0.1-0.2-0.2-0.3c-0.1-0.1-0.1-0.2-0.2-0.3c-0.1-0.1-0.1-0.2-0.2-0.3
	c0.9-0.5,1.7-1.1,2.4-1.8c0.7-0.7,1.3-1.5,1.7-2.4h-3.6v-1.1h2.2c-0.1-0.2-0.2-0.4-0.4-0.7c-0.2-0.3-0.4-0.5-0.5-0.7l1.2-0.5
	c0.1,0.1,0.2,0.2,0.3,0.4c0.1,0.1,0.2,0.3,0.3,0.4c0.1,0.1,0.2,0.3,0.3,0.4c0.1,0.1,0.1,0.3,0.2,0.4l-0.9,0.4h1.4
	c0.3-0.6,0.5-1.2,0.6-1.9L128,27c-0.1,0.3-0.2,0.5-0.3,0.8c-0.1,0.3-0.2,0.5-0.3,0.8h2.9c-0.1,0.4-0.1,0.7-0.2,1.1
	c-0.1,0.4-0.1,0.7-0.2,1h1.2c-0.1,0.3-0.1,0.7-0.2,1c-0.1,0.4-0.1,0.7-0.2,1h1.3L131.8,33.2z M125.7,34.4c0.1,0.2,0.1,0.4,0.1,0.6
	c0,0.2,0.1,0.4,0.1,0.6c0,0.2,0,0.4,0.1,0.6c0,0.2,0,0.4,0,0.5l-1.1,0.1c0-0.1,0-0.3,0-0.5c0-0.2,0-0.4,0-0.6c0-0.2-0.1-0.4-0.1-0.6
	c0-0.2-0.1-0.4-0.1-0.6L125.7,34.4z M125.6,31.8c-0.1,0.1-0.2,0.3-0.4,0.5c-0.1,0.1-0.2,0.3-0.4,0.4h4.4c0-0.1,0.1-0.3,0.1-0.4
	c0-0.1,0.1-0.3,0.1-0.5H125.6z M127.4,34.2c0.1,0.1,0.1,0.3,0.2,0.5c0.1,0.2,0.1,0.4,0.2,0.5c0,0.2,0.1,0.4,0.1,0.5
	c0,0.2,0.1,0.3,0.1,0.5l-1.1,0.3c0-0.1,0-0.3-0.1-0.5c0-0.2-0.1-0.4-0.1-0.5c0-0.2-0.1-0.4-0.2-0.5c-0.1-0.2-0.1-0.4-0.2-0.5
	L127.4,34.2z M126.8,29.7c-0.1,0.1-0.1,0.3-0.2,0.4c-0.1,0.1-0.1,0.3-0.3,0.4h2.2c0-0.1,0.1-0.3,0.1-0.4c0-0.1,0.1-0.3,0.1-0.5
	L126.8,29.7L126.8,29.7z M128.7,35.8c0-0.2-0.1-0.5-0.3-0.8c-0.1-0.3-0.3-0.6-0.4-0.8l0.9-0.3c0.1,0.3,0.3,0.5,0.4,0.8
	c0.1,0.3,0.2,0.5,0.3,0.8L128.7,35.8z"/>
<path class="st0" d="M136.3,34v-7.3h3.8v1.2h-2.4V34H136.3z"/>
<path class="st0" d="M140,31.2h10.5v1.5H140V31.2z"/>
<path class="st0" d="M153.8,26.7l1.3,0.4c-0.3,0.8-0.6,1.5-0.9,2.2v8.1h-1.3v-5.9c-0.3,0.4-0.6,0.8-0.8,1c-0.1-0.4-0.3-0.9-0.6-1.4
	c0,0,0-0.1,0-0.1c0.9-0.9,1.5-2.1,2.1-3.7C153.7,27.2,153.8,27,153.8,26.7z M155.2,27.3h6.8v10h-1.3v-0.6h-4.3v0.6h-1.3V27.3z
	 M156.5,35.5h4.3v-7.1h-4.3V35.5z M160.5,30.9h-1.4v1h1.1v3.1h-3.2v-3.1h1v-1h-1.3v-1h1.3v-1.1h1v1.1h1.4V30.9z M159.2,34v-1.2H158
	V34H159.2z"/>
<path class="st0" d="M167.6,27h1.5c0,0.1,0,0.4,0,0.6c0.1,2,0.6,3.8,1.5,5.3c0.9,1.5,2,2.6,3.5,3.3c-0.5,0.4-0.8,0.8-1.1,1.1
	c-2.1-1.1-3.7-3-4.5-5.7v0c-0.8,2.6-2.2,4.5-4.2,5.8c-0.3-0.4-0.6-0.7-1.1-1.1c2.8-1.5,4.3-4.3,4.4-8.3c0-0.1,0-0.3,0-0.6
	C167.6,27.2,167.6,27,167.6,27z"/>
<path class="st0" d="M181.8,28.5h3.2c0,0,0,0.2,0,0.6c-0.1,3.5-0.3,5.8-0.4,6.6c-0.1,0.4-0.2,0.8-0.3,0.9c-0.3,0.3-0.6,0.5-1,0.6
	c0,0-0.1,0-0.1,0c-0.4,0-1,0-1.8,0c0-0.4-0.1-0.9-0.4-1.3c0,0,0,0,0-0.1c0.5,0,1.1,0.1,1.7,0.1c0.2,0,0.4-0.1,0.5-0.2
	c0.3-0.3,0.4-1.5,0.5-3.6c0-0.7,0.1-1.5,0.1-2.5h-2.4c-0.3,0.7-0.7,1.3-1,1.8c-0.2-0.2-0.5-0.4-0.9-0.6v5.4h-3.1v0.8h-1.2v-8.5h1.3
	c0.2-0.7,0.3-1.3,0.3-1.9l1.5,0.2c-0.2,0.5-0.4,1.1-0.6,1.6h1.8v1.9c0.6-1,1.2-2.2,1.5-3.7l1.3,0.3
	C182.2,27.3,182.1,27.8,181.8,28.5z M178.2,31.6v-1.9h-1.8v1.9H178.2z M176.4,35h1.8v-2.3h-1.8V35z M183.2,33.7l-1.1,0.7
	c-0.3-0.6-0.8-1.5-1.6-2.6l1.1-0.6C182.3,32.3,182.9,33.2,183.2,33.7z"/>
<path class="st0" d="M188.7,26.7l1.3,0.4c-0.3,0.8-0.7,1.5-1.1,2.2v8h-1.3v-6c-0.3,0.4-0.6,0.8-1,1.1c-0.2-0.4-0.4-0.9-0.7-1.3
	c0,0,0,0,0-0.1c0.9-0.9,1.7-2,2.4-3.4C188.5,27.3,188.6,27,188.7,26.7z M194,35.8h2.9V37h-7.4v-1.3h3v-2.3h-2.4v-1.3h2.4v-2h-2.8
	v-1.3h3.3c-0.5-0.4-1.1-0.8-1.9-1.3l0.9-1c1,0.5,1.8,1,2.5,1.5c0,0,0.1,0.1,0.1,0.1l-0.5,0.6h2.6v1.3h-2.8v2h2.5v1.3h-2.5L194,35.8
	L194,35.8z"/>
<path class="st0" d="M204,36h1.9c0.3,0,0.5-0.1,0.6-0.3c0.1-0.2,0.2-0.6,0.2-1.3c0.3,0.3,0.8,0.4,1.3,0.5h0c-0.1,1-0.3,1.6-0.6,1.9
	c-0.3,0.3-0.8,0.4-1.4,0.4h-2.2c-0.9,0-1.5-0.1-1.8-0.5c-0.2-0.3-0.4-0.8-0.4-1.4V34l-3.8,0.4l-0.2-1.3l4-0.4v-1.1
	c-0.8,0.1-1.6,0.2-2.4,0.3c0-0.4-0.2-0.8-0.4-1.2c2.7-0.3,4.8-0.8,6.1-1.4l1.1,1.1c-0.8,0.3-1.8,0.6-2.9,0.8v1.3l4.6-0.5l0.2,1.3
	l-4.8,0.5v1.5c0,0.3,0.1,0.5,0.2,0.5C203.5,36,203.7,36,204,36z M199.4,29v1.4H198v-2.7h4.1v-1h1.4v1h4.2v2.7h-1.5V29H199.4z"/>
<path class="st0" d="M212.7,30.1v7.3h-3.8v-1.2h2.4v-6.1H212.7z"/>
<path class="st0" d="M222.4,33.4h-3.3c-0.1,1.6-0.5,2.9-1,3.9c-0.1-0.3-0.4-0.5-0.8-0.8c-0.1-0.1-0.2-0.1-0.3-0.1
	c0.5-1,0.8-2.6,0.8-4.7c0-0.1,0-0.1,0-0.2v-3.9l0.7,0.2c1.3-0.3,2.2-0.6,2.9-1l1.1,1c-0.9,0.4-2,0.7-3.3,1v0.6h3.2L222.4,33.4
	L222.4,33.4z M221,30.7h-1.9v0.8c0,0.3,0,0.5,0,0.6h1.9L221,30.7L221,30.7z M227.9,30.6v1.3h-1v5.5h-1.4v-5.5h-1.3
	c-0.1,2.4-0.8,4.3-2.1,5.5c-0.1-0.3-0.4-0.5-0.8-0.8c-0.1-0.1-0.2-0.1-0.2-0.1c1.1-1.1,1.7-2.7,1.8-4.9c0-0.2,0-0.4,0-0.7v-3.1
	l0.9,0.2c1.3-0.4,2.2-0.8,2.8-1.1l1.2,1c-1,0.5-2.2,0.9-3.6,1.2v1.5L227.9,30.6L227.9,30.6z"/>
<path class="st0" d="M233.6,34.7l-0.9,1c-0.3-0.4-0.6-1-1.1-1.6c-0.3,1.4-1,2.5-1.9,3.2c-0.2-0.3-0.5-0.6-0.8-0.9c0,0-0.1,0-0.1-0.1
	c1-0.8,1.6-2.1,1.8-3.9h-1.6v-1.2h1.6v-1.4H229v-1.2h1.5v-1.6h1.3v1.6h1.4v1.2h-1.4v1.4h1.6v1.2h-1.7l0,0.3c0.5,0.5,1.1,1.2,1.8,2
	C233.5,34.6,233.5,34.6,233.6,34.7z M237.8,36h0.4c0.1,0,0.1-0.1,0.2-0.2c0-0.2,0.1-0.6,0.1-1.1c0.3,0.2,0.6,0.4,1.1,0.5
	c-0.1,1-0.2,1.6-0.5,1.8c-0.2,0.1-0.4,0.2-0.7,0.2h-0.8c-0.5,0-0.9-0.1-1.1-0.5c-0.1-0.2-0.1-0.6-0.1-1v-2h-0.6
	c-0.1,1.1-0.4,2-1,2.6c-0.4,0.5-1,0.9-1.8,1.1c-0.1-0.3-0.4-0.6-0.6-0.9c0,0-0.1-0.1-0.1-0.1c1-0.3,1.6-0.8,1.9-1.5
	c0.1-0.3,0.2-0.7,0.3-1.2h-0.8v-6.6h5.1v6.6h-1.2v2c0,0.2,0,0.3,0.1,0.3C237.8,36,237.8,36,237.8,36z M235,28.3V29h2.5v-0.7H235z
	 M235,30.1v0.7h2.5v-0.7H235z M235,31.8v0.7h2.5v-0.7H235z"/>
<path class="st0" d="M246.3,27.3v1.1h0.6v0.8h-0.6v1.1h-2.1v0.4h2.2v0.8h-2.2v0.3h2.6v0.9h-6.4v-0.9h2.5v-0.3h-2v-0.8h2v-0.4h-2
	v-0.7h2v-0.4h-2.6v-0.8h2.6v-0.4h-2v-0.8h2v-0.6h1.2v0.6H246.3z M240.5,37.2l-0.1-1.1c2.4-0.1,4.5-0.1,6.5-0.2l0,1
	C243.3,37,241.2,37.1,240.5,37.2z M241,33h5.4v2.6H241V33z M242,33.6V34h1.1v-0.4H242z M242,34.6V35h1.1v-0.4H242z M244.2,28.1v0.4
	h1v-0.4H244.2z M245.2,29.7v-0.4h-1v0.4H245.2z M245.2,34v-0.4h-1V34H245.2z M245.2,35v-0.4h-1V35H245.2z M248.5,28.1v6.4h-1.3v-6.4
	H248.5z M249.4,26.9h1.3v8.9c0,0.6-0.1,1-0.4,1.2c0,0-0.1,0.1-0.1,0.1c-0.4,0.2-1,0.3-1.9,0.3c0-0.4-0.2-0.9-0.4-1.4
	c0.4,0,0.9,0,1.4,0c0.2,0,0.3-0.1,0.3-0.3V26.9z"/>
</svg>
