<?xml version="1.0" encoding="utf-8"?>
<!-- Generator: Adobe Illustrator 25.2.3, SVG Export Plug-In . SVG Version: 6.00 Build 0)  -->
<svg version="1.1" id="圖層_1" xmlns="http://www.w3.org/2000/svg" xmlns:xlink="http://www.w3.org/1999/xlink" x="0px" y="0px"
	 viewBox="0 0 134.9 159.9" style="enable-background:new 0 0 134.9 159.9;" xml:space="preserve">
<g>
	<path d="M4.9,26.1c-1.4,0.7-3,1.3-4.1,1.8l-0.4-1c0.4-0.1,0.9-0.3,1.4-0.5L1.6,20l1,0l0.2,5.9c0.6-0.3,1.2-0.5,1.8-0.8L4.9,26.1z
		 M9.4,29c-0.5-0.7-1.3-1.7-2.2-2.7c-0.8,1.2-1.9,2-3.4,2.7c-0.1-0.2-0.5-0.7-0.8-0.9c3.5-1.3,4.6-3.8,5-8.2l1.1,0.1
		c-0.2,2.2-0.6,4-1.3,5.4c0.9,0.9,1.9,2,2.4,2.8L9.4,29z M5.4,23.7c-0.3-0.7-0.9-1.8-1.6-2.6l0.9-0.4c0.7,0.8,1.3,1.8,1.6,2.5
		L5.4,23.7z"/>
	<path d="M14.5,25.8c0-0.2-0.1-0.3-0.1-0.6c-2.2,0.4-2.6,0.5-2.8,0.6c-0.1-0.2-0.2-0.6-0.3-0.9c0.2-0.1,0.5-0.3,0.8-0.7
		c0.2-0.2,0.5-0.6,0.8-1.1c-1,0.1-1.2,0.2-1.4,0.2c-0.1-0.2-0.2-0.6-0.3-0.9c0.2-0.1,0.4-0.3,0.6-0.6c0.2-0.3,1-1.5,1.4-2.6l0.9,0.4
		c-0.4,0.9-1,1.9-1.6,2.7l1-0.1c0.3-0.4,0.5-0.9,0.7-1.3l0.8,0.5c-0.6,1.1-1.4,2.2-2.2,3.1l1.4-0.2c-0.1-0.3-0.2-0.6-0.3-0.9
		l0.7-0.2c0.3,0.7,0.6,1.6,0.8,2.1L14.5,25.8z M12.5,26.3c-0.1,0.9-0.3,1.9-0.5,2.5c-0.2-0.1-0.6-0.2-0.8-0.3
		c0.2-0.6,0.4-1.6,0.5-2.4L12.5,26.3z M13.6,26.2c0.1,0.7,0.3,1.7,0.3,2.3l-0.8,0.2c0-0.6-0.1-1.6-0.3-2.3L13.6,26.2z M14.7,25.8
		c0.2,0.6,0.5,1.4,0.6,1.9L14.5,28c-0.1-0.5-0.3-1.4-0.5-2L14.7,25.8z M19.4,28.1c0.1,0,0.3,0,0.4,0c0.1,0,0.2-0.1,0.2-0.2
		c0-0.1,0.1-0.5,0.1-0.9c0.2,0.2,0.5,0.3,0.8,0.4c0,0.4-0.1,0.9-0.2,1.1c-0.1,0.2-0.2,0.3-0.5,0.4c-0.2,0.1-0.5,0.1-0.7,0.1h-0.9
		c-0.3,0-0.6-0.1-0.8-0.2c-0.2-0.2-0.3-0.4-0.3-1.3v-1.2h-1.9v-3.7h0.9v2.8h1.1v-3.6h-2.1v-0.9h2.1v-1.3h0.9v1.3h2.4v0.9h-2.4v3.6
		h1.1v-2.8h0.9v4.1h-0.9v-0.5h-1.1v1.3c0,0.3,0,0.5,0.1,0.5c0.1,0,0.2,0.1,0.3,0.1H19.4z"/>
	<path d="M23.4,24.6c-0.2,1.1-0.6,2.6-1.1,3.3c-0.1-0.3-0.3-0.7-0.4-1c0.4-0.6,0.8-1.8,0.9-2.6L23.4,24.6z M24.8,24.4
		c0.2,0.3,0.8,1.6,1,1.9l-0.7,0.7c-0.1-0.5-0.5-1.5-0.8-2.1v4.2h-0.8v-5.2h-1.4v-0.9h1.4v-3.5h0.8v3.5h1.3v0.9h-1.3v0.9L24.8,24.4z
		 M22.6,22.5c-0.1-0.6-0.3-1.5-0.5-2.2l0.7-0.2c0.2,0.7,0.4,1.6,0.5,2.2L22.6,22.5z M25.9,20.3c-0.3,0.7-0.6,1.6-0.8,2.2l-0.6-0.2
		c0.2-0.6,0.5-1.6,0.6-2.2L25.9,20.3z M28,21.9c-0.1,0.4-0.2,0.7-0.3,1.1c0.3,0.3,0.7,0.6,0.9,0.8l-0.5,0.7
		c-0.2-0.2-0.4-0.5-0.7-0.7c-0.3,0.6-0.6,1.1-1,1.5c-0.1-0.1-0.5-0.5-0.7-0.6c0.7-0.7,1.2-1.7,1.5-2.9L28,21.9z M31.6,26.4h-2.5v2.7
		h-1v-2.7h-2.3v-0.9h2.3v-0.6h0.6c-0.2-0.2-0.3-0.4-0.5-0.5c0.7-0.6,1.2-1.6,1.5-2.6l0.9,0.2c-0.1,0.4-0.2,0.8-0.4,1.2
		c0.5,0.4,1.1,1,1.4,1.3L31,25.1c-0.3-0.3-0.7-0.8-1.2-1.2c-0.2,0.4-0.5,0.7-0.7,1h0v0.6h2.5V26.4z M31.3,21.5h-5.2v-0.9h2.2
		c-0.1-0.3-0.2-0.7-0.4-1l0.9-0.2c0.2,0.4,0.4,0.9,0.5,1.2h2V21.5z"/>
	<path d="M34.3,24.8v4.2h-0.9v-7h2.4c-0.2-0.3-0.6-0.7-0.9-0.9l0.4-0.3h-0.8c-0.3,0.5-0.7,0.9-1.1,1.2c-0.1-0.2-0.5-0.5-0.7-0.7
		c0.6-0.5,1.2-1.3,1.6-2.1l0.9,0.3c-0.1,0.2-0.2,0.3-0.3,0.5h2.5v0.8h-1.8c0.3,0.3,0.6,0.6,0.8,0.8l-0.5,0.5h1.2v2.7H34.3z
		 M34.3,22.7v0.5h2v-0.5H34.3z M36.2,24.2v-0.5h-2v0.5H36.2z M36.5,28.2v0.4h-0.9v-3.2h3.9v2.9H36.5z M36.5,25.9v0.6h2.1v-0.6H36.5z
		 M38.6,27.6V27h-2.1v0.6H38.6z M42.3,20.9h-2.1c0.3,0.2,0.7,0.5,0.9,0.8l-0.5,0.5h1.2V28c0,0.5-0.1,0.7-0.4,0.9
		c-0.3,0.1-0.9,0.2-1.6,0.2c0-0.2-0.2-0.6-0.3-0.9c0.5,0,1.1,0,1.2,0c0.2,0,0.2-0.1,0.2-0.2v-3.2h-3v-2.7h2.4
		c-0.2-0.3-0.6-0.6-1-0.9l0.4-0.4h-0.9c-0.3,0.5-0.6,0.9-0.9,1.2c-0.2-0.1-0.5-0.4-0.7-0.6c0.6-0.5,1.1-1.3,1.4-2.1l0.9,0.2
		c-0.1,0.2-0.1,0.3-0.2,0.5h3V20.9z M40.8,22.7h-2.1v0.5h2.1V22.7z M40.8,24.2v-0.5h-2.1v0.5H40.8z"/>
	<path d="M45,24.3c-0.3-0.4-1-0.9-1.5-1.3l0.6-0.6c0.5,0.3,1.2,0.9,1.5,1.2L45,24.3z M43.6,28.4c0.4-0.8,0.9-2.1,1.3-3.3l0.7,0.5
		c-0.3,1.1-0.8,2.3-1.2,3.3L43.6,28.4z M45.1,21.4c-0.3-0.4-0.9-0.9-1.4-1.3l0.6-0.6c0.5,0.3,1.1,0.9,1.4,1.3L45.1,21.4z M48.1,27.3
		c-0.5,0.5-1.3,1-2,1.4c-0.1-0.2-0.3-0.4-0.5-0.6c0.7-0.3,1.5-0.8,1.8-1.2L48.1,27.3z M45.9,22.6c0.4,0,0.8-0.1,1.2-0.1V22h-1.1
		v-0.6h1.1v-0.5h-1.2v-0.7h1.2v-0.5h0.8v0.5h1.2v0.7h-1.2v0.5h1V22h-1v0.4l1.2-0.1l0,0.6c-0.4,0-0.8,0.1-1.2,0.1v0.6h-0.8v-0.5
		l-1.2,0.1L45.9,22.6z M49.8,26.5v1.6c0,0.4-0.1,0.6-0.4,0.7c-0.3,0.1-0.7,0.1-1.3,0.1c0-0.2-0.2-0.5-0.3-0.7c0.4,0,0.8,0,0.9,0
		c0.1,0,0.2,0,0.2-0.1v-1.6c-1.8,0.1-2.2,0.1-2.5,0.2c0-0.1-0.2-0.4-0.3-0.6c0.3,0,0.7-0.1,1.1-0.3c0.2-0.1,0.8-0.3,1.4-0.6
		c-1.4,0.1-1.7,0.1-2,0.2c-0.1-0.1-0.2-0.4-0.3-0.6c0.2,0,0.4-0.1,0.7-0.2c0.3-0.1,1.2-0.6,1.8-1.2l0.8,0.4
		c-0.4,0.3-0.8,0.5-1.3,0.8l1.4-0.1c0.3-0.2,0.6-0.3,0.8-0.5l0.9,0.4c-0.9,0.5-1.8,1-2.7,1.4l2.8-0.1c-0.2-0.2-0.3-0.4-0.5-0.6
		l0.7-0.3c0.5,0.5,1.1,1.2,1.4,1.7l-0.7,0.4c-0.1-0.2-0.2-0.3-0.3-0.5L49.8,26.5z M51.1,20.8c-0.1,1.2-0.5,2.3-1.5,2.9
		c-0.1-0.2-0.3-0.4-0.5-0.6c0.8-0.5,1.1-1.4,1.2-2.4h-0.9v-0.7h3.4c0,0,0,0.2,0,0.3c-0.1,1.8-0.1,2.6-0.4,2.8
		c-0.2,0.2-0.3,0.3-0.6,0.3c-0.2,0-0.5,0-0.9,0c0-0.3-0.1-0.6-0.2-0.8c0.3,0,0.5,0,0.6,0c0.1,0,0.2,0,0.3-0.1
		c0.1-0.1,0.2-0.6,0.2-1.9H51.1z M50.9,26.9c0.7,0.4,1.5,1,2,1.4l-0.6,0.6c-0.4-0.4-1.3-1-1.9-1.5L50.9,26.9z"/>
	<path d="M56.7,22.7c0.3,0.3,1.1,1.3,1.3,1.5L57.4,25c-0.2-0.3-0.5-0.8-0.8-1.2V29h-0.9v-4.6c-0.3,1-0.7,1.8-1.2,2.4
		c-0.1-0.3-0.3-0.7-0.5-0.9c0.6-0.8,1.3-2.2,1.6-3.5h-1.4v-0.9h1.4v-2.1h0.9v2.1h1.1v0.9h-1.1V22.7z M63.9,27.7v0.9h-6V20h5.8v0.9
		h-4.9v6.8H63.9z M60.9,26v-1.4h-1.4v-0.8h1.4v-1.3h-1.6v-0.8h4.2v0.8h-1.7v1.3h1.5v0.8h-1.5V26h1.8v0.8h-4.4V26H60.9z"/>
	<path d="M68.5,27.4c-0.7,0.6-1.8,1.2-2.7,1.5c-0.2-0.2-0.5-0.5-0.7-0.7c0.9-0.3,1.9-0.7,2.5-1.2L68.5,27.4z M74.4,24.1h-9.2v-0.8
		h4.1c-0.1-0.1-0.2-0.3-0.2-0.4l0.5-0.2h-3.3v-3h6.9v3H70c0.1,0.2,0.3,0.4,0.4,0.6h4V24.1z M70.4,26.8v1.4c0,0.5-0.1,0.7-0.5,0.8
		c-0.3,0.1-0.9,0.1-1.6,0.1c0-0.3-0.2-0.5-0.3-0.8c0.5,0,1,0,1.2,0c0.1,0,0.2-0.1,0.2-0.2v-1.3h-2.8v-2.2h6.5v2.2H70.4z M67.3,21h5
		v-0.5h-5V21z M67.3,22.2h5v-0.6h-5V22.2z M67.6,26.1h4.6v-0.8h-4.6V26.1z M71.7,27.1c0.9,0.3,2.1,0.9,2.8,1.3l-0.7,0.6
		c-0.6-0.4-1.8-1-2.7-1.3L71.7,27.1z"/>
	<path d="M85.3,27.7v1H76v-1H81c0.5-1.3,1.1-3.4,1.5-4.9l1.1,0.2c-0.4,1.5-1,3.4-1.5,4.7H85.3z M84.9,22.3h-8.5v-1h8.5V22.3z
		 M78.7,27.3c-0.1-1.2-0.6-2.9-0.9-4.3l1-0.2c0.4,1.4,0.8,3.1,1,4.3L78.7,27.3z M80.3,21.3c-0.1-0.5-0.3-1.2-0.5-1.7l1-0.2
		c0.2,0.5,0.4,1.2,0.6,1.7L80.3,21.3z"/>
	<path d="M91.8,21c-0.1,0.4-0.3,0.8-0.4,1.2h4.1v6.9h-1v-0.5h-6.4v0.5h-0.9v-6.9h3.2c0.1-0.4,0.2-0.8,0.2-1.2h-3.9v-0.9h9.3V21H91.8
		z M88.2,27.6h1.3v-4.6h-1.3V27.6z M92.3,23.1h-2v1h2V23.1z M92.3,24.8h-2v1h2V24.8z M90.4,27.6h2v-1h-2V27.6z M94.6,23.1h-1.4v4.6
		h1.4V23.1z"/>
	<path d="M98.4,25.7c0.8-0.3,1.3-0.8,1.3-1.4c0,0-0.1,0-0.1,0c-0.5,0-0.9-0.3-0.9-0.8c0-0.5,0.4-0.8,0.9-0.8c0.7,0,1,0.5,1,1.3
		c0,1.2-0.7,2.1-1.9,2.5L98.4,25.7z"/>
	<path d="M105.1,21.6H103v-0.8h1.4c-0.1-0.3-0.4-0.7-0.6-1l0.7-0.3c0.3,0.3,0.6,0.8,0.7,1.1l-0.4,0.2h1.1c0.2-0.4,0.5-0.9,0.7-1.3
		l0.8,0.3c-0.2,0.4-0.4,0.7-0.6,1h1.3v0.8h-2.1v1.3c0,0.1,0,0.3,0,0.4h1V22h0.8v2.3h-0.8V24h-1.2c-0.2,0.7-0.7,1.4-1.8,1.8
		c-0.1-0.2-0.4-0.5-0.6-0.7c0.8-0.3,1.2-0.7,1.5-1.2h-1.5v-2h0.8v1.2h0.9c0-0.1,0-0.3,0-0.4V21.6z M112.4,27.9v0.9H103v-0.9h4.2v-1
		H104v-0.8h3.1v-0.6h0.8c-0.2-0.1-0.5-0.3-0.7-0.4c1.1-1,1.2-2.4,1.2-3.5v-1.7h3.6v4.8c0,0.5-0.1,0.7-0.4,0.9
		c-0.3,0.1-0.7,0.2-1.4,0.2c0-0.3-0.2-0.6-0.3-0.9c0.4,0,0.9,0,1,0c0.1,0,0.2,0,0.2-0.2v-1h-2c-0.2,0.7-0.5,1.3-1,1.8h0.1v0.6h3.2
		v0.8h-3.2v1H112.4z M111.1,22.9v-0.8h-1.8c0,0.2,0,0.5-0.1,0.8H111.1z M109.3,20.7v0.7h1.8v-0.7H109.3z"/>
	<path d="M116.6,24.3c-0.2,1-0.6,2-1,2.8c0.2,0.1,0.4,0.3,0.6,0.4c0.7,0.4,1.7,0.5,2.9,0.5c1.3,0,3-0.1,4.2-0.2
		c-0.1,0.3-0.3,0.7-0.3,1c-0.8,0.1-2.7,0.1-4,0.1c-1.4,0-2.3-0.1-3-0.6c-0.4-0.2-0.8-0.6-1-0.6c-0.2,0-0.6,0.7-0.9,1.3l-0.7-0.9
		c0.4-0.6,0.9-1,1.2-1.2c0.3-0.5,0.6-1.3,0.7-2h-1.4c0.3-0.6,0.6-1.4,0.9-2.2h-1.3v-0.9h2.4c-0.2,0.7-0.6,1.6-0.8,2.3h0.7l0.1,0
		L116.6,24.3z M114.9,21.5c-0.1-0.5-0.4-1.2-0.6-1.7l0.9-0.3c0.2,0.5,0.4,1.2,0.6,1.7L114.9,21.5z M117.9,21.5
		c-0.2,0.4-0.5,0.7-0.8,1c-0.2-0.1-0.6-0.4-0.8-0.5c0.7-0.6,1.2-1.6,1.5-2.5l0.9,0.2c-0.1,0.3-0.2,0.6-0.4,0.9h1v-1.2h1v1.2h2.4v0.8
		h-2.4v1.1h2.8v0.8h-6.7v-0.8h2.9v-1.1H117.9z M121.4,27.4v-0.3h-3.2v0.3h-0.9v-3.2h5.1v3.2H121.4z M121.4,26.3V25h-3.2v1.3H121.4z"
		/>
	<path d="M133.7,21v2.2h-1v-1.4h-7v1.4h-0.9V21h1.5c-0.2-0.3-0.5-0.7-0.7-1.1l0.8-0.3c0.4,0.4,0.7,0.9,0.9,1.3l-0.3,0.1h1.6v-1.5h1
		V21h1.6l-0.2-0.1c0.3-0.4,0.7-0.9,0.8-1.4l1,0.3c-0.3,0.4-0.6,0.8-0.9,1.1H133.7z M125.6,25.2h7.5v3.8h-1v-0.3h-5.6v0.3h-0.9V25.2z
		 M126.5,26v0.7h2.3V26H126.5z M128.8,28.1v-0.7h-2.3v0.7H128.8z M132,22.4v2.3h-5.5v-2.3H132z M131,23.2h-3.6V24h3.6V23.2z
		 M132.1,26h-2.4v0.7h2.4V26z M132.1,28.1v-0.7h-2.4v0.7H132.1z"/>
	<path d="M4.1,35.8c-0.3,0.7-0.7,1.4-1.1,2V45H2v-5.7c-0.4,0.5-0.8,1-1.3,1.4c-0.1-0.2-0.4-0.8-0.6-1c1.2-1,2.3-2.6,3-4.2L4.1,35.8z
		 M6.9,39.5c0.3,2.6,1,4.3,2,4.4c0.3,0,0.4-0.6,0.5-1.8c0.2,0.2,0.6,0.5,0.8,0.5c-0.2,1.9-0.7,2.4-1.3,2.4c-1.8-0.1-2.6-2.2-3-5.4
		l-2.3,0.3L3.5,39l2.4-0.3c-0.1-1-0.1-2-0.2-3.1h1c0,1,0.1,2,0.2,3l3.1-0.4l0.1,0.9L6.9,39.5z M9,37.8c-0.3-0.5-1-1.2-1.6-1.7
		l0.7-0.5c0.6,0.5,1.3,1.2,1.6,1.7L9,37.8z"/>
	<path d="M14.1,39.1c-0.2,1.5-0.4,2.7-0.9,3.7c1,0.9,2.4,1.1,4,1.1c0.5,0,2.7,0,3.3,0c-0.1,0.2-0.3,0.6-0.4,0.9h-3
		c-1.9,0-3.3-0.2-4.4-1.2c-0.3,0.6-0.8,1-1.2,1.4c-0.1-0.2-0.5-0.5-0.7-0.7c0.5-0.4,1-0.9,1.3-1.5c-0.4-0.5-0.7-1.2-0.9-2l0.7-0.3
		c0.2,0.6,0.4,1,0.6,1.4c0.2-0.6,0.4-1.4,0.5-2.2h-1.7c0.4-0.8,1-1.9,1.4-2.9h-1.7v-0.9h3.1c-0.4,0.9-0.9,2-1.4,2.9h0.5l0.2,0
		L14.1,39.1z M16.5,37.1h-1.9v-0.8h1.9v-0.8h0.9v0.8h2.3v1.4h0.7v0.8h-0.7v1.4h-2.3v0.7h2.4v0.7h-2.4V42h2.8v0.8h-2.8v0.9h-0.9v-0.9
		h-2.5V42h2.5v-0.7h-2v-0.7h2v-0.7h-2v-0.8h2v-0.6H14v-0.8h2.5V37.1z M17.5,37.1v0.6h1.4v-0.6H17.5z M18.9,38.5h-1.4v0.6h1.4V38.5z"
		/>
	<path d="M23.2,36.8c-0.3,0.4-0.7,0.8-1.1,1.1c-0.1-0.2-0.5-0.5-0.7-0.7c0.6-0.5,1.2-1.2,1.6-1.9l0.9,0.3c-0.1,0.1-0.1,0.3-0.2,0.4
		h2.5v0.8h-1.8c0.3,0.3,0.6,0.6,0.8,0.8l-0.7,0.5c-0.2-0.3-0.6-0.7-0.9-1l0.4-0.3H23.2z M25.1,43.1c-0.7,0.8-1.8,1.5-2.9,1.8
		c-0.1-0.2-0.4-0.6-0.7-0.8c1-0.2,2.2-0.7,2.8-1.3L25.1,43.1z M26.7,41.9h4.2v0.8h-4.2V45h-0.9v-2.4h-4.2v-0.8h4.2v-0.6
		c-0.2-0.1-0.4-0.3-0.5-0.4c0.6-0.2,1-0.5,1.2-0.8c-0.3-0.2-0.7-0.3-1-0.4l0.4-0.6c0.3,0.1,0.6,0.2,0.9,0.4c0-0.1,0-0.2,0-0.3v-0.3
		h-1.1v-0.7h3.8v2.1c0,0.2,0,0.3,0,0.3c0,0,0.1,0,0.1,0h0.2c0.1,0,0.1,0,0.2,0c0,0,0.1-0.1,0.1-0.2c0-0.1,0-0.4,0-0.8
		c0.2,0.1,0.4,0.3,0.7,0.3c0,0.4-0.1,0.8-0.1,1c-0.1,0.2-0.2,0.3-0.3,0.4c-0.1,0.1-0.3,0.1-0.5,0.1h-0.5c-0.2,0-0.5-0.1-0.6-0.2
		c-0.2-0.1-0.2-0.3-0.2-0.9v-1.4h-1v0.3c0,0.2,0,0.5-0.1,0.7c0.4,0.2,0.7,0.3,0.9,0.5L28.1,41c-0.2-0.1-0.5-0.3-0.9-0.5
		c-0.2,0.3-0.5,0.5-0.9,0.7h0.3V41.9z M21.6,40.6c0.4-0.1,0.9-0.1,1.5-0.2v-1.5h-1.4v-0.7h3.6v0.7H24v1.4c0.4-0.1,0.9-0.1,1.3-0.2
		l0,0.7c-1.3,0.2-2.6,0.4-3.6,0.5L21.6,40.6z M31,36v0.8H29c0.3,0.3,0.6,0.5,0.7,0.8L29,38.1c-0.2-0.3-0.5-0.7-0.9-1l0.4-0.3h-1.1
		c-0.3,0.4-0.6,0.8-1,1.1c-0.2-0.2-0.5-0.5-0.7-0.6c0.6-0.5,1.1-1.2,1.4-2l0.9,0.2c-0.1,0.2-0.1,0.3-0.2,0.5H31z M28,42.7
		c0.9,0.4,2.1,1,2.8,1.4l-0.7,0.7c-0.6-0.4-1.8-1.1-2.7-1.5L28,42.7z"/>
	<path d="M40.9,40.4v0.7h-6.6v0.3h-0.9v-3.1c-0.2,0.3-0.5,0.5-0.7,0.7c-0.1-0.2-0.5-0.5-0.7-0.7c1-0.7,1.9-1.8,2.4-2.9l0.9,0.3
		c-0.2,0.3-0.4,0.7-0.6,1h2.2c-0.1-0.3-0.3-0.7-0.5-1.1l0.9-0.2c0.2,0.4,0.5,0.9,0.6,1.3h2.7v0.7h-2.9v0.5h2.5v0.7h-2.5v0.6h2.5v0.7
		h-2.5v0.6H40.9z M40.7,44.1c0,0.4-0.1,0.7-0.4,0.8C40,45,39.6,45,38.9,45c0-0.3-0.1-0.6-0.3-0.8c0.4,0,0.8,0,0.9,0
		c0.1,0,0.2,0,0.2-0.1v-1.6h-1.4v1.5h-3.3v-1.5h-1.4v2.6h-0.9v-3.5H36v1.5h1.4v-1.5h3.3V44.1z M36.8,37.4h-2.5v0.5h2.5V37.4z
		 M36.8,38.6h-2.5v0.6h2.5V38.6z M34.3,40.4h2.5v-0.6h-2.5V40.4z"/>
	<path d="M46.1,39.8c-0.5,2.2-1.7,3.7-3,4.6c-0.2-0.2-0.5-0.6-0.8-0.7c1.1-0.6,2-1.8,2.5-3.2h-2.3v-0.9h2.7l0.2,0L46.1,39.8z
		 M51.8,39c-0.8,0.8-1.8,1.6-2.7,2.2c0.8,1.1,1.8,1.9,3,2.4c-0.2,0.2-0.5,0.6-0.7,0.9c-1.6-0.7-2.8-2-3.6-3.7v3.1
		c0,0.6-0.1,0.8-0.5,1c-0.4,0.2-1,0.2-1.8,0.2c0-0.3-0.2-0.7-0.3-1c0.6,0,1.2,0,1.4,0c0.2,0,0.2-0.1,0.2-0.2v-5.4H44v-0.9h3.8v0.8
		c0.2,0.7,0.5,1.4,0.8,2c0.8-0.6,1.7-1.4,2.2-2.1L51.8,39z M48.7,37.7c-0.8-0.5-2.5-1.1-3.8-1.4l0.5-0.8c1.2,0.3,3,0.8,3.9,1.3
		L48.7,37.7z"/>
	<path d="M58.1,40.8c0,0.2-0.1,0.5-0.1,0.7h4.2v0.8h-4.4c-0.5,1.4-1.6,2.2-4.4,2.7c-0.1-0.3-0.3-0.7-0.5-0.9
		c2.3-0.3,3.3-0.9,3.8-1.8h-3.3v-0.8H57c0-0.2,0.1-0.4,0.1-0.7h-4V40h4.1v-0.7h-3.2v-0.8h3.2v-0.7h-3.8v-0.9h2.1
		c-0.2-0.3-0.5-0.8-0.7-1.1l0.8-0.3c0.4,0.4,0.7,0.9,0.9,1.3l-0.3,0.2h2.6c0.3-0.4,0.6-1,0.8-1.4l1,0.3c-0.2,0.4-0.5,0.8-0.8,1.1H62
		v0.9h-3.8v0.7h3.3v0.8h-3.3V40h4.2v0.9H58.1z M62,45.1c-0.9-0.6-2.8-1.5-4.2-2l0.4-0.7c1.4,0.5,3.3,1.3,4.2,1.9L62,45.1z"/>
	<path d="M72.9,43.1h-4.1v1c0,0.5-0.1,0.7-0.5,0.8C68,45,67.5,45,66.6,45c-0.1-0.3-0.2-0.6-0.3-0.8c0.6,0,1.2,0,1.3,0
		c0.2,0,0.2,0,0.2-0.2v-1h-4.3v-0.8h4.3v-0.4c0.5-0.2,1-0.4,1.4-0.7h-3.8v-0.7h4.8l0.2-0.1l0.6,0.5c-0.6,0.5-1.4,0.9-2.2,1.3v0.1
		h4.1V43.1z M64.7,41.2h-0.9v-2h0.8l-0.2-3.1c0.6-0.1,1.5-0.4,2.1-0.5l0.4,0.6c-0.5,0.2-1,0.3-1.5,0.4l0,0.4h1.4v0.6h-1.4l0,0.5h1.4
		v0.6c0.3-0.1,0.6-0.3,0.9-0.5c-0.2-0.1-0.5-0.3-0.7-0.4l0.5-0.4c0.2,0.1,0.5,0.3,0.7,0.4c0.2-0.2,0.3-0.3,0.5-0.5l0.7,0.2
		c-0.2,0.2-0.4,0.4-0.6,0.6c0.3,0.2,0.5,0.4,0.7,0.5L69,39.1c-0.2-0.2-0.4-0.4-0.7-0.6c-0.3,0.2-0.6,0.4-0.9,0.6H71
		c0-0.2,0-0.3,0.1-0.5h-1.4V38h1.4l0-0.5h-1.4v-0.6h1.5l0-0.5h-1.5v-0.6h2.5c-0.1,1.1-0.1,2.4-0.2,3.3h0.8v2h-1v-1.3h-7.1V41.2z
		 M65.5,39.2h1.8c-0.1-0.1-0.3-0.4-0.5-0.5h-1.3L65.5,39.2z M69,37.2c-0.2-0.2-0.4-0.3-0.7-0.5c-0.3,0.2-0.6,0.4-0.9,0.6
		c-0.1-0.1-0.4-0.3-0.5-0.5c0.3-0.1,0.6-0.3,0.9-0.5c-0.2-0.1-0.4-0.3-0.7-0.3l0.5-0.4c0.2,0.1,0.5,0.2,0.7,0.4
		c0.2-0.1,0.3-0.3,0.4-0.5l0.7,0.2c-0.2,0.2-0.3,0.4-0.5,0.6c0.3,0.2,0.5,0.3,0.6,0.5L69,37.2z"/>
	<path d="M76.2,38.6c0.9,0,1.6,0.7,1.6,1.6c0,0.9-0.7,1.6-1.6,1.6c-0.9,0-1.6-0.7-1.6-1.6C74.5,39.4,75.3,38.6,76.2,38.6z
		 M76.2,41.3c0.6,0,1-0.5,1-1c0-0.6-0.5-1-1-1c-0.5,0-1,0.5-1,1C75.1,40.8,75.6,41.3,76.2,41.3z"/>
</g>
<g>
	<path d="M12.2,2.2v3h-1.5V3.5H2.4v1.6H0.9v-3h1.7C2.4,1.8,2.2,1.4,1.9,1.1l1.4-0.5c0.4,0.5,0.8,1.1,1,1.6L4.1,2.2h1.6V0.4h1.5v1.8
		h1.5l-0.1,0C9,1.7,9.4,1,9.6,0.5L11.3,1c-0.3,0.4-0.6,0.9-0.9,1.2H12.2z M1.9,7.7h9.5v4.9H9.8v-0.3H3.3v0.3H1.9V7.7z M10,4.1v3H3.1
		v-3H10z M3.3,8.8v0.7h2.4V8.8H3.3z M5.7,11.2v-0.7H3.3v0.7H5.7z M8.4,5.2H4.5V6h3.9V5.2z M9.8,8.8H7.2v0.7h2.5V8.8z M9.8,11.2v-0.7
		H7.2v0.7H9.8z"/>
	<path d="M18.2,1c-0.3,0.8-0.7,1.6-1.2,2.4v9.1h-1.6V5.7c-0.4,0.5-0.9,1-1.4,1.5c-0.1-0.4-0.6-1.2-0.9-1.6c1.4-1.2,2.8-3.1,3.5-5.1
		L18.2,1z M21.8,5.7c0.4,2.9,1.1,4.8,2.1,4.9c0.3,0,0.5-0.6,0.6-2.1c0.3,0.3,1,0.7,1.3,0.9c-0.3,2.5-1,3.1-1.8,3.1
		c-2.2-0.2-3.2-2.7-3.7-6.6l-2.6,0.4l-0.2-1.5l2.6-0.4C20,3.3,19.9,2,19.9,0.6h1.6c0,1.3,0.1,2.5,0.2,3.6l3.7-0.5l0.2,1.5L21.8,5.7z
		 M24.1,3.4c-0.3-0.6-1.1-1.5-1.8-2.2l1.2-0.7c0.7,0.6,1.5,1.5,1.9,2.1L24.1,3.4z"/>
	<path d="M30.5,5c-0.2,1.9-0.5,3.5-1,4.7c1.2,1,2.8,1.2,4.7,1.3c0.8,0,3.4,0,4.3,0c-0.2,0.3-0.5,1-0.5,1.4h-3.8
		c-2.2,0-4-0.3-5.3-1.4c-0.4,0.7-0.9,1.2-1.4,1.6c-0.2-0.3-0.8-0.8-1.1-1c0.6-0.4,1.1-1,1.5-1.7c-0.4-0.7-0.8-1.5-1.1-2.5l1.1-0.4
		c0.2,0.6,0.4,1.1,0.6,1.5C28.8,7.8,28.9,7,29,6.1h-2.1c0.5-1,1.2-2.4,1.7-3.7h-1.9V1.1h4c-0.5,1.2-1.1,2.5-1.7,3.7h0.3l0.3,0
		L30.5,5z M33.3,2.6h-2.2V1.4h2.2v-1h1.5v1h2.8v1.7h0.7v1.2h-0.7v1.7h-2.8v0.6h3v1.1h-3v0.6h3.4v1.2h-3.4v0.9h-1.5V9.7h-2.9V8.5h2.9
		V7.8h-2.4V6.7h2.4V6.1H31V4.9h2.3V4.4h-2.9V3.2h2.9V2.6z M34.7,2.6v0.6h1.5V2.6H34.7z M36.2,4.4h-1.5v0.6h1.5V4.4z"/>
	<path d="M51.5,2.3h-2.2c0.3,0.3,0.5,0.5,0.7,0.8l-1.1,0.8h0.9v2.5c0,0.2,0,0.3,0,0.4c0,0.1,0.1,0.1,0.1,0.1h0.2c0.1,0,0.1,0,0.2,0
		c0,0,0.1-0.1,0.1-0.2c0-0.2,0-0.5,0.1-0.9c0.2,0.2,0.7,0.4,1,0.5c0,0.5-0.1,1-0.2,1.3c-0.1,0.2-0.2,0.4-0.4,0.5
		c-0.2,0.1-0.5,0.1-0.7,0.1h-0.6c-0.3,0-0.7-0.1-0.9-0.3c-0.2-0.2-0.3-0.4-0.3-1.1l-0.5,0.9c-0.2-0.1-0.6-0.3-0.9-0.5
		c-0.2,0.3-0.4,0.5-0.7,0.7h0.2v0.8h5.1v1.2H48c1.1,0.4,2.6,1.1,3.3,1.7l-1.1,1.1c-0.7-0.5-2.2-1.3-3.3-1.8l1-0.9h-1.7v2.9h-1.5V9.6
		h-5.1V8.4h5.1V7.7h0.2c-0.2-0.2-0.4-0.3-0.5-0.4v0.1c-1.6,0.2-3.3,0.4-4.5,0.6l-0.2-1.2c0.5-0.1,1.1-0.1,1.7-0.2V4.9h-1.6V3.9h3.2
		c-0.2-0.4-0.7-0.8-1-1.2l0.5-0.4h-0.9c-0.4,0.5-0.8,1-1.3,1.4c-0.2-0.3-0.7-0.8-1-1.1c0.8-0.6,1.5-1.4,2-2.3l1.4,0.4
		c-0.1,0.1-0.1,0.3-0.2,0.4h2.8v1.2h-1.9c0.3,0.3,0.6,0.6,0.8,0.9l-0.9,0.7h1v1.1h-1.5v1.4c0.5-0.1,1-0.1,1.5-0.2l0,1
		c0.6-0.2,1-0.5,1.2-0.8c-0.4-0.2-0.7-0.4-1.1-0.5L45.1,5c0.3,0.1,0.6,0.3,0.9,0.4c0-0.1,0-0.1,0-0.2V4.8h-1.2v-1h3.9
		c-0.2-0.3-0.7-0.8-1-1.2l0.5-0.3h-1c-0.4,0.5-0.7,1-1.1,1.4c-0.3-0.2-0.8-0.7-1.2-0.9c0.8-0.6,1.4-1.5,1.8-2.4l1.4,0.4
		C48,0.8,47.9,1,47.9,1.1h3.6L51.5,2.3z M44.2,10.2c-0.8,1-2.2,1.9-3.6,2.3c-0.2-0.4-0.7-1-1-1.3c1.3-0.3,2.6-0.8,3.3-1.5L44.2,10.2
		z M47.3,5.3c0,0.2,0,0.5-0.1,0.7c0.4,0.2,0.7,0.4,1,0.5V6.3V4.8h-0.9V5.3z"/>
	<path d="M59.8,9.4c1.6,0.5,3.6,1.3,4.7,1.9l-0.7,1.3c-1.1-0.7-3.5-1.7-5.2-2.3l0.6-1h-0.5c-0.6,1.6-2,2.6-5.5,3.2
		c-0.1-0.4-0.5-1.1-0.8-1.4c2.6-0.4,3.8-0.9,4.4-1.8H53V8h4.4c0-0.2,0.1-0.4,0.1-0.7h-4.8V6h5V5.3h-3.8V4h3.8V3.4h-4.6V2h2.5
		c-0.2-0.4-0.5-0.8-0.7-1.1l1.4-0.5c0.4,0.5,0.8,1.1,1,1.5L56.8,2h2.9c0.3-0.5,0.7-1.2,0.9-1.7l1.7,0.4C62,1.2,61.7,1.6,61.4,2h2.5
		v1.4h-4.6V4h4v1.3h-4V6h5.2v1.3h-5.3C59.1,7.6,59,7.8,59,8h5.1v1.3H59.8z"/>
	<path d="M77.4,10.2h-5v0.9c0,0.7-0.2,1-0.7,1.2c-0.5,0.2-1.2,0.2-2.2,0.2c-0.1-0.4-0.3-0.9-0.5-1.3c0.6,0,1.4,0,1.6,0
		c0.2,0,0.3,0,0.3-0.2v-0.9h-5.3V9h5.3V8.6c0.5-0.2,1-0.5,1.4-0.8h-4.2V6.8h5.7l0.3-0.1L75,7.5C74.3,8,73.4,8.5,72.5,9h4.9V10.2z
		 M67.3,7.7h-1.5V5.1h1l-0.2-3.9c0.8-0.1,1.9-0.5,2.6-0.7l0.6,0.9c-0.5,0.2-1.2,0.4-1.8,0.5l0,0.4h1.7v1h-1.6l0,0.4h1.6v0.7
		c0.3-0.2,0.6-0.3,0.9-0.5c-0.2-0.2-0.5-0.3-0.7-0.4l0.7-0.6c0.3,0.1,0.5,0.3,0.8,0.4c0.2-0.2,0.4-0.4,0.5-0.5L73,3
		c-0.2,0.3-0.4,0.5-0.7,0.8c0.3,0.2,0.6,0.4,0.8,0.6L72.3,5c-0.2-0.2-0.5-0.4-0.8-0.6c-0.4,0.3-0.7,0.5-1.1,0.7h4.2l0.1-0.5h-1.5v-1
		h1.6l0-0.4h-1.6v-1H75l0-0.4h-1.8v-1h3.3c-0.1,1.4-0.2,3-0.3,4.2h1v2.7h-1.5V6.2h-8.3V7.7z M68.2,5.1h2.1c-0.1-0.2-0.4-0.4-0.6-0.6
		v0.1h-1.5L68.2,5.1z M72.3,2.7c-0.2-0.2-0.4-0.4-0.7-0.5c-0.4,0.3-0.7,0.5-1.1,0.6c-0.2-0.2-0.6-0.5-0.8-0.7c0.3-0.1,0.7-0.3,1-0.5
		c-0.2-0.1-0.5-0.3-0.7-0.4l0.7-0.6C71,0.7,71.2,0.9,71.5,1c0.2-0.2,0.3-0.3,0.5-0.5l1,0.3c-0.2,0.2-0.4,0.5-0.6,0.7
		C72.6,1.7,72.8,1.9,73,2L72.3,2.7z"/>
</g>
<g>
	<path d="M2.6,91.8v3c0,0.5-0.1,0.7-0.4,0.9c-0.3,0.2-0.7,0.2-1.4,0.2c0-0.2-0.1-0.7-0.3-0.9c0.4,0,0.8,0,0.9,0c0.1,0,0.2,0,0.2-0.2
		v-2.6c-0.4,0.2-0.8,0.3-1.1,0.4l-0.2-0.9c0.4-0.1,0.9-0.3,1.4-0.5v-2H0.5v-0.9h1.2v-2h0.9v2h1v0.9h-1v1.7c0.3-0.1,0.6-0.2,0.9-0.3
		l0.2,0.9L2.6,91.8z M5.2,86.3h0.9v4.6c0,2.1-0.3,3.8-2.4,4.9c-0.1-0.2-0.5-0.5-0.7-0.7c1.4-0.7,1.9-1.7,2.1-2.9
		c-0.5,0.4-1,0.8-1.5,1.1l-0.5-0.8c0.5-0.3,1.3-0.8,2.1-1.4v-0.3v-1.2l-0.7,0.4c-0.2-0.6-0.6-1.5-1-2.2l0.7-0.4
		c0.4,0.5,0.7,1.3,1,1.8V86.3z M9,94.9c0.2,0,0.3-0.3,0.3-1.4c0.2,0.2,0.6,0.3,0.8,0.4c-0.1,1.4-0.3,1.9-1.1,1.9h-1
		c-0.8,0-1.1-0.3-1.1-1.4v-8h0.9v3.4c0.4-0.6,0.9-1.6,1.1-2.3l0.9,0.5c-0.4,0.8-0.9,1.6-1.3,2.2l-0.7-0.4V91l0.2-0.3
		c0.7,0.6,1.5,1.4,2,1.9l-0.6,0.7c-0.3-0.4-1-1.1-1.6-1.7v2.7c0,0.5,0,0.5,0.3,0.5H9z"/>
	<path d="M20.3,87.3v0.8h-9.2v-0.8h4.2c-0.1-0.3-0.2-0.6-0.3-0.9l1-0.2c0.1,0.3,0.3,0.8,0.4,1.1H20.3z M20,94.9
		c0,0.5-0.1,0.6-0.4,0.8c-0.3,0.1-0.8,0.1-1.5,0.1c-0.1-0.2-0.2-0.5-0.3-0.7c0.4,0,1,0,1.1,0c0.1,0,0.2,0,0.2-0.2v-2.8h-6.6v3.8h-1
		v-4.6H20V94.9z M19,88.6v2.2h-6.3v-2.2H19z M14.4,94.8v0.5h-0.9v-2.7h4.5v2.2H14.4z M17.9,89.3h-4.3v0.8h4.3V89.3z M14.4,93.3v0.8
		h2.7v-0.8H14.4z"/>
	<path d="M21.9,94h1.7v-5.4h-1.4v-0.8c0.7-0.1,1.2-0.3,1.7-0.6h0.9V94h1.5v1h-4.4V94z"/>
	<path d="M27.9,94h1.7v-5.4h-1.4v-0.8c0.7-0.1,1.2-0.3,1.7-0.6h0.9V94h1.5v1h-4.4V94z"/>
	<path d="M37.2,92c-0.7,1.5-1.9,3-3.1,3.8c-0.2-0.3-0.5-0.6-0.7-0.8c1.1-0.7,2.3-2.1,3-3.3L37.2,92z M38.7,91.1v4.7h-1v-4.7h-4.1v-1
		h4.1v-3.9h1v3.9h4.1v1H38.7z M35.5,89.6c-0.2-0.7-0.8-1.7-1.4-2.4l0.9-0.4c0.6,0.7,1.2,1.7,1.4,2.4L35.5,89.6z M39.9,91.6
		c1.2,1.1,2.5,2.6,3.1,3.7l-0.8,0.5c-0.5-1-1.8-2.6-3-3.7L39.9,91.6z M42.4,87.1c-0.5,0.9-1.2,1.9-1.7,2.6l-0.8-0.4
		c0.5-0.7,1.1-1.8,1.5-2.6L42.4,87.1z"/>
	<path d="M53.2,87.8c0,0,0,0.3,0,0.5c-0.1,4.7-0.3,6.4-0.7,6.9c-0.3,0.3-0.5,0.4-0.9,0.5c-0.4,0-1,0-1.6,0c0-0.3-0.1-0.7-0.3-0.9
		c0.7,0.1,1.3,0.1,1.5,0.1c0.2,0,0.3,0,0.4-0.2c0.3-0.3,0.5-1.9,0.6-5.9h-2.5c-0.3,0.7-0.6,1.3-1,1.8c-0.2-0.1-0.5-0.4-0.8-0.5v4.8
		h-2.8v0.8h-0.9v-7.7h1.2c0.1-0.5,0.3-1.2,0.4-1.7l1.1,0.2c-0.2,0.5-0.4,1.1-0.5,1.5h1.7v2c0.7-0.9,1.2-2.3,1.6-3.7l0.9,0.2
		c-0.1,0.5-0.3,1-0.4,1.4H53.2z M45.3,88.7v2h2v-2H45.3z M47.2,93.9v-2.3h-2v2.3H47.2z M50.7,93.1c-0.3-0.6-1-1.7-1.5-2.4l0.8-0.4
		c0.6,0.7,1.3,1.7,1.6,2.3L50.7,93.1z"/>
	<path d="M57.1,91.2c-0.2,0.9-0.5,1.9-0.9,2.7c0.2,0.1,0.4,0.3,0.8,0.5c0.7,0.4,1.7,0.5,2.9,0.5c1.3,0,3-0.1,4.2-0.2
		c-0.1,0.3-0.3,0.7-0.3,1c-0.8,0.1-2.7,0.1-4,0.1c-1.4,0-2.3-0.1-3-0.6c-0.4-0.2-0.8-0.6-1-0.6c-0.2,0-0.6,0.7-0.9,1.3L54.3,95
		c0.4-0.5,0.7-0.9,1.1-1.1c0.3-0.6,0.5-1.3,0.7-2h-1.3c0.3-0.6,0.6-1.5,0.8-2.3h-1.1v-0.9h2.3c-0.2,0.7-0.5,1.6-0.8,2.3h0.6l0.1,0
		L57.1,91.2z M55.6,88.3c-0.1-0.5-0.4-1.2-0.5-1.8l0.9-0.3c0.2,0.5,0.4,1.2,0.6,1.7L55.6,88.3z M60,91.6c0,0.3,0,0.7,0.1,0.9
		c-1.9,0.6-2.3,0.7-2.5,0.9c-0.1-0.2-0.2-0.6-0.4-0.8c0.2-0.1,0.4-0.3,0.4-0.8v-4.6c0.7-0.3,1.6-0.7,2.1-1l0.7,0.7h3.2v5.3
		c0,0.4-0.1,0.7-0.4,0.8c-0.3,0.1-0.7,0.2-1.3,0.2c0-0.2-0.2-0.6-0.3-0.8c0.4,0,0.8,0,0.9,0c0.1,0,0.2,0,0.2-0.2v-4.5h-1.4v6.7h-0.9
		v-7.5c-0.5,0.3-1.2,0.6-1.8,0.8V92L60,91.6z"/>
	<path d="M71.5,94.4c1,0.3,2.1,0.7,2.8,0.9l-0.9,0.6c-0.7-0.3-1.9-0.7-3-1.1l0.5-0.4h-2.5l0.6,0.4c-0.8,0.5-2.3,0.9-3.4,1.1
		c-0.1-0.2-0.4-0.5-0.6-0.7c1-0.2,2.2-0.5,3-0.8h-1.5v-3.2c-0.4,0.1-0.8,0.1-1.2,0.1c-0.1-0.2-0.3-0.6-0.5-0.8
		c0.5,0,0.9-0.1,1.4-0.1c-0.1-0.2-0.4-0.4-0.5-0.5c0.7-0.2,1.4-0.6,1.8-1l0.8,0.2c-0.4,0.4-1,0.8-1.6,1.2c0.9-0.1,1.7-0.2,2.5-0.4
		v-1h-2.3v-0.7h5.6v0.7h-2.4v0.8c0.8-0.2,1.5-0.5,2-0.8l0.8,0.4c-0.7,0.5-1.6,0.8-2.6,1.1h2.8v3.9H71.5z M66.3,88.8h-0.9V87h3.7
		c-0.1-0.2-0.2-0.4-0.3-0.5l0.9-0.3c0.2,0.3,0.4,0.6,0.5,0.9H74v1.8h-0.9v-1h-6.8V88.8z M67.5,91.6h4.6v-0.5h-4.6V91.6z M72.1,92.2
		h-4.6v0.6h4.6V92.2z M67.5,93.8h4.6v-0.6h-4.6V93.8z"/>
	<path d="M78.2,87.3h1.2V94h3.3v1h-4.5V87.3z"/>
	<path d="M83.4,92.1c0-1.9,1.3-3,2.7-3s2.7,1.1,2.7,3c0,1.9-1.3,3-2.7,3S83.4,94.1,83.4,92.1z M87.6,92.1c0-1.2-0.6-2-1.5-2
		c-0.9,0-1.5,0.8-1.5,2c0,1.2,0.6,2,1.5,2C87.1,94.2,87.6,93.4,87.6,92.1z"/>
	<path d="M91.4,94.4L91.4,94.4L91.2,95h-0.9v-8.4h1.2v2.2l0,1c0.5-0.4,1.1-0.8,1.7-0.8c1.5,0,2.3,1.2,2.3,2.9c0,2-1.2,3.1-2.5,3.1
		C92.4,95.2,91.9,94.9,91.4,94.4z M94.2,92.1c0-1.2-0.4-2-1.4-2c-0.5,0-0.9,0.2-1.4,0.7v2.8c0.4,0.4,0.9,0.5,1.3,0.5
		C93.6,94.2,94.2,93.4,94.2,92.1z"/>
	<path d="M98,94.4L98,94.4L97.8,95h-0.9v-8.4h1.2v2.2l0,1c0.5-0.4,1.1-0.8,1.7-0.8c1.5,0,2.3,1.2,2.3,2.9c0,2-1.2,3.1-2.5,3.1
		C99,95.2,98.5,94.9,98,94.4z M100.8,92.1c0-1.2-0.4-2-1.4-2c-0.5,0-0.9,0.2-1.4,0.7v2.8c0.4,0.4,0.9,0.5,1.3,0.5
		C100.2,94.2,100.8,93.4,100.8,92.1z"/>
	<path d="M106,95.4c-0.5,1.2-1.1,2.1-2.3,2.1c-0.3,0-0.5,0-0.7-0.1l0.2-0.9c0.1,0,0.3,0.1,0.4,0.1c0.6,0,1-0.5,1.2-1.1l0.1-0.4
		l-2.3-5.7h1.2l1.1,3c0.2,0.5,0.3,1.1,0.5,1.6h0.1l0.5-1.6l0.9-3h1.2L106,95.4z"/>
	<path d="M114.2,90.1c0.7,2.2,2,4,4,4.8c-0.2,0.2-0.6,0.6-0.7,0.9c-2-0.9-3.2-2.6-4.1-4.8c-0.5,1.9-1.7,3.7-4.1,4.8
		c-0.2-0.3-0.5-0.6-0.7-0.8c2.5-1.1,3.5-3,3.9-4.9h-3.7v-1h3.9c0.1-1,0.1-2.1,0.1-2.9h1.1c0,0.8,0,1.9-0.1,2.9h4.2v1H114.2z"/>
	<path d="M120.7,90.2c0,1.6-0.1,4.1-0.9,5.7c-0.2-0.2-0.5-0.4-0.8-0.5c0.7-1.5,0.8-3.6,0.8-5.1v-3.3h3.9c-0.1-0.2-0.2-0.4-0.3-0.5
		l0.8-0.3c0.2,0.2,0.4,0.6,0.6,0.8h3.9v0.8h-8V90.2z M123,93.1c-0.2,0.1-0.5,0.1-0.8,0.1v0.5h0.6v0.6h-0.6v0.5l0.7-0.1l0,0.6
		c-0.8,0.1-1.5,0.2-2.2,0.3l-0.1-0.7c0.3,0,0.6,0,0.9-0.1v-0.6h-0.7v-0.6h0.7v-0.5c-0.3,0-0.5,0-0.7,0c0-0.2-0.1-0.4-0.2-0.6
		c0.7-0.1,1.5-0.2,2-0.3L123,93.1z M123.9,88.9v7h-0.7v-3.8c-0.8,0.1-1.6,0.1-2.2,0.2l-0.1-0.7l0.6,0v-2.7H121v-0.6h3.3v0.6H123.9z
		 M123.1,88.9h-1v0.5h1V88.9z M123.1,89.9h-1v0.5h1V89.9z M123.1,91.4v-0.5h-1v0.6L123.1,91.4z M124,95.2c0.3-0.4,0.4-1,0.5-1.6
		l0.6,0.2c-0.1,0.6-0.2,1.3-0.5,1.7L124,95.2z M128.7,92.9h-2.4c0.3,0.3,0.7,0.8,0.8,1.1l-0.6,0.3c-0.1-0.3-0.5-0.9-0.9-1.2l0.4-0.2
		h-1.9v-0.7h4.5V92.9z M126.8,88v0.6h1.7v0.7h-1.7v0.5h1.7v2h-4v-2h1.5v-0.5h-1.6v-0.7h1.6V88H126.8z M125.6,90.3h-0.5v0.9h0.5V90.3
		z M126.8,95.2c0.2,0,0.2-0.1,0.2-0.7c0.1,0.1,0.4,0.2,0.6,0.3c-0.1,0.9-0.3,1.1-0.8,1.1h-0.8c-0.7,0-0.8-0.2-0.8-0.9v-1.4h0.7v1.4
		c0,0.2,0,0.2,0.2,0.2H126.8z M126.7,90.3h-0.6v0.9h0.6V90.3z M127.3,91.2h0.6v-0.9h-0.6V91.2z M128,93.5c0.4,0.5,0.7,1.2,0.8,1.7
		l-0.7,0.3c-0.1-0.5-0.4-1.2-0.8-1.7L128,93.5z"/>
	<path d="M130.7,92.5c0.8-0.3,1.3-0.8,1.3-1.4c0,0-0.1,0-0.1,0c-0.5,0-0.9-0.3-0.9-0.8c0-0.5,0.4-0.8,0.9-0.8c0.7,0,1,0.5,1,1.3
		c0,1.2-0.7,2.1-1.9,2.5L130.7,92.5z"/>
	<path d="M10.1,108.5v0.9H0.4v-0.9h1v-5.1h2.2v-1.3h0.9v1.3h1.3v-1.3h0.9v1.3h2.3v5.1H10.1z M4.4,110.1c-0.8,0.7-2.1,1.4-3.2,1.8
		c-0.2-0.2-0.5-0.5-0.7-0.7c1.1-0.4,2.4-1.1,3-1.7L4.4,110.1z M2.4,104.3v1.6h1.3v-1.6H2.4z M2.4,108.5h1.3v-1.7H2.4V108.5z
		 M4.6,104.3v1.6h1.3v-1.6H4.6z M5.9,106.8H4.6v1.7h1.3V106.8z M6.8,109.5c1.1,0.5,2.3,1.2,3.1,1.7L9,111.8
		c-0.7-0.5-1.8-1.2-2.9-1.7L6.8,109.5z M6.8,104.3v1.6h1.3v-1.6H6.8z M6.8,108.5h1.3v-1.7H6.8V108.5z"/>
	<path d="M20.3,106.3c-0.3,1.3-0.7,2.4-1.2,3.4c0.3,0.9,0.5,1.4,0.8,1.4c0.2,0,0.3-0.3,0.3-1.3c0.2,0.2,0.5,0.3,0.7,0.4
		c-0.1,1.5-0.4,1.7-1.1,1.7c-0.5,0-1-0.5-1.3-1.3c-0.4,0.5-0.8,1-1.3,1.3c-0.1-0.2-0.5-0.5-0.7-0.6c0.3-0.2,0.5-0.4,0.7-0.6h-2.9
		v-4.6h3.1v0.6h-0.9v0.6h1v2h-1v0.7h1v0.4c0.3-0.3,0.5-0.6,0.7-0.9c-0.2-1-0.4-2.3-0.5-3.9h-3.8v2.2c0,1.3-0.1,3-0.7,4.2
		c-0.2-0.1-0.5-0.3-0.7-0.4c0.4-0.7,0.6-1.7,0.6-2.6h-0.6v0.4c0,0.7-0.1,1.9-0.8,2.6c-0.1-0.1-0.4-0.3-0.6-0.4
		c0.5-0.7,0.6-1.6,0.6-2.2v-0.4h-0.5v-0.8h1.9v-0.4v-0.4h-1.5v-2.5h0.7v1.7h0.7v-1.8h4.6l0-0.5h-0.1v-0.6h-1.3v-0.8h1.3v-0.7h1v0.7
		h2.1v0.8h-2.1v0.4h0c0,0.2,0,0.4,0,0.6h1c-0.2-0.2-0.5-0.4-0.7-0.6l0.6-0.4c0.4,0.2,0.8,0.5,1,0.8l-0.3,0.2h0.6v0.8h-2.2
		c0.1,1,0.1,1.9,0.3,2.7c0.3-0.7,0.5-1.4,0.6-2.2L20.3,106.3z M13.5,103.7h-2.1v-0.8h2.1v-0.7h1v0.7h1.3v0.8h-1.3v0.7h-1V103.7z
		 M15.1,106.8v0.6h0.7v-0.6H15.1z M16.8,108h-1.7v0.8h1.7V108z M15.1,110h0.7v-0.7h-0.7V110z"/>
	<path d="M31.3,103.7v2.2h-1v-1.4h-7v1.4h-0.9v-2.2h1.5c-0.2-0.3-0.5-0.7-0.7-1.1l0.9-0.3c0.4,0.4,0.7,0.9,0.9,1.3l-0.3,0.1h1.6
		v-1.5h1v1.5h1.6l-0.2-0.1c0.3-0.4,0.7-0.9,0.8-1.4l1,0.3c-0.3,0.4-0.6,0.8-0.9,1.1H31.3z M23.1,108h7.5v3.8h-1v-0.3h-5.6v0.3h-0.9
		V108z M24.1,108.7v0.7h2.3v-0.7H24.1z M26.3,110.9v-0.7h-2.3v0.7H26.3z M29.6,105.2v2.3h-5.5v-2.3H29.6z M28.6,105.9H25v0.8h3.6
		V105.9z M29.6,108.7h-2.4v0.7h2.4V108.7z M29.6,110.9v-0.7h-2.4v0.7H29.6z"/>
	<path d="M36.4,102.6c-0.3,0.7-0.7,1.4-1.1,2v7.2h-1v-5.7c-0.4,0.5-0.8,1-1.3,1.4c-0.1-0.2-0.4-0.8-0.6-1c1.2-1,2.3-2.6,3-4.2
		L36.4,102.6z M39.2,106.2c0.3,2.6,1,4.3,2,4.4c0.3,0,0.4-0.6,0.5-1.8c0.2,0.2,0.6,0.5,0.8,0.5c-0.2,1.9-0.7,2.4-1.3,2.4
		c-1.8-0.1-2.6-2.2-3-5.4l-2.3,0.3l-0.1-0.9l2.4-0.3c-0.1-1-0.1-2-0.2-3.1h1c0,1,0.1,2,0.2,3l3.1-0.4l0.1,0.9L39.2,106.2z
		 M41.4,104.6c-0.3-0.5-1-1.2-1.6-1.7l0.7-0.5c0.6,0.5,1.3,1.2,1.6,1.7L41.4,104.6z"/>
	<path d="M52.3,107.7c0.1,0,0.1,0,0.2,0c0,0,0.1-0.1,0.1-0.2c0-0.1,0-0.4,0-0.8c0.1,0.1,0.4,0.2,0.6,0.3c0,0.4-0.1,0.8-0.1,1
		c-0.1,0.1-0.1,0.3-0.3,0.3c-0.1,0.1-0.3,0.1-0.4,0.1h-0.4c-0.2,0-0.4-0.1-0.5-0.2c-0.1-0.1-0.2-0.3-0.2-0.9v-1.8h-0.7
		c0,0.3-0.1,0.6-0.2,1c0.3,0.2,0.6,0.4,0.8,0.6l-0.5,0.6c-0.2-0.2-0.4-0.3-0.6-0.5c-0.3,0.5-0.7,1-1.4,1.4c-0.1-0.1-0.2-0.2-0.3-0.3
		c-1.6,0.1-3.3,0.2-4.4,0.3l-0.1-0.6c0.5,0,1.2-0.1,1.9-0.1v-0.4h-1.4v-0.5h1.4v-0.5h0.8c0-0.1-0.1-0.3-0.1-0.4v-0.2h-0.8
		c-0.2,0.6-0.6,0.9-1.6,1.1c-0.1-0.1-0.2-0.4-0.3-0.5c0.8-0.1,1.1-0.3,1.3-0.6h-1.1v-0.5h1.8v-0.4h-1.3v-0.5h1.3V104h0.8v0.3h1.3
		v0.5h-1.3v0.4h1.8v0.5H47v0.2c0,0.2,0,0.2,0.2,0.2h0.5c0.1,0,0.3,0,0.5-0.1c0,0.2,0,0.3,0.1,0.5c-0.1,0-0.3,0-0.5,0H47
		c-0.3,0-0.4-0.1-0.5-0.2v0.4H48v0.5h-1.5v0.4l1.8-0.1v0.2c0.5-0.4,0.8-0.7,1-1.2c-0.3-0.2-0.6-0.3-0.9-0.5l0.4-0.5
		c0.2,0.1,0.5,0.2,0.7,0.3c0.1-0.2,0.1-0.4,0.1-0.6h-1.1v-0.7h1.1v-0.7h0.8v0.7h1.5v2.5c0,0.2,0,0.3,0,0.3c0,0,0.1,0.1,0.1,0.1H52.3
		z M43.7,109.7H53v0.6h-2.4c0.8,0.3,1.6,0.9,2.1,1.3l-0.7,0.5c-0.2-0.2-0.4-0.3-0.7-0.5c-5.7,0.3-6.3,0.3-6.7,0.4
		c-0.1-0.1-0.2-0.5-0.3-0.7c0.2,0,0.4-0.1,0.7-0.2c0.2-0.1,0.7-0.3,1.2-0.7h-2.5V109.7z M46.1,103.6h-2.4v-0.7h2.4v-0.7h0.9v0.7h1.1
		v0.7h-1.1v0.4h-0.9V103.6z M51.7,108.6v0.6H45v-0.6H51.7z M50.3,110.9c-0.2-0.1-0.5-0.3-0.7-0.4l0.5-0.3h-2.6
		c-0.4,0.3-0.9,0.5-1.3,0.8L50.3,110.9z M49.6,103.6h-1v-0.7h1v-0.7h1v0.7h2.4v0.7h-2.4v0.4h-1V103.6z"/>
	<path d="M63.9,106.4H63v4.3c0,0.5-0.1,0.8-0.4,0.9c-0.3,0.2-0.8,0.2-1.5,0.2c0-0.3-0.2-0.7-0.3-0.9c0.5,0,1,0,1.1,0
		c0.1,0,0.2,0,0.2-0.2v-4.3H61v-0.8h-1.6v6.2h-0.9v-6.2h-1.5v-0.8c-0.2,0.5-0.5,0.9-0.8,1.4v5.7h-0.9v-4.5c-0.3,0.3-0.5,0.6-0.8,0.8
		c-0.1-0.2-0.4-0.7-0.5-0.9c0.9-0.7,1.7-1.8,2.2-3l0.9,0.3l0,0.1h1.4v-2.4h0.9v2.4H61v0.8h2.9L63.9,106.4z M56.9,102.5
		c-0.5,0.9-1.4,1.9-2.1,2.5c-0.1-0.2-0.4-0.5-0.5-0.7c0.7-0.5,1.4-1.4,1.8-2.1L56.9,102.5z M58.1,106.2c0,2-0.1,3.3-0.9,4.1
		c-0.1-0.2-0.3-0.5-0.5-0.6c0.6-0.7,0.7-1.8,0.7-3.6H58.1z M60.5,104.5c-0.2-0.4-0.5-1-0.9-1.4l0.6-0.3c0.4,0.4,0.7,1,0.9,1.3
		L60.5,104.5z M61,109.4c0.1,0,0.2,0,0.3-0.1c0,0.2,0.1,0.5,0.1,0.7c-0.1,0-0.3,0.1-0.4,0.1h-0.3c-0.7,0-0.8-0.3-0.8-1.1v-2.8h0.7
		v2.8c0,0.3,0,0.3,0.1,0.3H61z M63.8,103.9h-2.5V103h2.5V103.9z"/>
	<path d="M66.7,108.6c0,0.1,0,0.3-0.1,0.4h3.9v2.7h-0.9v-0.4h-2.3v0.4h-0.8v-2.6c-0.1,0.8-0.4,1.6-0.8,2.3c-0.2-0.1-0.6-0.3-0.8-0.4
		c0.8-1.3,0.9-3.1,0.9-4.3v-1.3h4.4v3.2H66.7z M68.9,102.6c-0.1,0.1-0.1,0.2-0.2,0.3c0.8,0.5,1.7,1,2.2,1.4l-0.5,0.8
		c-0.5-0.4-1.4-1-2.3-1.5c-0.3,0.3-0.6,0.6-0.9,0.8h2v0.6h-2.2v-0.5c-0.5,0.4-1.1,0.8-1.6,1.1c-0.1-0.2-0.4-0.7-0.5-0.9
		c1.2-0.5,2.4-1.4,3-2.4L68.9,102.6z M69.4,107.9v-0.6h-2.6c0,0.2,0,0.4,0,0.6H69.4z M66.8,106.2v0.6h2.6v-0.6H66.8z M67.4,109.7
		v0.9h2.3v-0.9H67.4z M72.3,109.1h-0.9v-5.8h0.9V109.1z M74.2,102.3v8.4c0,0.6-0.1,0.8-0.5,1c-0.3,0.2-0.9,0.2-1.7,0.2
		c0-0.3-0.2-0.7-0.3-1c0.6,0,1.1,0,1.3,0c0.2,0,0.2-0.1,0.2-0.2v-8.4H74.2z"/>
	<path d="M79.2,102.5c-0.3,0.7-0.6,1.5-1,2.2v7.1h-1v-5.5c-0.3,0.4-0.6,0.7-0.9,1c-0.1-0.2-0.4-0.8-0.5-1c1-1,1.9-2.5,2.5-4.1
		L79.2,102.5z M82.4,104.9v1.3h2.9v0.9h-2.9v1.4h3v0.9h-3v2.4h-1v-7h-0.6c-0.4,0.8-0.9,1.6-1.4,2.1c-0.2-0.2-0.5-0.5-0.8-0.7
		c0.9-1,1.8-2.5,2.3-4l0.9,0.3c-0.2,0.5-0.3,0.9-0.5,1.4h4.2v0.9H82.4z"/>
	<path d="M87.6,108.5c0.8-0.3,1.3-0.8,1.3-1.4c0,0-0.1,0-0.1,0c-0.5,0-0.9-0.3-0.9-0.8c0-0.5,0.4-0.8,0.9-0.8c0.7,0,1,0.5,1,1.3
		c0,1.2-0.7,2.1-1.9,2.5L87.6,108.5z"/>
	<path d="M93.8,107.1c-0.4-0.4-1.1-0.9-1.7-1.2l0.6-0.7c0.6,0.3,1.3,0.8,1.7,1.1L93.8,107.1z M94.7,108.3c-0.5,1.1-1,2.3-1.6,3.3
		l-0.9-0.6c0.5-0.8,1.2-2.1,1.7-3.3L94.7,108.3z M94.3,104.3c-0.4-0.4-1.1-0.9-1.7-1.2l0.6-0.7c0.6,0.3,1.3,0.8,1.7,1.2L94.3,104.3z
		 M99.3,108.2c0.6,0.9,1.6,1.7,2.5,2.2c-0.2,0.2-0.5,0.5-0.7,0.8c-0.9-0.5-1.8-1.4-2.5-2.4v3.1h-1v-3c-0.7,1-1.6,1.9-2.6,2.4
		c-0.1-0.2-0.4-0.6-0.7-0.8c1-0.4,2-1.3,2.6-2.2H95v-0.9h2.7v-1.1h1v1.1h2.8v0.9H99.3z M97.8,103.9c-0.1,1.5-0.6,2.3-2.6,2.7
		c-0.1-0.2-0.3-0.6-0.5-0.8c1.8-0.3,2.1-0.8,2.2-2H97.8z M96,104.7h-0.9v-2h6.2v1.9h-0.9v-1.1H96V104.7z M100.9,105.5
		c0.2,0,0.5,0,0.7-0.1c0,0.2,0.1,0.6,0.1,0.8c-0.1,0.1-0.4,0.1-0.7,0.1h-1.2c-0.9,0-1.1-0.3-1.1-1.2v-1.3h0.9v1.3
		c0,0.3,0,0.3,0.2,0.3H100.9z"/>
	<path d="M109.4,109.6c1.1,0.5,2.3,1.1,3.1,1.5l-0.8,0.7c-0.7-0.5-1.9-1.1-3-1.6l0.6-0.6h-3.4l0.8,0.6c-0.8,0.6-2.1,1.3-3.1,1.7
		c-0.2-0.2-0.5-0.5-0.7-0.7c1-0.3,2.3-1,3-1.5H103v-0.9h1.5v-6h6.4v6h1.4v0.9H109.4z M105.5,103.5v0.7h4.5v-0.7H105.5z M110,105
		h-4.5v0.7h4.5V105z M105.5,106.4v0.8h4.5v-0.8H105.5z M105.5,108.7h4.5v-0.8h-4.5V108.7z"/>
	<path d="M118.8,107.6c0,0.2-0.1,0.5-0.1,0.7h4.2v0.8h-4.4c-0.5,1.4-1.6,2.2-4.4,2.7c-0.1-0.3-0.3-0.7-0.5-0.9
		c2.3-0.3,3.3-0.9,3.8-1.8h-3.3v-0.8h3.6c0-0.2,0.1-0.4,0.1-0.7h-4v-0.9h4.1V106h-3.2v-0.8h3.2v-0.7h-3.8v-0.9h2.1
		c-0.2-0.3-0.5-0.8-0.7-1.1l0.8-0.3c0.4,0.4,0.7,0.9,0.9,1.3l-0.3,0.2h2.6c0.3-0.4,0.6-1,0.8-1.4l1,0.3c-0.2,0.4-0.5,0.8-0.8,1.1
		h2.1v0.9h-3.8v0.7h3.3v0.8h-3.3v0.7h4.2v0.9H118.8z M122.7,111.9c-0.9-0.6-2.8-1.5-4.2-2l0.4-0.7c1.4,0.5,3.3,1.3,4.2,1.9
		L122.7,111.9z"/>
	<path d="M134,106.4h-0.9v4.3c0,0.5-0.1,0.8-0.4,0.9c-0.3,0.2-0.8,0.2-1.5,0.2c0-0.3-0.2-0.7-0.3-0.9c0.5,0,1,0,1.1,0
		c0.1,0,0.2,0,0.2-0.2v-4.3h-1.1v-0.8h-1.6v6.2h-0.9v-6.2h-1.5v-0.8c-0.2,0.5-0.5,0.9-0.8,1.4v5.7h-0.9v-4.5
		c-0.3,0.3-0.5,0.6-0.8,0.8c-0.1-0.2-0.4-0.7-0.5-0.9c0.8-0.7,1.7-1.8,2.2-3l0.9,0.3l0,0.1h1.4v-2.4h0.9v2.4h1.7v0.8h2.9L134,106.4z
		 M127.1,102.5c-0.5,0.9-1.4,1.9-2.1,2.5c-0.1-0.2-0.4-0.5-0.5-0.7c0.7-0.5,1.4-1.4,1.8-2.1L127.1,102.5z M128.2,106.2
		c0,2-0.1,3.3-0.9,4.1c-0.1-0.2-0.3-0.5-0.5-0.6c0.6-0.7,0.7-1.8,0.7-3.6H128.2z M130.7,104.5c-0.2-0.4-0.5-1-0.9-1.4l0.6-0.3
		c0.4,0.4,0.7,1,0.9,1.3L130.7,104.5z M131.1,109.4c0.1,0,0.2,0,0.3-0.1c0,0.2,0.1,0.5,0.1,0.7c-0.1,0-0.3,0.1-0.4,0.1h-0.3
		c-0.7,0-0.8-0.3-0.8-1.1v-2.8h0.7v2.8c0,0.3,0,0.3,0.1,0.3H131.1z M133.9,103.9h-2.5V103h2.5V103.9z"/>
	<path d="M9.1,121.2v-1H5.3v0.8H9v2.7H6v0.8h3.6v3.3H8.7v-0.4H6v0.4H5.1v-6.6H4.5v-1.6l-0.4,0.7c-0.3-0.3-0.9-0.6-1.5-0.9
		c-0.2,0.3-0.5,0.5-0.7,0.8h1.7v0.7H1.8v-0.6c-0.3,0.3-0.7,0.6-1.1,0.9c-0.1-0.2-0.3-0.7-0.4-0.9c0.8-0.5,1.7-1.3,2.1-2.1l0.8,0.3
		c-0.1,0.1-0.1,0.2-0.2,0.3c0.5,0.3,1.1,0.6,1.4,0.8v-0.2h2.4c-0.1-0.3-0.3-0.7-0.4-0.9l0.9-0.4c0.2,0.4,0.4,0.8,0.6,1.1l-0.3,0.2
		h2.4v1.8H9.1z M3.4,125.1c0.4,0.7,0.8,1.6,1,2.1l-0.7,0.3c-0.1-0.2-0.2-0.5-0.3-0.8c-2,0.8-2.3,0.9-2.5,1.1c0-0.2-0.2-0.6-0.3-0.8
		c0.2-0.1,0.4-0.2,0.4-0.6v-5h3.1v3.6H1.9v1.6l1.2-0.4c-0.1-0.2-0.2-0.5-0.3-0.7L3.4,125.1z M1.9,122.1v0.7h1.4v-0.7H1.9z
		 M3.2,124.2v-0.7H1.9v0.7H3.2z M6,121.8v1.1h2.3v-1.1H6z M6,125.3v1.3h2.7v-1.3H6z"/>
	<path d="M15.6,123.3v3.4c0,0.5-0.1,0.7-0.4,0.9c-0.3,0.2-0.8,0.2-1.5,0.2c0-0.2-0.2-0.6-0.3-0.9c0.5,0,1,0,1.1,0
		c0.1,0,0.2-0.1,0.2-0.2v-3.3c-0.6,0.1-1.3,0.1-1.9,0.2c-0.1,1.4-0.3,3.1-0.8,4.3c-0.2-0.2-0.5-0.4-0.8-0.5c0.5-1.1,0.7-2.4,0.7-3.7
		l-0.7,0.1l-0.1-0.9l0.8-0.1v-0.4v-3.1h1.1c0.1-0.3,0.2-0.8,0.3-1.1l1,0.1c-0.1,0.3-0.3,0.7-0.4,0.9h1.6v3.2l0.2,0l0,0.8L15.6,123.3
		z M12.8,122.7c0.6,0,1.2-0.1,1.8-0.1V120h-1.8v2.3V122.7z M13.6,120.5c0.3,0.4,0.6,1,0.8,1.4l-0.6,0.3c-0.1-0.4-0.5-1-0.7-1.4
		L13.6,120.5z M13.8,125.8c-0.1-0.4-0.5-1.1-0.8-1.6l0.6-0.3c0.3,0.5,0.6,1.1,0.8,1.5L13.8,125.8z M20.5,122.8
		c-0.3,1.4-0.8,2.4-1.5,3.2c0.5,0.4,1.2,0.7,1.8,0.9c-0.2,0.2-0.5,0.6-0.6,0.8c-0.7-0.3-1.4-0.6-1.9-1c-0.6,0.5-1.3,0.9-2.1,1.1
		c-0.1-0.2-0.4-0.6-0.6-0.8c0.7-0.2,1.4-0.5,2-1c-0.6-0.7-1.1-1.5-1.4-2.4l0.4-0.1h-0.5v-0.9h3.7l0.2,0L20.5,122.8z M17.4,120
		c0,0.8-0.1,1.7-0.9,2.3c-0.1-0.2-0.5-0.5-0.7-0.6c0.7-0.5,0.7-1.1,0.7-1.7v-1.3h3.2v2.1c0,0.3,0,0.4,0.1,0.4h0.5
		c0.1,0,0.3,0,0.5-0.1c0,0.2,0,0.6,0.1,0.8c-0.1,0.1-0.3,0.1-0.5,0.1h-0.6c-0.8,0-0.9-0.3-0.9-1.2v-1.3h-1.4V120z M17.1,123.5
		c0.3,0.7,0.7,1.4,1.2,1.9c0.5-0.5,0.8-1.2,1.1-1.9H17.1z"/>
	<path d="M26,126.9c0,0.4-0.1,0.6-0.4,0.8c-0.3,0.1-0.7,0.1-1.3,0.1c0-0.2-0.2-0.5-0.3-0.8c0.4,0,0.8,0,1,0c0.1,0,0.2,0,0.2-0.2
		v-0.8h-1.9c-0.1,0.7-0.3,1.3-0.7,1.8c-0.1-0.2-0.4-0.5-0.6-0.6c0.5-0.7,0.5-1.5,0.5-2.3v-2.2H26V126.9z M26.5,122.3h-4.4v-0.7h1.8
		V121h-1.4v-0.7h1.4v-0.5h-1.6v-0.7h1.6v-0.9h0.9v0.9h1.5v0.7h-1.5v0.5H26v0.7h-1.3v0.6h1.7V122.3z M25.2,125.4v-0.6h-1.8v0.2
		c0,0.1,0,0.3,0,0.4H25.2z M23.4,123.5v0.6h1.8v-0.6H23.4z M31.6,123.8H31v1.6h-1.8v1.4c0,0.5-0.1,0.7-0.4,0.8
		c-0.3,0.1-0.8,0.2-1.4,0.2c0-0.2-0.2-0.6-0.3-0.9c0.4,0,0.9,0,1,0c0.1,0,0.2,0,0.2-0.2v-1.4h-1.5v-0.8h1.5v-0.8h-1.9V123h1.9v-0.8
		h-1.4v-0.8h0.4c-0.1-0.4-0.3-0.9-0.6-1.3l0.7-0.3c0.3,0.4,0.5,0.9,0.7,1.3l-0.7,0.3H31v1.5h0.6V123.8z M31.4,119
		c-1.2,0.4-3.1,0.7-4.7,0.8c0-0.2-0.1-0.5-0.2-0.7c1.5-0.2,3.3-0.4,4.3-0.7L31.4,119z M28.6,121.3c0-0.4-0.2-1-0.4-1.4l0.7-0.2
		c0.2,0.4,0.4,1,0.4,1.4L28.6,121.3z M29.2,123h1v-0.8h-1V123z M30.2,123.8h-1v0.8h1V123.8z M29.7,121.1c0.2-0.4,0.5-1.1,0.7-1.6
		l0.8,0.2c-0.3,0.6-0.5,1.1-0.8,1.6L29.7,121.1z"/>
	<path d="M36.3,120.7h-3.5v-0.8h1.6c-0.2-0.4-0.5-0.9-0.8-1.3l0.7-0.4c0.3,0.4,0.7,1,0.9,1.4l-0.5,0.3h1.5V120.7z M36,127.3H34v0.5
		h-0.8v-3.5H36V127.3z M33.2,122.7H36v0.8h-2.8V122.7z M36,122.1h-2.8v-0.8H36V122.1z M34,125v1.5h1.2V125H34z M39,123.8
		c-0.7,0-1-0.2-1-0.6c-0.4,0.3-0.9,0.6-1.3,0.8c-0.1-0.2-0.4-0.5-0.6-0.7c0.7-0.3,1.3-0.7,1.8-1.1v-2.4h0.9v1.7
		c0.9-0.8,1.6-1.8,2.1-2.9l0.8,0.3c-0.3,0.6-0.6,1.2-1,1.7l0.7-0.2c0.4,0.6,0.9,1.5,1,2l-0.8,0.3c-0.1-0.5-0.5-1.4-0.9-2
		c-0.5,0.7-1.2,1.4-1.8,2v0.2c0,0.3,0.1,0.3,0.3,0.3H40c0.3,0,0.3-0.1,0.3-1.1c0.2,0.1,0.5,0.3,0.8,0.3c-0.1,1.2-0.3,1.6-1,1.6H39z
		 M36.2,122c0.3-0.5,0.6-1.2,0.7-1.8l0.7,0.3c-0.1,0.6-0.4,1.4-0.7,1.9L36.2,122z M41.8,126.8h0.5v0.8h-6.1v-0.8h0.6v-2.5h4.9V126.8
		z M37.7,126.8h0.6v-1.7h-0.6V126.8z M39.5,119.9c-0.3-0.3-1-0.8-1.6-1.1l0.6-0.5c0.6,0.3,1.3,0.7,1.6,1.1L39.5,119.9z M39,125.1
		v1.7h0.7v-1.7H39z M40.3,125.1v1.7H41v-1.7H40.3z"/>
	<path d="M46.3,118.5c-0.2,0.7-0.5,1.3-0.7,2v7.4h-0.9v-5.6c-0.3,0.4-0.5,0.8-0.8,1.1c-0.1-0.2-0.3-0.8-0.5-1c0.8-1,1.6-2.6,2-4.1
		L46.3,118.5z M52.3,125.3c-0.4,0.5-0.9,1-1.6,1.4c0.8,0.2,1.6,0.3,2.5,0.4c-0.2,0.2-0.4,0.5-0.5,0.7c-1.1-0.1-2.2-0.3-3.1-0.7
		c-0.9,0.3-1.9,0.5-3.1,0.7c-0.1-0.2-0.3-0.5-0.5-0.7c1-0.1,1.8-0.3,2.6-0.5c-0.3-0.2-0.6-0.3-0.9-0.5c-0.3,0.2-0.6,0.4-1,0.5
		c-0.1-0.2-0.4-0.4-0.6-0.6c0.3-0.1,0.7-0.3,1-0.5c-0.1-0.1-0.3-0.3-0.4-0.5l0.7-0.3c0.1,0.1,0.2,0.2,0.3,0.3
		c0.3-0.2,0.6-0.5,0.8-0.7c-0.3-0.1-0.4-0.3-0.4-0.7v-0.1c-0.3,0.4-0.6,0.8-1,1l-0.6-0.4c0.4-0.2,0.8-0.7,1-1l0.5,0.3v-0.3h0.8v0.6
		c0,0.2,0.1,0.2,0.4,0.2h1.1c0.2,0,0.3-0.1,0.3-0.4c0.1,0.1,0.4,0.2,0.6,0.2c-0.1-0.1-0.2-0.2-0.3-0.3l0.5-0.3
		c0.4,0.3,0.9,0.8,1.1,1.2l-0.5,0.4c-0.2-0.3-0.5-0.6-0.8-0.9c-0.1,0.6-0.3,0.7-0.8,0.7h-1.1c-0.1,0.1-0.2,0.3-0.3,0.4h2.4l0.2,0
		L52.3,125.3z M53.1,122.5v1.4h-0.9V123h-2.5c0.3,0.2,0.6,0.4,0.8,0.6L50,124c-0.2-0.2-0.6-0.5-0.9-0.7l0.3-0.2H47v0.9h-0.8v-1.4h1
		v-2.6H49c0-0.2,0.1-0.3,0.1-0.5h-2.6v-0.7H53v0.7h-2.9l-0.2,0.5h2.3v2.6H53.1z M48.1,120.4v0.4h3.2v-0.4H48.1z M51.3,121.2h-3.2
		v0.4h3.2V121.2z M48.1,122.5h3.2v-0.4h-3.2V122.5z M48.3,125.7c0.4,0.2,0.8,0.5,1.3,0.7c0.5-0.2,1-0.5,1.3-0.7L48.3,125.7
		L48.3,125.7z"/>
	<path d="M63.9,127.3h-4v0.5H59v-5.9c-0.2,0.2-0.3,0.5-0.5,0.7c-0.1-0.1-0.2-0.2-0.3-0.4v0.9h-0.7v3.6c0,0.5-0.1,0.8-0.4,0.9
		c-0.3,0.1-0.8,0.2-1.6,0.2c0-0.3-0.1-0.7-0.3-0.9c0.5,0,1,0,1.2,0c0.2,0,0.2-0.1,0.2-0.2v-3.2c-0.5,1.3-1.2,2.5-1.9,3.3
		c-0.2-0.2-0.4-0.5-0.7-0.7c0.7-0.7,1.4-1.9,1.9-3.1h-1.7c0.2-0.9,0.5-2.3,0.6-3.5h-0.6v-0.9h3.9v0.9h-0.7v2.6h0.7
		c-0.1-0.1-0.2-0.3-0.3-0.4c0.7-0.9,1.4-2.3,1.7-3.6l0.9,0.2c-0.2,0.5-0.4,1.1-0.6,1.7h1.6c-0.1-0.4-0.3-1-0.5-1.5l0.9-0.3
		c0.3,0.5,0.5,1.1,0.6,1.6l-0.6,0.2h1.9v0.9h-1.5v1.2h1.3v0.8h-1.3v1.3h1.3v0.8h-1.3v1.3h1.6V127.3z M55.8,119.6
		c-0.1,0.8-0.3,1.8-0.4,2.6h1.3v-2.6H55.8z M61.4,121h-1.5v1.2h1.5V121z M61.4,123h-1.5v1.3h1.5V123z M59.9,126.4h1.5v-1.3h-1.5
		V126.4z"/>
	<path d="M74.4,119.8c0,0,0,0.3,0,0.5c-0.1,4.7-0.3,6.4-0.7,6.9c-0.3,0.3-0.5,0.4-0.9,0.5c-0.4,0-1,0-1.6,0c0-0.3-0.1-0.7-0.3-0.9
		c0.7,0.1,1.3,0.1,1.5,0.1c0.2,0,0.3,0,0.4-0.2c0.3-0.3,0.5-1.9,0.6-5.9H71c-0.3,0.7-0.6,1.3-1,1.8c-0.2-0.1-0.5-0.4-0.8-0.5v4.8
		h-2.8v0.8h-0.9v-7.7h1.2c0.1-0.5,0.3-1.2,0.4-1.7l1.1,0.2c-0.2,0.5-0.4,1.1-0.5,1.5h1.7v2c0.7-0.9,1.2-2.3,1.6-3.7l0.9,0.2
		c-0.1,0.5-0.3,1-0.4,1.4H74.4z M66.4,120.7v2h2v-2H66.4z M68.4,125.9v-2.3h-2v2.3H68.4z M71.9,125.1c-0.3-0.6-1-1.7-1.5-2.4
		l0.8-0.4c0.6,0.7,1.3,1.7,1.6,2.3L71.9,125.1z"/>
	<path d="M78.3,119.8c-0.5,0.7-1.1,1.3-1.7,1.8c-0.2-0.2-0.6-0.5-0.8-0.6c0.9-0.6,1.8-1.7,2.3-2.8l1,0.3c-0.1,0.2-0.2,0.3-0.3,0.5
		h6.3v0.8H78.3z M80.3,122.5c0.9,0.6,1.9,1.4,2.5,2l-0.6,0.6c-0.2-0.2-0.4-0.4-0.6-0.6c0,0.1,0,0.2,0,0.3c-0.1,1.6-0.1,2.3-0.3,2.6
		c-0.2,0.2-0.3,0.3-0.6,0.3c-0.2,0-0.7,0-1.1,0c0-0.3-0.1-0.6-0.2-0.8c0.4,0,0.7,0.1,0.9,0.1c0.1,0,0.2,0,0.3-0.1
		c0.1-0.1,0.2-0.5,0.2-1.6h-1.4c-0.2,1.2-0.8,2.1-2.4,2.6c-0.1-0.2-0.3-0.5-0.5-0.7c1.3-0.4,1.8-1,2-1.8h-1v-0.6
		c-0.3,0.2-0.5,0.3-0.8,0.5c-0.1-0.1-0.5-0.4-0.7-0.6c1-0.4,1.9-1.1,2.3-1.9l0.9,0.2c-0.4,0.6-0.9,1.2-1.5,1.7h3.9
		c-0.5-0.5-1.2-1-1.8-1.4L80.3,122.5z M83.7,121.6c0,2.7,0.2,5.2,0.9,5.2c0.2,0,0.2-0.6,0.2-1.5c0.2,0.2,0.5,0.5,0.7,0.6
		c-0.1,1.3-0.3,1.9-1,1.9c-1.4,0-1.7-2.4-1.8-5.4h-5.8v-0.8H83.7z M78,121.1v-0.7h6.4v0.7H78z"/>
	<path d="M95.8,118.7v9.2h-1v-0.4h-6.9v0.4H87v-9.2H95.8z M94.8,126.6v-7h-6.9v7H94.8z M94.3,121.2v0.6h-5.8v-0.6h1.6
		c0.1-0.2,0.1-0.3,0.2-0.5h-1.2v-0.5h1.3c0.1-0.2,0.1-0.4,0.2-0.6l0.8,0.1l-0.1,0.5h2.2v1H94.3z M92.2,124h2v0.5h-2v0.7h2v0.6h-2
		v0.6h-0.9v-0.6h-2.6c0.1-0.3,0.2-0.8,0.3-1.2h-0.5V124h2.8v-0.4h-2.2v-1.5h4.5v1.5h-1.4V124z M91.4,124.6h-1.5
		c-0.1,0.2-0.1,0.5-0.2,0.7h1.7V124.6z M90,123.2h2.8v-0.6H90V123.2z M91.1,120.7c-0.1,0.2-0.1,0.4-0.2,0.5h1.7v-0.5H91.1z"/>
	<path d="M98.4,124.5c0.8-0.3,1.3-0.8,1.3-1.4c0,0-0.1,0-0.1,0c-0.5,0-0.9-0.3-0.9-0.8c0-0.5,0.4-0.8,0.9-0.8c0.7,0,1,0.5,1,1.3
		c0,1.2-0.7,2.1-1.9,2.5L98.4,124.5z"/>
	<path d="M108.3,126.7c0.3,0,0.7,0,1.1,0c0.5,0,2.6,0,3.2,0c-0.1,0.2-0.3,0.7-0.3,0.9h-2.9c-2,0-3.3-0.3-4.2-1.6
		c-0.4,0.8-0.9,1.4-1.6,1.8c-0.1-0.2-0.5-0.5-0.7-0.7c1.1-0.7,1.7-1.8,2-3.3l1,0.1c-0.1,0.3-0.2,0.7-0.3,1c0.4,0.9,1,1.3,1.8,1.5
		v-2.9h-4.2v-0.9h9.2v0.9h-4v1h3.3v0.9h-3.3V126.7z M111.2,122.1h-7.1v-3.5h7.1V122.1z M110.2,119.3h-5.1v0.7h5.1V119.3z
		 M110.2,120.7h-5.1v0.7h5.1V120.7z"/>
	<path d="M117,118.5c-0.3,0.7-0.6,1.5-1,2.2v7.1h-1v-5.5c-0.3,0.4-0.6,0.7-0.9,1c-0.1-0.2-0.4-0.8-0.5-1c1-1,1.9-2.5,2.5-4
		L117,118.5z M123.3,126.6v0.9h-6.7v-0.9h2.9v-2.4h-2.3v-0.9h2.3v-2.1h-2.7v-0.9h6.3v0.9h-2.7v2.1h2.4v0.9h-2.4v2.4H123.3z
		 M119.8,120.2c-0.1-0.5-0.5-1.2-0.8-1.7l0.9-0.3c0.3,0.5,0.7,1.2,0.9,1.7L119.8,120.2z"/>
	<path d="M132.8,120.9v4.2h-1v-0.5h-5.2c-0.2,1.2-0.6,2.4-1.5,3.3c-0.1-0.2-0.5-0.6-0.8-0.7c1.3-1.4,1.5-3.3,1.5-4.9v-3.1
		c2.1-0.2,4.5-0.6,5.9-1l0.8,0.8c-1.6,0.5-3.7,0.8-5.7,1v1H132.8z M131.8,123.7v-1.8h-5v0.5c0,0.4,0,0.9-0.1,1.3H131.8z"/>
	<path d="M4.5,140c0,0.3,0.1,0.7,0.2,0.9c-2.5,1.1-2.8,1.3-3.1,1.5c-0.1-0.2-0.3-0.7-0.5-0.9c0.2-0.1,0.5-0.4,0.5-0.8v-2.6l-1.1,0.2
		l-0.2-0.9l1.3-0.3v-2.6h0.9v2.4l1.9-0.4l0.2,0.9l-2,0.4v2.9L4.5,140z M9.9,135.1c0,0,0,0.4,0,0.5c-0.1,5.3-0.3,7-0.7,7.6
		c-0.2,0.4-0.5,0.5-0.9,0.5c-0.4,0.1-0.9,0-1.5,0c0-0.3-0.1-0.7-0.3-1c0.6,0,1.1,0.1,1.3,0.1c0.2,0,0.3,0,0.4-0.2
		c0.3-0.4,0.5-2.1,0.6-6.6H6.9c-0.1,3.3-0.3,6.2-3,7.9c-0.1-0.3-0.5-0.6-0.7-0.8c2.5-1.4,2.6-4.1,2.7-7.1H4.4v-0.9H9.9z"/>
	<path d="M17.8,141.4c-0.4,1.2-1.3,2-3.3,2.4c-0.1-0.2-0.3-0.6-0.5-0.8c1.7-0.3,2.4-0.8,2.8-1.7h-2.5v-0.8h0.8v-3.1
		c-0.1,0.1-0.1,0.1-0.2,0.2c-0.1-0.2-0.4-0.5-0.6-0.6v0.1h-1v1.8l0.9-0.3l0.2,0.9l-1.1,0.4v2.8c0,0.5-0.1,0.8-0.4,0.9
		c-0.3,0.2-0.7,0.2-1.3,0.2c0-0.3-0.1-0.7-0.3-1c0.4,0,0.8,0,0.9,0c0.1,0,0.2,0,0.2-0.2v-2.5c-0.4,0.1-0.7,0.2-1,0.3l-0.2-0.9
		c0.4-0.1,0.8-0.2,1.3-0.4v-2.1h-1.2v-0.9h1.2v-2h0.9v2h1v0.8c1-0.8,1.7-1.9,2-2.8l0.9,0.1c-0.1,0.2-0.2,0.4-0.3,0.7h1.5l0.1,0
		l0.6,0.4c-0.2,0.4-0.5,0.9-0.8,1.4h1.8v3.9h0.7v0.8H17.8z M16.5,135.8c-0.2,0.3-0.4,0.6-0.6,0.9h1.5c0.2-0.3,0.4-0.6,0.5-0.9H16.5z
		 M17,140.6c0.1-0.3,0.1-0.6,0.1-1h0.9c0,0.3-0.1,0.7-0.1,1h1.4v-1.4l-0.4,0.5c-0.3-0.3-0.9-0.7-1.4-1c-0.3,0.4-0.7,0.8-1,1.1
		c-0.1-0.1-0.5-0.4-0.6-0.5c0.6-0.4,1.2-1.1,1.5-1.8h-1.5v3.1H17z M19.3,137.5h-1.4l0.2,0.1c-0.1,0.2-0.2,0.3-0.3,0.5
		c0.5,0.3,1.1,0.7,1.4,1V137.5z M18.5,141.4c0.8,0.6,1.9,1.4,2.4,1.8l-0.6,0.6c-0.5-0.5-1.6-1.3-2.4-1.9L18.5,141.4z"/>
	<path d="M31.5,142.1v1h-9.4v-1h4.1v-5.8h-3.5v-1H31v1h-3.7v5.8H31.5z"/>
	<path d="M36.1,134.5c-0.3,0.7-0.6,1.5-1,2.2v7.1h-1v-5.5c-0.3,0.4-0.6,0.7-0.9,1c-0.1-0.2-0.4-0.8-0.5-1c1-1,1.9-2.5,2.5-4.1
		L36.1,134.5z M39.3,136.9v1.3h2.9v0.9h-2.9v1.4h3v0.9h-3v2.4h-1v-7h-0.6c-0.4,0.8-0.9,1.6-1.4,2.1c-0.2-0.2-0.5-0.5-0.8-0.7
		c0.9-1,1.8-2.5,2.3-4l0.9,0.3c-0.2,0.5-0.3,0.9-0.5,1.4h4.2v0.9H39.3z"/>
	<path d="M53.1,141.4h-9.5v-0.9h1l-0.2-5.5c0.7-0.2,1.4-0.5,2-0.8l0.5,0.8c-0.5,0.2-1,0.3-1.5,0.5l0,1.1h1.3v0.8h-1.3l0,1.1h1.3v0.8
		h-1.2l0,1.1h5.7c0-0.3,0-0.7,0.1-1.1H50v-0.8h1.3c0-0.4,0-0.7,0-1.1h-1.2v-0.8h1.3c0-0.4,0-0.8,0-1.1H50v-0.9h2.3
		c0,1.8-0.1,4.3-0.2,5.8h1V141.4z M47.4,142.1c-0.9,0.6-2.1,1.3-3.2,1.7c-0.1-0.2-0.4-0.5-0.6-0.7c1-0.4,2.3-1.1,2.9-1.6L47.4,142.1
		z M48.1,138.2c-0.1,0.7-0.3,1.4-0.6,1.9c-0.1-0.1-0.5-0.3-0.6-0.4c0.3-0.4,0.4-1,0.5-1.6L48.1,138.2z M48.8,137.7h-1.6v-3.4H48v0.9
		h1.7v0.8H48v1h1.3v0h0.3v2.7c0,0.4-0.1,0.5-0.3,0.6c-0.3,0.1-0.6,0.1-1.1,0.1c0-0.2-0.1-0.5-0.2-0.6c0.3,0,0.6,0,0.7,0
		c0.1,0,0.1,0,0.1-0.1V137.7z M52.2,143.8c-0.7-0.5-1.8-1.2-2.9-1.7l0.5-0.7c1.1,0.5,2.3,1.2,3,1.6L52.2,143.8z"/>
	<path d="M63.8,142.6v0.9h-9.3v-0.9h4.2v-2.4h-3v-0.9h3v-2.1h-2.3c-0.3,0.6-0.7,1.2-1,1.6c-0.2-0.2-0.6-0.5-0.9-0.6
		c0.8-0.9,1.5-2.3,1.9-3.8l1,0.2c-0.2,0.5-0.3,1.1-0.5,1.6h1.9v-2h1v2h3.7v1h-3.7v2.1h3.3v0.9h-3.3v2.4H63.8z"/>
	<path d="M67,139c-0.4-0.3-1.3-0.8-1.9-1.1l0.5-0.7c0.6,0.3,1.5,0.8,1.9,1L67,139z M65.3,143.1c0.6-0.8,1.4-2.1,2-3.3l0.7,0.7
		c-0.5,1.1-1.2,2.3-1.9,3.3L65.3,143.1z M67.5,136.2c-0.4-0.3-1.3-0.8-1.9-1.2l0.5-0.7c0.6,0.3,1.5,0.8,2,1.1L67.5,136.2z
		 M71.9,138.2v1.6H74v4h-0.9v-0.4h-3.5v0.4h-0.9v-4.1h2.2v-1.6H68v-0.9h2.9v-1.5c-0.7,0.1-1.5,0.2-2.2,0.3c0-0.2-0.2-0.6-0.3-0.8
		c1.8-0.2,3.8-0.5,5-1l0.8,0.8c-0.7,0.3-1.5,0.5-2.4,0.6v1.6h2.8v0.9H71.9z M73.1,140.6h-3.5v1.9h3.5V140.6z"/>
	<path d="M79.6,139.9l-0.9,0.8c-0.7-0.8-1.6-1.7-2.3-2.3l0.9-0.7C78,138.2,79,139.2,79.6,139.9z"/>
	<path d="M83.2,139c-0.4-0.3-1.2-0.8-1.9-1.1l0.5-0.7c0.6,0.3,1.4,0.7,1.9,1L83.2,139z M84.2,140.4c-0.5,1.1-1.2,2.3-1.8,3.3
		l-0.8-0.7c0.5-0.8,1.3-2.1,1.9-3.3L84.2,140.4z M83.7,136.2c-0.4-0.3-1.2-0.8-1.8-1.1l0.5-0.7c0.6,0.3,1.4,0.7,1.8,1L83.7,136.2z
		 M89.7,142.8c0.3,0,0.4-0.2,0.4-1.6c0.2,0.2,0.6,0.3,0.8,0.4c-0.1,1.6-0.3,2.1-1.2,2.1h-1.2c-0.9,0-1.2-0.3-1.2-1.3v-2.9
		c-0.4,1.8-1.2,3.3-2.9,4.3c-0.2-0.3-0.5-0.6-0.7-0.7c2.3-1.3,2.8-3.6,3-6.1h-1.4v1.4h-0.9v-2.3h2.4c0-0.6,0-1.3,0-1.9h1
		c0,0.6,0,1.3,0,1.9h2.9v2.3h-1V137h-2c0,0.4-0.1,0.8-0.1,1.3h0.8v4.1c0,0.3,0.1,0.4,0.3,0.4H89.7z"/>
	<path d="M93.4,138.9c-0.3-0.3-0.9-0.8-1.4-1.1l0.5-0.6c0.5,0.3,1.1,0.7,1.4,1L93.4,138.9z M94,140.4c-0.3,1-0.7,2.3-1,3.2l-0.7-0.4
		c0.3-0.8,0.8-2.1,1.1-3.2L94,140.4z M93.6,136.2c-0.3-0.4-0.9-0.9-1.3-1.3l0.5-0.5c0.5,0.3,1.1,0.9,1.4,1.2L93.6,136.2z
		 M95.1,138.2c0,1.6-0.1,3.9-0.9,5.4c-0.1-0.2-0.5-0.4-0.6-0.5c0.7-1.4,0.8-3.4,0.8-4.9v-3.6h3.7v2.5h-2.9V138.2z M96.5,141.6
		c-0.3,0.8-0.7,1.6-1.1,2.1c-0.1-0.1-0.4-0.4-0.6-0.5c0.4-0.5,0.8-1.1,1-1.8L96.5,141.6z M95.7,140.4v-1.2h-0.5v-0.8h0.5v-1.1h0.7
		v1.1h0.5v-1.1h0.7v1.1H98v0.8h-0.5v1.2h0.7v0.8h-3.2v-0.8H95.7z M95.1,135.3v1h2.2v-1H95.1z M96.3,140.4h0.5v-1.2h-0.5V140.4z
		 M101.5,138.8c-0.3,1.1-0.7,2-1.2,2.8c0.4,0.6,0.9,1,1.6,1.3c-0.2,0.2-0.4,0.5-0.6,0.8c-0.6-0.3-1.1-0.8-1.5-1.3
		c-0.5,0.6-1,1-1.6,1.4c-0.1-0.2-0.4-0.6-0.5-0.8c0.1-0.1,0.2-0.1,0.3-0.1l-0.4,0.2c-0.1-0.4-0.5-0.9-0.7-1.4l0.6-0.3
		c0.3,0.4,0.6,0.9,0.8,1.3c0.4-0.3,0.8-0.6,1.1-1c-0.3-0.6-0.5-1.2-0.7-1.9l0.7-0.2h-1v-0.9h2.5l0.1,0L101.5,138.8z M99.4,135.9
		c0,0.8-0.1,1.8-0.9,2.4c-0.1-0.2-0.4-0.5-0.6-0.6c0.6-0.5,0.7-1.2,0.7-1.8v-1.2h2.2v2.3c0,0.3,0,0.4,0.1,0.4h0.3
		c0.1,0,0.3,0,0.4-0.1c0,0.2,0,0.5,0.1,0.7c-0.1,0.1-0.3,0.1-0.4,0.1h-0.5c-0.6,0-0.8-0.4-0.8-1.1v-1.4h-0.7V135.9z M99.3,139.5
		c0.1,0.5,0.3,0.9,0.5,1.3c0.2-0.4,0.5-0.8,0.6-1.3H99.3z"/>
	<path d="M104.8,138c-0.2,1.3-0.5,3.1-0.9,4.2l-1-0.4c0.4-1.1,0.7-2.7,0.9-4L104.8,138z M106.6,137.1v5c0,0.5,0.1,0.6,0.7,0.6h1.8
		c0.6,0,0.7-0.3,0.8-2.1c0.2,0.2,0.7,0.4,0.9,0.4c-0.1,2-0.4,2.6-1.6,2.6h-1.9c-1.2,0-1.6-0.3-1.6-1.5v-5H106.6z M106.6,134.5
		c1,0.6,2.2,1.6,2.9,2.2l-0.7,0.7c-0.6-0.7-1.8-1.7-2.8-2.3L106.6,134.5z M111.2,137.5c0.6,1.2,1.2,2.8,1.4,3.9l-1,0.4
		c-0.2-1.1-0.7-2.7-1.3-4L111.2,137.5z"/>
	<path d="M113.5,138.9c0.3-0.7,0.4-1.8,0.5-2.7l0.8,0.1c-0.1,0.9-0.3,2.1-0.5,2.9L113.5,138.9z M116.6,137.6c-0.1-0.4-0.3-1-0.6-1.5
		v7.7h-0.9v-9.6h0.9v1.7l0.6-0.3c0.3,0.5,0.6,1.2,0.7,1.6L116.6,137.6z M122.6,142.8c0,0.5-0.1,0.7-0.4,0.8
		c-0.3,0.1-0.8,0.2-1.5,0.2c0-0.2-0.2-0.6-0.3-0.8c0.5,0,1,0,1.1,0c0.1,0,0.2-0.1,0.2-0.2v-0.6h-3.4c-0.1,0.6-0.3,1.2-0.7,1.7
		c-0.1-0.2-0.5-0.5-0.7-0.7c0.6-0.7,0.6-1.8,0.6-2.6v-1.9h5.1V142.8z M123.2,137.5v0.7h-6.4v-0.7h2.7v-0.6h-2.1v-0.7h2.1v-0.5h-2.4
		V135h2.4v-0.8h1v0.8h2.4v0.7h-2.4v0.5h2.1v0.7h-2.1v0.6H123.2z M121.7,141.5v-0.7h-3.3c0,0.2,0,0.4,0,0.7H121.7z M118.4,139.5v0.7
		h3.3v-0.7H118.4z"/>
	<path d="M133.7,135.8c0,0,0,0.3,0,0.5c-0.1,4.7-0.3,6.4-0.7,6.9c-0.3,0.3-0.5,0.4-0.9,0.5c-0.4,0-1,0-1.6,0c0-0.3-0.1-0.7-0.3-0.9
		c0.7,0.1,1.3,0.1,1.5,0.1c0.2,0,0.3,0,0.4-0.2c0.3-0.3,0.5-1.9,0.6-5.9h-2.5c-0.3,0.7-0.6,1.3-1,1.8c-0.2-0.1-0.5-0.4-0.8-0.5v4.8
		h-2.8v0.8h-0.9v-7.7h1.2c0.1-0.5,0.3-1.2,0.4-1.7l1.1,0.2c-0.2,0.5-0.4,1.1-0.5,1.5h1.7v2c0.7-0.9,1.2-2.3,1.6-3.7l0.9,0.2
		c-0.1,0.5-0.3,1-0.4,1.4H133.7z M125.8,136.7v2h2v-2H125.8z M127.7,141.9v-2.3h-2v2.3H127.7z M131.2,141.1c-0.3-0.6-1-1.7-1.5-2.4
		l0.8-0.4c0.6,0.7,1.3,1.7,1.6,2.3L131.2,141.1z"/>
	<path d="M9.8,156v0.7H0.7V156h1v-1.4h7.2v1.4H9.8z M1.7,153H0.8v-1.8h3.9c-0.1-0.3-0.2-0.5-0.3-0.7l1-0.3c0.2,0.3,0.4,0.7,0.5,1
		h3.8v1.8H8.7v-1.1h-4c0.5,0.2,1.2,0.5,1.5,0.8l-0.5,0.6c-0.4-0.3-1-0.7-1.6-0.9l0.5-0.5h-3V153z M1.4,153.9c0.5-0.4,0.9-1,1.2-1.5
		l0.7,0.4c-0.3,0.5-0.7,1.2-1.2,1.7L1.4,153.9z M1.5,157.2h7.6v0.7H5.7v0.9c0,0.5-0.1,0.7-0.5,0.8c-0.4,0.1-1,0.1-1.8,0.1
		c-0.1-0.3-0.2-0.6-0.3-0.8c0.6,0,1.3,0,1.4,0c0.2,0,0.2,0,0.2-0.2v-0.9H1.5V157.2z M2.5,156h1.3v-0.8H2.5V156z M4.3,152.5v0.8
		c0,0.2,0.1,0.3,0.5,0.3h1.5c0.3,0,0.4-0.1,0.4-0.6c0.2,0.1,0.5,0.2,0.7,0.2c-0.1,0.8-0.3,1-1,1H4.7c-1,0-1.2-0.2-1.2-0.9v-0.8H4.3z
		 M4.6,155.2v0.8h1.4v-0.8H4.6z M6.6,155.2v0.8H8v-0.8H6.6z M8.3,154.3c-0.2-0.5-0.8-1.1-1.3-1.6l0.7-0.4c0.5,0.5,1.1,1.1,1.3,1.6
		L8.3,154.3z"/>
	<path d="M15,158.9c0,0.4-0.1,0.6-0.4,0.8c-0.3,0.1-0.7,0.1-1.3,0.1c0-0.2-0.2-0.5-0.3-0.8c0.4,0,0.8,0,1,0c0.1,0,0.2,0,0.2-0.2
		v-0.8h-1.9c-0.1,0.7-0.3,1.3-0.7,1.8c-0.1-0.2-0.4-0.5-0.6-0.6c0.5-0.7,0.5-1.5,0.5-2.3v-2.2H15V158.9z M15.4,154.3H11v-0.7h1.8
		V153h-1.4v-0.7h1.4v-0.5h-1.6v-0.7h1.6v-0.9h0.9v0.9h1.5v0.7h-1.5v0.5H15v0.7h-1.3v0.6h1.7V154.3z M14.1,157.4v-0.6h-1.8v0.2
		c0,0.1,0,0.3,0,0.4H14.1z M12.3,155.5v0.6h1.8v-0.6H12.3z M20.6,155.8H20v1.6h-1.8v1.4c0,0.5-0.1,0.7-0.4,0.8
		c-0.3,0.1-0.8,0.2-1.4,0.2c0-0.2-0.2-0.6-0.3-0.9c0.4,0,0.9,0,1,0c0.1,0,0.2,0,0.2-0.2v-1.4h-1.5v-0.8h1.5v-0.8h-1.9V155h1.9v-0.8
		h-1.4v-0.8h0.4c-0.1-0.4-0.3-0.9-0.6-1.3l0.7-0.3c0.3,0.4,0.5,0.9,0.7,1.3l-0.7,0.3H20v1.5h0.6V155.8z M20.3,151
		c-1.2,0.4-3.1,0.7-4.7,0.8c0-0.2-0.1-0.5-0.2-0.7c1.5-0.2,3.3-0.4,4.3-0.7L20.3,151z M17.5,153.3c0-0.4-0.2-1-0.4-1.4l0.7-0.2
		c0.2,0.4,0.4,1,0.4,1.4L17.5,153.3z M18.2,155h1v-0.8h-1V155z M19.1,155.8h-1v0.8h1V155.8z M18.7,153.1c0.2-0.4,0.5-1.1,0.7-1.6
		l0.8,0.2c-0.3,0.6-0.5,1.1-0.8,1.6L18.7,153.1z"/>
	<path d="M22.8,153.8h-1v-2.4h4c-0.1-0.3-0.3-0.7-0.4-0.9l1-0.3c0.2,0.4,0.5,0.8,0.6,1.2h3.7v2.2h-1v-1.3h-1.8v1.5
		c0,0.3,0.1,0.4,0.4,0.4h1.7c0.3,0,0.7,0,0.9-0.1c0,0.3,0.1,0.6,0.1,0.9c-0.2,0.1-0.6,0.1-1,0.1h-1.7c-1,0-1.3-0.3-1.3-1.3v-1.5
		h-1.1c-0.1,1.8-0.7,2.7-3.5,3.1c-0.1-0.2-0.3-0.6-0.5-0.8c2.4-0.3,2.8-0.9,2.9-2.3h-2V153.8z M26.8,158.7h4v0.9h-9v-0.9h4v-2h-3
		v-0.9h7v0.9h-3V158.7z"/>
	<path d="M33.4,154.3v5.6h-1v-9.2h3.9v3.7H33.4z M33.4,151.4v0.7h2v-0.7H33.4z M35.4,153.6v-0.8h-2v0.8H35.4z M41.1,158.6
		c0,0.6-0.1,0.9-0.5,1c-0.4,0.2-0.9,0.2-1.8,0.2c0-0.3-0.2-0.7-0.3-1h-2.8v0.5h-0.9V155h3.9v3.8c0.5,0,1,0,1.2,0
		c0.2,0,0.2-0.1,0.2-0.2v-4.3h-3v-3.7h4V158.6z M35.7,155.7v0.8h2.1v-0.8H35.7z M37.8,158.1v-0.9h-2.1v0.9H37.8z M38.1,151.4v0.7h2
		v-0.7H38.1z M40.1,153.6v-0.8h-2v0.8H40.1z"/>
	<path d="M44.7,153.4c0.9,0,1.6,0.7,1.6,1.6c0,0.9-0.7,1.6-1.6,1.6c-0.9,0-1.6-0.7-1.6-1.6C43,154.1,43.8,153.4,44.7,153.4z
		 M44.7,156c0.6,0,1-0.5,1-1s-0.5-1-1-1c-0.5,0-1,0.5-1,1S44.1,156,44.7,156z"/>
</g>
<g>
	<path d="M7.8,76.1c1.6,0.5,3.6,1.3,4.7,1.9l-0.7,1.3c-1.1-0.7-3.5-1.7-5.2-2.3l0.6-1H6.7c-0.6,1.6-2,2.6-5.5,3.2
		c-0.1-0.4-0.5-1.1-0.8-1.4C3,77.6,4.3,77,4.9,76.1H1v-1.3h4.4c0-0.2,0.1-0.4,0.1-0.7H0.7v-1.3h5v-0.7H1.8v-1.3h3.8v-0.7H1.1v-1.4
		h2.5c-0.2-0.4-0.5-0.8-0.7-1.1l1.4-0.5c0.4,0.5,0.8,1.1,1,1.5l-0.4,0.2h2.9c0.3-0.5,0.7-1.2,0.9-1.7l1.7,0.4
		C10,68,9.7,68.4,9.4,68.8h2.5v1.4H7.3v0.7h4v1.3h-4v0.7h5.2v1.3H7.1c0,0.2-0.1,0.5-0.1,0.7h5.1v1.3H7.8z"/>
	<path d="M25.6,72.7h-1v4.9c0,0.7-0.1,1.1-0.6,1.4c-0.4,0.2-1.1,0.3-1.9,0.3c0-0.4-0.2-1.1-0.4-1.5c0.5,0,1.1,0,1.2,0
		c0.2,0,0.2,0,0.2-0.2v-4.8H22v-1h-1.9v7.6h-1.4v-7.6H17v-0.9c-0.2,0.5-0.5,0.9-0.8,1.4v7.2h-1.4v-5.2c-0.2,0.3-0.5,0.5-0.7,0.8
		c-0.1-0.3-0.6-1.1-0.8-1.4c1-0.9,2-2.2,2.5-3.6l1.2,0.4v-0.1h1.7v-3h1.4v3h2v1.1h3.6L25.6,72.7z M17,67.7c-0.7,1.2-1.7,2.4-2.7,3.2
		c-0.2-0.3-0.5-0.9-0.8-1.1c0.8-0.6,1.7-1.7,2.1-2.5L17,67.7z M18.3,72.4c0,2.5-0.1,4.1-1.1,5.1c-0.1-0.3-0.5-0.7-0.7-0.9
		c0.7-0.8,0.8-2.1,0.8-4.2H18.3z M21.2,70c-0.2-0.4-0.6-1.2-1-1.7l0.9-0.5c0.4,0.5,0.8,1.2,1.1,1.6L21.2,70z M21.7,77.1
		c-1,0-1.2-0.4-1.2-1.5v-3.2h1.1v3.2c0,0.4,0,0.5,0.1,0.5H22c0.1,0,0.3,0,0.4-0.1c0,0.3,0.1,0.8,0.1,1c-0.2,0.1-0.3,0.1-0.5,0.1
		H21.7z M25.4,69.5h-3.1v-1.4h3.1V69.5z"/>
	<path d="M33.5,74.3v0.8h4.4v4.2h-1.4v-0.4h-3v0.4h-1.4V71h-0.7v-2L31,69.9c-0.4-0.3-1.2-0.7-1.8-1c-0.2,0.2-0.4,0.5-0.7,0.8h2v1
		h-2.3v-0.7c-0.4,0.4-0.9,0.8-1.3,1.1c-0.1-0.3-0.4-1.1-0.6-1.4c1-0.6,2-1.5,2.6-2.5l1.2,0.4c-0.1,0.1-0.1,0.2-0.2,0.4
		c0.6,0.3,1.3,0.6,1.7,0.8h2.8c-0.2-0.4-0.4-0.7-0.5-1.1l1.4-0.5c0.2,0.4,0.6,1,0.8,1.4l-0.4,0.2h2.8V71h-1.1v3.3H33.5z M30.3,75.9
		c0.4,0.8,1,1.9,1.2,2.5L30.5,79c-0.1-0.3-0.2-0.6-0.4-0.9c-2.3,0.9-2.7,1-3,1.3c-0.1-0.4-0.3-1-0.5-1.3c0.2-0.1,0.5-0.3,0.5-0.8
		v-6.1h4v4.7h-2.7v1.6l1.2-0.4c-0.1-0.2-0.2-0.5-0.3-0.7L30.3,75.9z M28.4,72.2v0.7h1.3v-0.7H28.4z M29.8,74.7V74h-1.3v0.7H29.8z
		 M32.8,69.9v0.8h4.3v-0.8H32.8z M36,71.9h-2.5v1.1H36V71.9z M33.5,76.3v1.3h3v-1.3H33.5z"/>
	<path d="M46.7,72.3c0.9,2.5,2.4,4.6,4.9,5.6c-0.4,0.3-0.9,1-1.1,1.5c-2.4-1.1-3.9-3-4.9-5.5c-0.7,2.2-2.1,4.2-4.9,5.5
		c-0.2-0.4-0.7-1-1.2-1.3c3-1.3,4.2-3.5,4.7-5.7h-4.5v-1.6h4.7c0.1-1.2,0.1-2.4,0.1-3.5h1.7c0,1.1,0,2.3-0.2,3.5h5.1v1.6H46.7z"/>
	<path d="M57.3,75.9C57,76,56.7,76,56.4,76.1v0.6h0.7v0.8h-0.7v0.5l0.7-0.1l0,0.9c-0.9,0.1-1.8,0.2-2.7,0.3l-0.1-1l1.1-0.1v-0.6
		h-0.7v-0.8h0.7v-0.5c-0.3,0-0.5,0-0.8,0c0-0.2-0.1-0.5-0.2-0.8c-0.1,1.5-0.4,2.9-1,4c-0.2-0.3-0.9-0.7-1.2-0.8
		c0.8-1.8,0.9-4.5,0.9-6.4v-4h4.7c-0.1-0.2-0.2-0.4-0.4-0.5l1.3-0.5c0.3,0.3,0.5,0.7,0.7,1h4.8v1.2h-9.8v2.8c0,0.9,0,2.1-0.1,3.2
		c0.8-0.1,1.7-0.2,2.3-0.3L57.3,75.9z M58.5,78.4c0.3-0.5,0.4-1.2,0.5-1.9l1,0.3c-0.1,0.8-0.2,1.7-0.6,2.2l-0.9-0.4v0.8h-1.1v-4.6
		l-2.6,0.2l-0.1-1.1l0.6,0v-3h-0.5v-1H59v1h-0.5V78.4z M56.4,70.8v0.5h1v-0.5H56.4z M56.4,72.5h1V72h-1V72.5z M57.4,73.7v-0.5h-1
		v0.5L57.4,73.7z M62,78.3c0.2,0,0.2-0.1,0.3-0.8c0.2,0.2,0.7,0.3,0.9,0.4c-0.1,1.1-0.4,1.4-1.1,1.4h-0.9c-0.9,0-1.1-0.3-1.1-1.2
		v-1.5h1c-0.2-0.2-0.3-0.4-0.5-0.5l0.4-0.2h-2.2v-1h5.6v1h-2.8c0.4,0.4,0.8,0.8,0.9,1.2l-0.9,0.5c-0.1-0.3-0.3-0.6-0.6-0.9V78
		c0,0.3,0,0.3,0.2,0.3H62z M62.2,71.1v0.5h1.9v2.6h-5v-2.6h1.8v-0.5h-1.8v-1h1.8v-0.6h1.3v0.6h2v1H62.2z M60.6,72.5h-0.5v0.9h0.5
		V72.5z M61.9,72.5h-0.5v0.9h0.5V72.5z M63.6,76.2c0.4,0.7,0.8,1.6,0.9,2.2l-1,0.4c-0.1-0.6-0.5-1.5-0.9-2.2L63.6,76.2z M62.7,73.4
		h0.5v-0.9h-0.5V73.4z"/>
</g>
</svg>
