<?xml version="1.0" encoding="utf-8"?>
<!-- Generator: Adobe Illustrator 25.2.3, SVG Export Plug-In . SVG Version: 6.00 Build 0)  -->
<svg version="1.1" id="圖層_1" xmlns="http://www.w3.org/2000/svg" xmlns:xlink="http://www.w3.org/1999/xlink" x="0px" y="0px"
	 viewBox="0 0 150 61" style="enable-background:new 0 0 150 61;" xml:space="preserve">
<style type="text/css">
	.st0{fill:#1F1E1D;}
</style>
<path d="M5.5,7.2l-0.8,1c-0.2-0.4-0.5-0.8-1-1.3v4.4H2.3V7C1.7,8.2,1.2,9.1,0.7,9.7C0.5,9.3,0.3,8.9,0,8.3c0.7-0.7,1.3-1.7,1.9-3
	C1.9,5.3,2,5.1,2,5.1H0.3V3.8h2V2.3C1.7,2.5,1.1,2.6,0.6,2.6C0.5,2.2,0.4,1.9,0.2,1.5c1.9-0.3,3.3-0.7,4.3-1.1l1,1.1
	C4.9,1.7,4.3,1.9,3.7,2v1.7h1.8v1.3H3.7v0.3C4.1,5.8,4.7,6.4,5.5,7.2z M11.1,10.8l-1.5,0.5c0-0.3-0.1-0.6-0.2-1.1
	c-1.7,0.3-3.3,0.5-4.9,0.7L4.2,9.4c0.1,0,0.4,0,1.1-0.1C6,6.9,6.5,4.3,6.8,1.5c0-0.3,0.1-0.5,0.1-0.8l1.6,0.3c-0.4,3-1,5.8-1.7,8.3
	c0.4,0,1.2-0.1,2.3-0.3C8.8,8,8.5,7.1,8.1,6.5l1.4-0.4c0.7,1.6,1.2,3,1.5,4.3C11.1,10.5,11.1,10.7,11.1,10.8z"/>
<path d="M16,0.7h1.6c0,0.1,0,0.4,0,0.7c0.1,2,0.6,3.8,1.5,5.4c0.9,1.5,2,2.6,3.5,3.3c-0.5,0.4-0.8,0.8-1.1,1.2
	c-2.2-1.1-3.7-3-4.6-5.8v0c-0.8,2.6-2.2,4.6-4.3,5.9c-0.3-0.4-0.7-0.7-1.2-1.1c2.8-1.6,4.3-4.4,4.5-8.4c0-0.1,0-0.3,0-0.6
	C16,0.8,16,0.7,16,0.7z"/>
<path d="M23.7,10.3V1.7h1.8v7.2H29v1.5H23.7z"/>
<path d="M32.8,10.4c-0.9,0-1.6-0.3-2.2-0.9C29.9,8.8,29.7,8,29.7,7c0-1.2,0.4-2,1.2-2.7c0.6-0.5,1.2-0.7,2-0.7
	c0.9,0,1.6,0.3,2.2,0.9C35.7,5.2,36,6,36,7c0,1.1-0.4,2-1.2,2.7C34.2,10.2,33.6,10.4,32.8,10.4z M32.8,9C33.4,9,33.9,8.7,34,8
	c0.1-0.3,0.1-0.6,0.1-0.9c0-1-0.3-1.6-0.8-1.9C33.2,5.1,33,5,32.8,5c-0.6,0-1,0.3-1.2,1c-0.1,0.3-0.1,0.6-0.1,1
	c0,0.9,0.3,1.6,0.8,1.9C32.4,9,32.6,9,32.8,9z"/>
<path d="M39.1,10.4c-1.3,0-2-0.9-2-2.6V3.7h1.7v3.9c0,0.7,0.2,1.2,0.5,1.3c0.1,0,0.3,0.1,0.4,0.1c0.4,0,0.8-0.2,1.1-0.5
	c0.1-0.1,0.1-0.1,0.2-0.3V3.8h1.7v6.5h-1.4l-0.1-0.9h0C40.5,10.1,39.8,10.4,39.1,10.4z"/>
<path d="M44.3,10.3V3.8h1.4l0.1,0.8h0c0.7-0.7,1.4-1,2.1-1c1.4,0,2,0.9,2,2.6v4.1h-1.7V6.4c0-0.8-0.2-1.2-0.6-1.3
	c-0.1,0-0.2,0-0.4,0c-0.4,0-0.7,0.2-1.1,0.5c-0.1,0.1-0.1,0.1-0.3,0.2v4.5H44.3z"/>
<path d="M53.9,13.1c-1.2,0-2-0.3-2.4-0.8c-0.2-0.3-0.3-0.5-0.3-0.8c0-0.5,0.3-1,0.9-1.3V10c-0.4-0.3-0.6-0.6-0.6-1.1
	s0.3-0.9,0.7-1.2v0c-0.5-0.4-0.8-0.8-0.8-1.4c0-0.1,0-0.2,0-0.3c0-0.9,0.4-1.5,1.1-2c0.4-0.3,1-0.4,1.6-0.4c0.3,0,0.7,0.1,1,0.2h2.4
	V5h-1.1c0.2,0.3,0.3,0.6,0.3,1c0,0.9-0.4,1.5-1.1,1.9c-0.4,0.2-0.9,0.3-1.4,0.3c-0.2,0-0.5,0-0.8-0.1c-0.2,0.1-0.3,0.4-0.3,0.6
	c0,0.3,0.2,0.4,0.6,0.5c0.1,0,0.3,0,0.4,0H55c1.6,0,2.4,0.5,2.4,1.6c0,0.7-0.4,1.3-1.1,1.7C55.7,12.9,54.9,13.1,53.9,13.1z M54.2,12
	c0.7,0,1.2-0.2,1.5-0.5c0.1-0.1,0.2-0.3,0.2-0.4c0-0.3-0.2-0.5-0.7-0.6c-0.1,0-0.3,0-0.4,0h-0.8c-0.4,0-0.7,0-0.9-0.1
	c-0.3,0.2-0.4,0.5-0.4,0.8c0,0.4,0.3,0.7,0.8,0.8C53.7,12,53.9,12,54.2,12z M54,7.1c0.4,0,0.7-0.2,0.9-0.6C55,6.3,55,6.1,55,5.9
	c0-0.6-0.2-0.9-0.6-1.1c-0.1,0-0.3-0.1-0.4-0.1c-0.4,0-0.8,0.2-0.9,0.6C53,5.5,53,5.7,53,5.9c0,0.5,0.2,0.9,0.6,1.1
	C53.7,7.1,53.9,7.1,54,7.1z"/>
<path d="M61.2,10.4c-1,0-1.9-0.4-2.4-1.1c-0.5-0.6-0.8-1.4-0.8-2.4c0-1.1,0.4-2,1.1-2.7c0.6-0.5,1.2-0.8,1.9-0.8
	c1.1,0,1.9,0.4,2.3,1.3c0.3,0.5,0.4,1.1,0.4,1.8c0,0.3,0,0.6-0.1,0.8h-4c0.1,0.8,0.5,1.3,1.1,1.5c0.2,0.1,0.4,0.1,0.7,0.1
	c0.5,0,1-0.1,1.5-0.4l0.6,1.1C62.8,10.2,62,10.4,61.2,10.4z M59.6,6.3h2.7c0-0.8-0.3-1.3-1-1.4c-0.1,0-0.2,0-0.3,0
	c-0.5,0-0.9,0.3-1.2,0.7C59.7,5.8,59.6,6.1,59.6,6.3z"/>
<path class="st0" d="M3.6,24.1l-0.4,0.4c-0.1-0.2-0.5-0.6-0.9-1.1v3.2H1.7v-3.3c-0.4,0.9-0.9,1.6-1.4,2.2c0-0.1-0.1-0.3-0.3-0.5
	c0.4-0.4,0.9-1.1,1.3-1.9c0.1-0.2,0.2-0.4,0.3-0.6H0.2v-0.5h1.5v-1.2c-0.5,0.1-0.9,0.2-1.3,0.2c0-0.1-0.1-0.3-0.2-0.4
	c1.4-0.2,2.3-0.4,2.9-0.7l0.4,0.4c-0.4,0.1-0.8,0.3-1.2,0.4v1.3h1.4v0.5H2.3v0.5C2.6,23.2,3,23.6,3.6,24.1
	C3.6,24.1,3.6,24.1,3.6,24.1z M7.2,26.4l-0.6,0.2c0-0.2-0.1-0.5-0.2-0.8C5.1,26,3.9,26.2,3,26.3l-0.1-0.6c0.2,0,0.5,0,0.7-0.1
	c0.4-1.5,0.8-3.2,1.1-5.1c0-0.3,0.1-0.5,0.1-0.7l0.6,0.1c-0.3,1.9-0.7,3.8-1.2,5.5c0,0,0,0.1,0,0.1c0.2,0,0.5,0,0.9-0.1
	c0.5-0.1,0.9-0.1,1.2-0.1c-0.2-0.7-0.5-1.3-0.8-1.8L6,23.3c0.5,0.9,0.9,1.8,1.1,2.7C7.1,26.2,7.2,26.3,7.2,26.4z"/>
<path class="st0" d="M10.9,19.9h0.6c0,0,0,0.1,0,0.2s0,0.1,0,0.2c0.1,1.3,0.4,2.5,0.9,3.5c0.6,1.1,1.4,1.9,2.4,2.3
	c-0.2,0.1-0.3,0.3-0.4,0.5c-1.5-0.7-2.4-2-3-3.8c-0.1-0.2-0.1-0.4-0.2-0.6c-0.5,2.1-1.5,3.6-3.1,4.4c-0.1-0.2-0.3-0.3-0.5-0.4
	c1.9-1,3-2.9,3.1-5.9c0,0,0-0.1,0-0.2C10.9,20,10.9,19.9,10.9,19.9z"/>
<path class="st0" d="M17.7,22.9l0.1,0.5l-0.9,0.3v2.2c0,0.3-0.1,0.4-0.2,0.5c0,0,0,0-0.1,0c-0.1,0.1-0.5,0.1-0.9,0.1
	c0-0.1-0.1-0.3-0.2-0.5c0.4,0,0.6,0,0.7,0c0.1,0,0.1-0.1,0.1-0.1v-2l-0.9,0.3l-0.1-0.5c0.1,0,0.4-0.1,1.1-0.3v-1.7h-0.9v-0.5h0.9
	v-1.5h0.5v1.5h0.9v0.5h-0.9v1.5L17.7,22.9z M18,20h4.1c0,0,0,0.1,0,0.3c-0.1,1.3-0.1,2.1-0.3,2.3c0,0.1-0.1,0.1-0.1,0.2
	c-0.1,0.1-0.3,0.2-0.5,0.2c-0.2,0-0.5,0-0.9,0c0-0.2-0.1-0.4-0.2-0.5c0.2,0,0.5,0,0.8,0c0.1,0,0.2,0,0.3-0.1
	c0.1-0.1,0.2-0.8,0.3-1.9h-1.6c-0.1,0.9-0.4,1.6-0.9,2.1c-0.2,0.2-0.5,0.4-0.8,0.5c-0.1-0.1-0.2-0.3-0.3-0.4
	c0.7-0.3,1.2-0.8,1.4-1.6c0-0.2,0.1-0.4,0.1-0.6h-1.3L18,20L18,20z M18.3,26.6v-3.1H22v3.1h-0.6v-0.3h-2.6v0.4H18.3z M21.4,24h-2.6
	v1.7h2.6V24z"/>
<path class="st0" d="M24.6,21.3l0.5,0.2c-0.2,0.3-0.4,0.6-0.6,0.9v4.1h-0.5v-3.5c-0.3,0.3-0.6,0.6-0.9,0.8c-0.1-0.2-0.2-0.4-0.3-0.5
	c0.6-0.5,1.2-1,1.6-1.6C24.4,21.6,24.5,21.5,24.6,21.3z M24.4,19.7l0.5,0.2c-0.4,0.5-0.9,1.1-1.5,1.6c-0.1,0.1-0.2,0.2-0.4,0.3
	c-0.1-0.1-0.2-0.3-0.3-0.5c0.5-0.3,1-0.7,1.4-1.2C24.3,19.9,24.4,19.8,24.4,19.7z M29.8,22.7h-1.1v0.8h1V24h-1v1.9
	c0,0.3-0.1,0.4-0.2,0.5c0,0-0.1,0-0.1,0c-0.2,0.1-0.6,0.1-1.2,0.1c0-0.1-0.1-0.3-0.2-0.5c0.5,0,0.8,0,1,0c0.1,0,0.1-0.1,0.2-0.1V24
	h-3.1v-0.5h3.1v-0.8H25v-0.5h2.1v-1h-1.7v-0.5h1.7v-0.9h0.5v0.9h1.8v0.5h-1.8v1h2.2V22.7z M25.7,24.5l0.5-0.3
	c0.4,0.5,0.7,0.9,0.9,1.3v0l-0.5,0.3c-0.2-0.4-0.4-0.8-0.8-1.2C25.7,24.5,25.7,24.5,25.7,24.5z"/>
<path class="st0" d="M33.5,19.6H34c0.7,0.7,1.5,1.2,2.6,1.6c0.3,0.1,0.5,0.2,0.8,0.3c-0.1,0.1-0.2,0.3-0.3,0.5
	c-0.7-0.2-1.3-0.5-1.9-0.9v0.3h-2.7v-0.4c-0.6,0.4-1.3,0.7-1.9,0.9c-0.1-0.2-0.2-0.3-0.3-0.4c1-0.3,1.9-0.8,2.6-1.4
	C33.1,20,33.3,19.9,33.5,19.6z M31.2,23.8v-1.9h5.2v1.9H31.2z M31.7,26.6v-2.5H36v2.5h-0.6v-0.2h-3.2v0.3L31.7,26.6L31.7,26.6z
	 M31.7,22.3v1.1h1.8v-1.1H31.7z M32.2,22.5l0.4-0.1c0.2,0.3,0.4,0.6,0.5,0.9l-0.4,0.2C32.5,23.1,32.4,22.8,32.2,22.5z M35.4,24.5
	h-3.2v0.5h3.2V24.5z M32.2,26h3.2v-0.5h-3.2V26z M32.6,21H35c-0.5-0.3-0.9-0.7-1.2-0.9C33.5,20.4,33.1,20.7,32.6,21z M35.9,23.4
	v-1.1H34v1.1H35.9z M34.9,23.3l-0.4-0.1c0.2-0.4,0.4-0.7,0.4-0.9l0.5,0.1C35.2,22.9,35,23.2,34.9,23.3z"/>
<path class="st0" d="M41,23.9h-2.3c-0.1,1.1-0.3,2-0.7,2.7c-0.1-0.1-0.2-0.2-0.4-0.3c0,0,0,0-0.1,0c0.4-0.7,0.5-1.6,0.5-3
	c0-0.1,0-0.2,0-0.3v-2.7l0.4,0.1c0.9-0.3,1.6-0.5,2-0.7l0.5,0.4c-0.5,0.2-1.3,0.5-2.3,0.7v0.7H41V23.9z M40.5,22h-1.8V23
	c0,0.2,0,0.3,0,0.4h1.8V22z M44.7,22.2v0.5h-0.8v3.9h-0.5v-3.9H42c0,1.7-0.5,2.9-1.3,3.8c-0.1-0.1-0.2-0.3-0.4-0.4c0,0,0,0,0,0
	c0.7-0.8,1.1-1.9,1.2-3.3c0-0.1,0-0.3,0-0.5v-2l0.4,0.1c1-0.3,1.7-0.5,2.2-0.8l0.5,0.4C44,20.4,43.1,20.7,42,21v1.2H44.7z"/>
<path class="st0" d="M48.4,23.2l-0.4,0V26c0,0.3-0.1,0.4-0.2,0.5s-0.4,0.1-0.9,0.1c0-0.2-0.1-0.3-0.2-0.5h0.7c0.1,0,0.1,0,0.1-0.1
	v-2.7c-0.6,0.1-1.1,0.1-1.4,0.1c0,1.5-0.2,2.5-0.6,3.1c-0.1-0.1-0.2-0.2-0.4-0.3c0.4-0.6,0.5-1.5,0.6-2.7c0,0,0-0.1,0-0.1l-0.5,0
	l-0.1-0.5l0.5,0v-2.4h0.7c0.1-0.4,0.3-0.8,0.3-1.1l0.6,0.1c0,0.1-0.1,0.4-0.4,0.9H48v2.1l0.4,0L48.4,23.2z M46.2,21.2V23
	c0.1,0,0.4,0,0.7-0.1c0.3,0,0.5,0,0.7-0.1v-1.7H46.2z M46.5,21.6l0.4-0.1c0.2,0.3,0.4,0.7,0.4,1l-0.4,0.1
	C46.8,22.3,46.7,22,46.5,21.6z M47,23.7v1.8h-0.4v-1.8H47z M51.5,22.9l0.4,0.1c-0.2,0.9-0.6,1.6-1.2,2.3c0.5,0.4,1,0.7,1.7,0.8
	c-0.1,0.1-0.3,0.3-0.4,0.5c-0.7-0.2-1.2-0.5-1.7-0.9c-0.5,0.4-1.1,0.7-1.7,0.9c-0.1-0.2-0.2-0.3-0.3-0.5c0.6-0.2,1.2-0.5,1.6-0.9
	c-0.4-0.5-0.8-1.1-1-1.7l0.4-0.1h-0.7V23L51.5,22.9L51.5,22.9z M49.5,20.4v0.5c0,0.8-0.3,1.4-0.8,1.8c-0.1-0.1-0.2-0.3-0.4-0.3
	c0,0,0,0,0,0c0.4-0.3,0.6-0.8,0.6-1.5v-1h2.2v1.7c0,0.1,0,0.3,0,0.3c0,0,0.1,0,0.1,0h0.2c0.1,0,0.1,0,0.2,0c0,0,0.1-0.1,0.1-0.1
	s0-0.3,0-0.6c0.1,0.1,0.2,0.1,0.4,0.2c0,0.4,0,0.6-0.1,0.7c0,0.1-0.1,0.2-0.2,0.3c-0.1,0-0.2,0.1-0.3,0.1h-0.4c-0.2,0-0.3,0-0.4-0.1
	c-0.1-0.1-0.1-0.3-0.1-0.6v-1.2L49.5,20.4L49.5,20.4z M51.2,23.5h-1.8c0.2,0.5,0.5,1.1,0.9,1.5C50.7,24.5,51,24,51.2,23.5z"/>
<path class="st0" d="M54.2,19.6l0.6,0.1c-0.1,0.5-0.3,0.8-0.4,1.1h1.3v5h-2.1v0.6h-0.5v-5.6H54C54.1,20.4,54.2,19.9,54.2,19.6z
	 M55.2,23v-1.6h-1.6V23H55.2z M53.6,25.3h1.6v-1.8h-1.6V25.3z M59.5,20.8v0.3c-0.1,2.4-0.2,3.9-0.3,4.4c-0.1,0.3-0.1,0.5-0.2,0.6
	c-0.1,0.2-0.3,0.3-0.6,0.3h0c-0.2,0-0.6,0-1.1,0c0-0.2-0.1-0.4-0.2-0.5c0.3,0,0.7,0,1.1,0c0.1,0,0.3,0,0.3-0.1
	c0.2-0.2,0.3-0.9,0.4-2.2c0-0.6,0.1-1.3,0.1-2.3H57c-0.3,0.6-0.5,1-0.7,1.3c-0.1-0.1-0.2-0.2-0.5-0.3c0.5-0.7,0.9-1.6,1.2-2.8
	l0.5,0.1c-0.1,0.4-0.2,0.7-0.3,1.1H59.5z M58.3,24.3l-0.5,0.3c-0.2-0.4-0.6-1.1-1.2-1.7l0.4-0.3C57.6,23.3,58,23.9,58.3,24.3z"/>
<path class="st0" d="M61.5,21.6H66v3h-0.5v-0.4h-4c-0.2,1-0.5,1.8-1.1,2.4c-0.1-0.1-0.2-0.3-0.4-0.4c0,0,0,0,0,0
	c0.7-0.7,1-1.6,1.1-2.9c0-0.1,0-0.3,0-0.5v-2.4l0.4,0.1c1.8-0.3,3.1-0.5,3.9-0.8l0.5,0.4c-1,0.3-2.4,0.6-4.2,0.8L61.5,21.6
	L61.5,21.6z M61.5,23.7h3.9v-1.5h-3.9v0.7C61.5,23.1,61.5,23.4,61.5,23.7z"/>
<path class="st0" d="M72.5,19.7v3.5c0.5,0.5,1.1,0.9,1.8,1.2c-0.1,0.1-0.3,0.3-0.4,0.5c-0.5-0.3-0.9-0.5-1.4-0.9v2.7H72v-3.3
	c-0.5-0.5-0.8-1-1.1-1.5c-0.5,2.3-1.6,3.9-3.2,4.7c-0.1-0.2-0.3-0.3-0.4-0.4h0c0.9-0.5,1.7-1.2,2.3-2.3c-0.4-0.4-0.9-0.7-1.5-1.1
	c-0.2,0.2-0.3,0.4-0.5,0.6c-0.1-0.1-0.3-0.2-0.5-0.4c0.7-0.7,1.3-1.7,1.7-3c0-0.1,0.1-0.3,0.1-0.4l0.5,0.1c-0.1,0.4-0.2,0.7-0.3,1.1
	h1.5l0.1,0l0.4,0.1c0,0,0,0.3-0.1,0.7l0.3-0.1c0.2,0.4,0.5,0.8,0.8,1.1v-2.9L72.5,19.7L72.5,19.7z M70.3,21.3h-1.5
	c-0.2,0.5-0.4,0.9-0.5,1.1c0.6,0.3,1.1,0.7,1.4,1C70,22.8,70.2,22.1,70.3,21.3z"/>
<path class="st0" d="M76.2,19.7l0.6,0.2c-0.2,0.5-0.5,1.1-0.8,1.6v5.1h-0.5v-4.3c-0.3,0.4-0.6,0.8-0.9,1c-0.1-0.2-0.2-0.4-0.3-0.6
	c0.7-0.6,1.3-1.4,1.8-2.4C76,20.1,76.1,19.9,76.2,19.7z M81.2,22.1h-1.9c0.4,1,0.9,1.9,1.6,2.6c0.2,0.2,0.4,0.4,0.5,0.5
	c-0.2,0.1-0.3,0.3-0.4,0.5c-0.7-0.6-1.2-1.5-1.8-2.7c-0.1-0.1-0.1-0.3-0.2-0.4v4h-0.5v-3.9c-0.5,1.1-1.1,2-1.8,2.7
	c-0.1,0.1-0.1,0.1-0.2,0.2c-0.1-0.2-0.3-0.3-0.4-0.4c0.6-0.5,1.2-1.2,1.7-2.2c0.1-0.3,0.3-0.6,0.4-0.9h-1.9v-0.5h2.2v-1.8H79v1.8
	h2.2V22.1z"/>
<path class="st0" d="M82.2,26.4l-0.5-0.3c0.5-0.3,0.9-0.8,1.1-1.4l0.5,0.1C83.1,25.6,82.8,26.1,82.2,26.4z M83.3,22.3v-0.7h-1.4
	v-0.5h1.4v-0.7c-0.4,0-0.8,0.1-1.2,0.1c0-0.2-0.1-0.3-0.1-0.4c1.2-0.1,2.2-0.2,2.7-0.4l0.4,0.4c-0.3,0.1-0.8,0.2-1.2,0.3v0.7h1.4
	v0.5h-1.4v0.7h1.1V24h-2.6v-1.7L83.3,22.3L83.3,22.3z M84.4,23.5v-0.8h-1.6v0.8H84.4z M84.8,26h1.4c0.2,0,0.3,0,0.3-0.1
	c0-0.1,0.1-0.3,0.1-0.7c0.1,0.1,0.3,0.2,0.5,0.2c0,0.5-0.1,0.8-0.3,0.9c-0.1,0.1-0.3,0.1-0.6,0.1h-1.4c-0.5,0-0.8-0.1-0.9-0.2
	c-0.1-0.1-0.1-0.3-0.1-0.5v-1.2h0.5v1.2c0,0.1,0,0.2,0.1,0.2C84.5,26,84.7,26,84.8,26z M84.4,24.3l0.4-0.3c0.5,0.3,0.9,0.5,1.2,0.8
	c0,0,0,0,0.1,0.1l-0.4,0.3c-0.3-0.3-0.6-0.6-1.1-0.9C84.5,24.4,84.4,24.4,84.4,24.3z M88.5,20.3V24h-3v-3.7h0.9
	c0.1-0.3,0.2-0.5,0.3-0.8l0.6,0.1c0,0.1-0.1,0.3-0.2,0.4c0,0.1-0.1,0.2-0.1,0.2L88.5,20.3L88.5,20.3z M87.9,20.8h-1.9v0.6h1.9V20.8z
	 M87.9,21.9h-1.9v0.7h1.9V21.9z M86,23.6h1.9v-0.7H86V23.6z M87,24.8l0.5-0.3c0.5,0.4,0.9,0.8,1.2,1.2c0.1,0.1,0.1,0.2,0.2,0.3
	l-0.5,0.3c-0.2-0.4-0.5-0.8-1-1.3C87.2,25,87.1,24.9,87,24.8z"/>
<path class="st0" d="M91.6,26v-5.6h0.7v5h2.4V26H91.6z"/>
<path class="st0" d="M97,26.1c-0.5,0-1-0.2-1.4-0.6c-0.4-0.4-0.5-0.9-0.5-1.6c0-0.8,0.3-1.3,0.7-1.7c0.4-0.3,0.8-0.4,1.2-0.4
	c0.5,0,1,0.2,1.4,0.6c0.4,0.4,0.5,0.9,0.5,1.6c0,0.8-0.3,1.3-0.7,1.7C97.9,26,97.5,26.1,97,26.1z M97,25.6c0.4,0,0.8-0.2,1-0.6
	c0.1-0.3,0.2-0.6,0.2-1c0-0.6-0.2-1.1-0.5-1.3c-0.2-0.2-0.4-0.3-0.7-0.3c-0.4,0-0.8,0.2-1,0.6c-0.1,0.3-0.2,0.6-0.2,1
	c0,0.6,0.2,1.1,0.5,1.4C96.6,25.5,96.8,25.6,97,25.6z"/>
<path class="st0" d="M101.1,26.1c-0.8,0-1.3-0.5-1.3-1.6v-2.6h0.7v2.5c0,0.6,0.1,0.9,0.5,1.1c0.1,0,0.2,0,0.3,0
	c0.3,0,0.6-0.1,0.9-0.4c0.1-0.1,0.1-0.2,0.2-0.3v-2.9h0.7V26h-0.6l-0.1-0.7h0C102,25.9,101.6,26.1,101.1,26.1
	C101.2,26.1,101.1,26.1,101.1,26.1z"/>
<path class="st0" d="M104.2,26v-4.1h0.6l0.1,0.6h0c0.4-0.4,0.9-0.7,1.3-0.7c0,0,0.1,0,0.1,0c0.8,0,1.3,0.5,1.3,1.6V26h-0.7v-2.5
	c0-0.6-0.1-0.9-0.5-1.1c-0.1,0-0.2,0-0.3,0c-0.3,0-0.6,0.1-0.9,0.4c-0.1,0.1-0.1,0.1-0.2,0.2v3H104.2z"/>
<path class="st0" d="M110,28c-0.7,0-1.2-0.2-1.5-0.5c-0.1-0.2-0.2-0.4-0.2-0.6c0-0.4,0.2-0.7,0.6-0.9v0c-0.3-0.1-0.4-0.4-0.4-0.7
	c0-0.3,0.1-0.5,0.4-0.8c0,0,0,0,0,0v0c-0.3-0.3-0.5-0.6-0.5-1c0,0,0-0.1,0-0.1c0-0.5,0.2-0.9,0.6-1.2c0.3-0.2,0.6-0.3,0.9-0.3
	c0.2,0,0.4,0,0.6,0.1h1.5v0.5h-0.8c0.2,0.2,0.3,0.5,0.3,0.8c0,0.5-0.2,0.9-0.6,1.2c-0.3,0.2-0.5,0.3-0.9,0.3c-0.2,0-0.4,0-0.6-0.1
	c-0.2,0.1-0.3,0.3-0.3,0.5c0,0.3,0.2,0.4,0.5,0.4c0.1,0,0.1,0,0.2,0h0.8c0.9,0,1.4,0.3,1.4,0.8c0,0,0,0.1,0,0.1
	c0,0.4-0.2,0.8-0.6,1.1C111.1,27.8,110.7,28,110,28z M110.2,27.5c0.5,0,0.9-0.1,1.1-0.4c0.1-0.1,0.2-0.3,0.2-0.5
	c0-0.3-0.2-0.5-0.6-0.5c-0.1,0-0.1,0-0.3,0h-0.7c-0.2,0-0.4,0-0.5-0.1c-0.3,0.2-0.4,0.4-0.4,0.7c0,0.3,0.2,0.5,0.5,0.7
	C109.7,27.5,109.9,27.5,110.2,27.5z M110,24.3c0.3,0,0.5-0.1,0.7-0.4c0.1-0.2,0.1-0.4,0.1-0.6c0-0.4-0.1-0.7-0.4-0.9
	c-0.1-0.1-0.3-0.1-0.4-0.1c-0.3,0-0.6,0.1-0.8,0.4c-0.1,0.1-0.1,0.3-0.1,0.5c0,0.4,0.1,0.7,0.4,0.9C109.8,24.2,109.9,24.3,110,24.3z
	"/>
<path class="st0" d="M114.4,26.1c-0.6,0-1.1-0.2-1.5-0.7c-0.3-0.4-0.5-0.9-0.5-1.5c0-0.7,0.2-1.3,0.7-1.7c0.4-0.3,0.7-0.5,1.2-0.5
	c0.7,0,1.2,0.3,1.4,0.8c0.1,0.3,0.2,0.7,0.2,1.1c0,0.1,0,0.3,0,0.4H113c0,0.6,0.3,1,0.7,1.2c0.2,0.1,0.5,0.2,0.7,0.2
	c0.4,0,0.7-0.1,1.1-0.3l0.3,0.5C115.3,26,114.8,26.1,114.4,26.1z M113,23.6h2.2c0-0.7-0.2-1.1-0.7-1.2c-0.1,0-0.2,0-0.3,0
	c-0.4,0-0.7,0.2-0.9,0.5C113.1,23.1,113.1,23.3,113,23.6z"/>
<path class="st0" d="M121.7,25.9h3.1v0.5h-6.7v-0.5h3v-1.5h-2.3v-0.5h5.3v0.5h-2.4V25.9z M122,20.9h-1.1c-0.1,0.8-0.3,1.3-0.6,1.7
	c-0.4,0.4-1,0.7-1.8,0.9c-0.1-0.2-0.2-0.3-0.3-0.5c0.9-0.2,1.5-0.5,1.8-0.9c0.2-0.3,0.3-0.7,0.4-1.2h-1.5v1h-0.5v-1.5h2.9v-0.8h0.6
	v0.8h3v1.4h-0.6V21h-1.5v1.5c0,0.1,0,0.2,0.1,0.2c0,0,0.1,0,0.2,0h1c0.1,0,0.2,0,0.2-0.1c0-0.1,0-0.3,0-0.5c0.1,0.1,0.3,0.1,0.5,0.2
	c0,0.4-0.1,0.7-0.3,0.8c-0.1,0.1-0.3,0.1-0.4,0.1h-1.1c-0.4,0-0.6-0.1-0.7-0.2c-0.1-0.1-0.1-0.3-0.1-0.5L122,20.9L122,20.9z"/>
<path class="st0" d="M128.5,22.6h-2.2v4h-0.6V20h2.8V22.6z M127.9,20.4h-1.6V21h1.6V20.4z M126.3,22.1h1.6v-0.7h-1.6V22.1z
	 M130.2,25.9h-2.3v0.4h-0.5v-3.2h2.8V25.9z M129.7,23.6h-1.8v0.7h1.8V23.6z M127.9,25.5h1.8v-0.7h-1.8V25.5z M132,20v5.9
	c0,0.3-0.1,0.5-0.3,0.6c0,0,0,0-0.1,0c-0.2,0.1-0.6,0.1-1.3,0.1c0-0.2-0.1-0.4-0.2-0.6c0.4,0,0.8,0,1.1,0c0.1,0,0.2-0.1,0.2-0.2
	v-3.3h-2.3V20H132z M131.4,20.4h-1.7V21h1.7V20.4z M129.7,22.1h1.7v-0.7h-1.7V22.1z"/>
<path class="st0" d="M136.5,23.4h-0.6v-1h1v0.8c0,0.5-0.2,0.9-0.7,1.2c-0.1,0-0.1,0.1-0.1,0.1l-0.2-0.3
	C136.3,24,136.5,23.8,136.5,23.4z"/>
<path class="st0" d="M2,30.8l0.5,0.1C2.3,31.5,2,32,1.7,32.5v5.2H1.2v-4.4c-0.3,0.4-0.6,0.7-0.8,1c-0.1-0.2-0.2-0.4-0.3-0.5
	c0.7-0.6,1.2-1.4,1.7-2.4C1.8,31.2,1.9,31,2,30.8z M5,36.9h2.2v0.5H2.2v-0.5h2.2V35H2.7v-0.5h1.8v-1.7h-2v-0.5H5
	c-0.4-0.4-0.9-0.7-1.6-1.1c0,0,0,0,0,0l0.4-0.4c0.8,0.4,1.3,0.8,1.7,1.2l-0.3,0.4H7v0.5H5v1.7h1.8V35H5L5,36.9L5,36.9z"/>
<path class="st0" d="M9.4,32.7h4.5v3h-0.6v-0.4h-4c-0.2,1-0.5,1.8-1.1,2.4c-0.1-0.1-0.2-0.3-0.4-0.4c0,0,0,0,0,0
	c0.7-0.7,1-1.6,1.1-2.9c0-0.1,0-0.3,0-0.5v-2.4l0.4,0.1c1.8-0.3,3.1-0.5,3.9-0.8l0.5,0.4c-1,0.3-2.4,0.6-4.2,0.8L9.4,32.7L9.4,32.7z
	 M9.3,34.8h3.9v-1.5H9.4v0.7C9.4,34.2,9.4,34.5,9.3,34.8z"/>
<path class="st0" d="M18.3,33.1v0.5c-0.7,0.1-1.8,0.3-3.3,0.5l-0.1-0.5c0.3,0,0.5-0.1,0.8-0.1v-2.7h0.5v0.9h1.8v0.5h-1.8v1.2
	C16.5,33.3,17.1,33.2,18.3,33.1z M18,33.7l0.6,0.1c0,0.1-0.1,0.2-0.2,0.4c-0.1,0.1-0.1,0.2-0.1,0.3h2.6v3.2h-0.6v-0.3h-3.7v0.3h-0.5
	v-3.2h1.6C17.8,34.2,17.9,33.9,18,33.7z M20.3,35.8V35h-3.7v0.8H20.3z M16.6,37h3.7v-0.8h-3.7V37z M19.6,33.5h1.2
	c0.1,0,0.3,0,0.3-0.1c0-0.1,0.1-0.3,0.1-0.6c0.1,0.1,0.3,0.1,0.5,0.2c0,0.5-0.1,0.8-0.3,0.9c-0.1,0.1-0.3,0.1-0.5,0.1h-1.4
	c-0.4,0-0.7-0.1-0.8-0.2c-0.1-0.1-0.1-0.3-0.1-0.5v-2.4h0.5V32c0.8-0.3,1.4-0.5,1.8-0.7l0.4,0.4c-0.5,0.3-1.3,0.5-2.2,0.8v0.7
	c0,0.1,0,0.2,0.1,0.3C19.4,33.4,19.5,33.5,19.6,33.5z"/>
<path class="st0" d="M29.1,31.3v0.5h-0.9v5.1c0,0.3-0.1,0.5-0.3,0.7c0,0-0.1,0-0.1,0c-0.2,0.1-0.8,0.1-1.6,0.1
	c0-0.2-0.1-0.4-0.3-0.6c0.5,0,1,0,1.4,0c0.1,0,0.2,0,0.2-0.1c0,0,0,0,0-0.1v-5.1h-5.3v-0.5L29.1,31.3L29.1,31.3z M26.2,35.8h-2.6
	v0.6h-0.5V33h3.1V35.8z M25.7,33.5h-2v1.7h2V33.5z"/>
<path class="st0" d="M32,35.3l-0.4-0.1c0.1-0.3,0.3-0.7,0.4-1.1h-0.8v3c0,0.3-0.1,0.4-0.2,0.5c0,0,0,0-0.1,0
	c-0.2,0.1-0.5,0.1-1.1,0.1c0-0.2-0.1-0.4-0.2-0.5c0.4,0,0.7,0,0.8,0c0.1,0,0.1,0,0.1-0.1v-3h-1.2v-0.5h2c-0.4-0.4-1-0.8-1.6-1.1
	L30,32c0.3,0.1,0.5,0.3,0.8,0.4c0.3-0.3,0.5-0.5,0.8-0.9h-2v-0.5h2.4l0.1,0l0.4,0.3c-0.3,0.5-0.7,1-1.2,1.5c0.3,0.2,0.5,0.4,0.6,0.5
	l-0.2,0.3h0.5l0.1,0l0.4,0.1C32.3,34.5,32.1,35,32,35.3z M33.5,36.4l0.5,0.3c-0.4,0.4-0.9,0.7-1.5,0.9c-0.1,0-0.1,0.1-0.2,0.1
	c-0.1-0.1-0.2-0.2-0.4-0.4c0.6-0.2,1.1-0.5,1.5-0.8C33.4,36.5,33.5,36.5,33.5,36.4z M32.8,32.3h1.2c0.1-0.4,0.1-0.6,0.1-0.7h-1.6
	v-0.5h3.9v0.5h-1.6c0,0-0.1,0.3-0.2,0.7H36v4h-3.3V32.3z M35.5,33.5v-0.8h-2.2v0.8H35.5z M35.5,34.7v-0.8h-2.2v0.8H35.5z M35.5,35.8
	v-0.8h-2.2v0.8H35.5z M34.7,36.7l0.4-0.3c0.6,0.3,1,0.7,1.4,0.9L36,37.7C35.7,37.4,35.3,37.1,34.7,36.7z"/>
<path class="st0" d="M37.3,35.1l0.5,0.1c-0.1,0.8-0.3,1.5-0.5,1.9C37.1,37,37,37,36.8,36.9C37,36.5,37.2,35.9,37.3,35.1z M38.8,33.4
	l0.4-0.2c0.4,0.6,0.7,1.1,0.8,1.5L39.5,35c0-0.1-0.1-0.3-0.1-0.4l-0.7,0v3.2h-0.5v-3.2l-1.2,0.1l0-0.5c0.1,0,0.3,0,0.5,0
	c0.1-0.1,0.3-0.4,0.5-0.7c-0.2-0.3-0.5-0.7-1-1.1l0.3-0.4c0.1,0.1,0.2,0.1,0.2,0.2c0.3-0.4,0.5-0.9,0.7-1.4l0.5,0.2
	c-0.4,0.7-0.7,1.2-0.9,1.5c0.2,0.2,0.3,0.4,0.5,0.5c0.3-0.5,0.6-1,0.8-1.4l0.5,0.2c-0.5,0.9-1.1,1.6-1.6,2.3c0.1,0,0.3,0,0.5,0
	c0.3,0,0.5,0,0.7,0C39.1,33.9,38.9,33.6,38.8,33.4z M39,35.2l0.4-0.1c0.3,0.5,0.4,1.1,0.5,1.5l-0.4,0.1C39.4,36.3,39.2,35.8,39,35.2
	z M43.8,32.1v0.3c-0.1,2.4-0.2,3.8-0.3,4.4c-0.1,0.3-0.1,0.5-0.2,0.6c-0.1,0.1-0.3,0.3-0.5,0.3c0,0-0.1,0-0.1,0c-0.3,0-0.7,0-1.2,0
	c0-0.2-0.1-0.4-0.2-0.5c0.3,0,0.7,0,1.2,0c0.1,0,0.3,0,0.3-0.1c0.2-0.2,0.3-1,0.4-2.5c0-0.5,0.1-1.2,0.1-1.9h-2.5
	c-0.2,0.4-0.5,0.8-0.7,1.1c-0.1-0.1-0.3-0.2-0.5-0.3c0.5-0.6,1-1.4,1.3-2.4c0-0.1,0-0.1,0.1-0.2l0.6,0.1c-0.1,0.5-0.3,0.9-0.5,1.2
	H43.8z M42,35.5l-0.5,0.3c-0.2-0.5-0.5-1-0.9-1.6c0-0.1-0.1-0.1-0.1-0.2l0.5-0.2c0.5,0.6,0.8,1.1,1,1.6C42,35.5,42,35.5,42,35.5z"/>
<path class="st0" d="M46.3,30.7l0.5,0.2c-0.2,0.5-0.5,1.1-0.8,1.6v5.3h-0.5v-4.4c-0.3,0.4-0.5,0.7-0.8,1c-0.1-0.2-0.2-0.4-0.3-0.5
	c0.7-0.6,1.2-1.4,1.7-2.4C46.1,31.2,46.2,31,46.3,30.7z M51.2,35h-2c-0.1,0.6-0.3,1.1-0.5,1.5c0.7,0.4,1.7,0.7,2.8,0.8
	c-0.1,0.1-0.3,0.3-0.3,0.5c-1.1-0.2-2.1-0.5-2.8-0.9c-0.4,0.4-1,0.7-1.7,0.9c-0.1-0.2-0.2-0.4-0.3-0.5c0.7-0.2,1.2-0.4,1.6-0.8
	c-0.5-0.4-0.8-0.8-1.1-1.2l0.5-0.1c0.2,0.4,0.5,0.7,0.9,1c0.2-0.3,0.4-0.7,0.4-1.2h-1.9v-2.1h1.9v-0.8h-2.1v-0.5h2.1v-0.8h0.5v0.8
	h2.2v0.5h-2.2v0.8h2L51.2,35L51.2,35z M47.4,34.5h1.4c0-0.1,0-0.2,0-0.3v-0.8h-1.4V34.5z M50.7,33.4h-1.4v0.8c0,0.1,0,0.3,0,0.3h1.4
	V33.4z"/>
<path class="st0" d="M58.6,31.3V37c0,0.3-0.1,0.5-0.3,0.6c0,0-0.1,0-0.1,0c-0.2,0.1-0.7,0.1-1.4,0.1c0-0.1-0.1-0.3-0.2-0.5
	c0.3,0,0.7,0,1.2,0c0.1,0,0.2-0.1,0.2-0.2v-1.5H56v2.3h-0.6v-2.3h-1.9c-0.1,1-0.5,1.8-0.9,2.4c-0.1-0.1-0.2-0.3-0.4-0.4c0,0,0,0,0,0
	c0.5-0.6,0.9-1.6,0.9-2.8c0-0.1,0-0.3,0-0.5v-2.7H58.6z M53.5,34.8h1.9v-1.3h-1.8V34C53.6,34.3,53.5,34.6,53.5,34.8z M55.4,31.8
	h-1.8v1.2h1.8V31.8z M58,33.1v-1.2H56v1.2H58z M56,34.8h2v-1.3h-2V34.8z"/>
<path class="st0" d="M63.3,34.5h-0.6v-1h1v0.8c0,0.5-0.2,0.9-0.7,1.2c-0.1,0-0.1,0.1-0.1,0.1l-0.2-0.3
	C63.1,35.1,63.3,34.9,63.3,34.5z"/>
<path class="st0" d="M68.7,34.3v1.9c0.4,0.5,1,0.8,2,0.9c1.1,0,2.2,0,3.3,0c0.1,0,0.2,0,0.3,0c-0.1,0.2-0.1,0.4-0.2,0.5
	c-1.2,0-2.4,0-3.3,0s-1.6-0.3-2.1-0.7c0,0-0.1-0.1-0.1-0.1c-0.3,0.3-0.7,0.6-1.1,1l-0.3-0.5c0.3-0.3,0.7-0.5,1-0.9v-1.5h-0.9v-0.5
	H68.7z M68.9,33.2l-0.4,0.4c-0.2-0.3-0.6-0.5-1.2-0.9c0,0-0.1,0-0.1,0l0.4-0.4c0.5,0.2,0.9,0.5,1.2,0.8
	C68.8,33.2,68.8,33.2,68.9,33.2z M69.1,31.8l-0.4,0.4c-0.2-0.3-0.6-0.5-1.1-0.8c0,0-0.1-0.1-0.1-0.1l0.4-0.3
	c0.5,0.3,0.9,0.5,1.1,0.8C69.1,31.7,69.1,31.7,69.1,31.8z M70.1,31.5V33c0,1.6-0.3,2.8-0.7,3.6c-0.1-0.1-0.3-0.2-0.4-0.3
	c0.4-0.7,0.7-1.7,0.7-3.1c0-0.1,0-0.1,0-0.2v-2h4.2v5c0,0.3-0.1,0.4-0.2,0.5c0,0,0,0-0.1,0c-0.2,0.1-0.5,0.1-1.1,0.1
	c0-0.2-0.1-0.3-0.1-0.5c0.4,0,0.7,0,0.8,0c0.1,0,0.1-0.1,0.1-0.1v-4.6L70.1,31.5L70.1,31.5z M70.3,33.3h1v-0.6h-0.9v-0.4h0.9v-0.6
	h0.5v0.6h0.9v0.4h-0.9v0.6h1.1v0.4h-2.5V33.3z M71,35.8v0.4h-0.5v-2.1h2v1.7H71z M72.2,34.5H71v0.9h1.1V34.5z"/>
<path class="st0" d="M81.2,34.5h-2.3c0.5,0.7,1.2,1.3,2,1.8c0.3,0.2,0.6,0.4,0.9,0.5c-0.2,0.1-0.3,0.3-0.4,0.5
	c-0.8-0.4-1.6-1-2.3-1.8c-0.2-0.2-0.4-0.4-0.5-0.7v2.9H78v-2.9c-0.6,0.8-1.3,1.5-2.2,2c-0.2,0.1-0.4,0.3-0.7,0.4
	c-0.1-0.2-0.3-0.4-0.4-0.5c0.8-0.3,1.5-0.8,2.2-1.5c0.3-0.3,0.5-0.5,0.7-0.8h-2.3V34h2.6v-1.3h-3v-0.5h3v-1.3h0.6v1.3h3.1v0.5h-3.1
	V34h2.7V34.5z"/>
<path class="st0" d="M83.4,30.8l0.5,0.1c-0.1,0.5-0.3,1-0.5,1.6v5.2h-0.5v-4.1c-0.2,0.4-0.4,0.7-0.5,0.8c-0.1-0.2-0.2-0.4-0.3-0.6
	C82.6,33.1,83.1,32.1,83.4,30.8z M86.2,36.2h-1.5v1.5h-0.5v-6.6h2.1v2.4h-1.6v0.8h1.4v0.5h-1.4v0.9h1.5V36.2z M85.8,31.6h-1.1V33
	h1.1V31.6z M88.5,34l0.3,0.1c-0.2,0.9-0.5,1.6-0.9,2.2c0.4,0.4,0.8,0.7,1.3,0.9c-0.1,0.1-0.3,0.3-0.3,0.4c-0.5-0.2-0.9-0.5-1.2-1
	c-0.4,0.4-0.9,0.8-1.5,1c-0.1-0.2-0.2-0.3-0.3-0.4c0.6-0.2,1.1-0.5,1.5-1c-0.3-0.5-0.5-1.1-0.8-1.7l0.4-0.1h-0.5v-0.5L88.5,34
	L88.5,34z M88.7,31.1v2.4h-2.2V33h1.6v-1.4h-1.6v-0.5H88.7z M88.2,34.5H87c0.1,0.5,0.4,1,0.6,1.4C87.9,35.5,88.1,35.1,88.2,34.5z"/>
<path class="st0" d="M90.2,31.3h5v6.3h-0.6v-0.5h-3.8v0.5h-0.6V31.3z M94.6,31.8h-3.8v2.1h3.8V31.8z M90.8,36.6h3.8v-2.1h-3.8V36.6z
	"/>
<path class="st0" d="M98.9,32.3l0.3,0.1c-0.1,1.3-0.3,2.5-0.7,3.3c0.4,0.3,0.7,0.5,0.9,0.8L99,36.9c-0.2-0.2-0.4-0.5-0.8-0.8
	c-0.4,0.7-0.9,1.2-1.5,1.5c-0.1-0.2-0.2-0.3-0.4-0.5c0.6-0.3,1-0.8,1.4-1.4c-0.2-0.2-0.5-0.4-0.8-0.5L97,35.6l-0.5-0.3
	c0.1-0.5,0.4-1.4,0.6-2.5h-0.7v-0.5h0.8c0.1-0.7,0.3-1.2,0.3-1.6l0.5,0.1c0,0.2-0.1,0.7-0.3,1.5L98.9,32.3L98.9,32.3z M98.7,32.8h-1
	c-0.1,0.6-0.3,1.2-0.5,2c0.4,0.2,0.7,0.4,0.9,0.5C98.4,34.7,98.6,33.8,98.7,32.8z M103.4,33.8v0.5h-1.8V37c0,0.3-0.1,0.5-0.2,0.5
	c0,0-0.1,0-0.1,0c-0.2,0.1-0.6,0.1-1.2,0.1c0-0.2-0.1-0.4-0.2-0.5c0.5,0,0.8,0,1.1,0c0.1,0,0.2-0.1,0.2-0.1v-2.7h-1.8v-0.5h1.8v-1
	h0.2c0.4-0.3,0.8-0.7,1.1-1.1h-2.9v-0.5h3.3l0.1,0l0.4,0.3c-0.4,0.6-0.9,1.1-1.5,1.6c-0.1,0.1-0.1,0.1-0.2,0.1v0.7L103.4,33.8
	L103.4,33.8z"/>
<path class="st0" d="M109.2,33.6l0.4,0.2c-0.3,1-0.8,1.9-1.5,2.5c0.7,0.4,1.5,0.8,2.5,0.9c-0.1,0.1-0.3,0.3-0.4,0.5
	c-1-0.2-1.9-0.6-2.6-1.1c-0.7,0.5-1.4,0.8-2.3,1.1c-0.1-0.2-0.2-0.4-0.3-0.5c0.8-0.2,1.6-0.5,2.2-1c-0.5-0.5-1-1.1-1.3-1.8
	c-0.4,1.3-1,2.4-1.8,3c-0.1-0.1-0.3-0.3-0.5-0.4c1.1-0.9,1.8-2.4,2.1-4.5h-1.9V32h1.9c0-0.4,0.1-0.8,0.1-1.3h0.6
	c0,0.7-0.1,1.1-0.1,1.3h4.1v0.5h-4.1c-0.1,0.4-0.1,0.8-0.2,1h3L109.2,33.6z M108.8,34.1h-2.6c0.3,0.7,0.8,1.3,1.4,1.8
	C108.1,35.4,108.5,34.8,108.8,34.1z"/>
<path class="st0" d="M112.9,32.9v0.7c0.4,0.4,0.7,0.8,1,1.2c0,0,0.1,0.1,0.1,0.1l-0.4,0.5c-0.1-0.2-0.4-0.6-0.8-1.1v3.5h-0.5v-3.6
	c-0.3,1-0.7,1.7-1.1,2.3c0-0.1-0.1-0.3-0.3-0.5c0.4-0.5,0.8-1.2,1.1-2.1c0.1-0.3,0.1-0.5,0.2-0.7h-1.2v-0.5h1.2v-1.6h0.5v1.6h1.1V33
	L112.9,32.9L112.9,32.9z M114.3,31.2h3.4v6.4h-0.5v-0.4h-2.3v0.5h-0.5V31.2z M117.2,31.7h-2.3V33h2.3V31.7z M114.9,33.5v1.3h2.3
	v-1.3H114.9z M114.9,36.7h2.3v-1.3h-2.3V36.7z"/>
<path class="st0" d="M119,35.1l0.5,0.1c-0.1,0.8-0.3,1.5-0.5,1.9c-0.1-0.1-0.3-0.1-0.4-0.2C118.7,36.5,118.9,35.9,119,35.1z
	 M120.5,33.4l0.4-0.2c0.4,0.6,0.7,1.1,0.8,1.5l-0.5,0.2c0-0.1-0.1-0.3-0.1-0.4l-0.7,0v3.2h-0.5v-3.2l-1.2,0.1l0-0.5
	c0.1,0,0.3,0,0.5,0c0.1-0.1,0.3-0.4,0.5-0.7c-0.2-0.3-0.5-0.7-1-1.1l0.3-0.4c0.1,0.1,0.2,0.1,0.2,0.2c0.3-0.4,0.5-0.9,0.7-1.4
	l0.5,0.2c-0.4,0.7-0.7,1.2-0.9,1.5c0.2,0.2,0.3,0.4,0.5,0.5c0.3-0.5,0.6-1,0.8-1.4l0.5,0.2c-0.5,0.9-1.1,1.6-1.6,2.3
	c0.1,0,0.3,0,0.5,0c0.3,0,0.5,0,0.7,0C120.7,33.9,120.6,33.6,120.5,33.4z M120.6,35.2l0.4-0.1c0.3,0.5,0.4,1.1,0.5,1.5l-0.4,0.1
	C121.1,36.3,120.9,35.8,120.6,35.2z M125.5,32.1v0.3c-0.1,2.4-0.2,3.8-0.3,4.4c-0.1,0.3-0.1,0.5-0.2,0.6c-0.1,0.1-0.3,0.3-0.5,0.3
	c0,0-0.1,0-0.1,0c-0.3,0-0.7,0-1.2,0c0-0.2-0.1-0.4-0.2-0.5c0.3,0,0.7,0,1.2,0c0.1,0,0.3,0,0.3-0.1c0.2-0.2,0.3-1,0.4-2.5
	c0-0.5,0.1-1.2,0.1-1.9h-2.5c-0.2,0.4-0.5,0.8-0.7,1.1c-0.1-0.1-0.3-0.2-0.5-0.3c0.5-0.6,1-1.4,1.3-2.4c0-0.1,0-0.1,0.1-0.2l0.6,0.1
	c-0.1,0.5-0.3,0.9-0.5,1.2H125.5z M123.7,35.5l-0.5,0.3c-0.2-0.5-0.5-1-0.9-1.6c0-0.1-0.1-0.1-0.1-0.2l0.5-0.2
	c0.5,0.6,0.8,1.1,1,1.6C123.7,35.5,123.7,35.5,123.7,35.5z"/>
<path class="st0" d="M129.8,34.5h-0.6v-1h1v0.8c0,0.5-0.2,0.9-0.7,1.2c-0.1,0-0.1,0.1-0.1,0.1l-0.2-0.3
	C129.6,35.1,129.8,34.9,129.8,34.5z"/>
<path class="st0" d="M1.8,41.9v2.5c0,0.7,0,1.2-0.1,1.6c0.2,0.2,0.5,0.7,1.1,1.3l-0.4,0.4c-0.1-0.3-0.4-0.7-0.8-1.2
	c-0.2,0.8-0.6,1.5-1.2,2.1c-0.1-0.1-0.2-0.3-0.4-0.4c0.7-0.7,1.1-1.6,1.2-2.7c0-0.3,0-0.7,0-1.2v-2.5H1.8z M0.6,43.4l0.4,0
	c0,0.9-0.2,1.5-0.5,2l-0.4-0.2C0.4,44.9,0.5,44.3,0.6,43.4z M2.4,43.2l0.5,0.2c-0.4,0.9-0.6,1.4-0.7,1.5l-0.4-0.2
	C2.1,44.2,2.3,43.7,2.4,43.2z M7.2,44.6H5.3c-0.3,0.3-0.5,0.5-0.8,0.7h2v0.5H4.3c-0.1,0.3-0.1,0.5-0.1,0.7h2.5l0,0.3
	c-0.1,1-0.3,1.6-0.4,1.8c0,0-0.1,0.1-0.1,0.1c-0.1,0.1-0.3,0.2-0.5,0.2c-0.3,0-0.6,0-0.9,0c0-0.2-0.1-0.4-0.2-0.5c0.3,0,0.6,0,0.9,0
	c0.1,0,0.2,0,0.3-0.1C5.9,48.2,6,47.7,6.1,47h-2c0,0,0,0.1-0.1,0.3l-0.5-0.1c0.1-0.4,0.2-0.9,0.3-1.4c-0.3,0.2-0.6,0.4-1.1,0.7
	c-0.1-0.2-0.3-0.4-0.4-0.4c0.8-0.4,1.5-0.9,2.2-1.5H2.7v-0.5h1.5v-0.9H3v-0.5h1.2v-0.8h0.5v0.8H6V43c0.2-0.3,0.4-0.6,0.6-1L7,42.2
	c-0.4,0.7-0.8,1.3-1.3,2h1.5L7.2,44.6L7.2,44.6z M4.7,43.2v0.9H5c0.3-0.3,0.5-0.6,0.8-0.9H4.7z"/>
<path class="st0" d="M14.1,43v5.1c0,0.3-0.1,0.5-0.2,0.6c0,0-0.1,0-0.1,0c-0.2,0.1-0.7,0.1-1.4,0.1c0-0.2-0.1-0.4-0.2-0.6
	c0.2,0,0.6,0,1.1,0c0.1,0,0.2-0.1,0.2-0.2v-4.6h-2.3c0,0,0,0.1,0,0.2c0,0.1,0,0.1,0,0.1c0.9,0.5,1.6,0.9,2,1.3l-0.4,0.4
	c-0.5-0.4-1.1-0.8-1.9-1.3c-0.4,0.6-0.9,1.1-1.7,1.4c-0.1-0.1-0.2-0.3-0.4-0.4c0.8-0.3,1.4-0.8,1.7-1.5c0-0.1,0.1-0.1,0.1-0.3H8.5
	v5.3H8v-5.9h2.8c0.1-0.3,0.1-0.7,0.1-1.1h0.6c0,0.4-0.1,0.8-0.1,1.1L14.1,43L14.1,43z M13.1,47.5l-0.4,0.4c-0.4-0.4-1-0.9-1.8-1.4
	c-0.4,0.7-1,1.1-1.8,1.4c-0.1-0.2-0.2-0.3-0.3-0.4c0.9-0.3,1.5-0.9,1.8-1.7c0.1-0.2,0.1-0.4,0.2-0.6h0.6c-0.1,0.3-0.1,0.6-0.3,0.8
	C12.1,46.6,12.7,47.1,13.1,47.5z"/>
<path class="st0" d="M16.6,44.7l-0.3,0.5c-0.3-0.3-0.7-0.5-1.3-0.8c0,0,0,0,0,0l0.3-0.4C15.8,44.2,16.2,44.4,16.6,44.7
	C16.6,44.7,16.6,44.7,16.6,44.7z M16.4,45.9l0.4,0.3c-0.3,0.8-0.8,1.6-1.2,2.5l-0.5-0.4C15.6,47.7,16,46.9,16.4,45.9z M17,42.7
	l-0.3,0.5c-0.3-0.3-0.7-0.5-1.2-0.8c0,0-0.1,0-0.1,0l0.3-0.4C16.2,42.2,16.7,42.5,17,42.7z M18,43.3v1.3c0,1.9-0.3,3.3-1,4.3
	c-0.1-0.1-0.3-0.3-0.4-0.3c0,0,0,0,0,0c0.6-0.8,0.9-2,0.9-3.6c0-0.1,0-0.2,0-0.3v-2l0.5,0.2c1.4-0.3,2.4-0.6,3-0.9l0.5,0.4
	C20.7,42.7,19.5,43,18,43.3z M21.5,44.9l0.4,0.4c-0.4,0.4-0.9,0.7-1.3,1c0.3,1,0.8,1.7,1.4,2.1c-0.1,0.1-0.3,0.3-0.4,0.5
	c-0.8-0.6-1.4-1.8-1.7-3.6c0-0.3-0.1-0.5-0.1-0.8c0,0-0.1,0-0.2,0c-0.2,0-0.3,0.1-0.4,0.1v3.3c0.2,0,0.5-0.1,0.9-0.2
	c0.2,0,0.4-0.1,0.5-0.1l0,0.5c-0.5,0.1-1.4,0.4-2.5,0.6l-0.2-0.5c0.1,0,0.2,0,0.4-0.1c0.1,0,0.2,0,0.3-0.1v-4l0.4,0.1
	c1-0.2,1.8-0.4,2.3-0.7l0.5,0.4c-0.4,0.2-0.9,0.4-1.5,0.5c0.1,0.5,0.1,0.9,0.3,1.4C21,45.5,21.3,45.2,21.5,44.9z"/>
<path class="st0" d="M24.9,45c0.2-0.4,0.3-0.7,0.4-1.1h-2.8v-0.5h1.2v-1.6h0.5v1.6h0.6v-1.6h0.5v1.6h1.2v0.4h1.7v-2h0.5v2h0.8v0.5
	h-0.8v3.7c0,0.3-0.1,0.5-0.3,0.6c0,0,0,0,0,0c-0.2,0.1-0.6,0.1-1.2,0.1c0-0.2-0.1-0.4-0.2-0.5c0.5,0,0.8,0,1,0
	c0.1,0,0.2-0.1,0.2-0.2v-3.7h-1.8V44h-1l0.5,0.1c-0.3,0.5-0.4,0.9-0.5,1h0.8v0.5h-1.4v0.8H26v0.5h-1.2v0.8l1.6-0.2V48
	c-1.5,0.2-2.7,0.4-3.8,0.5l-0.1-0.5c0.3,0,0.9-0.1,1.7-0.2v-0.9H23v-0.5h1.2v-0.8h-1.4v-0.5h0.7c0-0.3-0.2-0.6-0.4-1l0.4-0.1
	c0.2,0.3,0.4,0.7,0.4,1l-0.4,0.1h1.7L24.9,45z M22.6,42.3l0.4-0.2c0.3,0.4,0.5,0.8,0.5,1.1l-0.4,0.2C23.1,43.1,22.9,42.7,22.6,42.3z
	 M25.8,43.4l-0.4-0.2c0.3-0.4,0.4-0.8,0.6-1.2l0.5,0.2c0,0.1-0.1,0.2-0.2,0.4C26,43,25.9,43.3,25.8,43.4z M26.6,45.2l0.5-0.2
	c0.4,0.6,0.6,1.2,0.7,1.7v0.1l-0.5,0.2c-0.1-0.5-0.3-1-0.6-1.6C26.7,45.3,26.7,45.3,26.6,45.2z"/>
<path class="st0" d="M32.9,44.3c0.6,0.5,1.1,1,1.6,1.6c0,0,0,0.1,0.1,0.1l-0.5,0.4c-0.5-0.7-1.1-1.2-1.7-1.7L32.9,44.3z"/>
<path class="st0" d="M40.7,44.6h-2.3v4.3h-0.5v-6.7h2.8L40.7,44.6L40.7,44.6z M40.2,42.6h-1.7v0.6h1.7V42.6z M38.5,44.2h1.7v-0.6
	h-1.7V44.2z M44.3,42.2v5.9c0,0.3-0.1,0.5-0.2,0.5c0,0,0,0,0,0c-0.2,0.1-0.5,0.1-0.9,0.1c0-0.1,0-0.2-0.1-0.4h-3.9v-0.4h1.7v-0.6
	h-1.3V47h1.3v-0.5h-1.6v-0.4h1.6v-0.6h-1.3v-0.4h1.2v-0.4h0.5v0.4h1.3v0.4h-1.3v0.6H43v0.4h-1.6V47h1.4v0.4h-1.4v0.6H43v0.2
	c0.3,0,0.5,0,0.6,0c0.1,0,0.1-0.1,0.1-0.1v-3.5h-2.3v-2.4H44.3z M43.7,42.6H42v0.6h1.8V42.6z M41.9,44.2h1.8v-0.6h-1.8V44.2z"/>
<path class="st0" d="M49.5,45.2H48c-0.3,0-0.4,0-0.5,0c-0.6,0.3-1.2,0.5-1.9,0.7c-0.1-0.2-0.2-0.3-0.4-0.4c0.7-0.2,1.4-0.4,1.9-0.6
	c0-0.1,0-0.2,0-0.3v-1h0.5v1c0.9-0.4,1.7-0.9,2.2-1.5l0.5,0.2c-0.5,0.5-1.2,1-2,1.5h1.2c0.2,0,0.3,0,0.3-0.1c0-0.1,0.1-0.2,0.1-0.5
	c0.1,0.1,0.2,0.1,0.4,0.2c0,0.4-0.1,0.7-0.3,0.8C49.9,45.1,49.7,45.2,49.5,45.2z M45.8,42.9v0.9h-0.5v-1.3h2.9v-0.6h0.6v0.6h3v1.3
	h-0.6v-0.9h-3.3c0.4,0.1,0.7,0.3,1,0.5l-0.3,0.3c-0.3-0.3-0.7-0.4-1.1-0.6h0l0.3-0.3H45.8z M45.6,45l-0.4-0.3c0.5-0.3,0.8-0.7,1-1.2
	l0.4,0.1c-0.2,0.7-0.5,1.1-0.9,1.3C45.7,45,45.7,45,45.6,45z M51.1,47.4h-0.8c0.5,0.3,1.1,0.7,1.5,1.2c0,0,0.1,0.1,0.1,0.1l-0.4,0.3
	c-0.1-0.1-0.3-0.2-0.4-0.4c-2.6,0.1-4.5,0.1-5.7,0.1l0-0.5c0.9,0,1.8,0,2.8,0v-0.8H46v-1.7h2.2v-0.4h0.5v0.4h2.3V47.4z M46.5,46.9
	h1.6v-0.8h-1.6V46.9z M50.5,46.1h-1.8v0.8h1.8V46.1z M48.7,47.4v0.8c0.5,0,1.1,0,1.7,0c-0.3-0.2-0.5-0.4-0.7-0.5l0.4-0.2L48.7,47.4
	L48.7,47.4z M50.1,43.8l0.4-0.3c0.5,0.3,0.9,0.7,1.2,1.1c0,0.1,0.1,0.1,0.1,0.1l-0.4,0.3c-0.2-0.4-0.6-0.7-1.1-1.1
	C50.3,44,50.2,43.9,50.1,43.8z"/>
<path class="st0" d="M55.3,44.7c-0.5,0.1-1,0.1-1.5,0.1S52.9,45,52.5,45l-0.1-0.4l0.7-0.1v-2.1h-0.6V42h3.7v0.4h-0.5v2.7h-0.5V44.7z
	 M54.5,46.3c0,0.1-0.1,0.2-0.1,0.3c0,0.1-0.1,0.2-0.1,0.3c0.2,0.1,0.4,0.3,0.5,0.5c0.2,0.2,0.3,0.3,0.4,0.5l-0.3,0.3
	c-0.1-0.1-0.2-0.3-0.4-0.4c-0.1-0.1-0.3-0.3-0.5-0.5c-0.1,0.3-0.3,0.4-0.5,0.7c-0.2,0.2-0.4,0.4-0.6,0.5c0-0.1,0-0.1-0.1-0.3
	c0-0.1-0.1-0.2-0.1-0.3c0.3-0.2,0.6-0.4,0.8-0.7c0.3-0.3,0.4-0.6,0.6-1L54.5,46.3z M58.6,45.4c-0.3,0.1-0.7,0.1-1.1,0.2
	c-0.4,0.1-0.8,0.1-1.2,0.1v3.1h-0.6v-3c-0.4,0-0.8,0.1-1.2,0.1c-0.4,0-0.8,0.1-1.1,0.1c0-0.1-0.1-0.1-0.1-0.3
	c-0.1-0.1-0.1-0.2-0.2-0.3c0.4,0,0.8,0,1.3,0c0.5,0,0.9,0,1.4-0.1s0.9-0.1,1.3-0.1c0.4,0,0.8-0.1,1.1-0.2L58.6,45.4z M53.8,42.4v0.4
	h1.5v-0.4H53.8z M53.8,43.6h1.5v-0.4h-1.5V43.6z M53.8,44.5c0.3,0,0.5,0,0.7-0.1c0.3,0,0.5-0.1,0.8-0.1V44h-1.5V44.5z M56.6,42.9
	c0.2,0.1,0.4,0.2,0.6,0.3c0.2,0.1,0.4,0.2,0.6,0.3c0.3-0.3,0.5-0.5,0.7-0.8h-2.1v-0.5h2.4l0.1,0l0.4,0.2c-0.1,0.3-0.3,0.5-0.4,0.8
	c-0.1,0.2-0.4,0.4-0.5,0.7c0.2,0.1,0.4,0.3,0.6,0.4c0.2,0.1,0.4,0.3,0.5,0.4L58.9,45c-0.1-0.1-0.3-0.3-0.5-0.4
	c-0.2-0.1-0.4-0.3-0.6-0.4c-0.3,0.2-0.5,0.3-0.7,0.5c-0.3,0.1-0.5,0.3-0.8,0.4c0-0.1-0.1-0.1-0.1-0.2c-0.1-0.1-0.1-0.1-0.2-0.2
	c0.3-0.1,0.5-0.2,0.7-0.3c0.2-0.1,0.5-0.3,0.7-0.4c-0.2-0.1-0.4-0.2-0.6-0.3c-0.2-0.1-0.4-0.2-0.5-0.3L56.6,42.9z M58.4,46
	c0,0.1-0.1,0.2-0.1,0.3c0,0.1-0.1,0.2-0.1,0.3c0.1,0.1,0.1,0.2,0.3,0.3s0.2,0.2,0.3,0.3c0.1,0.1,0.2,0.2,0.4,0.3
	c0.1,0.1,0.3,0.1,0.4,0.2c-0.1,0-0.1,0.1-0.2,0.2c-0.1,0.1-0.1,0.1-0.2,0.2c-0.2-0.1-0.4-0.3-0.6-0.5c-0.2-0.2-0.4-0.4-0.5-0.7
	c-0.2,0.3-0.4,0.5-0.5,0.7c-0.2,0.2-0.4,0.4-0.7,0.5c0,0,0-0.1,0-0.1c0,0,0-0.1-0.1-0.1c0,0,0-0.1-0.1-0.1c0,0,0-0.1-0.1-0.1
	c0.3-0.2,0.6-0.4,0.9-0.8c0.3-0.3,0.4-0.7,0.6-1.1L58.4,46z"/>
<path class="st0" d="M62.9,41.8h0.5c0.7,0.7,1.5,1.2,2.6,1.6c0.3,0.1,0.5,0.2,0.8,0.3c-0.1,0.1-0.2,0.3-0.3,0.5
	c-0.7-0.2-1.3-0.5-1.9-0.9v0.3h-2.7v-0.4c-0.6,0.4-1.3,0.7-1.9,0.9c-0.1-0.2-0.2-0.3-0.3-0.4c1-0.3,1.9-0.8,2.6-1.4
	C62.6,42.2,62.8,42.1,62.9,41.8z M60.7,46v-1.9h5.2V46H60.7z M61.1,48.8v-2.5h4.3v2.5h-0.6v-0.2h-3.2v0.3L61.1,48.8L61.1,48.8z
	 M61.2,44.5v1.1H63v-1.1H61.2z M61.6,44.7l0.4-0.1c0.2,0.3,0.4,0.6,0.5,0.9l-0.4,0.2C62,45.3,61.9,45,61.6,44.7z M64.9,46.8h-3.2
	v0.5h3.2V46.8z M61.7,48.2h3.2v-0.5h-3.2V48.2z M62.1,43.2h2.4c-0.5-0.3-0.9-0.7-1.2-0.9C63,42.6,62.6,42.9,62.1,43.2z M65.4,45.6
	v-1.1h-1.9v1.1H65.4z M64.4,45.6L64,45.4c0.2-0.4,0.4-0.7,0.4-0.9l0.5,0.1C64.7,45.1,64.5,45.4,64.4,45.6z"/>
<path class="st0" d="M70.9,45.6h-0.6v-1h1v0.8c0,0.5-0.2,0.9-0.7,1.2c-0.1,0-0.1,0.1-0.1,0.1l-0.2-0.3C70.7,46.2,70.9,46,70.9,45.6z
	"/>
<path class="st0" d="M81.6,43h-2.4c-0.2,0.3-0.4,0.5-0.5,0.8v5H78v-4.3c-0.8,0.9-1.8,1.7-2.8,2.2c-0.1-0.1-0.2-0.3-0.4-0.5
	c1.1-0.5,2-1.3,2.8-2.3c0.3-0.4,0.5-0.7,0.7-1.1h-3.4v-0.5h6.5V43z M78.7,44.6l0.4-0.4c1,0.6,1.8,1.2,2.4,1.8
	c0.1,0.1,0.2,0.2,0.3,0.3l-0.4,0.4c-0.5-0.5-1.2-1.1-2.1-1.7C79.1,44.8,78.9,44.7,78.7,44.6z"/>
<path class="st0" d="M83.2,44.2l0.5,0.1c-0.3,1.2-0.5,2.1-0.9,2.6l-0.5-0.2c0.4-0.6,0.7-1.3,0.8-2.3C83.1,44.3,83.2,44.2,83.2,44.2z
	 M85.5,48.2H87c0.2,0,0.3-0.1,0.4-0.2c0.1-0.2,0.1-0.6,0.1-1.2c0.2,0.1,0.4,0.2,0.5,0.3c0,0.8-0.1,1.2-0.3,1.5
	c-0.1,0.2-0.4,0.3-0.8,0.3h-1.5c-0.5,0-0.8-0.1-0.9-0.3c-0.1-0.1-0.2-0.4-0.2-0.7v-0.4c-0.6,0.4-1.2,0.7-1.7,1
	c-0.1-0.2-0.2-0.3-0.4-0.4c0.7-0.3,1.4-0.8,2.1-1.2v-3h0.6v2.5c1.3-1.1,2.3-2.4,3-3.8c0,0,0-0.1,0.1-0.1l0.6,0.2
	c-0.9,1.8-2.2,3.2-3.7,4.4v0.8c0,0.2,0,0.3,0.1,0.4C85.2,48.2,85.3,48.2,85.5,48.2z M86.7,43.3l-0.4,0.5c-0.5-0.5-1.2-1-1.9-1.5
	l0.4-0.4C85.5,42.3,86.1,42.8,86.7,43.3z M87.7,44.6l0.5-0.2c0.5,0.7,0.8,1.4,1.1,2.1c0,0.1,0.1,0.2,0.1,0.3l-0.5,0.3
	c-0.2-0.6-0.5-1.3-1-2.1C87.8,44.9,87.7,44.8,87.7,44.6z"/>
<path class="st0" d="M95.6,45.7h0.6v3.1h-0.6v-0.5h-4.8v0.5h-0.6v-3.2h0.6v2.1h2v-2.6h-2.3v-2.6h0.5v2.1h1.8v-2.7h0.6v2.7h1.8v-2.1
	h0.6v2.6h-2.4v2.6h2.2L95.6,45.7L95.6,45.7z"/>
<path class="st0" d="M100.1,42.2V45H98v3.8h-0.5v-6.6H100.1z M99.6,42.7H98v0.7h1.6V42.7z M98,44.5h1.6v-0.7H98V44.5z M103.7,42.2
	V48c0,0.3-0.1,0.5-0.3,0.6c0,0-0.1,0-0.1,0c-0.2,0.1-0.7,0.1-1.4,0.1c0-0.2-0.1-0.4-0.2-0.6c0.4,0,0.8,0,1.2,0
	c0.1,0,0.2-0.1,0.2-0.2v-3h-2.3v-2.8L103.7,42.2L103.7,42.2z M103.1,42.7h-1.7v0.7h1.7V42.7z M101.4,44.5h1.7v-0.7h-1.7V44.5z"/>
<path class="st0" d="M108.2,45.6h-0.6v-1h1v0.8c0,0.5-0.2,0.9-0.7,1.2c-0.1,0-0.1,0.1-0.1,0.1l-0.2-0.3
	C108,46.2,108.2,46,108.2,45.6z"/>
<path class="st0" d="M114.9,43h3.9v0.5h-4.2c-0.3,0.6-0.6,1.1-0.9,1.6v3.7h-0.5v-3c-0.3,0.3-0.5,0.5-0.9,0.8
	c-0.1-0.1-0.1-0.3-0.3-0.5c0.8-0.6,1.5-1.4,2-2.5h-1.8v-0.5h2.1c0.1-0.4,0.3-0.8,0.4-1.2l0.6,0.1C115.2,42.3,115.1,42.6,114.9,43z
	 M116.9,46v2.1h2v0.5h-4.6v-0.5h2V46h-1.7v-0.5h1.7V44h0.6v1.5h1.7V46H116.9z"/>
<path class="st0" d="M119.8,45.8v-0.9h0.4v0.9c0,1.1-0.1,1.9-0.3,2.4c-0.1-0.1-0.2-0.2-0.4-0.3c0,0,0,0,0,0
	C119.7,47.5,119.8,46.8,119.8,45.8z M122.6,44.4h-1.2v4.4h-0.5v-4.4h-1.2v-0.5h3V44.4z M122.4,42.4v0.5h-2.6v-0.5H122.4z M122,47.7
	v-2.8h0.4v2.8H122z M124.8,48.1h1.8v0.6h-4.1v-0.6h1.8V45h-1.4v-0.5h1.4V42h0.6v2.4h1.5V45h-1.5V48.1z"/>
<path class="st0" d="M133.9,48v0.5h-6v0.4h-0.5v-6.7h6.4v0.5h-5.8v5.2L133.9,48L133.9,48z M128.6,47.4v-2h2v2H128.6z M129,45.8V47h1
	v-1.1H129z M132.2,43.2v1.7h-2.8v-1.7H132.2z M131.7,44.5v-0.9h-1.8v0.9H131.7z M133.1,45.4v2h-2v-2H133.1z M132.6,47v-1.1h-1.1V47
	H132.6z"/>
<path class="st0" d="M0.8,57.5l0.5,0.1c-0.2,0.8-0.4,1.3-0.8,1.8c-0.1-0.1-0.3-0.3-0.4-0.3C0.4,58.7,0.7,58.1,0.8,57.5z M3.9,53.9
	v0.5H0.3v-0.5h1.5v-1h0.6v1H3.9z M3.5,57.1H2.3v2.3c0,0.3-0.1,0.4-0.2,0.5c0,0,0,0-0.1,0C1.9,59.9,1.6,60,1.1,60
	c0-0.2-0.1-0.4-0.2-0.5c0.4,0,0.6,0,0.7,0c0.1,0,0.1,0,0.1-0.1v-2.3H0.6v-2h2.8L3.5,57.1L3.5,57.1z M1.2,55.5v1H3v-1H1.2z M3.8,58.7
	l-0.5,0.2C3.2,58.4,3,58,2.7,57.5l0.5-0.1C3.5,57.8,3.7,58.2,3.8,58.7z M6.1,59.3h0.3c0.1,0,0.2,0,0.2,0c0.1,0,0.1-0.1,0.1-0.2
	c0-0.2,0-0.5,0-0.9c0.1,0.1,0.3,0.2,0.4,0.3c0,0.5,0,0.8-0.1,1c-0.1,0.1-0.1,0.3-0.3,0.4c-0.1,0.1-0.3,0.1-0.4,0.1H6
	c-0.2,0-0.4,0-0.5-0.1c-0.1-0.1-0.1-0.3-0.2-0.5v-2.4C5,58.1,4.5,59.2,3.7,60c-0.1-0.1-0.3-0.3-0.5-0.3c1.1-0.9,1.6-2.3,1.8-4.1H3.8
	V55h1.1c0-0.1,0-0.2,0-0.4V53h0.5v1.6c0,0.2,0,0.3,0,0.4h1.6v0.5H5.4c0,0,0,0.1,0,0.2s0,0.1,0,0.2h0.4v3.3c0,0.1,0,0.1,0.1,0.1
	C5.9,59.3,6,59.3,6.1,59.3z M7,54.4l-0.5,0.2c-0.1-0.4-0.4-0.7-0.8-1.1c0,0-0.1-0.1-0.1-0.1l0.4-0.2C6.5,53.6,6.8,53.9,7,54.4
	C7,54.4,7,54.4,7,54.4z"/>
<path class="st0" d="M10,53.7l0.5-0.2c0.5,0.7,0.8,1.2,1,1.7L11,55.4c0-0.1-0.1-0.3-0.2-0.5h-0.1h-0.1h-0.1h-0.1h-0.1h-0.1H10H9.9
	H9.8H9.7C8.8,55,8.3,55,8,55.1l0-0.5c0.2,0,0.4,0,0.6,0c0.3-0.5,0.5-1,0.7-1.6L9.8,53c-0.3,0.7-0.5,1.2-0.7,1.5l1.6-0.1
	C10.3,54.1,10.1,53.9,10,53.7z M10.9,55.7v3.6c0,0.3-0.1,0.4-0.2,0.5c0,0,0,0-0.1,0c-0.2,0.1-0.5,0.1-1,0.1c0-0.2-0.1-0.4-0.2-0.5
	c0.3,0,0.6,0,0.8,0c0.1,0,0.1-0.1,0.1-0.1v-0.9H8.7V60H8.2v-4.3L10.9,55.7L10.9,55.7z M10.3,56.1H8.7v0.7h1.6V56.1z M8.7,58h1.6
	v-0.7H8.7V58z M13.8,56.3h-1.3c-0.4,0-0.7-0.1-0.8-0.3c-0.1-0.1-0.1-0.3-0.1-0.5V53h0.5v1.3c0.8-0.3,1.4-0.5,1.8-0.7l0.4,0.4
	c-0.5,0.3-1.2,0.5-2.2,0.8v0.8c0,0.1,0,0.2,0.1,0.3c0.1,0,0.1,0,0.3,0h1.2c0.1,0,0.3-0.1,0.3-0.2s0.1-0.4,0.1-0.7
	c0.1,0.1,0.3,0.2,0.5,0.2c0,0.5-0.1,0.9-0.3,1C14.3,56.3,14.1,56.3,13.8,56.3z M12.6,59.4h1.2c0.1,0,0.3-0.1,0.3-0.2
	c0-0.1,0.1-0.4,0.1-0.8c0.1,0.1,0.3,0.2,0.5,0.2c0,0.6-0.1,0.9-0.3,1.1c-0.1,0.1-0.3,0.2-0.6,0.2h-1.4c-0.4,0-0.7-0.1-0.8-0.3
	c-0.1-0.1-0.1-0.3-0.1-0.5v-2.6h0.5v1.2c0.8-0.3,1.5-0.5,1.9-0.8l0.4,0.4c-0.5,0.3-1.2,0.5-2.2,0.8v0.9c0,0.1,0,0.3,0.1,0.3
	C12.4,59.3,12.5,59.4,12.6,59.4z"/>
<path class="st0" d="M20.7,54.8v1.1c0,0.6,0.1,1.3,0.4,1.9c0.3,0.7,0.7,1.3,1.2,1.7c-0.1,0.1-0.2,0.3-0.4,0.5
	c-0.6-0.5-1.1-1.2-1.3-2.2c-0.1-0.3-0.1-0.5-0.1-0.7c-0.1,0.6-0.3,1.2-0.6,1.7c-0.3,0.5-0.6,0.8-1,1.1c-0.1-0.2-0.2-0.3-0.3-0.4
	h-2.3v0.4h-0.5v-2.2c-0.1,0.2-0.3,0.3-0.4,0.5c-0.1-0.2-0.2-0.3-0.3-0.4c0.4-0.5,0.8-1.1,1.1-1.8h-0.7v-1.4H17V56h-0.8l0.4,0.1
	c0,0.1-0.1,0.3-0.2,0.5h0.8c0.1-0.3,0.2-0.5,0.2-0.6l0.5,0.1c0,0-0.1,0.2-0.3,0.5h1.2V57h-1.2v0.4h1v0.4h-1v0.5h1v0.4h-1v0.5h1.2
	v0.1c0.7-0.6,1.1-1.5,1.2-2.6c0-0.3,0.1-0.5,0-0.7v-1.1h-0.4c-0.2,0.6-0.4,1.1-0.6,1.5c-0.1-0.1-0.3-0.3-0.5-0.3l0.1-0.1h-1.5v-1.4
	h1.5v1.3c0.4-0.7,0.6-1.6,0.8-2.9l0.5,0.1c-0.1,0.5-0.1,0.9-0.2,1.3h1.8l0.1,0l0.4,0.1c-0.1,0.8-0.2,1.5-0.4,2l-0.4-0.2
	c0.1-0.3,0.1-0.8,0.2-1.3H20.7z M16.1,54.4v-0.5h-0.9v-0.4h0.9V53h0.5v0.5h1V53h0.5v0.5h0.9v0.4h-0.9v0.5h-0.5v-0.5h-1v0.5H16.1z
	 M15.9,54.9v0.7h0.7v-0.7H15.9z M17.2,57.5V57h-0.9v0.4H17.2z M17.2,58.3v-0.5h-0.9v0.5H17.2z M16.3,58.7v0.5h0.9v-0.5H16.3z
	 M18.4,55.6v-0.7h-0.7v0.7H18.4z"/>
<path class="st0" d="M25.5,55.8c-0.5,0.1-1,0.1-1.5,0.1s-0.9,0.1-1.3,0.1l-0.1-0.4l0.7-0.1v-2.1h-0.6v-0.4h3.7v0.4H26v2.7h-0.5V55.8
	z M24.7,57.4c0,0.1-0.1,0.2-0.1,0.3c0,0.1-0.1,0.2-0.1,0.3c0.2,0.1,0.4,0.3,0.5,0.5s0.3,0.3,0.4,0.5l-0.3,0.3
	c-0.1-0.1-0.2-0.3-0.4-0.4c-0.1-0.1-0.3-0.3-0.5-0.5c-0.1,0.3-0.3,0.4-0.5,0.7c-0.2,0.2-0.4,0.4-0.6,0.5c0-0.1,0-0.1-0.1-0.3
	c0-0.1-0.1-0.2-0.1-0.3c0.3-0.2,0.6-0.4,0.8-0.7c0.3-0.3,0.4-0.6,0.6-1L24.7,57.4z M28.8,56.5c-0.3,0.1-0.7,0.1-1.1,0.2
	c-0.4,0-0.8,0.1-1.2,0.1v3.1h-0.6v-3c-0.4,0-0.8,0.1-1.2,0.1c-0.4,0-0.8,0.1-1.1,0.1c0-0.1-0.1-0.1-0.1-0.3
	c-0.1-0.1-0.1-0.2-0.2-0.3c0.4,0,0.8,0,1.3,0c0.5,0,0.9,0,1.4-0.1s0.9-0.1,1.3-0.1c0.4,0,0.8-0.1,1.1-0.2L28.8,56.5z M24,53.5v0.4
	h1.5v-0.4H24z M24,54.7h1.5v-0.4H24V54.7z M24,55.6c0.3,0,0.5,0,0.7-0.1c0.3,0,0.5-0.1,0.8-0.1v-0.3h-1.5L24,55.6L24,55.6z M26.8,54
	c0.2,0.1,0.4,0.2,0.6,0.3s0.4,0.2,0.6,0.3c0.3-0.3,0.5-0.5,0.7-0.8h-2.1v-0.5h2.4l0.1,0l0.4,0.2c-0.1,0.3-0.3,0.5-0.4,0.8
	c-0.1,0.2-0.4,0.4-0.5,0.7c0.2,0.1,0.4,0.3,0.6,0.4s0.4,0.3,0.5,0.4l-0.4,0.4c-0.1-0.1-0.3-0.3-0.5-0.4c-0.2-0.1-0.4-0.3-0.6-0.4
	c-0.3,0.2-0.5,0.3-0.7,0.5c-0.3,0.1-0.5,0.3-0.8,0.4c0-0.1-0.1-0.1-0.1-0.2c-0.1-0.1-0.1-0.1-0.2-0.2c0.3-0.1,0.5-0.2,0.7-0.3
	c0.2-0.1,0.5-0.3,0.7-0.4c-0.2-0.1-0.4-0.2-0.6-0.3c-0.2-0.1-0.4-0.2-0.5-0.3L26.8,54z M28.6,57.1c0,0.1-0.1,0.2-0.1,0.3
	c0,0.1-0.1,0.2-0.1,0.3c0.1,0.1,0.1,0.2,0.3,0.3s0.2,0.2,0.3,0.3s0.2,0.2,0.4,0.3c0.1,0.1,0.3,0.1,0.4,0.2c-0.1,0-0.1,0.1-0.2,0.2
	c-0.1,0.1-0.1,0.1-0.2,0.2c-0.2-0.1-0.4-0.3-0.6-0.5c-0.2-0.2-0.4-0.4-0.5-0.7c-0.2,0.3-0.4,0.5-0.5,0.7c-0.2,0.2-0.4,0.4-0.7,0.5
	c0,0,0-0.1,0-0.1c0,0,0-0.1-0.1-0.1c0,0,0-0.1-0.1-0.1c0,0,0-0.1-0.1-0.1c0.3-0.2,0.6-0.4,0.9-0.8c0.3-0.3,0.4-0.7,0.6-1.1
	L28.6,57.1z"/>
<path class="st0" d="M37,57.8h-2.6c0.5,0.5,1.2,1,2.2,1.3c0.2,0.1,0.4,0.1,0.6,0.2c-0.1,0.1-0.3,0.3-0.4,0.5
	c-0.9-0.3-1.7-0.8-2.4-1.3c-0.2-0.1-0.3-0.3-0.5-0.4v1.9h-0.6v-2c-0.5,0.7-1.3,1.2-2.2,1.6c-0.2,0.1-0.4,0.2-0.7,0.3
	c-0.1-0.2-0.3-0.4-0.4-0.5c0.8-0.3,1.6-0.7,2.3-1.2c0.1-0.1,0.3-0.3,0.4-0.4h-2.5v-0.5h3.1v-0.6h-0.8l0,0.1l-0.4,0.1
	c0-0.1-0.1-0.2-0.1-0.4c-1,0.1-1.6,0.3-1.8,0.3l-0.1-0.5l0.4,0c0.1-0.2,0.3-0.5,0.6-0.9c-0.3-0.3-0.5-0.6-0.9-0.9l0.3-0.4
	c0,0,0.1,0.1,0.2,0.1c0.2-0.4,0.4-0.8,0.5-1.2l0.5,0.2c-0.3,0.6-0.5,1-0.7,1.3c0.2,0.1,0.3,0.3,0.4,0.4c0.2-0.3,0.3-0.6,0.4-0.8
	l0.4,0.2c-0.4,0.8-0.8,1.4-1.2,1.9l0.8-0.1c-0.1-0.2-0.1-0.4-0.3-0.5l0.4-0.1c0.2,0.4,0.4,0.7,0.5,1.1v-2.8h0.7
	c0.1-0.3,0.1-0.5,0.2-0.8L34,53c0,0.1-0.1,0.2-0.1,0.4c0,0.1-0.1,0.2-0.1,0.3h1v0.6L35,54c0,0,0,0,0.1,0.1c0.1,0,0.1,0.1,0.1,0.1
	c0.2-0.4,0.4-0.8,0.5-1.2l0.5,0.2c-0.3,0.6-0.5,1.1-0.7,1.4c0.1,0.1,0.3,0.3,0.4,0.4c0.2-0.3,0.3-0.6,0.4-0.9l0.5,0.2
	c-0.4,0.7-0.8,1.4-1.2,2l0.8-0.1c-0.1-0.2-0.2-0.4-0.3-0.6l0.4-0.1c0.3,0.4,0.5,0.9,0.6,1.3c0,0,0,0.1,0,0.1L36.7,57
	c0-0.1-0.1-0.2-0.1-0.5c-0.3,0-0.6,0.1-1.1,0.1c-0.3,0-0.5,0.1-0.7,0.1l-0.1-0.4v0.3h-0.8v0.6H37L37,57.8L37,57.8z M33,54.2V55h1.2
	v-0.8H33z M33,55.4v0.8h1.2v-0.8H33z M34.7,56.3l0.3,0c0.2-0.3,0.4-0.5,0.6-0.9c-0.2-0.3-0.5-0.6-0.9-0.9V56.3z"/>
<path class="st0" d="M44.4,58v0.5h-3.1v0.9c0,0.3-0.1,0.4-0.3,0.5c0,0-0.1,0-0.1,0c-0.2,0-0.7,0.1-1.4,0.1c0-0.1-0.1-0.3-0.2-0.5
	c0.2,0,0.6,0,1.2,0c0.1,0,0.2-0.1,0.2-0.1v-0.9h-3.1V58h3.1v-0.5H41c0.5-0.1,0.9-0.3,1.3-0.5h-4v-0.5h4.9l0.1,0l0.4,0.3
	c-0.7,0.4-1.4,0.7-2.4,1v0.1L44.4,58L44.4,58z M44.3,53.6v0.5h-6.6v-0.5h3V53h0.6v0.7H44.3z M43.4,56.1h-4.7v-1.5h4.7V56.1z
	 M39.2,55v0.7h3.6V55H39.2z"/>
<path class="st0" d="M47.5,56.5c0-0.3,0.1-0.6,0.4-0.8c0.2-0.1,0.4-0.2,0.6-0.2c0.3,0,0.6,0.1,0.8,0.4c0.1,0.2,0.2,0.4,0.2,0.7
	c0,0.3-0.1,0.6-0.4,0.8c-0.2,0.1-0.4,0.2-0.7,0.2c-0.3,0-0.6-0.1-0.8-0.4C47.6,56.9,47.5,56.7,47.5,56.5z M47.8,56.5
	c0,0.3,0.1,0.4,0.3,0.6c0.1,0.1,0.3,0.1,0.4,0.1c0.3,0,0.4-0.1,0.6-0.3c0.1-0.1,0.1-0.3,0.1-0.4c0-0.3-0.1-0.4-0.3-0.6
	c-0.1-0.1-0.3-0.1-0.4-0.1c-0.3,0-0.4,0.1-0.6,0.3C47.9,56.2,47.8,56.3,47.8,56.5z"/>
</svg>
