<?xml version="1.0" encoding="utf-8"?>
<!-- Generator: Adobe Illustrator 25.2.3, SVG Export Plug-In . SVG Version: 6.00 Build 0)  -->
<svg version="1.1" id="圖層_1" xmlns="http://www.w3.org/2000/svg" xmlns:xlink="http://www.w3.org/1999/xlink" x="0px" y="0px"
	 viewBox="0 0 136 186.5" style="enable-background:new 0 0 136 186.5;" xml:space="preserve">
<style type="text/css">
	.st0{fill:none;stroke:#B18053;stroke-width:2.1898;stroke-miterlimit:10;}
</style>
<path class="st0" d="M0,74.1h135.3"/>
<g>
	<path d="M5,5.1c0,1.5-0.2,3.2-1.1,4.9c0.6,0.6,1.2,1.1,1.6,1.6l-0.6,0.8c-0.4-0.4-0.9-1-1.5-1.5c-0.6,0.9-1.4,1.7-2.4,2.5
		c-0.1-0.2-0.5-0.5-0.7-0.7c1.1-0.8,1.8-1.6,2.4-2.5C2,9.6,1.3,9,0.6,8.5c0.3-0.8,0.5-2,0.8-3.2l-1,0.1L0.3,4.5c0.4,0,0.8,0,1.3-0.1
		c0.2-1,0.3-2,0.4-2.9L3,1.6C2.9,2.4,2.7,3.4,2.5,4.4l1.6-0.1V3.3H5v0.9l0.8,0l0,0.9L5,5.1z M2.4,5.3C2.2,6.3,1.9,7.4,1.7,8.2
		c0.5,0.4,1,0.8,1.5,1.2c0.7-1.5,0.9-3,0.9-4.3L2.4,5.3z M12.2,7.9H9.3v4.3c0,0.6-0.1,0.8-0.5,1c-0.4,0.1-1,0.2-2,0.2
		c-0.1-0.3-0.2-0.6-0.4-0.9c0.8,0,1.5,0,1.7,0c0.2,0,0.3-0.1,0.3-0.2V7.9h-3V7h3V5.5C9,4.9,9.7,4.1,10.3,3.3H5.9V2.4h5l0.2-0.1
		l0.7,0.5c-0.6,1-1.6,2.1-2.5,2.8V7h2.9V7.9z"/>
	<path d="M14.9,5.5h-1V2.8h5c-0.2-0.4-0.4-0.8-0.6-1.1l0.9-0.3c0.3,0.4,0.6,1,0.8,1.4h4.7v2.7h-1V3.7h-8.9V5.5z M23,12.2
		c0.7,0,0.8-0.3,0.9-1.8c0.2,0.2,0.7,0.3,0.9,0.4c-0.2,1.9-0.5,2.4-1.8,2.4h-2.9c-1.5,0-1.9-0.4-1.9-1.6V9.2h-4.1V8.2h4.1V6.3
		c-1.1,0.2-2.2,0.3-3.2,0.5C15,6.5,14.8,6.2,14.7,6c2.6-0.3,5.7-0.8,7.3-1.5l0.8,0.8c-1,0.4-2.2,0.7-3.6,0.9v2.1h4.9v0.9h-4.9v2.4
		c0,0.5,0.2,0.6,1,0.6H23z"/>
	<path d="M33.1,6.2c0.9,2.9,2.6,5.2,5.1,6.2c-0.2,0.2-0.6,0.6-0.7,0.9c-2.5-1.2-4.1-3.5-5.2-6.4c-0.6,2.5-2,5-5.2,6.4
		c-0.1-0.3-0.5-0.6-0.7-0.8c3.2-1.4,4.5-3.9,5.1-6.4h-4.8v-1h5c0.2-1.4,0.2-2.7,0.2-3.7h1c0,1,0,2.3-0.2,3.7H38v1H33.1z"/>
	<path d="M43.8,4.5h-4.4V3.7h4.4V4.5z M39.9,7.1h3.5v0.8h-3.5V7.1z M43.5,12.6h-2.7v0.6h-0.8V8.8h3.5V12.6z M43.5,6.2H40V5.4h3.5
		V6.2z M40.7,9.6v2.2h1.9V9.6H40.7z M41.7,3.6c-0.2-0.5-0.6-1.2-0.9-1.7l0.7-0.3c0.4,0.5,0.8,1.2,1,1.7L41.7,3.6z M50.9,12.1
		c0,0.5-0.1,0.8-0.4,0.9s-0.9,0.2-1.8,0.2c0-0.2-0.2-0.6-0.3-0.8c0.7,0,1.2,0,1.4,0c0.2,0,0.2-0.1,0.2-0.3V7.2h-4.7
		c0,1.9-0.2,4.5-1.2,6.1c-0.1-0.1-0.5-0.4-0.7-0.5c1-1.7,1.1-4.1,1.1-6V2.1h6.4V12.1z M45.4,2.9v1.4h2V2.9H45.4z M45.4,6.4h2V5.1h-2
		V6.4z M46.7,11.1v0.6h-0.7V8.1h3.5v3H46.7z M46.7,8.8v1.6h2V8.8H46.7z M50.1,2.9h-2v1.4h2V2.9z M50.1,6.4V5.1h-2v1.3H50.1z"/>
	<path d="M64.1,4H60c1.5,0.9,3.2,2,4.2,2.8l-0.6,0.7c-1-0.9-3-2.2-4.6-3.2v2.4h-0.9V4c-1.2,1.5-3.1,2.9-4.8,3.6
		c-0.2-0.2-0.4-0.6-0.6-0.8C54,6.3,55.7,5.2,56.9,4h-4.2V3.1h5.2V1.5h0.9v1.6h5.3V4z M52.9,12.1H64v0.9H52.9V12.1z M62,7.1v4.2h-7.2
		V7.1H62z M61,7.8h-5.2v1.1H61V7.8z M61,9.5h-5.2v1.1H61V9.5z"/>
	<path d="M66.8,9.2c1-0.4,1.6-1,1.6-1.9c-0.1,0-0.1,0-0.2,0c-0.5,0-1-0.3-1-0.9c0-0.6,0.5-0.9,1-0.9C69,5.5,69.4,6,69.4,7
		c0,1.4-0.9,2.5-2.2,3L66.8,9.2z"/>
	<path d="M75.6,7.7c-0.3,1.2-0.8,2.5-1.3,3.4c0.2,0.2,0.5,0.4,0.9,0.6c0.9,0.6,2.1,0.7,3.6,0.7c1.7,0,3.7-0.1,5.2-0.3
		c-0.1,0.3-0.3,0.7-0.3,1c-1,0.1-3.4,0.1-4.9,0.1c-1.7,0-2.8-0.1-3.8-0.7c-0.5-0.3-1-0.8-1.3-0.8c-0.3,0-0.7,0.8-1.1,1.6l-0.7-0.9
		c0.5-0.8,1.1-1.4,1.5-1.5c0.4-0.7,0.8-1.7,1-2.6h-1.8c0.4-0.8,0.8-1.9,1.1-2.9h-1.7V4.6H75c-0.3,0.9-0.8,2-1.1,2.9H75l0.2,0
		L75.6,7.7z M73.6,4c-0.1-0.5-0.4-1.4-0.7-2.1l0.9-0.2c0.2,0.6,0.5,1.5,0.7,2L73.6,4z M77.9,6.2c-0.1,1.6-0.4,3.5-1.4,4.9
		c-0.2-0.2-0.6-0.5-0.8-0.6c1.1-1.6,1.3-3.8,1.3-5.5V2.3c2-0.1,4.4-0.4,5.7-0.8l0.8,0.7C82,2.6,79.8,2.9,77.9,3v2v0.3h5.9v0.9h-2.3
		v5.4h-1V6.2H77.9z"/>
	<path d="M95.5,12.1c0.4,0,0.5-0.4,0.5-2.2c0.2,0.2,0.6,0.4,0.9,0.4c-0.1,2-0.3,2.7-1.3,2.7h-1.5c-1.1,0-1.3-0.3-1.3-1.5V5.3h-2.9
		c-0.3,3.2-1.1,6.2-4,8c-0.2-0.2-0.5-0.6-0.8-0.8c2.8-1.6,3.6-4.3,3.8-7.3h-3.4V4.4H89c0-1,0-1.9,0-2.9h1c0,0.9,0,1.9-0.1,2.9h3.8
		v7.2c0,0.5,0.1,0.6,0.5,0.6H95.5z"/>
	<path d="M109.1,5.9c-0.6,1.7-1.3,3.2-2.3,4.4c0.5,1.3,1.1,2,1.7,2c0.4,0,0.5-0.7,0.6-2.4c0.2,0.2,0.6,0.4,0.8,0.5
		c-0.2,2.2-0.5,2.8-1.5,2.8c-1,0-1.8-0.8-2.4-2.1c-0.8,0.8-1.7,1.6-2.7,2.2c-0.1-0.2-0.5-0.6-0.7-0.8c1.2-0.6,2.2-1.4,3-2.4
		c-0.5-1.5-0.8-3.4-0.9-5.5h-4.5v1.7h3.3v0.4c-0.1,2.9-0.1,4-0.4,4.3c-0.2,0.2-0.4,0.3-0.8,0.4c-0.3,0-0.9,0-1.5,0
		c0-0.3-0.1-0.7-0.3-0.9c0.6,0.1,1.2,0.1,1.4,0.1c0.2,0,0.3,0,0.4-0.1c0.2-0.2,0.2-1,0.3-3.2h-2.4v0.1c0,1.8-0.2,4.4-1.4,6.1
		c-0.2-0.2-0.6-0.5-0.8-0.7c1.1-1.6,1.2-3.8,1.2-5.5V3.7h5.4c-0.1-0.7-0.1-1.4-0.1-2.2h1c0,0.8,0,1.5,0.1,2.2h4.2v0.9h-4.1
		c0.1,1.7,0.4,3.3,0.7,4.5c0.7-1,1.3-2.2,1.7-3.5L109.1,5.9z M106.8,1.5c0.8,0.4,1.8,1,2.3,1.5l-0.6,0.7c-0.5-0.5-1.5-1.1-2.3-1.6
		L106.8,1.5z"/>
	<path d="M118.5,8.8c0.7,2.1,1.9,3.5,3,3.5c0.4,0,0.5-0.5,0.6-1.9c0.2,0.2,0.6,0.4,0.8,0.5c-0.2,1.9-0.5,2.4-1.5,2.4
		c-1.7,0-3.2-1.8-4-4.4h-3.9V12l3.1-0.8c0,0.3,0.1,0.7,0.1,0.9c-3.5,0.9-4,1.1-4.3,1.3c-0.1-0.3-0.3-0.7-0.5-0.9
		c0.2-0.1,0.6-0.4,0.6-0.9V2.1h9.2v3.8H118c0,0.7,0.1,1.3,0.3,2h4.5v0.9H118.5z M113.6,3.1V5h7.2V3.1H113.6z M117.3,7.9
		c-0.1-0.6-0.2-1.3-0.3-2h-3.4v2H117.3z"/>
	<path d="M127.8,7.9c-0.1,0.5-0.3,1-0.5,1.6c0.7,0.5,1.5,1.2,1.9,1.7l-0.5,0.7c-0.4-0.4-1.1-1.1-1.7-1.7c-0.5,1-1.2,1.9-2.4,2.5
		c-0.1-0.2-0.4-0.6-0.6-0.7c1.9-0.9,2.5-2.8,2.8-4.1H127.8z M135.5,6.7c-1.3,0.2-3.1,0.4-4.9,0.5v6.3h-0.9V7.3
		c-1.5,0.1-3,0.1-4.3,0.2c-0.1-0.2-0.4-0.7-0.6-0.9c3.3,0.1,7.6-0.2,10-0.6L135.5,6.7z M135.2,5.4H125V2h10.2V5.4z M128.1,2.8H126
		v1.7h2.1V2.8z M131.2,2.8H129v1.7h2.2V2.8z M134.1,7.7c-0.1,0.5-0.2,1.1-0.4,1.7c0.5,0.8,1.4,1.9,2.3,2.5c-0.2,0.2-0.5,0.5-0.6,0.7
		c-0.8-0.6-1.5-1.5-2.1-2.3c-0.4,0.9-1.1,1.8-2.1,2.4c-0.1-0.2-0.4-0.6-0.6-0.7c1.8-1,2.3-2.9,2.6-4.3H134.1z M134.3,2.8h-2.2v1.7
		h2.2V2.8z"/>
	<path d="M5.9,27.8v6.1H5v-1.3c-1.6,0.2-3.2,0.4-4.4,0.5l-0.1-0.9c0.4,0,0.8-0.1,1.2-0.1v-4.4H0.6v-0.8h11.4v0.8H5.9z M3,26.3H2.1
		v-3.9h8.4v3.9H9.5v-3.2H3V26.3z M5,27.8H2.6v0.9H5V27.8z M5,29.4H2.6v0.9H5V29.4z M2.6,32C3.3,32,4.1,31.9,5,31.8V31H2.6V32z
		 M8.9,24.5H3.6v-0.6h5.3V24.5z M3.6,25.9v-0.6h5.2v0.6H3.6z M11.6,28.8c-0.4,1.2-1.1,2.2-1.9,3c0.7,0.5,1.6,0.9,2.5,1.2
		c-0.2,0.2-0.4,0.5-0.6,0.8c-1-0.3-1.9-0.8-2.6-1.4c-0.8,0.6-1.7,1.1-2.6,1.4c-0.1-0.2-0.3-0.6-0.5-0.8c0.9-0.2,1.7-0.7,2.5-1.2
		c-0.6-0.7-1.2-1.5-1.5-2.4l0.2-0.1H6.4v-0.8h4.5l0.2,0L11.6,28.8z M7.7,29.3C8,30.1,8.5,30.7,9,31.2c0.6-0.5,1-1.2,1.4-1.9H7.7z"/>
	<path d="M23.2,30c-0.6,0.9-1.6,1.6-2.7,2.2c1.4,0.4,2.9,0.6,4.5,0.7c-0.2,0.2-0.4,0.6-0.5,0.9c-1.9-0.2-3.7-0.5-5.2-1.1
		c-1.6,0.6-3.4,0.9-5.3,1.1c-0.1-0.2-0.3-0.6-0.5-0.8c1.6-0.1,3.2-0.4,4.6-0.8c-0.8-0.3-1.4-0.8-2-1.2c-0.6,0.4-1.2,0.7-1.8,0.9
		c-0.1-0.2-0.5-0.5-0.7-0.6c0.6-0.2,1.2-0.5,1.8-0.9c-0.4-0.3-0.6-0.7-0.9-1.1l0.8-0.3c0.2,0.3,0.5,0.6,0.8,0.9
		c0.6-0.4,1.1-0.8,1.5-1.3c-0.5-0.1-0.7-0.4-0.7-1v-1.2h0.9v1.2c0,0.3,0.1,0.3,0.6,0.3h1.9c0.4,0,0.5-0.1,0.5-0.9
		c0.2,0.1,0.5,0.2,0.8,0.3c-0.1,1-0.4,1.3-1.2,1.3h-2.1l0.2,0.1c-0.2,0.3-0.5,0.5-0.7,0.8h4.5l0.2,0L23.2,30z M14.8,27.2h-0.9V25
		h2.4c-0.1-0.4-0.5-0.9-0.8-1.3l0.7-0.3c-0.6,0-1.1,0.1-1.7,0.1c0-0.2-0.1-0.5-0.2-0.7c3.2-0.1,7.1-0.4,9.2-0.8l0.6,0.7
		c-1.3,0.3-3.1,0.5-5,0.6c0.3,0.4,0.6,1,0.7,1.4L19,25c-0.1-0.4-0.4-1-0.7-1.5l0.7-0.3c-0.9,0.1-1.8,0.1-2.8,0.2
		c0.4,0.4,0.7,1,0.8,1.3L16.6,25h4.8c0.4-0.5,0.9-1.3,1.2-1.9l0.9,0.3c-0.4,0.5-0.8,1.1-1.1,1.6h2.4v2.3h-0.9v-1.6h-4.9
		c0.6,0.3,1.3,0.7,1.7,1L20,27.3c-0.4-0.4-1.2-0.8-1.9-1.1l0.4-0.4h-3.7V27.2z M14.3,28.4c0.7-0.4,1.2-1.2,1.4-1.9l0.8,0.3
		c-0.3,0.8-0.7,1.7-1.5,2.1L14.3,28.4z M16.9,30.6c0.7,0.5,1.6,0.9,2.5,1.3c0.9-0.4,1.7-0.9,2.3-1.4h-4.6L16.9,30.6z M22.4,26.4
		c0.8,0.6,1.6,1.4,2,2l-0.7,0.5c-0.4-0.6-1.2-1.5-2-2.1L22.4,26.4z"/>
	<path d="M28.9,28.8v3.9c0,0.5-0.1,0.8-0.4,0.9c-0.3,0.1-0.8,0.2-1.6,0.2c0-0.2-0.2-0.6-0.3-0.9c0.6,0,1.1,0,1.2,0
		c0.2,0,0.2,0,0.2-0.2v-3.6l-1.5,0.5l-0.2-0.9c0.5-0.1,1.1-0.3,1.8-0.5v-2.7h-1.6v-0.9H28V22h0.9v2.6h1.4v0.9h-1.4v2.4
		c0.4-0.1,0.9-0.3,1.3-0.4l0.1,0.9L28.9,28.8z M34.6,29.2v1.1h2.9v0.8h-2.9v1.7c0.4,0.1,0.8,0.1,1.2,0.1h2.5
		c-0.1,0.2-0.3,0.6-0.3,0.8h-2.3c-2,0-3.4-0.4-4.3-1.9c-0.3,0.8-0.8,1.5-1.4,2.1c-0.1-0.2-0.5-0.4-0.7-0.5c1-0.9,1.5-2.3,1.8-4
		l0.9,0.1c-0.1,0.4-0.1,0.9-0.2,1.3c0.4,1,1,1.6,1.9,1.8v-3.4h-2.6v-0.8h2.6v-1.1h-3.4v-0.8h3.4v-1h-2.6v-0.8h2.6v-0.9h-3.2v-0.8
		h3.2V22h0.9v1.2h3.4v0.8h-3.4v0.9h2.8v1.7h0.9v0.8h-0.9v1.8H34.6z M34.6,26.5h1.9v-1h-1.9V26.5z M34.6,28.4h1.9v-1.1h-1.9V28.4z"/>
	<path d="M42.6,28.3c-0.2,1.1-0.5,2.4-1,3.3c0.2,0.2,0.5,0.4,1,0.6c0.9,0.6,2.1,0.7,3.6,0.7c1.7,0,3.8-0.1,5.2-0.3
		c-0.1,0.3-0.3,0.7-0.3,1c-1,0.1-3.4,0.1-5,0.1c-1.7,0-2.8-0.1-3.8-0.7c-0.5-0.3-1-0.8-1.3-0.8c-0.3,0-0.7,0.8-1.1,1.6L39.3,33
		c0.5-0.7,1-1.3,1.4-1.5c0.4-0.7,0.6-1.7,0.8-2.6h-1.7c0.4-0.8,0.8-1.9,1.2-2.9h-1.5v-0.9h2.7c-0.3,0.9-0.8,2-1.1,2.9h0.7l0.1,0
		L42.6,28.3z M40.9,24.4c-0.2-0.6-0.4-1.4-0.7-2.1l0.9-0.2c0.2,0.7,0.5,1.5,0.7,2.1L40.9,24.4z M43.8,24.8h-0.9v-2.3h8.1v2.3H50
		v-1.6h-6.2V24.8z M46.4,32.2v-1.1h-3.5v-0.7h3.5v-0.8h-2.8v-3.7h2.8v-0.8h-2.5v-0.7h2.5v-0.7h0.9v0.7h2.4v0.7h-2.4v0.8h2.9v3.7
		h-2.9v0.8H51v0.7h-3.6v1.1H46.4z M44.5,27.4h2v-0.9h-2V27.4z M46.4,28.9v-0.9h-2v0.9H46.4z M47.4,26.6v0.9h2v-0.9H47.4z M49.4,28.1
		h-2v0.9h2V28.1z"/>
	<path d="M54,26h-1v-2.7h5c-0.2-0.4-0.4-0.8-0.6-1.1l0.9-0.3c0.3,0.4,0.6,1,0.8,1.4h4.7V26h-1v-1.8H54V26z M62.1,32.7
		c0.7,0,0.8-0.3,0.9-1.8c0.2,0.2,0.7,0.3,0.9,0.4c-0.2,1.9-0.5,2.4-1.8,2.4h-2.9c-1.5,0-1.9-0.4-1.9-1.6v-2.4h-4.1v-0.9h4.1v-1.9
		c-1.1,0.2-2.2,0.3-3.2,0.5c-0.1-0.2-0.2-0.6-0.3-0.8c2.6-0.3,5.7-0.8,7.3-1.5l0.8,0.8c-1,0.4-2.2,0.7-3.6,0.9v2.1h4.9v0.9h-4.9v2.4
		c0,0.5,0.2,0.6,1,0.6H62.1z"/>
	<path d="M67.2,31.9c0-0.6,0.5-1,1-1c0.6,0,1,0.4,1,1c0,0.6-0.5,1-1,1C67.6,32.9,67.2,32.5,67.2,31.9z M67.5,24.7l0-1.5H69l0,1.5
		l-0.3,5h-0.9L67.5,24.7z"/>
	<path d="M77.8,25.9c-0.3,3.3-1.3,6.3-5.1,7.9c-0.1-0.3-0.5-0.6-0.7-0.8c3.5-1.4,4.5-4.1,4.8-7.1h-4.6V25h4.7c0.1-1,0.1-2,0.1-3h1
		c0,1,0,2-0.1,3h5.9v0.9H77.8z M82.1,32.7c0.7,0,0.8-0.4,0.9-2.5c0.2,0.2,0.7,0.3,0.9,0.4c-0.1,2.4-0.4,3-1.7,3h-2.3
		c-1.3,0-1.7-0.3-1.7-1.5v-5.4h1v5.4c0,0.5,0.1,0.6,0.8,0.6H82.1z M82.2,24.7c-0.6-0.5-1.9-1.4-2.9-1.9l0.6-0.6
		c1,0.5,2.3,1.3,2.9,1.8L82.2,24.7z"/>
	<path d="M90.6,30.1c-1.8,0.8-3.8,1.7-5.2,2.3l-0.4-1c0.5-0.2,1.1-0.4,1.8-0.7l-0.2-8l1,0l0.2,7.7c0.8-0.4,1.7-0.7,2.6-1.1
		L90.6,30.1z M96.3,33.8c-0.6-0.9-1.8-2.3-2.9-3.4c-1,1.5-2.4,2.7-4.5,3.5c-0.1-0.2-0.5-0.6-0.8-0.8c4.5-1.6,5.8-4.8,6.4-10.4
		l1.1,0.1c-0.3,2.8-0.8,5-1.7,6.7c1.2,1.2,2.5,2.6,3.2,3.6L96.3,33.8z M91.3,27.2c-0.4-0.9-1.2-2.2-2-3.2l0.9-0.4
		c0.9,0.9,1.7,2.2,2.1,3.1L91.3,27.2z"/>
	<path d="M99.3,25.1c-0.2,0.3-0.4,0.6-0.7,0.8c-0.1-0.2-0.4-0.5-0.5-0.7c0.8-0.8,1.5-2,1.9-3.2l0.8,0.2c-0.2,0.4-0.3,0.9-0.5,1.3
		h1.5c-0.1-0.4-0.4-0.8-0.6-1.2L102,22c0.3,0.4,0.6,1,0.7,1.4h1.2v0.7h-1.5v0.8h1.3v0.3c0.8-0.8,1.5-2,1.9-3.2l0.8,0.2
		c-0.2,0.4-0.4,0.9-0.5,1.3h1.5c-0.1-0.4-0.4-0.8-0.5-1.1l0.8-0.2c0.2,0.4,0.5,1,0.7,1.4h1.5v0.7h-1.8v0.8h1.5v0.6h-1.5v0.8h1.5v0.7
		h-1.5v0.8h2v0.7h-5v-3.3c-0.2,0.3-0.5,0.6-0.7,0.9c-0.1-0.1-0.3-0.4-0.5-0.5v0.1h-1.3v0.8h1.3v0.6h-1.3v0.8h1.7v0.7h-4.8V25.1z
		 M108.5,29.5c-0.7,1.1-1.7,1.9-3,2.5c1.3,0.4,2.8,0.7,4.3,0.8c-0.2,0.2-0.5,0.6-0.6,0.9c-1.8-0.2-3.5-0.6-5-1.2
		c-1.7,0.7-3.7,1.1-5.6,1.3c-0.1-0.3-0.2-0.7-0.4-0.9c1.7-0.1,3.4-0.4,4.9-0.9c-1.1-0.5-2-1.2-2.7-2l0.2-0.1h-1.7v-0.8h8.7l0.2-0.1
		L108.5,29.5z M101.6,24.1h-1.5v0.8h1.5V24.1z M101.6,25.5h-1.5v0.8h1.5V25.5z M101.6,26.9h-1.5v0.8h1.5V26.9z M101.6,29.9
		c0.7,0.7,1.6,1.2,2.7,1.7c1-0.4,1.9-1,2.5-1.7H101.6z M107,24.1h-1.4v0.8h1.4V24.1z M107,25.5h-1.4v0.8h1.4V25.5z M107,26.9h-1.4
		v0.8h1.4V26.9z"/>
	<path d="M113.7,28.8v3.9c0,0.5-0.1,0.8-0.4,0.9c-0.3,0.1-0.8,0.2-1.6,0.2c0-0.2-0.2-0.6-0.3-0.9c0.6,0,1.1,0,1.2,0
		c0.2,0,0.2,0,0.2-0.2v-3.6l-1.5,0.5l-0.2-0.9c0.5-0.1,1.1-0.3,1.8-0.5v-2.7h-1.6v-0.9h1.6V22h0.9v2.6h1.4v0.9h-1.4v2.4
		c0.4-0.1,0.9-0.3,1.3-0.4l0.1,0.9L113.7,28.8z M119.4,29.2v1.1h2.9v0.8h-2.9v1.7c0.4,0.1,0.8,0.1,1.2,0.1h2.5
		c-0.1,0.2-0.3,0.6-0.3,0.8h-2.3c-2,0-3.4-0.4-4.3-1.9c-0.3,0.8-0.8,1.5-1.4,2.1c-0.1-0.2-0.5-0.4-0.7-0.5c1-0.9,1.5-2.3,1.8-4
		l0.9,0.1c-0.1,0.4-0.1,0.9-0.2,1.3c0.4,1,1,1.6,1.9,1.8v-3.4h-2.6v-0.8h2.6v-1.1h-3.4v-0.8h3.4v-1h-2.6v-0.8h2.6v-0.9h-3.2v-0.8
		h3.2V22h0.9v1.2h3.4v0.8h-3.4v0.9h2.8v1.7h0.9v0.8h-0.9v1.8H119.4z M119.4,26.5h1.9v-1h-1.9V26.5z M119.4,28.4h1.9v-1.1h-1.9V28.4z
		"/>
	<path d="M127.4,28.3c-0.2,1.1-0.5,2.4-1,3.3c0.2,0.2,0.5,0.4,1,0.6c0.9,0.6,2.1,0.7,3.6,0.7c1.7,0,3.8-0.1,5.2-0.3
		c-0.1,0.3-0.3,0.7-0.3,1c-1,0.1-3.4,0.1-5,0.1c-1.7,0-2.8-0.1-3.8-0.7c-0.5-0.3-1-0.8-1.3-0.8c-0.3,0-0.7,0.8-1.1,1.6l-0.7-0.9
		c0.5-0.7,1-1.3,1.4-1.5c0.4-0.7,0.6-1.7,0.8-2.6h-1.7c0.4-0.8,0.8-1.9,1.2-2.9h-1.5v-0.9h2.7c-0.3,0.9-0.8,2-1.1,2.9h0.7l0.1,0
		L127.4,28.3z M125.6,24.4c-0.2-0.6-0.4-1.4-0.7-2.1l0.9-0.2c0.2,0.7,0.5,1.5,0.7,2.1L125.6,24.4z M128.5,24.8h-0.9v-2.3h8.1v2.3
		h-0.9v-1.6h-6.2V24.8z M131.2,32.2v-1.1h-3.5v-0.7h3.5v-0.8h-2.8v-3.7h2.8v-0.8h-2.5v-0.7h2.5v-0.7h0.9v0.7h2.4v0.7h-2.4v0.8h2.9
		v3.7h-2.9v0.8h3.6v0.7h-3.6v1.1H131.2z M129.2,27.4h2v-0.9h-2V27.4z M131.2,28.9v-0.9h-2v0.9H131.2z M132.1,26.6v0.9h2v-0.9H132.1z
		 M134.1,28.1h-2v0.9h2V28.1z"/>
	<path d="M2.9,50.1c0.5-0.2,0.9-0.4,1.4-0.6l0.2,0.9c-1.4,0.6-2.8,1.3-4,1.8l-0.4-1c0.5-0.2,1.1-0.4,1.8-0.7v-4H0.5v-0.9H2v-3h0.9v3
		h1.4v0.9H2.9V50.1z M10.4,53.2c0.8,0,0.9-0.4,1-1.8c0.2,0.2,0.6,0.3,0.9,0.4c-0.2,1.8-0.5,2.4-1.8,2.4H7.3c-1.5,0-1.9-0.4-1.9-1.8
		v-4.1l-1,0.4l-0.4-0.8l1.4-0.6v-3.5h0.9v3.1L8,46.1v-3.6h0.9v3.2l2-0.8l0.7,0.2l-0.1,0.2c-0.1,1.8-0.4,4.2-0.7,5.7l-0.8-0.2
		c0.2-1.2,0.4-3.1,0.5-4.7l-1.7,0.7v4.8H8v-4.4l-1.7,0.7v4.5c0,0.7,0.2,0.9,1,0.9H10.4z"/>
	<path d="M18.4,51.4c-1.1,0.2-2.2,0.4-3.2,0.5v2.2h-0.9v-2.1l-0.9,0.2l-0.1-0.9c0.3,0,0.7-0.1,1.1-0.1v-7.5l0,0v0
		c1.2-0.3,2.6-0.8,3.4-1.2l0.8,0.7c-0.9,0.4-2.1,0.8-3.3,1.1v1.4h2.9v0.9h-2.9v1.8h2.9v0.9h-2.9V51c1-0.1,2.1-0.3,3.1-0.5L18.4,51.4
		z M24.3,48.5c-0.4,1.5-1,2.7-1.9,3.6c0.8,0.6,1.8,1.1,2.9,1.3c-0.2,0.2-0.5,0.6-0.6,0.8c-1.1-0.3-2.1-0.9-2.9-1.6
		c-0.9,0.8-2.1,1.3-3.3,1.6c-0.1-0.3-0.3-0.6-0.5-0.8c1.2-0.3,2.2-0.8,3.1-1.4c-0.7-0.8-1.3-1.7-1.7-2.8l0.5-0.1h-0.9v-0.8h4.6
		l0.2,0L24.3,48.5z M20.7,44.5c0,1.2-0.3,2.6-1.7,3.5c-0.1-0.2-0.5-0.5-0.7-0.6c1.3-0.9,1.5-2,1.5-3V43h3.6v3.3c0,0.3,0,0.4,0.2,0.4
		h0.9c0.2,0,0.5,0,0.6-0.1c0,0.2,0,0.5,0.1,0.8c-0.2,0.1-0.4,0.1-0.7,0.1h-1c-0.9,0-1-0.3-1-1.2v-2.4h-1.8V44.5z M20.1,49.2
		c0.4,0.9,0.9,1.7,1.6,2.4c0.6-0.6,1.1-1.4,1.5-2.4H20.1z"/>
	<path d="M27.7,50.2c1-0.4,1.6-1,1.6-1.9c-0.1,0-0.1,0-0.2,0c-0.5,0-1-0.3-1-0.9s0.5-0.9,1-0.9c0.7,0,1.1,0.6,1.1,1.5
		c0,1.4-0.9,2.5-2.2,3L27.7,50.2z"/>
	<path d="M39.2,50.1c-0.2,0.8-0.5,1.5-1.2,2.2c1.6,0.7,3.9,0.9,6.8,1c-0.2,0.2-0.4,0.6-0.4,0.9c-3-0.1-5.4-0.4-7.1-1.4
		c-0.9,0.6-2.1,1.1-3.8,1.4c-0.1-0.2-0.4-0.6-0.6-0.8c1.5-0.3,2.7-0.7,3.4-1.1c-0.6-0.5-1.2-1.1-1.6-1.8l0.8-0.3
		c0.4,0.7,1,1.2,1.6,1.6c0.6-0.5,0.9-1.1,1.1-1.7h-3.9v-5h4V44h-5.2v-0.9h11.2V44h-5v1.1h4.2v5H39.2z M35.3,47.2h3.1v-1.3h-3.1V47.2
		z M38.3,49.3c0-0.3,0-0.5,0-0.8V48h-3.1v1.3H38.3z M42.6,48h-3.3v0.5c0,0.3,0,0.5,0,0.8h3.3V48z M39.3,45.9v1.3h3.3v-1.3H39.3z"/>
	<path d="M52.3,53.1c0.5,0.1,1,0.1,1.5,0.1c0.5,0,3.2,0,3.8,0c-0.1,0.2-0.3,0.6-0.3,0.9h-3.5c-2.6,0-4.3-0.4-5.3-2.2
		c-0.5,1-1.2,1.8-2,2.4c-0.1-0.2-0.5-0.5-0.7-0.7c1.4-0.9,2.2-2.3,2.5-4.2l1,0.1c-0.1,0.5-0.2,0.9-0.3,1.3c0.5,1.2,1.3,1.8,2.5,2.1
		V49h-5.3v-0.9h11.4V49h-5.1v1.4h4.3v0.9h-4.3V53.1z M56.1,47.3h-8.6V43h8.6V47.3z M55.1,43.7h-6.7v1.1h6.7V43.7z M55.1,45.5h-6.7
		v1.1h6.7V45.5z"/>
	<path d="M61.4,51.3c0.6-0.2,1.2-0.4,1.8-0.5l0.1,0.9c-1.5,0.5-3.1,0.9-4.3,1.3L58.8,52c0.5-0.1,1.1-0.3,1.7-0.5V48H59v-0.9h1.5
		v-2.8h-1.6v-0.9h4.2v0.9h-1.7v2.8h1.4V48h-1.4V51.3z M67.5,42.7c-0.1,0.2-0.2,0.3-0.2,0.5c0.9,1.3,2.4,2.5,3.7,3.2
		c-0.2,0.2-0.5,0.5-0.7,0.8c-1.2-0.7-2.6-1.9-3.5-3.2c-0.9,1.3-2.1,2.4-3.5,3.3c-0.1-0.2-0.4-0.5-0.6-0.7c1.8-1,3.3-2.5,4-4.1
		L67.5,42.7z M70.3,50.1c-1.2,2.1-3.4,3.5-6.3,4.2c-0.1-0.3-0.4-0.6-0.6-0.8c2.7-0.6,4.9-1.9,6-3.8L70.3,50.1z M67.6,46.4
		c-0.8,1-2.1,2-3.3,2.6c-0.1-0.2-0.4-0.5-0.6-0.7c1.1-0.5,2.4-1.4,3.2-2.2L67.6,46.4z M68.9,48.3c-1,1.4-2.6,2.6-4.3,3.4
		c-0.1-0.2-0.4-0.5-0.6-0.7c1.6-0.6,3.3-1.8,4.1-3L68.9,48.3z"/>
	<path d="M76.7,52.9c-1.1,0.6-2.7,1.1-4,1.4c-0.2-0.2-0.5-0.5-0.7-0.7c1.3-0.2,2.9-0.7,3.8-1.1L76.7,52.9z M83.5,46.9H72v-0.8h5.3
		v-0.7h-3.5v-2.2h3.5v-0.8h0.9v0.8h3.7v2.2h-3.7v0.7h5.3V46.9z M73.7,52.4v-4.9h8.4v4.9H73.7z M74.6,49h6.5v-0.8h-6.5V49z
		 M74.6,50.4h6.5v-0.8h-6.5V50.4z M74.6,51.8h6.5V51h-6.5V51.8z M77.3,44.8v-0.9h-2.6v0.9H77.3z M78.2,43.9v0.9H81v-0.9H78.2z
		 M79.6,52.6c1.4,0.4,3,0.9,3.9,1.3l-1.1,0.5c-0.8-0.4-2.2-0.9-3.6-1.3L79.6,52.6z"/>
	<path d="M89.4,49.6l-0.9,0.7c-0.8-1-2-2.1-2.9-2.9l0.8-0.7C87.4,47.4,88.6,48.6,89.4,49.6z"/>
	<path d="M94.8,49.9c-0.2-0.3-0.5-0.9-0.9-1.4v5.9h-0.8v-5.8c-0.4,1.2-0.9,2.5-1.5,3.3c-0.1-0.2-0.3-0.6-0.5-0.8
		c0.6-0.9,1.4-2.5,1.7-3.9h-1.5v-0.9h1.7v-2.1c-0.5,0.1-0.9,0.2-1.4,0.3c0-0.2-0.2-0.5-0.3-0.8c1.2-0.2,2.6-0.6,3.4-1l0.6,0.8
		c-0.4,0.2-0.9,0.4-1.5,0.5v2.3h1.4v0.9h-1.4v0.4c0.3,0.3,1.2,1.4,1.4,1.7L94.8,49.9z M98.4,47.5c-0.3,0.5-0.6,1.1-0.9,1.5h1.7v-1.2
		h0.9V49h2.6v3.2c0,0.4-0.1,0.7-0.4,0.8c-0.3,0.1-0.7,0.1-1.4,0.1c0-0.2-0.2-0.6-0.3-0.8c0.5,0,0.9,0,1,0c0.1,0,0.2,0,0.2-0.2v-2.4
		H100v4.5h-0.9v-4.5h-1.6v3.4h-0.9V50c-0.3,0.3-0.5,0.5-0.8,0.8c-0.1-0.2-0.5-0.5-0.7-0.7c0.9-0.7,1.7-1.6,2.2-2.6h-1.6v-0.8h2
		c0.2-0.4,0.3-0.8,0.5-1.2c-0.6,0.2-1.2,0.5-1.8,0.7c-0.1-0.2-0.4-0.6-0.6-0.8c1-0.3,2-0.6,2.9-1c-0.8-0.3-1.7-0.6-2.5-0.9l0.6-0.7
		c0.9,0.3,1.9,0.6,2.9,1c0.8-0.4,1.4-0.9,1.9-1.3l0.8,0.4c-0.5,0.5-1.1,0.9-1.8,1.4c0.9,0.4,1.7,0.8,2.3,1.2l-0.6,0.7
		c-0.7-0.4-1.6-0.9-2.7-1.4c-0.4,0.2-0.8,0.4-1.2,0.6l0.7,0.2c-0.1,0.4-0.3,0.8-0.4,1.1h4.5v0.8H98.4z"/>
	<path d="M108.9,45.1c-0.2,0.5-0.5,1-0.8,1.5h6.3v6.6c0,0.6-0.1,0.9-0.5,1c-0.4,0.2-1.2,0.2-2.3,0.2c0-0.3-0.2-0.7-0.3-0.9
		c0.9,0,1.7,0,1.9,0c0.2,0,0.3-0.1,0.3-0.3v-1.4h-5.6c-0.2,0.9-0.6,1.9-1.3,2.6c-0.1-0.2-0.5-0.6-0.7-0.8c1.1-1,1.2-2.5,1.2-3.7
		v-1.9c-0.6,0.7-1.3,1.4-2.1,2c-0.1-0.2-0.4-0.6-0.6-0.8c1.5-1,2.7-2.6,3.5-4.2h-3.2v-0.9h3.7c0.2-0.6,0.4-1.1,0.6-1.7l1,0.2
		c-0.1,0.5-0.3,1-0.5,1.4h6.6v0.9H108.9z M113.5,50.9v-1.4h-5.4V50c0,0.3,0,0.6,0,1H113.5z M113.5,47.4h-5.4v1.3h5.4V47.4z"/>
	<path d="M119,52.4c0-0.6,0.5-1,1-1s1,0.4,1,1c0,0.6-0.5,1-1,1S119,53,119,52.4z M119.3,45.2l0-1.5h1.6l0,1.5l-0.3,5h-0.9
		L119.3,45.2z"/>
</g>
<g>
	<path d="M2.4,99c-0.3,0.9-0.9,1.9-1.3,2.6c-0.2-0.1-0.5-0.4-0.7-0.5c0.5-0.6,1-1.5,1.2-2.3L2.4,99z M4,98.1v4.5H3.1v-4.5H0.5v-0.8
		h2.6v-1.4H0.4v-0.8H4c0.2-0.6,0.5-1.5,0.7-2.1l0.9,0.2c-0.2,0.6-0.5,1.3-0.7,1.9h1.7v0.8H4v1.4h2.4v0.8H4z M6.3,93H0.6v-0.8h2.5
		C3,91.8,2.8,91.4,2.6,91l0.9-0.2c0.3,0.4,0.6,1,0.7,1.4h2.1V93z M1.9,95.1c-0.1-0.5-0.3-1.2-0.5-1.8l0.8-0.2
		c0.3,0.6,0.5,1.3,0.5,1.8L1.9,95.1z M5.2,98.7c0.4,0.6,0.9,1.5,1.1,2l-0.7,0.4c-0.2-0.6-0.7-1.5-1.1-2.1L5.2,98.7z M12.2,96.1h-1.4
		v6.6H9.8v-6.6H8v0.5c0,1.9-0.2,4.4-1.4,6.1c-0.2-0.2-0.5-0.5-0.7-0.6c1.1-1.6,1.2-3.8,1.2-5.5v-4.5c1.5-0.2,3.1-0.6,4-1l0.8,0.7
		c-1.1,0.4-2.6,0.7-3.9,0.9v2.5h4.1V96.1z"/>
	<path d="M17.7,94.2h0.9v8.6h-0.9v-3.4h-1.4c0,1-0.2,2.4-1.2,3.4c-0.2-0.2-0.5-0.4-0.7-0.6c0.9-0.9,1.1-2,1.1-2.8h-1v-0.9h3.2v-1.1
		h-2.5v-2.8h0.9v2h1.7V94.2z M17.1,92.8h-2.4v-0.9h2.4v-1.1h0.9v1.1h2.1v0.9h-2.1v1h-0.9V92.8z M23.1,97.6v3.7H26v0.9h-6.5v-0.9h2.7
		v-3.7h-3v-0.9h3v-2.6h0.9v2.6h3.1v0.9H23.1z M22.7,92.8h-2v-0.9h2v-1.1h0.9v1.1h2.5v0.9h-2.5v1.1h-1V92.8z"/>
	<path d="M34,100.8c-1.8,0.4-3.8,0.9-5.2,1.2l-0.2-0.9c1-0.2,2.3-0.5,3.8-0.8l-0.6-0.2c0.2-0.7,0.5-1.8,0.6-2.6l0.9,0.2
		c-0.2,0.9-0.5,1.9-0.8,2.6l1.5-0.3L34,100.8z M33.8,92.4h-5.1v-0.9h5.1V92.4z M33.5,97.1h-4.4v-3.5h4.4V97.1z M29.9,100.2
		c0-0.7-0.2-1.6-0.5-2.4l0.8-0.2c0.3,0.8,0.5,1.8,0.5,2.4L29.9,100.2z M32.6,94.4h-2.7v1.9h2.7V94.4z M36.6,101
		c-0.7,0.7-1.8,1.3-2.8,1.7c-0.1-0.2-0.4-0.5-0.6-0.6c1-0.3,2.1-1,2.6-1.5L36.6,101z M36.4,93.5c0.1-0.4,0.2-0.8,0.3-1.2h-2.5v-0.8
		h6.2v0.8h-2.7c-0.1,0.4-0.2,0.9-0.4,1.2H40v6.7h-5.4v-6.7H36.4z M39.1,94.3h-3.6v1.3h3.6V94.3z M39.1,96.2h-3.6v1.3h3.6V96.2z
		 M39.1,98.2h-3.6v1.3h3.6V98.2z M38.5,100.6c0.8,0.5,1.7,1.1,2.2,1.6l-0.8,0.5c-0.5-0.5-1.4-1.2-2.2-1.7L38.5,100.6z"/>
	<path d="M48.4,101.6c0,0.5-0.1,0.7-0.5,0.9c-0.4,0.2-0.9,0.2-1.8,0.2c-0.1-0.2-0.2-0.6-0.3-0.8c0.6,0,1.2,0,1.4,0
		c0.2,0,0.2-0.1,0.2-0.2v-1.7h-3c-0.1,1-0.4,2.1-1,2.9c-0.1-0.2-0.5-0.5-0.7-0.6c0.9-1.2,1-2.9,1-4.2v-3.1h4.7V101.6z M54.4,92.9
		v0.9H42.9v-0.9h3.2c-0.2-0.5-0.7-1.2-1.2-1.7l0.9-0.3c0.5,0.5,1.1,1.3,1.3,1.8l-0.6,0.2h3.9c0.4-0.6,0.9-1.5,1.2-2.1l1,0.3
		c-0.4,0.6-0.8,1.2-1.2,1.8H54.4z M47.5,99.1v-1.3h-2.9V98c0,0.4,0,0.7,0,1.1H47.5z M44.6,95.7V97h2.9v-1.3H44.6z M50.9,100.3H50V95
		h0.9V100.3z M52.6,94.7h0.9v6.8c0,0.6-0.1,0.8-0.5,1c-0.4,0.2-1.1,0.2-2.1,0.2c-0.1-0.3-0.2-0.7-0.4-0.9c0.8,0,1.5,0,1.7,0
		c0.2,0,0.3-0.1,0.3-0.3V94.7z"/>
	<path d="M59.5,95.4c0.8,0,1.4,0.6,1.4,1.4s-0.6,1.4-1.4,1.4c-0.8,0-1.4-0.6-1.4-1.4S58.8,95.4,59.5,95.4z"/>
	<path d="M69.6,98.8h-3.5l-0.9,2.9h-1.2l3.2-9.5h1.3l3.2,9.5h-1.3L69.6,98.8z M69.3,97.8l-0.5-1.5c-0.4-1.1-0.6-2.1-1-3.2h-0.1
		c-0.3,1.1-0.6,2.1-0.9,3.2l-0.5,1.5H69.3z"/>
	<path d="M73.3,100.6l0.6-0.8c0.6,0.6,1.3,1.1,2.4,1.1c1.1,0,1.9-0.7,1.9-1.8c0-1.1-0.8-1.9-3-1.9v-0.9c2,0,2.6-0.8,2.6-1.8
		c0-0.9-0.6-1.5-1.6-1.5c-0.8,0-1.4,0.4-2,0.9l-0.6-0.8c0.7-0.7,1.6-1.1,2.7-1.1c1.6,0,2.8,0.9,2.8,2.4c0,1.2-0.7,1.9-1.7,2.3v0.1
		c1.1,0.3,2,1.1,2,2.4c0,1.7-1.4,2.7-3.1,2.7C74.9,101.9,73.9,101.2,73.3,100.6z"/>
	<path d="M82.9,93.9c-0.2,0.3-0.4,0.6-0.7,0.8c-0.1-0.2-0.4-0.5-0.5-0.7c0.8-0.8,1.5-2,1.9-3.2l0.8,0.2c-0.2,0.4-0.3,0.9-0.5,1.3
		h1.5c-0.1-0.4-0.4-0.8-0.6-1.2l0.8-0.2c0.3,0.4,0.6,1,0.7,1.4h1.2V93h-1.5v0.8h1.3V94c0.8-0.8,1.5-2,1.9-3.2l0.8,0.2
		c-0.2,0.4-0.4,0.9-0.5,1.3h1.5c-0.1-0.4-0.4-0.8-0.5-1.1l0.8-0.2c0.2,0.4,0.5,1,0.7,1.4h1.5V93h-1.8v0.8H93v0.7h-1.5v0.8H93v0.7
		h-1.5v0.8h2v0.7h-5v-3.3c-0.2,0.3-0.5,0.6-0.7,0.9c-0.1-0.1-0.3-0.4-0.5-0.5v0.1h-1.3v0.8h1.3v0.6h-1.3v0.8h1.7v0.7h-4.8V93.9z
		 M92.2,98.3c-0.7,1.1-1.7,1.9-3,2.5c1.3,0.4,2.8,0.7,4.3,0.8c-0.2,0.2-0.5,0.6-0.6,0.9c-1.8-0.2-3.5-0.6-5-1.2
		c-1.7,0.7-3.7,1.1-5.6,1.3c-0.1-0.3-0.2-0.7-0.4-0.9c1.7-0.1,3.4-0.4,4.9-0.9c-1.1-0.5-2-1.2-2.7-2l0.2-0.1h-1.7V98h8.7l0.2-0.1
		L92.2,98.3z M85.2,93h-1.5v0.8h1.5V93z M85.2,94.4h-1.5v0.8h1.5V94.4z M85.2,95.8h-1.5v0.8h1.5V95.8z M85.3,98.8
		c0.7,0.7,1.6,1.2,2.7,1.7c1-0.4,1.9-1,2.5-1.7H85.3z M90.7,93h-1.4v0.8h1.4V93z M90.7,94.4h-1.4v0.8h1.4V94.4z M90.7,95.8h-1.4v0.8
		h1.4V95.8z"/>
	<path d="M98.5,97.7v3.9c0,0.5-0.1,0.8-0.4,0.9c-0.3,0.1-0.8,0.2-1.6,0.2c0-0.2-0.2-0.6-0.3-0.9c0.6,0,1.1,0,1.2,0
		c0.2,0,0.2,0,0.2-0.2v-3.6L96,98.4l-0.2-0.9c0.5-0.1,1.1-0.3,1.8-0.5v-2.7H96v-0.9h1.6v-2.6h0.9v2.6h1.4v0.9h-1.4v2.4
		c0.4-0.1,0.9-0.3,1.3-0.4l0.1,0.9L98.5,97.7z M104.2,98v1.1h2.9v0.8h-2.9v1.7c0.4,0.1,0.8,0.1,1.2,0.1h2.5
		c-0.1,0.2-0.3,0.6-0.3,0.8h-2.3c-2,0-3.4-0.4-4.3-1.9c-0.3,0.8-0.8,1.5-1.4,2.1c-0.1-0.2-0.5-0.4-0.7-0.5c1-0.9,1.5-2.3,1.8-4
		l0.9,0.1c-0.1,0.4-0.1,0.9-0.2,1.3c0.4,1,1,1.6,1.9,1.8V98h-2.6v-0.8h2.6v-1.1h-3.4v-0.8h3.4v-1h-2.6v-0.8h2.6v-0.9h-3.2V92h3.2
		v-1.2h0.9V92h3.4v0.8h-3.4v0.9h2.8v1.7h0.9v0.8H107V98H104.2z M104.2,95.4h1.9v-1h-1.9V95.4z M104.2,97.3h1.9v-1.1h-1.9V97.3z"/>
	<path d="M115.2,99.3l0.1,0.9c-1.7,0.4-3.5,0.9-4.9,1.2l-0.2-0.9c0.8-0.2,1.7-0.4,2.8-0.6c0.3-1.4,0.7-3.7,0.8-5.2l0.9,0.2
		c-0.3,1.5-0.6,3.5-0.9,4.9L115.2,99.3z M110.3,93.2h5v0.9h-5V93.2z M111.6,94.7c0.3,1.5,0.6,3.4,0.7,4.6l-0.8,0.2
		c-0.1-1.3-0.3-3.2-0.6-4.6L111.6,94.7z M112.7,93.1c-0.2-0.5-0.5-1.4-0.9-2l0.8-0.2c0.4,0.6,0.8,1.4,0.9,1.9L112.7,93.1z
		 M118.7,94.4V97h2.7v5.6h-1v-0.6h-3.9v0.6h-0.9V97h2.1v-6.2h1v2.7h3.3v0.9H118.7z M120.4,97.9h-3.9v3.3h3.9V97.9z"/>
	<path d="M129.9,101.6c0,0.5-0.1,0.7-0.5,0.9c-0.4,0.2-0.9,0.2-1.8,0.2c-0.1-0.2-0.2-0.6-0.3-0.8c0.6,0,1.2,0,1.4,0
		c0.2,0,0.2-0.1,0.2-0.2v-1.7h-3c-0.1,1-0.4,2.1-1,2.9c-0.1-0.2-0.5-0.5-0.7-0.6c0.9-1.2,1-2.9,1-4.2v-3.1h4.7V101.6z M135.9,92.9
		v0.9h-11.5v-0.9h3.2c-0.2-0.5-0.7-1.2-1.2-1.7l0.9-0.3c0.5,0.5,1.1,1.3,1.3,1.8l-0.6,0.2h3.9c0.4-0.6,0.9-1.5,1.2-2.1l1,0.3
		c-0.4,0.6-0.8,1.2-1.2,1.8H135.9z M129,99.1v-1.3h-2.9V98c0,0.4,0,0.7,0,1.1H129z M126.1,95.7V97h2.9v-1.3H126.1z M132.4,100.3
		h-0.9V95h0.9V100.3z M134.1,94.7h0.9v6.8c0,0.6-0.1,0.8-0.5,1c-0.4,0.2-1.1,0.2-2.1,0.2c-0.1-0.3-0.2-0.7-0.4-0.9
		c0.8,0,1.5,0,1.7,0c0.2,0,0.3-0.1,0.3-0.3V94.7z"/>
	<path d="M11,116.9v0.9H1.5v-0.9H11z"/>
	<path d="M16.2,111.2h4.1v0.9h-3.1v7.5h-1V111.2z"/>
	<path d="M32.8,113.1v10.1h-1v-0.7h-6.9v0.7h-1v-10.1h3.3c0.2-0.6,0.4-1.3,0.5-1.8l1.1,0.1c-0.2,0.6-0.4,1.1-0.6,1.6H32.8z
		 M24.9,114v1.9h6.9V114H24.9z M24.9,116.9v1.9h6.9v-1.9H24.9z M31.8,121.6v-1.9h-6.9v1.9H31.8z"/>
	<path d="M47.6,113.8v9.3h-1v-0.7h-8v0.8h-1v-9.4H42v-2.5h1v2.5H47.6z M38.5,114.8v2.8H42v-2.8H38.5z M38.5,121.4H42v-2.9h-3.5
		V121.4z M43,114.8v2.8h3.6v-2.8H43z M46.6,121.4v-2.9H43v2.9H46.6z"/>
	<path d="M61.6,114.3c-1.6,2.4-4.5,5.1-7.1,6.7c0.1,0.1,0.2,0.2,0.3,0.2c0.8,0.5,1.9,0.6,3.3,0.6c1.5,0,3.4-0.1,4.7-0.2
		c-0.1,0.2-0.3,0.8-0.3,1c-1,0.1-3.2,0.1-4.4,0.1c-1.6,0-2.6-0.2-3.5-0.7c-0.5-0.3-0.9-0.8-1.2-0.8c-0.4,0-1,0.8-1.6,1.6l-0.7-0.9
		c0.9-0.9,1.7-1.6,2.4-1.6c0.1,0,0.1,0,0.2,0c2.4-1.4,4.9-3.7,6.4-5.7h-8.3v-0.9h9l0.2-0.1L61.6,114.3z M57.1,113.9
		c-0.3-0.6-0.9-1.5-1.4-2.2l0.8-0.4c0.5,0.7,1.1,1.6,1.4,2.1L57.1,113.9z"/>
	<path d="M76.9,121.6v0.9H65.3v-0.9h2.1v-8.8c2.6-0.1,5.7-0.5,7.4-1.1l0.6,0.8c-1.7,0.6-4.6,0.9-7,1.1v2.4h8v0.9h-2.2v4.6H76.9z
		 M68.3,121.6h4.8V117h-4.8V121.6z"/>
	<path d="M83.2,123.3h-4.1v-0.9h3.1v-7.5h1V123.3z"/>
	<path d="M87.2,119.8c0-1.3,0.9-2.2,1.8-2.6v-0.1c-0.7-0.5-1.3-1.2-1.3-2.2c0-1.5,1.1-2.4,2.6-2.4c1.6,0,2.6,1,2.6,2.5
		c0,1-0.7,1.9-1.3,2.3v0.1c0.8,0.5,1.6,1.2,1.6,2.5c0,1.4-1.2,2.5-3,2.5C88.5,122.4,87.2,121.3,87.2,119.8z M92.1,119.9
		c0-1.3-1.2-1.8-2.5-2.3c-0.8,0.5-1.3,1.2-1.3,2.2c0,1,0.8,1.8,2,1.8C91.4,121.5,92.1,120.8,92.1,119.9z M91.9,115.1
		c0-0.9-0.6-1.7-1.6-1.7c-0.9,0-1.5,0.6-1.5,1.5c0,1.1,1,1.6,2.1,2.1C91.6,116.5,91.9,115.8,91.9,115.1z"/>
	<path d="M100,112c-0.7,2.2-2,4.1-3.5,5.3c-0.2-0.2-0.6-0.6-0.8-0.7c1.5-1.1,2.7-2.8,3.3-4.8L100,112z M105.6,116.2c0,0,0,0.3,0,0.5
		c-0.2,4-0.4,5.5-0.8,6c-0.3,0.3-0.5,0.4-1,0.5c-0.4,0-1.2,0-2,0c0-0.3-0.1-0.7-0.3-1c0.8,0.1,1.6,0.1,2,0.1c0.3,0,0.4,0,0.5-0.2
		c0.3-0.3,0.5-1.6,0.7-4.9h-3.4c-0.3,2.6-1.2,4.9-4.5,6.1c-0.1-0.3-0.4-0.6-0.6-0.8c3.1-1,3.8-3.1,4.1-5.3h-2.7v-0.9H105.6z
		 M104,111.6c0.7,2,2,3.9,3.7,4.8c-0.2,0.2-0.5,0.6-0.7,0.9c-1.6-1-3-2.9-3.7-4.8H101v-0.9H104z"/>
	<path d="M114.4,120.9l0.1,0.8c-1.5,0.4-3.1,0.8-4.2,1l-0.2-0.9c0.5-0.1,1.2-0.2,2-0.4v-3.8h-1.8v-0.8h1.8v-1.4h-1.2v-0.6
		c-0.2,0.2-0.4,0.4-0.6,0.6c-0.1-0.2-0.3-0.7-0.4-1c0.9-0.8,1.9-2,2.5-3.2l0.7,0.3c-0.1,0.2-0.2,0.4-0.3,0.5c0.8,0.5,1.5,1.2,2,1.7
		l-0.4,0.8c-0.5-0.5-1.2-1.2-2-1.8c-0.4,0.6-0.8,1.2-1.3,1.8h3v0.8h-1.3v1.4h1.7v0.8h-1.7v3.6L114.4,120.9z M111,118.4
		c0.2,0.8,0.4,1.7,0.5,2.4l-0.6,0.2c-0.1-0.7-0.2-1.7-0.5-2.4L111,118.4z M113,120.6c0.2-0.6,0.4-1.7,0.5-2.4l0.7,0.2
		c-0.2,0.8-0.5,1.8-0.7,2.4L113,120.6z M118.7,122.1h3.2v0.7h-7.3v-0.7h3.2v-0.9h-2.6v-0.7h2.6v-0.7h-2.5v-3.7h5.9v3.7h-2.6v0.7h2.7
		v0.7h-2.7V122.1z M121.9,114.7v0.8h-7.3v-0.8h1.9c-0.1-0.4-0.3-0.9-0.4-1.2l0.8-0.2c0.2,0.4,0.4,1,0.5,1.3l-0.3,0.1h1.9
		c0.2-0.4,0.5-1,0.6-1.4H115v-0.8h2.9c-0.1-0.3-0.3-0.7-0.5-1l0.9-0.2c0.3,0.4,0.5,0.9,0.7,1.3h2.7v0.8h-1.9l0.8,0.2
		c-0.2,0.4-0.4,0.8-0.6,1.2H121.9z M116.2,117.6h1.7v-0.9h-1.7V117.6z M116.2,119.1h1.7v-0.9h-1.7V119.1z M120.4,116.8h-1.7v0.9h1.7
		V116.8z M120.4,118.2h-1.7v0.9h1.7V118.2z"/>
	<path d="M127.4,117.5c-0.2,1.1-0.6,2.4-1.1,3.4c0.2,0.1,0.6,0.4,1,0.7c0.9,0.6,2.1,0.7,3.6,0.7c1.7,0,3.8-0.1,5.2-0.3
		c-0.1,0.3-0.3,0.7-0.3,1c-1,0.1-3.4,0.1-5,0.1c-1.7,0-2.8-0.1-3.8-0.7c-0.5-0.3-1-0.8-1.3-0.8c-0.3,0-0.7,0.8-1.1,1.6l-0.7-0.9
		c0.5-0.7,0.9-1.2,1.3-1.4c0.4-0.7,0.7-1.8,0.9-2.7h-1.7c0.4-0.8,0.8-1.9,1.1-2.9h-1.4v-0.9h2.7c-0.3,0.9-0.7,2-1.1,2.9h0.9l0.2,0
		L127.4,117.5z M125.6,113.8c-0.2-0.6-0.5-1.5-0.7-2.1l0.8-0.3c0.2,0.7,0.5,1.5,0.7,2.1L125.6,113.8z M128.6,115.3
		c-0.3,0.4-0.6,0.8-1,1.1c-0.1-0.2-0.4-0.6-0.6-0.8c1.1-1,2.1-2.5,2.7-4.2l0.9,0.2c-0.2,0.6-0.5,1.3-0.8,1.9h2.6
		c-0.2-0.5-0.5-1.1-0.8-1.6l0.9-0.3c0.4,0.6,0.8,1.3,0.9,1.9h2.3v0.8h-2.8v1.3h2.4v0.8h-2.4v1.3h2.3v0.8h-2.3v1.4h3v0.8h-6.4v0.8
		h-0.9V115.3z M132,114.3h-2.4v1.3h2.4V114.3z M132,116.4h-2.4v1.3h2.4V116.4z M132,118.5h-2.4v1.4h2.4V118.5z"/>
	<path d="M5.9,140.5l0.2,0.8c-1.9,0.8-3.9,1.7-5.4,2.2l-0.4-0.9c0.9-0.3,2.3-0.8,3.7-1.4v-5.2H0.6v-0.9h3.3v-3h1v8.8L5.9,140.5z
		 M10.2,142.2c0.6,0,0.7-0.6,0.7-3.1c0.3,0.2,0.6,0.4,0.9,0.5c-0.1,2.7-0.3,3.6-1.6,3.6H8.6c-1.1,0-1.4-0.4-1.4-1.7v-9.4h1v3h3.6
		v0.9H8.1v5.4c0,0.7,0.1,0.8,0.6,0.8H10.2z"/>
	<path d="M20.9,134.7v1.8h4.2v4.5c0,0.6-0.1,0.8-0.5,1c-0.4,0.2-1.2,0.2-2.3,0.2c0-0.3-0.2-0.7-0.3-1c0.9,0,1.7,0,1.9,0
		c0.2,0,0.3-0.1,0.3-0.3v-3.6h-3.2v6.3h-1v-6.3h-3v4.8h-1v-5.8h4v-1.8h-5.3v-0.9h5.5c-0.2-0.5-0.6-1.2-0.9-1.7l0.9-0.3
		c0.4,0.6,0.8,1.4,1,1.9l-0.2,0.1h5.2v0.9H20.9z"/>
	<path d="M30.1,139.6c1-0.4,1.6-1,1.6-1.9c-0.1,0-0.1,0-0.2,0c-0.5,0-1-0.3-1-0.9s0.5-0.9,1-0.9c0.7,0,1.1,0.6,1.1,1.5
		c0,1.4-0.9,2.5-2.2,3L30.1,139.6z"/>
	<path d="M36.4,142c3-2.6,4.4-4.5,4.4-6.1c0-1.1-0.6-1.9-1.8-1.9c-0.8,0-1.5,0.5-2,1.1l-0.7-0.7c0.8-0.8,1.6-1.4,2.8-1.4
		c1.7,0,2.8,1.1,2.8,2.8c0,1.9-1.5,3.8-3.7,6c0.5,0,1.1-0.1,1.6-0.1h2.6v1h-6V142z"/>
	<path d="M50.1,134.7c-0.4-0.5-0.9-0.7-1.5-0.7c-1.3,0-2.4,1-2.5,4c0.6-0.7,1.4-1.2,2.2-1.2c1.6,0,2.6,1,2.6,3
		c0,1.8-1.2,3.1-2.7,3.1c-1.8,0-3.2-1.6-3.2-4.7c0-3.7,1.7-5.2,3.5-5.2c1,0,1.7,0.4,2.2,1L50.1,134.7z M49.8,139.8
		c0-1.3-0.6-2.1-1.7-2.1c-0.6,0-1.3,0.3-2,1.2c0.1,2,0.9,3.1,2.1,3.1C49.1,141.9,49.8,141.1,49.8,139.8z"/>
	<path d="M57.5,132.5c-0.7,2.2-2,4.1-3.5,5.3c-0.2-0.2-0.6-0.6-0.8-0.7c1.5-1.1,2.7-2.8,3.3-4.8L57.5,132.5z M63.2,136.7
		c0,0,0,0.3,0,0.5c-0.2,4-0.4,5.5-0.8,6c-0.3,0.3-0.5,0.4-1,0.5c-0.4,0-1.2,0-2,0c0-0.3-0.1-0.7-0.3-1c0.8,0.1,1.6,0.1,2,0.1
		c0.3,0,0.4,0,0.5-0.2c0.3-0.3,0.5-1.6,0.7-4.9h-3.4c-0.3,2.6-1.2,4.9-4.5,6.1c-0.1-0.3-0.4-0.6-0.6-0.8c3.1-1,3.8-3.1,4.1-5.3h-2.7
		v-0.9H63.2z M61.5,132.1c0.7,2,2,3.9,3.7,4.8c-0.2,0.2-0.5,0.6-0.7,0.9c-1.6-1-3-2.9-3.7-4.8h-2.3v-0.9H61.5z"/>
	<path d="M71.8,141.4l0.1,0.8c-1.5,0.4-3.1,0.8-4.2,1l-0.2-0.9c0.5-0.1,1.2-0.2,2-0.4v-3.8h-1.8v-0.8h1.8V136h-1.2v-0.6
		c-0.2,0.2-0.4,0.4-0.6,0.6c-0.1-0.2-0.3-0.7-0.4-1c0.9-0.8,1.9-2,2.5-3.2l0.7,0.3c-0.1,0.2-0.2,0.4-0.3,0.5c0.8,0.5,1.5,1.2,2,1.7
		l-0.4,0.8c-0.5-0.5-1.2-1.2-2-1.8c-0.4,0.6-0.8,1.2-1.3,1.8h3v0.8h-1.3v1.4h1.7v0.8h-1.7v3.6L71.8,141.4z M68.5,138.9
		c0.2,0.8,0.4,1.7,0.5,2.4l-0.6,0.2c-0.1-0.6-0.2-1.7-0.5-2.4L68.5,138.9z M70.5,141.1c0.2-0.6,0.4-1.7,0.5-2.4l0.7,0.2
		c-0.2,0.8-0.5,1.8-0.7,2.4L70.5,141.1z M76.2,142.6h3.2v0.7H72v-0.7h3.2v-0.9h-2.6V141h2.6v-0.7h-2.5v-3.7h5.9v3.7h-2.6v0.7h2.7
		v0.7h-2.7V142.6z M79.4,135.2v0.8h-7.3v-0.8H74c-0.1-0.4-0.3-0.9-0.4-1.2l0.8-0.2c0.2,0.4,0.4,1,0.5,1.3l-0.3,0.1h1.9
		c0.2-0.4,0.5-1,0.6-1.4h-4.6V133h2.9c-0.1-0.3-0.3-0.7-0.5-1l0.9-0.2c0.3,0.4,0.5,0.9,0.7,1.3h2.7v0.8h-1.9L78,134
		c-0.2,0.4-0.4,0.8-0.6,1.2H79.4z M73.6,138.1h1.7v-0.9h-1.7V138.1z M73.6,139.6h1.7v-0.9h-1.7V139.6z M77.9,137.3h-1.7v0.9h1.7
		V137.3z M77.9,138.7h-1.7v0.9h1.7V138.7z"/>
	<path d="M93.4,142.3v0.9H81.7v-0.9h1.8v-7.5h3c0.1-0.3,0.1-0.7,0.2-1h-4.7v-0.9h4.8c0.1-0.4,0.1-0.8,0.1-1.1l1.1,0.1l-0.2,1H93v0.9
		h-5.3c-0.1,0.4-0.1,0.7-0.2,1h4.1v7.5H93.4z M84.5,135.7v1.1h6.2v-1.1H84.5z M90.7,137.5h-6.2v1h6.2V137.5z M84.5,140.4h6.2v-1.1
		h-6.2V140.4z M84.5,142.3h6.2v-1.2h-6.2V142.3z"/>
	<path d="M99.9,138.4l-1.4,0.5v3.7c0,0.5-0.1,0.8-0.4,0.9c-0.3,0.2-0.8,0.2-1.6,0.2c0-0.2-0.2-0.6-0.3-0.9c0.6,0,1.1,0,1.2,0
		c0.2,0,0.2-0.1,0.2-0.2v-3.4c-0.6,0.2-1.1,0.3-1.6,0.5l-0.2-0.9c0.5-0.1,1.1-0.3,1.8-0.5v-2.8h-1.6v-0.9h1.6v-2.6h0.9v2.6h1.4v0.9
		h-1.4v2.5l1.3-0.4L99.9,138.4z M105,137.4c0.3,3,0.9,5.1,1.6,5.1c0.2,0,0.4-0.7,0.5-1.9c0.2,0.2,0.5,0.4,0.7,0.5
		c-0.2,1.9-0.7,2.5-1.2,2.5c-1.4,0-2.1-2.6-2.5-6.2h-2.5v3.8l2-0.7c0,0.2,0.1,0.6,0.1,0.8c-2.6,1-2.9,1.2-3.2,1.4
		c-0.1-0.2-0.2-0.6-0.4-0.8c0.2-0.1,0.6-0.3,0.6-0.8v-7.6h0l0,0c2-0.3,4.3-0.8,5.6-1.4l0.8,0.7c-0.6,0.2-1.4,0.5-2.3,0.7
		c0,1.1,0.1,2.2,0.2,3.2h2.7v0.9H105z M101.5,142.6h3.3v0.8h-3.3V142.6z M104,136.5c-0.1-0.9-0.1-1.9-0.2-3
		c-0.8,0.2-1.5,0.3-2.3,0.4v2.5H104z"/>
	<path d="M113.6,138.6c-0.2-0.4-0.6-1.2-1-1.8v6.9h-0.9v-6c-0.4,1.3-0.9,2.6-1.4,3.4c-0.1-0.3-0.3-0.7-0.5-0.9
		c0.7-1.1,1.5-3.2,1.8-4.9h-1.6v-0.9h1.7v-2.5h0.9v2.5h1.3v0.9h-1.3v0.4c0.4,0.5,1.4,1.9,1.6,2.2L113.6,138.6z M116.4,131.8h0.9v5.3
		c0,2.3-0.3,5.1-3,6.6c-0.1-0.2-0.4-0.5-0.6-0.7c1.9-0.9,2.5-2.5,2.6-4c-0.7,0.6-1.3,1.1-1.9,1.6l-0.5-0.9c0.6-0.4,1.5-1.1,2.4-1.7
		c0-0.3,0-0.6,0-0.8V131.8z M115.4,136.8c-0.2-0.7-0.7-1.9-1.1-2.7l0.7-0.3c0.5,0.8,1,1.9,1.2,2.6L115.4,136.8z M120.8,142.6
		c0.3,0,0.3-0.3,0.4-1.6c0.2,0.2,0.6,0.3,0.8,0.4c-0.1,1.5-0.3,2.1-1.1,2.1h-1.3c-0.9,0-1.1-0.3-1.1-1.5v-10.2h0.9v6.2l0.4-0.3
		c0.8,0.7,1.8,1.6,2.2,2.2l-0.6,0.6c-0.4-0.6-1.2-1.4-2-2.1v3.7c0,0.5,0.1,0.6,0.4,0.6H120.8z M121.8,134c-0.5,0.9-1,2-1.5,2.7
		l-0.7-0.3c0.4-0.7,1-1.9,1.3-2.7L121.8,134z"/>
	<path d="M135.5,132.4v11.3h-0.9v-0.5h-8.9v0.5h-0.9v-11.3H135.5z M134.6,142.3v-9h-8.9v9H134.6z M130.5,140.6c0,0.2,0,0.5,0,0.6
		c-2.4,0.7-2.7,0.8-2.9,0.9c0-0.2-0.2-0.5-0.3-0.6c0.2-0.1,0.5-0.2,0.5-0.7v-1c-0.5,0.2-0.9,0.3-1.4,0.5c-0.1-0.1-0.3-0.4-0.5-0.6
		c1-0.2,2.2-0.6,3-1.1h-1.8v-1.9h6v1.9H130c-0.4,0.3-0.9,0.6-1.4,0.8v1.5L130.5,140.6z M133.9,136.3h-7.6v-0.6h3.4v-0.8H127v-0.6
		h2.6v-0.7h0.9v0.7h2.7v0.6h-2.7v0.8h3.4V136.3z M128,138.2h4.3v-0.9H128V138.2z M133.9,139.4c-0.4,0.3-1,0.6-1.5,0.8
		c0.6,0.4,1.1,0.8,1.5,1.1l-0.6,0.4c-0.8-0.7-2.3-1.7-3.5-2.4l0.6-0.4c0.5,0.3,1,0.6,1.5,0.9c0.5-0.3,1.1-0.6,1.4-0.9L133.9,139.4z"
		/>
	<path d="M3.4,159.3c-0.1-0.4-0.4-1-0.7-1.5v6.4H1.8V158c-0.3,1.3-0.8,2.6-1.2,3.4c-0.1-0.3-0.3-0.7-0.4-0.9c0.6-1.1,1.2-3,1.6-4.7
		H0.4v-0.9h1.4v-2.5h0.8v2.5h1v0.9h-1v0.8c0.3,0.5,1,1.7,1.2,2L3.4,159.3z M11.3,160.2c-0.4,0.8-0.9,1.5-1.6,2.1
		c0.4,0.6,0.8,0.9,1.4,0.9c0.3,0,0.4-0.5,0.5-1.4c0.2,0.2,0.5,0.4,0.7,0.5c-0.2,1.4-0.7,1.9-1.2,1.9c-0.8-0.1-1.5-0.5-2.1-1.3
		c-0.7,0.5-1.4,0.9-2.3,1.3c-0.1-0.2-0.3-0.5-0.5-0.6c0.9-0.4,1.7-0.8,2.4-1.4c-0.3-0.7-0.5-1.5-0.8-2.4H5.8v0.2c0,0.1,0,0.2,0,0.3
		c0.6,0.5,1.4,1.1,1.8,1.5L7,162.4c-0.3-0.3-0.8-0.8-1.3-1.2c-0.2,1-0.8,2.2-1.9,3c-0.1-0.2-0.5-0.5-0.6-0.6
		c1.5-1.1,1.8-2.6,1.8-3.7v-0.2H4V159h3.8c-0.3-1.8-0.5-4.1-0.6-6.6H8c0.1,2.5,0.2,4.8,0.6,6.6h1.9c-0.3-0.3-0.8-0.6-1.2-0.8
		l0.5-0.5c0.5,0.3,1.1,0.7,1.4,0.9l-0.3,0.4h1.1v0.8H8.8c0.2,0.7,0.3,1.3,0.6,1.8c0.5-0.5,0.9-1.1,1.2-1.6L11.3,160.2z M6.7,158.3
		c0-0.2-0.1-0.3-0.1-0.5c-1.9,0.3-2.2,0.3-2.3,0.4c0-0.2-0.1-0.5-0.2-0.7c0.2,0,0.4-0.3,0.7-0.6c0.1-0.2,0.5-0.6,0.8-1.2
		c-1,0.1-1.3,0.2-1.4,0.3c0-0.2-0.1-0.5-0.2-0.7c0.2,0,0.3-0.2,0.5-0.5c0.2-0.3,0.8-1.3,1.1-2.2l0.7,0.2c-0.4,0.8-0.8,1.7-1.3,2.4
		l1-0.1c0.2-0.3,0.3-0.6,0.4-0.9l0.7,0.3c-0.6,1-1.3,2.1-2,2.9l1.3-0.2c-0.1-0.3-0.2-0.6-0.3-0.8l0.6-0.2c0.3,0.6,0.6,1.4,0.7,1.9
		L6.7,158.3z M11.4,158.1c0-0.2-0.1-0.4-0.2-0.6c-1.9,0.3-2.2,0.4-2.4,0.5c-0.1-0.2-0.2-0.6-0.3-0.8c0.2,0,0.4-0.3,0.6-0.6
		c0.1-0.2,0.4-0.6,0.8-1.2c-1,0.1-1.2,0.2-1.3,0.3c0-0.2-0.2-0.5-0.2-0.7c0.2,0,0.3-0.2,0.5-0.4c0.1-0.2,0.7-1.2,0.9-2l0.7,0.2
		c-0.3,0.8-0.7,1.5-1.1,2.1l0.9-0.1c0.2-0.3,0.3-0.6,0.5-0.9l0.7,0.3c-0.6,1.1-1.2,2.1-1.9,2.9l1.3-0.2c-0.1-0.3-0.2-0.5-0.3-0.8
		l0.6-0.2c0.3,0.6,0.6,1.4,0.7,1.9L11.4,158.1z"/>
	<path d="M17.5,159.9c-1.3,0.7-2.7,1.4-3.8,1.9l-0.4-0.9c0.5-0.2,1.1-0.5,1.8-0.8V156h-1.5v-0.9H15v-2.7h0.9v2.7h1.4v0.9h-1.4v3.7
		l1.3-0.6L17.5,159.9z M19.9,158.5c-0.2,0.3-0.4,0.6-0.6,0.9h5.6c0,0,0,0.3,0,0.4c-0.2,2.7-0.4,3.7-0.8,4.1
		c-0.2,0.2-0.4,0.3-0.7,0.3c-0.3,0-0.8,0-1.3,0c0-0.2-0.1-0.6-0.2-0.8c0.5,0,0.9,0.1,1.1,0.1c0.2,0,0.3,0,0.4-0.1
		c0.2-0.2,0.4-1.1,0.6-3.1h-1c-0.5,1.5-1.5,3.2-2.7,4.1c-0.2-0.2-0.5-0.4-0.7-0.6c1.1-0.7,2-2.1,2.5-3.5h-1.3
		c-0.7,1.3-2,2.8-3.2,3.5c-0.1-0.2-0.4-0.4-0.6-0.6c1.1-0.6,2.2-1.8,2.9-2.9h-1.3c-0.5,0.6-1.1,1.1-1.7,1.5
		c-0.1-0.2-0.5-0.5-0.7-0.6c1-0.6,2-1.5,2.6-2.6h-1.8v-0.8h8.1v0.8H19.9z M24.3,156.9h-5.9v-4.2h5.9V156.9z M23.4,153.4h-4.2v1h4.2
		V153.4z M23.4,155.1h-4.2v1h4.2V155.1z"/>
	<path d="M27.7,160.1c1-0.4,1.6-1,1.6-1.9c-0.1,0-0.1,0-0.2,0c-0.5,0-1-0.3-1-0.9s0.5-0.9,1-0.9c0.7,0,1.1,0.6,1.1,1.5
		c0,1.4-0.9,2.5-2.2,3L27.7,160.1z"/>
	<path d="M44,158.8v5.4h-1v-0.7h-9.2v-4.7h1v3.7h3.5V158h-4v-4.4h1v3.5h3v-4.7h1v4.7h3.1v-3.5h1v4.5h-4.1v4.5h3.6v-3.7H44z"/>
	<path d="M57.3,152.9v11.3h-0.9v-0.6h-8.9v0.6h-0.9v-11.3H57.3z M56.3,162.8v-9h-8.9v9H56.3z M51.9,160.8c-1.4,0.3-2.7,0.5-3.8,0.7
		l-0.1-0.7c1-0.2,2.4-0.4,3.9-0.7L51.9,160.8z M55.2,157c-0.3,1.2-0.8,2.3-1.4,3.2c0.3,0.7,0.6,1.1,1.1,1.2c0.2,0.1,0.3-0.5,0.4-1.3
		c0.2,0.2,0.4,0.4,0.6,0.4c-0.2,1.4-0.6,1.9-1.3,1.7c-0.6-0.1-1-0.6-1.4-1.3c-0.5,0.6-1.1,1.1-1.7,1.5c-0.1-0.2-0.4-0.5-0.6-0.6
		c0.8-0.4,1.4-1,2-1.7c-0.4-1-0.6-2.4-0.7-3.8h-4v-0.7h3.9c0-0.5-0.1-0.9-0.1-1.4h0.8c0,0.5,0.1,0.9,0.1,1.4h2.8v0.7h-2.8
		c0.1,1.1,0.3,2.2,0.5,3c0.4-0.7,0.7-1.5,1-2.4L55.2,157z M51.5,157.1v2.5h-2.9v-2.5H51.5z M50.8,157.7h-1.5v1.3h1.5V157.7z
		 M54.9,155.4c-0.3-0.3-0.9-0.7-1.4-0.9L54,154c0.5,0.2,1.1,0.6,1.4,0.9L54.9,155.4z"/>
	<path d="M63.6,159.4l-0.9,0.7c-0.8-1-2-2.1-2.9-2.9l0.8-0.7C61.6,157.3,62.8,158.4,63.6,159.4z"/>
	<path d="M77.3,162.2v1H65.7v-1h5.2v-7.5h-4.6v-1h10.3v1H72v7.5H77.3z"/>
	<path d="M82.7,152.7c-0.4,0.9-0.8,1.9-1.3,2.8v8.7h-1v-7.2c-0.4,0.6-0.8,1.1-1.3,1.5c-0.1-0.2-0.4-0.8-0.6-1
		c1.3-1.2,2.5-3.2,3.2-5.2L82.7,152.7z M86.5,155.4v1.9h3.7v0.9h-3.7v2h3.9v0.9h-3.9v3.1h-1v-8.8h-0.9c-0.6,1-1.2,2-1.8,2.7
		c-0.2-0.2-0.5-0.5-0.8-0.7c1.2-1.2,2.2-3.1,2.9-5l0.9,0.2c-0.2,0.6-0.5,1.2-0.7,1.8h5.4v0.9H86.5z"/>
	<path d="M92.9,160.1c1-0.4,1.6-1,1.6-1.9c-0.1,0-0.1,0-0.2,0c-0.5,0-1-0.3-1-0.9s0.5-0.9,1-0.9c0.7,0,1.1,0.6,1.1,1.5
		c0,1.4-0.9,2.5-2.2,3L92.9,160.1z"/>
	<path d="M110,157.6v1.1H98.2v-1.1H110z"/>
	<path d="M115.4,160.6h-4.1v-0.9h4.1V160.6z M115,155.3h-3.4v-0.9h3.4V155.3z M118.8,157.1c0,0.2,0,0.4,0,0.6
		c0.6,2.7,1.9,4.8,4.3,5.6c-0.2,0.2-0.5,0.6-0.6,0.8c-2-0.8-3.2-2.3-3.9-4.4c-0.5,1.6-1.5,3.2-4,4.6c-0.2-0.2-0.5-0.6-0.7-0.8
		c3.7-1.9,4-4.6,4-6.4v-1h1V157.1z M116.8,155.5c-0.4,1.1-0.8,2-1.4,2.7c-0.2-0.2-0.7-0.4-0.9-0.5c1-1.3,1.7-3.3,2.1-5.3l1,0.2
		c-0.1,0.7-0.3,1.4-0.5,2h4.7l0.2-0.1l0.7,0.4c-0.3,1.3-0.9,2.6-1.4,3.5c-0.2-0.1-0.6-0.3-0.8-0.4c0.3-0.6,0.7-1.6,1-2.5H116.8z"/>
	<path d="M128.4,162c0.9-0.2,1.8-0.3,2.7-0.5l0.1,0.8c-2.3,0.4-4.8,0.9-6.5,1.2l-0.2-0.9c0.8-0.1,1.8-0.3,3-0.5v-2.2h-2.5v-0.9h2.5
		v-1.4h0.9v1.4h2.6v0.9h-2.6V162z M124.6,153.2h6.6v0.9h-3.5c-0.4,0.9-1,1.7-1.5,2.4l3.3-0.3c-0.3-0.5-0.6-0.9-1-1.3l0.7-0.4
		c0.7,0.9,1.6,2,2,2.8l-0.7,0.5c-0.1-0.2-0.3-0.5-0.5-0.8c-4,0.4-4.5,0.4-4.8,0.6c-0.1-0.2-0.2-0.7-0.3-0.9c0.2,0,0.4-0.3,0.6-0.6
		c0.2-0.3,0.7-1.1,1.1-2h-2.1V153.2z M132.9,161.3H132v-7.8h0.9V161.3z M135.5,152.5v10.1c0,0.6-0.1,0.9-0.5,1.1
		c-0.4,0.2-1.1,0.2-2,0.2c0-0.2-0.2-0.7-0.4-0.9c0.8,0,1.5,0,1.7,0c0.2,0,0.3-0.1,0.3-0.3v-10.2H135.5z"/>
	<path d="M4.4,173.1c-0.4,0.9-0.8,1.9-1.3,2.8v8.8h-1v-7.3c-0.4,0.6-0.8,1.1-1.3,1.6c-0.1-0.2-0.4-0.7-0.5-0.9
		c1.3-1.2,2.5-3.2,3.2-5.2L4.4,173.1z M12.1,183.2v0.9H4v-0.9h4.5c0.5-1.7,1-4.5,1.2-6.4l1,0.2c-0.3,2-0.9,4.5-1.3,6.3H12.1z
		 M11.6,176.1h-7v-0.9h7V176.1z M6.3,182.6c-0.1-1.4-0.5-3.7-0.9-5.5l0.9-0.2c0.4,1.8,0.8,4.1,1,5.5L6.3,182.6z M7.8,175
		c-0.1-0.5-0.4-1.4-0.6-2.1l0.9-0.2c0.2,0.7,0.5,1.5,0.7,2L7.8,175z"/>
	<path d="M15,182.7c0-0.6,0.5-1,1-1c0.6,0,1,0.4,1,1c0,0.6-0.5,1-1,1C15.4,183.8,15,183.4,15,182.7z M15.3,175.5l0-1.5h1.6l0,1.5
		l-0.3,5h-0.9L15.3,175.5z"/>
</g>
</svg>
