<?xml version="1.0" encoding="utf-8"?>
<!-- Generator: Adobe Illustrator 25.2.3, SVG Export Plug-In . SVG Version: 6.00 Build 0)  -->
<svg version="1.1" id="圖層_1" xmlns="http://www.w3.org/2000/svg" xmlns:xlink="http://www.w3.org/1999/xlink" x="0px" y="0px"
	 viewBox="0 0 150 109.1" style="enable-background:new 0 0 150 109.1;" xml:space="preserve">
<g>
	<path d="M9.9,27v1.1H0.6V27H9.9z M9,20.9V22H1.5v-1.1H9z"/>
	<path d="M14.3,25.4c-0.1-0.3-0.4-0.9-0.7-1.3v5h-0.9v-4.7c-0.3,1-0.5,2-0.8,2.7c-0.1-0.3-0.3-0.7-0.5-1c0.5-0.9,0.9-2.5,1.2-3.7h-1
		v-0.9h1.1v-2h0.9v2h1v0.9h-1v0.5c0.3,0.4,1,1.6,1.2,1.9L14.3,25.4z M20,26.5c-0.2,0.4-0.5,0.8-0.8,1.2c0.7,0.2,1.4,0.5,2,0.7
		l-0.7,0.6c-0.5-0.3-1.3-0.5-2.1-0.8c-0.8,0.4-1.8,0.7-3.3,0.8c-0.1-0.2-0.2-0.5-0.4-0.7c1.1-0.1,1.9-0.3,2.6-0.5
		c-0.6-0.2-1.3-0.4-1.9-0.5c0.2-0.2,0.5-0.5,0.8-0.9h-1.3v-0.8h1.9c0.2-0.2,0.3-0.5,0.5-0.7h-1.9v-1.8h2.3v-0.5h-2.1v-1.1h-0.6v-0.7
		h0.6v-1h2.1v-0.6h0.9V20h2.1v1h0.6v0.7h-0.6v1.1h-2.1v0.5h2.4v1.8h-2.7c-0.1,0.2-0.3,0.5-0.4,0.7h1.7c0-0.1,0.1-0.3,0.1-0.4h0.9
		c0,0.1-0.1,0.3-0.1,0.4h1v0.8H20z M16,24.5h1.4v-0.5H16V24.5z M16.2,20.7v0.5h1.2v-0.5H16.2z M17.5,22.2v-0.5h-1.2v0.5H17.5z
		 M17.1,26.5c-0.1,0.2-0.3,0.3-0.4,0.5c0.5,0.1,1,0.3,1.5,0.4c0.4-0.3,0.7-0.5,0.9-0.9H17.1z M18.4,20.7v0.5h1.3v-0.5H18.4z
		 M19.6,22.2v-0.5h-1.3v0.5H19.6z M18.4,23.9v0.5h1.5v-0.5H18.4z"/>
	<path d="M32.1,25c0,0,0,0.3,0,0.4c-0.2,2.1-0.4,3-0.7,3.3c-0.2,0.2-0.4,0.3-0.7,0.3c-0.3,0-0.8,0-1.3,0c0-0.3-0.1-0.6-0.3-0.9
		c0.5,0.1,0.9,0.1,1.1,0.1c0.2,0,0.3,0,0.4-0.1c0.2-0.2,0.4-0.8,0.5-2.2h-6.2c-0.5,0.4-1.1,0.8-1.7,1.1c-0.1-0.2-0.3-0.6-0.5-0.8
		c1.8-0.9,3.2-2.4,4.2-4h-3.5v-0.9h1.9c-0.1-0.4-0.5-1-0.7-1.4l0.8-0.3c0.3,0.5,0.7,1.1,0.8,1.5l-0.5,0.2h1.7
		c0.3-0.6,0.5-1.2,0.7-1.8l1,0.3c-0.2,0.5-0.4,1-0.6,1.5h2.1c-0.1,0.6-0.2,1.3-0.4,1.9h1.2c-0.1,0.6-0.2,1.3-0.4,1.9H32.1z M23,28.5
		c0.6-0.5,1-1.3,1.2-2.1l0.8,0.3c-0.2,0.9-0.6,1.8-1.2,2.4L23,28.5z M26.4,26.6c0.2,0.6,0.3,1.4,0.3,1.9l-0.9,0.1
		c0-0.5-0.1-1.3-0.2-1.9L26.4,26.6z M26.7,24c-0.3,0.4-0.6,0.7-1,1.1h4.3c0.1-0.3,0.1-0.7,0.2-1.1H26.7z M27.9,26.5
		c0.3,0.5,0.5,1.2,0.6,1.7l-0.8,0.2c-0.1-0.5-0.3-1.2-0.5-1.7L27.9,26.5z M28,22.1c-0.2,0.4-0.4,0.7-0.6,1h1.9
		c0.1-0.3,0.1-0.7,0.2-1H28z M29.4,27.8c-0.1-0.4-0.4-1-0.7-1.4l0.7-0.2c0.3,0.4,0.6,1,0.7,1.4L29.4,27.8z"/>
	<path d="M37.2,19.8c-0.3,0.7-0.6,1.5-1,2.2V29h-1v-5.5c-0.3,0.4-0.6,0.7-0.9,1c-0.1-0.2-0.4-0.8-0.5-1c1-1,1.9-2.5,2.5-4L37.2,19.8
		z M43.5,27.8v0.9h-6.7v-0.9h2.9v-2.4h-2.3v-0.9h2.3v-2.1H37v-0.9h6.3v0.9h-2.7v2.1H43v0.9h-2.4v2.4H43.5z M40,21.4
		c-0.1-0.5-0.5-1.2-0.8-1.7l0.9-0.3c0.3,0.5,0.7,1.2,0.9,1.7L40,21.4z"/>
	<path d="M53.4,22.2v4.2h-1v-0.5h-5.2c-0.2,1.2-0.6,2.4-1.5,3.3c-0.1-0.2-0.5-0.6-0.8-0.7c1.3-1.4,1.5-3.3,1.5-4.9v-3.1
		c2.1-0.2,4.5-0.6,5.9-1l0.8,0.8c-1.6,0.5-3.7,0.8-5.7,1v1H53.4z M52.4,24.9v-1.8h-5v0.5c0,0.4,0,0.9-0.1,1.3H52.4z"/>
	<path d="M65.7,26.8h-2.4v1.3c0,0.5-0.1,0.7-0.5,0.9c-0.4,0.1-0.9,0.1-1.7,0.1c0-0.2-0.2-0.6-0.3-0.8c0.6,0,1.2,0,1.3,0
		c0.2,0,0.2-0.1,0.2-0.2v-1.3h-3.5c0.5,0.3,1.1,0.8,1.4,1.1l-0.7,0.6c-0.3-0.4-1-1-1.6-1.4l0.5-0.4h-2.1V26h6.1v-0.5
		c-2.1,0.1-4.1,0.1-5.6,0.1l0-0.7c1,0,2.4,0,3.8,0v-0.5h-3.1v-2.9h3.1v-0.5h-3.9v-0.8h3.9v-0.7h1v0.7h3.9v0.8h-3.9v0.5h3.2v2.9h-1
		c0.6,0.3,1.2,0.7,1.6,0.9l-0.6,0.5c-0.1-0.1-0.3-0.3-0.5-0.4l-0.9,0V26h2.4V26.8z M58.2,22.6h2.2v-0.5h-2.2V22.6z M60.4,23.7v-0.5
		h-2.2v0.5H60.4z M61.4,22.1v0.5h2.3v-0.5H61.4z M63.7,23.2h-2.3v0.5h2.3V23.2z M61.4,24.8l1.7,0c-0.2-0.1-0.4-0.2-0.6-0.3l0.2-0.2
		h-1.3V24.8z"/>
	<path d="M76.4,25.4c0,0,0,0.2,0,0.3c-0.1,2-0.2,2.7-0.4,3c-0.2,0.2-0.3,0.3-0.6,0.3c-0.2,0-0.5,0-0.9,0c0-0.1,0-0.3-0.1-0.4
		l-0.2,0.1c0-0.1-0.1-0.2-0.2-0.3c-1.7,0.1-3.4,0.3-4.6,0.3l-0.1-0.7c0.7,0,1.6-0.1,2.5-0.1v-0.4H70v-0.9c-0.2,0.1-0.3,0.2-0.5,0.3
		c-0.1-0.2-0.4-0.4-0.6-0.5c-0.2,1-0.4,1.9-0.8,2.6c-0.2-0.2-0.6-0.4-0.8-0.5c0.9-1.6,0.9-4,0.9-5.6v-3.1h8.1v1.9h-0.7l0.3,0.5
		c-0.5,0.2-1.3,0.4-1.8,0.4l-0.2-0.4c0.5-0.1,1.2-0.3,1.6-0.5h-6.4v1.2c0,1,0,2.2-0.2,3.5c0.8-0.4,1.4-0.9,1.7-1.4h-1v-1.4h6.5V25
		h-4.5c-0.1,0.1-0.2,0.2-0.3,0.4H76.4z M69.1,20.5v0.6h6.2v-0.6H69.1z M69.6,23c0.5-0.1,1.2-0.2,1.9-0.3c-0.4-0.2-1.1-0.3-1.7-0.4
		l0.2-0.5c0.7,0.1,1.4,0.2,1.8,0.4l-0.2,0.5l0.4-0.1l0,0.5c-0.8,0.2-1.6,0.3-2.2,0.5L69.6,23z M70.4,24.5h1.1V24h-1.1V24.5z
		 M70.8,25.9c-0.1,0.1-0.3,0.2-0.4,0.4h1.4v-0.4H70.8z M71.9,27.1v-0.4h-1.2v0.4H71.9z M72.2,24.5h1.1V24h-1.1V24.5z M72.4,23.4
		v-1.5h0.9v1.5H72.4z M74.1,27.6c0.2,0.2,0.5,0.5,0.7,0.8c0.1,0,0.1,0,0.2,0c0.1,0,0.2,0,0.3-0.1c0.1-0.2,0.2-0.8,0.3-2.3h-2.8v0.4
		h1.9v1.3H74.1z M73.8,26.7h-1.1v0.4h1.1V26.7z M73.6,27.9c-0.1-0.1-0.1-0.1-0.2-0.2l0.3-0.1h-0.9v0.4L73.6,27.9z M73.8,22.7
		c0.7,0.1,1.5,0.2,2,0.4l-0.2,0.5c-0.5-0.2-1.3-0.4-2-0.5L73.8,22.7z M74.1,24.5h1.2V24h-1.2V24.5z"/>
	<path d="M87.7,21.1c0,0,0,0.3,0,0.5c-0.1,4.7-0.3,6.4-0.7,6.9c-0.3,0.3-0.5,0.4-0.9,0.5c-0.4,0-1,0-1.6,0c0-0.3-0.1-0.7-0.3-0.9
		c0.7,0.1,1.3,0.1,1.5,0.1c0.2,0,0.3,0,0.4-0.2c0.3-0.3,0.5-1.9,0.6-5.9h-2.5c-0.3,0.7-0.6,1.3-1,1.8c-0.2-0.1-0.5-0.4-0.8-0.5V28
		h-2.8v0.8h-0.9v-7.7H80c0.1-0.5,0.3-1.2,0.4-1.7l1.1,0.2c-0.2,0.5-0.4,1.1-0.5,1.5h1.7v2c0.7-0.9,1.2-2.3,1.6-3.7l0.9,0.2
		c-0.1,0.5-0.3,1-0.4,1.4H87.7z M79.7,22v2h2v-2H79.7z M81.7,27.1v-2.3h-2v2.3H81.7z M85.2,26.3c-0.3-0.6-1-1.7-1.5-2.4l0.8-0.4
		c0.6,0.7,1.3,1.7,1.6,2.3L85.2,26.3z"/>
	<path d="M96.8,24.1c-0.4,1-1,1.9-1.7,2.6c1,0.7,2.4,1.2,4,1.5c-0.2,0.2-0.5,0.6-0.6,0.9c-1.7-0.3-3.1-0.9-4.1-1.7
		c-1.1,0.9-2.5,1.4-4.1,1.8c-0.1-0.2-0.4-0.7-0.6-0.9c1.6-0.3,3-0.8,4-1.6c-0.7-0.7-1.2-1.5-1.6-2.5l0.9-0.3
		c0.3,0.8,0.8,1.6,1.5,2.2c0.6-0.6,1.1-1.3,1.4-2.2L96.8,24.1z M93.3,22.4c-0.7,0.9-1.8,1.8-2.8,2.4c-0.2-0.2-0.5-0.6-0.8-0.7
		c0.9-0.5,2-1.3,2.6-2.1L93.3,22.4z M98.8,21.8h-9v-0.9H94c-0.2-0.4-0.4-0.8-0.6-1.2l0.9-0.3c0.3,0.4,0.6,1,0.8,1.4l-0.3,0.1h4.1
		V21.8z M96.2,22c0.9,0.6,2.1,1.6,2.7,2.2l-0.8,0.6c-0.5-0.7-1.7-1.6-2.6-2.3L96.2,22z"/>
	<path d="M102.6,21.2h1.8V22h-3.7v-0.8H102.6c-0.2-0.4-0.5-1-0.8-1.4l0.7-0.4c0.3,0.4,0.6,1,0.8,1.4L102.6,21.2z M104.2,28.5h-2.3
		v0.5h-0.8v-3.5h3.1V28.5z M104.1,23.3h-3.1v-0.8h3.1V23.3z M101.1,24h3.1v0.8h-3.1V24z M101.9,26.2v1.5h1.5v-1.5H101.9z
		 M110.3,27.9v0.9h-5.9v-0.9h1v-5.3h-0.8v-2h2.3c-0.2-0.3-0.4-0.6-0.5-0.9l0.8-0.3c0.3,0.4,0.6,0.9,0.7,1.2h2.1v2h-0.8v5.3H110.3z
		 M105.5,21.4v0.9h3.6v-0.9H105.5z M108.2,23.1h-1.9v1h1.9V23.1z M106.3,25.9h1.9v-1h-1.9V25.9z M106.3,27.9h1.9v-1.2h-1.9V27.9z"/>
	<path d="M113.1,23h-1v-2.4h4c-0.1-0.3-0.3-0.7-0.4-0.9l1-0.3c0.2,0.4,0.5,0.9,0.6,1.2h3.7v2.2h-1v-1.3h-1.8V23
		c0,0.3,0.1,0.4,0.4,0.4h1.7c0.3,0,0.7,0,0.9-0.1c0,0.3,0.1,0.6,0.1,0.9c-0.2,0.1-0.6,0.1-1,0.1h-1.7c-1,0-1.3-0.3-1.3-1.3v-1.5
		h-1.1c-0.1,1.8-0.7,2.7-3.5,3.1c-0.1-0.2-0.3-0.6-0.5-0.8c2.4-0.3,2.8-0.9,2.9-2.3h-2V23z M117.2,27.9h4v0.9h-9v-0.9h4v-2h-3V25h7
		v0.9h-3V27.9z"/>
	<path d="M124.4,23.5v5.6h-1v-9.2h3.9v3.7H124.4z M124.4,20.6v0.7h2v-0.7H124.4z M126.4,22.8V22h-2v0.8H126.4z M132.1,27.9
		c0,0.6-0.1,0.9-0.5,1c-0.4,0.2-0.9,0.2-1.8,0.2c0-0.3-0.2-0.7-0.3-1h-2.8v0.5h-0.9v-4.4h3.9v3.8c0.5,0,1,0,1.2,0
		c0.2,0,0.2-0.1,0.2-0.2v-4.3h-3v-3.7h4V27.9z M126.6,25v0.8h2.1V25H126.6z M128.8,27.4v-0.9h-2.1v0.9H128.8z M129.1,20.6v0.7h2
		v-0.7H129.1z M131.1,22.8V22h-2v0.8H131.1z"/>
	<path d="M135.1,25.7c0.8-0.3,1.3-0.8,1.3-1.4c0,0-0.1,0-0.1,0c-0.5,0-0.9-0.3-0.9-0.8c0-0.5,0.4-0.8,0.9-0.8c0.7,0,1,0.5,1,1.3
		c0,1.2-0.7,2.1-1.9,2.5L135.1,25.7z"/>
	<path d="M142.6,24.9h1.5v0.8h-1.5v0.1c0.4,0.3,1.3,1.1,1.5,1.3l-0.6,0.7c-0.2-0.3-0.6-0.7-1-1.1v2.3h-0.9v-2.3
		c-0.4,0.7-0.8,1.3-1.3,1.7c-0.1-0.2-0.4-0.5-0.6-0.7c0.6-0.5,1.2-1.2,1.7-2H140v-0.8h1.7v-0.6h-1.4v-0.7h1.4v-0.5
		c-0.5,0-1,0.1-1.4,0.1c0-0.2-0.1-0.5-0.2-0.7c0.5,0,1.1-0.1,1.6-0.1v-0.8h0.9v0.7c0.4-0.1,0.7-0.1,1-0.2l0.6,0.6
		c-0.5,0.1-1,0.2-1.6,0.3v0.6h1.3v0.7h-1.3V24.9z M142.2,20.9h-2.1v-0.8h2.1v-0.7h0.9v0.7h1.3v0.8h-1.3v0.5h-0.9V20.9z M149.5,24.1
		v0.8h-5.4v-0.8h1.2v-0.9h-1v-0.8h1v-0.8h0.9v0.8h1.2v-0.8h0.9v0.8h1v0.8h-1v0.9H149.5z M144.7,25.3h4.2V29H148v-0.3h-2.4V29h-0.9
		V25.3z M146.4,20.9H145v-0.8h1.5v-0.7h0.9v0.7h2v0.8h-2v0.5h-0.9V20.9z M145.6,26v0.7h2.4V26H145.6z M148,28v-0.7h-2.4V28H148z
		 M146.2,24.1h1.2v-0.9h-1.2V24.1z"/>
	<path d="M9.3,37.4V45h-1v-0.6H2.2v0.6h-1v-7.6h3.5v-2h1v2H9.3z M2.2,38.4v2h2.6v-2H2.2z M2.2,43.5h2.6v-2.1H2.2V43.5z M5.7,38.4v2
		h2.6v-2H5.7z M8.3,43.5v-2.1H5.7v2.1H8.3z"/>
	<path d="M15.1,41.9c-0.2-0.3-0.6-0.8-1-1.2v4.3h-0.9V41c-0.4,0.4-0.9,0.8-1.3,1.1c-0.1-0.3-0.3-0.8-0.4-1c1.1-0.6,2.2-1.8,2.9-3
		h-2.6v-0.9h2c-0.2-0.4-0.6-1-0.9-1.4l0.8-0.4c0.4,0.4,0.8,1,1,1.3l-0.8,0.5h1.1l0.2,0l0.5,0.4c-0.3,0.8-0.7,1.5-1.2,2.2
		c0.4,0.4,1.2,1.2,1.4,1.4L15.1,41.9z M21.2,43.7v1h-6v-1h2.6v-4.2h-2.2v-0.9h2.2v-3.2h1v3.2H21v0.9h-2.1v4.2H21.2z"/>
	<path d="M30.3,43.7c0.6,0,1.4,0,1.8-0.1c0,0.3,0.1,0.7,0.1,0.9c-0.3,0.1-1.2,0.1-2,0.1h-4.4c-1.7,0-2.5-0.5-2.5-2.2v-5.7h-0.4v-0.9
		h8.8v0.9h-7.4v5.7c0,0.9,0.4,1.2,1.5,1.2H30.3z M25,40.3h2.8v2.7H25V40.3z M25.8,42.4h1.1V41h-1.1V42.4z M30.1,39.7h-4v-2.4h4V39.7
		z M29.1,38H27v1h2.1V38z M31.2,43.1h-2.9v-2.7h2.9V43.1z M30.4,41h-1.2v1.4h1.2V41z"/>
	<path d="M35.1,39.3h-0.9v-2.3h4v-0.6h-3.5v-0.7h8v0.7h-3.5v0.6h4.1v2.3h-1v-1.6h-3.1V40h-1v-2.3h-3V39.3z M42,44.2
		c0.5,0,0.6-0.2,0.7-1.1c0.2,0.1,0.6,0.3,0.8,0.3c-0.1,1.3-0.4,1.6-1.5,1.6h-2.3c-1.3,0-1.6-0.3-1.6-1.2v-0.2H36V44h-0.9v-3.7h7.1
		v3.2H39v0.2c0,0.4,0.1,0.4,0.8,0.4H42z M35.2,39.4c0.7-0.1,1.6-0.2,2.5-0.4l0,0.6c-0.8,0.2-1.6,0.4-2.3,0.5L35.2,39.4z M35.8,37.8
		c0.6,0.1,1.5,0.3,1.9,0.5l-0.3,0.6c-0.5-0.2-1.3-0.4-1.9-0.6L35.8,37.8z M36,41v0.6h2.1V41H36z M38.1,42.9v-0.6H36v0.6H38.1z
		 M41.3,41H39v0.6h2.2V41z M41.3,42.9v-0.6H39v0.6H41.3z M41.9,40.1c-0.6-0.2-1.6-0.5-2.4-0.6l0.2-0.6c0.8,0.1,1.8,0.3,2.4,0.5
		L41.9,40.1z M41.9,38.3c-0.6,0.2-1.4,0.4-2,0.5l-0.3-0.5c0.6-0.1,1.4-0.4,1.9-0.6L41.9,38.3z"/>
	<path d="M48,41.2c-0.1-0.3-0.4-0.8-0.6-1.3v5.1h-0.9v-4.6c-0.3,1-0.7,2-1.1,2.6c-0.1-0.3-0.3-0.7-0.5-1c0.7-0.8,1.3-2.4,1.6-3.8
		h-1.4v-0.9h1.4v-2h0.9v2h1.1v0.9h-1.1v0.4c0.3,0.4,1,1.6,1.2,1.9L48,41.2z M54.5,40.9c0,0,0,0.2,0,0.3c-0.1,1.7-0.2,2.4-0.4,2.7
		c-0.2,0.2-0.3,0.3-0.6,0.3c-0.2,0-0.5,0-0.9,0c0-0.3-0.1-0.7-0.2-0.9c0.3,0,0.6,0,0.7,0c0.1,0,0.2,0,0.3-0.1
		c0.1-0.1,0.2-0.5,0.2-1.6h-1.6v3.4H51v-2.5c-0.7,0.9-1.5,1.6-2.4,2.1c-0.1-0.2-0.4-0.6-0.6-0.7c1-0.4,2-1.3,2.6-2.2h-1.9
		c0.1-0.7,0.3-1.8,0.3-2.6h2v-1.1h-2.3v-0.8H50c-0.1-0.4-0.4-0.9-0.7-1.3l0.8-0.3c0.3,0.5,0.6,1.1,0.8,1.5l-0.3,0.2h1.5
		c0.3-0.5,0.6-1.2,0.8-1.7l0.9,0.3c-0.2,0.5-0.5,1-0.8,1.4h1.1v2.8h-2.2v1H54.5z M49.8,39.9c0,0.3-0.1,0.7-0.1,1H51v-1H49.8z
		 M51.9,39.1h1.3v-1.1h-1.3V39.1z"/>
	<path d="M60.5,39.8h-2.9v5.3h-1v-9.2h3.8V39.8z M57.6,36.7v0.7h2v-0.7H57.6z M59.5,39v-0.8h-2V39H59.5z M65.3,43.8
		c0,0.6-0.1,0.9-0.5,1.1c-0.4,0.2-1,0.2-2,0.2c0-0.3-0.2-0.7-0.3-1c0.7,0,1.4,0,1.6,0c0.2,0,0.3-0.1,0.3-0.3v-4h-3v-3.9h4V43.8z
		 M62.3,36.7v0.7h2v-0.7H62.3z M64.3,39v-0.8h-2V39H64.3z"/>
	<path d="M69.3,38.2c-0.4,0.6-1,1.2-1.5,1.6c-0.1-0.2-0.4-0.5-0.6-0.7c0.7-0.4,1.3-1.1,1.8-1.8h-1.4v-0.8h1.7v-1h0.9v1h1.4v0.8h-1.4
		v0.1c0.4,0.2,1.3,0.9,1.6,1.1L71.3,39c-0.2-0.2-0.7-0.6-1.1-0.9v1.7h-0.9V38.2z M67.5,41.6h9.1v0.8h-4.1v2.6h-1v-2.6h-4V41.6z
		 M70.6,43c-0.6,0.7-1.4,1.4-2.2,1.9c-0.2-0.2-0.5-0.5-0.8-0.6c0.8-0.4,1.6-1,2-1.6L70.6,43z M68.7,40.1h6.9v0.8h-6.9V40.1z
		 M73.8,38c-0.5,0.7-1.1,1.2-1.6,1.6c-0.1-0.2-0.4-0.5-0.6-0.7c0.7-0.4,1.4-1,1.9-1.7H72v-0.8h1.8v-1h0.9v1h1.8v0.8h-1.4
		c0.6,0.5,1.3,1.2,1.7,1.7l-0.6,0.6c-0.3-0.5-0.9-1.1-1.4-1.6v1.8h-0.9V38z M74.2,42.7c0.7,0.5,1.7,1.1,2.2,1.6l-0.8,0.6
		c-0.4-0.5-1.4-1.2-2.1-1.7L74.2,42.7z"/>
	<path d="M80.1,36.9c-0.3,0.5-0.7,1-1.1,1.3c-0.1-0.2-0.5-0.5-0.7-0.6c0.6-0.5,1.2-1.4,1.6-2.2l0.9,0.3c-0.1,0.2-0.2,0.4-0.3,0.5
		h2.5v0.8h-1.8c0.3,0.3,0.6,0.6,0.8,0.8l-0.6,0.5c-0.2-0.3-0.6-0.7-1-1l0.4-0.3H80.1z M83.3,37.5c0.2,0.2,0.3,0.5,0.4,0.8h3.8v1.8
		h-1v-1h-6.7v1h-0.9v-1.8h3.9c-0.1-0.2-0.2-0.4-0.3-0.6L83.3,37.5z M81.1,42.5h5.7v2.6h-1v-0.3h-4.8v0.3h-1v-5.4h6.2v2.2h-5.2V42.5z
		 M81.1,40.4v0.7h4.2v-0.7H81.1z M81.1,43.2V44h4.8v-0.8H81.1z M87.9,36.1v0.8h-2.1c0.4,0.3,0.8,0.6,1,0.9l-0.7,0.6
		c-0.2-0.3-0.7-0.7-1.1-1l0.5-0.4h-1.1c-0.2,0.3-0.5,0.6-0.7,0.8c-0.2-0.2-0.5-0.5-0.7-0.6c0.6-0.4,1-1.1,1.3-1.8l0.9,0.2
		c-0.1,0.2-0.2,0.4-0.3,0.6H87.9z"/>
	<path d="M93,38.7h2.4v0.9H93v0.9h2.1v2.8c0,0.4-0.1,0.7-0.3,0.8c-0.3,0.1-0.7,0.2-1.2,0.1c0-0.2-0.1-0.6-0.3-0.8c0.4,0,0.7,0,0.8,0
		c0.1,0,0.1,0,0.1-0.1v-1.9H93v3.6H92v-3.6h-1.1v2.8H90v-3.7h2v-0.9h-2.5v-0.9h0.7c-0.2-0.1-0.6-0.3-0.8-0.3c0.5-0.7,0.8-1.7,1-2.7
		l0.9,0.2c-0.1,0.3-0.2,0.7-0.3,1H92v-1.4H93v1.4h2v0.9h-2V38.7z M92,38.7v-1h-1.2c-0.1,0.4-0.3,0.7-0.5,1H92z M96.9,42.2H96v-5.8
		h0.9V42.2z M98.8,35.6v8.2c0,0.6-0.1,0.9-0.5,1C98,45,97.4,45,96.6,45c0-0.3-0.2-0.7-0.3-1c0.6,0,1.2,0,1.3,0
		c0.2,0,0.2-0.1,0.2-0.2v-8.3H98.8z"/>
	<path d="M101.7,41.7c0.8-0.3,1.3-0.8,1.3-1.4c0,0-0.1,0-0.1,0c-0.5,0-0.9-0.3-0.9-0.8c0-0.5,0.4-0.8,0.9-0.8c0.7,0,1,0.5,1,1.3
		c0,1.2-0.7,2.1-1.9,2.5L101.7,41.7z"/>
	<path d="M116.1,39.6v1.1h-9.6v-1.1H116.1z"/>
	<path d="M122,40.5v3.4c0,0.5-0.1,0.7-0.4,0.9c-0.3,0.2-0.8,0.2-1.5,0.2c0-0.2-0.2-0.6-0.3-0.9c0.5,0,1,0,1.1,0
		c0.1,0,0.2-0.1,0.2-0.2v-3.3c-0.6,0.1-1.3,0.1-1.9,0.2c-0.1,1.4-0.3,3.1-0.8,4.3c-0.2-0.2-0.5-0.4-0.8-0.5c0.5-1.1,0.7-2.4,0.7-3.7
		l-0.7,0.1l-0.1-0.9l0.8-0.1v-0.4v-3.1h1.1c0.1-0.3,0.2-0.8,0.3-1.1l1,0.1c-0.1,0.3-0.3,0.7-0.4,0.9h1.6v3.2l0.2,0l0,0.8L122,40.5z
		 M119.3,39.9c0.6,0,1.2-0.1,1.8-0.1v-2.5h-1.8v2.3V39.9z M120.1,37.8c0.3,0.4,0.6,1,0.8,1.4l-0.6,0.3c-0.1-0.4-0.5-1-0.7-1.4
		L120.1,37.8z M120.3,43c-0.1-0.4-0.5-1.1-0.8-1.6l0.6-0.3c0.3,0.5,0.6,1.1,0.8,1.5L120.3,43z M127,40c-0.3,1.4-0.8,2.4-1.5,3.2
		c0.5,0.4,1.2,0.7,1.8,0.9c-0.2,0.2-0.5,0.6-0.6,0.8c-0.7-0.3-1.4-0.6-1.9-1c-0.6,0.5-1.3,0.9-2.1,1.1c-0.1-0.2-0.4-0.6-0.6-0.8
		c0.7-0.2,1.4-0.5,2-1c-0.6-0.7-1.1-1.5-1.4-2.4l0.4-0.1h-0.5v-0.9h3.7l0.2,0L127,40z M123.8,37.2c0,0.8-0.1,1.7-0.9,2.3
		c-0.1-0.2-0.5-0.5-0.7-0.6c0.7-0.5,0.7-1.1,0.7-1.7v-1.3h3.2V38c0,0.3,0,0.4,0.1,0.4h0.5c0.1,0,0.3,0,0.5-0.1c0,0.2,0,0.6,0.1,0.8
		c-0.1,0.1-0.3,0.1-0.5,0.1h-0.6c-0.8,0-0.9-0.3-0.9-1.2v-1.3h-1.4V37.2z M123.6,40.7c0.3,0.7,0.7,1.4,1.2,1.9
		c0.5-0.5,0.8-1.2,1.1-1.9H123.6z"/>
	<path d="M132.6,38h-3.8v-0.8h1.8c-0.1-0.4-0.4-1-0.7-1.4l0.7-0.4c0.3,0.4,0.6,1,0.7,1.4l-0.7,0.4h2V38z M135.2,38.1
		c0,0.5,0,1-0.1,1.4h2.8c0,0,0,0.3,0,0.4c-0.1,3.1-0.3,4.2-0.6,4.6c-0.2,0.3-0.4,0.3-0.7,0.4c-0.3,0-0.8,0-1.3,0
		c0-0.3-0.1-0.7-0.3-0.9c0.5,0.1,1,0.1,1.2,0.1c0.2,0,0.3,0,0.4-0.1c0.2-0.2,0.3-1.2,0.4-3.5h-1.9c-0.2,1.9-0.8,3.5-2.2,4.6
		c-0.1-0.2-0.4-0.5-0.6-0.7v0H130v0.5h-0.8v-3.5h2.9v3c1.8-1.3,2-3.7,2.1-6.3h-1.4v-0.9h2.4c-0.1-0.4-0.3-1-0.4-1.5l0.8-0.2
		c0.2,0.5,0.5,1.2,0.5,1.7l-0.1,0h2.2v0.9H135.2z M132.2,38.6v0.8h-2.9v-0.8H132.2z M129.3,40h3v0.8h-3V40z M131.4,42.2H130v1.5h1.4
		V42.2z"/>
	<path d="M147.7,38.4c-0.5,0.8-1.2,1.4-2,2c1.1,0.5,2.5,0.8,3.9,1c-0.2,0.2-0.5,0.7-0.6,0.9c-0.4-0.1-0.9-0.1-1.3-0.3v3h-1v-0.3
		h-3.9v0.3h-1v-3c-0.5,0.1-1,0.3-1.5,0.4c-0.1-0.3-0.3-0.6-0.5-0.9c1.3-0.2,2.7-0.6,3.9-1.2c-0.4-0.3-0.8-0.6-1.2-1
		c-0.4,0.3-0.9,0.6-1.5,0.9c-0.1-0.2-0.4-0.6-0.6-0.7c1.4-0.6,2.4-1.5,3-2.2l1,0.2c-0.1,0.2-0.3,0.4-0.4,0.5h2.8l0.2,0L147.7,38.4z
		 M141.3,38.4h-1v-2.1h4c-0.1-0.3-0.3-0.5-0.4-0.8l1-0.2c0.2,0.3,0.4,0.7,0.6,1h3.7v2.1h-1v-1.2h-6.9V38.4z M146.9,41.8
		c-0.8-0.2-1.5-0.5-2.2-0.9c-0.6,0.3-1.3,0.6-2,0.9H146.9z M146.7,43.9v-1.3h-3.9v1.3H146.7z M143.3,38.9c0.4,0.4,0.9,0.8,1.4,1.1
		c0.6-0.3,1.1-0.7,1.4-1.1L143.3,38.9L143.3,38.9z"/>
	<path d="M2.2,53.4c-0.4,0.5-0.8,0.9-1.3,1.2c-0.1-0.2-0.4-0.6-0.6-0.8c0.9-0.6,1.7-1.6,2.2-2.6l0.9,0.3c-0.2,0.3-0.4,0.7-0.6,1h6.7
		v0.9H2.2z M9.9,57.5v0.9H0.6v-0.9h1.5v-1.6H1V55h1.2V54H3V55H4V54h0.8V55h1V54h0.8V55h1V54h0.9V55h1.1v0.9H8.5v1.6H9.9z M0.7,60.7
		c0.4-0.5,0.8-1.3,1.1-2l0.9,0.2c-0.3,0.7-0.7,1.6-1.1,2.2L0.7,60.7z M3,57.5H4v-1.6H3V57.5z M4.5,58.9c0.1,0.6,0.2,1.4,0.3,1.9
		l-1,0.1c0-0.5-0.1-1.3-0.2-1.9L4.5,58.9z M4.8,55.9v1.6h1v-1.6H4.8z M6.6,58.9c0.3,0.6,0.5,1.4,0.6,1.9l-1,0.2
		c-0.1-0.5-0.3-1.3-0.6-1.9L6.6,58.9z M6.6,55.9v1.6h1v-1.6H6.6z M8.7,58.6c0.4,0.6,0.9,1.5,1.2,2l-1,0.4c-0.2-0.5-0.7-1.4-1.1-2.1
		L8.7,58.6z"/>
	<path d="M13.5,56.2c-0.4-0.3-1.3-0.8-1.9-1.1l0.5-0.7c0.7,0.3,1.5,0.7,2,1.1L13.5,56.2z M11.9,60.3c0.6-0.8,1.4-2.1,2-3.3l0.7,0.7
		c-0.5,1.1-1.2,2.4-1.9,3.3L11.9,60.3z M12.7,51.5c0.7,0.3,1.5,0.7,2,1.1l-0.6,0.8c-0.4-0.4-1.3-0.9-2-1.2L12.7,51.5z M20.2,61.1
		c-0.1-0.3-0.2-0.6-0.4-1c-3.7,0.5-4.2,0.5-4.5,0.7c-0.1-0.2-0.2-0.7-0.3-1c0.2-0.1,0.4-0.3,0.7-0.7c0.2-0.3,0.8-1.3,1.3-2.4h-2.2
		v-0.9h2.6V54h-2.2v-0.9h2.2v-1.7h1v1.7h2.2V54h-2.2v1.7h2.6v0.9H18c-0.5,1-1.1,2.1-1.7,2.9l2.9-0.3c-0.3-0.4-0.5-0.8-0.8-1.2
		l0.8-0.4c0.7,0.9,1.5,2.1,1.8,3L20.2,61.1z"/>
	<path d="M31.3,52.8V61h-1v-0.5h-5.3v0.6h-1v-8.3h2.6c0.1-0.5,0.3-1,0.3-1.4l1.2,0.1c-0.2,0.4-0.3,0.9-0.5,1.3H31.3z M24.9,53.8v1.3
		h5.3v-1.3H24.9z M24.9,56v1.3h5.3V56H24.9z M30.2,59.6v-1.4h-5.3v1.4H30.2z"/>
	<path d="M42.7,53.4V61h-1v-0.6h-6.2v0.6h-1v-7.6h3.5v-2h1v2H42.7z M35.6,54.4v2h2.6v-2H35.6z M35.6,59.5h2.6v-2.1h-2.6V59.5z
		 M39.1,54.4v2h2.6v-2H39.1z M41.7,59.5v-2.1h-2.6v2.1H41.7z"/>
	<path d="M47.7,56.4c-0.2,0.9-0.5,1.9-0.9,2.7c0.2,0.1,0.4,0.3,0.8,0.5c0.7,0.4,1.7,0.5,2.9,0.5c1.3,0,3-0.1,4.2-0.2
		c-0.1,0.3-0.3,0.7-0.3,1c-0.8,0.1-2.7,0.1-4,0.1c-1.4,0-2.3-0.1-3-0.6c-0.4-0.2-0.8-0.6-1-0.6c-0.2,0-0.6,0.7-0.9,1.3l-0.7-0.9
		c0.4-0.5,0.7-0.9,1.1-1.1c0.3-0.6,0.5-1.3,0.7-2h-1.4c0.3-0.6,0.6-1.5,0.8-2.3h-1.1v-0.9h2.3c-0.2,0.7-0.5,1.6-0.8,2.3h0.6l0.1,0
		L47.7,56.4z M46.1,53.5c-0.1-0.5-0.4-1.2-0.5-1.8l0.9-0.3c0.2,0.5,0.4,1.2,0.6,1.7L46.1,53.5z M48.5,54.9c-0.2,0.3-0.4,0.5-0.7,0.7
		c-0.1-0.2-0.4-0.7-0.5-0.9c0.9-0.8,1.6-2,2.1-3.3l0.9,0.3c-0.2,0.5-0.4,1-0.6,1.4h1.8c-0.1-0.4-0.3-0.8-0.5-1.2l0.9-0.3
		c0.3,0.5,0.6,1,0.7,1.5h1.8V54h-2.2v0.8h1.8v0.8h-1.8v0.9h1.8v0.8h-1.8v0.9h2.3V59h-5v0.5h-0.9V54.9z M51.2,54h-1.7v0.8h1.7V54z
		 M51.2,55.6h-1.7v0.9h1.7V55.6z M51.2,57.3h-1.7v0.9h1.7V57.3z"/>
	<path d="M65.1,56.6v4.4H64v-0.6h-7.3v-3.9h1.1v2.9h2.5V56h-3.1v-3.7h1v2.7h2.1v-3.6h1.1v3.6h2.2v-2.7h1.1V56h-3.2v3.5H64v-2.9H65.1
		z"/>
	<path d="M68.3,57.7c0.8-0.3,1.3-0.8,1.3-1.4c0,0-0.1,0-0.1,0c-0.5,0-0.9-0.3-0.9-0.8c0-0.5,0.4-0.8,0.9-0.8c0.7,0,1,0.5,1,1.3
		c0,1.2-0.7,2.1-1.9,2.5L68.3,57.7z"/>
	<path d="M80,58.4c0.8,0.7,1.8,1.4,2.8,1.7c-0.2,0.2-0.5,0.5-0.7,0.8c-0.9-0.4-1.9-1.1-2.7-1.9v2.1h-0.9v-2.7h-1.2v2.7h-0.9v-2
		c-0.7,0.8-1.7,1.4-2.6,1.8c-0.1-0.2-0.4-0.6-0.6-0.7c1-0.4,2-1,2.7-1.8h-1.7v-0.8h2.2v-0.8h-3V56h3v-0.8h-2.1v-0.8h2.1v-0.8h-2.9
		v-0.8h2.3c-0.2-0.3-0.6-0.7-0.9-1l0.9-0.4c0.4,0.4,0.9,0.9,1.2,1.2l-0.4,0.2h2.7c0.4-0.4,0.8-1,1-1.4l1,0.3
		c-0.3,0.4-0.6,0.8-0.9,1.1h2.1v0.8h-3v0.8h2.2V56h1v0.8h-1v1.6H80z M77.3,54.4h1.2v-0.8h-1.2V54.4z M77.3,56h1.2v-0.8h-1.2V56z
		 M78.5,57.6v-0.8h-1.2v0.8H78.5z M79.4,55.2V56h1.2v-0.8H79.4z M80.7,56.8h-1.2v0.8h1.2V56.8z"/>
	<path d="M89.4,60.3c0.5-0.3,1-0.8,1.3-1.1l0.8,0.5c-0.5,0.5-1.1,1.1-1.7,1.4c-0.1-0.2-0.4-0.4-0.6-0.6l0.1-0.1h-2.6V61h-0.7v-2.9
		c-0.1,0.1-0.2,0.2-0.3,0.3c0-0.1-0.1-0.2-0.2-0.3c-0.1,1-0.3,2-0.6,2.9c-0.2-0.1-0.5-0.3-0.7-0.4c0.6-1.5,0.6-3.5,0.6-5v-3.3h0
		c1.3-0.1,2.8-0.3,3.7-0.6l0.7,0.7c-1,0.3-2.3,0.5-3.6,0.6v0.4h3.6v2.3h-3.6v0c0,0.5,0,1.1,0,1.7c0.3-0.5,0.6-1.1,0.8-1.7l0.7,0.2
		c-0.1,0.2-0.2,0.5-0.3,0.7h0.8c-0.1-0.2-0.2-0.5-0.3-0.7l0.7-0.2c0.2,0.3,0.3,0.6,0.4,0.8h1v0.6h-1.1v0.5h1v0.6h-1v0.5h1v0.6h-1
		v0.5h1.2V60.3z M85.6,54.1v0.8h2.7v-0.8H85.6z M87.5,57.1h-0.9v0.5h0.9V57.1z M87.5,58.2h-0.9v0.5h0.9V58.2z M86.6,59.8h0.9v-0.5
		h-0.9V59.8z M91,53.6c0-0.3,0.1-0.6,0.1-0.8h-1.6v-0.8h4.3v0.8h-1.7c-0.1,0.3-0.1,0.6-0.2,0.8h1.6V59h-3.7v-5.4H91z M92.6,54.3
		h-2.1v0.8h2.1V54.3z M92.6,55.8h-2.1v0.8h2.1V55.8z M92.6,57.4h-2.1v0.8h2.1V57.4z M92.6,59.2c0.5,0.4,1,0.9,1.3,1.3L93.2,61
		c-0.3-0.4-0.8-1-1.3-1.4L92.6,59.2z"/>
	<path d="M98.8,51.8c-0.3,0.7-0.6,1.5-1,2.2V61h-1v-5.5c-0.3,0.4-0.6,0.7-0.9,1c-0.1-0.2-0.4-0.8-0.5-1c1-1,1.9-2.5,2.5-4L98.8,51.8
		z M105,59.8v0.9h-6.7v-0.9h2.9v-2.4h-2.3v-0.9h2.3v-2.1h-2.7v-0.9h6.3v0.9h-2.7v2.1h2.4v0.9h-2.4v2.4H105z M101.5,53.4
		c-0.1-0.5-0.5-1.2-0.8-1.7l0.9-0.3c0.3,0.5,0.7,1.2,0.9,1.7L101.5,53.4z"/>
	<path d="M114.9,54.2v4.2h-1v-0.5h-5.2c-0.2,1.2-0.6,2.4-1.5,3.3c-0.1-0.2-0.5-0.6-0.8-0.7c1.3-1.4,1.5-3.3,1.5-4.9v-3.1
		c2.1-0.2,4.5-0.6,5.9-1l0.8,0.8c-1.6,0.5-3.7,0.8-5.7,1v1H114.9z M113.9,56.9v-1.8h-5v0.5c0,0.4,0,0.9-0.1,1.3H113.9z"/>
	<path d="M121,51.7c-0.3,0.7-0.6,1.4-1,2.1v7.3H119v-5.9c-0.3,0.4-0.7,0.8-1,1.2c-0.1-0.2-0.4-0.8-0.5-1c1-1,2-2.5,2.6-4L121,51.7z
		 M124.3,57.3c-0.1,0.7-0.3,1.3-0.6,1.9c1,0.5,2.3,0.9,3.7,1c-0.2,0.2-0.5,0.6-0.6,0.9c-1.4-0.2-2.7-0.6-3.7-1.2
		c-0.5,0.5-1.2,0.9-2.3,1.2c-0.1-0.2-0.4-0.6-0.6-0.8c0.9-0.2,1.6-0.6,2.1-0.9c-0.6-0.5-1-1-1.4-1.6l0.8-0.3
		c0.3,0.5,0.7,0.9,1.2,1.3c0.3-0.4,0.4-0.9,0.5-1.4h-2.4v-3h2.5v-0.9h-2.8v-0.9h2.8v-1h1v1h2.9v0.9h-2.9v0.9h2.6v3H124.3z
		 M123.4,56.5v-0.3v-1h-1.6v1.3H123.4z M124.4,55.1v1c0,0.1,0,0.2,0,0.3h1.7v-1.3H124.4z"/>
	<path d="M137.7,59.8c0,0.6-0.1,0.9-0.5,1c-0.4,0.2-1,0.2-2,0.2c0-0.3-0.2-0.7-0.3-0.9c0.7,0,1.4,0,1.6,0c0.2,0,0.3-0.1,0.3-0.3V58
		h-2.5v3h-1v-3h-2.4c-0.2,1.2-0.5,2.3-1.3,3.2c-0.1-0.2-0.5-0.5-0.8-0.6c1.1-1.3,1.2-3.1,1.2-4.6v-3.7h7.7V59.8z M133.2,57v-1.6
		h-2.3v0.4c0,0.4,0,0.7,0,1.1H133.2z M130.9,53.1v1.5h2.3v-1.5H130.9z M136.7,53.1h-2.5v1.5h2.5V53.1z M136.7,57v-1.6h-2.5V57H136.7
		z"/>
	<path d="M149.3,53.1c0,0,0,0.3,0,0.5c-0.1,4.7-0.3,6.4-0.7,6.9c-0.3,0.3-0.5,0.4-0.9,0.5c-0.4,0-1,0-1.6,0c0-0.3-0.1-0.7-0.3-0.9
		c0.7,0.1,1.3,0.1,1.5,0.1c0.2,0,0.3,0,0.4-0.2c0.3-0.3,0.5-1.9,0.6-5.9h-2.5c-0.3,0.7-0.6,1.3-1,1.8c-0.2-0.1-0.5-0.4-0.8-0.5V60
		h-2.8v0.8h-0.9v-7.7h1.2c0.1-0.5,0.3-1.2,0.4-1.7l1.1,0.2c-0.2,0.5-0.4,1.1-0.5,1.5h1.7v2c0.7-0.9,1.2-2.3,1.6-3.7l0.9,0.2
		c-0.1,0.5-0.3,1-0.4,1.4H149.3z M141.3,54v2h2v-2H141.3z M143.2,59.1v-2.3h-2v2.3H143.2z M146.7,58.3c-0.3-0.6-1-1.7-1.5-2.4
		l0.8-0.4c0.6,0.7,1.3,1.7,1.6,2.3L146.7,58.3z"/>
	<path d="M3.8,68.2c-0.3,0.9-0.6,1.9-0.9,2.7c0.7,0.8,0.8,1.6,0.8,2.2c0,0.6-0.1,1.1-0.4,1.3c-0.1,0.1-0.3,0.2-0.5,0.2
		c-0.2,0-0.4,0-0.7,0C2,74.4,2,74,1.8,73.8c0.2,0,0.4,0,0.5,0c0.1,0,0.2,0,0.3-0.1c0.1-0.1,0.2-0.4,0.2-0.7c0-0.5-0.2-1.2-0.8-2
		c0.3-0.7,0.5-1.6,0.7-2.3H1.6V77H0.8v-9.2h2.2l0.1,0L3.8,68.2z M3.4,76.6c0.3-0.5,0.6-1.2,0.8-1.7l0.7,0.3
		c-0.2,0.6-0.4,1.3-0.8,1.8L3.4,76.6z M8.7,73.4H3.9v-0.6h4.8v-0.5H4.2v-0.6h5.3v1H10v0.6H9.5v1.1H6.8c0.3,0.3,0.7,0.6,0.9,0.9
		l-0.5,0.5C7,75.5,6.4,75,6,74.7l0.3-0.2H4.2v-0.6h4.5V73.4z M5.1,68.7c-0.3,0-0.6,0-0.9,0c0-0.2-0.1-0.5-0.2-0.7
		c1.9-0.1,4.1-0.3,5.3-0.6l0.6,0.6C9.1,68.3,8,68.4,7,68.5c0.2,0.3,0.4,0.6,0.5,0.9l-0.6,0.2h1.1c0.3-0.4,0.5-0.8,0.7-1.2l0.7,0.2
		c-0.2,0.3-0.4,0.7-0.6,1h0.8v0.6H7.4v0.5H10v0.6H4v-0.6h2.4v-0.5H4.3v-0.6h0.6c-0.1-0.2-0.3-0.5-0.5-0.7L5.1,68.7z M7.6,76.3
		c0.3,0,0.3-0.1,0.4-0.6c0.2,0.1,0.5,0.2,0.8,0.3c-0.1,0.8-0.3,1-1,1H6.3c-1,0-1.2-0.2-1.2-1v-1.2h0.9V76c0,0.2,0.1,0.3,0.4,0.3H7.6
		z M6.7,69.6c-0.1-0.2-0.3-0.6-0.4-0.8l0.7-0.2c-0.5,0.1-1.1,0.1-1.7,0.1c0.2,0.2,0.4,0.5,0.5,0.7l-0.6,0.3H6.7z M9.1,74.8
		c0.4,0.5,0.8,1.2,1,1.7l-0.7,0.3c-0.2-0.5-0.6-1.2-1-1.7L9.1,74.8z"/>
	<path d="M15.5,73.9c-0.2-0.3-0.6-1-1-1.5v4.7h-0.9v-4.4c-0.5,1-1,2-1.6,2.6c-0.1-0.3-0.3-0.7-0.5-0.9c0.7-0.7,1.5-2,1.9-3.1h-1.6
		v-0.9h1.8V69c-0.5,0.1-1,0.2-1.5,0.2c0-0.2-0.2-0.5-0.3-0.8c1.3-0.2,2.9-0.5,3.8-0.9l0.5,0.8c-0.5,0.2-1,0.3-1.6,0.4v1.6h1.6v0.9
		h-1.6v0.1c0.3,0.3,1.4,1.4,1.6,1.7L15.5,73.9z M20.2,76.8c-0.1-0.3-0.2-0.7-0.3-1.1c-3.4,0.5-3.9,0.6-4.2,0.8
		c-0.1-0.2-0.2-0.7-0.3-1c0.3-0.1,0.5-0.6,0.8-1.4c0.3-0.8,1.2-3.7,1.6-6.4l1,0.2c-0.5,2.5-1.2,5.2-1.9,7.3l2.8-0.4
		c-0.3-0.9-0.7-1.9-1-2.7l0.9-0.3c0.7,1.5,1.4,3.5,1.7,4.7L20.2,76.8z"/>
	<path d="M22.5,72.1c0.3-0.7,0.5-1.9,0.5-2.7l0.7,0.1c-0.1,0.9-0.2,2.1-0.5,2.9L22.5,72.1z M32.2,75.8v0.9h-6.4v-0.9h2.9v-2.4h-2.1
		v-0.9h2.1v-2h-1.4c-0.2,0.6-0.4,1.1-0.7,1.6c-0.2-0.1-0.6-0.4-0.9-0.5c0.1-0.2,0.3-0.5,0.4-0.7l-0.6,0.3c-0.1-0.4-0.4-1.1-0.6-1.6
		v7.5h-1v-9.6h1v1.9l0.6-0.3c0.3,0.5,0.6,1.1,0.7,1.6c0.3-0.8,0.6-1.8,0.7-2.8l1,0.2c-0.1,0.5-0.2,1-0.3,1.5h1.1v-2.1h1v2.1h2.3v0.9
		h-2.3v2h2v0.9h-2v2.4H32.2z"/>
	<path d="M35.9,70.6c0.9,0,1.6,0.7,1.6,1.6c0,0.9-0.7,1.6-1.6,1.6c-0.9,0-1.6-0.7-1.6-1.6C34.3,71.4,35,70.6,35.9,70.6z M35.9,73.3
		c0.6,0,1-0.5,1-1s-0.5-1-1-1c-0.5,0-1,0.5-1,1S35.4,73.3,35.9,73.3z"/>
	<path d="M43.1,75.6c-0.3-0.4-0.8-1.2-1.2-1.8c-0.3,1.1-0.7,2.2-1.7,3.1c-0.1-0.2-0.5-0.5-0.7-0.7c1.2-1,1.6-2.5,1.7-3.8h-1.6v-0.9
		h1.6c0-0.2,0-0.4,0-0.7V70h-1.4v-0.9h1.4v-1.6h0.9v1.6h1.4V70h-1.4v0.9c0,0.2,0,0.4,0,0.7h1.6v0.9h-1.7c0,0.1,0,0.3,0,0.4
		c0.4,0.4,1.5,1.7,1.7,2L43.1,75.6z M48.2,76c0.2,0,0.2-0.1,0.2-0.8c0.2,0.1,0.5,0.3,0.8,0.4c-0.1,1-0.3,1.3-0.9,1.3h-0.8
		c-0.8,0-1-0.3-1-1.1v-2h-0.6c-0.2,1.6-0.7,2.7-2.5,3.4c-0.1-0.2-0.3-0.6-0.5-0.7c1.6-0.5,2-1.4,2.1-2.6h-0.9v-5.9h4.5v5.9h-1.2v2
		c0,0.3,0,0.3,0.2,0.3H48.2z M45,69.5h2.7v-0.8H45V69.5z M45,71.2h2.7v-0.8H45V71.2z M45,72.8h2.7V72H45V72.8z"/>
	<path d="M56,69.1h0.6v0.6H56v1.1h-2v0.4h2.1v0.6H54v0.4h2.5v0.7h-5.9v-0.7h2.4v-0.4h-1.9v-0.6h1.9v-0.4h-1.9v-0.6h1.9v-0.5h-2.5
		v-0.6h2.5v-0.4h-1.9v-0.6h1.9v-0.6H54v0.6h2V69.1z M50.6,76c1.5,0,3.8-0.1,6-0.2l0,0.7c-2.1,0.1-4.4,0.2-5.9,0.3L50.6,76z M56,73.2
		v2.3h-4.8v-2.3H56z M52.1,74.1h1.2v-0.4h-1.2V74.1z M52.1,75h1.2v-0.4h-1.2V75z M54,69.1h1.2v-0.4H54V69.1z M55.2,69.7H54v0.5h1.2
		V69.7z M55.2,73.7h-1.2v0.4h1.2V73.7z M55.2,74.6h-1.2V75h1.2V74.6z M57.9,74.5H57v-5.8h0.9V74.5z M59.9,67.6v8.3
		c0,0.5-0.1,0.8-0.5,1c-0.3,0.1-0.9,0.2-1.7,0.2c0-0.3-0.2-0.7-0.3-1c0.6,0,1.1,0,1.3,0c0.2,0,0.2-0.1,0.2-0.2v-8.3H59.9z"/>
	<path d="M65.5,69.7c-0.2,0.4-0.4,0.7-0.6,1h5v5.2c0,0.5-0.1,0.8-0.5,1c-0.4,0.2-1,0.2-1.8,0.2c0-0.3-0.2-0.7-0.3-0.9
		c0.6,0,1.2,0,1.4,0c0.2,0,0.2-0.1,0.2-0.2V75h-4.2c-0.2,0.8-0.5,1.6-1.1,2.1c-0.1-0.2-0.5-0.6-0.7-0.8c0.9-0.8,1-2,1-2.9v-1.2
		c-0.5,0.5-1,1-1.5,1.4c-0.1-0.2-0.4-0.6-0.6-0.8c1.2-0.8,2-1.9,2.7-3.2H62v-0.9h2.9c0.2-0.4,0.3-0.9,0.4-1.3l1,0.2
		c-0.1,0.4-0.2,0.7-0.4,1.1h5.2v0.9H65.5z M69,74.2v-0.9h-4.1v0.2c0,0.2,0,0.5,0,0.7H69z M69,71.6h-4.1v0.9H69V71.6z"/>
	<path d="M76.1,74.3h-2v1h-0.9v-6.9h2.9V74.3z M74.1,69.3v4.1h1.1v-4.1H74.1z M80.9,76c0.6,0,0.7-0.3,0.8-1.4
		c0.2,0.1,0.6,0.3,0.9,0.4c-0.1,1.4-0.4,1.9-1.6,1.9h-2.4c-1.3,0-1.6-0.3-1.6-1.6v-7.2h5.2v5.6h-1V73h-3.3v2.2
		c0,0.6,0.1,0.7,0.8,0.7H80.9z M77.9,69v3.1H79V69H77.9z M81.1,69h-1.2v3.1h1.2V69z"/>
	<path d="M93.5,76v0.7h-6.8V76h2.9v-0.5h-2.2v-0.6h2.2v-0.5c-1.3,0.1-1.6,0.1-1.8,0.1c0-0.2-0.2-0.5-0.2-0.7c0.2,0,0.5-0.1,0.7-0.3
		c0.1-0.1,0.3-0.2,0.5-0.3h-1.2v-0.1h-0.7v-1l-0.4,0.6c-0.1-0.2-0.3-0.6-0.5-0.9v5.2h-0.8v-4.7c-0.3,1-0.7,2-1.1,2.6
		c-0.1-0.3-0.3-0.7-0.5-1c0.6-0.8,1.2-2.4,1.5-3.8H84v-0.9h1.4v-2h0.8v2h1.1v0.9h-1.1v0.5c0.2,0.3,0.7,0.9,0.9,1.2v-0.1h6.3v1.4
		h-0.8v0.1h-0.9c0.4,0.3,0.9,0.7,1.1,1l-0.6,0.4c-0.1-0.1-0.2-0.3-0.3-0.4l-1.3,0v0.5h2.2v0.6h-2.2V76H93.5z M89.7,68.7h-2.6v-0.6
		h2.6v-0.6h0.9v0.6h2.7v0.6h-2.7v0.4h2.2v0.6h-5.2v-0.6h2.1V68.7z M87.7,71.5V70h5v1.5H87.7z M88,72.4v0.3h4.6v-0.3H88z M88.6,71
		h3.3v-0.5h-3.3V71z M89.9,73.3c-0.2,0.2-0.4,0.4-0.7,0.5l2.1-0.1c-0.1-0.1-0.2-0.2-0.3-0.3l0.3-0.2H89.9z"/>
	<path d="M102.6,75.7c0.6,0,1.4,0,1.8-0.1c0,0.3,0.1,0.7,0.1,0.9c-0.3,0.1-1.2,0.1-2,0.1h-4.4c-1.7,0-2.5-0.5-2.5-2.2v-5.7h-0.4
		v-0.9h8.8v0.9h-7.4v5.7c0,0.9,0.4,1.2,1.5,1.2H102.6z M97.3,72.3h2.8v2.7h-2.8V72.3z M98.1,74.4h1.1V73h-1.1V74.4z M102.3,71.7h-4
		v-2.4h4V71.7z M101.4,70h-2.1v1h2.1V70z M103.5,75.1h-2.9v-2.7h2.9V75.1z M102.7,73h-1.2v1.4h1.2V73z"/>
	<path d="M109.9,73.1l-0.9,0.8c-0.7-0.8-1.6-1.7-2.3-2.3l0.9-0.7C108.3,71.4,109.3,72.4,109.9,73.1z"/>
	<path d="M119.2,72.1c-0.4,1-1,1.9-1.7,2.6c1,0.7,2.4,1.2,4,1.5c-0.2,0.2-0.5,0.6-0.6,0.9c-1.7-0.3-3.1-0.9-4.1-1.7
		c-1.1,0.9-2.5,1.4-4.1,1.8c-0.1-0.2-0.4-0.7-0.6-0.9c1.6-0.3,3-0.8,4-1.6c-0.7-0.7-1.2-1.5-1.6-2.5l0.9-0.3
		c0.3,0.8,0.8,1.6,1.5,2.2c0.6-0.6,1.1-1.3,1.4-2.2L119.2,72.1z M115.7,70.4c-0.7,0.9-1.8,1.8-2.8,2.4c-0.2-0.2-0.5-0.6-0.8-0.7
		c0.9-0.5,2-1.3,2.6-2.1L115.7,70.4z M121.2,69.8h-9v-0.9h4.2c-0.2-0.4-0.4-0.8-0.6-1.2l0.9-0.3c0.3,0.4,0.6,1,0.8,1.4l-0.3,0.1h4.1
		V69.8z M118.6,70c0.9,0.6,2.1,1.6,2.7,2.2l-0.8,0.6c-0.5-0.7-1.7-1.6-2.6-2.3L118.6,70z"/>
	<path d="M124.9,69.2h1.8V70H123v-0.8H124.9c-0.2-0.4-0.5-1-0.8-1.4l0.7-0.4c0.3,0.4,0.6,1,0.8,1.4L124.9,69.2z M126.5,76.5h-2.3
		v0.5h-0.8v-3.5h3.1V76.5z M126.5,71.3h-3.1v-0.8h3.1V71.3z M123.4,72h3.1v0.8h-3.1V72z M124.2,74.2v1.5h1.5v-1.5H124.2z
		 M132.6,75.9v0.9h-5.9v-0.9h1v-5.3h-0.8v-2h2.3c-0.2-0.3-0.4-0.6-0.5-0.9l0.8-0.3c0.3,0.4,0.6,0.9,0.7,1.2h2.1v2h-0.8v5.3H132.6z
		 M127.8,69.4v0.9h3.6v-0.9H127.8z M130.6,71.1h-1.9v1h1.9V71.1z M128.6,73.9h1.9v-1h-1.9V73.9z M128.6,75.9h1.9v-1.2h-1.9V75.9z"/>
	<path d="M141.7,75.7c0.6,0,1.4,0,1.8-0.1c0,0.3,0.1,0.7,0.1,0.9c-0.3,0.1-1.2,0.1-2,0.1h-4.4c-1.7,0-2.5-0.5-2.5-2.2v-5.7h-0.4
		v-0.9h8.8v0.9h-7.4v5.7c0,0.9,0.4,1.2,1.5,1.2H141.7z M136.4,72.3h2.8v2.7h-2.8V72.3z M137.2,74.4h1.1V73h-1.1V74.4z M141.5,71.7
		h-4v-2.4h4V71.7z M140.5,70h-2.1v1h2.1V70z M142.6,75.1h-2.9v-2.7h2.9V75.1z M141.8,73h-1.2v1.4h1.2V73z"/>
	<path d="M149,73.1l-0.9,0.8c-0.7-0.8-1.6-1.7-2.3-2.3l0.9-0.7C147.4,71.4,148.4,72.4,149,73.1z"/>
	<path d="M3.1,83.7c-0.2,0.7-0.5,1.4-0.7,2.1v7.3H1.5v-5.6c-0.2,0.3-0.4,0.7-0.6,0.9c-0.1-0.2-0.3-0.8-0.5-1c0.8-1,1.4-2.4,1.8-3.9
		L3.1,83.7z M5.3,87.3C5.2,88.8,5,90,4.6,91c0.9,0.9,2.2,1.1,3.5,1.1c0.3,0,1.5,0,2,0c-0.1,0.2-0.3,0.6-0.3,0.8H8.1
		c-1.5,0-2.8-0.2-3.9-1.2c-0.3,0.6-0.7,1-1.2,1.3c-0.1-0.2-0.5-0.5-0.6-0.6c0.5-0.3,0.9-0.8,1.3-1.4c-0.4-0.5-0.7-1.1-0.9-1.9
		l0.7-0.3c0.1,0.5,0.3,1,0.6,1.3c0.2-0.6,0.4-1.4,0.5-2.3H2.9c0.3-0.8,0.8-1.9,1.2-3H3v-0.8h2.2c-0.3,1-0.8,2.1-1.1,3h0.6l0.1,0
		L5.3,87.3z M7,85H5.7v-0.7H7v-0.8h0.8v0.8h1.6v1.4H10v0.7H9.3v1.4H7.8v0.6h1.7v0.8H7.8v0.7h2v0.8h-2v1.1H7v-1.1H5.3v-0.8H7v-0.7
		H5.6v-0.8H7v-0.6H5.7v-0.7H7v-0.7H5.2v-0.7H7V85z M7.8,85v0.7h0.8V85H7.8z M8.6,86.4H7.8v0.7h0.8V86.4z"/>
	<path d="M20.6,87.2c-0.5,0.7-1.1,1.4-1.7,2v2.5c0,0.6-0.1,0.9-0.5,1.1C17.9,93,17.3,93,16.2,93c-0.1-0.3-0.2-0.8-0.3-1
		c0.7,0,1.5,0,1.7,0c0.2,0,0.3-0.1,0.3-0.3v-1.7c-1.7,1.3-3.8,2.3-6,2.9c-0.1-0.2-0.5-0.7-0.7-0.9c2-0.5,3.8-1.2,5.4-2.3
		c-1.8,0.1-3.6,0.3-4.9,0.4l-0.1-0.9c0.4,0,0.8-0.1,1.3-0.1v-4.8h2.2c0.1-0.3,0.3-0.7,0.4-1l1.2,0.2c-0.2,0.3-0.3,0.6-0.5,0.9h2.8
		v3.4c0.3-0.3,0.6-0.7,0.8-1L20.6,87.2z M13.9,85.3v0.8h4v-0.8H13.9z M13.9,87.6h4v-0.8h-4V87.6z M13.9,89.2
		c1.2-0.1,2.6-0.2,3.9-0.3l0.1-0.1v-0.5h-4V89.2z"/>
	<path d="M27,89.4c0,0.3-0.1,0.5-0.1,0.7h3.5c0,0,0,0.3,0,0.4c-0.1,1.4-0.3,2-0.5,2.3C29.6,93,29.4,93,29,93c-0.3,0-0.8,0-1.3,0
		c0-0.3-0.1-0.6-0.3-0.8c0.5,0.1,1,0.1,1.2,0.1c0.2,0,0.3,0,0.4-0.1c0.1-0.1,0.2-0.5,0.3-1.3h-2.7c-0.4,1-1.2,1.7-2.7,2.2
		c-0.1-0.2-0.3-0.6-0.5-0.8c2-0.5,2.5-1.5,2.7-2.9h-2.1c-0.1,1.3-0.5,2.7-1.3,3.7c-0.1-0.2-0.5-0.6-0.7-0.7c1.1-1.4,1.2-3.4,1.2-4.9
		v-3.3h0c2.4-0.1,5.1-0.4,6.7-0.8l0.7,0.7c-1.8,0.4-4.2,0.6-6.5,0.8v0.5h6.7v2.4H24c0,0.3,0,0.6,0,0.9h3c-0.1-0.2-0.2-0.5-0.3-0.7
		l0.9-0.2c0.2,0.3,0.4,0.6,0.5,0.9h3.3v0.8H27z M24,86.2V87h5.7v-0.9H24z"/>
	<path d="M34.3,85c-0.3,0.5-0.7,0.9-1,1.2c-0.1-0.2-0.5-0.5-0.7-0.7c0.7-0.5,1.2-1.3,1.6-2.2l0.9,0.3c-0.1,0.2-0.2,0.4-0.3,0.5h2.5
		V85h-1.7c0.3,0.3,0.7,0.6,0.8,0.8l-0.6,0.6c-0.2-0.3-0.7-0.7-1-1.1l0.4-0.3H34.3z M40,89.8h2v0.8h-2v1.6c0,0.5-0.1,0.7-0.5,0.8
		c-0.4,0.1-1,0.1-1.9,0.1c0-0.3-0.2-0.6-0.3-0.8c0.6,0,1.3,0,1.4,0c0.2,0,0.2-0.1,0.2-0.2v-1.5h-3.8c0.6,0.4,1.3,1.1,1.7,1.5
		l-0.7,0.6c-0.3-0.4-1.1-1.1-1.7-1.6l0.6-0.5h-2.4v-0.8H39v-0.6h1V89.8z M42.2,84.1V85h-2.1c0.3,0.3,0.7,0.7,0.8,0.9l-0.7,0.6
		c-0.2-0.3-0.6-0.8-1-1.1l0.4-0.4h-0.9c-0.3,0.5-0.6,0.9-0.9,1.2l0,0v0.3h3.8v0.8h-3.8v0.8h3.2v0.8h-7.4v-0.8h3.2v-0.8h-3.7v-0.8
		h3.7v-0.6h0.7c-0.1-0.1-0.3-0.2-0.4-0.3c0.6-0.6,1-1.4,1.3-2.3l0.9,0.2c-0.1,0.2-0.1,0.4-0.2,0.6H42.2z"/>
	<path d="M52.9,86.4v0.7h-1.8L51,87.9h-6l0.1-0.9h-1.7v-0.7h1.8l0.1-0.8h5.9l-0.1,0.8H52.9z M49.7,91.6c1.1,0.3,2.2,0.6,2.9,0.9
		l-0.7,0.6c-0.7-0.3-2-0.7-3.2-1l0.4-0.5H47l0.6,0.4c-0.9,0.5-2.3,0.9-3.5,1c-0.1-0.2-0.4-0.5-0.5-0.7c1-0.1,2.3-0.5,3-0.8h-1.8
		v-3.3h6.7v3.3H49.7z M44.7,86h-0.9v-1.7h3.9c-0.1-0.3-0.3-0.5-0.4-0.7l0.8-0.2c0.2,0.3,0.4,0.7,0.6,1h3.8V86h-0.9v-1h-7V86z
		 M45.8,89.3h4.8v-0.4h-4.8V89.3z M45.8,90.2h4.8v-0.4h-4.8V90.2z M45.8,91.1h4.8v-0.4h-4.8V91.1z M45.9,87.4h1.7
		c0-0.1,0-0.3,0.1-0.5H46L45.9,87.4z M46.1,86l-0.1,0.4h1.7l0-0.4H46.1z M50.2,87.4l0-0.5h-1.7c0,0.2,0,0.3-0.1,0.5H50.2z M50.3,86
		h-1.7l0,0.4h1.7L50.3,86z"/>
	<path d="M63,91.8c0,0.6-0.1,0.9-0.5,1c-0.4,0.2-1,0.2-2,0.2c0-0.3-0.2-0.7-0.3-0.9c0.7,0,1.4,0,1.6,0c0.2,0,0.3-0.1,0.3-0.3V90
		h-2.5v3h-1v-3h-2.4c-0.2,1.2-0.5,2.3-1.3,3.2c-0.1-0.2-0.5-0.5-0.8-0.6c1.1-1.3,1.2-3.1,1.2-4.6v-3.7H63V91.8z M58.5,89v-1.6h-2.3
		v0.4c0,0.4,0,0.7,0,1.1H58.5z M56.2,85.1v1.5h2.3v-1.5H56.2z M62,85.1h-2.5v1.5H62V85.1z M62,89v-1.6h-2.5V89H62z"/>
	<path d="M74.4,90.6h-9.5v-0.9h1l-0.2-5.5c0.7-0.2,1.4-0.5,2-0.8l0.5,0.8c-0.5,0.2-1,0.3-1.5,0.5l0,1.1H68v0.8h-1.3l0,1.1H68v0.8
		h-1.2l0,1.1h5.7c0-0.3,0-0.7,0.1-1.1h-1.2v-0.8h1.3c0-0.4,0-0.7,0-1.1h-1.2v-0.8h1.3c0-0.4,0-0.8,0-1.1h-1.4v-0.9h2.3
		c0,1.8-0.1,4.3-0.2,5.8h1V90.6z M68.7,91.3c-0.9,0.6-2.1,1.3-3.2,1.7c-0.1-0.2-0.4-0.5-0.6-0.7c1-0.4,2.3-1.1,2.9-1.6L68.7,91.3z
		 M69.5,87.4c-0.1,0.7-0.3,1.4-0.6,1.9c-0.1-0.1-0.5-0.3-0.6-0.4c0.3-0.4,0.4-1,0.5-1.6L69.5,87.4z M70.1,86.9h-1.6v-3.4h0.8v0.9H71
		v0.8h-1.7v1h1.3v0h0.3v2.7c0,0.4-0.1,0.5-0.3,0.6c-0.3,0.1-0.6,0.1-1.1,0.1c0-0.2-0.1-0.5-0.2-0.6c0.3,0,0.6,0,0.7,0
		c0.1,0,0.1,0,0.1-0.1V86.9z M73.5,93c-0.7-0.5-1.8-1.2-2.9-1.7l0.5-0.7c1.1,0.5,2.3,1.2,3,1.6L73.5,93z"/>
	<path d="M76,88.5h3.8V93h-1v-0.5h-1.9v0.5H76V88.5z M76.9,89.4v2.2h1.9v-2.2H76.9z M83.3,87.5h-5.9v-3.6h5.9V87.5z M82.3,84.8h-3.9
		v1.7h3.9V84.8z M84.8,88.5V93h-1v-0.5h-2.1v0.5h-0.9v-4.6H84.8z M83.8,91.6v-2.2h-2.1v2.2H83.8z"/>
	<path d="M87.5,90.5v0.8h-0.9v-6.9h2.9v6.1H87.5z M87.5,85.3v4.2h1.1v-4.2H87.5z M93.6,88.5c0.6,1.3,1.5,2.5,2.4,3.1
		c-0.2,0.2-0.6,0.5-0.7,0.8c-0.7-0.6-1.4-1.6-2-2.7v3.3h-1v-3.3c-0.7,1.1-1.5,2.1-2.5,2.7c-0.1-0.2-0.4-0.6-0.7-0.8
		c1.1-0.6,2.2-1.9,2.8-3.2h-2.1v-0.9h2.4V86h-2v-0.9h2v-1.6h1v1.6h2.2V86h-2.2v1.6h2.6v0.9H93.6z"/>
	<path d="M103.9,90.4c0.8,0.7,1.8,1.4,2.8,1.7c-0.2,0.2-0.5,0.5-0.7,0.8c-0.9-0.4-1.9-1.1-2.7-1.9v2.1h-0.9v-2.7h-1.2v2.7h-0.9v-2
		c-0.7,0.8-1.7,1.4-2.6,1.8c-0.1-0.2-0.4-0.6-0.6-0.7c1-0.4,2-1,2.7-1.8H98v-0.8h2.2v-0.8h-3V88h3v-0.8h-2.1v-0.8h2.1v-0.8h-2.9
		v-0.8h2.3c-0.2-0.3-0.6-0.7-0.9-1l0.9-0.4c0.4,0.4,0.9,0.9,1.2,1.2l-0.4,0.2h2.7c0.4-0.4,0.8-1,1-1.4l1,0.3
		c-0.3,0.4-0.6,0.8-0.9,1.1h2.1v0.8h-3v0.8h2.2V88h1v0.8h-1v1.6H103.9z M101.1,86.4h1.2v-0.8h-1.2V86.4z M101.1,88h1.2v-0.8h-1.2V88
		z M102.4,89.6v-0.8h-1.2v0.8H102.4z M103.3,87.2V88h1.2v-0.8H103.3z M104.5,88.8h-1.2v0.8h1.2V88.8z"/>
	<path d="M114.3,90.8c1.1,0.5,2.3,1.1,3.1,1.5l-0.8,0.7c-0.7-0.5-1.9-1.1-3-1.6l0.6-0.6h-3.4l0.8,0.6c-0.8,0.6-2.1,1.3-3.1,1.7
		c-0.2-0.2-0.5-0.5-0.7-0.7c1-0.3,2.3-1,3-1.5h-2.8v-0.9h1.5v-6h6.4v6h1.4v0.9H114.3z M110.4,84.7v0.7h4.5v-0.7H110.4z M114.8,86.2
		h-4.5v0.7h4.5V86.2z M110.4,87.6v0.8h4.5v-0.8H110.4z M110.4,89.9h4.5v-0.8h-4.5V89.9z"/>
	<path d="M127.8,85.1c0,0,0,0.3,0,0.5c-0.1,4.7-0.3,6.4-0.7,6.9c-0.3,0.3-0.5,0.4-0.9,0.5c-0.4,0-1,0-1.6,0c0-0.3-0.1-0.7-0.3-0.9
		c0.7,0.1,1.3,0.1,1.5,0.1c0.2,0,0.3,0,0.4-0.2c0.3-0.3,0.5-1.9,0.6-5.9h-2.5c-0.3,0.7-0.6,1.3-1,1.8c-0.2-0.1-0.5-0.4-0.8-0.5V92
		h-2.8v0.8h-0.9v-7.7h1.2c0.1-0.5,0.3-1.2,0.4-1.7l1.1,0.2c-0.2,0.5-0.4,1.1-0.5,1.5h1.7v2c0.7-0.9,1.2-2.3,1.6-3.7l0.9,0.2
		c-0.1,0.5-0.3,1-0.4,1.4H127.8z M119.8,86v2h2v-2H119.8z M121.8,91.1v-2.3h-2v2.3H121.8z M125.3,90.3c-0.3-0.6-1-1.7-1.5-2.4
		l0.8-0.4c0.6,0.7,1.3,1.7,1.6,2.3L125.3,90.3z"/>
	<path d="M138.8,88.8v1h-9.4v-1h2.3v-2.3h-1.9v-0.9h1.9v-2h1v2h2.7v-2h1v2h2v0.9h-2v2.3H138.8z M133.2,90.6c-0.8,0.9-1.9,1.9-3,2.4
		c-0.2-0.2-0.6-0.5-0.8-0.7c1-0.5,2.1-1.4,2.7-2.2L133.2,90.6z M132.7,88.8h2.7v-2.3h-2.7V88.8z M135.7,90.2
		c0.9,0.7,2.2,1.7,2.9,2.3l-0.9,0.6c-0.6-0.6-1.9-1.6-2.8-2.4L135.7,90.2z"/>
	<path d="M149.4,91.1h-4.2v1c0,0.5-0.1,0.7-0.6,0.8s-1.1,0.1-2,0.1c-0.1-0.3-0.2-0.6-0.3-0.8c0.7,0,1.4,0,1.6,0
		c0.2,0,0.3-0.1,0.3-0.2v-1h-4.1v-0.8h4.1v-0.5h0l0,0c0.6-0.1,1.2-0.3,1.8-0.5h-4.9v-0.8h6.2v0h0.3l0.2,0l0.6,0.6
		c-0.9,0.5-2,0.9-3.2,1.2v0.1h4.2V91.1z M149.3,85.1h-9.1v-0.8h4c-0.1-0.3-0.2-0.5-0.3-0.7l1-0.2c0.1,0.3,0.3,0.6,0.4,0.9h3.9V85.1z
		 M141.5,87.9v-2.2h6.6v2.2H141.5z M142.5,87.2h4.6v-0.8h-4.6V87.2z"/>
	<path d="M4.3,100.1c-0.7,1.7-1.9,3.4-3.1,4.5c-0.2-0.2-0.6-0.6-0.9-0.8c1.1-0.9,2.2-2.5,2.9-4L4.3,100.1z M7.3,105
		c0.8,1.1,1.8,2.6,2.3,3.5l-1,0.5c-0.1-0.3-0.3-0.6-0.6-1c-5.3,0.4-5.9,0.4-6.4,0.6c0-0.2-0.2-0.8-0.4-1c0.3-0.1,0.6-0.4,1-0.9
		c0.4-0.5,1.8-2.3,2.6-4l1.1,0.5c-0.9,1.5-1.9,3.1-3,4.3l4.4-0.3c-0.4-0.6-0.8-1.2-1.2-1.7L7.3,105z M7.5,99.7
		c0.5,1.6,1.5,3.1,2.7,3.9c-0.2,0.2-0.6,0.7-0.8,1c-1.2-0.9-2.2-2.4-2.7-3.9H4.9v-1H7.5z"/>
	<path d="M15,102h-4v-0.8h1.9c-0.2-0.4-0.5-1-0.8-1.4l0.8-0.4c0.3,0.4,0.6,1,0.8,1.4l-0.8,0.4H15V102z M14.6,103
		c1.1-0.6,1.3-1.4,1.3-2.1v-1.1h3.3v2.4c0,0.3,0,0.4,0.2,0.4h0.5c0.1,0,0.3,0,0.5-0.1c0,0.3,0,0.6,0.1,0.8c-0.1,0.1-0.3,0.1-0.5,0.1
		h-0.6c-0.8,0-1-0.3-1-1.2v-1.4h-1.5v0.3c0,1-0.3,2.1-1.6,2.8C15.1,103.6,14.8,103.3,14.6,103l0,0.3h-3.1v-0.8h3.1V103z M20.1,104.2
		c-0.4,1.3-1,2.3-1.8,3c0.7,0.4,1.5,0.7,2.3,0.9c-0.2,0.2-0.5,0.6-0.6,0.9c-1-0.2-1.8-0.6-2.5-1.1c-0.7,0.5-1.6,0.9-2.5,1.2
		c-0.1-0.2-0.2-0.5-0.4-0.8v0.1h-2.3v0.5h-0.8v-3.5h3.1v2.8c0.8-0.2,1.5-0.5,2.2-0.9c-0.6-0.6-1.1-1.3-1.5-2.2l0.6-0.2h-0.9V104h4.4
		l0.2,0L20.1,104.2z M11.5,104h3.1v0.8h-3.1V104z M13.7,106.2h-1.4v1.5h1.4V106.2z M16.1,104.9c0.3,0.7,0.8,1.3,1.4,1.8
		c0.5-0.5,1-1.1,1.3-1.8H16.1z"/>
	<path d="M23.7,102.6c0.9,0,1.6,0.7,1.6,1.6c0,0.9-0.7,1.6-1.6,1.6c-0.9,0-1.6-0.7-1.6-1.6C22,103.4,22.8,102.6,23.7,102.6z
		 M23.7,105.3c0.6,0,1-0.5,1-1s-0.5-1-1-1c-0.5,0-1,0.5-1,1S23.1,105.3,23.7,105.3z"/>
</g>
<g>
	<path d="M4.8,0.9C4.4,1.9,4,2.8,3.5,3.7v8.9H2V6.1C1.7,6.4,1.4,6.7,1.2,7C1,6.6,0.6,5.7,0.3,5.3c1.2-1.2,2.3-3,3-4.9L4.8,0.9z
		 M12.6,10.7v1.5H4.2v-1.5h3.5V8.1H4.9V6.6h2.7V4.3H4.5V2.9H8c-0.2-0.5-0.5-1.4-0.9-2l1.4-0.5c0.4,0.6,0.8,1.5,1,2L8.2,2.9h4.2v1.5
		H9.3v2.3h2.8v1.5H9.3v2.6H12.6z"/>
	<path d="M24.1,3.9v5.4h-1.6V8.6h-6c-0.3,1.5-0.8,3-1.9,4c-0.2-0.3-0.9-0.9-1.2-1.1c1.7-1.7,1.8-4.3,1.8-6.2V1.6
		c2.6-0.2,5.6-0.7,7.4-1.2l1.2,1.2c-2,0.5-4.6,0.9-7,1.2v1.1H24.1z M22.5,7.2V5.3h-5.7v0.1c0,0.5,0,1.1-0.1,1.8H22.5z"/>
	<path d="M38.4,9.8h-2.9v1.3c0,0.7-0.1,1.1-0.7,1.3c-0.5,0.2-1.2,0.2-2.2,0.2c-0.1-0.4-0.3-1-0.4-1.4c0.6,0,1.4,0,1.6,0
		c0.2,0,0.3-0.1,0.3-0.2V9.8h-3.7c0.5,0.4,1.1,0.8,1.4,1.2l-1.1,1c-0.4-0.5-1.2-1.2-2-1.7l0.5-0.5h-2.6V8.6H34V8.1
		c-2.6,0.1-5,0.1-6.8,0.1l0-1.1c1.2,0,2.8,0,4.6,0V6.6H28V2.9h3.7V2.4h-4.8V1.3h4.8V0.4h1.5v0.8H38v1.2h-4.7v0.5h3.9v3.7h-0.9
		c0.7,0.3,1.3,0.7,1.7,1L37,8.5c-0.2-0.1-0.3-0.3-0.5-0.4l-0.9,0v0.5h2.9V9.8z M29.4,4.3h2.3V3.8h-2.3V4.3z M31.7,5.7V5.2h-2.3v0.5
		H31.7z M33.2,3.8v0.5h2.4V3.8H33.2z M35.6,5.7V5.2h-2.4v0.5H35.6z M33.2,7.1l1.6,0c-0.2-0.1-0.4-0.2-0.5-0.2l0.3-0.2h-1.4V7.1z"/>
	<path d="M51.4,10.2h-5v0.9c0,0.8-0.2,1.1-0.8,1.3c-0.6,0.2-1.5,0.2-2.6,0.2c-0.1-0.4-0.3-0.9-0.5-1.3c0.8,0,1.8,0,2,0
		c0.3,0,0.3-0.1,0.3-0.3v-0.9h-5V8.9h5V8.4h0l0,0c0.5-0.1,1.1-0.3,1.6-0.5h-5.4V6.7h7.9l0.3-0.1l1,0.9C49,8,47.8,8.5,46.5,8.9h4.9
		V10.2z M51.1,2.7H39.8V1.4h4.8c-0.1-0.3-0.2-0.6-0.3-0.8L46,0.3c0.2,0.3,0.3,0.7,0.4,1.1h4.8V2.7z M41.3,6.1V3.3h8.4v2.8H41.3z
		 M42.9,5.1h5.2V4.3h-5.2V5.1z"/>
	<path d="M59.6,0.8c-0.1,0.1-0.1,0.2-0.2,0.2c1.2,1,3.3,1.9,5.4,2.3c-0.3,0.3-0.8,0.8-1,1.2c-0.3-0.1-0.5-0.2-0.8-0.2v3.4h-9V4.4
		c-0.3,0.1-0.5,0.2-0.8,0.2c-0.2-0.3-0.6-0.9-0.8-1.2c2.4-0.6,4.7-1.6,5.9-3.1L59.6,0.8z M62.6,4.2c-0.6-0.2-1.2-0.5-1.8-0.8v0.3
		h-4.6V3.5c-0.5,0.3-1,0.5-1.6,0.7H62.6z M54.7,8.1h7.6v4.4h-1.6v-0.3h-4.5v0.4h-1.5V8.1z M56.2,6.8c-0.1-0.4-0.2-0.9-0.4-1.4l1-0.3
		h-1.5v1.6H56.2z M56.2,9.1v0.5h4.5V9.1H56.2z M60.8,11.2v-0.5h-4.5v0.5H60.8z M57.8,5.1h-1c0.2,0.4,0.4,1,0.5,1.4l-0.8,0.3h1.3V5.1
		z M59.7,2.7c-0.4-0.3-0.8-0.6-1.1-0.8c-0.3,0.3-0.7,0.6-1.1,0.8H59.7z M59.1,5.1v1.6h1.2l-0.8-0.2c0.2-0.4,0.4-1,0.5-1.4H59.1z
		 M61.6,5.1h-1.4l1,0.2c-0.3,0.5-0.5,1-0.7,1.4h1.1V5.1z"/>
	<path d="M72.5,7.5v0.8h4.4v4.2h-1.4v-0.4h-3v0.4h-1.4V4.2h-0.7v-2L70,3.1c-0.4-0.3-1.2-0.7-1.8-1c-0.2,0.2-0.4,0.5-0.7,0.8h2v1
		h-2.3V3.1c-0.4,0.4-0.9,0.8-1.3,1.1c-0.1-0.3-0.4-1.1-0.6-1.4c1-0.6,2-1.5,2.6-2.5l1.2,0.4c-0.1,0.1-0.1,0.2-0.2,0.4
		c0.6,0.3,1.3,0.6,1.7,0.8h2.8c-0.2-0.4-0.4-0.7-0.5-1.1l1.4-0.5c0.2,0.4,0.6,1,0.8,1.4l-0.4,0.2h2.8v2.4h-1.1v3.3H72.5z M69.3,9.1
		c0.4,0.8,1,1.9,1.2,2.5l-1.1,0.6c-0.1-0.3-0.2-0.6-0.4-0.9c-2.3,0.9-2.7,1-3,1.3c-0.1-0.4-0.3-1-0.5-1.3c0.2-0.1,0.5-0.3,0.5-0.8
		V4.4h4V9h-2.7v1.6l1.2-0.4c-0.1-0.2-0.2-0.5-0.3-0.6L69.3,9.1z M67.4,5.5v0.7h1.3V5.5H67.4z M68.8,7.9V7.2h-1.3v0.7H68.8z
		 M71.8,3.1v0.8h4.3V3.1H71.8z M75,5.2h-2.5v1.1H75V5.2z M72.5,9.6v1.3h3V9.6H72.5z"/>
</g>
</svg>
