<?xml version="1.0" encoding="utf-8"?>
<!-- Generator: Adobe Illustrator 25.2.3, SVG Export Plug-In . SVG Version: 6.00 Build 0)  -->
<svg version="1.1" id="圖層_1" xmlns="http://www.w3.org/2000/svg" xmlns:xlink="http://www.w3.org/1999/xlink" x="0px" y="0px"
	 viewBox="0 0 355.2 86.1" style="enable-background:new 0 0 355.2 86.1;" xml:space="preserve">
<style type="text/css">
	.st0{fill:#B18053;}
</style>
<path class="st0" d="M36.6,0H4.4H0v4.4v32.2h4.4V4.4h32.2C36.6,4.4,36.6,0,36.6,0z"/>
<g>
	<path d="M31,51.7h4.2v1.1h-3V60H31V51.7z"/>
	<path d="M46.5,53.5v10.2h-1.3V63h-6.6v0.7h-1.2V53.5h3.3c0.2-0.6,0.3-1.2,0.4-1.7l1.4,0.2c-0.2,0.5-0.4,1.1-0.6,1.6H46.5z
		 M38.7,54.7v1.7h6.6v-1.7H38.7z M38.7,57.4v1.7h6.6v-1.7H38.7z M45.3,61.9v-1.7h-6.6v1.7H45.3z"/>
	<path d="M60,54.3v9.4h-1.3V63h-7.6v0.8h-1.2v-9.5h4.4v-2.5h1.2v2.5H60z M51.1,55.5V58h3.2v-2.5H51.1z M51.1,61.8h3.2v-2.6h-3.2
		V61.8z M55.5,55.5V58h3.2v-2.5H55.5z M58.7,61.8v-2.6h-3.2v2.6H58.7z"/>
	<path d="M66,61.6c0.8,0.5,1.9,0.6,3.3,0.6s3.4-0.1,4.6-0.3c-0.1,0.3-0.3,1-0.4,1.3c-0.9,0.1-3,0.1-4.3,0.1c-1.6,0-2.6-0.2-3.5-0.7
		c-0.5-0.3-0.9-0.8-1.2-0.8c-0.4,0-1,0.8-1.6,1.7l-0.9-1.1c0.9-1,1.8-1.7,2.5-1.7c0.1,0,0.1,0,0.1,0c2.2-1.3,4.6-3.5,6-5.3h-8v-1.2
		H68c-0.3-0.6-0.8-1.4-1.3-2l1.1-0.6c0.5,0.6,1.1,1.5,1.4,2.1l-0.9,0.5h3.3l0.2-0.1l0.9,0.6c-1.6,2.4-4.4,5-7,6.7L66,61.6z"/>
	<path d="M86.8,61.9V63H75v-1.2h2v-8.7c2.6-0.1,5.6-0.5,7.3-1.1l0.7,1.1c-1.8,0.6-4.4,0.9-6.8,1.1v2.2h7.8v1.2h-2v4.3H86.8z
		 M78.3,61.9h4.5v-4.3h-4.5V61.9z"/>
	<path d="M91.8,63.8h-4.2v-1.1h3v-7.2h1.2V63.8z"/>
	<path d="M97.9,61.4h2.1v-6.7h-1.7v-0.9c0.9-0.2,1.5-0.4,2.1-0.7h1.1v8.3h1.9v1.2h-5.5V61.4z"/>
	<path d="M104.8,60.3c0-1.3,0.8-2.1,1.7-2.6v-0.1c-0.7-0.5-1.3-1.2-1.3-2.2c0-1.5,1.2-2.5,2.7-2.5c1.7,0,2.7,1,2.7,2.5
		c0,1-0.7,1.8-1.3,2.2v0.1c0.9,0.5,1.6,1.2,1.6,2.5c0,1.4-1.2,2.5-3.1,2.5C106.2,62.9,104.8,61.8,104.8,60.3z M109.6,60.3
		c0-1.2-1.1-1.6-2.4-2.1c-0.7,0.5-1.1,1.2-1.1,2c0,0.9,0.8,1.6,1.8,1.6C109,61.8,109.6,61.2,109.6,60.3z M109.4,55.6
		c0-0.9-0.5-1.5-1.5-1.5c-0.8,0-1.4,0.5-1.4,1.4c0,1,0.9,1.5,2,1.9C109.1,56.8,109.4,56.2,109.4,55.6z"/>
	<path d="M119,59.2l0.2,1.1c-1.3,0.6-2.6,1.1-3.7,1.5l-0.4-1.2c0.4-0.1,1-0.3,1.6-0.5V56h-1.3v-1.1h1.3v-2.9h1.1v2.9h1.2V56h-1.2
		v3.7L119,59.2z M127,59.3h-3.4v4.4h-1.2v-4.4H119v-1.1h3.4v-4.6h-3v-1.2h7.3v1.2h-3.1v4.6h3.4V59.3z M120.7,54.2
		c0.4,1,0.6,2.3,0.7,3.1l-1,0.3c-0.1-0.8-0.4-2.1-0.7-3.1L120.7,54.2z M124.4,57.3c0.3-0.9,0.6-2.2,0.8-3.2l1.1,0.2
		c-0.3,1.1-0.7,2.4-1,3.2L124.4,57.3z"/>
	<path d="M132.8,58.8l-1.1,0.9c-0.8-1-1.9-2.1-2.8-2.9l1.1-0.9C130.9,56.7,132.1,57.9,132.8,58.8z"/>
	<path d="M137.6,61.8c2.8-2.5,4.3-4.4,4.3-5.9c0-1-0.6-1.8-1.6-1.8c-0.8,0-1.4,0.5-1.9,1.1l-0.8-0.8c0.8-0.9,1.7-1.4,2.9-1.4
		c1.8,0,2.9,1.1,2.9,2.9c0,1.8-1.5,3.8-3.5,5.7c0.5-0.1,1.1-0.1,1.6-0.1h2.4v1.3h-6.2V61.8z"/>
	<path d="M145.5,61.4h2.1v-6.7h-1.7v-0.9c0.9-0.2,1.5-0.4,2.1-0.7h1.1v8.3h1.9v1.2h-5.5V61.4z"/>
	<path d="M159.2,59.2l0.2,1.1c-1.3,0.6-2.6,1.1-3.7,1.5l-0.4-1.2c0.4-0.1,1-0.3,1.6-0.5V56h-1.3v-1.1h1.3v-2.9h1.1v2.9h1.2V56h-1.2
		v3.7L159.2,59.2z M167.2,59.3h-3.4v4.4h-1.2v-4.4h-3.4v-1.1h3.4v-4.6h-3v-1.2h7.3v1.2h-3.1v4.6h3.4V59.3z M160.9,54.2
		c0.4,1,0.6,2.3,0.7,3.1l-1,0.3c-0.1-0.8-0.4-2.1-0.7-3.1L160.9,54.2z M164.6,57.3c0.3-0.9,0.6-2.2,0.8-3.2l1.1,0.2
		c-0.3,1.1-0.7,2.4-1,3.2L164.6,57.3z"/>
	<path d="M173,58.8l-1.1,0.9c-0.8-1-1.9-2.1-2.8-2.9l1.1-0.9C171,56.7,172.2,57.9,173,58.8z"/>
	<path d="M177.5,61.5l0.7-1c0.6,0.6,1.3,1.1,2.3,1.1c1.1,0,1.8-0.6,1.8-1.6c0-1.1-0.7-1.8-2.8-1.8v-1.1c1.9,0,2.5-0.7,2.5-1.7
		c0-0.8-0.6-1.4-1.5-1.4c-0.7,0-1.4,0.4-1.9,0.9l-0.8-0.9c0.8-0.7,1.6-1.2,2.7-1.2c1.7,0,2.9,0.9,2.9,2.5c0,1.1-0.6,1.9-1.7,2.2v0.1
		c1.1,0.3,2,1.1,2,2.4c0,1.7-1.4,2.7-3.2,2.7C179.1,62.9,178.2,62.3,177.5,61.5z"/>
	<path d="M185.7,61.4h2.1v-6.7h-1.7v-0.9c0.9-0.2,1.5-0.4,2.1-0.7h1.1v8.3h1.9v1.2h-5.5V61.4z"/>
	<path d="M199.3,59.2l0.2,1.1c-1.3,0.6-2.6,1.1-3.7,1.5l-0.4-1.2c0.4-0.1,1-0.3,1.6-0.5V56h-1.3v-1.1h1.3v-2.9h1.1v2.9h1.2V56H198
		v3.7L199.3,59.2z M207.4,59.3H204v4.4h-1.2v-4.4h-3.4v-1.1h3.4v-4.6h-3v-1.2h7.3v1.2H204v4.6h3.4V59.3z M201.1,54.2
		c0.4,1,0.6,2.3,0.7,3.1l-1,0.3c-0.1-0.8-0.4-2.1-0.7-3.1L201.1,54.2z M204.8,57.3c0.3-0.9,0.6-2.2,0.8-3.2l1.1,0.2
		c-0.3,1.1-0.7,2.4-1,3.2L204.8,57.3z"/>
	<path d="M213.1,58.8l-1.1,0.9c-0.8-1-1.9-2.1-2.8-2.9l1.1-0.9C211.2,56.7,212.4,57.9,213.1,58.8z"/>
	<path d="M224.4,60.1h-1.2v2.6h-1.4v-2.6h-4.1v-1l3.8-6h1.7V59h1.2V60.1z M221.7,59v-2.5c0-0.5,0.1-1.3,0.1-1.8h-0.1
		c-0.2,0.5-0.5,1-0.8,1.5l-1.9,2.9H221.7z"/>
	<path d="M225.1,61.5l0.7-1c0.6,0.6,1.3,1.1,2.3,1.1c1.1,0,1.8-0.6,1.8-1.6c0-1.1-0.7-1.8-2.8-1.8v-1.1c1.9,0,2.5-0.7,2.5-1.7
		c0-0.8-0.6-1.4-1.5-1.4c-0.7,0-1.4,0.4-1.9,0.9l-0.8-0.9c0.8-0.7,1.6-1.2,2.7-1.2c1.7,0,2.9,0.9,2.9,2.5c0,1.1-0.6,1.9-1.7,2.2v0.1
		c1.1,0.3,2,1.1,2,2.4c0,1.7-1.4,2.7-3.2,2.7C226.7,62.9,225.7,62.3,225.1,61.5z"/>
	<path d="M239.5,59.2l0.2,1.1c-1.3,0.6-2.6,1.1-3.7,1.5l-0.4-1.2c0.4-0.1,1-0.3,1.6-0.5V56h-1.3v-1.1h1.3v-2.9h1.1v2.9h1.2V56h-1.2
		v3.7L239.5,59.2z M247.5,59.3h-3.4v4.4h-1.2v-4.4h-3.4v-1.1h3.4v-4.6h-3v-1.2h7.3v1.2h-3.1v4.6h3.4V59.3z M241.2,54.2
		c0.4,1,0.6,2.3,0.7,3.1l-1,0.3c-0.1-0.8-0.4-2.1-0.7-3.1L241.2,54.2z M245,57.3c0.3-0.9,0.6-2.2,0.8-3.2l1.1,0.2
		c-0.3,1.1-0.7,2.4-1,3.2L245,57.3z"/>
	<path d="M249.9,59.5c1-0.4,1.6-1,1.7-1.8c-0.1,0-0.1,0-0.2,0c-0.6,0-1.1-0.4-1.1-1c0-0.7,0.5-1,1.1-1c0.8,0,1.2,0.6,1.2,1.6
		c0,1.4-0.9,2.6-2.4,3L249.9,59.5z"/>
	<path d="M258.6,61.4h2.1v-6.7H259v-0.9c0.9-0.2,1.5-0.4,2.1-0.7h1.1v8.3h1.9v1.2h-5.5V61.4z"/>
	<path d="M265.5,58.5h3.4v1.1h-3.4V58.5z"/>
	<path d="M269.9,61.5l0.7-1c0.6,0.6,1.3,1.1,2.3,1.1c1.1,0,1.8-0.6,1.8-1.6c0-1.1-0.7-1.8-2.8-1.8v-1.1c1.9,0,2.5-0.7,2.5-1.7
		c0-0.8-0.6-1.4-1.5-1.4c-0.7,0-1.4,0.4-1.9,0.9l-0.8-0.9c0.8-0.7,1.6-1.2,2.7-1.2c1.7,0,2.9,0.9,2.9,2.5c0,1.1-0.6,1.9-1.7,2.2v0.1
		c1.1,0.3,2,1.1,2,2.4c0,1.7-1.4,2.7-3.2,2.7C271.5,62.9,270.6,62.3,269.9,61.5z"/>
	<path d="M286.7,59.2c0,0.3-0.1,0.6-0.2,0.9h4.4c0,0,0,0.3,0,0.5c-0.2,1.7-0.3,2.5-0.7,2.8c-0.2,0.2-0.5,0.3-0.9,0.3
		c-0.4,0-1,0-1.7,0c0-0.3-0.2-0.7-0.3-1c0.6,0.1,1.2,0.1,1.5,0.1c0.2,0,0.3,0,0.5-0.1c0.2-0.2,0.3-0.6,0.4-1.6h-3.4
		c-0.5,1.2-1.5,2.1-3.4,2.7c-0.1-0.3-0.4-0.7-0.7-0.9c2.4-0.7,3.1-1.9,3.3-3.6h-2.5c-0.2,1.6-0.6,3.4-1.7,4.6
		c-0.2-0.2-0.6-0.7-0.9-0.9c1.4-1.7,1.5-4.2,1.5-6.1v-4.1h0c2.9-0.2,6.3-0.5,8.3-1l0.9,0.9c-2.2,0.5-5.2,0.8-8,0.9v0.6h8.3v3h-8.3
		c0,0.3,0,0.7,0,1.1h3.7c-0.1-0.3-0.3-0.6-0.4-0.8l1.2-0.3c0.2,0.3,0.4,0.7,0.6,1.1h4.1v1H286.7z M283.1,55.2v1.1h7.1v-1.1H283.1z"
		/>
	<path d="M297.5,60.9c-0.2-0.6-0.8-2-1.1-2.5v5.4h-1.1v-5.5c-0.3,1.4-0.8,3.1-1.5,4c-0.1-0.4-0.4-0.9-0.5-1.2c0.5-0.7,1.1-2,1.3-3.1
		l0.8,0.3v-0.9h-1.8v-1.1h1.8v-4.3h1.1v4.3h1.5v1.1h-1.5v1.1l0.6-0.4c0.2,0.3,1.1,1.8,1.3,2.1L297.5,60.9z M294.1,55.6
		c-0.1-0.7-0.4-1.9-0.6-2.8l0.9-0.2c0.3,0.9,0.6,2,0.7,2.7L294.1,55.6z M305.4,55.9v0.9h-7.3v-0.9h3v-0.7h-2.5v-0.9h2.5v-0.7h-2.8
		V53c-0.4,0.9-0.7,2-1.1,2.6l-0.8-0.3c0.3-0.7,0.7-1.9,0.8-2.7l1,0.3v-0.2h2.8v-1h1.2v1h3v0.9h-3v0.7h2.7v0.9h-2.7v0.7H305.4z
		 M304.7,62.5c0,0.5-0.1,0.8-0.5,1c-0.4,0.2-0.9,0.2-1.8,0.2c-0.1-0.3-0.2-0.7-0.3-1c0.5,0,1.1,0,1.2,0c0.2,0,0.2-0.1,0.2-0.2v-0.9
		h-3.8c-0.1,0.8-0.4,1.6-0.9,2.2c-0.2-0.2-0.6-0.7-0.8-0.8c0.8-0.9,0.8-2.2,0.8-3.2v-2.3h5.9V62.5z M303.5,60.8V60h-3.7
		c0,0.2,0,0.5,0,0.8H303.5z M299.9,58.4v0.8h3.7v-0.8H299.9z"/>
	<path d="M307,58h4.7v5.6h-1.2V63h-2.4v0.7H307V58z M308.1,59.2v2.7h2.4v-2.7H308.1z M316.1,56.8h-7.3v-4.4h7.3V56.8z M314.8,53.5
		H310v2.1h4.9V53.5z M317.9,58v5.6h-1.2V63h-2.6v0.7h-1.2V58H317.9z M316.7,61.9v-2.7h-2.6v2.7H316.7z"/>
	<path d="M330.9,52.8v2.5h-1.2v-1.4h-8.7v1.4H320v-2.5h4.9c-0.1-0.3-0.3-0.6-0.4-0.9l1.3-0.3c0.2,0.3,0.4,0.8,0.6,1.1H330.9z
		 M330.4,62.6c0,0.5-0.1,0.8-0.5,1c-0.4,0.2-0.9,0.2-1.8,0.2c0-0.3-0.2-0.7-0.3-0.9c0.5,0,1.1,0,1.2,0c0.2,0,0.2-0.1,0.2-0.2v-2.4
		h-3.3v1l1.3-0.1c-0.1-0.2-0.3-0.4-0.4-0.6l0.8-0.3c0.5,0.6,1,1.4,1.2,2l-0.9,0.3c-0.1-0.2-0.1-0.3-0.2-0.5c-2,0.1-4,0.2-5.4,0.3
		l-0.1-1c0.7,0,1.6,0,2.6-0.1v-1h-3.1v3.6h-1.1v-3.6H320v-1h0.5v-0.4h1.1v0.4h3.1v-0.7h-3v-3.9h7.3v3.9h-3.1v0.7h4.5V62.6z
		 M322.9,56.1h1.9v-0.7h-1.9V56.1z M324.8,57.6v-0.7h-1.9v0.7H324.8z M327.9,55.3h-2v0.7h2V55.3z M327.9,56.8h-2v0.7h2V56.8z"/>
	<path d="M334.3,59c-0.1,1.6-0.3,3.4-1.1,4.7c-0.2-0.2-0.7-0.6-1-0.8c0.8-1.5,0.9-3.7,0.9-5.4V53c1.5-0.2,3.4-0.5,4.4-1l0.8,1
		c-1.1,0.4-2.6,0.7-4,0.9V55h3.4v4H334.3z M334.3,56.1v1.5v0.4h2.2v-1.9H334.3z M344.3,57.3H343v6.4h-1.2v-6.4H340
		c0,2-0.3,4.8-2.1,6.5c-0.2-0.2-0.7-0.7-1-0.8c1.6-1.6,1.8-3.9,1.8-5.7V53c1.6-0.2,3.4-0.6,4.5-1.1l0.8,1c-1.1,0.4-2.7,0.7-4.1,0.9
		v2.2h4.3V57.3z"/>
	<path d="M34.4,78.9l-1.8,0.5v3.4c0,0.6-0.1,0.9-0.5,1.1c-0.4,0.2-1,0.2-1.9,0.2c0-0.3-0.2-0.8-0.4-1.1c0.6,0,1.1,0,1.3,0
		c0.2,0,0.2-0.1,0.2-0.2v-3l-1.6,0.4L29.4,79c0.5-0.1,1.2-0.3,1.9-0.5V76h-1.8v-1.1h1.8v-2.5h1.2v2.5h1.7V76h-1.7v2.2l1.7-0.4
		L34.4,78.9z M41.4,74.5h-2.2v8c0,0.8-0.2,1.2-0.7,1.4c-0.5,0.2-1.4,0.2-2.6,0.2c-0.1-0.4-0.3-1-0.5-1.3c0.9,0.1,1.8,0,2.1,0
		c0.2,0,0.3-0.1,0.3-0.3v-8h-3.5v-1.2h7V74.5z"/>
	<path d="M46.1,78.4c-0.3,1.2-0.7,2.5-1.3,3.5c0.2,0.1,0.5,0.3,0.8,0.5c0.9,0.5,2.1,0.6,3.6,0.6c1.6,0,3.8-0.1,5.2-0.3
		c-0.1,0.3-0.3,0.9-0.4,1.2c-1,0.1-3.4,0.1-4.9,0.1c-1.7,0-2.8-0.1-3.7-0.7c-0.5-0.3-1-0.8-1.3-0.8c-0.3,0-0.7,0.8-1.1,1.6l-0.8-1.1
		c0.5-0.7,1.1-1.3,1.5-1.5c0.4-0.7,0.7-1.6,0.9-2.4H43c0.3-0.8,0.7-1.8,1.1-2.8h-1.6v-1.1h3c-0.3,0.9-0.7,1.9-1,2.8h0.9l0.2-0.1
		L46.1,78.4z M44,74.9c-0.2-0.6-0.5-1.4-0.7-2.1l1.1-0.3c0.2,0.7,0.5,1.5,0.7,2.1L44,74.9z M47.7,74.9c-0.3,0.5-0.6,0.9-0.9,1.3
		c-0.2-0.2-0.7-0.5-1-0.6c0.8-0.8,1.5-1.9,1.9-3.1l1.1,0.3c-0.1,0.4-0.3,0.8-0.5,1.1h1.2v-1.5h1.2v1.5h3v1h-3v1.4h3.5v1h-8.3v-1h3.6
		v-1.4H47.7z M52.1,82.1v-0.4h-4v0.4h-1.2v-4h6.3v4H52.1z M52.1,80.7v-1.6h-4v1.6H52.1z"/>
	<path d="M63.1,78.6V80h3.1v4.2H65v-0.4h-5v0.4h-1.2V80h3v-1.3h-3.9c-0.1,1.9-0.5,4.1-1.5,5.6c-0.2-0.2-0.8-0.5-1.1-0.6
		c1.3-2,1.4-4.8,1.4-6.9v-3.8h9.6v3.3h-3.3v1.3h4v1.1H63.1z M61.9,77.6v-1.3H58v0.4c0,0.3,0,0.6,0,0.9H61.9z M58,74v1.2h7.2V74H58z
		 M65,81h-5v1.7h5V81z"/>
	<path d="M72.6,72.7c-0.4,0.9-0.8,1.8-1.3,2.7v8.8h-1.2v-6.9c-0.3,0.5-0.7,0.9-1.1,1.3c-0.1-0.3-0.5-1-0.7-1.2
		c1.2-1.2,2.4-3.1,3.1-5L72.6,72.7z M80.4,82.6v1.2h-8.3v-1.2h3.6v-3h-2.9v-1.1h2.9v-2.6h-3.3v-1.2h7.8v1.2h-3.3v2.6h2.9v1.1h-2.9v3
		H80.4z M76,74.7c-0.2-0.6-0.6-1.5-1-2.1l1.1-0.4c0.4,0.6,0.9,1.5,1.1,2.1L76,74.7z"/>
	<path d="M86.1,79.3L85,80.3c-0.8-1-1.9-2.1-2.8-2.9l1.1-0.9C84.2,77.2,85.4,78.4,86.1,79.3z"/>
	<path d="M99.7,82.1v1.2H88.1v-1.2h5.1v-7.1h-4.4v-1.2h10.3v1.2h-4.5v7.1H99.7z"/>
	<path d="M105.1,72.7c-0.4,0.9-0.8,1.8-1.3,2.7v8.8h-1.2v-6.9c-0.3,0.5-0.7,0.9-1.1,1.3c-0.1-0.3-0.5-1-0.7-1.2
		c1.2-1.2,2.4-3.1,3.1-5L105.1,72.7z M109,75.6v1.7h3.5v1.1H109V80h3.7v1.1H109v3h-1.2v-8.6h-0.7c-0.5,1-1.1,1.9-1.8,2.6
		c-0.2-0.2-0.7-0.6-0.9-0.8c1.1-1.2,2.2-3.1,2.8-4.9l1.2,0.3c-0.2,0.6-0.4,1.1-0.7,1.7h5.2v1.2H109z"/>
	<path d="M118.6,79.3l-1.1,0.9c-0.8-1-1.9-2.1-2.8-2.9l1.1-0.9C116.7,77.2,117.9,78.4,118.6,79.3z"/>
	<path d="M124,72.7c-0.3,0.8-0.6,1.7-1,2.5v9.1h-1.2v-7c-0.4,0.5-0.7,1-1.1,1.4c-0.1-0.3-0.4-1-0.6-1.3c1.1-1.2,2.1-3.1,2.7-5
		L124,72.7z M132,73v11.1h-1.1v-0.7h-5.4v0.8h-1.1V73H132z M130.8,82.4v-8.3h-5.4v8.3H130.8z M128.6,76.7V78h1.4v3.5h-3.6V78h1.3
		v-1.3h-1.7v-0.9h1.7v-1.4h1v1.4h1.8v0.9H128.6z M129.1,78.9h-1.8v1.7h1.8V78.9z"/>
	<path d="M133.3,78.1c0.3-0.9,0.6-2.3,0.6-3.4l0.9,0.1c-0.1,1.1-0.3,2.6-0.6,3.5L133.3,78.1z M145.3,82.6v1.1h-8v-1.1h3.6v-3h-2.6
		v-1.1h2.6v-2.4h-1.7c-0.2,0.7-0.5,1.4-0.8,1.9c-0.2-0.2-0.8-0.4-1.1-0.6c0.2-0.3,0.3-0.6,0.5-0.9l-0.7,0.4c-0.1-0.5-0.5-1.4-0.8-2
		v9.3h-1.2V72.3h1.2v2.4l0.8-0.3c0.3,0.6,0.7,1.4,0.8,1.9c0.4-1,0.7-2.2,0.9-3.5l1.2,0.2c-0.1,0.6-0.2,1.3-0.4,1.9h1.4v-2.6h1.2V75
		h2.8v1.1h-2.8v2.4h2.5v1.1h-2.5v3H145.3z"/>
	<path d="M151.1,79.3l-1.1,0.9c-0.8-1-1.9-2.1-2.8-2.9l1.1-0.9C149.2,77.2,150.4,78.4,151.1,79.3z"/>
	<path d="M164.6,74.6H157c0.3,0.4,0.6,1,0.8,1.4l-0.9,0.4h3.1c0.3-0.5,0.7-1.2,0.8-1.7l1.2,0.3c-0.3,0.5-0.6,1-0.9,1.5h2.9V83
		c0,0.6-0.1,0.8-0.6,1s-1.1,0.2-2.2,0.2c-0.1-0.3-0.2-0.7-0.4-0.9c0.8,0,1.5,0,1.7,0c0.2,0,0.3-0.1,0.3-0.3v-5.6h-2.4V78
		c0,0.3,0,0.4,0.3,0.4h0.9c0.2,0,0.6,0,0.7-0.1c0,0.3,0,0.6,0.1,0.8c-0.2,0.1-0.5,0.1-0.8,0.1h-1.2c-0.9,0-1.1-0.4-1.1-1.2v-0.6
		h-1.2c-0.2,1.3-0.8,2-2.6,2.4c-0.1-0.3-0.3-0.6-0.5-0.8v5.3h-1.1v-7.8h2.8c-0.2-0.4-0.5-1-0.7-1.4l0.9-0.3h-3.6v-1h5.2
		c-0.1-0.4-0.3-0.8-0.4-1.1l1.2-0.3c0.2,0.4,0.4,1,0.5,1.4h4.9V74.6z M155.1,78.9c1.4-0.3,1.9-0.7,2-1.5h-2V78.9z M157.5,82.6v0.6
		h-1v-3.6h4.8v3H157.5z M157.5,80.4v1.3h2.8v-1.3H157.5z"/>
	<path d="M176.8,74.6c-0.4,0.8-0.8,1.5-1.4,2.1c0.8,0.4,1.7,0.8,2.6,1c-0.2,0.2-0.6,0.7-0.8,1c-1-0.3-2-0.7-2.8-1.2
		c-0.8,0.5-1.7,0.9-2.7,1.2c-0.1-0.1-0.2-0.3-0.3-0.5c-0.2,0.8-0.5,1.5-0.7,2.1l-0.8-0.4c0.2-0.5,0.4-1.2,0.6-1.9h-1v5
		c0,0.6-0.1,0.9-0.5,1.1c-0.4,0.2-0.9,0.2-1.7,0.2c0-0.3-0.2-0.8-0.4-1.1c0.5,0,1,0,1.2,0c0.2,0,0.2,0,0.2-0.2v-3.5
		c-0.5,1.1-1.1,2.2-1.8,2.8c-0.1-0.4-0.4-0.8-0.6-1.2c0.8-0.7,1.5-1.9,2-3.1H166v-1.1h3.3c-0.7-0.5-1.8-1.1-2.8-1.5l0.8-0.8
		c0.4,0.1,0.8,0.3,1.2,0.5c0.4-0.3,0.8-0.7,1.1-1.1h-3.4v-1h4.3l0.2,0l0.8,0.5c-0.5,0.8-1.3,1.6-2,2.2c0.4,0.2,0.8,0.5,1,0.7
		l-0.6,0.6h0.8l0.2-0.1l0.7,0.3c0,0.2-0.1,0.3-0.1,0.5c0.7-0.2,1.4-0.5,2-0.8c-0.4-0.4-0.8-0.9-1.2-1.4c-0.3,0.3-0.5,0.5-0.8,0.8
		c-0.2-0.2-0.7-0.5-1-0.7c1-0.7,2-1.9,2.5-3.1l1.1,0.3c-0.2,0.4-0.3,0.7-0.5,1h4.1v1H176.8z M177.5,79.5c0,0,0,0.3,0,0.5
		c-0.2,2.3-0.5,3.3-0.8,3.7c-0.3,0.3-0.5,0.3-0.9,0.4c-0.3,0-0.9,0-1.4,0c0-0.3-0.2-0.8-0.3-1.1c0.5,0.1,1,0.1,1.2,0.1
		c0.2,0,0.3,0,0.4-0.1c0.2-0.2,0.4-0.9,0.6-2.4h-1.9c-0.4,1.6-1.4,2.9-3.4,3.7c-0.1-0.3-0.5-0.7-0.7-0.9c1.7-0.6,2.5-1.6,2.9-2.8
		h-1.8v-1h2.1c0.1-0.4,0.1-0.8,0.2-1.2h1.2c0,0.4-0.1,0.8-0.2,1.2H177.5z M173.1,74.6c0.3,0.5,0.8,1,1.3,1.4
		c0.5-0.4,0.8-0.9,1.1-1.4H173.1z"/>
	<path d="M180.2,80c1-0.4,1.6-1,1.7-1.8c-0.1,0-0.1,0-0.2,0c-0.6,0-1.1-0.4-1.1-1c0-0.7,0.5-1,1.1-1c0.8,0,1.2,0.6,1.2,1.6
		c0,1.4-0.9,2.6-2.4,3L180.2,80z"/>
	<path d="M187.6,80.6c-0.3,0.9-0.8,1.9-1.3,2.6c-0.2-0.2-0.6-0.4-0.8-0.6c0.5-0.6,0.9-1.5,1.2-2.3L187.6,80.6z M189.3,79.7v4.4h-1.2
		v-4.4h-2.5v-1h2.5v-1.2h-2.6v-1h1.4c-0.1-0.4-0.2-1.1-0.5-1.6l1-0.2c0.2,0.5,0.4,1.2,0.5,1.6l-1,0.3h2.1c0.2-0.5,0.5-1.3,0.6-1.9
		l1.1,0.2c-0.2,0.6-0.4,1.2-0.7,1.7h1.5v1h-2.4v1.2h2.2v1H189.3z M191.4,74.6h-5.7v-1h2.4c-0.1-0.4-0.3-0.8-0.5-1.1l1.2-0.3
		c0.2,0.4,0.5,1,0.7,1.4h2V74.6z M190.5,80.2c0.4,0.6,0.9,1.4,1.1,2l-0.8,0.5c-0.2-0.5-0.7-1.4-1-2L190.5,80.2z M197.4,77.7H196v6.4
		h-1.2v-6.4h-1.5V78c0,1.9-0.2,4.5-1.3,6.1c-0.2-0.2-0.7-0.6-0.9-0.7c1-1.5,1.1-3.7,1.1-5.4v-4.5c1.4-0.2,3-0.7,4-1.1l0.9,0.9
		c-1.1,0.4-2.5,0.7-3.8,1v2.3h4V77.7z"/>
	<path d="M210.2,82.6v1.1h-11.6v-1.1h5.2v-1.4h-3.9v-1.1h3.9v-1h-1v-2.6h-1.5c-0.2,1.1-0.7,2.2-2,3c-0.2-0.2-0.6-0.7-0.8-0.8
		c1.1-0.6,1.5-1.4,1.6-2.1h-1.5v-1.1h1.6v-1.6h-1.1v-1.1h5.8v1.1H204v1.6h1.4v1.1H204v2.4h1.1v1.2h3.8v1.1h-3.8v1.4H210.2z
		 M202.8,75.4v-1.6h-1.4v1.6H202.8z M207.1,77.4H206V73h1.1V77.4z M209.5,78c0,0.6-0.1,0.9-0.5,1.1c-0.4,0.2-1.1,0.2-2,0.2
		c-0.1-0.3-0.2-0.8-0.4-1.1c0.7,0,1.3,0,1.5,0c0.2,0,0.3-0.1,0.3-0.2v-5.6h1.1V78z"/>
	<path d="M211.6,83.3c0.4-0.6,0.8-1.6,1-2.3l1,0.4c-0.2,0.8-0.6,1.8-1,2.5L211.6,83.3z M216.9,75.4c-0.1-0.2-0.2-0.4-0.4-0.6
		c-3.7,0.3-4.2,0.4-4.5,0.5c-0.1-0.2-0.2-0.7-0.4-1c0.2,0,0.4-0.2,0.7-0.4s1.1-0.9,1.7-1.7l1.1,0.4c-0.5,0.6-1.1,1.1-1.6,1.6
		l2.5-0.2c-0.2-0.2-0.4-0.5-0.6-0.7l0.8-0.4c0.6,0.7,1.3,1.6,1.7,2.1L216.9,75.4z M216.9,79.7c0,0.5-0.1,0.7-0.4,0.8
		c-0.3,0.1-0.8,0.1-1.5,0.1c-0.1-0.3-0.2-0.6-0.3-0.8c0.5,0,0.9,0,1.1,0c0.1,0,0.2,0,0.2-0.2v-0.9c-0.8,0.3-1.6,0.6-2.3,0.8
		l-0.3-0.7c-0.1,0.7-0.3,1.4-0.8,1.9c-0.2-0.2-0.6-0.5-0.9-0.7c0.7-0.8,0.7-1.8,0.7-2.6v-2h4.6V79.7z M213.4,77.6
		c0,0.4,0,0.7-0.1,1.1c0.7-0.2,1.6-0.4,2.6-0.7v-1.6h-2.5V77.6z M213.9,76.7c0.6,0.2,1.5,0.5,1.9,0.8l-0.5,0.6
		c-0.4-0.2-1.3-0.6-1.9-0.9L213.9,76.7z M218.9,83c0.6,0,0.7-0.2,0.8-1.3c0.3,0.2,0.7,0.3,1,0.4c-0.1,1.5-0.5,1.9-1.7,1.9h-2.6
		c-1.5,0-2-0.3-2-1.3v-1.5h1.2v1.5c0,0.3,0.1,0.4,0.9,0.4H218.9z M217.9,82.5c-0.3-0.4-0.8-1.1-1.3-1.6l0.8-0.5
		c0.4,0.5,1,1.1,1.3,1.5L217.9,82.5z M219.6,76.2c-1.2,0-1.5-0.4-1.5-1.5v-2.3h1.1v0.9h3.1v0.9h-3.1v0.5c0,0.4,0.1,0.5,0.4,0.5h2
		c0.3,0,0.8,0,1.1-0.1c0,0.3,0.1,0.7,0.1,1c-0.2,0.1-0.7,0.1-1.1,0.1H219.6z M219.8,80.6c-1.3,0-1.6-0.3-1.6-1.3v-2.7h1.1v0.9h3.1
		v0.9h-3.1v0.8c0,0.3,0.1,0.4,0.6,0.4h1.7c0.4,0,0.5-0.1,0.5-0.8c0.2,0.2,0.7,0.3,1,0.4c-0.1,1.1-0.4,1.4-1.4,1.4H219.8z M222,81
		c0.4,0.7,0.8,1.7,1,2.3l-1.1,0.4c-0.2-0.6-0.6-1.6-0.9-2.4L222,81z"/>
	<path d="M236.2,82.6v1.2h-11.5v-1.2h5.1v-3h-3.7v-1.2h3.7v-2.6h-2.9c-0.4,0.8-0.8,1.5-1.3,2c-0.2-0.2-0.8-0.6-1.1-0.7
		c1.1-1.1,1.9-2.9,2.4-4.7l1.2,0.3c-0.2,0.7-0.4,1.3-0.7,2h2.4v-2.4h1.2v2.4h4.5v1.2h-4.5v2.6h4v1.2h-4v3H236.2z"/>
	<path d="M239.9,78.3c-0.5-0.4-1.6-1-2.4-1.4l0.7-0.9c0.7,0.4,1.8,0.9,2.4,1.3L239.9,78.3z M237.7,83.2c0.7-1,1.7-2.6,2.4-4.1
		l0.9,0.8c-0.7,1.3-1.5,2.9-2.3,4.1L237.7,83.2z M240.5,74.7c-0.5-0.4-1.6-1-2.4-1.4l0.7-0.9c0.8,0.4,1.9,0.9,2.4,1.3L240.5,74.7z
		 M245.9,77.2v1.9h2.7v5h-1.1v-0.5h-4.3v0.5H242v-5.1h2.7v-1.9h-3.6V76h3.6v-1.8c-0.9,0.1-1.8,0.2-2.7,0.3c-0.1-0.3-0.2-0.7-0.4-1
		c2.2-0.2,4.7-0.7,6.2-1.2l0.9,0.9c-0.8,0.3-1.8,0.6-2.9,0.8v2h3.4v1.2H245.9z M247.4,80.2h-4.3v2.3h4.3V80.2z"/>
	<path d="M254.6,80.1c-1.3,0.7-2.7,1.4-3.8,1.9l-0.5-1.2c0.5-0.2,1.1-0.4,1.7-0.7v-3.9h-1.4V75h1.4v-2.6h1.1V75h1.3v1.1h-1.3v3.4
		c0.4-0.2,0.8-0.4,1.2-0.5L254.6,80.1z M257.1,78.5c-0.1,0.3-0.3,0.5-0.5,0.8h5.4c0,0,0,0.3,0,0.5c-0.2,2.6-0.4,3.6-0.8,4
		c-0.2,0.2-0.5,0.3-0.8,0.4c-0.3,0-0.8,0-1.3,0c0-0.3-0.1-0.7-0.3-1c0.4,0.1,0.8,0.1,1,0.1c0.2,0,0.3,0,0.4-0.1
		c0.2-0.2,0.4-1,0.5-2.8h-0.8c-0.5,1.5-1.5,3.1-2.6,4c-0.2-0.2-0.6-0.5-0.9-0.7c1-0.7,1.9-2,2.5-3.3h-1c-0.7,1.3-1.9,2.7-3.1,3.4
		c-0.2-0.2-0.5-0.5-0.8-0.7c1-0.5,2.1-1.6,2.8-2.7h-1.1c-0.5,0.5-1,1-1.6,1.4c-0.2-0.2-0.6-0.6-0.8-0.8c1-0.6,1.9-1.4,2.5-2.4h-1.7
		v-1h8.1v1H257.1z M261.5,76.9h-6v-4.3h6V76.9z M260.4,73.5h-3.8v0.8h3.8V73.5z M260.4,75.2h-3.8V76h3.8V75.2z"/>
	<path d="M267.3,80.7c-1.2,0.7-2.4,1.3-3.5,1.8l-0.4-1.2c0.4-0.2,0.9-0.4,1.4-0.6v-4.2h-1.3v-1.1h1.3v-3h1.1v3h1.1v1.1h-1.1v3.6
		c0.4-0.2,0.7-0.4,1.1-0.5L267.3,80.7z M271.4,81.6c-1.5,0.4-3.1,0.9-4.3,1.2l-0.3-1.1c1.1-0.2,2.9-0.7,4.5-1.1L271.4,81.6z
		 M275,76.5c-0.4,1.7-1,3.2-1.8,4.5c0.3,1.3,0.6,2.1,1,2.1c0.2,0,0.3-0.5,0.4-1.8c0.2,0.3,0.6,0.5,0.9,0.7c-0.2,1.7-0.5,2.2-1.4,2.2
		c-0.8,0-1.3-0.8-1.7-2c-0.6,0.7-1.2,1.4-2,1.9c-0.2-0.2-0.6-0.6-0.9-0.8c1-0.6,1.8-1.5,2.5-2.5c-0.3-1.5-0.5-3.5-0.5-5.6h-4.3v-1.1
		h4.3c0-0.6,0-1.2,0-1.8h1.2c0,0.6,0,1.2,0,1.8h1.8c-0.3-0.4-0.9-0.9-1.4-1.2l0.7-0.6c0.5,0.4,1.2,0.9,1.5,1.3l-0.6,0.5h0.6v1.1
		h-2.6c0.1,1.5,0.2,2.9,0.3,4c0.4-0.9,0.8-1.9,1-3L275,76.5z M270.8,76.3v3.8h-3.2v-3.8H270.8z M269.9,77.2h-1.4v1.9h1.4V77.2z"/>
</g>
<g>
	<path d="M43.2,34.3H39c1.4,0.7,3,1.5,3.9,2l-1.2,1.4c-1-0.7-2.6-1.6-4.1-2.3l0.8-1.1h-4.6l1.3,1.1c-1.3,0.9-3.2,1.8-4.6,2.4
		c-0.2-0.4-0.7-1-1-1.3c1.3-0.5,3.1-1.4,4.1-2.1h-4.1v-1.6h1.1l-0.2-7.9c0.8-0.2,1.8-0.6,2.5-0.9l0.8,1.5v-0.8h5.4v8.2h1.5
		c0-0.4,0-0.9,0.1-1.3h-1.3v-1.4h1.3c0-0.4,0-0.9,0-1.3h-1.2v-1.4h1.3c0-0.5,0-0.9,0-1.4h-1.3v-1.4h2.9c0,2.6-0.1,6-0.3,8.3h1.1
		V34.3z M32.1,32.6h1.5v-7.3c-0.6,0.2-1.1,0.3-1.7,0.5l0,1.3h1.3v1.4H32l0,1.3h1.3v1.4h-1.2L32.1,32.6z M34.9,25.8v6.9h2.9v-6.9
		H34.9z M37.5,27.6h-2.2v-1.1h2.2L37.5,27.6z M35.3,28.4h2.2v3.4h-2.2V28.4z M36.1,30.7h0.7v-1.3h-0.7V30.7z"/>
	<path d="M53.1,24.5c-0.2,0.2-0.3,0.5-0.5,0.7c1.9,1.8,3.9,2.8,5.9,3.5c-0.5,0.4-1,1.1-1.2,1.6c-0.7-0.3-1.5-0.7-2.2-1.1v1h-7.5
		v-0.7c-0.7,0.4-1.3,0.8-2,1.1c-0.3-0.5-0.8-1.2-1.3-1.6c2.8-1.1,5.6-2.9,7.2-5.2L53.1,24.5z M46.7,31.5h9.7v6.2h-1.9v-0.6h-5.9v0.7
		h-1.8V31.5z M48.5,33.1v2.4h5.9v-2.4H48.5z M54.1,28.6c-0.9-0.6-1.7-1.3-2.6-2.1c-0.8,0.8-1.6,1.5-2.5,2.1H54.1z"/>
	<path d="M72.6,26.9c0,0,0,0.6,0,0.9c-0.3,6-0.6,8.2-1.3,9c-0.4,0.6-0.9,0.8-1.5,0.8c-0.6,0.1-1.5,0.1-2.4,0c0-0.5-0.3-1.3-0.6-1.8
		c0.9,0.1,1.8,0.1,2.2,0.1c0.3,0,0.5,0,0.7-0.2c0.5-0.5,0.8-2.4,1-6.9h-4.2c-0.2,3.1-1.3,6.8-5.5,9.1c-0.3-0.5-1-1.1-1.4-1.5
		c3.7-2,4.7-5.1,5-7.7h-4.5v-1.8h4.6v-3.1h1.9v3.1H72.6z"/>
	<path d="M79.1,29c-0.2,2.2-0.6,4-1.2,5.4c1.4,1.2,3.2,1.4,5.4,1.5c0.9,0,4,0,5,0c-0.3,0.4-0.5,1.2-0.6,1.6h-4.4
		c-2.5,0-4.6-0.3-6.1-1.6c-0.5,0.8-1,1.4-1.6,1.9c-0.3-0.3-0.9-1-1.3-1.2c0.7-0.5,1.3-1.2,1.8-2c-0.5-0.8-1-1.7-1.3-2.9l1.3-0.4
		c0.2,0.7,0.5,1.3,0.7,1.7c0.3-0.8,0.5-1.7,0.6-2.7H75c0.6-1.1,1.4-2.7,2-4.2h-2.2v-1.5h4.6c-0.6,1.3-1.3,2.9-1.9,4.2h0.4l0.3,0
		L79.1,29z M82.3,26.3h-2.5v-1.4h2.5v-1.1H84v1.1h3.3v2h0.8v1.4h-0.8v2H84V31h3.4v1.3H84V33h3.9v1.4H84v1h-1.7v-1H79V33h3.3v-0.7
		h-2.7V31h2.7v-0.7h-2.6v-1.4h2.6v-0.6h-3.4v-1.4h3.4V26.3z M84,26.3v0.7h1.7v-0.7H84z M85.7,28.3H84v0.6h1.7V28.3z"/>
	<path d="M103.3,25.9h-2.6c0.3,0.3,0.6,0.6,0.8,0.9l-1.2,0.9h1v2.8c0,0.3,0,0.4,0,0.4c0,0.1,0.1,0.1,0.1,0.1h0.2c0.1,0,0.1,0,0.2,0
		c0,0,0.1-0.1,0.1-0.3c0-0.2,0-0.6,0.1-1.1c0.3,0.2,0.8,0.5,1.2,0.6c0,0.6-0.1,1.2-0.2,1.5c-0.1,0.2-0.3,0.4-0.5,0.6
		c-0.2,0.1-0.5,0.2-0.8,0.2h-0.7c-0.4,0-0.8-0.1-1-0.4c-0.2-0.2-0.3-0.5-0.4-1.3L99,31.9c-0.3-0.2-0.6-0.3-1-0.6
		c-0.2,0.3-0.5,0.6-0.9,0.8h0.2V33h5.9v1.4h-4c1.2,0.5,3,1.3,3.8,1.9l-1.3,1.2c-0.8-0.6-2.5-1.5-3.8-2.1l1.2-1.1h-1.9v3.4h-1.7v-3.4
		h-5.9V33h5.9v-0.9h0.2c-0.2-0.2-0.4-0.4-0.6-0.5v0.1c-1.8,0.3-3.8,0.5-5.2,0.7L89.7,31c0.6-0.1,1.3-0.1,2-0.2v-1.8h-1.9v-1.2h3.8
		c-0.3-0.4-0.8-1-1.2-1.4l0.6-0.5h-1c-0.5,0.6-1,1.1-1.5,1.6c-0.3-0.3-0.8-0.9-1.2-1.2c0.9-0.6,1.8-1.6,2.2-2.6l1.6,0.5
		c-0.1,0.2-0.2,0.3-0.3,0.5h3.3v1.3H94c0.4,0.4,0.7,0.7,0.9,1l-1,0.8h1.2v1.2h-1.8v1.6c0.6-0.1,1.2-0.1,1.7-0.2l0,1.1
		c0.7-0.3,1.2-0.6,1.4-0.9c-0.4-0.2-0.9-0.4-1.2-0.6l0.6-1c0.3,0.1,0.7,0.3,1.1,0.5c0-0.1,0-0.2,0-0.2v-0.5h-1.4v-1.2h4.5
		c-0.3-0.4-0.8-1-1.2-1.4l0.6-0.4h-1.2c-0.4,0.6-0.9,1.1-1.3,1.6c-0.3-0.3-1-0.8-1.4-1.1c0.9-0.7,1.6-1.7,2-2.8l1.6,0.4
		c-0.1,0.2-0.1,0.3-0.2,0.5h4.2L103.3,25.9z M94.9,35c-0.9,1.2-2.5,2.1-4.1,2.6c-0.3-0.4-0.8-1.1-1.2-1.5c1.5-0.3,3-0.9,3.9-1.7
		L94.9,35z M98.5,29.3c0,0.3,0,0.6-0.1,0.8c0.4,0.2,0.8,0.4,1.1,0.6v-0.2v-1.7h-1V29.3z"/>
	<path d="M117.7,24.2v13.5H116V37h-9.3v0.7h-1.6V24.2H117.7z M116,35.7V25.6h-9.3v10.1H116z M115.7,33.5h-1.9v1
		c0,0.6-0.1,0.8-0.5,0.9c-0.4,0.1-1,0.1-1.8,0.1c-0.1-0.3-0.2-0.6-0.4-0.9c0.4,0,0.9,0,1.1,0c0.1,0,0.2,0,0.2-0.2v-0.9h-2.7
		c0.4,0.4,0.8,0.9,1,1.2l-1.2,0.6c-0.2-0.4-0.6-0.9-1-1.4l0.9-0.5H107v-1h5.2v-0.4h1.5v0.4h0.8c-0.1-0.2-0.3-0.3-0.4-0.5
		c-2.5,0.1-4.9,0.2-6.8,0.2l-0.1-0.9c0.9,0,2.1,0,3.3,0v-0.5h-3v-3.1h3v-0.5h-3.4v-1h3.4v-0.6h1.5v0.6h3.4v1h-3.4v0.5h3v3.1h-0.8
		c0.5,0.4,1,0.8,1.2,1.2l-0.8,0.6h0.9V33.5z M109,28.9h1.6v-0.4H109V28.9z M110.6,30.1v-0.4H109v0.4H110.6z M112.1,28.5v0.4h1.6
		v-0.4H112.1z M113.7,29.6h-1.6v0.4h1.6V29.6z M112.1,31.3h1.2l-0.2-0.1l0.5-0.3h-1.5V31.3z"/>
	<path d="M124.7,25c-0.4,1.3-0.9,2.9-1.3,4.1c0.9,1.2,1.1,2.2,1.1,3c0,1-0.2,1.6-0.7,1.9c-0.2,0.2-0.5,0.3-0.9,0.3c-0.3,0-0.6,0-1,0
		c0-0.4-0.1-1.1-0.4-1.5c0.3,0,0.5,0,0.6,0c0.2,0,0.3,0,0.4-0.1c0.2-0.1,0.2-0.4,0.2-0.8c0-0.7-0.2-1.6-1-2.6
		c0.3-0.9,0.6-2.2,0.9-3.3h-1.2v11.8H120V24.4h3.3l0.3-0.1L124.7,25z M133.2,29.3c-0.5,0.4-1.2,0.8-1.8,1.1c0.5,1.5,1.4,3.2,2.3,4.1
		c-0.4,0.3-0.9,0.8-1.1,1.1c-0.9-1.1-1.8-2.9-2.4-4.6l-0.1,0c0.7,2.4,0.4,4.9-0.5,5.7c-0.5,0.6-1,0.8-1.8,0.8c-0.3,0-0.8,0-1.2,0
		c0-0.5-0.1-1.1-0.4-1.6c0.5,0.1,1,0.1,1.3,0.1c0.4,0,0.6-0.1,0.8-0.4c0.3-0.3,0.5-1,0.5-1.9c-1.1,0.9-2.5,1.7-3.8,2.1
		c-0.2-0.4-0.7-0.9-1-1.2c1.6-0.5,3.6-1.5,4.7-2.6c-0.1-0.2-0.1-0.5-0.2-0.8c-0.9,0.7-2,1.4-2.9,1.8c-0.2-0.4-0.6-1-0.9-1.3
		c1.1-0.4,2.5-1.2,3.4-1.8c-0.1-0.3-0.3-0.6-0.5-0.8c-0.8,0.6-1.6,1-2.4,1.4c-0.2-0.3-0.7-0.9-1-1.2c1.1-0.4,2.2-1,3.1-1.7h-2.6
		v-1.5h2.4c-0.4-0.5-0.9-1.1-1.4-1.5l1.3-0.8c0.7,0.5,1.4,1.3,1.8,1.8l-0.7,0.5h1.4c0.5-0.7,1.1-1.6,1.4-2.3l1.7,0.5
		c-0.4,0.7-0.9,1.3-1.3,1.8h2.2v1.5h-4c-0.2,0.2-0.4,0.4-0.6,0.6c0.4,0.5,0.8,1,1,1.6c0.9-0.5,1.8-1.2,2.5-1.7L133.2,29.3z"/>
	<path d="M148.2,34.6h-3.3V36c0,0.8-0.1,1.2-0.8,1.5c-0.6,0.2-1.4,0.2-2.6,0.2c-0.1-0.5-0.3-1.1-0.5-1.6c0.7,0,1.6,0,1.8,0
		c0.2,0,0.3-0.1,0.3-0.3v-1.4h-4.2c0.6,0.5,1.3,1,1.6,1.4l-1.3,1.1c-0.4-0.6-1.4-1.4-2.2-2l0.6-0.5h-3v-1.4h8.6v-0.6
		c-3,0.1-5.8,0.1-7.9,0.1l0-1.3c1.4,0,3.3,0,5.3,0v-0.5h-4.3v-4.3h4.3V26H135v-1.3h5.5v-0.9h1.7v0.9h5.5V26h-5.5v0.5h4.5v4.3h-1
		c0.7,0.4,1.5,0.8,1.9,1.2l-1.1,0.9c-0.2-0.2-0.4-0.3-0.6-0.5l-1.1,0v0.6h3.3V34.6z M137.8,28.2h2.7v-0.6h-2.7V28.2z M140.5,29.8
		v-0.6h-2.7v0.6H140.5z M142.2,27.7v0.6h2.8v-0.6H142.2z M145,29.8v-0.6h-2.8v0.6H145z M142.2,31.4l1.9,0c-0.2-0.1-0.4-0.2-0.6-0.3
		l0.3-0.2h-1.6V31.4z"/>
	<path d="M163,32.5c-0.3,2.9-0.5,4.2-1,4.6c-0.3,0.4-0.7,0.5-1.1,0.6c-0.4,0-1.1,0.1-1.8,0c0-0.5-0.2-1.1-0.5-1.6
		c0.6,0.1,1.2,0.1,1.5,0.1c0.2,0,0.3,0,0.5-0.2c0.2-0.2,0.4-1,0.6-2.7h-8.9c-0.2,0.2-0.5,0.3-0.8,0.5l1.4,0.4
		c-0.3,1.3-0.8,2.6-1.8,3.4l-1.4-0.9c0.8-0.7,1.4-1.7,1.6-2.8c-0.4,0.2-0.7,0.4-1.1,0.6c-0.2-0.4-0.6-1.2-0.9-1.6
		c2.5-1.1,4.4-3,5.7-5.1h-4.8v-1.6h2.5c-0.2-0.6-0.6-1.3-0.9-1.9l1.5-0.6c0.5,0.7,0.9,1.6,1.2,2.2l-0.8,0.3h2.2
		c0.4-0.8,0.8-1.7,1-2.6l1.8,0.5c-0.3,0.7-0.5,1.4-0.9,2.1h2.9c-0.2,0.9-0.4,1.9-0.6,2.7h1.7c-0.2,0.9-0.4,1.9-0.5,2.8h1.6L163,32.5
		z M154.8,34.3c0.3,0.9,0.4,2,0.4,2.8l-1.5,0.2c0-0.7-0.1-1.9-0.3-2.8L154.8,34.3z M155.2,30.6c-0.3,0.4-0.7,0.8-1.1,1.2h5.7
		c0.1-0.4,0.2-0.8,0.3-1.2H155.2z M157.1,34c0.3,0.8,0.6,1.8,0.7,2.4l-1.4,0.4c-0.1-0.7-0.4-1.7-0.7-2.5L157.1,34z M157.1,27.9
		c-0.2,0.4-0.5,0.8-0.7,1.2h2.3c0.1-0.4,0.2-0.8,0.3-1.2H157.1z M158.8,36c-0.1-0.5-0.5-1.4-0.9-2l1.2-0.4c0.4,0.6,0.8,1.4,1,2
		L158.8,36z"/>
	<path d="M166.2,23.7h5v1.6H168v8h-1.8V23.7z"/>
	<path d="M185.8,29.6v1.9H172v-1.9H185.8z"/>
	<path d="M191.3,24.3c-0.3,0.9-0.7,1.9-1.2,2.8v10.6h-1.7v-7.7c-0.3,0.5-0.7,0.9-1,1.3c-0.1-0.4-0.6-1.5-0.8-1.9
		c1.2-1.4,2.4-3.5,3.1-5.7L191.3,24.3z M200.5,24.5v13.1h-1.7v-0.7h-5.6v0.9h-1.6V24.5H200.5z M198.8,35.3V26h-5.6v9.3H198.8z
		 M196.6,29.2v1.3h1.4v4h-4.2v-4h1.3v-1.3h-1.7v-1.3h1.7v-1.5h1.4v1.5h1.8v1.3H196.6z M196.7,31.7h-1.5v1.6h1.5V31.7z"/>
	<path d="M209.8,23.8c0,0.6,0,1.4-0.1,2.3c0.2,2,1.1,7.7,6.4,10c-0.6,0.4-1.1,1-1.3,1.5c-3.3-1.6-5-4.5-5.9-7.1
		c-0.8,2.6-2.4,5.4-5.5,7.2c-0.3-0.5-0.9-1.1-1.5-1.5c6.1-3.3,5.8-10,5.9-12.5H209.8z"/>
	<path d="M230.5,26c0,0,0,0.6,0,0.8c-0.2,6.7-0.4,9.1-1,9.9c-0.4,0.6-0.8,0.7-1.4,0.8c-0.6,0.1-1.5,0.1-2.4,0c0-0.5-0.3-1.2-0.6-1.7
		c1,0.1,1.8,0.1,2.2,0.1c0.3,0,0.5-0.1,0.7-0.3c0.4-0.5,0.6-2.7,0.8-8h-3.2c-0.4,0.9-0.9,1.7-1.3,2.4c-0.2-0.2-0.8-0.6-1.2-0.8v7h-4
		v1.1h-1.6V26.2h1.7c0.2-0.8,0.4-1.7,0.4-2.4l2,0.3c-0.3,0.8-0.5,1.5-0.8,2.1h2.3v2.4c0.9-1.3,1.6-3.1,2-4.8l1.7,0.4
		c-0.1,0.6-0.4,1.3-0.6,1.9H230.5z M221.5,27.7h-2.4v2.4h2.4V27.7z M221.5,34.6v-2.9h-2.4v2.9H221.5z M226.5,33.8
		c-0.4-0.9-1.4-2.4-2.1-3.5l1.4-0.8c0.8,1,1.7,2.5,2.2,3.3L226.5,33.8z"/>
	<path d="M236.9,24.3c-0.4,1-0.9,2.1-1.4,3.1v10.3h-1.8v-7.5c-0.3,0.4-0.6,0.8-0.9,1.1c-0.2-0.4-0.7-1.5-1-1.9
		c1.4-1.3,2.7-3.5,3.4-5.6L236.9,24.3z M246,35.6v1.7h-9.7v-1.7h4v-3h-3.2v-1.7h3.2v-2.6h-3.7v-1.7h4c-0.2-0.6-0.6-1.6-1.1-2.3
		l1.6-0.6c0.5,0.7,1,1.7,1.2,2.3l-1.5,0.6h4.9v1.7h-3.7v2.6h3.2v1.7h-3.2v3H246z"/>
	<path d="M249.3,28.4h-1.8v-3.3h5.5c-0.1-0.3-0.3-0.6-0.4-0.9l1.8-0.5c0.3,0.4,0.5,0.9,0.7,1.4h5.3v3.3h-1.9v-1.7h-9.1V28.4z
		 M257.9,35.7c0.8,0,0.9-0.3,1-1.8c0.4,0.3,1.2,0.6,1.8,0.7c-0.2,2.2-0.8,2.9-2.6,2.9h-2.9c-2.2,0-2.8-0.6-2.8-2.5v-1.8h-4.5v-1.8
		h4.5v-1.5c-1.1,0.2-2.2,0.3-3.3,0.4c-0.1-0.4-0.3-1.2-0.5-1.6c3-0.3,6.4-0.8,8.4-1.6l1.4,1.5c-1.2,0.4-2.5,0.8-4,1v1.8h5.5v1.8
		h-5.5V35c0,0.7,0.2,0.8,1,0.8H257.9z"/>
	<path d="M266.6,37.8h-5v-1.6h3.2v-8h1.8V37.8z"/>
	<path d="M271.9,32.5c-0.1,1.9-0.4,3.9-1.3,5.3c-0.3-0.3-1.1-0.9-1.5-1.1c1-1.7,1-4.2,1-6.2v-5.4h0c1.8-0.2,3.8-0.6,5.1-1.1l1.1,1.5
		c-1.3,0.4-2.9,0.7-4.5,0.9v1.1h3.9v5H271.9z M272,29.1v1.4v0.4h2.1v-1.8H272z M283.4,30.5H282v7.2h-1.8v-7.2h-1.6
		c-0.1,2.4-0.6,5.5-2.7,7.3c-0.3-0.3-1-1-1.4-1.2c2.1-1.9,2.2-4.6,2.2-6.8v-4.7c1.8-0.2,3.9-0.7,5.2-1.2l1.2,1.5
		c-1.3,0.5-2.9,0.8-4.5,1v2.3h4.7V30.5z"/>
	<path d="M289.5,35.6c-0.4-0.6-1-1.5-1.6-2.3c-0.4,1.5-1.1,3-2.3,4.2c-0.3-0.4-0.9-0.9-1.3-1.2c1.5-1.3,2.1-3.3,2.3-5.2h-2.1v-1.6
		h2.2c0-0.3,0-0.6,0-0.9v-1h-2V26h2v-2.1h1.7V26h1.9v1.6h-1.9v1c0,0.3,0,0.6,0,0.9h2.1v1.6h-2.2l0,0.3c0.6,0.6,2.1,2.4,2.4,2.8
		L289.5,35.6z M296.8,35.9c0.2,0,0.3-0.1,0.3-1c0.3,0.3,1,0.5,1.4,0.6c-0.2,1.5-0.6,1.9-1.6,1.9h-1c-1.3,0-1.6-0.5-1.6-2v-2.6h-0.6
		c-0.3,2.2-0.9,3.9-3.6,4.9c-0.2-0.4-0.6-1-1-1.3c2.2-0.7,2.7-1.9,2.9-3.6h-1.1v-8.6h6.7v8.6H296v2.6c0,0.4,0,0.4,0.3,0.4H296.8z
		 M292.6,26.7h3.3v-0.9h-3.3V26.7z M292.6,29h3.3v-0.9h-3.3V29z M292.6,31.3h3.3v-0.9h-3.3V31.3z"/>
	<path d="M307.2,26h0.8v1.1h-0.8v1.5h-2.8V29h2.9v1h-2.9v0.4h3.5v1.1h-8.4v-1.1h3.3V30h-2.6v-1h2.6v-0.5h-2.6v-1h2.6v-0.5h-3.4V26
		h3.4v-0.5h-2.6v-1h2.6v-0.8h1.6v0.8h2.8V26z M299.5,36c2.1-0.1,5.4-0.2,8.5-0.3l0,1.3c-3,0.1-6.2,0.3-8.3,0.3L299.5,36z M307.3,32
		v3.4h-7V32H307.3z M301.6,33.3h1.4v-0.5h-1.4V33.3z M301.6,34.6h1.4v-0.5h-1.4V34.6z M304.4,26h1.3v-0.5h-1.3V26z M305.7,27.1h-1.3
		v0.5h1.3V27.1z M305.8,32.8h-1.3v0.5h1.3V32.8z M305.8,34.1h-1.3v0.5h1.3V34.1z M310,34h-1.6v-8.4h1.6V34z M312.9,24v11.6
		c0,0.9-0.2,1.4-0.7,1.7c-0.5,0.3-1.3,0.4-2.5,0.3c-0.1-0.5-0.3-1.2-0.5-1.8c0.8,0,1.5,0,1.8,0c0.2,0,0.3-0.1,0.3-0.3V24H312.9z"/>
</g>
</svg>
