<?xml version="1.0" encoding="utf-8"?>
<!-- Generator: Adobe Illustrator 25.2.3, SVG Export Plug-In . SVG Version: 6.00 Build 0)  -->
<svg version="1.1" id="圖層_1" xmlns="http://www.w3.org/2000/svg" xmlns:xlink="http://www.w3.org/1999/xlink" x="0px" y="0px"
	 viewBox="0 0 137 201" style="enable-background:new 0 0 137 201;" xml:space="preserve">
<style type="text/css">
	.st0{fill:#B18053;}
</style>
<path class="st0" d="M136.9,38.5V4.6V0h-4.7H98.3v4.6h33.8v33.9H136.9z"/>
<g>
	<path d="M2.2,22h4.1v0.9H3.2v7.5h-1V22z"/>
	<path d="M18.9,23.9V34h-1v-0.7h-6.9v0.7h-1V23.9h3.3c0.2-0.6,0.4-1.3,0.5-1.8l1.1,0.1c-0.2,0.6-0.4,1.1-0.6,1.6H18.9z M10.9,24.9
		v1.9h6.9v-1.9H10.9z M10.9,27.7v1.9h6.9v-1.9H10.9z M17.9,32.4v-1.9h-6.9v1.9H17.9z"/>
	<path d="M33.6,24.7V34h-1v-0.7h-8V34h-1v-9.4h4.5v-2.5h1v2.5H33.6z M24.6,25.6v2.8h3.5v-2.8H24.6z M24.6,32.3h3.5v-2.9h-3.5V32.3z
		 M29.1,25.6v2.8h3.6v-2.8H29.1z M32.7,32.3v-2.9h-3.6v2.9H32.7z"/>
	<path d="M47.7,25.2c-1.6,2.4-4.5,5.1-7.1,6.7c0.1,0.1,0.2,0.2,0.3,0.2c0.8,0.5,1.9,0.6,3.3,0.6c1.5,0,3.4-0.1,4.7-0.2
		c-0.1,0.2-0.3,0.8-0.3,1c-1,0.1-3.2,0.1-4.4,0.1c-1.6,0-2.6-0.2-3.5-0.7c-0.5-0.3-0.9-0.8-1.2-0.8c-0.4,0-1,0.8-1.6,1.6l-0.7-0.9
		c0.9-0.9,1.7-1.6,2.4-1.6c0.1,0,0.1,0,0.2,0c2.4-1.4,4.9-3.7,6.4-5.7h-8.3v-0.9h9l0.2-0.1L47.7,25.2z M43.3,24.7
		c-0.3-0.6-0.9-1.5-1.4-2.2l0.8-0.4c0.5,0.7,1.1,1.6,1.4,2.1L43.3,24.7z"/>
	<path d="M63.1,32.4v0.9H51.5v-0.9h2.1v-8.8c2.6-0.1,5.7-0.5,7.4-1.1l0.6,0.8c-1.7,0.6-4.6,0.9-7,1.1v2.4h8v0.9h-2.2v4.6H63.1z
		 M54.5,32.4h4.8v-4.6h-4.8V32.4z"/>
	<path d="M69.4,34.2h-4.1v-0.9h3.1v-7.5h1V34.2z"/>
	<path d="M75.4,24.5v2.7c0,2-0.2,4.9-1.2,6.9c-0.2-0.2-0.6-0.5-0.8-0.5c1-1.8,1.1-4.5,1.1-6.3v-3.6h5.4c-0.2-0.4-0.4-0.8-0.7-1.2
		l0.9-0.3c0.3,0.4,0.7,1,0.9,1.5h4.3v0.9H75.4z M80.8,32.9h4.5v0.9h-9.8v-0.9h4.4v-1.9h-3.6v-0.8h3.6V25h0.9v3.8
		c1.1-0.8,1.7-2,2-3.6l0.9,0.1c-0.1,0.6-0.3,1.1-0.5,1.6c0.8,0.6,1.7,1.4,2.1,1.9l-0.6,0.6c-0.4-0.5-1.1-1.2-1.8-1.8
		c-0.4,0.7-0.8,1.2-1.4,1.7c-0.1-0.1-0.5-0.4-0.7-0.5v1.3h3.7v0.8h-3.7V32.9z M78.4,25.3c-0.1,0.6-0.2,1.1-0.4,1.6
		c0.6,0.5,1.3,1.2,1.7,1.7l-0.6,0.6c-0.3-0.4-0.8-1-1.4-1.5c-0.4,0.7-0.8,1.4-1.4,1.9c-0.1-0.2-0.5-0.4-0.7-0.5
		c1.1-0.8,1.7-2.2,1.9-3.8L78.4,25.3z"/>
	<path d="M90.1,29.4c-0.5-0.4-1.5-0.9-2.2-1.3l0.5-0.6c0.7,0.4,1.7,0.9,2.2,1.2L90.1,29.4z M90.9,23.9h-2.8v-0.9h2.8v-0.9h0.9v0.9
		h1.6v0.9h-1.6V25h-0.9V23.9z M88.1,33.3c0.7-0.8,1.8-2.1,2.6-3.2l0.6,0.7c-0.7,1.1-1.7,2.4-2.5,3.3L88.1,33.3z M89.3,24.9
		c0.7,0.4,1.7,1,2.2,1.3l-0.6,0.7c-0.5-0.3-1.5-0.9-2.2-1.4L89.3,24.9z M98.8,25.9c-0.6,0.9-1.4,1.7-2.4,2.3
		c1.1,0.5,2.3,0.9,3.4,1.2c-0.2,0.2-0.5,0.6-0.6,0.8c-1.2-0.3-2.5-0.8-3.7-1.5c-1.2,0.7-2.7,1.2-4,1.6c-0.1-0.2-0.3-0.6-0.5-0.8
		c1.2-0.3,2.5-0.7,3.6-1.3c-0.6-0.4-1.1-0.8-1.5-1.3c-0.4,0.4-0.9,0.9-1.5,1.3c-0.2-0.2-0.5-0.5-0.7-0.6c1.4-0.9,2.4-2.1,2.9-3.1
		l0.9,0.2c-0.2,0.3-0.3,0.5-0.5,0.8h3.6l0.2-0.1L98.8,25.9z M92.5,30.2h6V34h-0.9v-0.6h-4.1V34h-0.9V30.2z M93.5,31v1.8h4.1V31H93.5
		z M93.8,26.4c0.5,0.5,1.1,0.9,1.8,1.4c0.7-0.4,1.3-0.9,1.8-1.5L93.8,26.4L93.8,26.4z M95.6,23.9h-1.5v-0.9h1.5v-0.9h0.9v0.9h2.8
		v0.9h-2.8V25h-0.9V23.9z"/>
	<path d="M104.2,30.4c-0.3,0.9-0.9,1.9-1.3,2.6c-0.2-0.1-0.5-0.4-0.7-0.5c0.5-0.6,1-1.5,1.2-2.3L104.2,30.4z M105.8,29.5V34h-0.9
		v-4.5h-2.6v-0.8h2.6v-1.4h-2.7v-0.8h3.6c0.2-0.6,0.5-1.5,0.7-2.1l0.9,0.2c-0.2,0.6-0.5,1.3-0.7,1.9h1.7v0.8h-2.5v1.4h2.4v0.8H105.8
		z M108.1,24.3h-5.7v-0.8h2.5c-0.2-0.4-0.4-0.8-0.6-1.2l0.9-0.2c0.3,0.4,0.6,1,0.7,1.4h2.1V24.3z M103.8,26.4
		c-0.1-0.5-0.3-1.2-0.5-1.8l0.8-0.2c0.3,0.6,0.5,1.3,0.5,1.8L103.8,26.4z M107.1,30.1c0.4,0.6,0.9,1.5,1.1,2l-0.7,0.4
		c-0.2-0.6-0.7-1.5-1.1-2.1L107.1,30.1z M114,27.4h-1.4V34h-0.9v-6.6h-1.8v0.5c0,1.9-0.2,4.4-1.4,6.1c-0.2-0.2-0.5-0.5-0.7-0.6
		c1.1-1.6,1.2-3.8,1.2-5.5v-4.5c1.5-0.2,3.1-0.6,4-1l0.8,0.7c-1.1,0.4-2.6,0.7-3.9,0.9v2.5h4.1V27.4z"/>
	<path d="M6.1,51.3l0.2,0.8c-1.9,0.8-3.9,1.7-5.4,2.2l-0.4-0.9c0.9-0.3,2.3-0.8,3.7-1.4v-5.2H0.9V46h3.3v-3h1v8.8L6.1,51.3z
		 M10.5,53.1c0.6,0,0.7-0.6,0.7-3.1c0.3,0.2,0.6,0.4,0.9,0.5C12,53.1,11.8,54,10.5,54H8.8c-1.1,0-1.4-0.4-1.4-1.7v-9.4h1v3H12v0.9
		H8.3v5.4c0,0.6,0.1,0.8,0.6,0.8H10.5z"/>
	<path d="M20.8,47.4c0.9,2.9,2.6,5.2,5.1,6.2c-0.2,0.2-0.6,0.6-0.7,0.9c-2.5-1.2-4.1-3.5-5.2-6.4c-0.6,2.5-2,5-5.2,6.4
		c-0.1-0.3-0.5-0.6-0.7-0.8c3.2-1.4,4.5-3.9,5.1-6.4h-4.8v-1h5c0.2-1.4,0.2-2.7,0.2-3.7h1c0,1,0,2.3-0.2,3.7h5.4v1H20.8z"/>
	<path d="M30.8,48.9c-0.2,1.1-0.6,2.4-1.1,3.4c0.2,0.1,0.6,0.4,1,0.7c0.9,0.6,2.1,0.7,3.6,0.7c1.7,0,3.8-0.1,5.2-0.3
		c-0.1,0.3-0.3,0.7-0.3,1c-1,0.1-3.4,0.1-5,0.1c-1.7,0-2.8-0.1-3.8-0.7c-0.5-0.3-1-0.8-1.3-0.8c-0.3,0-0.7,0.8-1.1,1.6l-0.7-0.9
		c0.5-0.6,0.9-1.2,1.3-1.4c0.4-0.7,0.7-1.8,0.9-2.7H28c0.4-0.8,0.8-1.9,1.1-2.9h-1.4v-0.9h2.7c-0.3,0.9-0.7,2-1.1,2.9h0.9l0.2,0
		L30.8,48.9z M29,45.1c-0.2-0.6-0.4-1.5-0.7-2.1l0.9-0.2c0.2,0.7,0.5,1.5,0.7,2.1L29,45.1z M34.2,46.2c0.1-0.3,0.2-0.7,0.3-1h-3.4
		v-0.8h2.2c-0.2-0.4-0.5-1-0.8-1.4l0.8-0.3c0.4,0.4,0.8,1,0.9,1.4l-0.5,0.3h2.3c0.4-0.5,0.8-1.2,1-1.7l0.9,0.3
		c-0.3,0.5-0.6,1-0.9,1.4h2.4v0.8h-3.7c-0.1,0.4-0.3,0.7-0.4,1h3v6.1h-6v-6.1H34.2z M37.2,47h-4.2V48h4.2V47z M37.2,48.7h-4.2v1.1
		h4.2V48.7z M37.2,50.5h-4.2v1.1h4.2V50.5z"/>
	<path d="M52.9,50.6v0.9H41.2v-0.9h1.3l-0.2-6.9c0.8-0.3,1.8-0.7,2.4-1l0.5,0.8c-0.6,0.2-1.3,0.5-2,0.7l0.1,1.5h1.7v0.8h-1.7
		l0.1,1.6H45V49h-1.7l0.1,1.6h7.4c0-0.5,0.1-1,0.1-1.6h-1.7v-0.8h1.7c0-0.5,0-1.1,0.1-1.6h-1.7v-0.8h1.7c0-0.6,0-1.1,0-1.6h-1.9
		v-0.8h2.8c0,2.3-0.1,5.4-0.2,7.3H52.9z M45.8,52.3c-1.1,0.8-2.6,1.7-3.9,2.2c-0.1-0.2-0.4-0.5-0.6-0.7c1.2-0.5,2.8-1.4,3.6-2.1
		L45.8,52.3z M46.8,47.6c-0.1,0.9-0.4,1.8-0.8,2.4c-0.1-0.1-0.5-0.3-0.7-0.4c0.4-0.6,0.6-1.4,0.7-2.1L46.8,47.6z M47.7,47h-2.1v-4.2
		h0.8V44h2.1v0.8h-2.1v1.4h1.7v0h0.4v3.4c0,0.4-0.1,0.6-0.4,0.7c-0.3,0.1-0.7,0.1-1.4,0.1c0-0.2-0.1-0.5-0.2-0.7c0.5,0,0.8,0,1,0
		c0.1,0,0.2-0.1,0.2-0.2V47z M48.8,51.7c1.4,0.6,2.9,1.5,3.8,2.1L52,54.5c-0.9-0.6-2.3-1.5-3.7-2.1L48.8,51.7z"/>
	<path d="M54.7,53.4c0.6-0.8,1.1-2.1,1.4-3.1l0.9,0.3c-0.3,1.1-0.8,2.4-1.4,3.3L54.7,53.4z M65,49.1h-9v-5.8h9V49.1z M56.9,45.7H60
		v-1.6h-3.2V45.7z M56.9,48.2H60v-1.7h-3.2V48.2z M62.1,53.4c0.6,0,0.7-0.2,0.8-1.7c0.2,0.2,0.6,0.3,0.9,0.4
		c-0.1,1.8-0.4,2.2-1.6,2.2h-2.6c-1.4,0-1.8-0.3-1.8-1.3v-2.6h1v2.6c0,0.4,0.1,0.4,0.9,0.4H62.1z M61.7,51.8
		c-0.6-0.6-1.7-1.4-2.7-1.9l0.6-0.6c1,0.5,2.1,1.2,2.7,1.8L61.7,51.8z M64.1,44.1H61v1.6h3.1V44.1z M64.1,46.6H61v1.7h3.1V46.6z
		 M64.5,50.2c0.8,1,1.5,2.3,1.8,3.2l-0.9,0.4c-0.3-0.9-1-2.2-1.8-3.2L64.5,50.2z"/>
	<path d="M70.3,48.4c-0.5-0.4-1.5-1-2.2-1.4l0.6-0.7c0.7,0.4,1.7,0.9,2.2,1.3L70.3,48.4z M71.1,50.2c-0.5,1.4-1.3,3-1.9,4.2
		l-0.9-0.5c0.6-1,1.4-2.7,2-4.2L71.1,50.2z M70.9,45c-0.5-0.4-1.5-1-2.2-1.5l0.6-0.7c0.7,0.4,1.7,1,2.2,1.4L70.9,45z M72.9,46.9
		c0,2.3-0.2,5.5-1.8,7.6c-0.2-0.2-0.6-0.4-0.8-0.5c1.5-2.1,1.6-5,1.6-7.1v-3.5h7.9v0.9h-7V46.9z M75,51.1c-0.4,0.9-1.1,2-1.6,2.7
		c-0.2-0.1-0.5-0.4-0.8-0.5c0.6-0.6,1.2-1.5,1.5-2.4L75,51.1z M76.9,50.1v3.4c0,0.5-0.1,0.7-0.4,0.9c-0.4,0.1-0.9,0.1-1.8,0.1
		c0-0.2-0.2-0.6-0.3-0.8c0.6,0,1.2,0,1.3,0c0.2,0,0.2-0.1,0.2-0.2v-3.4h-2.3v-4.5h2c0.1-0.4,0.3-0.9,0.4-1.3l1.1,0.2
		c-0.2,0.4-0.4,0.8-0.5,1.1h2.8v4.5H76.9z M74.5,47.6h4v-1.1h-4V47.6z M74.5,49.4h4v-1.1h-4V49.4z M78.6,50.8
		c0.5,0.8,1.2,1.9,1.5,2.5l-0.9,0.4c-0.3-0.6-0.9-1.7-1.4-2.5L78.6,50.8z"/>
	<path d="M92.6,44.2c-0.4,1.4-1.1,2.5-1.9,3.5c0.8,0.8,1.8,1.5,3,1.9c-0.2,0.2-0.5,0.6-0.6,0.8c-0.1-0.1-0.3-0.1-0.4-0.2v4.3h-0.9
		v-0.4h-3.2v0.5h-0.9v-4.3c-0.3,0.1-0.5,0.2-0.8,0.4c-0.1-0.2-0.3-0.5-0.5-0.6H85v2.3c0.6-0.1,1.1-0.3,1.7-0.4l0.1,0.9
		c-1.8,0.4-3.6,0.9-5,1.2L81.6,53l0.7-0.1v-4.4h0.8v4.3l1-0.2v-5.3h-1.8v-4h4.2v3.4c1-1,1.9-2.4,2.4-4l0.9,0.2
		c-0.1,0.4-0.3,0.8-0.4,1.1h2.5l0.2,0L92.6,44.2z M83.1,46.3h2.4v-2.3h-2.4V46.3z M86.6,49.7c1-0.4,2.1-1.1,2.9-2
		c-0.5-0.6-0.9-1.2-1.2-1.8c-0.4,0.6-0.8,1.1-1.2,1.5c-0.1-0.1-0.4-0.4-0.7-0.6v0.4H85V49h1.6V49.7z M92,49.9
		c-0.7-0.4-1.4-1-1.9-1.5c-0.6,0.6-1.3,1.1-2,1.5H92z M91.7,53.2v-2.5h-3.2v2.5H91.7z M88.9,44.8l-0.1,0.2c0.3,0.6,0.8,1.3,1.3,2
		c0.5-0.7,1-1.4,1.3-2.2H88.9z"/>
	<path d="M105.9,44v10.1h-1v-1h-7.6v1.1h-1V44H105.9z M104.9,52.1V45h-7.6v7.2H104.9z"/>
	<path d="M110,50.4c1-0.4,1.6-1,1.6-1.9c-0.1,0-0.1,0-0.2,0c-0.5,0-1-0.3-1-0.9c0-0.6,0.5-0.9,1-0.9c0.7,0,1.1,0.6,1.1,1.5
		c0,1.4-0.9,2.5-2.2,3L110,50.4z"/>
	<path d="M7.3,67.9c0.9,2.9,2.6,5.2,5.1,6.2c-0.2,0.2-0.6,0.6-0.7,0.9c-2.5-1.2-4.1-3.5-5.2-6.4c-0.6,2.5-2,5-5.2,6.4
		c-0.1-0.3-0.5-0.6-0.7-0.8c3.2-1.4,4.5-3.9,5.1-6.4H0.9v-1h5C6,65.5,6,64.2,6,63.2h1c0,1,0,2.3-0.2,3.7h5.4v1H7.3z"/>
	<path d="M18.3,69.4c-0.2,1.1-0.6,2.4-1.1,3.4c0.2,0.1,0.6,0.4,1,0.7c0.9,0.6,2.1,0.6,3.6,0.6c1.7,0,3.8-0.1,5.2-0.3
		c-0.1,0.3-0.3,0.7-0.3,1c-1,0.1-3.4,0.1-5,0.1c-1.7,0-2.8-0.1-3.8-0.7c-0.5-0.3-1-0.8-1.3-0.8c-0.3,0-0.7,0.8-1.1,1.6L15,74.2
		c0.5-0.6,0.9-1.2,1.3-1.4c0.4-0.7,0.7-1.8,0.9-2.7h-1.7c0.4-0.8,0.8-1.9,1.1-2.9h-1.4v-0.9h2.7c-0.3,0.9-0.7,2-1.1,2.9h0.9l0.2,0
		L18.3,69.4z M16.5,65.6c-0.2-0.6-0.4-1.5-0.7-2.1l0.9-0.2c0.2,0.7,0.5,1.5,0.7,2.1L16.5,65.6z M21.7,66.7c0.1-0.3,0.2-0.7,0.3-1
		h-3.4v-0.8h2.2c-0.2-0.4-0.5-1-0.8-1.4l0.8-0.3c0.4,0.4,0.8,1,0.9,1.4L21,64.9h2.3c0.4-0.5,0.8-1.2,1-1.7l0.9,0.3
		c-0.3,0.5-0.6,1-0.9,1.4h2.4v0.8h-3.7c-0.1,0.4-0.3,0.7-0.4,1h3v6.1h-6v-6.1H21.7z M24.7,67.5h-4.2v1.1h4.2V67.5z M24.7,69.2h-4.2
		v1.1h4.2V69.2z M24.7,71h-4.2v1.1h4.2V71z"/>
	<path d="M35.9,64.9v1.6h4.8v7.4c0,0.5-0.1,0.8-0.5,0.9c-0.4,0.1-1,0.2-2,0.2c-0.1-0.2-0.2-0.6-0.3-0.9c0.7,0,1.4,0,1.6,0
		c0.2,0,0.2-0.1,0.2-0.3v-6.5h-3.8V75H35v-7.6h-3.7V75h-0.9v-8.5H35v-1.6h-5v-0.9h11.2v0.9H35.9z M33.8,68.4c0,1.4,0.1,3,1.2,4.3
		c-0.2,0.1-0.4,0.3-0.5,0.4c-0.6-0.7-0.9-1.5-1.1-2.3c-0.3,1-0.7,1.8-1.3,2.4c-0.1-0.1-0.4-0.3-0.5-0.4c0.9-0.8,1.3-2.1,1.5-3.7
		h-0.8v-0.7H33.8z M38.3,68.4c0,1.4,0.1,3,1.3,4.3c-0.2,0.1-0.5,0.3-0.6,0.4c-0.6-0.7-1-1.5-1.1-2.4c-0.3,0.9-0.7,1.7-1.3,2.3
		c-0.1-0.1-0.4-0.3-0.5-0.4c0.8-0.8,1.3-2.1,1.5-3.5h-0.8v-0.7H38.3z"/>
	<path d="M47.5,63.5c-0.3,0.9-0.6,1.7-1,2.5v9h-0.9v-7.3c-0.4,0.6-0.8,1.2-1.2,1.7c-0.1-0.2-0.4-0.7-0.5-1c1.1-1.3,2.1-3.3,2.8-5.3
		L47.5,63.5z M49.4,72.6c-0.4,0.8-1.1,1.8-1.7,2.4c-0.2-0.1-0.5-0.4-0.7-0.5c0.6-0.6,1.3-1.5,1.6-2.2L49.4,72.6z M51.6,71.9h-3.7v-8
		h3.7V71.9z M50.7,64.7h-2v1.6h2V64.7z M50.7,67.1h-2v1.6h2V67.1z M50.7,69.5h-2v1.6h2V69.5z M50.8,72.2c0.4,0.7,0.9,1.5,1.2,2.1
		l-0.8,0.4c-0.2-0.6-0.7-1.5-1.1-2.1L50.8,72.2z M53.4,72.1h-0.9v-7.6h0.9V72.1z M55.6,63.3v10.5c0,0.6-0.1,0.8-0.5,1
		C54.8,75,54.2,75,53.3,75c0-0.2-0.2-0.7-0.3-0.9c0.7,0,1.2,0,1.4,0c0.2,0,0.3-0.1,0.3-0.3V63.3H55.6z"/>
	<path d="M70.5,68.5v1.1H58.7v-1.1H70.5z"/>
	<path d="M76.2,69.4c-0.2,1.1-0.6,2.4-1.1,3.4c0.3,0.1,0.6,0.4,1.1,0.7c0.9,0.6,2.1,0.6,3.6,0.6c1.7,0,3.8-0.1,5.2-0.2
		c-0.1,0.2-0.3,0.7-0.3,0.9c-1,0.1-3.5,0.1-5,0.1c-1.7,0-2.8-0.1-3.8-0.7c-0.5-0.3-1-0.8-1.3-0.8c-0.3,0-0.7,0.8-1.1,1.6L73,74.3
		c0.4-0.6,0.8-1.1,1.2-1.4c0.4-0.8,0.7-1.8,0.9-2.8h-1.6c0.4-0.8,0.9-1.9,1.2-2.9h-1.6v-0.9h2.9c-0.4,0.9-0.8,2.1-1.2,2.9h0.7l0.2,0
		L76.2,69.4z M74.9,65.6c-0.2-0.6-0.6-1.5-0.9-2.1l0.8-0.2c0.3,0.7,0.8,1.5,0.9,2.1L74.9,65.6z M77.3,69.4h-0.8v-1.3h3.6
		c-0.1-0.2-0.2-0.4-0.2-0.6h-2.5v-3.6h2.3c0.1-0.3,0.3-0.6,0.4-0.8l1,0.1c-0.2,0.2-0.3,0.5-0.5,0.7h3.1v3.6h-2.9
		c0.1,0.2,0.2,0.4,0.3,0.6h3.5v1.2h-0.9v-0.6h-1.5v0.6c0,0.2,0,0.3,0.3,0.3h1.1c0.2,0,0.6,0,0.8-0.1c0,0.2,0,0.3,0.1,0.5
		c-0.2,0.1-0.5,0.1-0.8,0.1h-1.5c-0.7,0-0.8-0.3-0.8-0.8v-0.6h-1.4c-0.4,0.9-1.3,1.4-3.1,1.7c-0.1-0.2-0.2-0.4-0.4-0.5
		c1.5-0.2,2.2-0.5,2.6-1.1h-1.8V69.4z M79.9,71.1c0,0.2-0.1,0.3-0.1,0.5h3.7c0,0,0,0.2,0,0.3c-0.2,0.9-0.4,1.3-0.6,1.5
		c-0.2,0.2-0.4,0.2-0.7,0.2c-0.3,0-0.8,0-1.4,0c0-0.2-0.1-0.4-0.2-0.6c0.5,0.1,1,0.1,1.2,0.1c0.2,0,0.3,0,0.4-0.1
		c0.1-0.1,0.3-0.4,0.4-0.8h-3c-0.4,0.7-1.2,1.2-2.4,1.6c-0.1-0.2-0.3-0.5-0.5-0.7c1.6-0.4,2.2-1,2.5-2h-2.3v-0.6h3.5
		c-0.1-0.2-0.2-0.5-0.3-0.7l0.8-0.2c0.2,0.3,0.3,0.6,0.5,0.9h3.5v0.6H79.9z M78.3,65h4.5v-0.5h-4.5V65z M78.3,66h4.5v-0.5h-4.5V66z
		 M78.3,67.1h4.5v-0.6h-4.5V67.1z"/>
	<path d="M94.2,73.8c0.5,0.1,1,0.1,1.5,0.1c0.5,0,3.2,0,3.8,0c-0.1,0.2-0.3,0.6-0.3,0.9h-3.5c-2.6,0-4.3-0.4-5.3-2.2
		c-0.5,1-1.2,1.8-2,2.4c-0.1-0.2-0.5-0.5-0.7-0.7c1.4-0.9,2.2-2.3,2.5-4.2l1,0.1c-0.1,0.5-0.2,0.9-0.3,1.3c0.5,1.2,1.3,1.8,2.5,2.1
		v-3.9h-5.3v-0.9h11.4v0.9h-5.1v1.4h4.3V72h-4.3V73.8z M97.9,68h-8.6v-4.3h8.6V68z M96.9,64.4h-6.7v1.1h6.7V64.4z M96.9,66.2h-6.7
		v1.1h6.7V66.2z"/>
	<path d="M104.2,71.4c-0.3,0.9-0.9,1.9-1.3,2.6c-0.2-0.1-0.5-0.4-0.7-0.5c0.5-0.6,1-1.5,1.2-2.3L104.2,71.4z M105.8,70.5V75h-0.9
		v-4.5h-2.6v-0.8h2.6v-1.4h-2.7v-0.8h3.6c0.2-0.6,0.5-1.5,0.7-2.1l0.9,0.2c-0.2,0.6-0.5,1.3-0.7,1.9h1.7v0.8h-2.5v1.4h2.4v0.8H105.8
		z M108.1,65.3h-5.7v-0.8h2.5c-0.2-0.4-0.4-0.8-0.6-1.2l0.9-0.2c0.3,0.4,0.6,1,0.7,1.4h2.1V65.3z M103.8,67.4
		c-0.1-0.5-0.3-1.2-0.5-1.8l0.8-0.2c0.3,0.6,0.5,1.3,0.5,1.8L103.8,67.4z M107.1,71.1c0.4,0.6,0.9,1.5,1.1,2l-0.7,0.4
		c-0.2-0.6-0.7-1.5-1.1-2.1L107.1,71.1z M114,68.4h-1.4V75h-0.9v-6.6h-1.8v0.5c0,1.9-0.2,4.4-1.4,6.1c-0.2-0.2-0.5-0.5-0.7-0.6
		c1.1-1.6,1.2-3.8,1.2-5.5v-4.5c1.5-0.2,3.1-0.6,4-1l0.8,0.7c-1.1,0.4-2.6,0.7-3.9,0.9v2.5h4.1V68.4z"/>
	<path d="M4.3,88.4c0,0.1,0,0.3,0,0.4h2.4v0.9H4.2c0,0.3-0.1,0.6-0.1,0.9c0.6,0.6,2.2,2.4,2.6,2.8L6,94.3c-0.4-0.6-1.5-1.9-2.2-2.7
		c-0.4,1.4-1.2,2.8-2.7,3.8c-0.1-0.2-0.5-0.6-0.7-0.7c2-1.4,2.6-3.3,2.8-5H0.6v-0.9h2.7c0-0.2,0-0.3,0-0.5v-2.1h-1
		c-0.3,0.8-0.6,1.5-1.1,2c-0.2-0.2-0.6-0.4-0.8-0.6c0.8-1,1.3-2.5,1.6-4.1L3,83.8c-0.1,0.5-0.2,1.1-0.4,1.6h3.7v0.9H4.3V88.4z
		 M11.8,84.8V95h-1v-0.9H8.1v1H7.1V84.8H11.8z M10.8,93.2v-7.5H8.1v7.5H10.8z"/>
	<path d="M25.4,84.2v11.3h-0.9V95h-8.9v0.5h-0.9V84.2H25.4z M24.5,94.1v-9h-8.9v9H24.5z M20.4,92.5c0,0.2,0,0.5,0,0.6
		c-2.4,0.7-2.7,0.8-2.9,0.9c0-0.2-0.2-0.5-0.3-0.6c0.2-0.1,0.5-0.2,0.5-0.7v-1c-0.5,0.2-0.9,0.3-1.4,0.5c-0.1-0.1-0.3-0.4-0.5-0.6
		c1-0.2,2.2-0.6,3-1.1H17v-1.9h6v1.9h-3.1c-0.4,0.3-0.9,0.6-1.4,0.8v1.5L20.4,92.5z M23.8,88.1h-7.6v-0.6h3.4v-0.8h-2.6v-0.6h2.6
		v-0.7h0.9v0.7h2.7v0.6h-2.7v0.8h3.4V88.1z M17.8,90h4.3v-0.9h-4.3V90z M23.8,91.2c-0.4,0.3-1,0.6-1.5,0.8c0.6,0.4,1.1,0.8,1.5,1.1
		l-0.6,0.4c-0.8-0.7-2.3-1.7-3.5-2.4l0.6-0.4c0.5,0.3,1,0.6,1.5,0.9c0.5-0.3,1.1-0.6,1.4-0.9L23.8,91.2z"/>
	<path d="M37.1,94c0.7,0,1.7-0.1,2.2-0.1c0,0.3,0.1,0.7,0.2,0.9C39,94.9,38,94.9,37,94.9h-5.7c-2,0-3-0.6-3-2.5v-7.3h-0.5v-0.9h10.9
		v0.9h-9.4v7.3c0,1.1,0.5,1.6,1.9,1.6H37.1z M30.3,89.7h3.4v3.3h-3.4V89.7z M31.1,92.4h1.7v-1.9h-1.7V92.4z M36.6,88.9h-4.8V86h4.8
		V88.9z M35.6,86.7h-3v1.5h3V86.7z M38.1,93.1h-3.5v-3.3h3.5V93.1z M37.2,90.4h-1.8v1.9h1.8V90.4z"/>
	<path d="M45.7,90.8l-0.9,0.7c-0.8-1-2-2.1-2.9-2.9l0.8-0.7C43.7,88.6,44.9,89.8,45.7,90.8z"/>
	<path d="M50.2,91.9c-0.3,0.9-0.9,1.9-1.3,2.6c-0.2-0.1-0.5-0.4-0.7-0.5c0.5-0.6,1-1.5,1.2-2.3L50.2,91.9z M51.8,91v4.5h-0.9V91
		h-2.6v-0.8h2.6v-1.4h-2.7V88h3.6c0.2-0.6,0.5-1.5,0.7-2.1l0.9,0.2c-0.2,0.6-0.5,1.3-0.7,1.9h1.7v0.8h-2.5v1.4h2.4V91H51.8z
		 M54.1,85.8h-5.7V85h2.5c-0.2-0.4-0.4-0.8-0.6-1.2l0.9-0.2c0.3,0.4,0.6,1,0.7,1.4h2.1V85.8z M49.7,87.9c-0.1-0.5-0.3-1.2-0.5-1.8
		l0.8-0.2c0.3,0.6,0.5,1.3,0.5,1.8L49.7,87.9z M53,91.6c0.4,0.6,0.9,1.5,1.1,2L53.4,94c-0.2-0.6-0.7-1.5-1.1-2.1L53,91.6z M60,88.9
		h-1.4v6.6h-0.9v-6.6h-1.8v0.5c0,1.9-0.2,4.4-1.4,6.1c-0.2-0.2-0.5-0.5-0.7-0.6c1.1-1.6,1.2-3.8,1.2-5.5v-4.5c1.5-0.2,3.1-0.6,4-1
		l0.8,0.7c-1.1,0.4-2.6,0.7-3.9,0.9V88H60V88.9z"/>
	<path d="M67.2,92.3l0.2,0.8c-1.9,0.8-3.9,1.7-5.4,2.2l-0.4-0.9c0.9-0.3,2.3-0.8,3.7-1.4v-5.2h-3.3V87h3.3v-3h1v8.8L67.2,92.3z
		 M71.5,94.1c0.6,0,0.7-0.6,0.7-3.1c0.3,0.2,0.6,0.4,0.9,0.5c-0.1,2.7-0.3,3.6-1.6,3.6h-1.7c-1.1,0-1.4-0.4-1.4-1.7v-9.4h1v3H73v0.9
		h-3.6v5.4c0,0.7,0.1,0.8,0.6,0.8H71.5z"/>
	<path d="M77.2,88.9v1.9c0,1.5-0.2,3.5-1.4,4.8c-0.1-0.2-0.5-0.5-0.7-0.6c1.1-1.2,1.2-2.9,1.2-4.2v-2.7h1.6
		c-0.1-0.2-0.3-0.4-0.5-0.5c1-0.2,2.2-0.5,3.3-0.8c-1-0.3-2-0.5-2.9-0.8l0.6-0.5h-2.1v-0.8h4.8c-0.2-0.3-0.5-0.7-0.7-1l0.7-0.4
		c0.3,0.4,0.7,0.9,1,1.3h4.4v0.8h-2L85,86c-0.6,0.3-1.2,0.6-2,0.9c0.9,0.3,1.8,0.6,2.5,0.8l-0.5,0.5h1.9v0.8H77.2z M87,94.3v0.8
		h-9.6v-0.8h4.3V93h-3v-0.8h3v-1.2h-2.7c-0.4,0.6-0.8,1.2-1.2,1.6c-0.1-0.2-0.3-0.6-0.5-0.8c0.7-0.7,1.3-1.7,1.7-2.7l0.8,0.2
		c-0.1,0.3-0.2,0.6-0.4,0.9h2.3v-1.1h0.9v1.1h3.5v0.8h-3.5v1.2h3.2V93h-3.2v1.3H87z M84.6,88.1c-0.8-0.3-1.7-0.6-2.8-0.9
		c-1.2,0.4-2.4,0.7-3.5,0.9H84.6z M78.6,85.7c1,0.2,2.2,0.5,3.3,0.9c0.8-0.3,1.6-0.6,2.2-0.9H78.6z"/>
	<path d="M93.5,93.5c-0.9,0.7-2.6,1.4-4,1.7c-0.1-0.2-0.4-0.5-0.6-0.7c1.3-0.2,3-0.7,3.8-1.3L93.5,93.5z M100.3,91.6v0.8H95v3.1
		h-0.9v-3.1H89v-0.8h5.1v-1h-3.9v-0.7h3.9V89h-4.6v-0.8h2.8c-0.1-0.4-0.4-0.9-0.7-1.2l0.7-0.2H89V86h2.1c-0.2-0.5-0.6-1.3-1-1.9
		l0.8-0.3c0.5,0.6,0.9,1.4,1.1,1.9L91.3,86h1.6v-2.3h0.9V86h1.5v-2.3h0.9V86h1.6l-0.5-0.2c0.4-0.5,0.8-1.4,1-2l1,0.3
		c-0.4,0.7-0.8,1.4-1.1,1.9h2v0.8h-3.4l0.8,0.2c-0.3,0.4-0.6,0.9-0.9,1.2h3V89H95v0.9h4.1v0.7H95v1H100.3z M92.6,86.8
		c0.3,0.4,0.6,0.9,0.7,1.3l-0.5,0.1h3.6l-0.5-0.1c0.3-0.4,0.6-0.9,0.8-1.3H92.6z M96.5,93.1c1.2,0.4,2.9,1,3.8,1.4l-0.6,0.6
		c-0.9-0.4-2.5-1.1-3.7-1.5L96.5,93.1z"/>
	<path d="M113.5,84.2v11.3h-0.9V95h-8.9v0.5h-0.9V84.2H113.5z M112.5,94.1v-9h-8.9v9H112.5z M108.5,92.5c0,0.2,0,0.5,0,0.6
		c-2.4,0.7-2.7,0.8-2.9,0.9c0-0.2-0.2-0.5-0.3-0.6c0.2-0.1,0.5-0.2,0.5-0.7v-1c-0.5,0.2-0.9,0.3-1.4,0.5c-0.1-0.1-0.3-0.4-0.5-0.6
		c1-0.2,2.2-0.6,3-1.1h-1.8v-1.9h6v1.9H108c-0.4,0.3-0.9,0.6-1.4,0.8v1.5L108.5,92.5z M111.9,88.1h-7.6v-0.6h3.4v-0.8H105v-0.6h2.6
		v-0.7h0.9v0.7h2.7v0.6h-2.7v0.8h3.4V88.1z M105.9,90h4.3v-0.9h-4.3V90z M111.9,91.2c-0.4,0.3-1,0.6-1.5,0.8
		c0.6,0.4,1.1,0.8,1.5,1.1l-0.6,0.4c-0.8-0.7-2.3-1.7-3.5-2.4l0.6-0.4c0.5,0.3,1,0.6,1.5,0.9c0.5-0.3,1.1-0.6,1.4-0.9L111.9,91.2z"
		/>
	<path d="M10,114.5c0.7,0,1.7-0.1,2.2-0.1c0,0.3,0.1,0.7,0.2,0.9c-0.3,0.1-1.3,0.1-2.3,0.1H4.3c-2,0-3-0.6-3-2.5v-7.3H0.8v-0.9h10.9
		v0.9H2.3v7.3c0,1.1,0.5,1.6,1.9,1.6H10z M3.3,110.2h3.4v3.3H3.3V110.2z M4.1,112.9h1.7v-1.9H4.1V112.9z M9.5,109.4H4.7v-2.9h4.8
		V109.4z M8.6,107.2h-3v1.5h3V107.2z M11.1,113.6H7.6v-3.3h3.5V113.6z M10.2,110.9H8.4v1.9h1.8V110.9z"/>
	<path d="M17.2,108h2.3v0.9h-2.3v0.3c0.5,0.5,1.8,2.1,2.2,2.5l-0.6,0.8c-0.3-0.5-1-1.5-1.6-2.2v5.7h-0.9v-5.7
		c-0.6,1.5-1.5,3-2.3,3.9c-0.1-0.3-0.4-0.7-0.5-0.9c1-1,2-2.8,2.6-4.4h-2.3V108h2.5v-2.2c-0.7,0.1-1.5,0.2-2.1,0.3
		c-0.1-0.2-0.2-0.5-0.3-0.8c1.7-0.2,3.7-0.6,4.9-1.1l0.7,0.8c-0.6,0.2-1.4,0.4-2.2,0.6V108z M24.7,105.4v10h-1v-1h-2.9v1.1h-0.9
		v-10.1H24.7z M23.7,113.5v-7.2h-2.9v7.2H23.7z"/>
	<path d="M26.8,104.8h7.1v0.8h-7.1V104.8z M27.1,110.5h6.6v5.4h-0.9v-0.6H28v0.7h-0.9V110.5z M33.2,106.5v3h-5.6v-3H33.2z M28,111.3
		v1.2H30v-1.2H28z M30,114.5v-1.3H28v1.3H30z M32.3,107.3h-3.8v1.5h3.8V107.3z M32.8,111.3h-1.9v1.2h1.9V111.3z M32.8,114.5v-1.3
		h-1.9v1.3H32.8z M35.6,112.9h-0.9v-7.2h0.9V112.9z M38,104.4v10.4c0,0.6-0.2,0.9-0.5,1.1c-0.4,0.2-1.1,0.2-2.2,0.2
		c0-0.3-0.2-0.7-0.3-1c0.8,0,1.6,0,1.8,0c0.2,0,0.3-0.1,0.3-0.3v-10.4H38z"/>
	<path d="M50.6,104.9c-0.5,1.2-1.2,2.2-1.9,3.2h1.7v0.9H48c-0.4,0.4-0.8,0.9-1.2,1.3h3v5.6h-0.9v-0.6H46v0.8h-0.9v-4.5
		c-0.3,0.2-0.7,0.4-1,0.6c-0.1-0.2-0.4-0.6-0.6-0.8c1.3-0.6,2.4-1.4,3.4-2.4h-3.1v-0.9h2.6v-1.6h-2v-0.9h2v-1.4h0.9v1.4h1.6v0.7
		c0.4-0.6,0.6-1.1,0.9-1.8L50.6,104.9z M48.9,111H46v1.3h2.9V111z M48.9,114.4V113H46v1.4H48.9z M47.6,108.1c0.4-0.5,0.8-1,1.1-1.6
		h-1.5v1.6H47.6z M55.6,105.3c-0.5,1.2-1.3,2.7-1.9,3.9c1.4,1.2,1.7,2.2,1.7,3.1c0,0.8-0.2,1.4-0.7,1.7c-0.2,0.2-0.5,0.3-0.9,0.3
		c-0.4,0-0.8,0-1.2,0c0-0.3-0.1-0.7-0.3-0.9c0.4,0,0.8,0.1,1.1,0c0.2,0,0.4-0.1,0.6-0.2c0.3-0.2,0.4-0.5,0.4-1
		c0-0.8-0.4-1.8-1.8-2.9c0.6-1.1,1.2-2.5,1.6-3.5h-2.4V116h-0.9v-11.1h3.8l0.2,0L55.6,105.3z"/>
	<path d="M58.8,108.9c-0.2,1.5-0.6,3.7-1.1,5.1l-1-0.4c0.6-1.3,1-3.4,1.2-4.9L58.8,108.9z M60.9,107.8v6.4c0,0.6,0.2,0.7,0.9,0.7
		h2.5c0.8,0,0.9-0.5,1-2.7c0.2,0.2,0.6,0.4,0.9,0.4c-0.1,2.5-0.4,3.2-1.9,3.2h-2.6c-1.4,0-1.8-0.4-1.8-1.6v-6.4H60.9z M61.2,104.6
		c1.2,0.8,2.8,2.1,3.5,2.9l-0.7,0.7c-0.7-0.8-2.2-2.1-3.4-3L61.2,104.6z M66.9,108.4c0.8,1.5,1.5,3.5,1.7,4.9l-0.9,0.4
		c-0.3-1.3-1-3.4-1.7-4.9L66.9,108.4z"/>
	<path d="M81.3,105.6v0.8H69.9v-0.8h5.4c-0.1-0.4-0.3-0.9-0.5-1.2l0.9-0.2c0.2,0.5,0.4,1,0.6,1.5H81.3z M80.6,115
		c0,0.5-0.1,0.7-0.5,0.9c-0.4,0.1-1,0.1-2.1,0.1c-0.1-0.2-0.2-0.5-0.3-0.7c0.8,0,1.6,0,1.8,0c0.2,0,0.3-0.1,0.3-0.3v-5.9H77v0.8
		c0,0.3,0,0.4,0.2,0.4h1.2c0.2,0,0.5,0,0.7-0.1c0,0.2,0,0.5,0.1,0.7c-0.2,0.1-0.5,0.1-0.8,0.1h-1.4c-0.8,0-0.9-0.3-0.9-1.1v-0.8
		h-1.5c-0.2,1.4-0.8,2.1-2.6,2.5c-0.1-0.2-0.3-0.5-0.5-0.7c1.5-0.3,2-0.8,2.2-1.8h-2.2v6.9h-0.9v-7.7h6c0.3-0.5,0.7-1.2,0.9-1.8
		l1,0.2c-0.3,0.5-0.7,1.1-1,1.5h3V115z M73.5,106.4c0.3,0.5,0.7,1.1,0.8,1.4l-0.8,0.3c-0.2-0.4-0.5-1-0.8-1.5L73.5,106.4z M74,114.4
		v0.6h-0.8v-3.5h4.7v3H74z M74,112.2v1.5h3.1v-1.5H74z"/>
	<path d="M85.1,112.5c-0.1,1.2-0.4,2.6-1.6,3.6c-0.1-0.2-0.4-0.5-0.6-0.6c1-0.7,1.3-2,1.4-3h-1.3v-0.8h1.4v-1.5h-1.5v-0.8h2.1
		c0.2-0.7,0.5-1.7,0.6-2.4l0.8,0.2c-0.2,0.7-0.4,1.6-0.6,2.2h1.1v0.8h-1.5v1.5h1.3v0.8H85.1z M86.5,106.7h-3.7v-0.8h1.5
		c-0.2-0.4-0.4-0.9-0.6-1.3l0.8-0.2c0.3,0.5,0.6,1.1,0.7,1.6h1.3V106.7z M83.5,109.2c0-0.6-0.2-1.4-0.4-2.1l0.7-0.2
		c0.2,0.6,0.4,1.5,0.4,2.1L83.5,109.2z M90.1,107.1c0,0,0,0.3,0,0.4c-0.1,5.6-0.1,7.3-0.4,7.8c-0.2,0.3-0.4,0.4-0.7,0.4
		c-0.3,0-0.6,0-1,0c0-0.2-0.1-0.6-0.2-0.8c0.4,0,0.7,0,0.9,0c0.2,0,0.2,0,0.3-0.2c0.2-0.3,0.3-2,0.3-6.9h-0.9
		c-0.1,3.4-0.5,6.1-1.9,8.1c-0.1-0.1-0.5-0.5-0.7-0.6c1.3-1.7,1.7-4.3,1.8-7.5h-0.8v-0.9h0.8c0-0.9,0-1.9,0-2.9h0.8c0,1,0,2,0,2.9
		H90.1z M93,110.1v1.7h1.4v0.8H93v3.3h-0.9v-3.3h-1.4v-0.8h1.4v-1.7h-1.6v-0.8h2.2c0.2-0.7,0.5-1.8,0.6-2.5l0.8,0.2
		c-0.2,0.8-0.4,1.6-0.6,2.3h1.1v0.8H93z M94.4,106.7h-3.8v-0.8h1.6c-0.2-0.5-0.4-1-0.6-1.4l0.8-0.2c0.3,0.5,0.6,1.2,0.7,1.7h1.3
		V106.7z M91.3,109.2c0-0.6-0.2-1.5-0.4-2.1l0.7-0.2c0.3,0.7,0.4,1.6,0.5,2.1L91.3,109.2z"/>
	<path d="M107,104.7V116h-0.9v-0.5h-9v0.5h-0.9v-11.3H107z M106.1,114.7v-9.2h-9v9.2H106.1z M105.6,109.7h-2c0.8,0.6,1.5,1.2,2,1.7
		l-0.6,0.5c-0.5-0.6-1.6-1.5-2.6-2.2h-1.9c-0.2,0.3-0.5,0.6-0.8,0.9h3.6v0.3c-0.1,1-0.1,1.4-0.3,1.6c-0.1,0.1-0.3,0.2-0.6,0.2
		c-0.2,0-0.6,0-1,0c0-0.2-0.1-0.4-0.2-0.6c0.4,0,0.8,0,0.9,0c0.1,0,0.2,0,0.3-0.1c0.1-0.1,0.1-0.3,0.1-0.9h-2.4v1.9
		c0,0.3,0.1,0.4,0.8,0.4h2.3c0.5,0,0.5-0.1,0.6-1c0.2,0.1,0.5,0.2,0.7,0.3c-0.1,1.1-0.3,1.4-1.2,1.4h-2.4c-1.2,0-1.5-0.2-1.5-1v-2.3
		c-0.5,0.4-1,0.8-1.6,1.1c-0.1-0.2-0.4-0.5-0.5-0.7c0.9-0.4,1.6-0.9,2.2-1.6h-1.8v-0.7h2.3c0.2-0.3,0.4-0.5,0.5-0.9h-2.2v-0.6h2.5
		c0.2-0.5,0.4-1.1,0.5-1.7l0.8,0.1c-0.1,0.6-0.3,1.1-0.5,1.6h1.3c0.3-0.4,0.5-1.1,0.7-1.5l0.8,0.2c-0.2,0.4-0.5,0.9-0.7,1.3h1.4v0.6
		h-3.7c-0.1,0.3-0.3,0.6-0.4,0.9h4.6V109.7z M99.4,107.5c-0.1-0.3-0.4-0.8-0.7-1.2l0.6-0.2c0.3,0.3,0.6,0.8,0.7,1.1L99.4,107.5z"/>
	<path d="M110,111.9c1-0.4,1.6-1,1.6-1.9c-0.1,0-0.1,0-0.2,0c-0.5,0-1-0.3-1-0.9s0.5-0.9,1-0.9c0.7,0,1.1,0.6,1.1,1.5
		c0,1.4-0.9,2.5-2.2,3L110,111.9z"/>
	<path d="M12.4,130v1.1H0.6V130H12.4z"/>
	<path d="M18.2,130.9c-0.2,1.1-0.6,2.4-1.1,3.4c0.3,0.1,0.6,0.4,1.1,0.7c0.9,0.6,2.1,0.6,3.6,0.6c1.7,0,3.8-0.1,5.2-0.2
		c-0.1,0.2-0.3,0.7-0.3,0.9c-1,0.1-3.5,0.1-5,0.1c-1.7,0-2.8-0.1-3.8-0.7c-0.5-0.3-1-0.8-1.3-0.8s-0.7,0.8-1.1,1.6l-0.6-0.8
		c0.4-0.6,0.8-1.1,1.2-1.4c0.4-0.8,0.7-1.8,0.9-2.8h-1.6c0.4-0.8,0.9-1.9,1.2-2.9h-1.6v-0.9h2.9c-0.4,0.9-0.8,2.1-1.2,2.9h0.7l0.2,0
		L18.2,130.9z M16.8,127.1c-0.2-0.6-0.6-1.5-0.9-2.1l0.8-0.2c0.3,0.7,0.8,1.5,0.9,2.1L16.8,127.1z M19.3,130.9h-0.8v-1.3H22
		c-0.1-0.2-0.2-0.4-0.2-0.6h-2.5v-3.6h2.3c0.1-0.3,0.3-0.6,0.4-0.8l1,0.1c-0.2,0.2-0.3,0.5-0.5,0.7h3.1v3.6h-2.9
		c0.1,0.2,0.2,0.4,0.3,0.6h3.5v1.2h-0.9v-0.6h-1.5v0.6c0,0.2,0,0.3,0.3,0.3h1.1c0.2,0,0.6,0,0.8-0.1c0,0.2,0,0.3,0.1,0.5
		c-0.2,0.1-0.5,0.1-0.8,0.1h-1.5c-0.7,0-0.8-0.3-0.8-0.8v-0.6H22c-0.4,0.9-1.3,1.4-3.1,1.7c-0.1-0.2-0.2-0.4-0.4-0.5
		c1.5-0.2,2.2-0.5,2.6-1.1h-1.8V130.9z M21.8,132.6c0,0.2-0.1,0.3-0.1,0.5h3.7c0,0,0,0.2,0,0.3c-0.2,0.9-0.4,1.3-0.6,1.5
		c-0.2,0.2-0.4,0.2-0.7,0.2c-0.3,0-0.8,0-1.4,0c0-0.2-0.1-0.4-0.2-0.6c0.5,0.1,1,0.1,1.2,0.1c0.2,0,0.3,0,0.4-0.1
		c0.1-0.1,0.3-0.4,0.4-0.8h-3c-0.4,0.7-1.2,1.2-2.4,1.6c-0.1-0.2-0.3-0.5-0.5-0.7c1.6-0.4,2.2-1,2.5-2h-2.3V132h3.5
		c-0.1-0.2-0.2-0.5-0.3-0.7l0.8-0.2c0.2,0.3,0.3,0.6,0.5,0.9h3.5v0.6H21.8z M20.3,126.5h4.5v-0.5h-4.5V126.5z M20.3,127.5h4.5V127
		h-4.5V127.5z M20.3,128.6h4.5V128h-4.5V128.6z"/>
	<path d="M36.1,135.3c0.5,0.1,1,0.1,1.5,0.1c0.5,0,3.2,0,3.8,0c-0.1,0.2-0.3,0.6-0.3,0.9h-3.5c-2.6,0-4.3-0.4-5.3-2.2
		c-0.5,1-1.2,1.8-2,2.4c-0.1-0.2-0.5-0.5-0.7-0.7c1.4-0.9,2.2-2.3,2.5-4.2l1,0.1c-0.1,0.5-0.2,0.9-0.3,1.3c0.5,1.2,1.3,1.8,2.5,2.1
		v-3.9h-5.3v-0.9h11.4v0.9h-5.1v1.4h4.3v0.9h-4.3V135.3z M39.8,129.5h-8.6v-4.3h8.6V129.5z M38.9,125.9h-6.7v1.1h6.7V125.9z
		 M38.9,127.7h-6.7v1.1h6.7V127.7z"/>
	<path d="M49.5,134.6c-1.8,0.4-3.8,0.9-5.2,1.2l-0.2-0.9c1-0.2,2.3-0.5,3.8-0.8l-0.6-0.2c0.2-0.7,0.5-1.8,0.6-2.6l0.9,0.2
		c-0.2,0.9-0.5,1.9-0.8,2.6l1.5-0.3L49.5,134.6z M49.4,126.3h-5.1v-0.9h5.1V126.3z M49.1,131h-4.4v-3.5h4.4V131z M45.4,134.1
		c0-0.6-0.2-1.6-0.5-2.4l0.8-0.2c0.3,0.8,0.5,1.8,0.5,2.4L45.4,134.1z M48.2,128.3h-2.7v1.9h2.7V128.3z M52.2,134.8
		c-0.7,0.7-1.8,1.3-2.8,1.7c-0.1-0.2-0.4-0.5-0.6-0.6c1-0.3,2.1-1,2.6-1.5L52.2,134.8z M51.9,127.4c0.1-0.4,0.2-0.8,0.3-1.2h-2.5
		v-0.8h6.2v0.8h-2.7c-0.1,0.4-0.2,0.9-0.4,1.2h2.7v6.7h-5.4v-6.7H51.9z M54.6,128.1H51v1.3h3.6V128.1z M54.6,130.1H51v1.3h3.6V130.1
		z M54.6,132H51v1.3h3.6V132z M54,134.4c0.8,0.5,1.7,1.1,2.2,1.6l-0.8,0.5c-0.5-0.5-1.4-1.2-2.2-1.7L54,134.4z"/>
	<path d="M64.3,135.4c0,0.5-0.1,0.7-0.5,0.9c-0.4,0.2-0.9,0.2-1.8,0.2c-0.1-0.2-0.2-0.6-0.3-0.8c0.7,0,1.2,0,1.4,0
		c0.2,0,0.2-0.1,0.2-0.2v-1.7h-3c-0.1,1-0.4,2.1-1,2.9c-0.1-0.2-0.5-0.5-0.7-0.6c0.9-1.2,1-2.9,1-4.2v-3.1h4.7V135.4z M70.3,126.7
		v0.9H58.8v-0.9H62c-0.2-0.5-0.7-1.2-1.2-1.7l0.9-0.3c0.5,0.5,1.1,1.3,1.3,1.8l-0.6,0.2h3.9c0.4-0.6,0.9-1.5,1.2-2.1l1,0.3
		c-0.4,0.6-0.8,1.2-1.2,1.8H70.3z M63.4,132.9v-1.3h-2.9v0.2c0,0.4,0,0.7,0,1.1H63.4z M60.5,129.6v1.3h2.9v-1.3H60.5z M66.8,134.2
		h-0.9v-5.3h0.9V134.2z M68.5,128.5h0.9v6.8c0,0.6-0.1,0.8-0.5,1c-0.4,0.2-1.1,0.2-2.1,0.2c-0.1-0.3-0.2-0.7-0.4-0.9
		c0.8,0,1.5,0,1.7,0c0.2,0,0.3-0.1,0.3-0.3V128.5z"/>
	<path d="M84.9,135.3v0.8H73.3v-0.8h5.3v-1.1h-4.3v-0.8h4.3v-0.9h-3.9v-4h3.9v-0.8h-5.2V127h5.2V126c-1.4,0.1-2.7,0.1-4,0.2
		c0-0.2-0.1-0.6-0.2-0.8c3-0.1,6.6-0.3,8.7-0.7l0.5,0.8c-1.1,0.2-2.5,0.4-4,0.5v1h5.3v0.8h-5.3v0.8h4.1v4h-4.1v0.9h4.5v0.8h-4.5v1.1
		H84.9z M75.6,130.2h2.9v-1h-2.9V130.2z M78.6,131.9v-1h-2.9v1H78.6z M79.5,129.2v1h3.1v-1H79.5z M82.6,130.9h-3.1v1h3.1V130.9z"/>
	<path d="M87.7,135.4c1.8-0.1,4.7-0.2,7.4-0.3l0,0.7c-2.7,0.1-5.5,0.3-7.3,0.4L87.7,135.4z M94.3,126.8h0.8v0.7h-0.8v1.3h-2.5v0.6
		h2.7v0.6h-2.7v0.6h3.3v0.7h-7.3v-0.7h3.1v-0.6h-2.5v-0.6h2.5v-0.6h-2.4v-0.6h2.4v-0.7h-3.2v-0.7h3.2v-0.6h-2.4v-0.6h2.4v-0.8h0.9
		v0.8h2.5V126.8z M94.3,131.8v2.9h-5.8v-2.9H94.3z M89.3,132.9H91v-0.6h-1.7V132.9z M89.3,134.1H91v-0.6h-1.7V134.1z M91.8,126.8
		h1.7v-0.6h-1.7V126.8z M93.5,127.4h-1.7v0.7h1.7V127.4z M93.5,132.3h-1.7v0.6h1.7V132.3z M93.5,133.5h-1.7v0.6h1.7V133.5z
		 M96.5,133.4h-0.9v-7.2h0.9V133.4z M99,124.9v10.4c0,0.6-0.1,0.9-0.5,1c-0.4,0.1-1,0.2-2,0.2c0-0.2-0.2-0.7-0.3-0.9
		c0.8,0,1.4,0,1.6,0c0.2,0,0.3-0.1,0.3-0.3v-10.4H99z"/>
	<path d="M111.6,135c0.7,0,1.7-0.1,2.2-0.1c0,0.3,0.1,0.7,0.2,0.9c-0.3,0.1-1.3,0.1-2.3,0.1h-5.7c-2,0-3-0.6-3-2.5v-7.3h-0.5v-0.9
		h10.9v0.9h-9.4v7.3c0,1.1,0.5,1.6,1.9,1.6H111.6z M104.9,130.7h3.4v3.3h-3.4V130.7z M105.7,133.4h1.7v-1.9h-1.7V133.4z
		 M111.1,129.9h-4.8V127h4.8V129.9z M110.2,127.7h-3v1.5h3V127.7z M112.7,134.1h-3.5v-3.3h3.5V134.1z M111.8,131.4H110v1.9h1.8
		V131.4z"/>
	<path d="M4.5,150c0.4,0.8,0.8,2,0.9,2.6L4.7,153c0-0.2-0.1-0.5-0.2-0.7c-2.9,0.5-3.3,0.6-3.6,0.7c-0.1-0.2-0.2-0.7-0.3-0.9
		c0.3-0.1,0.6-0.4,1-0.8c0.2-0.2,0.7-0.8,1.1-1.5c-1.4,0.2-1.7,0.2-1.9,0.3c-0.1-0.2-0.2-0.7-0.3-0.9c0.2-0.1,0.5-0.3,0.7-0.7
		c0.3-0.4,1.2-1.9,1.8-3.3l0.9,0.4c-0.6,1.2-1.3,2.5-2.1,3.5l1.4-0.1c0.3-0.5,0.7-1.1,0.9-1.7l0.8,0.5c-0.8,1.5-1.9,2.9-2.9,4.1
		l2.1-0.3c-0.1-0.4-0.3-0.8-0.5-1.2L4.5,150z M2,153.6c-0.1,1.1-0.4,2.3-0.6,3.1c-0.2-0.1-0.6-0.2-0.8-0.3c0.3-0.8,0.5-1.9,0.6-3
		L2,153.6z M3.4,153.4c0.2,0.9,0.3,2.1,0.4,2.8l-0.8,0.2c0-0.8-0.2-2-0.3-2.9L3.4,153.4z M4.7,153.1c0.3,0.8,0.6,1.7,0.7,2.4
		l-0.8,0.3c-0.1-0.6-0.4-1.7-0.7-2.4L4.7,153.1z M10.8,156c0.2,0,0.4,0,0.5-0.1c0.1,0,0.2-0.1,0.3-0.3c0.1-0.2,0.1-0.6,0.1-1.1
		c0.2,0.2,0.5,0.3,0.8,0.4c0,0.5-0.1,1.1-0.2,1.3c-0.1,0.2-0.3,0.4-0.5,0.5c-0.2,0.1-0.6,0.1-0.9,0.1H9.8c-0.3,0-0.7-0.1-0.9-0.2
		c-0.3-0.2-0.4-0.4-0.4-1.5v-1.7H6V149h0.8v3.5h1.6v-4.7H5.7v-0.9h2.7v-1.7h0.9v1.7h3.1v0.9H9.3v4.7H11V149h0.9v5.1H11v-0.7H9.3v1.8
		c0,0.4,0.1,0.6,0.2,0.7c0.1,0,0.3,0.1,0.4,0.1H10.8z"/>
	<path d="M18.2,145.5c-0.4,0.9-0.8,1.9-1.3,2.8v8.7h-1v-7.2c-0.4,0.6-0.8,1.1-1.3,1.5c-0.1-0.2-0.4-0.7-0.6-1
		c1.3-1.2,2.5-3.2,3.2-5.2L18.2,145.5z M26,155.7v0.9h-8.4v-0.9h3.8v-3.3h-3v-0.9h3v-2.9h-3.4v-0.9h7.8v0.9h-3.5v2.9h3.1v0.9h-3.1
		v3.3H26z M21.7,147.6c-0.2-0.6-0.6-1.5-1.1-2.1l0.9-0.3c0.4,0.7,0.9,1.5,1.1,2.1L21.7,147.6z"/>
	<path d="M29.1,149.2h-1v-2.7h5c-0.2-0.4-0.4-0.8-0.6-1.1l0.9-0.3c0.3,0.4,0.6,1,0.8,1.4H39v2.7h-1v-1.8h-8.9V149.2z M37.2,155.9
		c0.7,0,0.8-0.3,0.9-1.8c0.2,0.2,0.7,0.3,0.9,0.4c-0.2,1.9-0.5,2.4-1.8,2.4h-2.9c-1.5,0-1.9-0.4-1.9-1.6v-2.4h-4.1v-0.9h4.1V150
		c-1.1,0.2-2.2,0.3-3.2,0.5c-0.1-0.2-0.2-0.6-0.3-0.8c2.6-0.3,5.7-0.8,7.3-1.5l0.8,0.8c-1,0.4-2.2,0.7-3.6,0.9v2.1h4.9v0.9h-4.9v2.4
		c0,0.5,0.2,0.7,1,0.7H37.2z"/>
	<path d="M44.8,155.2v1.8h-0.9v-1.8h-2.7v-0.8h2.7v-0.8h-2.2v-3.4h2.2v-0.8h-2.4v-0.7h2.4v-0.9h0.9v0.9h2.4v0.7h-2.4v0.8H47v3.4
		h-2.2v0.8h2.5v0.8H44.8z M52.1,147.7H41.9v-2.2h1v1.4h3.7v-1.7h1v1.7h3.7v-1.4h1V147.7z M42.5,151.7h1.5v-0.8h-1.5V151.7z
		 M42.5,153.1h1.5v-0.8h-1.5V153.1z M46.2,150.9h-1.5v0.8h1.5V150.9z M46.2,152.3h-1.5v0.8h1.5V152.3z M52.9,152.2h-1.6v4.8h-0.9
		v-4.8h-1.7c-0.1,1.6-0.3,3.5-1.2,4.9c-0.1-0.2-0.5-0.5-0.7-0.6c0.9-1.5,1.1-3.4,1.1-4.9v-2.7c1.4-0.2,3.1-0.4,4.1-0.8l0.5,0.8
		c-1,0.3-2.5,0.5-3.8,0.7v1.8h4.1V152.2z"/>
	<path d="M56.7,153.4c-0.3,0.9-0.9,1.9-1.3,2.6c-0.2-0.1-0.5-0.4-0.7-0.5c0.5-0.6,1-1.5,1.2-2.3L56.7,153.4z M58.3,152.5v4.5h-0.9
		v-4.5h-2.6v-0.8h2.6v-1.4h-2.7v-0.8h3.6c0.2-0.6,0.5-1.5,0.7-2.1l0.9,0.2c-0.2,0.6-0.5,1.3-0.7,1.9h1.7v0.8h-2.5v1.4h2.4v0.8H58.3z
		 M60.6,147.3h-5.7v-0.8h2.5c-0.2-0.4-0.4-0.8-0.6-1.2l0.9-0.2c0.3,0.4,0.6,1,0.7,1.4h2.1V147.3z M56.2,149.4
		c-0.1-0.5-0.3-1.2-0.5-1.8l0.8-0.2c0.3,0.6,0.5,1.3,0.5,1.8L56.2,149.4z M59.5,153.1c0.4,0.6,0.9,1.5,1.1,2l-0.7,0.4
		c-0.2-0.6-0.7-1.5-1.1-2.1L59.5,153.1z M66.5,150.4H65v6.6h-0.9v-6.6h-1.8v0.5c0,1.9-0.2,4.4-1.4,6.1c-0.2-0.2-0.5-0.5-0.7-0.6
		c1.1-1.6,1.2-3.8,1.2-5.5v-4.5c1.5-0.2,3.1-0.6,4-1l0.8,0.7c-1.1,0.4-2.6,0.7-3.9,0.9v2.5h4.1V150.4z"/>
	<path d="M71.6,148.1c-0.3,0.7-0.7,1.3-1.1,1.9v7.1h-0.9v-5.9c-0.4,0.4-0.8,0.8-1.1,1.2c-0.1-0.2-0.4-0.7-0.6-0.9
		c1.1-0.9,2.2-2.3,2.9-3.7L71.6,148.1z M71.2,145.5c-0.6,1.1-1.7,2.2-2.7,3c-0.1-0.2-0.4-0.5-0.5-0.7c0.9-0.7,1.8-1.7,2.3-2.6
		L71.2,145.5z M76.5,155.4c-1.9,0.3-3.9,0.5-5.3,0.7l-0.1-0.9c0.6-0.1,1.4-0.1,2.2-0.2v-2h-1.9v-0.8h1.9v-1.6h0.9v1.6h1.9v0.8h-1.9
		v1.9l2.2-0.3L76.5,155.4z M73.3,147.6h-1.7v-0.8h1.7v-1.6h0.9v1.6H76v0.8h-1.7v1.7h2v0.9h-4.9v-0.9h2V147.6z M80,150.3h-1.2v5.6
		c0,0.5-0.1,0.8-0.5,1c-0.4,0.2-1,0.2-1.9,0.2c0-0.3-0.2-0.7-0.3-1c0.7,0,1.3,0,1.5,0c0.2,0,0.2-0.1,0.2-0.2v-5.6h-1.4v-0.9H80
		V150.3z M79.8,146.8h-3.3v-0.9h3.3V146.8z"/>
	<path d="M83.4,147.1v3.2c0,2-0.2,4.9-1.2,6.8c-0.1-0.2-0.5-0.5-0.7-0.6c0.9-1.8,1-4.4,1-6.3v-4h5c-0.1-0.3-0.3-0.6-0.4-0.9l0.9-0.3
		c0.2,0.3,0.5,0.8,0.6,1.2h4.7v0.8H83.4z M86.9,154.1l2.2-0.1l0,0.7c-0.7,0.1-1.5,0.1-2.2,0.2v1.2c0,0.4-0.1,0.6-0.4,0.7
		c-0.3,0.1-0.8,0.1-1.6,0.1c0-0.2-0.1-0.5-0.2-0.7c0.6,0,1.1,0,1.2,0c0.2,0,0.2-0.1,0.2-0.2v-1.1l-2.4,0.2l-0.1-0.8
		c0.7,0,1.5-0.1,2.5-0.1v-0.5c0.4-0.2,0.8-0.4,1.2-0.6h-3.1v-0.7h3.7v0h0.2l0.2,0l0.5,0.4c-0.5,0.5-1.2,0.9-1.9,1.2V154.1z M89,149
		h-5.1v-0.7h2.2c-0.1-0.3-0.3-0.6-0.4-0.9l0.9-0.2c0.2,0.3,0.5,0.8,0.6,1.1H89V149z M84.5,151.7v-2.1h4.1v2.1H84.5z M85.2,151.1h2.5
		v-1h-2.5V151.1z M93.4,148.3c-0.4,0.9-0.9,2.1-1.4,3c1,1,1.3,1.8,1.3,2.5c0,0.7-0.2,1.2-0.5,1.5c-0.2,0.1-0.4,0.2-0.7,0.2
		c-0.3,0-0.6,0-1,0c0-0.2-0.1-0.6-0.2-0.8c0.3,0,0.6,0,0.9,0c0.2,0,0.3-0.1,0.4-0.1c0.2-0.1,0.3-0.4,0.3-0.8c0-0.7-0.3-1.4-1.3-2.4
		c0.4-0.9,0.8-1.9,1.1-2.7h-1.8v8.3h-0.9v-9.1h3.1l0.1,0L93.4,148.3z"/>
	<path d="M96.5,152.9c1-0.4,1.6-1,1.6-1.9c-0.1,0-0.1,0-0.2,0c-0.5,0-1-0.3-1-0.9s0.5-0.9,1-0.9c0.7,0,1.1,0.6,1.1,1.5
		c0,1.4-0.9,2.5-2.2,3L96.5,152.9z"/>
	<path d="M106.3,145.5c-0.4,0.9-0.8,1.9-1.3,2.8v8.7h-1v-7.2c-0.4,0.6-0.8,1.1-1.3,1.5c-0.1-0.2-0.4-0.7-0.6-1
		c1.3-1.2,2.5-3.2,3.2-5.2L106.3,145.5z M114.1,155.7v0.9h-8.4v-0.9h3.8v-3.3h-3v-0.9h3v-2.9H106v-0.9h7.8v0.9h-3.5v2.9h3.1v0.9
		h-3.1v3.3H114.1z M109.8,147.6c-0.2-0.6-0.6-1.5-1.1-2.1l0.9-0.3c0.4,0.7,0.9,1.5,1.1,2.1L109.8,147.6z"/>
	<path d="M12.2,167.7v0.9H5.1c-0.5,0.9-1,1.8-1.6,2.7v6.2H2.6v-5.1c-0.5,0.5-1,0.9-1.5,1.3c-0.1-0.3-0.3-0.7-0.5-0.9
		c1.5-1.1,2.6-2.6,3.4-4.2H0.9v-0.9h3.5c0.3-0.7,0.5-1.4,0.7-2l1,0.2c-0.2,0.6-0.4,1.2-0.6,1.8H12.2z M8.7,176.3h3.4v0.9H4.3v-0.9
		h3.4v-3.7H4.9v-0.9h2.9v-2.5h1v2.5h2.9v0.9H8.7V176.3z"/>
	<path d="M17.5,172c-0.2,1.2-0.7,2.4-1.3,3.3c0.2,0.1,0.5,0.4,1,0.6c0.9,0.5,2.1,0.6,3.6,0.6c1.6,0,3.8-0.1,5.2-0.3
		c-0.1,0.3-0.3,0.7-0.3,1c-1,0.1-3.4,0.1-5,0.1c-1.7,0-2.8-0.1-3.8-0.7c-0.5-0.3-1-0.7-1.3-0.7c-0.3,0-0.8,0.8-1.1,1.6l-0.6-0.9
		c0.4-0.5,0.8-1,1.1-1.3l0,0c0.6-0.7,1.1-1.8,1.4-2.8h-1.9c0.4-0.8,0.9-1.9,1.3-2.9h-1.7v-0.9h3c-0.4,0.9-0.8,2-1.2,2.9h0.9l0.1,0
		L17.5,172z M15.9,168.1c-0.2-0.6-0.7-1.5-1-2.1l0.8-0.3c0.4,0.7,0.8,1.5,1.1,2.1L15.9,168.1z M25.8,168h-8.2v-0.8h3.9
		c-0.2-0.4-0.6-0.9-0.9-1.3l0.9-0.3c0.4,0.4,0.8,1,1,1.4l-0.7,0.3h4V168z M18.5,172.3h6.3v3.1h-6.3V172.3z M24.7,169.6h-6v-0.7h6
		V169.6z M18.6,170.6h6v0.7h-6V170.6z M19.4,174.6h4.4V173h-4.4V174.6z"/>
	<path d="M31.6,174.1c-0.2-0.4-0.8-1.2-1.3-1.8v5.2h-0.9v-5.1c-0.5,0.6-1.1,1.2-1.6,1.7c-0.1-0.3-0.3-0.8-0.5-0.9
		c1.2-1,2.6-2.6,3.4-4.3h-3V168h3.5l0.2,0l0.5,0.4c-0.4,1-0.9,2-1.5,2.9v0c0.1,0.1,0.3,0.3,0.4,0.5c0.4-0.4,0.8-0.9,1-1.3l0.6,0.5
		c-0.4,0.4-0.8,0.9-1.2,1.2c0.4,0.5,0.8,1,1,1.1L31.6,174.1z M30,167.8c-0.2-0.5-0.7-1.2-1-1.7l0.7-0.4c0.4,0.5,0.9,1.2,1.1,1.6
		L30,167.8z M39.4,176.4v0.9h-7.4v-0.9h3.2v-1.9h-2.6v-0.9h2.6v-1.5h-2.6v-5.9h6.3v5.9h-2.7v1.5H39v0.9h-2.8v1.9H39.4z M33.5,168.8
		h1.8v-1.7h-1.8V168.8z M35.3,171.3v-1.7h-1.8v1.7H35.3z M38,167.1h-1.8v1.7H38V167.1z M38,169.6h-1.8v1.7H38V169.6z"/>
	<path d="M42.4,173.4c1-0.4,1.6-1,1.6-1.9c-0.1,0-0.1,0-0.2,0c-0.5,0-1-0.3-1-0.9s0.5-0.9,1-0.9c0.7,0,1.1,0.6,1.1,1.5
		c0,1.4-0.9,2.5-2.2,3L42.4,173.4z"/>
	<path d="M58.9,167.5c-0.3,0.9-0.8,1.7-1.4,2.3c0.7,0.6,1.5,1,2.5,1.3c-0.2,0.2-0.4,0.5-0.6,0.7c-1-0.3-1.8-0.8-2.5-1.5
		c-0.6,0.5-1.4,0.9-2.2,1.3c-0.1-0.2-0.4-0.5-0.5-0.6v0.2h-0.8c-0.1,0.2-0.1,0.4-0.2,0.5c-0.1,0.1-0.1,0.1-0.2,0.2
		c0.3-0.1,0.6-0.3,0.9-0.4l0.6,0.5c-0.7,0.3-1.5,0.6-2.2,0.9l2.3-0.1c0.6-0.3,1.1-0.5,1.7-0.8l0.5,0.6c-1.5,0.8-3.1,1.4-4.7,1.9
		l5-0.3c-0.3-0.2-0.6-0.5-0.9-0.6l0.6-0.4c0.9,0.6,2,1.5,2.6,2l-0.7,0.4c-0.2-0.2-0.6-0.5-1-0.8l-3.2,0.2v1.8c0,0.5-0.1,0.7-0.5,0.8
		c-0.4,0.1-1,0.1-1.9,0.1c-0.1-0.3-0.2-0.6-0.3-0.8c0.8,0,1.4,0,1.6,0c0.2,0,0.2-0.1,0.2-0.2v-1.7c-3.6,0.2-4.1,0.3-4.4,0.4
		c0-0.2-0.1-0.6-0.2-0.8c0.4,0,1-0.2,1.7-0.4c0.4-0.1,1.2-0.4,2.1-0.8c-2.2,0.1-2.6,0.1-2.8,0.2c0-0.2-0.1-0.5-0.2-0.8
		c0.3,0,0.6-0.1,1-0.2c0.3-0.1,1.1-0.4,2-0.7c-0.1,0-0.2,0.1-0.3,0.1c-0.2,0-0.6,0-0.9,0c0-0.2-0.1-0.4-0.2-0.5c0.4,0,0.7,0,0.8,0
		s0.2,0,0.3-0.1c0,0,0-0.1,0.1-0.1h-3.7c0.1-0.4,0.2-1,0.2-1.6h-1V169h1c0.1-0.5,0.1-0.9,0.1-1.4c-0.2,0.2-0.4,0.4-0.6,0.6
		c-0.2-0.1-0.5-0.4-0.7-0.5c0.7-0.5,1.4-1.3,1.7-2.1l0.8,0.2c-0.1,0.2-0.2,0.3-0.2,0.5h4v0.6h-4.4c-0.1,0.2-0.3,0.4-0.4,0.5h4.4
		c0,0,0,0.2,0,0.3c0,0.4-0.1,0.8-0.1,1.2h0.8v0.6h-0.8c0,0.4-0.1,0.7-0.1,1h0.6v0.4c0.8-0.3,1.6-0.7,2.2-1.2c-0.4-0.5-0.7-1-1-1.5
		c-0.2,0.3-0.4,0.5-0.7,0.8c-0.1-0.2-0.4-0.5-0.6-0.6c0.8-0.6,1.3-1.6,1.6-2.7l0.8,0.2c-0.1,0.3-0.2,0.6-0.3,0.9h3.6v0.7H58.9z
		 M52.3,175.6c-0.9,0.7-2.2,1.3-3.3,1.7c-0.1-0.2-0.5-0.5-0.7-0.7c1.1-0.3,2.4-0.8,3.1-1.4L52.3,175.6z M49.9,169.5
		c0,0.4-0.1,0.7-0.1,1.1h2.1c-0.3-0.2-0.8-0.5-1.2-0.8l0.2-0.3H49.9z M50.1,168c0,0.3-0.1,0.7-0.1,1H52c-0.3-0.2-0.8-0.5-1.2-0.7
		l0.2-0.2H50.1z M52.8,170.6c0.1-0.3,0.1-0.6,0.1-1.1h-1.8c0.4,0.2,0.9,0.5,1.1,0.7l-0.3,0.3H52.8z M53,169c0-0.3,0.1-0.6,0.1-1
		h-1.8c0.4,0.2,0.8,0.4,1.1,0.6l-0.3,0.4H53z M56.4,175.2c1.1,0.4,2.5,1,3.2,1.5l-0.7,0.6c-0.7-0.5-2.1-1.1-3.2-1.5L56.4,175.2z
		 M55.9,167.5c0.3,0.7,0.6,1.2,1.1,1.7c0.5-0.5,0.8-1.1,1.1-1.8L55.9,167.5L55.9,167.5z"/>
	<path d="M68,173.9v1.1h4.7v0.8H68v1.7H67v-1.7h-4.6V175H67v-1.1h-5.3v-0.9H67v-3.4h-5v-0.8h11v0.8H68v3.4h5.4v0.9H68z M64.8,167.5
		h-3v-0.9h3v-0.9h0.9v0.9h1.5v0.9h-1.5v1h-0.9V167.5z M64.9,170v0.9h1.6v0.8h-1.6v1H64v-1h-1.9v-0.8H64V170H64.9z M69.3,167.5h-1.5
		v-0.9h1.5v-0.9h0.9v0.9h3v0.9h-3v1h-0.9V167.5z M70.3,172.7v-1h-1.6v-0.8h1.6V170h0.9v0.9H73v0.8h-1.8v1H70.3z"/>
	<path d="M86.9,173.6v0.9H75.2v-0.9h1.3l-0.2-6.9c0.8-0.3,1.8-0.7,2.4-1l0.5,0.8c-0.6,0.2-1.3,0.5-2,0.7l0.1,1.5H79v0.8h-1.7
		l0.1,1.6H79v0.8h-1.7l0.1,1.6h7.4c0-0.5,0.1-1,0.1-1.6h-1.7v-0.8h1.7c0-0.5,0-1.1,0.1-1.6h-1.7v-0.8H85c0-0.6,0-1.1,0-1.6h-1.9
		v-0.8h2.8c0,2.3-0.1,5.4-0.2,7.3H86.9z M79.8,175.3c-1.1,0.8-2.6,1.7-3.9,2.2c-0.1-0.2-0.4-0.5-0.6-0.7c1.2-0.5,2.8-1.4,3.6-2.1
		L79.8,175.3z M80.8,170.6c-0.1,0.9-0.4,1.8-0.8,2.4c-0.1-0.1-0.5-0.3-0.7-0.4c0.4-0.6,0.6-1.4,0.7-2.1L80.8,170.6z M81.7,170h-2.1
		v-4.2h0.8v1.2h2.1v0.8h-2.1v1.4h1.7v0h0.4v3.4c0,0.4-0.1,0.6-0.4,0.7c-0.3,0.1-0.7,0.1-1.4,0.1c0-0.2-0.1-0.5-0.2-0.7
		c0.5,0,0.8,0,1,0c0.1,0,0.2-0.1,0.2-0.2V170z M82.9,174.7c1.4,0.7,2.9,1.5,3.8,2.1l-0.6,0.7c-0.9-0.6-2.3-1.5-3.7-2.1L82.9,174.7z"
		/>
	<path d="M100.2,172.9v0.7H89v-0.7h1.2v-1.8H99v1.8H100.2z M90,169h-0.9v-2.2h4.9c-0.1-0.3-0.3-0.7-0.5-1l1-0.3
		c0.2,0.4,0.5,0.9,0.7,1.3h4.8v2.2h-0.9v-1.4H90V169z M89.8,170.3c0.6-0.5,1.1-1.3,1.4-2l0.7,0.4c-0.3,0.7-0.8,1.6-1.4,2.1
		L89.8,170.3z M90,174.3h9.3v0.7h-4.2v1.4c0,0.5-0.1,0.8-0.5,0.9c-0.4,0.1-1.1,0.1-2.2,0.1c0-0.3-0.2-0.6-0.3-0.8c0.8,0,1.6,0,1.8,0
		c0.2,0,0.3-0.1,0.3-0.2v-1.4H90V174.3z M91,172.9h1.9v-1.2H91V172.9z M93.1,168.4v1.2c0,0.3,0.1,0.3,0.7,0.3h2.1
		c0.4,0,0.5-0.1,0.5-0.8c0.2,0.1,0.5,0.2,0.7,0.3c-0.1,0.9-0.3,1.2-1.2,1.2h-2.3c-1.1,0-1.5-0.2-1.5-1v-1.2H93.1z M95.3,169.3
		c-0.5-0.4-1.3-0.8-2-1l0.5-0.5c0.7,0.2,1.6,0.7,2,1L95.3,169.3z M93.6,171.8v1.2h1.9v-1.2H93.6z M96.3,171.8v1.2h1.9v-1.2H96.3z
		 M98.5,170.6c-0.3-0.6-1-1.4-1.6-2l0.7-0.4c0.6,0.6,1.3,1.4,1.6,2L98.5,170.6z"/>
	<path d="M107.1,176.6c0,0.4-0.1,0.7-0.4,0.8c-0.3,0.1-0.8,0.2-1.6,0.2c0-0.2-0.2-0.5-0.3-0.8c0.6,0,1.1,0,1.3,0
		c0.2,0,0.2-0.1,0.2-0.2v-1.3h-2.6c-0.1,0.8-0.3,1.7-0.8,2.3c-0.1-0.2-0.4-0.5-0.6-0.6c0.6-0.8,0.7-1.9,0.7-2.8v-2.8h4.2V176.6z
		 M105.5,169.9h2.2v0.7h-5.4v-0.7h2.3V169h-1.7v-0.7h1.7v-0.8h-2.1v-0.7h2.1v-1.2h0.9v1.2h2v0.7h-2v0.8h1.7v0.7h-1.7V169.9z
		 M106.3,174.6v-0.9h-2.5v0.5c0,0.1,0,0.3,0,0.4H106.3z M103.7,172.1v0.9h2.5v-0.9H103.7z M114.1,172.5h-0.8v2H111v2
		c0,0.5-0.1,0.7-0.4,0.9c-0.3,0.1-0.8,0.2-1.6,0.2c0-0.3-0.2-0.6-0.3-0.9c0.5,0,1.1,0,1.2,0s0.2-0.1,0.2-0.2v-2h-1.9v-0.8h1.9v-1.2
		h-2.5v-0.9h2.5v-1.1h-1.9v-0.8h5v1.9h0.8V172.5z M113.7,166.5c-1.5,0.5-3.8,0.8-5.7,0.9c0-0.2-0.2-0.5-0.3-0.7
		c1.9-0.2,4.1-0.5,5.3-0.9L113.7,166.5z M108.8,169.7c-0.1-0.5-0.4-1.2-0.8-1.7l0.7-0.3c0.3,0.5,0.7,1.2,0.8,1.7L108.8,169.7z
		 M110.4,169.4c-0.1-0.5-0.3-1.2-0.5-1.8l0.7-0.2c0.3,0.5,0.5,1.3,0.6,1.8L110.4,169.4z M111,171.6h1.4v-1.1H111V171.6z
		 M112.4,172.5H111v1.2h1.4V172.5z M111.8,169.2c0.3-0.5,0.7-1.4,0.9-2l0.8,0.2c-0.3,0.7-0.7,1.4-1,2L111.8,169.2z"/>
	<path d="M12.3,188.1h-1.6v8.6c0,0.7-0.2,1-0.7,1.2C9.5,198,8.6,198,7.3,198c-0.1-0.3-0.3-0.8-0.4-1c1,0.1,2.1,0,2.4,0
		c0.3,0,0.4-0.1,0.4-0.4v-8.6H0.8v-1h11.5V188.1z M3,194.8v1H2.1v-5.9h5.3v4.8H3z M3,190.9v3h3.4v-3H3z"/>
	<path d="M19.1,194.3c-1.8,0.8-3.8,1.7-5.2,2.3l-0.4-1c0.5-0.2,1.1-0.4,1.8-0.7l-0.2-8l1,0l0.2,7.7c0.8-0.4,1.7-0.7,2.6-1.1
		L19.1,194.3z M24.8,198c-0.6-0.9-1.8-2.3-2.9-3.4c-1,1.5-2.4,2.7-4.5,3.5c-0.1-0.2-0.5-0.6-0.8-0.8c4.5-1.6,5.8-4.8,6.4-10.4
		l1.1,0.1c-0.3,2.8-0.8,5-1.7,6.7c1.2,1.2,2.5,2.6,3.2,3.6L24.8,198z M19.8,191.4c-0.4-0.9-1.2-2.2-2-3.2l0.9-0.4
		c0.9,0.9,1.7,2.2,2.1,3.1L19.8,191.4z"/>
	<path d="M34.8,194.7c1,1,2.4,1.9,3.7,2.3c-0.2,0.2-0.5,0.5-0.6,0.8c-1.2-0.5-2.6-1.5-3.6-2.6v2.9h-0.9v-3.4h-1.8v3.4h-0.9v-2.7
		c-0.9,1-2.2,2-3.4,2.5c-0.1-0.2-0.4-0.6-0.6-0.7c1.2-0.5,2.6-1.4,3.5-2.4h-2.3v-0.8h2.8v-1.2h-3.8v-0.8h3.8v-1.1h-2.7v-0.8h2.7
		v-1.1H27v-0.8h3c-0.3-0.4-0.8-1-1.3-1.4l0.9-0.4c0.5,0.5,1.1,1.1,1.4,1.6l-0.5,0.2h3.6c0.5-0.5,1-1.2,1.3-1.8l1,0.3
		c-0.4,0.5-0.8,1-1.2,1.5H38v0.8h-3.8v1.1H37v1.9h1.3v0.8H37v2H34.8z M31.5,189.9h1.8v-1.1h-1.8V189.9z M31.5,191.8h1.8v-1.1h-1.8
		V191.8z M33.3,193.9v-1.2h-1.8v1.2H33.3z M34.3,190.7v1.1H36v-1.1H34.3z M36,192.6h-1.8v1.2H36V192.6z"/>
	<path d="M43.4,189.4c-0.3,0.5-0.7,1.1-1.1,1.6v7h-0.9v-6c-0.5,0.5-1,1-1.5,1.4c-0.1-0.2-0.3-0.7-0.5-0.9c1.2-0.9,2.4-2.2,3.2-3.5
		L43.4,189.4z M43.2,186.6c-0.8,1.1-2,2.3-3.2,3.1c-0.1-0.2-0.3-0.6-0.5-0.8c1-0.7,2.2-1.7,2.8-2.7L43.2,186.6z M51.4,194.5h-1.9
		v2.5c0,0.5-0.1,0.8-0.5,0.9c-0.4,0.1-1,0.2-2,0.2c0-0.3-0.2-0.6-0.3-0.9c0.7,0,1.4,0,1.6,0c0.2,0,0.3-0.1,0.3-0.2v-2.5h-5.2v-0.8
		h5.2v-1.1h-4.9v-0.8h7.6v0.8h-1.7v1.1h1.9V194.5z M50.5,190.8h-6.2v-4.3h6.2V190.8z M45.1,194.7c0.6,0.5,1.3,1.3,1.7,1.8L46,197
		c-0.3-0.5-1-1.3-1.6-1.9L45.1,194.7z M49.5,187.3h-4.3v1h4.3V187.3z M49.5,189.1h-4.3v1.1h4.3V189.1z"/>
	<path d="M54.2,196.1c0-0.6,0.5-1,1-1c0.6,0,1,0.4,1,1c0,0.6-0.5,1-1,1C54.7,197.1,54.2,196.7,54.2,196.1z M54.5,188.9l0-1.5H56
		l0,1.5l-0.3,5h-0.9L54.5,188.9z"/>
</g>
</svg>
