<?xml version="1.0" encoding="utf-8"?>
<!-- Generator: Adobe Illustrator 25.2.3, SVG Export Plug-In . SVG Version: 6.00 Build 0)  -->
<svg version="1.1" id="圖層_1" xmlns="http://www.w3.org/2000/svg" xmlns:xlink="http://www.w3.org/1999/xlink" x="0px" y="0px"
	 viewBox="0 0 304.7 93.4" style="enable-background:new 0 0 304.7 93.4;" xml:space="preserve">
<g>
	<path d="M4.9,26.1c-1.4,0.7-3,1.3-4.1,1.8l-0.4-1c0.4-0.1,0.9-0.3,1.4-0.5L1.6,20l1,0l0.2,5.9c0.6-0.3,1.2-0.5,1.8-0.8L4.9,26.1z
		 M9.4,29c-0.5-0.7-1.3-1.7-2.2-2.7c-0.8,1.2-1.9,2-3.4,2.7c-0.1-0.2-0.5-0.7-0.8-0.9c3.5-1.3,4.6-3.8,5-8.2l1.1,0.1
		c-0.2,2.2-0.6,4-1.3,5.4c0.9,0.9,1.9,2,2.4,2.8L9.4,29z M5.4,23.7c-0.3-0.7-0.9-1.8-1.6-2.6l0.9-0.4c0.7,0.8,1.3,1.8,1.6,2.5
		L5.4,23.7z"/>
	<path d="M14.5,25.8c0-0.2-0.1-0.3-0.1-0.6c-2.2,0.4-2.6,0.5-2.8,0.6c-0.1-0.2-0.2-0.6-0.3-0.9c0.2-0.1,0.5-0.3,0.8-0.7
		c0.2-0.2,0.5-0.6,0.8-1.1c-1,0.1-1.2,0.2-1.4,0.2c-0.1-0.2-0.2-0.6-0.3-0.9c0.2-0.1,0.4-0.3,0.6-0.6c0.2-0.3,1-1.5,1.4-2.6l0.9,0.4
		c-0.4,0.9-1,1.9-1.6,2.7l1-0.1c0.3-0.4,0.5-0.9,0.7-1.3l0.8,0.5c-0.6,1.1-1.4,2.2-2.2,3.1l1.4-0.2c-0.1-0.3-0.2-0.6-0.3-0.9
		l0.7-0.2c0.3,0.7,0.6,1.6,0.8,2.1L14.5,25.8z M12.5,26.3c-0.1,0.9-0.3,1.9-0.5,2.5c-0.2-0.1-0.6-0.2-0.8-0.3
		c0.2-0.6,0.4-1.6,0.5-2.4L12.5,26.3z M13.6,26.2c0.1,0.7,0.3,1.7,0.3,2.3l-0.8,0.2c0-0.6-0.1-1.6-0.3-2.3L13.6,26.2z M14.7,25.8
		c0.2,0.6,0.5,1.4,0.6,1.9L14.5,28c-0.1-0.5-0.3-1.4-0.5-2L14.7,25.8z M19.4,28.1c0.1,0,0.3,0,0.4,0c0.1,0,0.2-0.1,0.2-0.2
		c0-0.1,0.1-0.5,0.1-0.9c0.2,0.2,0.5,0.3,0.8,0.4c0,0.4-0.1,0.9-0.2,1.1c-0.1,0.2-0.2,0.3-0.5,0.4c-0.2,0.1-0.5,0.1-0.7,0.1h-0.9
		c-0.3,0-0.6-0.1-0.8-0.2c-0.2-0.2-0.3-0.4-0.3-1.3v-1.2h-1.9v-3.7h0.9v2.8h1.1v-3.6h-2.1v-0.9h2.1v-1.3h0.9v1.3h2.4v0.9h-2.4v3.6
		h1.1v-2.8h0.9v4.1h-0.9v-0.5h-1.1v1.3c0,0.3,0,0.5,0.1,0.5c0.1,0,0.2,0.1,0.3,0.1H19.4z"/>
	<path d="M23.4,24.6c-0.2,1.1-0.6,2.6-1.1,3.3c-0.1-0.3-0.3-0.7-0.4-1c0.4-0.6,0.8-1.8,0.9-2.6L23.4,24.6z M24.8,24.4
		c0.2,0.3,0.8,1.6,1,1.9l-0.7,0.7c-0.1-0.5-0.5-1.5-0.8-2.1v4.2h-0.8v-5.2h-1.4v-0.9h1.4v-3.5h0.8v3.5h1.3v0.9h-1.3v0.9L24.8,24.4z
		 M22.6,22.5c-0.1-0.6-0.3-1.5-0.5-2.2l0.7-0.2c0.2,0.7,0.4,1.6,0.5,2.2L22.6,22.5z M25.9,20.3c-0.3,0.7-0.6,1.6-0.8,2.2l-0.6-0.2
		c0.2-0.6,0.5-1.6,0.6-2.2L25.9,20.3z M28,21.9c-0.1,0.4-0.2,0.7-0.3,1.1c0.3,0.3,0.7,0.6,0.9,0.8l-0.5,0.7
		c-0.2-0.2-0.4-0.5-0.7-0.7c-0.3,0.6-0.6,1.1-1,1.5c-0.1-0.1-0.5-0.5-0.7-0.6c0.7-0.7,1.2-1.7,1.5-2.9L28,21.9z M31.6,26.4h-2.5v2.7
		h-1v-2.7h-2.3v-0.9h2.3v-0.6h0.6c-0.2-0.2-0.3-0.4-0.5-0.5c0.7-0.6,1.2-1.6,1.5-2.6l0.9,0.2c-0.1,0.4-0.2,0.8-0.4,1.2
		c0.5,0.4,1.1,1,1.4,1.3L31,25.1c-0.3-0.3-0.7-0.8-1.2-1.2c-0.2,0.4-0.5,0.7-0.7,1h0v0.6h2.5V26.4z M31.3,21.5h-5.2v-0.9h2.2
		c-0.1-0.3-0.2-0.7-0.4-1l0.9-0.2c0.2,0.4,0.4,0.9,0.5,1.2h2V21.5z"/>
	<path d="M34.3,24.8v4.2h-0.9v-7h2.4c-0.2-0.3-0.6-0.7-0.9-0.9l0.4-0.3h-0.8c-0.3,0.5-0.7,0.9-1.1,1.2c-0.1-0.2-0.5-0.5-0.7-0.7
		c0.6-0.5,1.2-1.3,1.6-2.1l0.9,0.3c-0.1,0.2-0.2,0.3-0.3,0.5h2.5v0.8h-1.8c0.3,0.3,0.6,0.6,0.8,0.8l-0.5,0.5h1.2v2.7H34.3z
		 M34.3,22.7v0.5h2v-0.5H34.3z M36.2,24.2v-0.5h-2v0.5H36.2z M36.5,28.2v0.4h-0.9v-3.2h3.9v2.9H36.5z M36.5,25.9v0.6h2.1v-0.6H36.5z
		 M38.6,27.6V27h-2.1v0.6H38.6z M42.3,20.9h-2.1c0.3,0.2,0.7,0.5,0.9,0.8l-0.5,0.5h1.2V28c0,0.5-0.1,0.7-0.4,0.9
		c-0.3,0.1-0.9,0.2-1.6,0.2c0-0.2-0.2-0.6-0.3-0.9c0.5,0,1.1,0,1.2,0c0.2,0,0.2-0.1,0.2-0.2v-3.2h-3v-2.7h2.4
		c-0.2-0.3-0.6-0.6-1-0.9l0.4-0.4h-0.9c-0.3,0.5-0.6,0.9-0.9,1.2c-0.2-0.1-0.5-0.4-0.7-0.6c0.6-0.5,1.1-1.3,1.4-2.1l0.9,0.2
		c-0.1,0.2-0.1,0.3-0.2,0.5h3V20.9z M40.8,22.7h-2.1v0.5h2.1V22.7z M40.8,24.2v-0.5h-2.1v0.5H40.8z"/>
	<path d="M45,24.3c-0.3-0.4-1-0.9-1.5-1.3l0.6-0.6c0.5,0.3,1.2,0.9,1.5,1.2L45,24.3z M43.6,28.4c0.4-0.8,0.9-2.1,1.3-3.3l0.7,0.5
		c-0.3,1.1-0.8,2.3-1.2,3.3L43.6,28.4z M45.1,21.4c-0.3-0.4-0.9-0.9-1.4-1.3l0.6-0.6c0.5,0.3,1.1,0.9,1.4,1.3L45.1,21.4z M48.1,27.3
		c-0.5,0.5-1.3,1-2,1.4c-0.1-0.2-0.3-0.4-0.5-0.6c0.7-0.3,1.5-0.8,1.8-1.2L48.1,27.3z M45.9,22.6c0.4,0,0.8-0.1,1.2-0.1V22h-1.1
		v-0.6h1.1v-0.5h-1.2v-0.7h1.2v-0.5h0.8v0.5h1.2v0.7h-1.2v0.5h1V22h-1v0.4l1.2-0.1l0,0.6c-0.4,0-0.8,0.1-1.2,0.1v0.6h-0.8v-0.5
		l-1.2,0.1L45.9,22.6z M49.8,26.5v1.6c0,0.4-0.1,0.6-0.4,0.7c-0.3,0.1-0.7,0.1-1.3,0.1c0-0.2-0.2-0.5-0.3-0.7c0.4,0,0.8,0,0.9,0
		c0.1,0,0.2,0,0.2-0.1v-1.6c-1.8,0.1-2.2,0.1-2.5,0.2c0-0.1-0.2-0.4-0.3-0.6c0.3,0,0.7-0.1,1.1-0.3c0.2-0.1,0.8-0.3,1.4-0.6
		c-1.4,0.1-1.7,0.1-2,0.2c-0.1-0.1-0.2-0.4-0.3-0.6c0.2,0,0.4-0.1,0.7-0.2c0.3-0.1,1.2-0.6,1.8-1.2l0.8,0.4
		c-0.4,0.3-0.8,0.5-1.3,0.8l1.4-0.1c0.3-0.2,0.6-0.3,0.8-0.5l0.9,0.4c-0.9,0.5-1.8,1-2.7,1.4l2.8-0.1c-0.2-0.2-0.3-0.4-0.5-0.6
		l0.7-0.3c0.5,0.5,1.1,1.2,1.4,1.7l-0.7,0.4c-0.1-0.2-0.2-0.3-0.3-0.5L49.8,26.5z M51.1,20.8c-0.1,1.2-0.5,2.3-1.5,2.9
		c-0.1-0.2-0.3-0.4-0.5-0.6c0.8-0.5,1.1-1.4,1.2-2.4h-0.9v-0.7h3.4c0,0,0,0.2,0,0.3c-0.1,1.8-0.1,2.6-0.4,2.8
		c-0.2,0.2-0.3,0.3-0.6,0.3c-0.2,0-0.5,0-0.9,0c0-0.3-0.1-0.6-0.2-0.8c0.3,0,0.5,0,0.6,0c0.1,0,0.2,0,0.3-0.1
		c0.1-0.1,0.2-0.6,0.2-1.9H51.1z M50.9,26.9c0.7,0.4,1.5,1,2,1.4l-0.6,0.6c-0.4-0.4-1.3-1-1.9-1.5L50.9,26.9z"/>
	<path d="M56.7,22.7c0.3,0.3,1.1,1.3,1.3,1.5L57.4,25c-0.2-0.3-0.5-0.8-0.8-1.2V29h-0.9v-4.6c-0.3,1-0.7,1.8-1.2,2.4
		c-0.1-0.3-0.3-0.7-0.5-0.9c0.6-0.8,1.3-2.2,1.6-3.5h-1.4v-0.9h1.4v-2.1h0.9v2.1h1.1v0.9h-1.1V22.7z M63.9,27.7v0.9h-6V20h5.8v0.9
		h-4.9v6.8H63.9z M60.9,26v-1.4h-1.4v-0.8h1.4v-1.3h-1.6v-0.8h4.2v0.8h-1.7v1.3h1.5v0.8h-1.5V26h1.8v0.8h-4.4V26H60.9z"/>
	<path d="M68.5,27.4c-0.7,0.6-1.8,1.2-2.7,1.5c-0.2-0.2-0.5-0.5-0.7-0.7c0.9-0.3,1.9-0.7,2.5-1.2L68.5,27.4z M74.4,24.1h-9.2v-0.8
		h4.1c-0.1-0.1-0.2-0.3-0.2-0.4l0.5-0.2h-3.3v-3h6.9v3H70c0.1,0.2,0.3,0.4,0.4,0.6h4V24.1z M70.4,26.8v1.4c0,0.5-0.1,0.7-0.5,0.8
		c-0.3,0.1-0.9,0.1-1.6,0.1c0-0.3-0.2-0.5-0.3-0.8c0.5,0,1,0,1.2,0c0.1,0,0.2-0.1,0.2-0.2v-1.3h-2.8v-2.2h6.5v2.2H70.4z M67.3,21h5
		v-0.5h-5V21z M67.3,22.2h5v-0.6h-5V22.2z M67.6,26.1h4.6v-0.8h-4.6V26.1z M71.7,27.1c0.9,0.3,2.1,0.9,2.8,1.3l-0.7,0.6
		c-0.6-0.4-1.8-1-2.7-1.3L71.7,27.1z"/>
	<path d="M85.3,27.7v1H76v-1H81c0.5-1.3,1.1-3.4,1.5-4.9l1.1,0.2c-0.4,1.5-1,3.4-1.5,4.7H85.3z M84.9,22.3h-8.5v-1h8.5V22.3z
		 M78.7,27.3c-0.1-1.2-0.6-2.9-0.9-4.3l1-0.2c0.4,1.4,0.8,3.1,1,4.3L78.7,27.3z M80.3,21.3c-0.1-0.5-0.3-1.2-0.5-1.7l1-0.2
		c0.2,0.5,0.4,1.2,0.6,1.7L80.3,21.3z"/>
	<path d="M91.8,21c-0.1,0.4-0.3,0.8-0.4,1.2h4.1v6.9h-1v-0.5h-6.4v0.5h-0.9v-6.9h3.2c0.1-0.4,0.2-0.8,0.2-1.2h-3.9v-0.9h9.3V21H91.8
		z M88.2,27.6h1.3v-4.6h-1.3V27.6z M92.3,23.1h-2v1h2V23.1z M92.3,24.8h-2v1h2V24.8z M90.4,27.6h2v-1h-2V27.6z M94.6,23.1h-1.4v4.6
		h1.4V23.1z"/>
	<path d="M98.4,25.7c0.8-0.3,1.3-0.8,1.3-1.4c0,0-0.1,0-0.1,0c-0.5,0-0.9-0.3-0.9-0.8c0-0.5,0.4-0.8,0.9-0.8c0.7,0,1,0.5,1,1.3
		c0,1.2-0.7,2.1-1.9,2.5L98.4,25.7z"/>
	<path d="M105.1,21.6H103v-0.8h1.4c-0.1-0.3-0.4-0.7-0.6-1l0.7-0.3c0.3,0.3,0.6,0.8,0.7,1.1l-0.4,0.2h1.1c0.2-0.4,0.5-0.9,0.7-1.3
		l0.8,0.3c-0.2,0.4-0.4,0.7-0.6,1h1.3v0.8h-2.1v1.3c0,0.1,0,0.3,0,0.4h1V22h0.8v2.3h-0.8V24h-1.2c-0.2,0.7-0.7,1.4-1.8,1.8
		c-0.1-0.2-0.4-0.5-0.6-0.7c0.8-0.3,1.2-0.7,1.5-1.2h-1.5v-2h0.8v1.2h0.9c0-0.1,0-0.3,0-0.4V21.6z M112.4,27.9v0.9H103v-0.9h4.2v-1
		H104v-0.8h3.1v-0.6h0.8c-0.2-0.1-0.5-0.3-0.7-0.4c1.1-1,1.2-2.4,1.2-3.5v-1.7h3.6v4.8c0,0.5-0.1,0.7-0.4,0.9
		c-0.3,0.1-0.7,0.2-1.4,0.2c0-0.3-0.2-0.6-0.3-0.9c0.4,0,0.9,0,1,0c0.1,0,0.2,0,0.2-0.2v-1h-2c-0.2,0.7-0.5,1.3-1,1.8h0.1v0.6h3.2
		v0.8h-3.2v1H112.4z M111.1,22.9v-0.8h-1.8c0,0.2,0,0.5-0.1,0.8H111.1z M109.3,20.7v0.7h1.8v-0.7H109.3z"/>
	<path d="M116.6,24.3c-0.2,1-0.6,2-1,2.8c0.2,0.1,0.4,0.3,0.6,0.4c0.7,0.4,1.7,0.5,2.9,0.5c1.3,0,3-0.1,4.2-0.2
		c-0.1,0.3-0.3,0.7-0.3,1c-0.8,0.1-2.7,0.1-4,0.1c-1.4,0-2.3-0.1-3-0.6c-0.4-0.2-0.8-0.6-1-0.6c-0.2,0-0.6,0.7-0.9,1.3l-0.7-0.9
		c0.4-0.6,0.9-1,1.2-1.2c0.3-0.5,0.6-1.3,0.7-2h-1.4c0.3-0.6,0.6-1.4,0.9-2.2h-1.3v-0.9h2.4c-0.2,0.7-0.6,1.6-0.8,2.3h0.7l0.1,0
		L116.6,24.3z M114.9,21.5c-0.1-0.5-0.4-1.2-0.6-1.7l0.9-0.3c0.2,0.5,0.4,1.2,0.6,1.7L114.9,21.5z M117.9,21.5
		c-0.2,0.4-0.5,0.7-0.8,1c-0.2-0.1-0.6-0.4-0.8-0.5c0.7-0.6,1.2-1.6,1.5-2.5l0.9,0.2c-0.1,0.3-0.2,0.6-0.4,0.9h1v-1.2h1v1.2h2.4v0.8
		h-2.4v1.1h2.8v0.8h-6.7v-0.8h2.9v-1.1H117.9z M121.4,27.4v-0.3h-3.2v0.3h-0.9v-3.2h5.1v3.2H121.4z M121.4,26.3V25h-3.2v1.3H121.4z"
		/>
	<path d="M133.7,21v2.2h-1v-1.4h-7v1.4h-0.9V21h1.5c-0.2-0.3-0.5-0.7-0.7-1.1l0.8-0.3c0.4,0.4,0.7,0.9,0.9,1.3l-0.3,0.1h1.6v-1.5h1
		V21h1.6l-0.2-0.1c0.3-0.4,0.7-0.9,0.8-1.4l1,0.3c-0.3,0.4-0.6,0.8-0.9,1.1H133.7z M125.6,25.2h7.5v3.8h-1v-0.3h-5.6v0.3h-0.9V25.2z
		 M126.5,26v0.7h2.3V26H126.5z M128.8,28.1v-0.7h-2.3v0.7H128.8z M132,22.4v2.3h-5.5v-2.3H132z M131,23.2h-3.6V24h3.6V23.2z
		 M132.1,26h-2.4v0.7h2.4V26z M132.1,28.1v-0.7h-2.4v0.7H132.1z"/>
	<path d="M4.1,35.8c-0.3,0.7-0.7,1.4-1.1,2V45H2v-5.7c-0.4,0.5-0.8,1-1.3,1.4c-0.1-0.2-0.4-0.8-0.6-1c1.2-1,2.3-2.6,3-4.2L4.1,35.8z
		 M6.9,39.5c0.3,2.6,1,4.3,2,4.4c0.3,0,0.4-0.6,0.5-1.8c0.2,0.2,0.6,0.5,0.8,0.5c-0.2,1.9-0.7,2.4-1.3,2.4c-1.8-0.1-2.6-2.2-3-5.4
		l-2.3,0.3L3.5,39l2.4-0.3c-0.1-1-0.1-2-0.2-3.1h1c0,1,0.1,2,0.2,3l3.1-0.4l0.1,0.9L6.9,39.5z M9,37.8c-0.3-0.5-1-1.2-1.6-1.7
		l0.7-0.5c0.6,0.5,1.3,1.2,1.6,1.7L9,37.8z"/>
	<path d="M14.1,39.1c-0.2,1.5-0.4,2.7-0.9,3.7c1,0.9,2.4,1.1,4,1.1c0.5,0,2.7,0,3.3,0c-0.1,0.2-0.3,0.6-0.4,0.9h-3
		c-1.9,0-3.3-0.2-4.4-1.2c-0.3,0.6-0.8,1-1.2,1.4c-0.1-0.2-0.5-0.5-0.7-0.7c0.5-0.4,1-0.9,1.3-1.5c-0.4-0.5-0.7-1.2-0.9-2l0.7-0.3
		c0.2,0.6,0.4,1,0.6,1.4c0.2-0.6,0.4-1.4,0.5-2.2h-1.7c0.4-0.8,1-1.9,1.4-2.9h-1.7v-0.9h3.1c-0.4,0.9-0.9,2-1.4,2.9h0.5l0.2,0
		L14.1,39.1z M16.5,37.1h-1.9v-0.8h1.9v-0.8h0.9v0.8h2.3v1.4h0.7v0.8h-0.7v1.4h-2.3v0.7h2.4v0.7h-2.4V42h2.8v0.8h-2.8v0.9h-0.9v-0.9
		h-2.5V42h2.5v-0.7h-2v-0.7h2v-0.7h-2v-0.8h2v-0.6H14v-0.8h2.5V37.1z M17.5,37.1v0.6h1.4v-0.6H17.5z M18.9,38.5h-1.4v0.6h1.4V38.5z"
		/>
	<path d="M23.2,36.8c-0.3,0.4-0.7,0.8-1.1,1.1c-0.1-0.2-0.5-0.5-0.7-0.7c0.6-0.5,1.2-1.2,1.6-1.9l0.9,0.3c-0.1,0.1-0.1,0.3-0.2,0.4
		h2.5v0.8h-1.8c0.3,0.3,0.6,0.6,0.8,0.8l-0.7,0.5c-0.2-0.3-0.6-0.7-0.9-1l0.4-0.3H23.2z M25.1,43.1c-0.7,0.8-1.8,1.5-2.9,1.8
		c-0.1-0.2-0.4-0.6-0.7-0.8c1-0.2,2.2-0.7,2.8-1.3L25.1,43.1z M26.7,41.9h4.2v0.8h-4.2V45h-0.9v-2.4h-4.2v-0.8h4.2v-0.6
		c-0.2-0.1-0.4-0.3-0.5-0.4c0.6-0.2,1-0.5,1.2-0.8c-0.3-0.2-0.7-0.3-1-0.4l0.4-0.6c0.3,0.1,0.6,0.2,0.9,0.4c0-0.1,0-0.2,0-0.3v-0.3
		h-1.1v-0.7h3.8v2.1c0,0.2,0,0.3,0,0.3c0,0,0.1,0,0.1,0h0.2c0.1,0,0.1,0,0.2,0c0,0,0.1-0.1,0.1-0.2c0-0.1,0-0.4,0-0.8
		c0.2,0.1,0.4,0.3,0.7,0.3c0,0.4-0.1,0.8-0.1,1c-0.1,0.2-0.2,0.3-0.3,0.4c-0.1,0.1-0.3,0.1-0.5,0.1h-0.5c-0.2,0-0.5-0.1-0.6-0.2
		c-0.2-0.1-0.2-0.3-0.2-0.9v-1.4h-1v0.3c0,0.2,0,0.5-0.1,0.7c0.4,0.2,0.7,0.3,0.9,0.5L28.1,41c-0.2-0.1-0.5-0.3-0.9-0.5
		c-0.2,0.3-0.5,0.5-0.9,0.7h0.3V41.9z M21.6,40.6c0.4-0.1,0.9-0.1,1.5-0.2v-1.5h-1.4v-0.7h3.6v0.7H24v1.4c0.4-0.1,0.9-0.1,1.3-0.2
		l0,0.7c-1.3,0.2-2.6,0.4-3.6,0.5L21.6,40.6z M31,36v0.8H29c0.3,0.3,0.6,0.5,0.7,0.8L29,38.1c-0.2-0.3-0.5-0.7-0.9-1l0.4-0.3h-1.1
		c-0.3,0.4-0.6,0.8-1,1.1c-0.2-0.2-0.5-0.5-0.7-0.6c0.6-0.5,1.1-1.2,1.4-2l0.9,0.2c-0.1,0.2-0.1,0.3-0.2,0.5H31z M28,42.7
		c0.9,0.4,2.1,1,2.8,1.4l-0.7,0.7c-0.6-0.4-1.8-1.1-2.7-1.5L28,42.7z"/>
	<path d="M40.9,40.4v0.7h-6.6v0.3h-0.9v-3.1c-0.2,0.3-0.5,0.5-0.7,0.7c-0.1-0.2-0.5-0.5-0.7-0.7c1-0.7,1.9-1.8,2.4-2.9l0.9,0.3
		c-0.2,0.3-0.4,0.7-0.6,1h2.2c-0.1-0.3-0.3-0.7-0.5-1.1l0.9-0.2c0.2,0.4,0.5,0.9,0.6,1.3h2.7v0.7h-2.9v0.5h2.5v0.7h-2.5v0.6h2.5v0.7
		h-2.5v0.6H40.9z M40.7,44.1c0,0.4-0.1,0.7-0.4,0.8C40,45,39.6,45,38.9,45c0-0.3-0.1-0.6-0.3-0.8c0.4,0,0.8,0,0.9,0
		c0.1,0,0.2,0,0.2-0.1v-1.6h-1.4v1.5h-3.3v-1.5h-1.4v2.6h-0.9v-3.5H36v1.5h1.4v-1.5h3.3V44.1z M36.8,37.4h-2.5v0.5h2.5V37.4z
		 M36.8,38.6h-2.5v0.6h2.5V38.6z M34.3,40.4h2.5v-0.6h-2.5V40.4z"/>
	<path d="M46.1,39.8c-0.5,2.2-1.7,3.7-3,4.6c-0.2-0.2-0.5-0.6-0.8-0.7c1.1-0.6,2-1.8,2.5-3.2h-2.3v-0.9h2.7l0.2,0L46.1,39.8z
		 M51.8,39c-0.8,0.8-1.8,1.6-2.7,2.2c0.8,1.1,1.8,1.9,3,2.4c-0.2,0.2-0.5,0.6-0.7,0.9c-1.6-0.7-2.8-2-3.6-3.7v3.1
		c0,0.6-0.1,0.8-0.5,1c-0.4,0.2-1,0.2-1.8,0.2c0-0.3-0.2-0.7-0.3-1c0.6,0,1.2,0,1.4,0c0.2,0,0.2-0.1,0.2-0.2v-5.4H44v-0.9h3.8v0.8
		c0.2,0.7,0.5,1.4,0.8,2c0.8-0.6,1.7-1.4,2.2-2.1L51.8,39z M48.7,37.7c-0.8-0.5-2.5-1.1-3.8-1.4l0.5-0.8c1.2,0.3,3,0.8,3.9,1.3
		L48.7,37.7z"/>
	<path d="M58.1,40.8c0,0.2-0.1,0.5-0.1,0.7h4.2v0.8h-4.4c-0.5,1.4-1.6,2.2-4.4,2.7c-0.1-0.3-0.3-0.7-0.5-0.9
		c2.3-0.3,3.3-0.9,3.8-1.8h-3.3v-0.8H57c0-0.2,0.1-0.4,0.1-0.7h-4V40h4.1v-0.7h-3.2v-0.8h3.2v-0.7h-3.8v-0.9h2.1
		c-0.2-0.3-0.5-0.8-0.7-1.1l0.8-0.3c0.4,0.4,0.7,0.9,0.9,1.3l-0.3,0.2h2.6c0.3-0.4,0.6-1,0.8-1.4l1,0.3c-0.2,0.4-0.5,0.8-0.8,1.1H62
		v0.9h-3.8v0.7h3.3v0.8h-3.3V40h4.2v0.9H58.1z M62,45.1c-0.9-0.6-2.8-1.5-4.2-2l0.4-0.7c1.4,0.5,3.3,1.3,4.2,1.9L62,45.1z"/>
	<path d="M72.9,43.1h-4.1v1c0,0.5-0.1,0.7-0.5,0.8C68,45,67.5,45,66.6,45c-0.1-0.3-0.2-0.6-0.3-0.8c0.6,0,1.2,0,1.3,0
		c0.2,0,0.2,0,0.2-0.2v-1h-4.3v-0.8h4.3v-0.4c0.5-0.2,1-0.4,1.4-0.7h-3.8v-0.7h4.8l0.2-0.1l0.6,0.5c-0.6,0.5-1.4,0.9-2.2,1.3v0.1
		h4.1V43.1z M64.7,41.2h-0.9v-2h0.8l-0.2-3.1c0.6-0.1,1.5-0.4,2.1-0.5l0.4,0.6c-0.5,0.2-1,0.3-1.5,0.4l0,0.4h1.4v0.6h-1.4l0,0.5h1.4
		v0.6c0.3-0.1,0.6-0.3,0.9-0.5c-0.2-0.1-0.5-0.3-0.7-0.4l0.5-0.4c0.2,0.1,0.5,0.3,0.7,0.4c0.2-0.2,0.3-0.3,0.5-0.5l0.7,0.2
		c-0.2,0.2-0.4,0.4-0.6,0.6c0.3,0.2,0.5,0.4,0.7,0.5L69,39.1c-0.2-0.2-0.4-0.4-0.7-0.6c-0.3,0.2-0.6,0.4-0.9,0.6H71
		c0-0.2,0-0.3,0.1-0.5h-1.4V38h1.4l0-0.5h-1.4v-0.6h1.5l0-0.5h-1.5v-0.6h2.5c-0.1,1.1-0.1,2.4-0.2,3.3h0.8v2h-1v-1.3h-7.1V41.2z
		 M65.5,39.2h1.8c-0.1-0.1-0.3-0.4-0.5-0.5h-1.3L65.5,39.2z M69,37.2c-0.2-0.2-0.4-0.3-0.7-0.5c-0.3,0.2-0.6,0.4-0.9,0.6
		c-0.1-0.1-0.4-0.3-0.5-0.5c0.3-0.1,0.6-0.3,0.9-0.5c-0.2-0.1-0.4-0.3-0.7-0.3l0.5-0.4c0.2,0.1,0.5,0.2,0.7,0.4
		c0.2-0.1,0.3-0.3,0.4-0.5l0.7,0.2c-0.2,0.2-0.3,0.4-0.5,0.6c0.3,0.2,0.5,0.3,0.6,0.5L69,37.2z"/>
	<path d="M76.2,38.6c0.9,0,1.6,0.7,1.6,1.6c0,0.9-0.7,1.6-1.6,1.6c-0.9,0-1.6-0.7-1.6-1.6C74.5,39.4,75.3,38.6,76.2,38.6z
		 M76.2,41.3c0.6,0,1-0.5,1-1c0-0.6-0.5-1-1-1c-0.5,0-1,0.5-1,1C75.1,40.8,75.6,41.3,76.2,41.3z"/>
</g>
<g>
	<path d="M12.2,2.2v3h-1.5V3.5H2.4v1.6H0.9v-3h1.7C2.4,1.8,2.2,1.4,1.9,1.1l1.4-0.5c0.4,0.5,0.8,1.1,1,1.6L4.1,2.2h1.6V0.4h1.5v1.8
		h1.5l-0.1,0C9,1.7,9.4,1,9.6,0.5L11.3,1c-0.3,0.4-0.6,0.9-0.9,1.2H12.2z M1.9,7.7h9.5v4.9H9.8v-0.3H3.3v0.3H1.9V7.7z M10,4.1v3H3.1
		v-3H10z M3.3,8.8v0.7h2.4V8.8H3.3z M5.7,11.2v-0.7H3.3v0.7H5.7z M8.4,5.2H4.5V6h3.9V5.2z M9.8,8.8H7.2v0.7h2.5V8.8z M9.8,11.2v-0.7
		H7.2v0.7H9.8z"/>
	<path d="M18.2,1c-0.3,0.8-0.7,1.6-1.2,2.4v9.1h-1.6V5.7c-0.4,0.5-0.9,1-1.4,1.5c-0.1-0.4-0.6-1.2-0.9-1.6c1.4-1.2,2.8-3.1,3.5-5.1
		L18.2,1z M21.8,5.7c0.4,2.9,1.1,4.8,2.1,4.9c0.3,0,0.5-0.6,0.6-2.1c0.3,0.3,1,0.7,1.3,0.9c-0.3,2.5-1,3.1-1.8,3.1
		c-2.2-0.2-3.2-2.7-3.7-6.6l-2.6,0.4l-0.2-1.5l2.6-0.4C20,3.3,19.9,2,19.9,0.6h1.6c0,1.3,0.1,2.5,0.2,3.6l3.7-0.5l0.2,1.5L21.8,5.7z
		 M24.1,3.4c-0.3-0.6-1.1-1.5-1.8-2.2l1.2-0.7c0.7,0.6,1.5,1.5,1.9,2.1L24.1,3.4z"/>
	<path d="M30.5,5c-0.2,1.9-0.5,3.5-1,4.7c1.2,1,2.8,1.2,4.7,1.3c0.8,0,3.4,0,4.3,0c-0.2,0.3-0.5,1-0.5,1.4h-3.8
		c-2.2,0-4-0.3-5.3-1.4c-0.4,0.7-0.9,1.2-1.4,1.6c-0.2-0.3-0.8-0.8-1.1-1c0.6-0.4,1.1-1,1.5-1.7c-0.4-0.7-0.8-1.5-1.1-2.5l1.1-0.4
		c0.2,0.6,0.4,1.1,0.6,1.5C28.8,7.8,28.9,7,29,6.1h-2.1c0.5-1,1.2-2.4,1.7-3.7h-1.9V1.1h4c-0.5,1.2-1.1,2.5-1.7,3.7h0.3l0.3,0
		L30.5,5z M33.3,2.6h-2.2V1.4h2.2v-1h1.5v1h2.8v1.7h0.7v1.2h-0.7v1.7h-2.8v0.6h3v1.1h-3v0.6h3.4v1.2h-3.4v0.9h-1.5V9.7h-2.9V8.5h2.9
		V7.8h-2.4V6.7h2.4V6.1H31V4.9h2.3V4.4h-2.9V3.2h2.9V2.6z M34.7,2.6v0.6h1.5V2.6H34.7z M36.2,4.4h-1.5v0.6h1.5V4.4z"/>
	<path d="M51.5,2.3h-2.2c0.3,0.3,0.5,0.5,0.7,0.8l-1.1,0.8h0.9v2.5c0,0.2,0,0.3,0,0.4c0,0.1,0.1,0.1,0.1,0.1h0.2c0.1,0,0.1,0,0.2,0
		c0,0,0.1-0.1,0.1-0.2c0-0.2,0-0.5,0.1-0.9c0.2,0.2,0.7,0.4,1,0.5c0,0.5-0.1,1-0.2,1.3c-0.1,0.2-0.2,0.4-0.4,0.5
		c-0.2,0.1-0.5,0.1-0.7,0.1h-0.6c-0.3,0-0.7-0.1-0.9-0.3c-0.2-0.2-0.3-0.4-0.3-1.1l-0.5,0.9c-0.2-0.1-0.6-0.3-0.9-0.5
		c-0.2,0.3-0.4,0.5-0.7,0.7h0.2v0.8h5.1v1.2H48c1.1,0.4,2.6,1.1,3.3,1.7l-1.1,1.1c-0.7-0.5-2.2-1.3-3.3-1.8l1-0.9h-1.7v2.9h-1.5V9.6
		h-5.1V8.4h5.1V7.7h0.2c-0.2-0.2-0.4-0.3-0.5-0.4v0.1c-1.6,0.2-3.3,0.4-4.5,0.6l-0.2-1.2c0.5-0.1,1.1-0.1,1.7-0.2V4.9h-1.6V3.9h3.2
		c-0.2-0.4-0.7-0.8-1-1.2l0.5-0.4h-0.9c-0.4,0.5-0.8,1-1.3,1.4c-0.2-0.3-0.7-0.8-1-1.1c0.8-0.6,1.5-1.4,2-2.3l1.4,0.4
		c-0.1,0.1-0.1,0.3-0.2,0.4h2.8v1.2h-1.9c0.3,0.3,0.6,0.6,0.8,0.9l-0.9,0.7h1v1.1h-1.5v1.4c0.5-0.1,1-0.1,1.5-0.2l0,1
		c0.6-0.2,1-0.5,1.2-0.8c-0.4-0.2-0.7-0.4-1.1-0.5L45.1,5c0.3,0.1,0.6,0.3,0.9,0.4c0-0.1,0-0.1,0-0.2V4.8h-1.2v-1h3.9
		c-0.2-0.3-0.7-0.8-1-1.2l0.5-0.3h-1c-0.4,0.5-0.7,1-1.1,1.4c-0.3-0.2-0.8-0.7-1.2-0.9c0.8-0.6,1.4-1.5,1.8-2.4l1.4,0.4
		C48,0.8,47.9,1,47.9,1.1h3.6L51.5,2.3z M44.2,10.2c-0.8,1-2.2,1.9-3.6,2.3c-0.2-0.4-0.7-1-1-1.3c1.3-0.3,2.6-0.8,3.3-1.5L44.2,10.2
		z M47.3,5.3c0,0.2,0,0.5-0.1,0.7c0.4,0.2,0.7,0.4,1,0.5V6.3V4.8h-0.9V5.3z"/>
	<path d="M59.8,9.4c1.6,0.5,3.6,1.3,4.7,1.9l-0.7,1.3c-1.1-0.7-3.5-1.7-5.2-2.3l0.6-1h-0.5c-0.6,1.6-2,2.6-5.5,3.2
		c-0.1-0.4-0.5-1.1-0.8-1.4c2.6-0.4,3.8-0.9,4.4-1.8H53V8h4.4c0-0.2,0.1-0.4,0.1-0.7h-4.8V6h5V5.3h-3.8V4h3.8V3.4h-4.6V2h2.5
		c-0.2-0.4-0.5-0.8-0.7-1.1l1.4-0.5c0.4,0.5,0.8,1.1,1,1.5L56.8,2h2.9c0.3-0.5,0.7-1.2,0.9-1.7l1.7,0.4C62,1.2,61.7,1.6,61.4,2h2.5
		v1.4h-4.6V4h4v1.3h-4V6h5.2v1.3h-5.3C59.1,7.6,59,7.8,59,8h5.1v1.3H59.8z"/>
	<path d="M77.4,10.2h-5v0.9c0,0.7-0.2,1-0.7,1.2c-0.5,0.2-1.2,0.2-2.2,0.2c-0.1-0.4-0.3-0.9-0.5-1.3c0.6,0,1.4,0,1.6,0
		c0.2,0,0.3,0,0.3-0.2v-0.9h-5.3V9h5.3V8.6c0.5-0.2,1-0.5,1.4-0.8h-4.2V6.8h5.7l0.3-0.1L75,7.5C74.3,8,73.4,8.5,72.5,9h4.9V10.2z
		 M67.3,7.7h-1.5V5.1h1l-0.2-3.9c0.8-0.1,1.9-0.5,2.6-0.7l0.6,0.9c-0.5,0.2-1.2,0.4-1.8,0.5l0,0.4h1.7v1h-1.6l0,0.4h1.6v0.7
		c0.3-0.2,0.6-0.3,0.9-0.5c-0.2-0.2-0.5-0.3-0.7-0.4l0.7-0.6c0.3,0.1,0.5,0.3,0.8,0.4c0.2-0.2,0.4-0.4,0.5-0.5L73,3
		c-0.2,0.3-0.4,0.5-0.7,0.8c0.3,0.2,0.6,0.4,0.8,0.6L72.3,5c-0.2-0.2-0.5-0.4-0.8-0.6c-0.4,0.3-0.7,0.5-1.1,0.7h4.2l0.1-0.5h-1.5v-1
		h1.6l0-0.4h-1.6v-1H75l0-0.4h-1.8v-1h3.3c-0.1,1.4-0.2,3-0.3,4.2h1v2.7h-1.5V6.2h-8.3V7.7z M68.2,5.1h2.1c-0.1-0.2-0.4-0.4-0.6-0.6
		v0.1h-1.5L68.2,5.1z M72.3,2.7c-0.2-0.2-0.4-0.4-0.7-0.5c-0.4,0.3-0.7,0.5-1.1,0.6c-0.2-0.2-0.6-0.5-0.8-0.7c0.3-0.1,0.7-0.3,1-0.5
		c-0.2-0.1-0.5-0.3-0.7-0.4l0.7-0.6C71,0.7,71.2,0.9,71.5,1c0.2-0.2,0.3-0.3,0.5-0.5l1,0.3c-0.2,0.2-0.4,0.5-0.6,0.7
		C72.6,1.7,72.8,1.9,73,2L72.3,2.7z"/>
</g>
<g>
	<path d="M170.5,25.3v3c0,0.5-0.1,0.7-0.4,0.9c-0.3,0.2-0.7,0.2-1.4,0.2c0-0.2-0.1-0.7-0.3-0.9c0.4,0,0.8,0,0.9,0
		c0.1,0,0.2,0,0.2-0.2v-2.6c-0.4,0.2-0.8,0.3-1.1,0.4l-0.2-0.9c0.4-0.1,0.9-0.3,1.4-0.5v-2h-1.2v-0.9h1.2v-2h0.9v2h1v0.9h-1v1.7
		c0.3-0.1,0.6-0.2,0.9-0.3l0.2,0.9L170.5,25.3z M173.1,19.8h0.9v4.6c0,2.1-0.3,3.8-2.4,4.9c-0.1-0.2-0.5-0.5-0.7-0.7
		c1.4-0.7,1.9-1.7,2.1-2.9c-0.5,0.4-1,0.8-1.5,1.1l-0.5-0.8c0.5-0.3,1.3-0.8,2.1-1.4v-0.3v-1.2l-0.7,0.4c-0.2-0.6-0.6-1.5-1-2.2
		l0.7-0.4c0.4,0.5,0.7,1.3,1,1.8V19.8z M176.9,28.3c0.2,0,0.3-0.3,0.3-1.4c0.2,0.2,0.6,0.3,0.8,0.4c-0.1,1.4-0.3,1.9-1.1,1.9h-1
		c-0.8,0-1.1-0.3-1.1-1.4v-8h0.9v3.4c0.4-0.6,0.9-1.6,1.1-2.3l0.9,0.5c-0.4,0.8-0.9,1.6-1.3,2.2l-0.7-0.4v1.2l0.2-0.3
		c0.7,0.6,1.5,1.4,2,1.9l-0.6,0.7c-0.3-0.4-1-1.1-1.6-1.7v2.7c0,0.5,0,0.5,0.3,0.5H176.9z"/>
	<path d="M188.2,20.7v0.8h-9.2v-0.8h4.2c-0.1-0.3-0.2-0.6-0.3-0.9l1-0.2c0.1,0.3,0.3,0.8,0.4,1.1H188.2z M187.9,28.3
		c0,0.5-0.1,0.6-0.4,0.8c-0.3,0.1-0.8,0.1-1.5,0.1c-0.1-0.2-0.2-0.5-0.3-0.7c0.4,0,1,0,1.1,0c0.1,0,0.2,0,0.2-0.2v-2.8h-6.6v3.8h-1
		v-4.6h8.5V28.3z M186.9,22v2.2h-6.3V22H186.9z M182.3,28.2v0.5h-0.9V26h4.5v2.2H182.3z M185.8,22.7h-4.3v0.8h4.3V22.7z M182.3,26.7
		v0.8h2.7v-0.8H182.3z"/>
	<path d="M189.8,27.5h1.7v-5.4h-1.4v-0.8c0.7-0.1,1.2-0.3,1.7-0.6h0.9v6.7h1.5v1h-4.4V27.5z"/>
	<path d="M195.8,27.5h1.7v-5.4h-1.4v-0.8c0.7-0.1,1.2-0.3,1.7-0.6h0.9v6.7h1.5v1h-4.4V27.5z"/>
	<path d="M205.2,25.4c-0.7,1.5-1.9,3-3.1,3.8c-0.2-0.3-0.5-0.6-0.7-0.8c1.1-0.7,2.3-2.1,3-3.3L205.2,25.4z M206.6,24.6v4.7h-1v-4.7
		h-4.1v-1h4.1v-3.9h1v3.9h4.1v1H206.6z M203.4,23.1c-0.2-0.7-0.8-1.7-1.4-2.4l0.9-0.4c0.6,0.7,1.2,1.7,1.4,2.4L203.4,23.1z
		 M207.9,25.1c1.2,1.1,2.5,2.6,3.1,3.7l-0.8,0.5c-0.5-1-1.8-2.6-3-3.7L207.9,25.1z M210.3,20.6c-0.5,0.9-1.2,1.9-1.7,2.6l-0.8-0.4
		c0.5-0.7,1.1-1.8,1.5-2.6L210.3,20.6z"/>
	<path d="M221.2,21.3c0,0,0,0.3,0,0.5c-0.1,4.7-0.3,6.4-0.7,6.9c-0.3,0.3-0.5,0.4-0.9,0.5c-0.4,0-1,0-1.6,0c0-0.3-0.1-0.7-0.3-0.9
		c0.7,0.1,1.3,0.1,1.5,0.1c0.2,0,0.3,0,0.4-0.2c0.3-0.3,0.5-1.9,0.6-5.9h-2.5c-0.3,0.7-0.6,1.3-1,1.8c-0.2-0.1-0.5-0.4-0.8-0.5v4.8
		h-2.8V29h-0.9v-7.7h1.2c0.1-0.5,0.3-1.2,0.4-1.7l1.1,0.2c-0.2,0.5-0.4,1.1-0.5,1.5h1.7v2c0.7-0.9,1.2-2.3,1.6-3.7l0.9,0.2
		c-0.1,0.5-0.3,1-0.4,1.4H221.2z M213.2,22.2v2h2v-2H213.2z M215.1,27.4V25h-2v2.3H215.1z M218.6,26.5c-0.3-0.6-1-1.7-1.5-2.4
		l0.8-0.4c0.6,0.7,1.3,1.7,1.6,2.3L218.6,26.5z"/>
	<path d="M225.1,24.6c-0.2,0.9-0.5,1.9-0.9,2.7c0.2,0.1,0.4,0.3,0.8,0.5c0.7,0.4,1.7,0.5,2.9,0.5c1.3,0,3-0.1,4.2-0.2
		c-0.1,0.3-0.3,0.7-0.3,1c-0.8,0.1-2.7,0.1-4,0.1c-1.4,0-2.3-0.1-3-0.6c-0.4-0.2-0.8-0.6-1-0.6c-0.2,0-0.6,0.7-0.9,1.3l-0.7-0.9
		c0.4-0.5,0.7-0.9,1.1-1.1c0.3-0.6,0.5-1.3,0.7-2h-1.3c0.3-0.6,0.6-1.5,0.8-2.3h-1.1v-0.9h2.3c-0.2,0.7-0.5,1.6-0.8,2.3h0.6l0.1,0
		L225.1,24.6z M223.5,21.7c-0.1-0.5-0.4-1.2-0.5-1.8l0.9-0.3c0.2,0.5,0.4,1.2,0.6,1.7L223.5,21.7z M228,25.1c0,0.3,0,0.7,0.1,0.9
		c-1.9,0.6-2.3,0.7-2.5,0.9c-0.1-0.2-0.2-0.6-0.4-0.8c0.2-0.1,0.4-0.3,0.4-0.8v-4.6c0.7-0.3,1.6-0.7,2.1-1l0.7,0.7h3.2v5.3
		c0,0.4-0.1,0.7-0.4,0.8c-0.3,0.1-0.7,0.2-1.3,0.2c0-0.2-0.2-0.6-0.3-0.8c0.4,0,0.8,0,0.9,0c0.1,0,0.2,0,0.2-0.2v-4.5h-1.4v6.7h-0.9
		v-7.5c-0.5,0.3-1.2,0.6-1.8,0.8v4.3L228,25.1z"/>
	<path d="M239.4,27.8c1,0.3,2.1,0.7,2.8,0.9l-0.9,0.6c-0.7-0.3-1.9-0.7-3-1.1l0.5-0.4h-2.5l0.6,0.4c-0.8,0.5-2.3,0.9-3.4,1.1
		c-0.1-0.2-0.4-0.5-0.6-0.7c1-0.2,2.2-0.5,3-0.8h-1.5v-3.2c-0.4,0.1-0.8,0.1-1.2,0.1c-0.1-0.2-0.3-0.6-0.5-0.8
		c0.5,0,0.9-0.1,1.4-0.1c-0.1-0.2-0.4-0.4-0.5-0.5c0.7-0.2,1.4-0.6,1.8-1l0.8,0.2c-0.4,0.4-1,0.8-1.6,1.2c0.9-0.1,1.7-0.2,2.5-0.4
		v-1h-2.3v-0.7h5.6v0.7H238v0.8c0.8-0.2,1.5-0.5,2-0.8l0.8,0.4c-0.7,0.5-1.6,0.8-2.6,1.1h2.8v3.9H239.4z M234.2,22.3h-0.9v-1.8h3.7
		c-0.1-0.2-0.2-0.4-0.3-0.5l0.9-0.3c0.2,0.3,0.4,0.6,0.5,0.9h3.8v1.8H241v-1h-6.8V22.3z M235.4,25.1h4.6v-0.5h-4.6V25.1z M240,25.6
		h-4.6v0.6h4.6V25.6z M235.4,27.3h4.6v-0.6h-4.6V27.3z"/>
	<path d="M246.2,20.7h1.2v6.7h3.3v1h-4.5V20.7z"/>
	<path d="M251.3,25.6c0-1.9,1.3-3,2.7-3s2.7,1.1,2.7,3c0,1.9-1.3,3-2.7,3S251.3,27.5,251.3,25.6z M255.5,25.6c0-1.2-0.6-2-1.5-2
		c-0.9,0-1.5,0.8-1.5,2c0,1.2,0.6,2,1.5,2C255,27.6,255.5,26.8,255.5,25.6z"/>
	<path d="M259.3,27.9L259.3,27.9l-0.1,0.6h-0.9v-8.4h1.2v2.2l0,1c0.5-0.4,1.1-0.8,1.7-0.8c1.5,0,2.3,1.2,2.3,2.9
		c0,2-1.2,3.1-2.5,3.1C260.4,28.6,259.8,28.3,259.3,27.9z M262.1,25.5c0-1.2-0.4-2-1.4-2c-0.5,0-0.9,0.2-1.4,0.7v2.8
		c0.4,0.4,0.9,0.5,1.3,0.5C261.5,27.6,262.1,26.9,262.1,25.5z"/>
	<path d="M265.9,27.9L265.9,27.9l-0.1,0.6h-0.9v-8.4h1.2v2.2l0,1c0.5-0.4,1.1-0.8,1.7-0.8c1.5,0,2.3,1.2,2.3,2.9
		c0,2-1.2,3.1-2.5,3.1C267,28.6,266.4,28.3,265.9,27.9z M268.7,25.5c0-1.2-0.4-2-1.4-2c-0.5,0-0.9,0.2-1.4,0.7v2.8
		c0.4,0.4,0.9,0.5,1.3,0.5C268.1,27.6,268.7,26.9,268.7,25.5z"/>
	<path d="M273.9,28.8c-0.5,1.2-1.1,2.1-2.3,2.1c-0.3,0-0.5,0-0.7-0.1l0.2-0.9c0.1,0,0.3,0.1,0.4,0.1c0.6,0,1-0.5,1.2-1.1l0.1-0.4
		l-2.3-5.7h1.2l1.1,3c0.2,0.5,0.3,1.1,0.5,1.6h0.1l0.5-1.6l0.9-3h1.2L273.9,28.8z"/>
	<path d="M282.2,23.6c0.7,2.2,2,4,4,4.8c-0.2,0.2-0.6,0.6-0.7,0.9c-2-0.9-3.2-2.6-4.1-4.8c-0.5,1.9-1.7,3.7-4.1,4.8
		c-0.2-0.3-0.5-0.6-0.7-0.8c2.5-1.1,3.5-3,3.9-4.9h-3.7v-1h3.9c0.1-1,0.1-2.1,0.1-2.9h1.1c0,0.8,0,1.9-0.1,2.9h4.2v1H282.2z"/>
	<path d="M288.6,23.6c0,1.6-0.1,4.1-0.9,5.7c-0.2-0.2-0.5-0.4-0.8-0.5c0.7-1.5,0.8-3.6,0.8-5.1v-3.3h3.9c-0.1-0.2-0.2-0.4-0.3-0.5
		l0.8-0.3c0.2,0.2,0.4,0.6,0.6,0.8h3.9v0.8h-8V23.6z M290.9,26.5c-0.2,0.1-0.5,0.1-0.8,0.1v0.5h0.6v0.6h-0.6v0.5l0.7-0.1l0,0.6
		c-0.8,0.1-1.5,0.2-2.2,0.3l-0.1-0.7c0.3,0,0.6,0,0.9-0.1v-0.6h-0.7v-0.6h0.7v-0.5c-0.3,0-0.5,0-0.7,0c0-0.2-0.1-0.4-0.2-0.6
		c0.7-0.1,1.5-0.2,2-0.3L290.9,26.5z M291.8,22.3v7H291v-3.8c-0.8,0.1-1.6,0.1-2.2,0.2l-0.1-0.7l0.6,0v-2.7h-0.4v-0.6h3.3v0.6H291.8
		z M291,22.3h-1v0.5h1V22.3z M291,23.3h-1v0.5h1V23.3z M291,24.9v-0.5h-1V25L291,24.9z M291.9,28.7c0.3-0.4,0.4-1,0.5-1.6l0.6,0.2
		c-0.1,0.6-0.2,1.3-0.5,1.7L291.9,28.7z M296.7,26.3h-2.4c0.3,0.3,0.7,0.8,0.8,1.1l-0.6,0.3c-0.1-0.3-0.5-0.9-0.9-1.2l0.4-0.2h-1.9
		v-0.7h4.5V26.3z M294.8,21.4V22h1.7v0.7h-1.7v0.5h1.7v2h-4v-2h1.5v-0.5h-1.6V22h1.6v-0.6H294.8z M293.6,23.7H293v0.9h0.5V23.7z
		 M294.7,28.6c0.2,0,0.2-0.1,0.2-0.7c0.1,0.1,0.4,0.2,0.6,0.3c-0.1,0.9-0.3,1.1-0.8,1.1H294c-0.7,0-0.8-0.2-0.8-0.9V27h0.7v1.4
		c0,0.2,0,0.2,0.2,0.2H294.7z M294.7,23.7h-0.6v0.9h0.6V23.7z M295.2,24.6h0.6v-0.9h-0.6V24.6z M295.9,26.9c0.4,0.5,0.7,1.2,0.8,1.7
		l-0.7,0.3c-0.1-0.5-0.4-1.2-0.8-1.7L295.9,26.9z"/>
	<path d="M298.6,25.9c0.8-0.3,1.3-0.8,1.3-1.4c0,0-0.1,0-0.1,0c-0.5,0-0.9-0.3-0.9-0.8c0-0.5,0.4-0.8,0.9-0.8c0.7,0,1,0.5,1,1.3
		c0,1.2-0.7,2.1-1.9,2.5L298.6,25.9z"/>
	<path d="M178,41.9v0.9h-9.6v-0.9h1v-5.1h2.2v-1.3h0.9v1.3h1.3v-1.3h0.9v1.3h2.3v5.1H178z M172.4,43.5c-0.8,0.7-2.1,1.4-3.2,1.8
		c-0.2-0.2-0.5-0.5-0.7-0.7c1.1-0.4,2.4-1.1,3-1.7L172.4,43.5z M170.3,37.8v1.6h1.3v-1.6H170.3z M170.3,41.9h1.3v-1.7h-1.3V41.9z
		 M172.5,37.8v1.6h1.3v-1.6H172.5z M173.8,40.3h-1.3v1.7h1.3V40.3z M174.7,42.9c1.1,0.5,2.3,1.2,3.1,1.7l-0.9,0.7
		c-0.7-0.5-1.8-1.2-2.9-1.7L174.7,42.9z M174.7,37.8v1.6h1.3v-1.6H174.7z M174.7,41.9h1.3v-1.7h-1.3V41.9z"/>
	<path d="M188.2,39.7c-0.3,1.3-0.7,2.4-1.2,3.4c0.3,0.9,0.5,1.4,0.8,1.4c0.2,0,0.3-0.3,0.3-1.3c0.2,0.2,0.5,0.3,0.7,0.4
		c-0.1,1.5-0.4,1.7-1.1,1.7c-0.5,0-1-0.5-1.3-1.3c-0.4,0.5-0.8,1-1.3,1.3c-0.1-0.2-0.5-0.5-0.7-0.6c0.3-0.2,0.5-0.4,0.7-0.6h-2.9
		v-4.6h3.1v0.6h-0.9v0.6h1v2h-1v0.7h1v0.4c0.3-0.3,0.5-0.6,0.7-0.9c-0.2-1-0.4-2.3-0.5-3.9h-3.8v2.2c0,1.3-0.1,3-0.7,4.2
		c-0.2-0.1-0.5-0.3-0.7-0.4c0.4-0.7,0.6-1.7,0.6-2.6h-0.6v0.4c0,0.7-0.1,1.9-0.8,2.6c-0.1-0.1-0.4-0.3-0.6-0.4
		c0.5-0.7,0.6-1.6,0.6-2.2v-0.4h-0.5v-0.8h1.9v-0.4v-0.4h-1.5v-2.5h0.7V40h0.7v-1.8h4.6l0-0.5h-0.1v-0.6h-1.3v-0.8h1.3v-0.7h1v0.7
		h2.1v0.8h-2.1v0.4h0c0,0.2,0,0.4,0,0.6h1c-0.2-0.2-0.5-0.4-0.7-0.6l0.6-0.4c0.4,0.2,0.8,0.5,1,0.8l-0.3,0.2h0.6V39h-2.2
		c0.1,1,0.1,1.9,0.3,2.7c0.3-0.7,0.5-1.4,0.6-2.2L188.2,39.7z M181.4,37.2h-2.1v-0.8h2.1v-0.7h1v0.7h1.3v0.8h-1.3v0.7h-1V37.2z
		 M183,40.2v0.6h0.7v-0.6H183z M184.7,41.4H183v0.8h1.7V41.4z M183,43.5h0.7v-0.7H183V43.5z"/>
	<path d="M199.2,37.2v2.2h-1V38h-7v1.4h-0.9v-2.2h1.5c-0.2-0.3-0.5-0.7-0.7-1.1l0.9-0.3c0.4,0.4,0.7,0.9,0.9,1.3l-0.3,0.1h1.6v-1.5
		h1v1.5h1.6l-0.2-0.1c0.3-0.4,0.7-0.9,0.8-1.4l1,0.3c-0.3,0.4-0.6,0.8-0.9,1.1H199.2z M191,41.5h7.5v3.8h-1V45H192v0.3H191V41.5z
		 M192,42.2v0.7h2.3v-0.7H192z M194.2,44.3v-0.7H192v0.7H194.2z M197.5,38.7v2.3H192v-2.3H197.5z M196.5,39.4h-3.6v0.8h3.6V39.4z
		 M197.6,42.2h-2.4v0.7h2.4V42.2z M197.6,44.3v-0.7h-2.4v0.7H197.6z"/>
	<path d="M204.3,36.1c-0.3,0.7-0.7,1.4-1.1,2v7.2h-1v-5.7c-0.4,0.5-0.8,1-1.3,1.4c-0.1-0.2-0.4-0.8-0.6-1c1.2-1,2.3-2.6,3-4.2
		L204.3,36.1z M207.1,39.7c0.3,2.6,1,4.3,2,4.4c0.3,0,0.4-0.6,0.5-1.8c0.2,0.2,0.6,0.5,0.8,0.5c-0.2,1.9-0.7,2.4-1.3,2.4
		c-1.8-0.1-2.6-2.2-3-5.4l-2.3,0.3l-0.1-0.9l2.4-0.3c-0.1-1-0.1-2-0.2-3.1h1c0,1,0.1,2,0.2,3l3.1-0.4l0.1,0.9L207.1,39.7z M209.3,38
		c-0.3-0.5-1-1.2-1.6-1.7l0.7-0.5c0.6,0.5,1.3,1.2,1.6,1.7L209.3,38z"/>
	<path d="M220.2,41.1c0.1,0,0.1,0,0.2,0c0,0,0.1-0.1,0.1-0.2c0-0.1,0-0.4,0-0.8c0.1,0.1,0.4,0.2,0.6,0.3c0,0.4-0.1,0.8-0.1,1
		c-0.1,0.1-0.1,0.3-0.3,0.3c-0.1,0.1-0.3,0.1-0.4,0.1h-0.4c-0.2,0-0.4-0.1-0.5-0.2c-0.1-0.1-0.2-0.3-0.2-0.9v-1.8h-0.7
		c0,0.3-0.1,0.6-0.2,1c0.3,0.2,0.6,0.4,0.8,0.6l-0.5,0.6c-0.2-0.2-0.4-0.3-0.6-0.5c-0.3,0.5-0.7,1-1.4,1.4c-0.1-0.1-0.2-0.2-0.3-0.3
		c-1.6,0.1-3.3,0.2-4.4,0.3l-0.1-0.6c0.5,0,1.2-0.1,1.9-0.1v-0.4h-1.4v-0.5h1.4v-0.5h0.8c0-0.1-0.1-0.3-0.1-0.4v-0.2h-0.8
		c-0.2,0.6-0.6,0.9-1.6,1.1c-0.1-0.1-0.2-0.4-0.3-0.5c0.8-0.1,1.1-0.3,1.3-0.6h-1.1v-0.5h1.8v-0.4h-1.3v-0.5h1.3v-0.3h0.8v0.3h1.3
		v0.5h-1.3v0.4h1.8v0.5h-1.3v0.2c0,0.2,0,0.2,0.2,0.2h0.5c0.1,0,0.3,0,0.5-0.1c0,0.2,0,0.3,0.1,0.5c-0.1,0-0.3,0-0.5,0h-0.7
		c-0.3,0-0.4-0.1-0.5-0.2v0.4h1.5v0.5h-1.5v0.4l1.8-0.1v0.2c0.5-0.4,0.8-0.7,1-1.2c-0.3-0.2-0.6-0.3-0.9-0.5l0.4-0.5
		c0.2,0.1,0.5,0.2,0.7,0.3c0.1-0.2,0.1-0.4,0.1-0.6h-1.1v-0.7h1.1v-0.7h0.8v0.7h1.5v2.5c0,0.2,0,0.3,0,0.3c0,0,0.1,0.1,0.1,0.1
		H220.2z M211.6,43.1h9.3v0.6h-2.4c0.8,0.3,1.6,0.9,2.1,1.3l-0.7,0.5c-0.2-0.2-0.4-0.3-0.7-0.5c-5.7,0.3-6.3,0.3-6.7,0.4
		c-0.1-0.1-0.2-0.5-0.3-0.7c0.2,0,0.4-0.1,0.7-0.2c0.2-0.1,0.7-0.3,1.2-0.7h-2.5V43.1z M214,37h-2.4v-0.7h2.4v-0.7h0.9v0.7h1.1V37
		H215v0.4H214V37z M219.7,42.1v0.6h-6.8v-0.6H219.7z M218.3,44.3c-0.2-0.1-0.5-0.3-0.7-0.4l0.5-0.3h-2.6c-0.4,0.3-0.9,0.5-1.3,0.8
		L218.3,44.3z M217.5,37h-1v-0.7h1v-0.7h1v0.7h2.4V37h-2.4v0.4h-1V37z"/>
	<path d="M231.8,39.8h-0.9v4.3c0,0.5-0.1,0.8-0.4,0.9c-0.3,0.2-0.8,0.2-1.5,0.2c0-0.3-0.2-0.7-0.3-0.9c0.5,0,1,0,1.1,0
		c0.1,0,0.2,0,0.2-0.2v-4.3h-1.1v-0.8h-1.6v6.2h-0.9v-6.2H225v-0.8c-0.2,0.5-0.5,0.9-0.8,1.4v5.7h-0.9v-4.5
		c-0.3,0.3-0.5,0.6-0.8,0.8c-0.1-0.2-0.4-0.7-0.5-0.9c0.9-0.7,1.7-1.8,2.2-3l0.9,0.3l0,0.1h1.4v-2.4h0.9v2.4h1.7v0.8h2.9L231.8,39.8
		z M224.9,36c-0.5,0.9-1.4,1.9-2.1,2.5c-0.1-0.2-0.4-0.5-0.5-0.7c0.7-0.5,1.4-1.4,1.8-2.1L224.9,36z M226,39.7c0,2-0.1,3.3-0.9,4.1
		c-0.1-0.2-0.3-0.5-0.5-0.6c0.6-0.7,0.7-1.8,0.7-3.6H226z M228.5,37.9c-0.2-0.4-0.5-1-0.9-1.4l0.6-0.3c0.4,0.4,0.7,1,0.9,1.3
		L228.5,37.9z M228.9,42.8c0.1,0,0.2,0,0.3-0.1c0,0.2,0.1,0.5,0.1,0.7c-0.1,0-0.3,0.1-0.4,0.1h-0.3c-0.7,0-0.8-0.3-0.8-1.1v-2.8h0.7
		v2.8c0,0.3,0,0.3,0.1,0.3H228.9z M231.7,37.3h-2.5v-0.9h2.5V37.3z"/>
	<path d="M234.6,42.1c0,0.1,0,0.3-0.1,0.4h3.9v2.7h-0.9v-0.4h-2.3v0.4h-0.8v-2.6c-0.1,0.8-0.4,1.6-0.8,2.3c-0.2-0.1-0.6-0.3-0.8-0.4
		c0.8-1.3,0.9-3.1,0.9-4.3v-1.3h4.4v3.2H234.6z M236.8,36c-0.1,0.1-0.1,0.2-0.2,0.3c0.8,0.5,1.7,1,2.2,1.4l-0.5,0.8
		c-0.5-0.4-1.4-1-2.3-1.5c-0.3,0.3-0.6,0.6-0.9,0.8h2v0.6H235V38c-0.5,0.4-1.1,0.8-1.6,1.1c-0.1-0.2-0.4-0.7-0.5-0.9
		c1.2-0.5,2.4-1.4,3-2.4L236.8,36z M237.4,41.4v-0.6h-2.6c0,0.2,0,0.4,0,0.6H237.4z M234.7,39.6v0.6h2.6v-0.6H234.7z M235.4,43.2
		v0.9h2.3v-0.9H235.4z M240.2,42.6h-0.9v-5.8h0.9V42.6z M242.1,35.7v8.4c0,0.6-0.1,0.8-0.5,1c-0.3,0.2-0.9,0.2-1.7,0.2
		c0-0.3-0.2-0.7-0.3-1c0.6,0,1.1,0,1.3,0c0.2,0,0.2-0.1,0.2-0.2v-8.4H242.1z"/>
	<path d="M247.1,36c-0.3,0.7-0.6,1.5-1,2.2v7.1h-1v-5.5c-0.3,0.4-0.6,0.7-0.9,1c-0.1-0.2-0.4-0.8-0.5-1c1-1,1.9-2.5,2.5-4.1
		L247.1,36z M250.3,38.3v1.3h2.9v0.9h-2.9v1.4h3v0.9h-3v2.4h-1v-7h-0.6c-0.4,0.8-0.9,1.6-1.4,2.1c-0.2-0.2-0.5-0.5-0.8-0.7
		c0.9-1,1.8-2.5,2.3-4l0.9,0.3c-0.2,0.5-0.3,0.9-0.5,1.4h4.2v0.9H250.3z"/>
	<path d="M255.6,41.9c0.8-0.3,1.3-0.8,1.3-1.4c0,0-0.1,0-0.1,0c-0.5,0-0.9-0.3-0.9-0.8c0-0.5,0.4-0.8,0.9-0.8c0.7,0,1,0.5,1,1.3
		c0,1.2-0.7,2.1-1.9,2.5L255.6,41.9z"/>
	<path d="M261.7,40.5c-0.4-0.4-1.1-0.9-1.7-1.2l0.6-0.7c0.6,0.3,1.3,0.8,1.7,1.1L261.7,40.5z M262.7,41.8c-0.5,1.1-1,2.3-1.6,3.3
		l-0.9-0.6c0.5-0.8,1.2-2.1,1.7-3.3L262.7,41.8z M262.2,37.8c-0.4-0.4-1.1-0.9-1.7-1.2l0.6-0.7c0.6,0.3,1.3,0.8,1.7,1.2L262.2,37.8z
		 M267.2,41.7c0.6,0.9,1.6,1.7,2.5,2.2c-0.2,0.2-0.5,0.5-0.7,0.8c-0.9-0.5-1.8-1.4-2.5-2.4v3.1h-1v-3c-0.7,1-1.6,1.9-2.6,2.4
		c-0.1-0.2-0.4-0.6-0.7-0.8c1-0.4,2-1.3,2.6-2.2h-2.1v-0.9h2.7v-1.1h1v1.1h2.8v0.9H267.2z M265.7,37.3c-0.1,1.5-0.6,2.3-2.6,2.7
		c-0.1-0.2-0.3-0.6-0.5-0.8c1.8-0.3,2.1-0.8,2.2-2H265.7z M264,38.2h-0.9v-2h6.2v1.9h-0.9V37H264V38.2z M268.8,39
		c0.2,0,0.5,0,0.7-0.1c0,0.2,0.1,0.6,0.1,0.8c-0.1,0.1-0.4,0.1-0.7,0.1h-1.2c-0.9,0-1.1-0.3-1.1-1.2v-1.3h0.9v1.3
		c0,0.3,0,0.3,0.2,0.3H268.8z"/>
	<path d="M277.3,43c1.1,0.5,2.3,1.1,3.1,1.5l-0.8,0.7c-0.7-0.5-1.9-1.1-3-1.6l0.6-0.6h-3.4l0.8,0.6c-0.8,0.6-2.1,1.3-3.1,1.7
		c-0.2-0.2-0.5-0.5-0.7-0.7c1-0.3,2.3-1,3-1.5h-2.8v-0.9h1.5v-6h6.4v6h1.4V43H277.3z M273.4,37v0.7h4.5V37H273.4z M277.9,38.4h-4.5
		v0.7h4.5V38.4z M273.4,39.9v0.8h4.5v-0.8H273.4z M273.4,42.1h4.5v-0.8h-4.5V42.1z"/>
	<path d="M286.8,41.1c0,0.2-0.1,0.5-0.1,0.7h4.2v0.8h-4.4c-0.5,1.4-1.6,2.2-4.4,2.7c-0.1-0.3-0.3-0.7-0.5-0.9
		c2.3-0.3,3.3-0.9,3.8-1.8H282v-0.8h3.6c0-0.2,0.1-0.4,0.1-0.7h-4v-0.9h4.1v-0.7h-3.2v-0.8h3.2v-0.7h-3.8V37h2.1
		c-0.2-0.3-0.5-0.8-0.7-1.1l0.8-0.3c0.4,0.4,0.7,0.9,0.9,1.3l-0.3,0.2h2.6c0.3-0.4,0.6-1,0.8-1.4l1,0.3c-0.2,0.4-0.5,0.8-0.8,1.1
		h2.1v0.9h-3.8v0.7h3.3v0.8h-3.3v0.7h4.2v0.9H286.8z M290.6,45.3c-0.9-0.6-2.8-1.5-4.2-2l0.4-0.7c1.4,0.5,3.3,1.3,4.2,1.9
		L290.6,45.3z"/>
	<path d="M302,39.8h-0.9v4.3c0,0.5-0.1,0.8-0.4,0.9c-0.3,0.2-0.8,0.2-1.5,0.2c0-0.3-0.2-0.7-0.3-0.9c0.5,0,1,0,1.1,0
		c0.1,0,0.2,0,0.2-0.2v-4.3h-1.1v-0.8h-1.6v6.2h-0.9v-6.2h-1.5v-0.8c-0.2,0.5-0.5,0.9-0.8,1.4v5.7h-0.9v-4.5
		c-0.3,0.3-0.5,0.6-0.8,0.8c-0.1-0.2-0.4-0.7-0.5-0.9c0.8-0.7,1.7-1.8,2.2-3l0.9,0.3l0,0.1h1.4v-2.4h0.9v2.4h1.7v0.8h2.9L302,39.8z
		 M295,36c-0.5,0.9-1.4,1.9-2.1,2.5c-0.1-0.2-0.4-0.5-0.5-0.7c0.7-0.5,1.4-1.4,1.8-2.1L295,36z M296.1,39.7c0,2-0.1,3.3-0.9,4.1
		c-0.1-0.2-0.3-0.5-0.5-0.6c0.6-0.7,0.7-1.8,0.7-3.6H296.1z M298.6,37.9c-0.2-0.4-0.5-1-0.9-1.4l0.6-0.3c0.4,0.4,0.7,1,0.9,1.3
		L298.6,37.9z M299.1,42.8c0.1,0,0.2,0,0.3-0.1c0,0.2,0.1,0.5,0.1,0.7c-0.1,0-0.3,0.1-0.4,0.1h-0.3c-0.7,0-0.8-0.3-0.8-1.1v-2.8h0.7
		v2.8c0,0.3,0,0.3,0.1,0.3H299.1z M301.8,37.3h-2.5v-0.9h2.5V37.3z"/>
	<path d="M177,54.6v-1h-3.8v0.8h3.7v2.7h-3.1v0.8h3.6v3.3h-0.9v-0.4h-2.7v0.4H173v-6.6h-0.6V53l-0.4,0.7c-0.3-0.3-0.9-0.6-1.5-0.9
		c-0.2,0.3-0.5,0.5-0.7,0.8h1.7v0.7h-1.8v-0.6c-0.3,0.3-0.7,0.6-1.1,0.9c-0.1-0.2-0.3-0.7-0.4-0.9c0.8-0.5,1.7-1.3,2.1-2.1l0.8,0.3
		c-0.1,0.1-0.1,0.2-0.2,0.3c0.5,0.3,1.1,0.6,1.4,0.8v-0.2h2.4c-0.1-0.3-0.3-0.7-0.4-0.9l0.9-0.4c0.2,0.4,0.4,0.8,0.6,1.1l-0.3,0.2
		h2.4v1.8H177z M171.3,58.6c0.4,0.7,0.8,1.6,1,2.1l-0.7,0.3c-0.1-0.2-0.2-0.5-0.3-0.8c-2,0.8-2.3,0.9-2.5,1.1c0-0.2-0.2-0.6-0.3-0.8
		c0.2-0.1,0.4-0.2,0.4-0.6v-5h3.1v3.6h-2.2V60l1.2-0.4c-0.1-0.2-0.2-0.5-0.3-0.7L171.3,58.6z M169.8,55.5v0.7h1.4v-0.7H169.8z
		 M171.2,57.7v-0.7h-1.4v0.7H171.2z M173.9,55.3v1.1h2.3v-1.1H173.9z M173.9,58.8V60h2.7v-1.3H173.9z"/>
	<path d="M183.5,56.7v3.4c0,0.5-0.1,0.7-0.4,0.9c-0.3,0.2-0.8,0.2-1.5,0.2c0-0.2-0.2-0.6-0.3-0.9c0.5,0,1,0,1.1,0
		c0.1,0,0.2-0.1,0.2-0.2v-3.3c-0.6,0.1-1.3,0.1-1.9,0.2c-0.1,1.4-0.3,3.1-0.8,4.3c-0.2-0.2-0.5-0.4-0.8-0.5c0.5-1.1,0.7-2.4,0.7-3.7
		l-0.7,0.1l-0.1-0.9l0.8-0.1v-0.4v-3.1h1.1c0.1-0.3,0.2-0.8,0.3-1.1l1,0.1c-0.1,0.3-0.3,0.7-0.4,0.9h1.6V56l0.2,0l0,0.8L183.5,56.7z
		 M180.7,56.2c0.6,0,1.2-0.1,1.8-0.1v-2.5h-1.8v2.3V56.2z M181.5,54c0.3,0.4,0.6,1,0.8,1.4l-0.6,0.3c-0.1-0.4-0.5-1-0.7-1.4
		L181.5,54z M181.7,59.2c-0.1-0.4-0.5-1.1-0.8-1.6l0.6-0.3c0.3,0.5,0.6,1.1,0.8,1.5L181.7,59.2z M188.5,56.3
		c-0.3,1.4-0.8,2.4-1.5,3.2c0.5,0.4,1.2,0.7,1.8,0.9c-0.2,0.2-0.5,0.6-0.6,0.8c-0.7-0.3-1.4-0.6-1.9-1c-0.6,0.5-1.3,0.9-2.1,1.1
		c-0.1-0.2-0.4-0.6-0.6-0.8c0.7-0.2,1.4-0.5,2-1c-0.6-0.7-1.1-1.5-1.4-2.4l0.4-0.1H184v-0.9h3.7l0.2,0L188.5,56.3z M185.3,53.5
		c0,0.8-0.1,1.7-0.9,2.3c-0.1-0.2-0.5-0.5-0.7-0.6c0.7-0.5,0.7-1.1,0.7-1.7v-1.3h3.2v2.1c0,0.3,0,0.4,0.1,0.4h0.5
		c0.1,0,0.3,0,0.5-0.1c0,0.2,0,0.6,0.1,0.8c-0.1,0.1-0.3,0.1-0.5,0.1h-0.6c-0.8,0-0.9-0.3-0.9-1.2V53h-1.4V53.5z M185.1,56.9
		c0.3,0.7,0.7,1.4,1.2,1.9c0.5-0.5,0.8-1.2,1.1-1.9H185.1z"/>
	<path d="M193.9,60.4c0,0.4-0.1,0.6-0.4,0.8c-0.3,0.1-0.7,0.1-1.3,0.1c0-0.2-0.2-0.5-0.3-0.8c0.4,0,0.8,0,1,0c0.1,0,0.2,0,0.2-0.2
		v-0.8h-1.9c-0.1,0.7-0.3,1.3-0.7,1.8c-0.1-0.2-0.4-0.5-0.6-0.6c0.5-0.7,0.5-1.5,0.5-2.3v-2.2h3.5V60.4z M194.4,55.8H190V55h1.8
		v-0.6h-1.4v-0.7h1.4v-0.5h-1.6v-0.7h1.6v-0.9h0.9v0.9h1.5v0.7h-1.5v0.5h1.3v0.7h-1.3V55h1.7V55.8z M193.1,58.9v-0.6h-1.8v0.2
		c0,0.1,0,0.3,0,0.4H193.1z M191.3,57v0.6h1.8V57H191.3z M199.6,57.3h-0.6v1.6h-1.8v1.4c0,0.5-0.1,0.7-0.4,0.8
		c-0.3,0.1-0.8,0.2-1.4,0.2c0-0.2-0.2-0.6-0.3-0.9c0.4,0,0.9,0,1,0c0.1,0,0.2,0,0.2-0.2v-1.4h-1.5v-0.8h1.5v-0.8h-1.9v-0.8h1.9v-0.8
		h-1.4v-0.8h0.4c-0.1-0.4-0.3-0.9-0.6-1.3l0.7-0.3c0.3,0.4,0.5,0.9,0.7,1.3l-0.7,0.3h3.6v1.5h0.6V57.3z M199.3,52.4
		c-1.2,0.4-3.1,0.7-4.7,0.8c0-0.2-0.1-0.5-0.2-0.7c1.5-0.2,3.3-0.4,4.3-0.7L199.3,52.4z M196.5,54.7c0-0.4-0.2-1-0.4-1.4l0.7-0.2
		c0.2,0.4,0.4,1,0.4,1.4L196.5,54.7z M197.1,56.4h1v-0.8h-1V56.4z M198.1,57.3h-1v0.8h1V57.3z M197.6,54.5c0.2-0.4,0.5-1.1,0.7-1.6
		l0.8,0.2c-0.3,0.6-0.5,1.1-0.8,1.6L197.6,54.5z"/>
	<path d="M204.2,54.1h-3.5v-0.8h1.6c-0.2-0.4-0.5-0.9-0.8-1.3l0.7-0.4c0.3,0.4,0.7,1,0.9,1.4l-0.5,0.3h1.5V54.1z M203.9,60.7h-2.1
		v0.5h-0.8v-3.5h2.9V60.7z M201.1,56.2h2.8v0.8h-2.8V56.2z M203.9,55.5h-2.8v-0.8h2.8V55.5z M201.9,58.4v1.5h1.2v-1.5H201.9z
		 M206.9,57.3c-0.7,0-1-0.2-1-0.6c-0.4,0.3-0.9,0.6-1.3,0.8c-0.1-0.2-0.4-0.5-0.6-0.7c0.7-0.3,1.3-0.7,1.8-1.1v-2.4h0.9v1.7
		c0.9-0.8,1.6-1.8,2.1-2.9l0.8,0.3c-0.3,0.6-0.6,1.2-1,1.7l0.7-0.2c0.4,0.6,0.9,1.5,1,2l-0.8,0.3c-0.1-0.5-0.5-1.4-0.9-2
		c-0.5,0.7-1.2,1.4-1.8,2v0.2c0,0.3,0.1,0.3,0.3,0.3h0.9c0.3,0,0.3-0.1,0.3-1.1c0.2,0.1,0.5,0.3,0.8,0.3c-0.1,1.2-0.3,1.6-1,1.6
		H206.9z M204.1,55.5c0.3-0.5,0.6-1.2,0.7-1.8l0.7,0.3c-0.1,0.6-0.4,1.4-0.7,1.9L204.1,55.5z M209.7,60.3h0.5V61h-6.1v-0.8h0.6v-2.5
		h4.9V60.3z M205.6,60.3h0.6v-1.7h-0.6V60.3z M207.4,53.4c-0.3-0.3-1-0.8-1.6-1.1l0.6-0.5c0.6,0.3,1.3,0.7,1.6,1.1L207.4,53.4z
		 M206.9,58.5v1.7h0.7v-1.7H206.9z M208.3,58.5v1.7h0.7v-1.7H208.3z"/>
	<path d="M214.3,52c-0.2,0.7-0.5,1.3-0.7,2v7.4h-0.9v-5.6c-0.3,0.4-0.5,0.8-0.8,1.1c-0.1-0.2-0.3-0.8-0.5-1c0.8-1,1.6-2.6,2-4.1
		L214.3,52z M220.2,58.8c-0.4,0.5-0.9,1-1.6,1.4c0.8,0.2,1.6,0.3,2.5,0.4c-0.2,0.2-0.4,0.5-0.5,0.7c-1.1-0.1-2.2-0.3-3.1-0.7
		c-0.9,0.3-1.9,0.5-3.1,0.7c-0.1-0.2-0.3-0.5-0.5-0.7c1-0.1,1.8-0.3,2.6-0.5c-0.3-0.2-0.6-0.3-0.9-0.5c-0.3,0.2-0.6,0.4-1,0.5
		c-0.1-0.2-0.4-0.4-0.6-0.6c0.3-0.1,0.7-0.3,1-0.5c-0.1-0.1-0.3-0.3-0.4-0.5l0.7-0.3c0.1,0.1,0.2,0.2,0.3,0.3
		c0.3-0.2,0.6-0.5,0.8-0.7c-0.3-0.1-0.4-0.3-0.4-0.7v-0.1c-0.3,0.4-0.6,0.8-1,1l-0.6-0.4c0.4-0.2,0.8-0.7,1-1l0.5,0.3v-0.3h0.8v0.6
		c0,0.2,0.1,0.2,0.4,0.2h1.1c0.2,0,0.3-0.1,0.3-0.4c0.1,0.1,0.4,0.2,0.6,0.2c-0.1-0.1-0.2-0.2-0.3-0.3l0.5-0.3
		c0.4,0.3,0.9,0.8,1.1,1.2l-0.5,0.4c-0.2-0.3-0.5-0.6-0.8-0.9c-0.1,0.6-0.3,0.7-0.8,0.7h-1.1c-0.1,0.1-0.2,0.3-0.3,0.4h2.4l0.2,0
		L220.2,58.8z M221.1,55.9v1.4h-0.9v-0.9h-2.5c0.3,0.2,0.6,0.4,0.8,0.6l-0.6,0.3c-0.2-0.2-0.6-0.5-0.9-0.7l0.3-0.2h-2.4v0.9h-0.8
		v-1.4h1v-2.6h1.8c0-0.2,0.1-0.3,0.1-0.5h-2.6v-0.7h6.5v0.7H218l-0.2,0.5h2.3v2.6H221.1z M216,53.8v0.4h3.2v-0.4H216z M219.2,54.6
		H216v0.4h3.2V54.6z M216,55.9h3.2v-0.4H216V55.9z M216.2,59.2c0.4,0.2,0.8,0.5,1.3,0.7c0.5-0.2,1-0.5,1.3-0.7L216.2,59.2
		L216.2,59.2z"/>
	<path d="M231.8,60.7h-4v0.5h-0.9v-5.9c-0.2,0.2-0.3,0.5-0.5,0.7c-0.1-0.1-0.2-0.2-0.3-0.4v0.9h-0.7v3.6c0,0.5-0.1,0.8-0.4,0.9
		c-0.3,0.1-0.8,0.2-1.6,0.2c0-0.3-0.1-0.7-0.3-0.9c0.5,0,1,0,1.2,0c0.2,0,0.2-0.1,0.2-0.2V57c-0.5,1.3-1.2,2.5-1.9,3.3
		c-0.2-0.2-0.4-0.5-0.7-0.7c0.7-0.7,1.4-1.9,1.9-3.1h-1.7c0.2-0.9,0.5-2.3,0.6-3.5h-0.6v-0.9h3.9v0.9h-0.7v2.6h0.7
		c-0.1-0.1-0.2-0.3-0.3-0.4c0.7-0.9,1.4-2.3,1.7-3.6l0.9,0.2c-0.2,0.5-0.4,1.1-0.6,1.7h1.6c-0.1-0.4-0.3-1-0.5-1.5l0.9-0.3
		c0.3,0.5,0.5,1.1,0.6,1.6l-0.6,0.2h1.9v0.9h-1.5v1.2h1.3v0.8h-1.3v1.3h1.3v0.8h-1.3v1.3h1.6V60.7z M223.7,53.1
		c-0.1,0.8-0.3,1.8-0.4,2.6h1.3v-2.6H223.7z M229.3,54.4h-1.5v1.2h1.5V54.4z M229.3,56.5h-1.5v1.3h1.5V56.5z M227.8,59.8h1.5v-1.3
		h-1.5V59.8z"/>
	<path d="M242.3,53.3c0,0,0,0.3,0,0.5c-0.1,4.7-0.3,6.4-0.7,6.9c-0.3,0.3-0.5,0.4-0.9,0.5c-0.4,0-1,0-1.6,0c0-0.3-0.1-0.7-0.3-0.9
		c0.7,0.1,1.3,0.1,1.5,0.1c0.2,0,0.3,0,0.4-0.2c0.3-0.3,0.5-1.9,0.6-5.9h-2.5c-0.3,0.7-0.6,1.3-1,1.8c-0.2-0.1-0.5-0.4-0.8-0.5v4.8
		h-2.8V61h-0.9v-7.7h1.2c0.1-0.5,0.3-1.2,0.4-1.7l1.1,0.2c-0.2,0.5-0.4,1.1-0.5,1.5h1.7v2c0.7-0.9,1.2-2.3,1.6-3.7l0.9,0.2
		c-0.1,0.5-0.3,1-0.4,1.4H242.3z M234.3,54.2v2h2v-2H234.3z M236.3,59.4V57h-2v2.3H236.3z M239.8,58.5c-0.3-0.6-1-1.7-1.5-2.4
		l0.8-0.4c0.6,0.7,1.3,1.7,1.6,2.3L239.8,58.5z"/>
	<path d="M246.2,53.2c-0.5,0.7-1.1,1.3-1.7,1.8c-0.2-0.2-0.6-0.5-0.8-0.6c0.9-0.6,1.8-1.7,2.3-2.8l1,0.3c-0.1,0.2-0.2,0.3-0.3,0.5
		h6.3v0.8H246.2z M248.2,56c0.9,0.6,1.9,1.4,2.5,2l-0.6,0.6c-0.2-0.2-0.4-0.4-0.6-0.6c0,0.1,0,0.2,0,0.3c-0.1,1.6-0.1,2.3-0.3,2.6
		c-0.2,0.2-0.3,0.3-0.6,0.3c-0.2,0-0.7,0-1.1,0c0-0.3-0.1-0.6-0.2-0.8c0.4,0,0.7,0.1,0.9,0.1c0.1,0,0.2,0,0.3-0.1
		c0.1-0.1,0.2-0.5,0.2-1.6h-1.4c-0.2,1.2-0.8,2.1-2.4,2.6c-0.1-0.2-0.3-0.5-0.5-0.7c1.3-0.4,1.8-1,2-1.8h-1v-0.6
		c-0.3,0.2-0.5,0.3-0.8,0.5c-0.1-0.1-0.5-0.4-0.7-0.6c1-0.4,1.9-1.1,2.3-1.9l0.9,0.2c-0.4,0.6-0.9,1.2-1.5,1.7h3.9
		c-0.5-0.5-1.2-1-1.8-1.4L248.2,56z M251.6,55.1c0,2.7,0.2,5.2,0.9,5.2c0.2,0,0.2-0.6,0.2-1.5c0.2,0.2,0.5,0.5,0.7,0.6
		c-0.1,1.3-0.3,1.9-1,1.9c-1.4,0-1.7-2.4-1.8-5.4h-5.8v-0.8H251.6z M245.9,54.5v-0.7h6.4v0.7H245.9z"/>
	<path d="M263.7,52.1v9.2h-1v-0.4h-6.9v0.4h-0.9v-9.2H263.7z M262.7,60v-7h-6.9v7H262.7z M262.2,54.7v0.6h-5.8v-0.6h1.6
		c0.1-0.2,0.1-0.3,0.2-0.5H257v-0.5h1.3c0.1-0.2,0.1-0.4,0.2-0.6l0.8,0.1l-0.1,0.5h2.2v1H262.2z M260.2,57.5h2V58h-2v0.7h2v0.6h-2
		v0.6h-0.9v-0.6h-2.6c0.1-0.3,0.2-0.8,0.3-1.2h-0.5v-0.5h2.8v-0.4h-2.2v-1.5h4.5v1.5h-1.4V57.5z M259.3,58h-1.5
		c-0.1,0.2-0.1,0.5-0.2,0.7h1.7V58z M257.9,56.6h2.8V56h-2.8V56.6z M259,54.1c-0.1,0.2-0.1,0.4-0.2,0.5h1.7v-0.5H259z"/>
	<path d="M266.3,57.9c0.8-0.3,1.3-0.8,1.3-1.4c0,0-0.1,0-0.1,0c-0.5,0-0.9-0.3-0.9-0.8c0-0.5,0.4-0.8,0.9-0.8c0.7,0,1,0.5,1,1.3
		c0,1.2-0.7,2.1-1.9,2.5L266.3,57.9z"/>
	<path d="M276.2,60.2c0.3,0,0.7,0,1.1,0c0.5,0,2.6,0,3.2,0c-0.1,0.2-0.3,0.7-0.3,0.9h-2.9c-2,0-3.3-0.3-4.2-1.6
		c-0.4,0.8-0.9,1.4-1.6,1.8c-0.1-0.2-0.5-0.5-0.7-0.7c1.1-0.7,1.7-1.8,2-3.3l1,0.1c-0.1,0.3-0.2,0.7-0.3,1c0.4,0.9,1,1.3,1.8,1.5V57
		H271v-0.9h9.2V57h-4v1h3.3v0.9h-3.3V60.2z M279.1,55.6h-7.1V52h7.1V55.6z M278.1,52.8H273v0.7h5.1V52.8z M278.1,54.2H273v0.7h5.1
		V54.2z"/>
	<path d="M284.9,52c-0.3,0.7-0.6,1.5-1,2.2v7.1h-1v-5.5c-0.3,0.4-0.6,0.7-0.9,1c-0.1-0.2-0.4-0.8-0.5-1c1-1,1.9-2.5,2.5-4L284.9,52z
		 M291.2,60V61h-6.7V60h2.9v-2.4h-2.3v-0.9h2.3v-2.1h-2.7v-0.9h6.3v0.9h-2.7v2.1h2.4v0.9h-2.4V60H291.2z M287.7,53.6
		c-0.1-0.5-0.5-1.2-0.8-1.7l0.9-0.3c0.3,0.5,0.7,1.2,0.9,1.7L287.7,53.6z"/>
	<path d="M300.7,54.4v4.2h-1V58h-5.2c-0.2,1.2-0.6,2.4-1.5,3.3c-0.1-0.2-0.5-0.6-0.8-0.7c1.3-1.4,1.5-3.3,1.5-4.9v-3.1
		c2.1-0.2,4.5-0.6,5.9-1l0.8,0.8c-1.6,0.5-3.7,0.8-5.7,1v1H300.7z M299.7,57.1v-1.8h-5v0.5c0,0.4,0,0.9-0.1,1.3H299.7z"/>
	<path d="M172.4,73.5c0,0.3,0.1,0.7,0.2,0.9c-2.5,1.1-2.8,1.3-3.1,1.5c-0.1-0.2-0.3-0.7-0.5-0.9c0.2-0.1,0.5-0.4,0.5-0.8v-2.6
		l-1.1,0.2l-0.2-0.9l1.3-0.3v-2.6h0.9v2.4l1.9-0.4l0.2,0.9l-2,0.4v2.9L172.4,73.5z M177.8,68.5c0,0,0,0.4,0,0.5
		c-0.1,5.3-0.3,7-0.7,7.6c-0.2,0.4-0.5,0.5-0.9,0.5c-0.4,0.1-0.9,0-1.5,0c0-0.3-0.1-0.7-0.3-1c0.6,0,1.1,0.1,1.3,0.1
		c0.2,0,0.3,0,0.4-0.2c0.3-0.4,0.5-2.1,0.6-6.6h-1.9c-0.1,3.3-0.3,6.2-3,7.9c-0.1-0.3-0.5-0.6-0.7-0.8c2.5-1.4,2.6-4.1,2.7-7.1h-1.6
		v-0.9H177.8z"/>
	<path d="M185.7,74.9c-0.4,1.2-1.3,2-3.3,2.4c-0.1-0.2-0.3-0.6-0.5-0.8c1.7-0.3,2.4-0.8,2.8-1.7h-2.5v-0.8h0.8V71
		c-0.1,0.1-0.1,0.1-0.2,0.2c-0.1-0.2-0.4-0.5-0.6-0.6v0.1h-1v1.8l0.9-0.3l0.2,0.9l-1.1,0.4v2.8c0,0.5-0.1,0.8-0.4,0.9
		c-0.3,0.2-0.7,0.2-1.3,0.2c0-0.3-0.1-0.7-0.3-1c0.4,0,0.8,0,0.9,0c0.1,0,0.2,0,0.2-0.2v-2.5c-0.4,0.1-0.7,0.2-1,0.3l-0.2-0.9
		c0.4-0.1,0.8-0.2,1.3-0.4v-2.1h-1.2v-0.9h1.2v-2h0.9v2h1v0.8c1-0.8,1.7-1.9,2-2.8l0.9,0.1c-0.1,0.2-0.2,0.4-0.3,0.7h1.5l0.1,0
		l0.6,0.4c-0.2,0.4-0.5,0.9-0.8,1.4h1.8v3.9h0.7v0.8H185.7z M184.4,69.2c-0.2,0.3-0.4,0.6-0.6,0.9h1.5c0.2-0.3,0.4-0.6,0.5-0.9
		H184.4z M184.9,74.1c0.1-0.3,0.1-0.6,0.1-1h0.9c0,0.3-0.1,0.7-0.1,1h1.4v-1.4l-0.4,0.5c-0.3-0.3-0.9-0.7-1.4-1
		c-0.3,0.4-0.7,0.8-1,1.1c-0.1-0.1-0.5-0.4-0.6-0.5c0.6-0.4,1.2-1.1,1.5-1.8h-1.5v3.1H184.9z M187.3,71h-1.4l0.2,0.1
		c-0.1,0.2-0.2,0.3-0.3,0.5c0.5,0.3,1.1,0.7,1.4,1V71z M186.4,74.9c0.8,0.6,1.9,1.4,2.4,1.8l-0.6,0.6c-0.5-0.5-1.6-1.3-2.4-1.9
		L186.4,74.9z"/>
	<path d="M199.4,75.6v1H190v-1h4.1v-5.8h-3.5v-1h8.3v1h-3.7v5.8H199.4z"/>
	<path d="M204,68c-0.3,0.7-0.6,1.5-1,2.2v7.1h-1v-5.5c-0.3,0.4-0.6,0.7-0.9,1c-0.1-0.2-0.4-0.8-0.5-1c1-1,1.9-2.5,2.5-4.1L204,68z
		 M207.2,70.3v1.3h2.9v0.9h-2.9v1.4h3v0.9h-3v2.4h-1v-7h-0.6c-0.4,0.8-0.9,1.6-1.4,2.1c-0.2-0.2-0.5-0.5-0.8-0.7
		c0.9-1,1.8-2.5,2.3-4l0.9,0.3c-0.2,0.5-0.3,0.9-0.5,1.4h4.2v0.9H207.2z"/>
	<path d="M221,74.9h-9.5V74h1l-0.2-5.5c0.7-0.2,1.4-0.5,2-0.8l0.5,0.8c-0.5,0.2-1,0.3-1.5,0.5l0,1.1h1.3v0.8h-1.3l0,1.1h1.3v0.8
		h-1.2l0,1.1h5.7c0-0.3,0-0.7,0.1-1.1h-1.2v-0.8h1.3c0-0.4,0-0.7,0-1.1H218v-0.8h1.3c0-0.4,0-0.8,0-1.1h-1.4v-0.9h2.3
		c0,1.8-0.1,4.3-0.2,5.8h1V74.9z M215.3,75.5c-0.9,0.6-2.1,1.3-3.2,1.7c-0.1-0.2-0.4-0.5-0.6-0.7c1-0.4,2.3-1.1,2.9-1.6L215.3,75.5z
		 M216.1,71.6c-0.1,0.7-0.3,1.4-0.6,1.9c-0.1-0.1-0.5-0.3-0.6-0.4c0.3-0.4,0.4-1,0.5-1.6L216.1,71.6z M216.7,71.1h-1.6v-3.4h0.8v0.9
		h1.7v0.8h-1.7v1h1.3v0h0.3v2.7c0,0.4-0.1,0.5-0.3,0.6c-0.3,0.1-0.6,0.1-1.1,0.1c0-0.2-0.1-0.5-0.2-0.6c0.3,0,0.6,0,0.7,0
		c0.1,0,0.1,0,0.1-0.1V71.1z M220.1,77.2c-0.7-0.5-1.8-1.2-2.9-1.7l0.5-0.7c1.1,0.5,2.3,1.2,3,1.6L220.1,77.2z"/>
	<path d="M231.7,76V77h-9.3V76h4.2v-2.4h-3v-0.9h3v-2.1h-2.3c-0.3,0.6-0.7,1.2-1,1.6c-0.2-0.2-0.6-0.5-0.9-0.6
		c0.8-0.9,1.5-2.3,1.9-3.8l1,0.2c-0.2,0.5-0.3,1.1-0.5,1.6h1.9v-2h1v2h3.7v1h-3.7v2.1h3.3v0.9h-3.3V76H231.7z"/>
	<path d="M234.9,72.5c-0.4-0.3-1.3-0.8-1.9-1.1l0.5-0.7c0.6,0.3,1.5,0.8,1.9,1L234.9,72.5z M233.2,76.5c0.6-0.8,1.4-2.1,2-3.3
		l0.7,0.7c-0.5,1.1-1.2,2.3-1.9,3.3L233.2,76.5z M235.4,69.7c-0.4-0.3-1.3-0.8-1.9-1.2l0.5-0.7c0.6,0.3,1.5,0.8,2,1.1L235.4,69.7z
		 M239.8,71.6v1.6h2.2v4H241v-0.4h-3.5v0.4h-0.9v-4.1h2.2v-1.6h-2.9v-0.9h2.9v-1.5c-0.7,0.1-1.5,0.2-2.2,0.3c0-0.2-0.2-0.6-0.3-0.8
		c1.8-0.2,3.8-0.5,5-1l0.8,0.8c-0.7,0.3-1.5,0.5-2.4,0.6v1.6h2.8v0.9H239.8z M241,74.1h-3.5V76h3.5V74.1z"/>
	<path d="M247.5,73.3l-0.9,0.8c-0.7-0.8-1.6-1.7-2.3-2.3l0.9-0.7C246,71.6,246.9,72.6,247.5,73.3z"/>
	<path d="M251.1,72.5c-0.4-0.3-1.2-0.8-1.9-1.1l0.5-0.7c0.6,0.3,1.4,0.7,1.9,1L251.1,72.5z M252.2,73.8c-0.5,1.1-1.2,2.3-1.8,3.3
		l-0.8-0.7c0.5-0.8,1.3-2.1,1.9-3.3L252.2,73.8z M251.6,69.6c-0.4-0.3-1.2-0.8-1.8-1.1l0.5-0.7c0.6,0.3,1.4,0.7,1.8,1L251.6,69.6z
		 M257.6,76.2c0.3,0,0.4-0.2,0.4-1.6c0.2,0.2,0.6,0.3,0.8,0.4c-0.1,1.6-0.3,2.1-1.2,2.1h-1.2c-0.9,0-1.2-0.3-1.2-1.3V73
		c-0.4,1.8-1.2,3.3-2.9,4.3c-0.2-0.3-0.5-0.6-0.7-0.7c2.3-1.3,2.8-3.6,3-6.1h-1.4v1.4h-0.9v-2.3h2.4c0-0.6,0-1.3,0-1.9h1
		c0,0.6,0,1.3,0,1.9h2.9v2.3h-1v-1.4h-2c0,0.4-0.1,0.8-0.1,1.3h0.8v4.1c0,0.3,0.1,0.4,0.3,0.4H257.6z"/>
	<path d="M261.4,72.3c-0.3-0.3-0.9-0.8-1.4-1.1l0.5-0.6c0.5,0.3,1.1,0.7,1.4,1L261.4,72.3z M261.9,73.9c-0.3,1-0.7,2.3-1,3.2
		l-0.7-0.4c0.3-0.8,0.8-2.1,1.1-3.2L261.9,73.9z M261.6,69.6c-0.3-0.4-0.9-0.9-1.3-1.3l0.5-0.5c0.5,0.3,1.1,0.9,1.4,1.2L261.6,69.6z
		 M263.1,71.7c0,1.6-0.1,3.9-0.9,5.4c-0.1-0.2-0.5-0.4-0.6-0.5c0.7-1.4,0.8-3.4,0.8-4.9V68h3.7v2.5h-2.9V71.7z M264.4,75
		c-0.3,0.8-0.7,1.6-1.1,2.1c-0.1-0.1-0.4-0.4-0.6-0.5c0.4-0.5,0.8-1.1,1-1.8L264.4,75z M263.6,73.8v-1.2h-0.5v-0.8h0.5v-1.1h0.7v1.1
		h0.5v-1.1h0.7v1.1h0.5v0.8h-0.5v1.2h0.7v0.8H263v-0.8H263.6z M263.1,68.8v1h2.2v-1H263.1z M264.3,73.8h0.5v-1.2h-0.5V73.8z
		 M269.4,72.3c-0.3,1.1-0.7,2-1.2,2.8c0.4,0.6,0.9,1,1.6,1.3c-0.2,0.2-0.4,0.5-0.6,0.8c-0.6-0.3-1.1-0.8-1.5-1.3
		c-0.5,0.6-1,1-1.6,1.4c-0.1-0.2-0.4-0.6-0.5-0.8c0.1-0.1,0.2-0.1,0.3-0.1l-0.4,0.2c-0.1-0.4-0.5-0.9-0.7-1.4l0.6-0.3
		c0.3,0.4,0.6,0.9,0.8,1.3c0.4-0.3,0.8-0.6,1.1-1c-0.3-0.6-0.5-1.2-0.7-1.9l0.7-0.2h-1V72h2.5l0.1,0L269.4,72.3z M267.3,69.3
		c0,0.8-0.1,1.8-0.9,2.4c-0.1-0.2-0.4-0.5-0.6-0.6c0.6-0.5,0.7-1.2,0.7-1.8v-1.2h2.2v2.3c0,0.3,0,0.4,0.1,0.4h0.3
		c0.1,0,0.3,0,0.4-0.1c0,0.2,0,0.5,0.1,0.7c-0.1,0.1-0.3,0.1-0.4,0.1h-0.5c-0.6,0-0.8-0.4-0.8-1.1v-1.4h-0.7V69.3z M267.2,72.9
		c0.1,0.5,0.3,0.9,0.5,1.3c0.2-0.4,0.5-0.8,0.6-1.3H267.2z"/>
	<path d="M272.7,71.5c-0.2,1.3-0.5,3.1-0.9,4.2l-1-0.4c0.4-1.1,0.7-2.7,0.9-4L272.7,71.5z M274.5,70.6v5c0,0.5,0.1,0.6,0.7,0.6h1.8
		c0.6,0,0.7-0.3,0.8-2.1c0.2,0.2,0.7,0.4,0.9,0.4c-0.1,2-0.4,2.6-1.6,2.6h-1.9c-1.2,0-1.6-0.3-1.6-1.5v-5H274.5z M274.6,67.9
		c1,0.6,2.2,1.6,2.9,2.2l-0.7,0.7c-0.6-0.7-1.8-1.7-2.8-2.3L274.6,67.9z M279.1,71c0.6,1.2,1.2,2.8,1.4,3.9l-1,0.4
		c-0.2-1.1-0.7-2.7-1.3-4L279.1,71z"/>
	<path d="M281.5,72.4c0.3-0.7,0.4-1.8,0.5-2.7l0.8,0.1c-0.1,0.9-0.3,2.1-0.5,2.9L281.5,72.4z M284.5,71c-0.1-0.4-0.3-1-0.6-1.5v7.7
		H283v-9.6h0.9v1.7l0.6-0.3c0.3,0.5,0.6,1.2,0.7,1.6L284.5,71z M290.5,76.3c0,0.5-0.1,0.7-0.4,0.8c-0.3,0.1-0.8,0.2-1.5,0.2
		c0-0.2-0.2-0.6-0.3-0.8c0.5,0,1,0,1.1,0c0.1,0,0.2-0.1,0.2-0.2v-0.6h-3.4c-0.1,0.6-0.3,1.2-0.7,1.7c-0.1-0.2-0.5-0.5-0.7-0.7
		c0.6-0.7,0.6-1.8,0.6-2.6v-1.9h5.1V76.3z M291.2,71v0.7h-6.4V71h2.7v-0.6h-2.1v-0.7h2.1v-0.5H285v-0.7h2.4v-0.8h1v0.8h2.4v0.7h-2.4
		v0.5h2.1v0.7h-2.1V71H291.2z M289.6,75v-0.7h-3.3c0,0.2,0,0.4,0,0.7H289.6z M286.3,72.9v0.7h3.3v-0.7H286.3z"/>
	<path d="M301.7,69.3c0,0,0,0.3,0,0.5c-0.1,4.7-0.3,6.4-0.7,6.9c-0.3,0.3-0.5,0.4-0.9,0.5c-0.4,0-1,0-1.6,0c0-0.3-0.1-0.7-0.3-0.9
		c0.7,0.1,1.3,0.1,1.5,0.1c0.2,0,0.3,0,0.4-0.2c0.3-0.3,0.5-1.9,0.6-5.9h-2.5c-0.3,0.7-0.6,1.3-1,1.8c-0.2-0.1-0.5-0.4-0.8-0.5v4.8
		h-2.8V77h-0.9v-7.7h1.2c0.1-0.5,0.3-1.2,0.4-1.7l1.1,0.2c-0.2,0.5-0.4,1.1-0.5,1.5h1.7v2c0.7-0.9,1.2-2.3,1.6-3.7l0.9,0.2
		c-0.1,0.5-0.3,1-0.4,1.4H301.7z M293.7,70.2v2h2v-2H293.7z M295.6,75.4V73h-2v2.3H295.6z M299.1,74.5c-0.3-0.6-1-1.7-1.5-2.4
		l0.8-0.4c0.6,0.7,1.3,1.7,1.6,2.3L299.1,74.5z"/>
	<path d="M177.7,89.5v0.7h-9.1v-0.7h1v-1.4h7.2v1.4H177.7z M169.6,86.4h-0.9v-1.8h3.9c-0.1-0.3-0.2-0.5-0.3-0.7l1-0.3
		c0.2,0.3,0.4,0.7,0.5,1h3.8v1.8h-0.9v-1.1h-4c0.5,0.2,1.2,0.5,1.5,0.8l-0.5,0.6c-0.4-0.3-1-0.7-1.6-0.9l0.5-0.5h-3V86.4z
		 M169.3,87.4c0.5-0.4,0.9-1,1.2-1.5l0.7,0.4c-0.3,0.5-0.7,1.2-1.2,1.7L169.3,87.4z M169.4,90.7h7.6v0.7h-3.3v0.9
		c0,0.5-0.1,0.7-0.5,0.8c-0.4,0.1-1,0.1-1.8,0.1c-0.1-0.3-0.2-0.6-0.3-0.8c0.6,0,1.3,0,1.4,0c0.2,0,0.2,0,0.2-0.2v-0.9h-3.3V90.7z
		 M170.4,89.5h1.3v-0.8h-1.3V89.5z M172.2,86v0.8c0,0.2,0.1,0.3,0.5,0.3h1.5c0.3,0,0.4-0.1,0.4-0.6c0.2,0.1,0.5,0.2,0.7,0.2
		c-0.1,0.8-0.3,1-1,1h-1.7c-1,0-1.2-0.2-1.2-0.9V86H172.2z M172.5,88.7v0.8h1.4v-0.8H172.5z M174.6,88.7v0.8h1.4v-0.8H174.6z
		 M176.2,87.7c-0.2-0.5-0.8-1.1-1.3-1.6l0.7-0.4c0.5,0.5,1.1,1.1,1.3,1.6L176.2,87.7z"/>
	<path d="M182.9,92.4c0,0.4-0.1,0.6-0.4,0.8c-0.3,0.1-0.7,0.1-1.3,0.1c0-0.2-0.2-0.5-0.3-0.8c0.4,0,0.8,0,1,0c0.1,0,0.2,0,0.2-0.2
		v-0.8h-1.9c-0.1,0.7-0.3,1.3-0.7,1.8c-0.1-0.2-0.4-0.5-0.6-0.6c0.5-0.7,0.5-1.5,0.5-2.3v-2.2h3.5V92.4z M183.3,87.8h-4.4V87h1.8
		v-0.6h-1.4v-0.7h1.4v-0.5h-1.6v-0.7h1.6v-0.9h0.9v0.9h1.5v0.7h-1.5v0.5h1.3v0.7h-1.3V87h1.7V87.8z M182.1,90.9v-0.6h-1.8v0.2
		c0,0.1,0,0.3,0,0.4H182.1z M180.2,89v0.6h1.8V89H180.2z M188.5,89.3h-0.6v1.6h-1.8v1.4c0,0.5-0.1,0.7-0.4,0.8
		c-0.3,0.1-0.8,0.2-1.4,0.2c0-0.2-0.2-0.6-0.3-0.9c0.4,0,0.9,0,1,0c0.1,0,0.2,0,0.2-0.2v-1.4h-1.5v-0.8h1.5v-0.8h-1.9v-0.8h1.9v-0.8
		h-1.4v-0.8h0.4c-0.1-0.4-0.3-0.9-0.6-1.3l0.7-0.3c0.3,0.4,0.5,0.9,0.7,1.3l-0.7,0.3h3.6v1.5h0.6V89.3z M188.2,84.4
		c-1.2,0.4-3.1,0.7-4.7,0.8c0-0.2-0.1-0.5-0.2-0.7c1.5-0.2,3.3-0.4,4.3-0.7L188.2,84.4z M185.4,86.7c0-0.4-0.2-1-0.4-1.4l0.7-0.2
		c0.2,0.4,0.4,1,0.4,1.4L185.4,86.7z M186.1,88.4h1v-0.8h-1V88.4z M187.1,89.3h-1v0.8h1V89.3z M186.6,86.5c0.2-0.4,0.5-1.1,0.7-1.6
		l0.8,0.2c-0.3,0.6-0.5,1.1-0.8,1.6L186.6,86.5z"/>
	<path d="M190.7,87.3h-1v-2.4h4c-0.1-0.3-0.3-0.7-0.4-0.9l1-0.3c0.2,0.4,0.5,0.8,0.6,1.2h3.7V87h-1v-1.3h-1.8v1.5
		c0,0.3,0.1,0.4,0.4,0.4h1.7c0.3,0,0.7,0,0.9-0.1c0,0.3,0.1,0.6,0.1,0.9c-0.2,0.1-0.6,0.1-1,0.1h-1.7c-1,0-1.3-0.3-1.3-1.3v-1.5
		h-1.1c-0.1,1.8-0.7,2.7-3.5,3.1c-0.1-0.2-0.3-0.6-0.5-0.8c2.4-0.3,2.8-0.9,2.9-2.3h-2V87.3z M194.7,92.2h4v0.9h-9v-0.9h4v-2h-3
		v-0.9h7v0.9h-3V92.2z"/>
	<path d="M201.3,87.7v5.6h-1v-9.2h3.9v3.7H201.3z M201.3,84.8v0.7h2v-0.7H201.3z M203.3,87v-0.8h-2V87H203.3z M209,92.1
		c0,0.6-0.1,0.9-0.5,1c-0.4,0.2-0.9,0.2-1.8,0.2c0-0.3-0.2-0.7-0.3-1h-2.8v0.5h-0.9v-4.4h3.9v3.8c0.5,0,1,0,1.2,0
		c0.2,0,0.2-0.1,0.2-0.2v-4.3h-3v-3.7h4V92.1z M203.6,89.2V90h2.1v-0.8H203.6z M205.7,91.6v-0.9h-2.1v0.9H205.7z M206,84.8v0.7h2
		v-0.7H206z M208.1,87v-0.8h-2V87H208.1z"/>
	<path d="M212.6,86.9c0.9,0,1.6,0.7,1.6,1.6c0,0.9-0.7,1.6-1.6,1.6c-0.9,0-1.6-0.7-1.6-1.6C210.9,87.6,211.7,86.9,212.6,86.9z
		 M212.6,89.5c0.6,0,1-0.5,1-1s-0.5-1-1-1c-0.5,0-1,0.5-1,1S212,89.5,212.6,89.5z"/>
</g>
<g>
	<path d="M175.7,9.6c1.6,0.5,3.6,1.3,4.7,1.9l-0.7,1.3c-1.1-0.7-3.5-1.7-5.2-2.3l0.6-1h-0.5c-0.6,1.6-2,2.6-5.5,3.2
		c-0.1-0.4-0.5-1.1-0.8-1.4c2.6-0.4,3.8-0.9,4.4-1.8h-3.9V8.3h4.4c0-0.2,0.1-0.4,0.1-0.7h-4.8V6.3h5V5.6h-3.8V4.3h3.8V3.6H169V2.2
		h2.5c-0.2-0.4-0.5-0.8-0.7-1.1l1.4-0.5c0.4,0.5,0.8,1.1,1,1.5l-0.4,0.2h2.9c0.3-0.5,0.7-1.2,0.9-1.7l1.7,0.4
		c-0.3,0.5-0.6,0.9-0.9,1.3h2.5v1.4h-4.6v0.7h4v1.3h-4v0.7h5.2v1.3H175c0,0.2-0.1,0.5-0.1,0.7h5.1v1.3H175.7z"/>
	<path d="M193.5,6.1h-1V11c0,0.7-0.1,1.1-0.6,1.4c-0.4,0.2-1.1,0.3-1.9,0.3c0-0.4-0.2-1.1-0.4-1.5c0.5,0,1.1,0,1.2,0
		c0.2,0,0.2,0,0.2-0.2V6.1h-1.1v-1H188v7.6h-1.4V5.1h-1.7V4.2c-0.2,0.5-0.5,0.9-0.8,1.4v7.2h-1.4V7.6c-0.2,0.3-0.5,0.5-0.7,0.8
		c-0.1-0.3-0.6-1.1-0.8-1.4c1-0.9,2-2.2,2.5-3.6l1.2,0.4V3.7h1.7v-3h1.4v3h2v1.1h3.6L193.5,6.1z M184.9,1.2
		c-0.7,1.2-1.7,2.4-2.7,3.2c-0.2-0.3-0.5-0.9-0.8-1.1c0.8-0.6,1.7-1.7,2.1-2.5L184.9,1.2z M186.2,5.8c0,2.5-0.1,4.1-1.1,5.1
		c-0.1-0.3-0.5-0.7-0.7-0.9c0.7-0.8,0.8-2.1,0.8-4.2H186.2z M189.2,3.5c-0.2-0.4-0.6-1.2-1-1.7l0.9-0.5c0.4,0.5,0.8,1.2,1.1,1.6
		L189.2,3.5z M189.6,10.5c-1,0-1.2-0.4-1.2-1.5V5.8h1.1V9c0,0.4,0,0.5,0.1,0.5h0.3c0.1,0,0.3,0,0.4-0.1c0,0.3,0.1,0.8,0.1,1
		c-0.2,0.1-0.3,0.1-0.5,0.1H189.6z M193.3,3h-3.1V1.6h3.1V3z"/>
	<path d="M201.4,7.7v0.8h4.4v4.2h-1.4v-0.4h-3v0.4h-1.4V4.5h-0.7v-2l-0.5,0.9c-0.4-0.3-1.2-0.7-1.8-1c-0.2,0.2-0.4,0.5-0.7,0.8h2v1
		h-2.3V3.4c-0.4,0.4-0.9,0.8-1.3,1.1c-0.1-0.3-0.4-1.1-0.6-1.4c1-0.6,2-1.5,2.6-2.5l1.2,0.4c-0.1,0.1-0.1,0.2-0.2,0.4
		c0.6,0.3,1.3,0.6,1.7,0.8h2.8c-0.2-0.4-0.4-0.7-0.5-1.1l1.4-0.5c0.2,0.4,0.6,1,0.8,1.4l-0.4,0.2h2.8v2.4h-1.1v3.3H201.4z
		 M198.3,9.3c0.4,0.8,1,1.9,1.2,2.5l-1.1,0.6c-0.1-0.3-0.2-0.6-0.4-0.9c-2.3,0.9-2.7,1-3,1.3c-0.1-0.4-0.3-1-0.5-1.3
		c0.2-0.1,0.5-0.3,0.5-0.8V4.6h4v4.7h-2.7v1.6l1.2-0.4c-0.1-0.2-0.2-0.5-0.3-0.7L198.3,9.3z M196.4,5.7v0.7h1.3V5.7H196.4z
		 M197.7,8.1V7.4h-1.3v0.7H197.7z M200.7,3.3v0.8h4.3V3.3H200.7z M203.9,5.4h-2.5v1.1h2.5V5.4z M201.4,9.8V11h3V9.8H201.4z"/>
	<path d="M214.6,5.7c0.9,2.5,2.4,4.6,4.9,5.6c-0.4,0.3-0.9,1-1.1,1.5c-2.4-1.1-3.9-3-4.9-5.5c-0.7,2.2-2.1,4.2-4.9,5.5
		c-0.2-0.4-0.7-1-1.2-1.3c3-1.3,4.2-3.5,4.7-5.7h-4.5V4.1h4.7c0.1-1.2,0.1-2.4,0.1-3.5h1.7c0,1.1,0,2.3-0.2,3.5h5.1v1.6H214.6z"/>
	<path d="M225.2,9.4c-0.3,0.1-0.6,0.1-0.9,0.1v0.6h0.7v0.8h-0.7v0.5l0.7-0.1l0,0.9c-0.9,0.1-1.8,0.2-2.7,0.3l-0.1-1l1.1-0.1v-0.6
		h-0.7v-0.8h0.7V9.6c-0.3,0-0.5,0-0.8,0c0-0.2-0.1-0.5-0.2-0.8c-0.1,1.5-0.4,2.9-1,4c-0.2-0.3-0.9-0.7-1.2-0.8
		c0.8-1.8,0.9-4.5,0.9-6.4v-4h4.7c-0.1-0.2-0.2-0.4-0.4-0.5l1.3-0.5c0.3,0.3,0.5,0.7,0.7,1h4.8v1.2h-9.8v2.8c0,0.9,0,2.1-0.1,3.2
		c0.8-0.1,1.7-0.2,2.3-0.3L225.2,9.4z M226.4,11.9c0.3-0.5,0.4-1.2,0.5-1.9l1,0.3c-0.1,0.8-0.2,1.7-0.6,2.2l-0.9-0.4v0.8h-1.1V8.2
		l-2.6,0.2l-0.1-1.1l0.6,0v-3h-0.5v-1h4.1v1h-0.5V11.9z M224.3,4.2v0.5h1V4.2H224.3z M224.3,5.9h1V5.4h-1V5.9z M225.3,7.2V6.7h-1
		v0.5L225.3,7.2z M229.9,11.8c0.2,0,0.2-0.1,0.3-0.8c0.2,0.2,0.7,0.3,0.9,0.4c-0.1,1.1-0.4,1.4-1.1,1.4h-0.9c-0.9,0-1.1-0.3-1.1-1.2
		V9.9h1c-0.2-0.2-0.3-0.4-0.5-0.5l0.4-0.2h-2.2v-1h5.6v1h-2.8c0.4,0.4,0.8,0.8,0.9,1.2l-0.9,0.5c-0.1-0.3-0.3-0.6-0.6-0.9v1.5
		c0,0.3,0,0.3,0.2,0.3H229.9z M230.2,4.6v0.5h1.9v2.6h-5V5.1h1.8V4.6H227v-1h1.8V3h1.3v0.6h2v1H230.2z M228.5,5.9H228v0.9h0.5V5.9z
		 M229.8,5.9h-0.5v0.9h0.5V5.9z M231.5,9.7c0.4,0.7,0.8,1.6,0.9,2.2l-1,0.4c-0.1-0.6-0.5-1.5-0.9-2.2L231.5,9.7z M230.6,6.8h0.5V5.9
		h-0.5V6.8z"/>
</g>
</svg>
