<?xml version="1.0" encoding="utf-8"?>
<!-- Generator: Adobe Illustrator 25.2.3, SVG Export Plug-In . SVG Version: 6.00 Build 0)  -->
<svg version="1.1" id="圖層_1" xmlns="http://www.w3.org/2000/svg" xmlns:xlink="http://www.w3.org/1999/xlink" x="0px" y="0px"
	 viewBox="0 0 160 83" style="enable-background:new 0 0 160 83;" xml:space="preserve">
<style type="text/css">
	.st0{fill:#1F1E1D;}
</style>
<path d="M5.8,9.8h4.5V11H0V9.8h4.4V8.9H1V7.7h3.4v-1C2.1,6.8,0.9,6.8,0.9,6.8L0.8,5.5h1.7C2.8,4.9,3,4.6,3,4.4H1.3V3.6H0V1.1h4.3
	V0.4h1.4v0.7h4.5v2.4H9v0.8H7.5c1.1,0.8,1.8,1.5,2.3,2L8.7,7.2C8.5,7,8.4,6.8,8.1,6.6H5.8v1h3.6v1.2H5.8V9.8L5.8,9.8z M8.9,2.5H1.4
	v0.8h7.5V2.5z M7,4.5H4.6C4.5,4.6,4.4,4.8,4.2,5.1C4.1,5.3,4,5.4,3.9,5.5l3-0.1C6.8,5.3,6.5,5.1,6.3,5L7,4.5z"/>
<path d="M21.4,3v6.7c0,0.6-0.1,1-0.4,1.2c-0.1,0-0.1,0.1-0.3,0.1c-0.3,0.1-1,0.2-2,0.2c-0.1,0-0.1,0-0.2,0c0-0.4-0.2-0.9-0.4-1.4
	c0.4,0,1,0,1.6,0c0.2,0,0.3-0.1,0.3-0.3V7.6c-0.4,0.4-0.6,0.7-0.8,1c-1.2-0.7-2-1.7-2.5-3.1C16.1,7,15.2,8.1,14,8.7
	c-0.2-0.3-0.4-0.5-0.7-0.8v3.5h-1.4V3H16c0-0.2,0-0.5-0.1-0.9h-2V0.9h3.2c0,0.7,0.1,1.3,0.2,2.1H21.4z M13.3,4.4v3
	c1.1-0.6,1.9-1.6,2.3-3H13.3z M19.9,4.4h-2.2c0.4,1.4,1.2,2.3,2.2,2.9V4.4z"/>
<path d="M28.6,2.7h-1.1c-0.1,1.1-0.4,1.9-0.9,2.4c-0.6,0.7-1.6,1.1-3,1.4c-0.1-0.3-0.3-0.7-0.7-1.1l-0.1-0.1
	c1.4-0.2,2.2-0.6,2.6-1.2c0.3-0.3,0.4-0.8,0.5-1.5h-1.6v1.3h-1.4V1.5h4.2V0.4h1.4v1.1h4.3v2.4h-1.4V2.7H30v1.9c0,0.2,0,0.3,0.1,0.3
	s0.1,0,0.3,0h1c0.2,0,0.3-0.1,0.3-0.2s0.1-0.3,0.1-0.7c0.3,0.2,0.7,0.4,1.2,0.5c-0.1,0.7-0.3,1.2-0.6,1.4c-0.2,0.1-0.5,0.2-0.8,0.2
	h-1.4c-0.7,0-1.2-0.1-1.4-0.4c-0.1-0.2-0.2-0.6-0.2-1.1L28.6,2.7L28.6,2.7z M28.7,9.8h4.5V11H23V9.8h4.3V8h-3.1V6.8h8V8h-3.4
	L28.7,9.8L28.7,9.8z"/>
<path d="M39.1,5.1H36v6.2h-1.4V0.8H39L39.1,5.1L39.1,5.1z M37.8,1.9H36v0.6h1.8V1.9z M36,4.1h1.8V3.4H36V4.1z M44.5,0.9v8.8
	c0,0.7-0.1,1.1-0.4,1.3c-0.1,0-0.1,0.1-0.2,0.1c-0.4,0.2-1.1,0.3-2.1,0.3c0-0.3-0.1-0.6-0.3-1.1h-2.9v0.6h-1.3v-5h4.5V10
	c0.5,0,0.9,0,1,0c0.2,0,0.3-0.1,0.3-0.3V5.1h-3.2V0.9H44.5z M40.5,6.8h-1.9v0.7h1.9V6.8z M38.5,9.2h1.9V8.5h-1.9V9.2z M43.1,1.9
	h-1.9v0.6h1.9V1.9z M41.2,4.1h1.9V3.4h-1.9V4.1z"/>
<path d="M56.4,3.4h-4.7c-0.3,0.7-0.6,1.2-0.8,1.6h1.2V3.8h1.4V5H56v3.5c0,0.5-0.1,0.9-0.3,1.1l-0.1,0.1c-0.3,0.1-0.8,0.2-1.5,0.2
	c0-0.4-0.1-0.8-0.3-1.2c0.2,0,0.5,0,0.8,0c0.1,0,0.1-0.1,0.1-0.1V6.3h-1.2v5h-1.4v-5H51v3.6h-1.3V6.6c-0.3,0.3-0.5,0.6-0.9,0.9
	c-0.1-0.3-0.4-0.7-0.8-1.1v4.9h-1.3v-6c-0.3,0.4-0.5,0.7-0.8,0.9c-0.1-0.4-0.4-0.9-0.7-1.3c0,0,0-0.1-0.1-0.1
	c0.9-0.9,1.7-2.1,2.3-3.5c0.1-0.3,0.3-0.6,0.3-0.8L49.1,1c-0.3,0.8-0.7,1.6-1.1,2.4v3c0.9-0.7,1.6-1.6,2.2-2.8h-1.6V2.2h2.1
	C50.9,1.6,51,1,51.1,0.5l1.4,0.3c-0.1,0.7-0.3,1.2-0.4,1.5h4.2v1.2L56.4,3.4L56.4,3.4z"/>
<path d="M59.6,5.1h7.8c0,0,0,0.2,0,0.5c-0.1,2.6-0.2,4.1-0.4,4.7c-0.1,0.2-0.1,0.3-0.2,0.4c-0.2,0.3-0.5,0.4-0.8,0.5c0,0,0,0-0.1,0
	c-0.3,0-0.8,0.1-1.5,0c0-0.4-0.1-0.8-0.3-1.1h-2.8v0.7H60V6.9h4.6V10H65c0.1,0,0.3,0,0.4-0.1c0.2-0.2,0.3-1.4,0.4-3.6l0,0h-6.5
	c-0.2,2-0.7,3.6-1.5,4.8c-0.2-0.3-0.5-0.5-0.9-0.8c-0.1,0-0.1-0.1-0.2-0.1C57.6,9,58.1,7,58.1,4.5c0-0.2,0-0.4,0-0.6v-3h8.3v3.3
	h-6.9c0,0,0,0.1,0,0.3C59.6,4.8,59.6,4.9,59.6,5.1z M65.2,2.2h-5.6v1h5.6V2.2z M63.4,9.1v-1h-2v1H63.4z"/>
<path class="st0" d="M7,20.7H3.9v0.9h2.8V26c0,0.3-0.1,0.4-0.2,0.5H6.4c-0.2,0.1-0.6,0.1-1.2,0.1c0-0.2-0.1-0.3-0.2-0.5
	c0.4,0,0.8,0,0.9,0S6,26,6,26v-3.8H3.9v4.4H3.4v-4.4H1.2v4.5H0.7v-5h2.7v-0.9h-3v-0.5H7V20.7z M1.8,22.8h0.9c0,0.8,0.1,1.5,0.3,2
	c0.1,0.2,0.2,0.4,0.4,0.5c-0.1,0.1-0.2,0.1-0.3,0.3c-0.3-0.4-0.5-0.8-0.6-1.4c-0.2,0.6-0.4,1.1-0.8,1.4c-0.1-0.1-0.2-0.2-0.3-0.3
	c0.5-0.4,0.8-1.2,0.9-2.1H1.7L1.8,22.8L1.8,22.8z M4.4,22.8h0.9c0,0.8,0.1,1.5,0.3,1.9c0.1,0.2,0.3,0.4,0.4,0.6
	c-0.1,0.1-0.3,0.1-0.3,0.3c-0.3-0.4-0.5-0.8-0.7-1.4c-0.2,0.6-0.4,1-0.8,1.4c-0.1-0.1-0.2-0.2-0.3-0.3c0.4-0.4,0.7-1.1,0.9-2.1H4.4
	V22.8z"/>
<path class="st0" d="M14.5,24h-3.4c0,0.2-0.1,0.4-0.1,0.6h2.7c0,0,0,0.1,0,0.2c-0.1,0.9-0.2,1.5-0.4,1.7l0,0
	c-0.1,0.1-0.3,0.2-0.5,0.2s-0.5,0-0.9,0c0-0.2-0.1-0.4-0.1-0.5c0.3,0,0.5,0,0.9,0c0.1,0,0.2,0,0.3,0c0.1-0.1,0.2-0.5,0.3-1.1h-2.2
	c-0.3,0.7-0.7,1.1-1.4,1.5c-0.2,0.1-0.4,0.1-0.6,0.2c-0.1-0.2-0.2-0.3-0.3-0.4c0.8-0.2,1.4-0.6,1.7-1.2c0.1-0.3,0.3-0.7,0.3-1.1H8.9
	c-0.1,1.1-0.4,2-0.9,2.6c-0.1-0.1-0.2-0.3-0.4-0.4H7.5c0.5-0.7,0.8-1.7,0.9-3.1c0-0.1,0-0.3,0-0.4v-2.7l0.5,0.1
	c1.9-0.1,3.4-0.2,4.4-0.4l0.4,0.4c-1.1,0.2-2.7,0.4-4.7,0.4V21h5v1.7H9c0,0.2,0,0.5,0,0.7h2.1v-0.7h0.5v0.7h2.8L14.5,24L14.5,24z
	 M13.4,21.6H9v0.8h4.4V21.6z"/>
<path class="st0" d="M17.9,24.5c-0.3,0.1-0.5,0.3-0.8,0.4s-0.5,0.3-0.8,0.4s-0.5,0.2-0.8,0.3s-0.5,0.2-0.7,0.3l-0.2-0.6
	c0.1-0.1,0.3-0.1,0.5-0.2s0.4-0.1,0.5-0.2l-0.1-4.7h0.6l0.1,4.5c0.3-0.1,0.5-0.2,0.8-0.3c0.3-0.1,0.5-0.2,0.8-0.3L17.9,24.5z
	 M21.3,26.6c-0.1-0.1-0.2-0.3-0.3-0.4c-0.1-0.1-0.3-0.3-0.4-0.5s-0.3-0.4-0.5-0.5c-0.2-0.2-0.3-0.4-0.5-0.5
	c-0.3,0.4-0.7,0.8-1.1,1.2c-0.4,0.3-0.9,0.6-1.5,0.9c0,0,0-0.1-0.1-0.1l-0.1-0.1l-0.1-0.1c-0.1,0-0.1-0.1-0.1-0.1
	c0.7-0.3,1.2-0.5,1.6-0.9s0.8-0.8,1.1-1.3c0.3-0.5,0.5-1.1,0.7-1.7c0.1-0.7,0.3-1.4,0.4-2.2l0.6,0.1c-0.1,0.8-0.2,1.6-0.4,2.2
	c-0.1,0.7-0.4,1.2-0.7,1.7c0.2,0.2,0.4,0.4,0.5,0.5c0.2,0.2,0.4,0.4,0.5,0.5c0.2,0.2,0.3,0.4,0.5,0.5c0.1,0.2,0.3,0.3,0.4,0.5
	L21.3,26.6z M18.4,22.7c0-0.1-0.1-0.3-0.2-0.4S18,22,17.9,21.8c-0.1-0.2-0.2-0.3-0.3-0.5c-0.1-0.1-0.3-0.3-0.4-0.4l0.5-0.3
	c0.1,0.1,0.3,0.3,0.4,0.4s0.2,0.3,0.3,0.5c0.1,0.1,0.2,0.3,0.3,0.5c0.1,0.1,0.1,0.3,0.2,0.4L18.4,22.7z"/>
<path class="st0" d="M26.9,24.5v-5h2.4V20h-1.9v4.4L26.9,24.5L26.9,24.5z"/>
<path class="st0" d="M30.4,23.4v-1.9c-0.1,0.2-0.3,0.3-0.4,0.5c-0.1-0.1-0.2-0.3-0.3-0.4c0.5-0.5,0.8-1.1,1.1-1.8l0,0l0.5,0.1
	c-0.1,0.2-0.2,0.4-0.3,0.7h0.7c0.1-0.3,0.3-0.6,0.3-0.7l0.5,0.1c-0.1,0.1-0.2,0.4-0.3,0.6h1.1V21h-1.1v0.4H33v0.2
	c0.5-0.5,0.8-1.1,1.1-1.9l0.5,0.1c0,0.1-0.1,0.4-0.3,0.7h0.6c0.2-0.3,0.3-0.6,0.3-0.7l0.5,0.1c0,0.1-0.1,0.3-0.4,0.6h1.2v0.4h-1.1
	v0.4h1v0.4h-1v0.4h1v0.4h-1V23h1.2v0.4h-2.9v-1.9c-0.1,0.2-0.3,0.4-0.4,0.5c-0.1-0.1-0.2-0.2-0.3-0.3l0,0h-0.9v0.4H33v0.4h-0.9v0.4
	h1.2v0.4h-2.9C30.4,23.3,30.4,23.4,30.4,23.4z M35.5,23.9l0.4,0.3c-0.4,0.6-1,1.1-1.8,1.5c0.8,0.3,1.7,0.4,2.7,0.5
	c-0.1,0.1-0.2,0.3-0.4,0.5c-1.2-0.1-2.2-0.4-3.1-0.7c-0.9,0.4-2,0.6-3.3,0.7c-0.1-0.2-0.1-0.4-0.3-0.5c1.1-0.1,2-0.3,2.8-0.5
	c-0.5-0.3-1.1-0.7-1.4-1.1l0.3-0.1h-1.3V24h5.1L35.5,23.9z M31.6,21.3v-0.4h-0.7v0.4H31.6z M31.6,22.2v-0.4h-0.7v0.4H31.6z M31.6,23
	v-0.4h-0.7V23H31.6z M34.9,24.4h-3.1c0.4,0.4,0.9,0.7,1.6,1C34,25.1,34.6,24.8,34.9,24.4z M34.9,21.3v-0.4h-0.7v0.4H34.9z
	 M34.9,22.2v-0.4h-0.7v0.4H34.9z M34.9,23v-0.4h-0.7V23H34.9z"/>
<path class="st0" d="M39.3,20l0.4,0.2c-0.4,1.1-0.7,1.7-0.8,2c0.5,0.5,0.7,1.1,0.7,1.6c0,0.4-0.1,0.7-0.3,0.9
	c-0.1,0.1-0.3,0.1-0.4,0.1c-0.2,0-0.3,0-0.5,0c0-0.2-0.1-0.4-0.1-0.5c0.2,0,0.4,0,0.4,0c0.1,0,0.2,0,0.3-0.1s0.1-0.3,0.1-0.5
	c0-0.5-0.2-1-0.7-1.5c0.2-0.4,0.4-1,0.6-1.7h-1v6.1h-0.5V20H39.3L39.3,20z M44.2,23.4h-3c-0.1,0.1-0.1,0.3-0.3,0.5H44
	c0,0,0,0.1,0,0.2c-0.1,1.2-0.2,2-0.3,2.2c0,0,0,0.1-0.1,0.1c-0.1,0.1-0.2,0.2-0.4,0.2s-0.4,0-0.7,0c0-0.2-0.1-0.4-0.1-0.5
	c0.2,0,0.4,0,0.6,0c0.1,0,0.2,0,0.2-0.1c0.1-0.1,0.2-0.7,0.3-1.7H43c-0.3,0.9-0.8,1.7-1.5,2.3l0,0c-0.1-0.1-0.3-0.3-0.4-0.3
	c0.6-0.5,1-1.1,1.3-1.9h-0.6c-0.4,0.8-0.9,1.5-1.7,2L40,26.5c-0.1-0.1-0.2-0.3-0.3-0.4c0.7-0.4,1.2-0.9,1.6-1.6l0.1-0.1h-0.7
	c-0.3,0.4-0.6,0.7-0.9,0.9c-0.1-0.1-0.2-0.2-0.4-0.4c0.6-0.4,1.1-0.9,1.4-1.5h-1v-0.5h4.6L44.2,23.4L44.2,23.4z M43.6,20v2.5h-3.3
	V20H43.6z M43,21v-0.6h-2.2V21H43z M43,22v-0.6h-2.2V22H43z"/>
<path class="st0" d="M49,20.9l0.4-0.3c0.7,0.6,1.3,1.2,1.8,1.7c0.1,0.1,0.2,0.3,0.3,0.4L51,23.1c-0.1-0.2-0.3-0.5-0.5-0.7
	c-0.7,0-2.6,0.1-5.7,0.3v-0.6c0.2,0,0.5,0,1.1,0c0.5-0.8,0.9-1.6,1.3-2.3l0.6,0.2c-0.4,0.7-0.8,1.4-1.2,2.1c0.8,0,1.9-0.1,3.4-0.1
	C49.7,21.5,49.3,21.2,49,20.9z M45.6,26.7v-3.2h4.9v3.2h-0.6v-0.3h-3.7v0.3H45.6L45.6,26.7z M49.9,24h-3.7v1.8h3.7V24z"/>
<path class="st0" d="M55.6,23.7c-0.3,0-0.4-0.1-0.5-0.3c0-0.1-0.1-0.2-0.1-0.3c0-0.3,0.1-0.4,0.3-0.5c0.1,0,0.2-0.1,0.3-0.1
	c0.3,0,0.4,0.1,0.5,0.3c0,0.1,0.1,0.2,0.1,0.3c0,0.3-0.1,0.4-0.3,0.5C55.8,23.7,55.7,23.7,55.6,23.7z"/>
<path class="st0" d="M60.3,23.4v-1.9c-0.1,0.2-0.3,0.3-0.4,0.5c-0.1-0.1-0.2-0.3-0.3-0.4c0.5-0.5,0.8-1.1,1.1-1.8l0,0l0.5,0.1
	c-0.1,0.2-0.2,0.4-0.3,0.7h0.7c0.1-0.3,0.3-0.6,0.3-0.7l0.5,0.1c-0.1,0.1-0.2,0.4-0.3,0.6H63V21h-1.1v0.4h0.9v0.2
	c0.5-0.5,0.8-1.1,1.1-1.9l0.5,0.1c0,0.1-0.1,0.4-0.3,0.7h0.6c0.2-0.3,0.3-0.6,0.3-0.7l0.5,0.1c0,0.1-0.1,0.3-0.4,0.6h1.2v0.4h-1.1
	v0.4h1v0.4h-1v0.4h1v0.4h-1V23h1.2v0.4h-3v-1.9c-0.1,0.2-0.3,0.4-0.4,0.5c-0.1-0.1-0.2-0.2-0.3-0.3l0,0h-0.9v0.4h0.9v0.4h-0.9v0.4
	H63v0.4h-2.8v0.1H60.3z M65.3,23.9l0.4,0.3c-0.4,0.6-1,1.1-1.8,1.5c0.8,0.3,1.7,0.4,2.7,0.5c-0.1,0.1-0.2,0.3-0.4,0.5
	C65,26.5,64,26.3,63.1,26c-0.9,0.4-2,0.6-3.3,0.7c-0.1-0.2-0.1-0.4-0.3-0.5c1.1-0.1,2-0.3,2.8-0.5c-0.5-0.3-1.1-0.7-1.4-1.1l0.3-0.1
	H60V24h5.1L65.3,23.9z M61.5,21.3v-0.4h-0.7v0.4H61.5z M61.5,22.2v-0.4h-0.7v0.4H61.5z M61.5,23v-0.4h-0.7V23H61.5z M64.8,24.4h-3.1
	c0.4,0.4,0.9,0.7,1.6,1C63.9,25.1,64.4,24.8,64.8,24.4z M64.8,21.3v-0.4H64v0.4H64.8z M64.8,22.2v-0.4H64v0.4H64.8z M64.8,23v-0.4
	H64V23H64.8z"/>
<path class="st0" d="M68.7,23.7V26c0,0.1,0,0.3-0.1,0.4c0,0.1-0.1,0.1-0.2,0.2c-0.1,0-0.2,0.1-0.3,0.1c-0.1,0-0.3,0-0.5,0h-0.2
	c0-0.1,0-0.1-0.1-0.3c0-0.1-0.1-0.2-0.1-0.3c0.1,0,0.2,0,0.3,0c0.1,0,0.1,0,0.2,0s0.1,0,0.2,0s0.1,0,0.1,0h0.1V26v-2.1l-0.9,0.3
	l-0.1-0.5c0.1,0,0.3-0.1,0.5-0.1c0.2-0.1,0.4-0.1,0.6-0.2v-1.6h-0.9v-0.5h0.9v-1.5h0.5v1.5h0.8v0.5h-0.8v1.4
	c0.3-0.1,0.5-0.1,0.8-0.3l0.1,0.5L68.7,23.7z M72.5,23.9c0.1,0.2,0.2,0.4,0.4,0.5c0.1,0.2,0.3,0.4,0.4,0.5s0.3,0.3,0.5,0.4
	s0.3,0.3,0.5,0.3c-0.1,0-0.1,0.1-0.2,0.2S74,25.9,73.9,26c-0.2-0.1-0.3-0.2-0.5-0.4c-0.2-0.1-0.3-0.3-0.5-0.5
	c-0.1-0.2-0.3-0.3-0.4-0.5s-0.3-0.4-0.4-0.6v2.4h-0.5V24c-0.3,0.4-0.5,0.8-0.9,1.1c-0.4,0.3-0.7,0.6-1.1,0.8c0-0.1-0.1-0.1-0.2-0.3
	c-0.1-0.1-0.1-0.1-0.2-0.2c0.2-0.1,0.4-0.2,0.6-0.3c0.2-0.1,0.4-0.3,0.5-0.4c0.2-0.1,0.3-0.3,0.5-0.5c0.1-0.2,0.3-0.4,0.4-0.5h-1.6
	v-0.5h2v-0.8h0.5v0.8h2v0.5L72.5,23.9L72.5,23.9z M73.9,20.2c-0.3,0.1-0.5,0.1-0.9,0.2c-0.3,0.1-0.7,0.1-1.1,0.1s-0.7,0.1-1.1,0.1
	s-0.7,0.1-1.1,0.1c0-0.1,0-0.1-0.1-0.2c0-0.1-0.1-0.2-0.1-0.2c0.3,0,0.7,0,1.1-0.1c0.4,0,0.7-0.1,1.1-0.1s0.7-0.1,1-0.1
	c0.3-0.1,0.6-0.1,0.8-0.2L73.9,20.2z M70.2,22.7c0-0.1,0-0.2-0.1-0.3c0-0.1-0.1-0.3-0.1-0.4s-0.1-0.3-0.1-0.4
	c-0.1-0.1-0.1-0.3-0.2-0.4l0.5-0.1c0.1,0.1,0.1,0.2,0.2,0.4c0.1,0.1,0.1,0.3,0.2,0.4c0,0.1,0.1,0.3,0.1,0.4s0.1,0.2,0.1,0.3
	L70.2,22.7z M71.6,22.4c0-0.1,0-0.2,0-0.3c0-0.1,0-0.3-0.1-0.4c0-0.1-0.1-0.3-0.1-0.4s-0.1-0.3-0.1-0.4l0.5-0.1
	c0.1,0.2,0.2,0.5,0.3,0.7c0.1,0.3,0.1,0.5,0.1,0.7L71.6,22.4z M72.6,22.7c0.1-0.1,0.2-0.3,0.3-0.4c0.1-0.2,0.2-0.3,0.3-0.5
	c0.1-0.2,0.2-0.3,0.3-0.5c0.1-0.2,0.1-0.3,0.2-0.5l0.5,0.2c-0.1,0.1-0.1,0.3-0.3,0.5c-0.1,0.2-0.2,0.3-0.3,0.5
	c-0.1,0.2-0.2,0.3-0.3,0.5c-0.1,0.1-0.2,0.3-0.3,0.4L72.6,22.7z"/>
<path class="st0" d="M79.8,26.1h1c0.1,0,0.3-0.1,0.3-0.2s0.1-0.5,0.1-1.1c0.1,0.1,0.3,0.2,0.5,0.3c0,0.7-0.1,1.2-0.3,1.3
	c-0.1,0.1-0.3,0.2-0.6,0.2h-1.1c-0.4,0-0.7-0.1-0.8-0.3c-0.1-0.1-0.1-0.3-0.1-0.6V23h-1.4c-0.1,1-0.3,1.7-0.6,2.2
	c-0.4,0.6-1,1.1-1.9,1.3c-0.1-0.2-0.2-0.3-0.3-0.5l0,0c0.9-0.3,1.5-0.7,1.8-1.3c0.2-0.4,0.3-1,0.4-1.7h-2v-0.5h3.1v-2.9h0.6v2.9h3.1
	V23h-2.2v2.7c0,0.1,0,0.3,0.1,0.3C79.6,26.1,79.7,26.1,79.8,26.1z M76.9,21.9l-0.5,0.2c-0.1-0.5-0.4-1.1-0.8-1.7
	c0-0.1-0.1-0.1-0.1-0.1l0.5-0.2c0.4,0.7,0.7,1.2,0.9,1.7C76.8,21.9,76.9,21.9,76.9,21.9z M80.5,20l0.6,0.2c-0.4,0.9-0.8,1.5-1.1,1.9
	L79.5,22c0.4-0.6,0.7-1.2,0.9-1.9C80.4,20,80.4,20,80.5,20z"/>
<path class="st0" d="M85.7,23.7c-0.3,0-0.4-0.1-0.5-0.3c0-0.1-0.1-0.2-0.1-0.3c0-0.3,0.1-0.4,0.3-0.5c0.1,0,0.2-0.1,0.3-0.1
	c0.3,0,0.4,0.1,0.5,0.3c0,0.1,0.1,0.2,0.1,0.3c0,0.3-0.1,0.4-0.3,0.5C85.9,23.7,85.8,23.7,85.7,23.7z"/>
<path class="st0" d="M90.4,23.4v-1.9c-0.1,0.2-0.3,0.3-0.4,0.5c-0.1-0.1-0.2-0.3-0.3-0.4c0.5-0.5,0.8-1.1,1.1-1.8l0,0l0.5,0.1
	c-0.1,0.2-0.2,0.4-0.3,0.7h0.7c0.1-0.3,0.3-0.6,0.3-0.7l0.5,0.1c-0.1,0.1-0.2,0.4-0.3,0.6h1.1V21h-1.1v0.4H93v0.2
	c0.5-0.5,0.8-1.1,1.1-1.9l0.5,0.1c0,0.1-0.1,0.4-0.3,0.7h0.6c0.2-0.3,0.3-0.6,0.3-0.7l0.5,0.1c0,0.1-0.1,0.3-0.4,0.6h1.2v0.4h-1.1
	v0.4h1v0.4h-1v0.4h1v0.4h-1V23h1.2v0.4h-3v-1.9c-0.1,0.2-0.3,0.4-0.4,0.5c-0.1-0.1-0.2-0.2-0.3-0.3l0,0H92v0.4h1v0.4h-0.9v0.4h1.2
	v0.4h-2.8L90.4,23.4L90.4,23.4z M95.4,23.9l0.4,0.3c-0.4,0.6-1,1.1-1.8,1.5c0.8,0.3,1.7,0.4,2.7,0.5c-0.1,0.1-0.2,0.3-0.4,0.5
	c-1.2-0.1-2.2-0.4-3.1-0.7c-0.9,0.4-2,0.6-3.3,0.7c-0.1-0.2-0.1-0.4-0.3-0.5c1.1-0.1,2-0.3,2.8-0.5c-0.5-0.3-1.1-0.7-1.4-1.1
	l0.3-0.1H90V24h5.1L95.4,23.9z M91.6,21.3v-0.4h-0.7v0.4H91.6z M91.6,22.2v-0.4h-0.7v0.4H91.6z M91.6,23v-0.4h-0.7V23H91.6z
	 M94.9,24.4h-3.1c0.4,0.4,0.9,0.7,1.6,1C94,25.1,94.5,24.8,94.9,24.4z M94.9,21.3v-0.4h-0.7v0.4H94.9z M94.9,22.2v-0.4h-0.7v0.4
	H94.9z M94.9,23v-0.4h-0.7V23H94.9z"/>
<path class="st0" d="M99.2,21.8v-0.4c-0.1,0.3-0.3,0.6-0.5,0.9v4.3h-0.5V23c-0.2,0.3-0.4,0.5-0.7,0.8c-0.1-0.2-0.2-0.4-0.3-0.5
	c0.6-0.5,1.1-1.2,1.5-2c0-0.1,0.1-0.1,0.1-0.2l0.5,0.2h0.8c0.1-0.3,0.1-0.5,0.1-0.7h-0.7v-0.4h0.8c0-0.2,0.1-0.4,0.1-0.6h0.5
	c0,0.1,0,0.3-0.1,0.5h1.3v1.1h0.5v0.5L99.2,21.8L99.2,21.8z M98.6,19.7l0.5,0.2c-0.4,0.6-0.8,1.1-1.4,1.6l-0.1,0.1
	c-0.1-0.1-0.2-0.3-0.3-0.4c0.4-0.4,0.8-0.8,1.1-1.3C98.5,19.9,98.5,19.8,98.6,19.7z M102.5,25.8h-1.1v0.9h-0.5v-0.9H99v-0.5h0.4
	v-1.1h1.4v-0.5h-1.3v-1.5h2.6v1.5h-0.8v0.5h0.9v0.5h-0.9v0.7h1.1v0.4H102.5z M99.9,22.6v0.7h1.8v-0.7H99.9z M100,25.3h0.9v-0.7H100
	V25.3z M101.6,20.7h-0.9c0,0.1-0.1,0.3-0.1,0.7h1V20.7z M104.4,22.2v0.5h-0.7V26c0,0.3-0.1,0.4-0.2,0.5c0,0,0,0-0.1,0
	c-0.1,0.1-0.5,0.1-1.1,0.1c0-0.2-0.1-0.4-0.2-0.5c0.3,0,0.5,0,0.8,0c0.1,0,0.1-0.1,0.1-0.1v-3.3h-0.8v-0.5H104.4z M104.3,20.1v0.5
	h-1.8v-0.5H104.3z"/>
<path class="st0" d="M106.7,22.5l-0.3,0.5c-0.3-0.3-0.7-0.5-1.3-0.8H105l0.3-0.4C105.9,22,106.4,22.3,106.7,22.5z M105.7,26.5
	l-0.5-0.4c0.4-0.6,0.8-1.3,1.2-2.3l0.4,0.3C106.5,25,106.1,25.7,105.7,26.5z M107,20.6l-0.3,0.4c-0.3-0.3-0.7-0.5-1.2-0.8
	c0,0-0.1,0-0.1-0.1l0.3-0.4C106.2,20,106.7,20.3,107,20.6C107,20.5,107,20.6,107,20.6z M109.1,21.2h0.5c0.4,0.7,1,1.3,1.7,1.9
	c0.3,0.2,0.5,0.4,0.7,0.5c-0.1,0.1-0.3,0.3-0.3,0.5c-0.7-0.4-1.3-1-1.9-1.6c-0.2-0.2-0.3-0.4-0.5-0.7c-0.4,0.7-0.9,1.3-1.6,1.8
	c-0.3,0.2-0.5,0.4-0.7,0.5c-0.1-0.1-0.2-0.3-0.3-0.5c0.7-0.4,1.3-0.9,1.8-1.6C108.8,21.8,109,21.5,109.1,21.2z M108.3,19.7l0.5,0.2
	c-0.4,0.7-0.8,1.3-1.4,1.8c-0.1,0-0.1,0.1-0.1,0.1c-0.1-0.1-0.3-0.3-0.5-0.4c0.5-0.4,1-0.9,1.4-1.6
	C108.3,19.9,108.3,19.8,108.3,19.7z M107.7,26.7v-2.9h3.6v2.8h-0.6v-0.3h-2.5v0.3h-0.5V26.7z M110.7,24.3h-2.5v1.5h2.5V24.3z
	 M111.9,21.4l-0.5,0.3c-0.3-0.4-0.7-0.9-1.3-1.5c-0.1-0.1-0.1-0.1-0.2-0.2l0.4-0.3c0.6,0.5,1.1,1.1,1.4,1.5
	C111.8,21.3,111.8,21.3,111.9,21.4z"/>
<path class="st0" d="M114.8,21.8v5h-2.4v-0.5h1.9v-4.4h0.5V21.8z"/>
<path class="st0" d="M121.5,19.7l0.6,0.1c-0.1,0.5-0.3,0.8-0.4,1.1h1.3v5h-2.1v0.6h-0.5v-5.6h0.9C121.4,20.4,121.5,20,121.5,19.7z
	 M122.5,23v-1.6h-1.6V23H122.5z M120.9,25.3h1.6v-1.8h-1.6V25.3z M126.8,20.9v0.3c-0.1,2.4-0.2,3.9-0.3,4.4
	c-0.1,0.3-0.1,0.5-0.2,0.6c-0.1,0.2-0.3,0.3-0.6,0.3l0,0c-0.2,0-0.6,0-1.1,0c0-0.2-0.1-0.4-0.2-0.5c0.3,0,0.7,0,1.1,0
	c0.1,0,0.3,0,0.3-0.1c0.2-0.2,0.3-0.9,0.4-2.2c0-0.6,0.1-1.3,0.1-2.3h-1.9c-0.3,0.6-0.5,1-0.7,1.3c-0.1-0.1-0.2-0.2-0.5-0.3
	c0.5-0.7,0.9-1.6,1.2-2.8l0.5,0.1c-0.1,0.4-0.2,0.7-0.3,1.1h2.2V20.9z M125.6,24.3l-0.5,0.3c-0.2-0.4-0.6-1.1-1.2-1.7l0.4-0.3
	C124.9,23.3,125.3,23.9,125.6,24.3z"/>
<path class="st0" d="M1.6,30.8L2.2,31c-0.2,0.5-0.4,1-0.6,1.5v5.3H1v-4.3c-0.3,0.4-0.5,0.8-0.7,1c-0.1-0.2-0.2-0.4-0.3-0.6
	c0.6-0.7,1.1-1.6,1.5-2.7C1.6,31.1,1.6,31,1.6,30.8z M6.1,35.8L6.5,36c-0.3,0.4-0.7,0.7-1.2,1c0.6,0.2,1.3,0.3,2,0.4
	c-0.1,0.1-0.2,0.3-0.3,0.5c-0.9-0.1-1.7-0.3-2.3-0.6c-0.7,0.3-1.5,0.4-2.4,0.5c0-0.1-0.1-0.3-0.3-0.4c0.8-0.1,1.5-0.2,2.1-0.4
	c-0.3-0.2-0.6-0.4-0.8-0.6c-0.3,0.2-0.7,0.3-0.9,0.4c-0.1-0.1-0.2-0.3-0.3-0.4c0.7-0.3,1.4-0.6,1.8-1.1c-0.1,0-0.3-0.1-0.3-0.3v-0.1
	v-0.5h0.5v0.5c0,0.1,0,0.1,0.1,0.1c0,0,0.1,0,0.2,0h0.9c0.1,0,0.2,0,0.2-0.1c0,0,0-0.1,0-0.2c0.1,0.1,0.2,0.1,0.4,0.1
	c0,0.3-0.1,0.4-0.3,0.5c-0.1,0-0.2,0-0.3,0H4.5c-0.1,0.1-0.2,0.2-0.3,0.3h1.9V35.8z M2.8,32h1.4c0,0,0-0.1,0-0.2s0-0.1,0-0.2h-2
	v-0.4H7v0.4H4.9c-0.1,0.2-0.1,0.3-0.2,0.4h1.8v1.9h0.7v1H6.7v-0.7h-2c0.2,0.1,0.4,0.3,0.5,0.4l-0.3,0.3c-0.2-0.2-0.4-0.4-0.8-0.6
	l0,0h0.1H2.7V35H2.2v-1H3L2.8,32L2.8,32z M2.6,35.5l-0.4-0.3c0.3-0.1,0.5-0.4,0.8-0.8l0.4,0.2C3.2,35.1,2.9,35.4,2.6,35.5z M6,32.6
	v-0.3H3.4v0.3H6z M6,33.2v-0.3H3.4v0.3H6z M3.4,33.9H6v-0.3H3.4V33.9z M5.7,36.1h-2c0.2,0.2,0.5,0.4,1,0.6
	C5.1,36.6,5.4,36.3,5.7,36.1z M5.8,34.7l0.4-0.2C6.5,34.7,6.8,35,7,35.3l0,0l-0.4,0.2c-0.2-0.3-0.4-0.6-0.8-0.9
	C5.8,34.7,5.8,34.7,5.8,34.7z"/>
<path class="st0" d="M9.8,32.3H8.9c-0.1,0.5-0.3,1-0.7,1.4c-0.1-0.1-0.2-0.3-0.4-0.4c0.4-0.4,0.6-0.9,0.6-1.6V31l0.5,0.1
	c0.8-0.1,1.4-0.2,1.8-0.3l0.4,0.4c-0.5,0.1-1.2,0.3-2.1,0.3v0.4h2.3v0.4h-0.9v0.9H9.8V32.3z M10.1,36.6l0.5,0.3
	c-0.6,0.4-1.4,0.7-2.3,0.9c-0.2-0.2-0.4-0.4-0.4-0.4C8.9,37.2,9.6,36.9,10.1,36.6z M8.8,36.6v-3.1h5v3.1H8.8z M9.4,33.8v0.5h3.9
	v-0.5H9.4z M9.4,34.7v0.5h3.9v-0.5H9.4z M9.4,35.6v0.5h3.9v-0.5H9.4z M12.1,31.9h2.6v0.4h-1.1v1H13v-1h-1c-0.1,0.4-0.4,0.8-0.8,1.1
	c-0.1-0.1-0.2-0.3-0.3-0.4l0,0c0.5-0.3,0.7-0.8,0.7-1.3V31l0.4,0.1c0.8-0.1,1.5-0.2,1.9-0.3l0.4,0.4c-0.5,0.1-1.3,0.3-2.3,0.3v0.2
	C12.1,31.8,12.1,31.9,12.1,31.9z M11.9,37l0.5-0.3c1,0.3,1.8,0.6,2.3,0.8l-0.6,0.3C13.6,37.5,12.9,37.3,11.9,37z"/>
<path class="st0" d="M18.4,36.2L18,36.6c-0.2-0.3-0.5-0.8-1-1.3c-0.2,1-0.7,1.8-1.3,2.3c-0.1-0.1-0.2-0.3-0.4-0.4
	c0.8-0.6,1.2-1.6,1.3-2.9h-1.2v-0.5h1.3v-1.2h-1.1V32h1.1v-1.2h0.5V32h1.1v0.5h-1.1v1.2h1.2v0.5h-1.2c0,0.1,0,0.3,0,0.4
	C17.3,35.1,17.8,35.5,18.4,36.2z M21.1,37.1h0.5c0.1,0,0.1,0,0.2-0.1c0-0.1,0-0.4,0.1-0.9c0.1,0.1,0.3,0.1,0.5,0.2
	c0,0.7-0.1,1-0.3,1.2c-0.1,0.1-0.2,0.1-0.4,0.1h-0.6c-0.3,0-0.5-0.1-0.5-0.2c0-0.1-0.1-0.3-0.1-0.5v-1.6h-0.7
	c-0.1,0.8-0.4,1.4-0.8,1.8c-0.3,0.3-0.6,0.5-1.1,0.6c-0.1-0.1-0.2-0.3-0.3-0.4c0.7-0.2,1.2-0.6,1.4-1.2c0.1-0.2,0.2-0.5,0.2-0.8
	h-0.6v-4.2h3.3v4.2H21V37C21,37.1,21.1,37.1,21.1,37.1L21.1,37.1z M19.1,31.6v0.8h2.2v-0.8C21.3,31.6,19.1,31.6,19.1,31.6z
	 M19.1,32.8v0.8h2.2v-0.8H19.1z M19.1,34v0.8h2.2V34H19.1z"/>
<path class="st0" d="M22.9,37.6v-0.5c0.1,0,1.5-0.1,4.4-0.2v0.4C24.9,37.5,23.5,37.6,22.9,37.6z M26.8,31.3V32h0.5v0.4h-0.5v0.8
	h-1.5v0.4h1.6V34h-1.6v0.4h1.9v0.4h-4.3v-0.4h1.9V34h-1.5v-0.4h1.5v-0.4h-1.4v-0.4h1.4v-0.4h-1.9V32h1.9v-0.4h-1.4v-0.4h1.4v-0.5
	h0.5v0.5L26.8,31.3L26.8,31.3z M23.4,35h3.4v1.7h-3.4V35z M23.8,35.3v0.4h1v-0.4H23.8z M23.8,36v0.4h1V36H23.8z M25.3,31.6V32h1
	v-0.4H25.3z M26.3,32.8v-0.4h-1v0.4H26.3z M26.3,35.7v-0.4h-1v0.4H26.3z M26.3,36.3V36h-1v0.4h1V36.3z M28.1,31.7v4.2h-0.5v-4.2
	H28.1z M29,31h0.5v6.1c0,0.3-0.1,0.5-0.3,0.6c0,0,0,0-0.1,0c-0.2,0.1-0.6,0.1-1.2,0.1c0-0.2-0.1-0.4-0.2-0.5c0.5,0,0.8,0,0.9,0
	s0.2-0.1,0.2-0.2L29,31L29,31z"/>
<path class="st0" d="M34,34.6h-0.6v-1h1v0.8c0,0.5-0.2,0.9-0.7,1.2c-0.1,0-0.1,0.1-0.1,0.1l-0.2-0.3C33.9,35.2,34,34.9,34,34.6z"/>
<path class="st0" d="M44.8,33.9v0.5h-1.6v3.4h-0.6v-3.4h-2.3c0,1-0.3,1.8-0.7,2.4c-0.3,0.4-0.7,0.7-1.2,1c-0.1-0.1-0.3-0.3-0.4-0.4
	c0.9-0.5,1.5-1.2,1.7-2.2c0.1-0.3,0.1-0.5,0.1-0.8H38v-0.5h1.7v-1.7c-0.7,0.2-1.1,0.3-1.5,0.4c0-0.2-0.1-0.3-0.2-0.5
	c1.5-0.4,2.6-0.7,3.3-1.2l0.4,0.5c-0.4,0.2-0.9,0.4-1.5,0.6v1.9h2.3V31h0.6v2.9H44.8L44.8,33.9z"/>
<path class="st0" d="M45.9,35.1l0.5,0.1c-0.1,0.8-0.3,1.5-0.5,1.9c-0.1-0.1-0.3-0.1-0.4-0.2C45.6,36.5,45.8,35.9,45.9,35.1z
	 M47.9,34.6h-0.7v3.2h-0.5v-3.2c-0.5,0-0.9,0-1.2,0.1v-0.5H46c0.1-0.1,0.3-0.4,0.5-0.7c-0.3-0.4-0.6-0.7-1-1.1l0.3-0.4
	c0.1,0,0.1,0.1,0.2,0.2c0.3-0.4,0.5-0.9,0.7-1.4l0.5,0.2c-0.4,0.7-0.7,1.2-0.9,1.5c0.1,0.1,0.3,0.3,0.4,0.5c0.3-0.4,0.5-0.9,0.8-1.4
	l0.5,0.2c-0.5,0.9-1.1,1.7-1.5,2.3c0.3,0,0.7,0,1.2-0.1c-0.1-0.2-0.2-0.4-0.4-0.7l0.4-0.1c0.3,0.5,0.6,1,0.7,1.5v0.1L48.1,35
	C48,34.9,48,34.7,47.9,34.6z M52,33.4l0.3,0.1c-0.2,1.1-0.7,2-1.2,2.7c0.4,0.5,0.9,0.8,1.5,1.1c-0.1,0.1-0.3,0.3-0.4,0.5
	c-0.5-0.3-1-0.6-1.5-1.1c-0.5,0.4-1,0.8-1.5,1.1c-0.1-0.2-0.2-0.3-0.4-0.4l0,0c0.6-0.3,1.2-0.6,1.6-1.1c-0.4-0.6-0.8-1.3-1-2.1
	c-0.1,1.5-0.5,2.8-1.2,3.6c-0.1-0.1-0.3-0.2-0.4-0.3c0.2-0.3,0.4-0.6,0.6-1L48,36.6c-0.1-0.4-0.2-0.9-0.5-1.3l0.4-0.1
	c0.2,0.4,0.4,0.9,0.5,1.3c0.4-0.9,0.5-2,0.5-3.4V32h-0.8v-0.5H51h0.1h0.4c-0.1,0.7-0.1,1.4-0.3,2.1h0.6L52,33.4z M51,31.8h-1.6v1.1
	c0,0.2,0,0.4,0,0.5h1.4C50.8,32.8,50.9,32.3,51,31.8z M51.7,33.9h-1.9c0.2,0.8,0.5,1.4,0.9,2C51.2,35.3,51.5,34.7,51.7,33.9z"/>
<path class="st0" d="M56.9,37H60v0.5h-6.8V37h3.1v-1.9H54v-0.5h2.3v-1.7h-1.8c-0.3,0.5-0.5,0.9-0.8,1.2c-0.1-0.1-0.3-0.2-0.5-0.3
	c0.6-0.6,1.1-1.5,1.4-2.7V31l0.6,0.1c-0.1,0.5-0.3,0.9-0.4,1.2h1.6v-1.5H57v1.5h2.7v0.5H57v1.7h2.4V35H57L56.9,37L56.9,37z"/>
<path class="st0" d="M62.3,33.8L62,34.3c-0.4-0.3-0.8-0.5-1.4-0.8l0.3-0.4C61.6,33.3,62.1,33.6,62.3,33.8z M61.2,37.7l-0.5-0.4
	c0.5-0.7,0.9-1.5,1.5-2.4l0.4,0.4C62.2,36.1,61.7,36.9,61.2,37.7z M62.7,31.7l-0.3,0.5c-0.3-0.2-0.7-0.5-1.4-0.8l0.3-0.4
	C61.8,31.2,62.3,31.5,62.7,31.7z M67.5,33.6h-2.1v1.2H67v2.9h-0.5v-0.3h-2.7v0.3h-0.5v-2.9h1.6v-1.2h-2.2V33h2.2v-1.2
	c-0.6,0.1-1.2,0.1-1.7,0.2c0-0.1-0.1-0.3-0.1-0.5c1.7-0.2,2.9-0.4,3.7-0.7l0.5,0.4c-0.5,0.2-1.1,0.3-1.8,0.4V33h2.1L67.5,33.6
	L67.5,33.6z M66.5,36.9v-1.6h-2.7v1.6H66.5z"/>
<path class="st0" d="M70.2,32.3h-0.9c-0.1,0.5-0.3,1-0.7,1.4c-0.1-0.1-0.2-0.3-0.4-0.4c0.4-0.4,0.6-0.9,0.6-1.6V31l0.5,0.1
	c0.8-0.1,1.4-0.2,1.8-0.3l0.4,0.4c-0.5,0.1-1.2,0.3-2.1,0.3v0.4h2.3v0.4h-0.9v0.9h-0.5v-0.9H70.2z M70.5,36.6l0.5,0.3
	c-0.6,0.4-1.4,0.7-2.3,0.9c-0.2-0.2-0.4-0.4-0.4-0.4C69.2,37.2,69.9,36.9,70.5,36.6z M69.1,36.6v-3.1h5v3.1H69.1z M69.7,33.8v0.5
	h3.9v-0.5H69.7z M69.7,34.7v0.5h3.9v-0.5H69.7z M69.7,35.6v0.5h3.9v-0.5H69.7z M72.4,31.9H75v0.4h-1.1v1h-0.5v-1h-1.1
	c-0.1,0.4-0.4,0.8-0.8,1.1c-0.1-0.1-0.2-0.3-0.3-0.4l0,0c0.5-0.3,0.7-0.8,0.7-1.3V31l0.4,0.1c0.8-0.1,1.5-0.2,1.9-0.3l0.4,0.4
	c-0.5,0.1-1.3,0.3-2.3,0.3v0.2C72.4,31.8,72.4,31.9,72.4,31.9z M72.2,37l0.5-0.3c1,0.3,1.8,0.6,2.3,0.8l-0.6,0.3
	C73.9,37.5,73.2,37.3,72.2,37z"/>
<path class="st0" d="M79.3,35.1h-2v-1.6h2.1L79.3,35.1c0.4-0.3,0.7-0.6,1-0.9c-0.3-0.7-0.5-1.3-0.7-2.1h-2.8v0.7
	c0,1.3-0.3,2.3-0.8,3c-0.1-0.1-0.2-0.2-0.4-0.3l0,0c0.5-0.6,0.7-1.5,0.7-2.6v-1.1h3.3c0-0.3,0-0.5-0.1-0.8H80c0,0.2,0,0.5,0.1,0.8
	h1.4c-0.3-0.2-0.6-0.4-1-0.5l0.3-0.3c0.5,0.1,0.8,0.3,1.1,0.5l-0.3,0.3h0.8v0.5h-2.3c0.1,0.6,0.3,1.2,0.5,1.6
	c0.3-0.4,0.5-0.8,0.6-1.3l0.5,0.1c-0.2,0.6-0.5,1.2-0.9,1.7c0.3,0.5,0.7,0.8,1,0.8c0.1,0,0.2-0.2,0.3-0.5c0-0.1,0-0.3,0-0.4
	c0.1,0.1,0.3,0.2,0.4,0.3c-0.1,0.6-0.2,1-0.4,1.1c-0.1,0.1-0.2,0.1-0.4,0.1c-0.5,0-0.9-0.3-1.3-0.9c-0.3,0.3-0.6,0.6-0.9,0.8
	C79.5,35.3,79.4,35.2,79.3,35.1z M76.1,37.6l-0.5-0.3c0.5-0.3,0.8-0.8,1-1.5l0.5,0.2C76.9,36.7,76.5,37.3,76.1,37.6z M79.4,32.6V33
	h-2.3v-0.4H79.4z M78.6,37.2H80c0.2,0,0.3,0,0.3-0.1s0.1-0.3,0.1-0.7c0.1,0.1,0.3,0.2,0.5,0.2c0,0.5-0.1,0.8-0.3,0.9
	c-0.1,0.1-0.3,0.1-0.6,0.1h-1.5c-0.5,0-0.8-0.1-0.9-0.2c-0.1-0.1-0.1-0.3-0.1-0.5v-1.2h0.6V37c0,0.1,0,0.2,0.1,0.2
	C78.3,37.1,78.4,37.2,78.6,37.2z M78.8,34.7v-0.8h-1.1v0.8H78.8z M78.2,35.5l0.4-0.3c0.5,0.3,0.9,0.5,1.2,0.8c0,0,0,0,0.1,0.1
	l-0.4,0.4c-0.3-0.3-0.6-0.6-1.1-0.8C78.3,35.6,78.2,35.5,78.2,35.5z M80.8,36l0.5-0.3c0.5,0.4,0.9,0.8,1.2,1.3
	c0.1,0.1,0.1,0.2,0.1,0.3l-0.5,0.3c-0.2-0.4-0.5-0.8-1-1.3C81,36.2,80.9,36.1,80.8,36z"/>
<path class="st0" d="M86.8,34.6h-0.6v-1h1v0.8c0,0.5-0.2,0.9-0.7,1.2c-0.1,0-0.1,0.1-0.1,0.1l-0.2-0.3
	C86.6,35.2,86.8,34.9,86.8,34.6z"/>
<path class="st0" d="M90.7,33.9h7v0.6h-7V33.9z"/>
<path class="st0" d="M104.8,35.1h-3.4c0,0.2-0.1,0.4-0.1,0.6h2.7c0,0,0,0.1,0,0.2c-0.1,0.9-0.2,1.5-0.4,1.7l0,0
	c-0.1,0.1-0.3,0.2-0.5,0.2s-0.5,0-0.9,0c0-0.2-0.1-0.4-0.1-0.5c0.3,0,0.5,0,0.9,0c0.1,0,0.2,0,0.3,0c0.1-0.1,0.2-0.5,0.3-1.1h-2.2
	c-0.3,0.7-0.7,1.1-1.4,1.5c-0.2,0.1-0.4,0.1-0.6,0.2c-0.1-0.2-0.2-0.3-0.3-0.4c0.8-0.2,1.4-0.6,1.7-1.2c0.1-0.3,0.3-0.7,0.3-1.1
	h-1.6c-0.1,1.1-0.4,2-0.9,2.6c-0.1-0.1-0.2-0.3-0.4-0.4h-0.1c0.5-0.7,0.8-1.7,0.9-3.1c0-0.1,0-0.3,0-0.4v-2.7l0.5,0.1
	c1.9-0.1,3.4-0.2,4.4-0.4l0.4,0.4c-1.1,0.2-2.7,0.4-4.7,0.4v0.4h5V34h-5c0,0.2,0,0.5,0,0.7h2.1V34h0.5v0.7h2.8L104.8,35.1
	L104.8,35.1z M103.7,32.7h-4.4v0.8h4.4V32.7z"/>
<path class="st0" d="M105.5,33.9h7v0.6h-7V33.9z"/>
<path class="st0" d="M119.8,31.8h-5.9v1.9c0,1.8-0.2,3.2-0.7,4c-0.1-0.1-0.2-0.2-0.4-0.3l0,0c0.4-0.8,0.5-2.1,0.5-3.7v-2.4h2.9v-0.5
	h0.6v0.5h2.9L119.8,31.8L119.8,31.8z M115,37.1l0.6-0.1v0.4c-0.8,0.1-1.4,0.2-1.6,0.2v-0.4l0.7-0.1v-0.5h-0.5v-0.4h0.5v-0.4h-0.5
	v-0.4h1.5v0.4H115v0.4h0.5v0.4H115V37.1L115,37.1z M116.6,32.7h-0.4v5.1h-0.4V35c-1,0.1-1.5,0.1-1.7,0.1v-0.4h0.5v-2h-0.4v-0.4h2.5
	L116.6,32.7L116.6,32.7z M115.8,33.1v-0.4h-0.9v0.4H115.8z M115.8,33.9v-0.4h-0.9v0.4H115.8z M114.9,34.2v0.5c0.2,0,0.5,0,0.9,0
	v-0.5H114.9z M116.8,37.5l-0.4-0.2c0.2-0.3,0.3-0.6,0.3-1.1l0.4,0.1C117.1,36.9,116.9,37.3,116.8,37.5z M119.8,35.2v0.4H118
	c0.3,0.2,0.6,0.4,0.8,0.5l-0.3,0.3c-0.2-0.2-0.5-0.4-0.9-0.6l0.2-0.2h-1.2v-0.4H119.8z M117.9,32h0.5v0.4h1.3v0.4h-1.3v0.4h1.3v1.5
	h-2.9v-1.5h1.2v-0.4h-1.2v-0.4h1.2L117.9,32L117.9,32z M117.6,34.4v-0.7h-0.5v0.7H117.6z M118,37.3h0.5c0.1,0,0.1,0,0.1-0.1
	s0-0.2,0-0.4c0.1,0.1,0.2,0.1,0.4,0.1c0,0.4-0.1,0.6-0.3,0.7c-0.1,0-0.1,0-0.3,0H118c-0.3,0-0.4-0.1-0.5-0.2c0-0.1-0.1-0.2-0.1-0.4
	v-1.1h0.4V37c0,0.1,0,0.1,0.1,0.1C117.9,37.3,118,37.3,118,37.3z M118.4,34.4v-0.7h-0.5v0.7H118.4z M118.7,33.7v0.7h0.5v-0.7H118.7z
	 M118.9,36.3l0.4-0.1c0.3,0.4,0.5,0.8,0.6,1.2c0,0,0,0,0,0.1l-0.4,0.1C119.4,37.1,119.2,36.8,118.9,36.3L118.9,36.3z"/>
<path class="st0" d="M121.7,33.5l0.6,0.1c-0.3,0.9-0.7,1.7-1.3,2.3l-0.1,0.1c-0.1-0.1-0.3-0.2-0.5-0.3c0.5-0.5,1-1.2,1.2-2
	C121.7,33.6,121.7,33.5,121.7,33.5z M127.4,32.7h-2V37c0,0.3-0.1,0.5-0.3,0.6H125c-0.2,0.1-0.6,0.1-1.3,0.1c0-0.2-0.1-0.4-0.2-0.6
	c0.3,0,0.7,0,1.1,0c0.1,0,0.1-0.1,0.2-0.2v-4.4h-1.2v0.9c0,1.1-0.2,1.9-0.5,2.6c-0.3,0.7-0.8,1.2-1.5,1.7c-0.1-0.1-0.2-0.3-0.4-0.4
	c1-0.7,1.6-1.7,1.8-3c0-0.3,0-0.5,0-0.9v-0.9h-2.3V32h3.1v-1.3h0.6V32h3.1L127.4,32.7L127.4,32.7z M125.7,33.7l0.5-0.2
	c0.5,0.7,0.9,1.3,1.2,2.1c0,0.1,0.1,0.3,0.1,0.4l-0.5,0.3c-0.1-0.6-0.5-1.3-1-2C125.9,33.9,125.8,33.8,125.7,33.7z"/>
<path class="st0" d="M3.3,47.3l-0.4,0.4c-0.2-0.3-0.5-0.8-1-1.3c-0.2,1-0.7,1.8-1.3,2.3c-0.1-0.1-0.2-0.3-0.4-0.4
	c0.8-0.6,1.2-1.6,1.3-2.9H0.2v-0.5h1.3v-1.2H0.4v-0.5h1.1V42H2v1.2h1.1v0.5H2v1.2h1.2v0.5H2c0,0.1,0,0.3,0,0.4
	C2.2,46.2,2.7,46.6,3.3,47.3z M6.1,48.2h0.5c0.1,0,0.1,0,0.2-0.1c0-0.1,0-0.4,0.1-0.9c0.1,0.1,0.3,0.1,0.5,0.2c0,0.7-0.1,1-0.3,1.2
	c-0.1,0.1-0.2,0.1-0.4,0.1H6c-0.3,0-0.5-0.1-0.5-0.2c0-0.1-0.1-0.3-0.1-0.5v-1.6H4.7c-0.1,0.8-0.4,1.4-0.8,1.8
	c-0.3,0.3-0.6,0.5-1.1,0.6c-0.1-0.1-0.2-0.3-0.3-0.4c0.7-0.2,1.2-0.6,1.4-1.2C4,47,4.1,46.7,4.1,46.4H3.6v-4.2h3.3v4.2H6V48
	C6,48.2,6,48.2,6.1,48.2C6,48.2,6,48.2,6.1,48.2z M4.1,42.7v0.8h2.2v-0.8H4.1z M4.1,43.9v0.8h2.2v-0.8H4.1z M4.1,45.2V46h2.2v-0.8
	H4.1z"/>
<path class="st0" d="M7.8,48.7v-0.5c0.1,0,1.5-0.1,4.4-0.2v0.4C9.8,48.6,8.4,48.7,7.8,48.7z M11.7,42.4v0.7h0.5v0.4h-0.5v0.8h-1.5
	v0.4h1.6V45h-1.6v0.4h1.9v0.4H7.9v-0.4h1.9V45H8.2v-0.4h1.5v-0.4H8.3v-0.4h1.4v-0.4H7.8V43h1.9v-0.4H8.3v-0.4h1.4v-0.5h0.5v0.5h1.5
	V42.4z M8.3,46.1h3.4v1.7H8.3V46.1z M8.8,46.4v0.4h1v-0.4H8.8z M8.8,47.1v0.4h1v-0.4H8.8z M10.2,42.7v0.4h1v-0.4H10.2z M11.2,43.9
	v-0.4h-1v0.4H11.2z M11.2,46.8v-0.4h-1v0.4H11.2z M11.2,47.4V47h-1v0.4H11.2z M13,42.8V47h-0.5v-4.2H13z M13.9,42.1h0.5v6.1
	c0,0.3-0.1,0.5-0.3,0.6c0,0,0,0-0.1,0c-0.2,0.1-0.6,0.1-1.2,0.1c0-0.2-0.1-0.4-0.2-0.5c0.5,0,0.8,0,0.9,0c0.1,0,0.2-0.1,0.2-0.2
	L13.9,42.1L13.9,42.1z"/>
<path class="st0" d="M21,47.3c0.4,0.5,0.8,0.8,1.4,1.1c-0.1,0.1-0.3,0.3-0.4,0.4c-0.5-0.3-0.9-0.7-1.3-1.1c-0.4,0.4-0.8,0.8-1.4,1.1
	c-0.1-0.1-0.2-0.3-0.3-0.4l0,0c0.5-0.3,1-0.7,1.4-1.1c-0.4-0.7-0.8-1.5-1.1-2.4V45c0,1.8-0.3,3.1-1,3.9c-0.1-0.1-0.3-0.2-0.4-0.3
	l0,0c0.1-0.1,0.2-0.3,0.3-0.4l0,0l-0.4,0.2c0-0.1-0.1-0.2-0.1-0.4c-0.9,0.3-1.7,0.5-2.3,0.8L15.2,48c0.3-0.1,0.4-0.1,0.5-0.1v-4
	c-0.1,0.1-0.2,0.1-0.3,0.2c-0.1-0.1-0.2-0.3-0.3-0.4c0.6-0.4,1.1-1,1.5-1.7v-0.1h0.5c0.5,0.4,0.9,0.9,1.2,1.3l0,0L18,43.6
	c-0.4-0.5-0.7-0.9-1.1-1.3c-0.4,0.6-0.8,1.1-1.2,1.5h1v-0.7h0.5v0.7h0.9v2.5h-1.9v1.4c0.4-0.1,0.8-0.2,1.3-0.4
	c-0.1-0.2-0.2-0.4-0.3-0.7l0.4-0.2c0.3,0.5,0.5,1,0.7,1.5l0,0c0.3-0.7,0.5-1.7,0.5-3v-2.7h3.4v0.5h-2.8v1.5h2.4h0.1l0.3,0.1
	C21.9,45.6,21.6,46.5,21,47.3z M17.7,44.3h-1.5v0.6h1.5V44.3z M17.7,46v-0.6h-1.5V46H17.7z M20.7,46.9c0.4-0.6,0.7-1.3,0.8-2.1h-1.8
	C20,45.6,20.3,46.3,20.7,46.9z"/>
<path class="st0" d="M27,42.9h2.9v0.5h-5.8v1.4c0,1.8-0.3,3.1-0.8,4c-0.1-0.1-0.3-0.2-0.5-0.3c0.4-0.8,0.7-2,0.7-3.6v-0.1v-2h2.8v-1
	H27V42.9z M27.2,43.6v0.9h2.6V45h-2.6v1.1h2v2.8h-0.6v-0.3h-3.3v0.3h-0.5v-2.8h1.8v-2.5H27.2z M28.7,48.1v-1.5h-3.3v1.5H28.7z"/>
<path class="st0" d="M30.9,46.2l0.5,0.1c-0.1,0.8-0.3,1.5-0.5,1.9c-0.1-0.1-0.3-0.1-0.4-0.2C30.7,47.6,30.8,47,30.9,46.2z
	 M32.9,45.7h-0.7v3.2h-0.5v-3.2c-0.5,0-0.9,0-1.2,0.1v-0.5H31c0.1-0.1,0.3-0.4,0.5-0.7c-0.3-0.4-0.6-0.7-1-1.1l0.3-0.4
	c0.1,0,0.1,0.1,0.2,0.2c0.3-0.4,0.5-0.9,0.7-1.4l0.5,0.2c-0.4,0.7-0.7,1.2-0.9,1.5c0.1,0.1,0.3,0.3,0.4,0.5c0.3-0.4,0.5-0.9,0.8-1.4
	l0.5,0.2c-0.5,0.9-1.1,1.7-1.5,2.3c0.3,0,0.7,0,1.2-0.1c-0.1-0.2-0.2-0.4-0.4-0.7l0.4-0.1c0.3,0.5,0.6,1,0.7,1.5v0.1L33,46.1
	C33.1,46,33,45.9,32.9,45.7z M37,44.5l0.3,0.1c-0.2,1.1-0.7,2-1.2,2.7c0.4,0.5,0.9,0.8,1.5,1.1c-0.1,0.1-0.3,0.3-0.4,0.5
	c-0.5-0.3-1-0.6-1.5-1.1c-0.5,0.4-1,0.8-1.5,1.1c-0.1-0.2-0.2-0.3-0.4-0.4l0,0c0.6-0.3,1.2-0.6,1.6-1.1c-0.4-0.6-0.8-1.3-1-2.1
	c-0.1,1.5-0.5,2.8-1.2,3.6c-0.1-0.1-0.3-0.2-0.4-0.3c0.2-0.3,0.4-0.6,0.6-1L33,47.7c-0.1-0.4-0.2-0.9-0.5-1.3l0.4-0.1
	c0.2,0.4,0.4,0.9,0.5,1.3c0.4-0.9,0.5-2,0.5-3.4v-1.1h-0.8v-0.5H36h0.1h0.4c-0.1,0.7-0.1,1.4-0.3,2.1h0.6L37,44.5z M36,42.9h-1.5V44
	c0,0.2,0,0.4,0,0.5h1.4C35.9,43.9,36,43.4,36,42.9z M36.7,45h-1.9c0.2,0.8,0.5,1.4,0.9,2C36.2,46.4,36.6,45.8,36.7,45z"/>
<path class="st0" d="M38.3,42.6h6.3v6H44v-0.5h-5.1v0.5h-0.6C38.3,48.6,38.3,42.6,38.3,42.6z M38.9,47.6H44v-4.4h-1.6v2.3
	c0,0.1,0,0.2,0.1,0.3s0.1,0,0.2,0h0.4c0.1,0,0.2,0,0.3,0s0.1-0.1,0.1-0.2c0-0.1,0-0.3,0-0.7c0.1,0.1,0.3,0.2,0.4,0.2
	c0,0.4,0,0.7-0.1,0.8s-0.1,0.2-0.3,0.3c-0.1,0-0.3,0.1-0.5,0.1h-0.5c-0.2,0-0.4,0-0.5-0.1c0-0.2,0-0.4,0-0.6c0-0.1,0-0.1,0-0.2v-2.2
	h-1c-0.1,1.1-0.2,1.9-0.5,2.4c-0.2,0.5-0.6,0.8-1,1.1c-0.1-0.1-0.2-0.3-0.4-0.4c0.6-0.3,0.9-0.9,1.1-1.6c0.1-0.4,0.1-0.8,0.2-1.5H39
	L38.9,47.6L38.9,47.6z"/>
<path class="st0" d="M47.2,41.9l0.5,0.2c-0.3,0.6-0.5,1.2-0.8,1.6v5.1h-0.5v-4.3c-0.2,0.3-0.4,0.6-0.7,0.9c-0.1-0.2-0.2-0.4-0.3-0.5
	c0.6-0.7,1.2-1.5,1.6-2.5C47,42.3,47.1,42.1,47.2,41.9z M52.4,45.7v0.5h-2.1v2.6h-0.6v-2.6h-2.2v-0.5h2.2V44h-1.2
	c-0.2,0.5-0.4,0.9-0.5,1.2c-0.1-0.1-0.3-0.2-0.5-0.3c0.4-0.6,0.7-1.5,0.9-2.6l0.5,0.1c-0.1,0.3-0.1,0.7-0.3,1.1h1V42h0.6v1.5H52V44
	h-1.8v1.7H52.4L52.4,45.7z"/>
<path class="st0" d="M59.7,43.9h-2.2c0.1,1.7,0.4,3,0.8,3.8c0.2,0.4,0.5,0.7,0.7,0.7s0.3-0.3,0.3-0.9c0-0.1,0-0.3,0-0.5
	c0.1,0.1,0.3,0.2,0.5,0.3c-0.1,0.8-0.2,1.3-0.4,1.5c-0.1,0.1-0.3,0.2-0.5,0.2c-0.8,0-1.4-0.9-1.8-2.6c-0.1-0.7-0.3-1.5-0.3-2.4H53
	v-0.5h3.9c0-0.3,0-0.8,0-1.4h0.6c0,0.4,0,0.9,0,1.4h2.3L59.7,43.9L59.7,43.9z M55.1,45.6v2.1c0.9-0.2,1.4-0.3,1.6-0.3v0.5
	c-1.2,0.3-2.5,0.6-3.7,0.8l-0.2-0.5c0.1,0,0.4-0.1,0.7-0.1c0.4-0.1,0.7-0.1,0.9-0.2v-2.2H53V45h3.4v0.5L55.1,45.6L55.1,45.6z
	 M59.4,42.9L59,43.2c-0.3-0.3-0.6-0.6-1.1-0.9l0,0l0.4-0.3C58.8,42.3,59.2,42.6,59.4,42.9z"/>
<path class="st0" d="M62.3,44v-0.4c-0.1,0.3-0.3,0.6-0.5,0.9v4.3h-0.5v-3.6c-0.2,0.3-0.4,0.5-0.7,0.8c-0.1-0.2-0.2-0.4-0.3-0.5
	c0.6-0.5,1.1-1.2,1.5-2c0-0.1,0.1-0.1,0.1-0.2l0.5,0.2h0.8c0.1-0.3,0.1-0.5,0.1-0.7h-0.7v-0.4h0.8c0-0.2,0.1-0.4,0.1-0.6H64
	c0,0.1,0,0.3-0.1,0.5h1.3v1.1h0.5v0.5L62.3,44L62.3,44z M61.6,41.9l0.5,0.2c-0.4,0.6-0.8,1.1-1.4,1.6l-0.1,0.1
	c-0.1-0.1-0.2-0.3-0.3-0.4c0.4-0.4,0.8-0.8,1.1-1.3C61.5,42.1,61.6,42,61.6,41.9z M65.5,48h-1.1v0.9h-0.5V48h-1.8v-0.5h0.4v-1.1h1.4
	v-0.5h-1.3v-1.5h2.6v1.5h-0.8v0.5h0.9v0.5h-0.9v0.7h1.1V48L65.5,48z M63,44.8v0.7h1.8v-0.7H63z M63,47.6h0.9v-0.7H63V47.6z
	 M64.6,42.9h-0.9c0,0.1-0.1,0.3-0.1,0.7h1V42.9z M67.4,44.4v0.5h-0.7v3.3c0,0.3-0.1,0.4-0.2,0.5c0,0,0,0-0.1,0
	c-0.1,0.1-0.5,0.1-1.1,0.1c0-0.2-0.1-0.4-0.2-0.5c0.3,0,0.5,0,0.8,0c0.1,0,0.1-0.1,0.1-0.1v-3.3h-0.8v-0.5H67.4z M67.3,42.4v0.5
	h-1.8v-0.5H67.3z"/>
<path class="st0" d="M69.7,44.8l-0.3,0.5c-0.3-0.3-0.7-0.5-1.3-0.8H68l0.3-0.4C68.9,44.2,69.4,44.5,69.7,44.8z M68.7,48.8l-0.5-0.4
	c0.4-0.6,0.8-1.3,1.2-2.3l0.4,0.3C69.5,47.2,69.1,48,68.7,48.8z M70.1,42.8l-0.3,0.4c-0.3-0.3-0.7-0.5-1.2-0.8c0,0-0.1,0-0.1-0.1
	l0.3-0.4C69.3,42.2,69.8,42.5,70.1,42.8L70.1,42.8z M72.1,43.4h0.5c0.4,0.7,1,1.3,1.7,1.9c0.3,0.2,0.5,0.4,0.7,0.5
	c-0.1,0.1-0.3,0.3-0.3,0.5c-0.7-0.4-1.3-1-1.9-1.6c-0.2-0.2-0.3-0.4-0.5-0.7c-0.4,0.7-0.9,1.3-1.6,1.8c-0.3,0.2-0.5,0.4-0.7,0.5
	c-0.1-0.1-0.2-0.3-0.3-0.5c0.7-0.4,1.3-0.9,1.8-1.6C71.8,44,72,43.7,72.1,43.4z M71.4,41.9l0.5,0.2c-0.4,0.7-0.8,1.3-1.4,1.8
	c-0.1,0-0.1,0.1-0.1,0.1c-0.1-0.1-0.3-0.3-0.5-0.4C70.4,43.2,70.9,42.7,71.4,41.9C71.3,42.1,71.3,42,71.4,41.9z M70.7,48.9V46h3.6
	v2.8h-0.6v-0.3h-2.5v0.3h-0.5V48.9z M73.7,46.5h-2.5V48h2.5V46.5z M74.9,43.6l-0.5,0.3c-0.3-0.4-0.7-0.9-1.3-1.5
	c-0.1-0.1-0.1-0.1-0.2-0.2l0.4-0.3c0.6,0.5,1.1,1.1,1.4,1.5C74.8,43.5,74.9,43.5,74.9,43.6z"/>
<path class="st0" d="M79.2,45.7h-0.6v-1h1v0.8c0,0.5-0.2,0.9-0.7,1.2c-0.1,0-0.1,0.1-0.1,0.1l-0.2-0.3C79,46.3,79.2,46,79.2,45.7z"
	/>
<path class="st0" d="M86.2,43.9l-0.3,0.4c-0.2-0.2-0.5-0.4-1.1-0.7c-0.3,0.4-0.8,0.6-1.5,0.8c0-0.1-0.1-0.3-0.3-0.4l0,0
	c0.7-0.1,1.1-0.4,1.4-0.7c0.2-0.3,0.3-0.7,0.3-1.3h0.5c0,0.5-0.1,0.9-0.2,1.2C85.6,43.5,86,43.7,86.2,43.9z M83.9,42.2l0.4,0.1
	c-0.2,0.4-0.4,0.8-0.7,0.9L83.2,43C83.6,42.9,83.7,42.6,83.9,42.2z M89.8,44l-0.3,0.3h0.2v1.4h-0.5v-0.9H84v0.9h-0.6v-1.4h6
	c-0.3-0.2-0.8-0.5-1.4-0.8c-0.3,0.4-0.8,0.6-1.4,0.8c-0.1-0.1-0.1-0.3-0.3-0.4c0.7-0.1,1.1-0.4,1.3-0.8c0.2-0.3,0.3-0.7,0.3-1.2h0.5
	c0,0.5-0.1,0.9-0.2,1.2C88.9,43.4,89.4,43.7,89.8,44z M88.6,46.7h-1.8c0,0.1-0.1,0.2-0.2,0.5h2.6v1.7h-0.5v-0.2h-4.2v0.2H84v-1.7
	h2.1c0-0.1,0.1-0.3,0.1-0.5h-1.7v-1.4h4.1V46.7z M88.7,48.2v-0.7h-4.2v0.7H88.7z M85,45.7v0.6h3v-0.6H85z M86,42.3l0.5,0.2
	c-0.3,0.3-0.5,0.5-0.7,0.8l-0.3-0.1C85.7,42.7,85.9,42.5,86,42.3z M86.8,43.3l-0.4-0.2c0.3-0.2,0.5-0.5,0.7-0.8l0.4,0.1
	C87.3,42.8,87.1,43.1,86.8,43.3z M89.3,42.2l0.5,0.2c-0.3,0.3-0.5,0.6-0.8,0.8l-0.4-0.1C89,42.8,89.2,42.5,89.3,42.2z"/>
<path class="st0" d="M92.1,45.4v1.9c0.4,0.5,1,0.8,1.9,0.9c1.2,0,2.3,0,3.4,0h0.1c-0.1,0.1-0.1,0.3-0.2,0.5c-1.2,0-2.3,0-3.3,0
	c-0.9,0-1.6-0.3-2.1-0.8l-0.1-0.1c-0.3,0.3-0.6,0.6-1.1,1l-0.3-0.5c0.4-0.3,0.8-0.6,1.1-0.9V46h-1v-0.5L92.1,45.4L92.1,45.4z
	 M92.3,44.4l-0.4,0.4c-0.3-0.3-0.7-0.6-1.2-0.9h-0.1l0.4-0.4C91.5,43.8,91.9,44.1,92.3,44.4L92.3,44.4z M92.5,42.9l-0.4,0.4
	c-0.3-0.3-0.6-0.6-1.2-0.9h-0.1l0.4-0.4C91.9,42.3,92.3,42.6,92.5,42.9z M94.7,43.4h-1.2c-0.2,0.3-0.4,0.5-0.6,0.8
	c-0.1-0.1-0.3-0.2-0.5-0.3c0.5-0.4,0.8-1.1,1.1-1.8l0,0l0.5,0.1c-0.1,0.2-0.1,0.4-0.3,0.7h0.9V42h0.5v0.9H97v0.5h-1.8v1h2.2v0.5
	h-4.9v-0.5h2.2L94.7,43.4L94.7,43.4z M96.8,47.7h-0.5v-0.3h-2.5v0.3h-0.5v-2.3h3.6L96.8,47.7L96.8,47.7z M93.8,47h2.5v-1.1h-2.5V47z
	"/>
<path class="st0" d="M98.3,48.9v-3.3h2.7v3.3h-0.5v-0.3h-1.6V49L98.3,48.9L98.3,48.9z M100.4,46.1h-1.6v1.8h1.6V46.1z M103.6,42.2
	v2.5h-4.2v-2.5H103.6z M103,44.2v-1.5h-3v1.5H103z M101.8,45.6h2.8v3.3h-0.5v-0.4h-1.8v0.4h-0.5V45.6z M102.4,47.9h1.8v-1.8h-1.8
	V47.9z"/>
<path class="st0" d="M107.6,47h-1.5v0.6h-0.5v-5h2V47z M107.1,43.1h-0.9v3.3h0.9V43.1z M112.3,45.5h-1.8c0.4,0.8,0.8,1.5,1.4,2
	c0.2,0.2,0.3,0.3,0.5,0.4c-0.2,0.1-0.3,0.3-0.4,0.5c-0.6-0.5-1.1-1.2-1.6-2.1c0-0.1-0.1-0.1-0.1-0.2v2.7h-0.5v-2.7
	c-0.5,0.9-1.1,1.6-1.8,2.1c-0.1,0.1-0.1,0.1-0.2,0.1c-0.1-0.2-0.3-0.3-0.4-0.4c0.6-0.3,1.2-0.9,1.7-1.6c0.2-0.3,0.3-0.5,0.5-0.8H108
	V45h1.9v-1.3h-1.6v-0.5h1.6V42h0.5v1.2h1.7v0.5h-1.7V45h2L112.3,45.5L112.3,45.5z"/>
<path class="st0" d="M115.7,44.4c0.6,0.5,1.1,1,1.6,1.6c0,0,0,0.1,0.1,0.1l-0.5,0.4c-0.5-0.7-1.1-1.2-1.7-1.7L115.7,44.4z"/>
<path class="st0" d="M126.4,46.4l0.5,0.2c-0.2,0.4-0.5,0.9-0.9,1.2c0.2,0.4,0.5,0.6,0.8,0.6c0.1,0,0.2-0.1,0.3-0.3
	c0-0.1,0.1-0.3,0.1-0.6c0.1,0.1,0.2,0.2,0.4,0.3c-0.1,0.5-0.2,0.9-0.3,1c-0.1,0.1-0.3,0.1-0.4,0.1c-0.4,0-0.8-0.3-1.1-0.8
	c-0.4,0.3-0.8,0.6-1.4,0.8c-0.1-0.2-0.2-0.3-0.3-0.4c0.6-0.2,1.1-0.5,1.4-0.8c-0.2-0.4-0.3-0.9-0.4-1.4h-1.2c0,0,0,0.2,0,0.4
	c0.5,0.3,0.8,0.5,1.1,0.8l-0.3,0.4c-0.2-0.2-0.5-0.4-0.8-0.7c-0.2,0.8-0.5,1.3-1,1.7c-0.1-0.2-0.2-0.3-0.3-0.4c0.5-0.4,0.8-1,0.9-2
	c0-0.1,0-0.2,0-0.3H123v-0.4l-0.2,0.3c-0.1-0.2-0.3-0.6-0.5-1.1v3.8h-0.5v-3.5c-0.3,0.9-0.5,1.6-0.8,2.1c-0.1-0.1-0.2-0.3-0.3-0.5
	c0.4-0.5,0.7-1.3,0.9-2.3c0.1-0.2,0.1-0.4,0.1-0.6h-0.9v-0.5h0.9v-1.6h0.5v1.6h0.8V44h-0.8v0.3c0.3,0.3,0.5,0.8,0.8,1.2v0.1l0,0h2.2
	c-0.1-1-0.2-2.3-0.3-3.9h0.5c0,1.5,0.1,2.8,0.2,3.9h1.1c-0.3-0.2-0.5-0.4-0.7-0.4l0.3-0.3c0.4,0.2,0.6,0.4,0.8,0.5l-0.1,0.2h0.6v0.5
	h-1.9c0.1,0.4,0.1,0.7,0.3,1.1C126,47,126.2,46.7,126.4,46.4z M122.6,44.8h0.3c0.1-0.2,0.3-0.4,0.5-0.7c-0.2-0.3-0.5-0.5-0.8-0.8
	l0.3-0.3c0,0,0,0,0.1,0.1c0,0,0.1,0,0.1,0.1c0.2-0.4,0.4-0.7,0.5-1.1l0.4,0.2c-0.4,0.7-0.6,1.1-0.6,1.1c0.1,0.1,0.3,0.2,0.3,0.3
	c0.2-0.4,0.4-0.7,0.5-0.9l0.4,0.2c-0.4,0.8-0.8,1.3-1.1,1.8h0.8c-0.1-0.1-0.1-0.3-0.2-0.5l0.4-0.1c0.2,0.4,0.4,0.8,0.4,1.1l-0.4,0.2
	c0-0.1,0-0.2-0.1-0.3c-0.3,0-0.8,0.1-1.5,0.1L122.6,44.8z M125.3,44.7h0.3c0.2-0.3,0.4-0.5,0.5-0.7c-0.2-0.3-0.5-0.5-0.8-0.8
	l0.3-0.3c0,0,0,0,0.1,0.1l0.1,0.1c0.2-0.4,0.4-0.8,0.5-1.1l0.4,0.2c-0.3,0.5-0.4,0.8-0.6,1.1c0.2,0.2,0.3,0.3,0.3,0.3
	c0.2-0.4,0.4-0.7,0.5-0.9l0.4,0.2c-0.4,0.7-0.8,1.3-1.1,1.7l0.8-0.1c-0.1-0.2-0.1-0.3-0.2-0.4l0.4-0.1c0.3,0.4,0.4,0.8,0.5,1.1
	l-0.4,0.2c0-0.1,0-0.2-0.1-0.3c-0.3,0-0.6,0.1-1,0.1c-0.3,0-0.5,0-0.6,0L125.3,44.7z"/>
<path class="st0" d="M2.4,53.7l0.5-0.2c0.5,0.7,0.8,1.2,1,1.7l-0.5,0.2c0-0.1-0.1-0.3-0.2-0.5H3.1H3H2.9H2.8H2.7H2.6H2.4H2.3H2.2
	H1.9c-0.8,0-1.4,0.1-1.7,0.1v-0.5c0.2,0,0.4,0,0.6,0c0.3-0.5,0.5-1,0.7-1.6L2,53.1c-0.3,0.7-0.5,1.2-0.7,1.5l1.6-0.1
	C2.7,54.2,2.6,53.9,2.4,53.7z M3.4,55.7v3.6c0,0.3-0.1,0.4-0.2,0.5c0,0,0,0-0.1,0C2.9,60,2.6,60,2.1,60c0-0.2-0.1-0.4-0.2-0.5
	c0.3,0,0.6,0,0.8,0c0.1,0,0.1-0.1,0.1-0.1v-0.9H1.2V60H0.7v-4.3H3.4L3.4,55.7z M2.8,56.2H1.2v0.7h1.6C2.8,56.9,2.8,56.2,2.8,56.2z
	 M1.2,58h1.6v-0.7H1.2V58z M6.3,56.3H5c-0.4,0-0.7-0.1-0.8-0.3c-0.1-0.1-0.1-0.3-0.1-0.5V53h0.5v1.3C5.4,54,6,53.8,6.4,53.6L6.8,54
	c-0.5,0.3-1.2,0.5-2.2,0.8v0.8c0,0.1,0,0.2,0.1,0.3c0.1,0,0.1,0,0.3,0h1.2c0.1,0,0.3-0.1,0.3-0.2c0-0.1,0.1-0.4,0.1-0.7
	c0.1,0.1,0.3,0.2,0.5,0.2c0,0.5-0.1,0.9-0.3,1C6.8,56.3,6.6,56.3,6.3,56.3z M5.1,59.4h1.2c0.1,0,0.3-0.1,0.3-0.2
	c0-0.1,0.1-0.4,0.1-0.8c0.1,0.1,0.3,0.2,0.5,0.2c0,0.6-0.1,0.9-0.3,1.1c-0.1,0.1-0.3,0.2-0.6,0.2H5c-0.4,0-0.7-0.1-0.8-0.3
	c-0.1-0.1-0.1-0.3-0.1-0.5v-2.6h0.5v1.2c0.8-0.3,1.5-0.5,1.9-0.8l0.4,0.4c-0.5,0.3-1.2,0.5-2.2,0.8V59c0,0.1,0,0.3,0.1,0.3
	C4.8,59.4,4.9,59.4,5.1,59.4z"/>
<path class="st0" d="M10.6,55.5c0.6,0.5,1.1,1,1.6,1.6c0,0,0,0.1,0.1,0.1l-0.5,0.4c-0.5-0.7-1.1-1.2-1.7-1.7L10.6,55.5z"/>
<path class="st0" d="M15.3,57.7l0.8-0.3l0.1,0.5c-0.5,0.2-1.3,0.5-2.2,0.9l-0.2-0.6c0.2-0.1,0.5-0.2,0.9-0.3v-2.5H14v-0.5h0.8v-1.7
	h0.5v1.7H16v0.5h-0.7V57.7z M20.9,56.7v0.5h-2.1V60h-0.5v-2.7h-2.1v-0.5h2.1V54h-1.9v-0.5h4.3V54h-1.9v2.8L20.9,56.7L20.9,56.7z
	 M16.7,54.5l0.5-0.1c0.3,0.7,0.4,1.3,0.5,1.9l-0.5,0.1C17,55.8,16.9,55.2,16.7,54.5z M19.8,56.4l-0.4-0.1c0.2-0.6,0.4-1.2,0.5-1.9
	l0.5,0.1C20.1,55.4,19.9,56.1,19.8,56.4z"/>
<path class="st0" d="M22.3,54.8l0.5,0.1c-0.3,0.7-0.6,1.2-1.1,1.7l0,0c-0.1-0.1-0.3-0.2-0.4-0.3C21.7,55.9,22.1,55.4,22.3,54.8z
	 M24.7,58.9l-0.4,0.4c-0.2-0.3-0.4-0.7-0.8-1c-0.4,0.7-1,1.3-1.6,1.8c-0.1-0.2-0.3-0.3-0.4-0.4c0.7-0.4,1.2-1,1.7-1.7
	c-0.3-0.3-0.7-0.7-1.1-1l0.4-0.3c0.4,0.3,0.7,0.6,0.9,0.8c0.1-0.3,0.3-0.7,0.4-1.1l0.5,0.1c-0.1,0.5-0.3,1-0.5,1.4
	C24.1,58.1,24.5,58.5,24.7,58.9z M25.2,54v0.5h-3.8V54H23v-1h0.5v1H25.2z M24.9,56l-0.4,0.3c-0.2-0.4-0.4-0.8-0.8-1.2l0.4-0.2
	C24.5,55.2,24.8,55.6,24.9,56z M28.3,54.9h-0.5c-0.2,1.3-0.5,2.3-0.9,3.1c0.4,0.7,0.9,1.2,1.5,1.5c-0.1,0.1-0.3,0.3-0.4,0.5
	c-0.5-0.3-1-0.8-1.4-1.5c-0.5,0.6-1.1,1.1-1.8,1.5c-0.1-0.2-0.2-0.4-0.3-0.5c0.8-0.4,1.4-0.9,1.8-1.5c-0.3-0.6-0.5-1.2-0.7-2
	c-0.1,0.4-0.3,0.7-0.5,0.9c-0.1-0.1-0.3-0.3-0.5-0.4c0.5-0.8,0.9-1.9,1.2-3.5l0.5,0.1c-0.1,0.5-0.2,0.9-0.3,1.3h2.2L28.3,54.9
	L28.3,54.9z M26,54.9L26,54.9c0.1,1,0.3,1.8,0.6,2.4c0.3-0.7,0.5-1.5,0.7-2.4H26z"/>
<path class="st0" d="M35.1,58h-1.3c0.3,0.3,0.6,0.5,1,0.8s0.8,0.4,1.2,0.6c-0.2,0.1-0.3,0.3-0.4,0.5c-0.4-0.1-0.7-0.4-1.1-0.7
	c-0.4-0.3-0.7-0.5-1-0.9V60H33v-2h-1.1v2h-0.5v-1.6c-0.6,0.7-1.3,1.1-2,1.5c-0.1-0.1-0.2-0.3-0.4-0.4c0.4-0.1,0.7-0.3,1.1-0.6
	s0.7-0.5,0.9-0.8h-1.4v-0.5h1.7v-0.7H29v-0.5h2.3v-0.7h-1.6v-0.5h1.6v-0.7h-2.1V54H31c-0.2-0.3-0.4-0.5-0.7-0.8l0.5-0.2
	c0.4,0.3,0.7,0.6,0.8,0.9L31.3,54h2.1c0.3-0.3,0.5-0.7,0.8-1.1l0.6,0.2c-0.3,0.4-0.5,0.7-0.7,0.9h1.6v0.5h-2.2v0.7h1.6v1.1h0.8v0.5
	h-0.8L35.1,58L35.1,58z M31.9,54.5v0.7H33v-0.7H31.9z M31.9,55.7v0.7H33v-0.7H31.9z M31.9,57.5H33v-0.7h-1.1V57.5z M34.6,55.7h-1.1
	v0.7h1.1V55.7z M34.6,57.5v-0.7h-1.1v0.7H34.6z"/>
<path class="st0" d="M38.8,58.4l0.5,0.3c-0.5,0.4-1.3,0.8-2.1,1.2c-0.1,0-0.1,0-0.2,0.1c-0.1-0.1-0.3-0.3-0.4-0.4
	c0.7-0.3,1.4-0.6,1.9-1C38.6,58.5,38.6,58.4,38.8,58.4z M43.5,57.8v0.5h-6.8v-0.5h1.2v-4.4h4.5v4.4H43.5z M41.8,53.9h-3.4v0.7h3.4
	V53.9z M41.8,55.6v-0.7h-3.4v0.7H41.8z M41.8,56h-3.4v0.7h3.4V56z M38.4,57.1v0.7h3.4v-0.7H38.4z M40.9,58.7l0.4-0.4
	c0.9,0.4,1.6,0.8,2.3,1.2L43.1,60C42.5,59.6,41.7,59.1,40.9,58.7z"/>
<path class="st0" d="M45.5,53l0.6,0.1c-0.1,0.5-0.3,0.8-0.4,1.1H47v5h-2.1v0.6h-0.5v-5.6h0.9C45.4,53.7,45.4,53.3,45.5,53z
	 M46.5,56.3v-1.6h-1.6v1.6H46.5z M44.8,58.7h1.6v-1.8h-1.6V58.7z M50.7,54.2v0.3c-0.1,2.4-0.2,3.9-0.3,4.4c-0.1,0.3-0.1,0.5-0.2,0.6
	c-0.1,0.2-0.3,0.3-0.6,0.3l0,0c-0.2,0-0.6,0-1.1,0c0-0.2-0.1-0.4-0.2-0.5c0.3,0,0.7,0,1.1,0c0.1,0,0.3,0,0.3-0.1
	c0.2-0.2,0.3-0.9,0.4-2.2c0-0.6,0.1-1.3,0.1-2.3h-1.9c-0.3,0.6-0.5,1-0.7,1.3c-0.1-0.1-0.2-0.2-0.5-0.3c0.5-0.7,0.9-1.6,1.2-2.8
	l0.5,0.1c-0.1,0.4-0.2,0.7-0.3,1.1h2.2V54.2z M49.5,57.6L49,57.9c-0.2-0.4-0.6-1.1-1.2-1.7l0.4-0.3C48.9,56.6,49.3,57.2,49.5,57.6z"
	/>
<path class="st0" d="M53.1,56.3c0.1,0.1,0.1,0.2,0.2,0.3c0.1,0.1,0.2,0.3,0.3,0.4c0.1,0.1,0.2,0.3,0.3,0.4c0.1,0.1,0.1,0.2,0.2,0.3
	l-0.4,0.4c0-0.1-0.1-0.1-0.1-0.2c0-0.1-0.1-0.2-0.1-0.3c-0.1-0.1-0.1-0.2-0.2-0.3c-0.1-0.1-0.1-0.2-0.2-0.3v3h-0.5v-2.8
	c-0.1,0.4-0.3,0.7-0.4,1.1c-0.1,0.3-0.3,0.6-0.4,0.8c0-0.1-0.1-0.2-0.1-0.3c-0.1-0.1-0.1-0.2-0.1-0.3c0.1-0.1,0.2-0.3,0.3-0.5
	s0.2-0.4,0.3-0.6c0.1-0.2,0.2-0.4,0.3-0.7c0.1-0.2,0.1-0.4,0.2-0.7h-1v-0.5h1.1V53h0.5v2.5h0.8V56h-0.8v0.3H53.1z M52,55.3
	c0-0.1,0-0.3,0-0.4c0-0.1-0.1-0.3-0.1-0.4s-0.1-0.3-0.1-0.4c0-0.1-0.1-0.3-0.1-0.4l0.4-0.1c0.1,0.1,0.1,0.3,0.1,0.4
	c0,0.1,0.1,0.3,0.1,0.4c0,0.1,0.1,0.3,0.1,0.4c0,0.1,0,0.3,0.1,0.4L52,55.3z M53.2,55.2c0-0.1,0.1-0.2,0.1-0.4
	c0.1-0.1,0.1-0.3,0.1-0.4s0.1-0.3,0.1-0.5c0-0.1,0.1-0.3,0.1-0.4l0.5,0.1c0,0.1-0.1,0.3-0.1,0.4c0,0.1-0.1,0.3-0.1,0.5
	c0,0.1-0.1,0.3-0.1,0.4s-0.1,0.3-0.1,0.4L53.2,55.2z M58.5,55.5v0.4h-4.3v-0.4H56V55h-1.4v-0.4H56v-0.5h-1.6v-0.4H56V53h0.5v0.6h1.7
	V54h-1.7v0.5h1.6v0.4h-1.6v0.5L58.5,55.5L58.5,55.5z M58,59.4c0,0.1,0,0.3,0,0.3c0,0.1-0.1,0.1-0.2,0.2c-0.1,0-0.2,0.1-0.4,0.1
	c-0.1,0-0.4,0-0.6,0c0-0.1,0-0.1-0.1-0.3c0-0.1-0.1-0.2-0.1-0.3c0.2,0,0.3,0,0.5,0s0.2,0,0.3,0s0.1,0,0.1,0s0,0,0-0.1v-0.7h-2.2v1.2
	h-0.5v-3.6h3.3L58,59.4L58,59.4z M55.2,56.8v0.5h2.2v-0.5H55.2z M57.4,58.3v-0.6h-2.2v0.6H57.4z"/>
<path class="st0" d="M61.9,59.2c-0.5,0.3-1.2,0.6-2.2,0.8c-0.1,0-0.2,0-0.4,0.1c-0.1-0.1-0.2-0.3-0.3-0.4c0.8-0.1,1.5-0.3,2.1-0.6
	c0.1-0.1,0.2-0.1,0.3-0.1H60v-2.4h5V59h-1.6c1,0.3,1.9,0.5,2.6,0.8L65.4,60c-0.7-0.3-1.5-0.5-2.4-0.8l0.4-0.3h-1.9L61.9,59.2z
	 M60.3,55.5h-1.1V55h1.2l0.1-0.7h4.4V55H66v0.4h-1.2l-0.1,0.7h-4.5L60.3,55.5z M59.8,54.8h-0.5v-1.2h2.9V53h0.5v0.5h2.9v1.2h-0.5V54
	h-5.3V54.8L59.8,54.8z M64.4,56.8h-3.8v0.3h3.8V56.8z M64.4,57.5h-3.8v0.4h3.8V57.5z M64.4,58.2h-3.8v0.4h3.8V58.2z M62.2,55.4h-1.4
	v0.4h1.4C62.1,55.7,62.2,55.6,62.2,55.4z M62.2,54.9c0-0.1,0-0.1,0-0.2h-1.4v0.4h1.4C62.2,55,62.2,55,62.2,54.9z M62.6,55.8h1.5
	v-0.4h-1.5C62.6,55.6,62.6,55.7,62.6,55.8z M62.7,54.7v0.4h1.5v-0.4H62.7z"/>
<path class="st0" d="M70.2,59.2h3.1v0.5h-6.7v-0.5h3v-1.5h-2.3v-0.5h5.3v0.5h-2.4V59.2z M70.5,54.3h-1.1c-0.1,0.8-0.3,1.3-0.6,1.7
	c-0.4,0.4-0.9,0.7-1.8,0.9c-0.1-0.2-0.2-0.3-0.3-0.5c0.9-0.2,1.5-0.5,1.8-0.9c0.2-0.3,0.3-0.7,0.4-1.2h-1.5v1h-0.5v-1.5h2.9V53h0.6
	v0.8h3v1.4h-0.6v-0.8h-1.5v1.5c0,0.1,0,0.2,0.1,0.2c0,0,0.1,0,0.2,0h1c0.1,0,0.2,0,0.2-0.1s0-0.3,0-0.5c0.1,0.1,0.3,0.1,0.5,0.2
	c0,0.4-0.1,0.7-0.3,0.8c-0.1,0.1-0.3,0.1-0.4,0.1h-1.1c-0.4,0-0.6-0.1-0.7-0.2c-0.1-0.1-0.1-0.3-0.1-0.5L70.5,54.3L70.5,54.3z"/>
<path class="st0" d="M77,55.9h-2.2v4h-0.6v-6.7H77V55.9z M76.4,53.8h-1.6v0.6h1.6V53.8z M74.8,55.5h1.6v-0.7h-1.6V55.5z M78.7,59.3
	h-2.3v0.4h-0.5v-3.2h2.8V59.3z M78.2,56.9h-1.8v0.7h1.8V56.9z M76.4,58.8h1.8v-0.7h-1.8V58.8z M80.5,53.3v5.9c0,0.3-0.1,0.5-0.3,0.6
	c0,0,0,0-0.1,0C79.9,60,79.5,60,78.9,60c0-0.2-0.1-0.4-0.2-0.6c0.4,0,0.8,0,1.1,0c0.1,0,0.2-0.1,0.2-0.2V56h-2.3v-2.6h2.8V53.3z
	 M79.9,53.8h-1.7v0.6h1.7V53.8z M78.2,55.5h1.7v-0.7h-1.7V55.5z"/>
<path class="st0" d="M85,56.8h-0.6v-1h1v0.8c0,0.5-0.2,0.9-0.7,1.2c-0.1,0-0.1,0.1-0.1,0.1l-0.2-0.3C84.8,57.4,85,57.1,85,56.8z"/>
<path class="st0" d="M88.7,55.7v-1c-0.2,0.3-0.5,0.5-0.7,0.7c-0.2-0.2-0.3-0.3-0.5-0.4c0.6-0.4,1.1-1,1.5-1.7
	c0.1-0.1,0.1-0.2,0.1-0.3l0.5,0.1c-0.1,0.2-0.3,0.5-0.4,0.7H94v0.5h-0.8v1.3h1.1v0.5h-1.1v1.3h0.9V58h-6.6v-0.5h0.9v-1.3h-1.1v-0.5
	H88.7z M88.1,60l-0.5-0.2c0.4-0.3,0.7-0.7,0.9-1.3c0-0.1,0-0.1,0.1-0.2l0.5,0.1c-0.2,0.6-0.5,1.1-0.9,1.5C88.2,60,88.1,60,88.1,60z
	 M89.2,54.4v1.3H90v-1.3H89.2z M89.2,56.2v1.3H90v-1.3H89.2z M89.8,58.5h0.5c0.1,0.6,0.2,1.1,0.2,1.4H90C90,59.5,90,59,89.8,58.5z
	 M90.5,55.7h0.9v-1.3h-0.9V55.7z M91.4,56.2h-0.9v1.3h0.9V56.2z M91.4,58.5l0.5-0.1c0.2,0.5,0.4,0.9,0.5,1.4l-0.5,0.1
	C91.8,59.5,91.6,59.1,91.4,58.5z M92.8,55.7v-1.3h-0.9v1.3H92.8z M92.8,57.5v-1.3h-0.9v1.3H92.8z M92.9,58.5l0.5-0.2
	c0.5,0.6,0.8,1.1,1.1,1.5L93.9,60C93.8,59.6,93.4,59.1,92.9,58.5C93,58.5,93,58.5,92.9,58.5z"/>
<path class="st0" d="M97.6,54.3v0.5H95v-0.5H97.6z M97.4,57.3v2.2h-1.6v0.4h-0.5v-2.5h2.1V57.3z M95.3,55.7v-0.5h2v0.5H95.3z
	 M95.3,56.8v-0.5h2v0.5H95.3z M97.3,53.3v0.5h-2v-0.5H97.3z M96.9,57.8h-1.1v1.3h1.1V57.8z M99.5,53h0.5c0.4,0.7,1,1.2,1.6,1.7
	c0.2,0.1,0.3,0.2,0.5,0.3c-0.1,0.1-0.2,0.3-0.3,0.5c-0.6-0.4-1.2-0.9-1.7-1.5c-0.1-0.2-0.3-0.3-0.4-0.5c-0.4,0.6-0.8,1.1-1.5,1.7
	c-0.2,0.1-0.4,0.3-0.5,0.4c-0.1-0.2-0.2-0.3-0.3-0.5c0.6-0.4,1.2-0.9,1.6-1.5C99.2,53.5,99.3,53.2,99.5,53z M101.7,56.2v3.2
	c0,0.2-0.1,0.4-0.2,0.5s-0.4,0.1-0.7,0.1c0-0.2-0.1-0.3-0.1-0.5h0.5c0.1,0,0.1,0,0.1-0.1v-1.2h-0.7v1.6h-0.4v-1.6h-0.7v1.6H99v-1.6
	h-0.7V60h-0.5v-3.7L101.7,56.2L101.7,56.2z M98.4,57.8H99v-1.1h-0.7L98.4,57.8L98.4,57.8z M98.5,55.1h2.6v0.5h-2.6V55.1z M99.4,57.8
	h0.7v-1.1h-0.7V57.8z M100.5,57.8h0.7v-1.1h-0.7V57.8z"/>
<path class="st0" d="M109.3,58.4v0.5h-3.1V60h-0.6v-1.1h-3.1v-0.5h3.1v-0.6h-2.3v-2.7h5.3v2.7h-2.4v0.6H109.3z M105.6,53.3v1.5h-2.5
	v-1.5H105.6z M105,54.4v-0.7h-1.5v0.7H105z M103.8,55.6v0.7h1.7v-0.7H103.8z M103.8,57.4h1.7v-0.7h-1.7V57.4z M108,56.3v-0.7h-1.8
	v0.7H108z M108,57.4v-0.7h-1.8v0.7H108z M108.7,53.3v1.5h-2.5v-1.5H108.7z M108.2,54.4v-0.7h-1.5v0.7H108.2z"/>
<path class="st0" d="M116,55.5l0.5,0.3c-0.4,0.5-0.8,1-1.3,1.5v2c0,0.3-0.1,0.5-0.3,0.7c0,0-0.1,0-0.1,0.1c-0.2,0.1-0.7,0.1-1.5,0.1
	c0-0.2-0.1-0.4-0.2-0.6c0.5,0,1,0,1.4,0c0.1,0,0.2,0,0.2-0.1c0,0,0,0,0-0.1v-1.5c-1.2,0.9-2.8,1.7-4.6,2.3c-0.1-0.2-0.3-0.4-0.4-0.5
	c1.5-0.4,2.8-1,3.9-1.7c-1.9,0.1-3.2,0.3-3.8,0.3l-0.1-0.6c0.1,0,0.5,0,1.2-0.1V54h1.6c0.1-0.3,0.3-0.6,0.3-0.8l0.7,0.1
	c-0.1,0.2-0.2,0.4-0.4,0.7h2.1v2.6C115.6,56.1,115.8,55.8,116,55.5z M114.7,54.3h-3.1V55h3.1V54.3z M114.7,56.1v-0.7h-3.1v0.7H114.7
	z M111.6,56.5v0.8c0.6,0,1.6-0.1,2.9-0.2c0.1-0.1,0.2-0.2,0.3-0.3v-0.4h-3.2V56.5z"/>
<path class="st0" d="M121,59.4h1.6c0.2,0,0.4-0.1,0.4-0.2c0.1-0.1,0.1-0.5,0.1-0.9c0.1,0.1,0.3,0.2,0.5,0.3c0,0.6-0.1,1-0.3,1.2
	c-0.1,0.2-0.4,0.3-0.8,0.3H121c-0.5,0-0.8-0.1-1-0.3c-0.1-0.1-0.2-0.4-0.2-0.7v-1.4l-2.7,0.3l-0.1-0.5l2.8-0.3v-1.1
	c-0.7,0.1-1.4,0.3-1.9,0.3c0-0.2-0.1-0.3-0.2-0.5c2-0.3,3.4-0.7,4.2-1.1l0.5,0.5c-0.5,0.2-1.2,0.4-2,0.6V57l3.3-0.4l0.1,0.5
	l-3.4,0.4V59c0,0.2,0,0.3,0.1,0.3C120.7,59.4,120.9,59.4,121,59.4z M117.9,54.3v1.1h-0.6v-1.6h2.9V53h0.6v0.8h2.9v1.6h-0.6v-1.1
	H117.9z"/>
<path class="st0" d="M127.4,55.5c0.6,0.5,1.1,1,1.6,1.6c0,0,0,0.1,0.1,0.1l-0.5,0.4c-0.5-0.7-1.1-1.2-1.7-1.7L127.4,55.5z"/>
<path class="st0" d="M7,65.1H3.9V66h2.8v4.3c0,0.3-0.1,0.4-0.2,0.5H6.4c-0.2,0.1-0.6,0.1-1.2,0.1c0-0.2-0.1-0.3-0.2-0.5
	c0.4,0,0.8,0,0.9,0S6,70.3,6,70.3v-3.8H3.9V71H3.4v-4.4H1.2v4.5H0.7v-5h2.7v-0.9h-3v-0.5H7V65.1z M1.8,67.2h0.9c0,0.8,0.1,1.5,0.3,2
	c0.1,0.2,0.2,0.4,0.4,0.5c-0.1,0.1-0.2,0.1-0.3,0.3c-0.3-0.4-0.5-0.8-0.6-1.4c-0.2,0.6-0.4,1.1-0.8,1.4c-0.1-0.1-0.2-0.2-0.3-0.3
	c0.5-0.4,0.8-1.2,0.9-2.1H1.7L1.8,67.2L1.8,67.2z M4.4,67.2h0.9c0,0.8,0.1,1.5,0.3,1.9c0.1,0.2,0.3,0.4,0.4,0.6
	c-0.1,0.1-0.3,0.1-0.3,0.3c-0.3-0.4-0.5-0.8-0.7-1.4c-0.2,0.6-0.4,1-0.8,1.4c-0.1-0.1-0.2-0.2-0.3-0.3c0.4-0.4,0.7-1.1,0.9-2.1H4.4
	V67.2z"/>
<path class="st0" d="M10.7,64.3h0.6c0,0,0,0.1,0,0.2s0,0.1,0,0.2c0.1,1.3,0.4,2.5,0.9,3.5c0.6,1.1,1.4,1.9,2.4,2.3
	c-0.2,0.1-0.3,0.3-0.4,0.5c-1.5-0.7-2.4-2-3-3.8c-0.1-0.2-0.1-0.4-0.2-0.6c-0.4,2.1-1.4,3.6-3,4.4c-0.1-0.2-0.3-0.3-0.5-0.4
	c1.9-1,3-2.9,3.1-5.9c0,0,0-0.1,0-0.2C10.7,64.4,10.7,64.4,10.7,64.3z"/>
<path class="st0" d="M22.1,67.7h-2.5v0.9h1.9V71H21v-0.3h-3.2V71h-0.5v-2.4H19v-0.9h-2.3v-0.5H19v-0.8h-2.4v0.4c0,2-0.3,3.4-0.9,4.4
	c-0.1-0.1-0.3-0.2-0.5-0.3c0.5-0.8,0.8-2.1,0.8-3.7c0-0.1,0-0.2,0-0.3v-2.2h5.6v1.9h-2v0.8h2.5V67.7L22.1,67.7z M16.6,65v0.8H21V65
	H16.6z M21,70.3v-1.2h-3.2v1.2H21z"/>
<path class="st0" d="M25.6,66.6c0.6,0.5,1.1,1,1.6,1.6c0,0,0,0.1,0.1,0.1l-0.5,0.4c-0.5-0.7-1.1-1.2-1.7-1.7L25.6,66.6z"/>
<path class="st0" d="M37.1,67.4v0.4h-6.8v-0.4h3.1V67H31v-0.4h2.4v-0.4h-2.6v-0.4h2.6v-0.3H34v0.3h2.7v0.4H34v0.4h2.5V67H34v0.4
	H37.1z M32.1,65h-1.7v-0.5h1.7V64h0.5v0.5h2.1V64h0.5v0.5H37V65h-1.8v0.5h-0.5V65h-2.1v0.5h-0.5V65z M36.2,70.5c0,0.1,0,0.3-0.1,0.3
	S36,71,35.9,71s-0.2,0-0.3,0.1c-0.1,0-0.3,0-0.5,0h-0.4c0-0.1,0-0.1-0.1-0.2c0-0.1-0.1-0.1-0.1-0.2c0.2,0,0.4,0,0.6,0
	c0.2,0,0.3,0,0.4,0c0.1,0,0.1,0,0.1-0.1v-0.4h-3.8v1h-0.5v-2.9h4.9C36.2,68.3,36.2,70.5,36.2,70.5z M31.8,68.6V69h3.8v-0.4H31.8z
	 M35.7,69.8v-0.4h-3.8v0.4H35.7z"/>
<path class="st0" d="M44.6,68.9h-2.8c0.5,0.9,1.6,1.5,3,1.7c-0.1,0.1-0.2,0.3-0.4,0.5c-1.4-0.3-2.3-0.8-2.9-1.6
	c-0.1-0.1-0.1-0.3-0.2-0.4c-0.3,0.8-1.2,1.4-2.6,1.8C38.5,71,38.2,71,38,71.1c-0.1-0.2-0.2-0.4-0.3-0.5c1.5-0.3,2.5-0.9,2.9-1.6
	l0.1-0.1h-2.8v-0.5h0.8v-1.8H41v-0.9h0.6v0.9H44v1.8h0.8L44.6,68.9L44.6,68.9z M39.5,66.1v-0.8h-1.6v-0.5h1.6v-0.7H40v0.7h2.2v-0.7
	h0.5v0.7h1.6v0.5h-1.6v0.8h-0.5v-0.8H40v0.8H39.5z M39.2,68.4h1.7c0-0.1,0-0.3,0-0.5v-0.7h-1.7V68.4z M43.2,67.1h-1.8v0.7
	c0,0.2,0,0.4,0,0.5h1.8V67.1z"/>
<path class="st0" d="M51.3,66.8l0.4,0.4c-0.4,0.3-0.9,0.7-1.6,1.1c0.5,0.8,1.2,1.4,2,1.7c-0.1,0.1-0.3,0.3-0.4,0.5
	c-1.4-0.6-2.3-1.9-2.8-3.9c-0.2,0.2-0.5,0.3-0.8,0.5c0.6,0.5,1,1.2,1.2,2c0.1,0.6,0.1,1.1-0.2,1.5c-0.1,0.1-0.1,0.2-0.3,0.3
	c-0.3,0.2-0.5,0.3-0.8,0.3c-0.2,0-0.4,0-0.7,0c0-0.2-0.1-0.4-0.2-0.5c0.3,0,0.5,0,0.7,0c0.3,0,0.4,0,0.5-0.1
	c0.2-0.2,0.3-0.5,0.3-0.9c0-0.2,0-0.3-0.1-0.5c-0.7,0.6-1.5,1.1-2.5,1.5c-0.2,0.1-0.4,0.2-0.7,0.3c-0.1-0.2-0.2-0.4-0.3-0.5
	c0.9-0.2,1.7-0.6,2.5-1.1c0.3-0.2,0.6-0.4,0.8-0.6c0-0.1-0.1-0.3-0.3-0.5c-0.6,0.4-1.3,0.8-2.2,1.2c-0.1,0-0.2,0.1-0.3,0.1
	c-0.1-0.2-0.2-0.3-0.3-0.4c0.7-0.2,1.4-0.5,2.1-0.9c0.2-0.1,0.3-0.2,0.4-0.3c-0.1-0.1-0.2-0.3-0.4-0.3c-0.5,0.3-1.2,0.5-1.9,0.7
	c-0.1-0.2-0.2-0.3-0.3-0.4c1.1-0.3,2-0.6,2.7-1.1h-1.7V66h4.3v0.5H49c0.1,0.4,0.3,0.9,0.5,1.3C50.5,67.5,50.9,67.2,51.3,66.8z
	 M46.1,65.3v1h-0.5v-1.5h2.8v-0.7H49v0.7h2.9v1.5h-0.6v-1H46.1z"/>
<path class="st0" d="M53.7,65.3V67c0,1.8-0.2,3.2-0.7,4c-0.1-0.1-0.3-0.2-0.4-0.3l0,0c0.4-0.8,0.6-1.9,0.6-3.5c0-0.1,0-0.1,0-0.2
	v-2.3h2.9V64h0.6v0.7h2.9v0.5h-5.9V65.3z M55.8,67.5l0.3,0.1c-0.1,0.9-0.4,1.7-0.8,2.3c0.4,0.4,1.1,0.5,2,0.6c0.1,0,0.1,0,0.2,0
	c1.2,0,1.9,0,2.1,0c-0.1,0.1-0.1,0.3-0.2,0.5h-1.9c-0.9,0-1.7-0.1-2.2-0.4c-0.1-0.1-0.3-0.1-0.4-0.3c-0.3,0.3-0.6,0.6-1,0.8
	c-0.1-0.1-0.2-0.3-0.4-0.4c0.4-0.2,0.7-0.5,1-0.8c-0.3-0.3-0.4-0.8-0.6-1.3l0.4-0.1c0.1,0.4,0.3,0.8,0.5,1.1
	c0.3-0.4,0.4-0.9,0.5-1.5h-0.9l-0.1,0.3l-0.4-0.1c0.4-0.5,0.7-1.1,1.1-1.7h-1.1v-0.5h1.4h0.1l0.4,0.1c-0.3,0.6-0.6,1.1-0.9,1.6h0.8
	L55.8,67.5z M56.2,69.2v0.5h3.3v-0.5h-1.4V68h1.1v-0.5h-1.1v-1.1c0.2,0,0.4-0.1,0.6-0.1c0.2,0,0.4-0.1,0.5-0.1l-0.3-0.4
	c-0.1,0.1-0.3,0.1-0.5,0.2c-0.2,0-0.4,0.1-0.7,0.1c-0.2,0-0.5,0.1-0.7,0.1c-0.3,0-0.5,0.1-0.7,0.1c0,0.1,0.1,0.1,0.1,0.2
	s0,0.1,0.1,0.2c0.2,0,0.4,0,0.5-0.1c0.2,0,0.4,0,0.6-0.1v0.9h-1.1v0.5h1.1v1.2L56.2,69.2L56.2,69.2z"/>
<path class="st0" d="M63,66.6c0.6,0.5,1.1,1,1.6,1.6c0,0,0,0.1,0.1,0.1l-0.5,0.4c-0.5-0.7-1.1-1.2-1.7-1.7L63,66.6z"/>
<path class="st0" d="M69.7,70.6c-0.8,0-1.4-0.3-2-0.8l0.4-0.5c0.4,0.4,0.9,0.7,1.4,0.7c0.1,0,0.1,0,0.1,0c0.5,0,0.9-0.1,1.1-0.5
	c0.1-0.1,0.1-0.3,0.1-0.4s0-0.3-0.1-0.4s-0.1-0.2-0.2-0.3c-0.1-0.1-0.2-0.1-0.3-0.2c-0.1-0.1-0.2-0.1-0.4-0.2L69,67.6
	c-0.7-0.4-1.1-0.8-1.1-1.4c0-0.5,0.2-0.9,0.6-1.2c0.3-0.2,0.7-0.3,1.2-0.3c0.6,0,1.1,0.2,1.6,0.6c0,0,0,0,0.1,0.1L71,66
	c-0.4-0.4-0.8-0.5-1.3-0.5s-0.8,0.1-0.9,0.4c-0.1,0.1-0.1,0.3-0.1,0.4c0,0.3,0.2,0.6,0.5,0.8c0.1,0,0.2,0.1,0.4,0.2l0.8,0.3
	c0.5,0.2,0.9,0.5,1,0.8c0.1,0.2,0.1,0.4,0.1,0.7c0,0.5-0.2,0.9-0.6,1.2C70.6,70.5,70.2,70.6,69.7,70.6z"/>
<path class="st0" d="M74.6,70.6c-0.8,0-1.4-0.3-1.8-0.9c-0.4-0.5-0.6-1.2-0.6-2c0-1,0.3-1.8,0.8-2.3c0.4-0.4,0.9-0.6,1.5-0.6
	c0.8,0,1.4,0.3,1.8,0.9c0.4,0.5,0.6,1.2,0.6,2c0,1-0.3,1.8-0.8,2.3C75.7,70.4,75.2,70.6,74.6,70.6z M74.6,70c0.6,0,1-0.3,1.3-0.8
	c0.2-0.4,0.4-0.9,0.4-1.5c0-0.9-0.2-1.5-0.7-1.9c-0.3-0.2-0.6-0.4-1-0.4c-0.6,0-1.1,0.3-1.4,0.8c-0.2,0.4-0.3,0.9-0.3,1.5
	c0,0.9,0.2,1.5,0.7,1.9C73.9,69.9,74.2,70,74.6,70z"/>
<path class="st0" d="M78,70.5v-5.6h0.7v2.4h2.6v-2.4H82v5.6h-0.7v-2.7h-2.6v2.7H78z"/>
<path class="st0" d="M85.4,70.6c-0.8,0-1.4-0.3-1.8-0.9c-0.4-0.5-0.6-1.2-0.6-2c0-1,0.3-1.8,0.8-2.3c0.4-0.4,0.9-0.6,1.5-0.6
	c0.8,0,1.4,0.3,1.8,0.9c0.4,0.5,0.6,1.2,0.6,2c0,1-0.3,1.8-0.8,2.3C86.6,70.4,86,70.6,85.4,70.6z M85.4,70c0.6,0,1-0.3,1.3-0.8
	c0.2-0.4,0.4-0.9,0.4-1.5c0-0.9-0.2-1.5-0.7-1.9c-0.3-0.2-0.6-0.4-1-0.4c-0.6,0-1.1,0.3-1.4,0.8c-0.2,0.4-0.3,0.9-0.3,1.5
	c0,0.9,0.2,1.5,0.7,1.9C84.7,69.9,85,70,85.4,70z"/>
<path class="st0" d="M92,64.2h0.5c0.7,0.5,1.2,1,1.6,1.4l0,0L93.7,66c-0.4-0.5-0.9-0.9-1.4-1.3c0,0,0,0-0.1,0
	c-0.3,0.4-0.5,0.7-0.8,0.9h1.8V66h-1.8v-0.3c-0.3,0.3-0.7,0.6-1.1,0.9c-0.1-0.1-0.2-0.3-0.3-0.4l0,0c0.8-0.5,1.4-1.1,1.9-1.8
	C91.9,64.3,91.9,64.3,92,64.2z M93.8,68.5h-2.6c0,0.1,0,0.3-0.1,0.5h2.7v2h-0.5v-0.3h-1.8V71H91v-2c-0.1,0.7-0.4,1.3-0.8,1.8
	c-0.1-0.1-0.2-0.2-0.3-0.3l0,0c0.5-0.7,0.8-1.6,0.8-2.8v-0.1v-1.2h3v2.1H93.8z M91.3,68.1h2v-0.4h-2C91.3,67.8,91.3,68,91.3,68.1z
	 M93.3,66.8h-2v0.4h2V66.8z M93.4,69.4h-1.8v0.9h1.8V69.4z M95,65v4.2h-0.5V65H95z M96.1,64.3h0.5v6.1c0,0.3-0.1,0.5-0.3,0.6
	c0,0,0,0-0.1,0c-0.2,0.1-0.7,0.1-1.3,0.1c0-0.1-0.1-0.4-0.2-0.6c0.5,0,0.8,0,1.1,0c0.1,0,0.2-0.1,0.2-0.2v-6H96.1z"/>
<path class="st0" d="M104.3,69.3h-2.6c0.6,0.5,1.4,0.8,2.3,1.1c0.1,0,0.3,0.1,0.4,0.1c-0.2,0.2-0.3,0.3-0.4,0.5
	c-0.9-0.3-1.8-0.7-2.5-1.2c-0.1-0.1-0.3-0.2-0.4-0.3v1.7h-0.5v-1.6c-0.6,0.5-1.4,1-2.4,1.3C98.1,71,97.9,71,97.8,71
	c-0.1-0.1-0.2-0.3-0.4-0.5c0.9-0.2,1.7-0.5,2.4-1c0.1-0.1,0.2-0.1,0.3-0.2h-2.5v-0.5h3v-0.6h-2.3v-0.4h2.3v-0.5H98v-0.5h1.7
	c-0.1-0.2-0.2-0.5-0.4-0.8h0.3h-1.9v-0.5h1.2c-0.1-0.3-0.3-0.7-0.6-1.1l0.5-0.2c0.3,0.4,0.5,0.8,0.7,1.1L99,65.5h0.9v-1.3h0.5v1.3
	h0.9v-1.3h0.5v1.3h0.9l-0.3-0.1c0.2-0.4,0.4-0.8,0.6-1.2l0.6,0.1c-0.3,0.5-0.5,0.9-0.7,1.1h1.2V66h-1.5c-0.1,0.3-0.3,0.5-0.5,0.8
	h1.8v0.5h-2.8v0.5h2.4v0.4h-2.4v0.6h3.1v0.5H104.3z M102.1,65.9h-2.3c0.2,0.3,0.3,0.5,0.4,0.8h-0.3h1.8h-0.1
	C101.9,66.4,102,66.2,102.1,65.9z"/>
<path class="st0" d="M107.9,66.6c0.6,0.5,1.1,1,1.6,1.6c0,0,0,0.1,0.1,0.1l-0.5,0.4c-0.5-0.7-1.1-1.2-1.7-1.7L107.9,66.6z"/>
<path class="st0" d="M115.4,65.3h3.9v0.5h-4.2c-0.3,0.6-0.6,1.1-0.9,1.6v3.7h-0.5v-3c-0.3,0.3-0.5,0.5-0.9,0.8
	c-0.1-0.1-0.1-0.3-0.3-0.5c0.8-0.6,1.5-1.4,2-2.5h-1.8v-0.5h2.1c0.1-0.4,0.3-0.8,0.4-1.2l0.6,0.1C115.7,64.5,115.5,64.9,115.4,65.3z
	 M117.3,68.2v2.1h2v0.5h-4.6v-0.5h2v-2.1H115v-0.5h1.7v-1.5h0.6v1.5h1.7v0.5H117.3z"/>
<path class="st0" d="M123.9,70.5h1.6c0.2,0,0.4-0.1,0.4-0.2c0.1-0.1,0.1-0.5,0.1-0.9c0.1,0.1,0.3,0.2,0.5,0.3c0,0.6-0.1,1-0.3,1.2
	c-0.1,0.2-0.4,0.3-0.8,0.3h-1.7c-0.5,0-0.8-0.1-1-0.3c-0.1-0.1-0.2-0.4-0.2-0.7v-1.4L120,69l-0.1-0.5l2.8-0.3V67
	c-0.7,0.1-1.4,0.3-1.9,0.3c0-0.2-0.1-0.3-0.2-0.5c2-0.3,3.4-0.7,4.2-1.1l0.5,0.5c-0.5,0.2-1.2,0.4-2,0.6V68l3.3-0.4l0.1,0.5
	l-3.4,0.4V70c0,0.2,0,0.3,0.1,0.3C123.5,70.5,123.7,70.5,123.9,70.5z M120.7,65.4v1.1h-0.6v-1.6h2.9v-0.8h0.6v0.8h2.9v1.6h-0.6v-1.1
	H120.7z"/>
<path class="st0" d="M2.6,79.5V80c-0.1,0-0.3,0-0.5,0.1c-0.2,0-0.4,0.1-0.5,0.1c-0.1,0.9-0.4,1.6-1.1,2c-0.1-0.1-0.2-0.3-0.4-0.4
	c0.5-0.3,0.8-0.9,0.9-1.6c-0.1,0-0.4,0.1-0.9,0.1L0,79.8c0.2,0,0.6-0.1,1-0.1v-1H0v-0.5h2.4v0.5H1.6v0.9L2.6,79.5z M2.5,76.2v0.5
	H0.3v-0.5h0.9v-1h0.5v1H2.5z M1.2,78.1l-0.4,0.1c0-0.4-0.1-0.8-0.3-1.2l0.4-0.1C1.1,77.3,1.2,77.7,1.2,78.1z M2,78.2l-0.4-0.1
	c0.1-0.5,0.3-0.9,0.3-1.3l0.5,0.1C2.2,77.6,2.1,78,2,78.2z M4.5,77v0.3c0,2.4-0.1,3.8-0.1,4.2c0,0.2-0.1,0.3-0.1,0.4
	C4.2,82,4.1,82,3.9,82.1c-0.1,0-0.4,0-0.6,0c0-0.2,0-0.4-0.1-0.5c0.1,0,0.3,0,0.5,0c0.1,0,0.1,0,0.2-0.1s0.1-1.1,0.2-2.9
	c0-0.3,0-0.7,0-1.2H3.6c-0.1,1.7-0.3,3-0.7,3.9c-0.1,0.3-0.3,0.6-0.4,0.8c-0.1-0.1-0.2-0.2-0.4-0.3c0.5-0.8,0.9-2,1-3.6
	c0-0.3,0-0.5,0-0.8H2.6V77h0.5c0-0.4,0-0.9,0-1.7h0.5c0,0.6,0,1.2,0,1.7H4.5L4.5,77z M7.2,78.7h-1v1.1h0.9v0.5H6.2v1.9H5.6v-1.9H4.7
	v-0.5h0.9v-1.1h-1v-0.5h2.6V78.7z M7.1,76.2v0.5H4.7v-0.5h0.9v-1h0.5v1H7.1z M5.6,78.1l-0.4,0.1c0-0.4-0.1-0.8-0.3-1.3l0.4-0.1
	C5.5,77.3,5.6,77.7,5.6,78.1z M6.5,78.2l-0.4-0.1c0.2-0.5,0.3-1,0.3-1.3l0.5,0.1C6.7,77.5,6.6,77.9,6.5,78.2z"/>
<path class="st0" d="M9.5,76.3l0.6,0.2c-0.4,0.8-0.9,1.5-1.5,2c-0.1,0.1-0.3,0.2-0.4,0.3c-0.2-0.2-0.3-0.3-0.4-0.4
	c0.5-0.4,1-0.9,1.4-1.6C9.3,76.7,9.4,76.5,9.5,76.3z M12.2,79.6l0.5-0.3c0.7,0.8,1.2,1.5,1.7,2.3c0.1,0.1,0.1,0.2,0.2,0.3l-0.5,0.3
	c-0.1-0.1-0.2-0.3-0.4-0.6c-2.8,0.1-4.6,0.2-5.4,0.3l-0.1-0.6c0.2,0,0.5,0,1.1,0c0.5-0.9,0.9-1.9,1.4-3.1c0-0.1,0.1-0.2,0.1-0.3
	l0.7,0.2c-0.5,1.2-1,2.3-1.5,3.2c0.1,0,1.3-0.1,3.4-0.1C13,80.6,12.6,80.1,12.2,79.6z M10,75.5h2.8c0.3,0.8,0.8,1.6,1.4,2.2
	c0.2,0.2,0.4,0.4,0.6,0.6c-0.2,0.1-0.4,0.3-0.5,0.4c-0.6-0.5-1.2-1.2-1.7-2.1c-0.1-0.1-0.2-0.3-0.3-0.5H10V75.5L10,75.5z"/>
<path class="st0" d="M19,79h-0.6v-1h1v0.8c0,0.5-0.2,0.9-0.7,1.2c-0.1,0-0.1,0.1-0.1,0.1l-0.2-0.3C18.8,79.6,19,79.3,19,79z"/>
<path class="st0" d="M26.2,77.5V78c-0.7,0.1-1.8,0.3-3.3,0.5l0-0.5c0.3,0,0.5-0.1,0.8-0.1v-2.7h0.5v0.9H26v0.5h-1.8v1.2
	C24.4,77.8,25.1,77.7,26.2,77.5z M25.9,78.2l0.6,0.1c0,0.1-0.1,0.2-0.2,0.4c-0.1,0.1-0.1,0.2-0.1,0.3h2.6v3.2h-0.6V82h-3.7v0.3H24
	V79h1.6C25.8,78.6,25.9,78.4,25.9,78.2z M28.2,80.2v-0.8h-3.7v0.8H28.2z M24.5,81.4h3.7v-0.8h-3.7V81.4z M27.6,77.9h1.2
	c0.1,0,0.3,0,0.3-0.1s0.1-0.3,0.1-0.6c0.1,0.1,0.3,0.1,0.5,0.2c0,0.5-0.1,0.8-0.3,0.9c-0.1,0.1-0.3,0.1-0.5,0.1h-1.4
	c-0.4,0-0.7-0.1-0.8-0.2c-0.1-0.1-0.1-0.3-0.1-0.5v-2.4h0.5v1.2c0.8-0.3,1.4-0.5,1.8-0.7l0.4,0.4c-0.5,0.3-1.3,0.5-2.2,0.8v0.7
	c0,0.1,0,0.2,0.1,0.3C27.4,77.9,27.5,77.9,27.6,77.9z"/>
<path class="st0" d="M32.1,75.5l0.4,0.2c-0.3,1.1-0.5,1.7-0.6,2c0.4,0.5,0.6,1.1,0.6,1.7c0,0.4-0.1,0.8-0.3,0.9
	c-0.1,0.1-0.2,0.1-0.3,0.1c-0.2,0-0.4,0-0.4,0c0-0.2,0-0.4-0.1-0.5c0.1,0,0.2,0,0.3,0c0.1,0,0.1,0,0.2-0.1c0.1-0.1,0.1-0.3,0.1-0.5
	c0-0.5-0.2-1.1-0.5-1.6c0.1-0.5,0.3-1.1,0.5-1.8h-0.8v6.2h-0.5v-6.7L32.1,75.5L32.1,75.5z M33.6,78.9v1.8c0.3,0.5,0.7,0.8,1.4,0.8
	l0,0c0.8,0,1.5,0,2.3,0c-0.1,0.2-0.1,0.4-0.1,0.5c-0.9,0-1.6,0-2.2,0c-0.7,0-1.2-0.3-1.6-0.9c-0.3,0.3-0.6,0.7-1,1l-0.3-0.5
	c0.3-0.3,0.6-0.5,1-0.9v-1.4h-0.7v-0.5L33.6,78.9L33.6,78.9z M32.4,77.3l0.4-0.3c0.4,0.4,0.6,0.7,0.8,0.9l-0.4,0.3
	C33,78,32.7,77.7,32.4,77.3z M33.7,76.4l-0.4,0.3c-0.1-0.3-0.3-0.6-0.7-1l0.4-0.3C33.4,75.8,33.6,76.2,33.7,76.4z M34.8,77.1v-0.4
	c-0.3,0.5-0.5,0.9-0.9,1.3c-0.1-0.1-0.2-0.2-0.4-0.3c0.4-0.3,0.7-0.8,0.9-1.4h-0.7v-0.4h0.9c0.1-0.2,0.1-0.4,0.2-0.7l0.5,0.1
	c0,0.1-0.1,0.3-0.1,0.6h2.1v0.4H35c-0.1,0.2-0.1,0.3-0.2,0.4h2.1V77H36v0.5h1.2v0.4h-2.8v-0.4h1.2V77L34.8,77.1L34.8,77.1z
	 M36.8,78.4v2.4c0,0.2,0,0.3-0.1,0.4c0,0,0,0-0.1,0s-0.4,0.1-0.8,0.1c0-0.1-0.1-0.3-0.1-0.4c0.2,0,0.4,0,0.5,0s0.1,0,0.1-0.1v-0.5
	h-1.6v0.9h-0.5v-2.9L36.8,78.4L36.8,78.4z M36.3,78.8h-1.6v0.4h1.6V78.8z M34.8,79.9h1.6v-0.4h-1.6V79.9z"/>
<path class="st0" d="M38.4,77.9l0.5,0.1c-0.2,1.4-0.5,2.4-0.9,2.9l-0.5-0.3C38,80.1,38.3,79.2,38.4,77.9z M39.7,77.3h0.6v3.8
	c0,0.2,0,0.3,0.1,0.4c0.1,0,0.2,0,0.4,0h1.4c0.2,0,0.4-0.1,0.4-0.3c0.1-0.2,0.1-0.7,0.2-1.3c0.1,0.1,0.3,0.2,0.5,0.3
	c0,0.8-0.1,1.3-0.3,1.5c-0.1,0.2-0.4,0.3-0.8,0.3h-1.5c-0.5,0-0.8-0.1-0.9-0.3c-0.1-0.1-0.1-0.4-0.1-0.7L39.7,77.3L39.7,77.3z
	 M39.8,75.7l0.4-0.4c0.8,0.3,1.6,0.6,2.4,1.1c0.1,0,0.2,0.1,0.3,0.1L42.4,77c-0.5-0.4-1.3-0.8-2.1-1.1
	C40.1,75.8,39.9,75.7,39.8,75.7z M42.9,77.9l0.5-0.3c0.5,0.7,0.9,1.5,1.3,2.3c0.1,0.2,0.1,0.4,0.2,0.6l-0.5,0.3
	c-0.1-0.7-0.5-1.4-0.9-2.2C43.2,78.4,43,78.2,42.9,77.9z"/>
<path class="st0" d="M48.5,79.5h-2.3c-0.1,1.1-0.3,2-0.7,2.7c-0.1-0.1-0.2-0.2-0.4-0.3c0,0,0,0-0.1,0c0.4-0.7,0.5-1.6,0.5-3
	c0-0.1,0-0.2,0-0.3v-2.7L46,76c0.9-0.3,1.6-0.5,2-0.7l0.5,0.4c-0.5,0.2-1.3,0.5-2.3,0.7v0.7h2.3V79.5z M48,77.6h-1.8v0.9
	c0,0.2,0,0.3,0,0.4H48V77.6z M52.3,77.8v0.5h-0.8v3.9H51v-3.9h-1.3c0,1.7-0.5,2.9-1.3,3.8c-0.1-0.1-0.2-0.3-0.4-0.4l0,0
	c0.7-0.8,1.1-1.9,1.2-3.3c0-0.1,0-0.3,0-0.5v-2l0.4,0.1c1-0.3,1.7-0.5,2.2-0.8l0.5,0.4c-0.6,0.3-1.5,0.6-2.6,0.8v1.2h2.6V77.8z"/>
<path class="st0" d="M58,77v1.2c0,0.5,0.1,1.1,0.3,1.7c0.3,0.8,0.8,1.4,1.4,1.8c-0.1,0.1-0.2,0.3-0.4,0.5c-0.7-0.4-1.1-1.1-1.5-2
	c-0.1-0.3-0.1-0.5-0.2-0.8c-0.1,0.6-0.3,1.1-0.7,1.7c-0.3,0.5-0.7,0.9-1.2,1.2c-0.1-0.1-0.2-0.3-0.3-0.5c0,0,0.1,0,0.1-0.1h-1.9v0.5
	h-0.5v-2.9c-0.1,0.1-0.3,0.3-0.4,0.4c-0.1-0.2-0.3-0.3-0.4-0.4c0.7-0.5,1.2-1.2,1.6-2c0-0.1,0.1-0.2,0.1-0.3h0.5
	c0.4,0.4,0.7,0.7,1.1,1.2c0.5-0.7,0.8-1.6,1-2.9l0.6,0.1c-0.1,0.4-0.1,0.8-0.3,1.2h2H59l0.4,0.1c-0.1,0.8-0.3,1.5-0.4,1.9l-0.5-0.1
	c0.1-0.4,0.2-0.8,0.3-1.3H58V77z M53.7,75.4l0.5,0.2c-0.3,0.7-0.7,1.2-1.2,1.7l-0.1,0.1c-0.2-0.2-0.3-0.3-0.5-0.4
	C52.9,76.6,53.3,76.1,53.7,75.4C53.6,75.4,53.6,75.4,53.7,75.4z M55.7,79.1v2.5c0.8-0.5,1.4-1.4,1.6-2.4c0.1-0.4,0.1-0.7,0.1-0.9V77
	h-0.5c-0.2,0.6-0.4,1.1-0.7,1.5c-0.1-0.1-0.2-0.1-0.4-0.3c0.2,0.3,0.3,0.5,0.4,0.5L55.7,79.1c-0.3-0.6-0.7-1.1-1.1-1.6l-0.1-0.1
	c-0.3,0.6-0.7,1.1-1.2,1.6L55.7,79.1L55.7,79.1z M55.2,81.2v-1.6h-1.4v1.6H55.2z M56.2,76.7L55.8,77c-0.3-0.4-0.6-0.8-1-1.3
	l-0.1-0.1l0.4-0.3c0.4,0.4,0.8,0.8,1.1,1.2C56.2,76.6,56.2,76.7,56.2,76.7z"/>
<path class="st0" d="M63,77.7c0.6,0.5,1.1,1,1.6,1.6c0,0,0,0.1,0.1,0.1l-0.5,0.4c-0.5-0.7-1.1-1.2-1.7-1.7L63,77.7z"/>
<path class="st0" d="M71,76.2h2.7v5.9h-0.6v-0.4H69v0.4h-0.6v-6h1.9c0.1-0.4,0.3-0.8,0.3-1.1l0.7,0.1C71.3,75.6,71.2,75.9,71,76.2z
	 M73.2,76.8h-4.1v1.1h4.1V76.8z M73.2,78.5h-4.1v1.1h4.1V78.5z M69.1,81.3h4.1v-1.1h-4.1V81.3z"/>
<path class="st0" d="M78.5,76.7h2.7v5.5h-0.6v-0.4h-4.7v0.5h-0.6v-5.5h2.6v-1.5h0.6V76.7L78.5,76.7z M77.9,77.3h-2V79h2V77.3z
	 M75.9,79.5v1.7h2v-1.7H75.9z M80.6,77.3h-2.1V79h2.1V77.3z M78.5,81.2h2.1v-1.7h-2.1V81.2z"/>
<path class="st0" d="M83.3,77.9v-1c-0.2,0.3-0.5,0.5-0.7,0.7c-0.2-0.2-0.3-0.3-0.5-0.4c0.6-0.4,1.1-1,1.5-1.7
	c0.1-0.1,0.1-0.2,0.1-0.3l0.5,0.1c-0.1,0.2-0.3,0.5-0.4,0.7h4.8v0.5h-0.8v1.3H89v0.5h-1.1v1.3h0.9v0.5h-6.6v-0.5h0.9v-1.3H82v-0.5
	h1.3V77.9z M82.7,82.2L82.1,82c0.4-0.3,0.7-0.7,0.9-1.3c0-0.1,0-0.1,0.1-0.2l0.5,0.1C83.4,81.2,83.1,81.7,82.7,82.2
	C82.7,82.2,82.7,82.2,82.7,82.2z M83.8,76.6v1.3h0.8v-1.3H83.8z M83.8,78.4v1.3h0.8v-1.3H83.8z M84.4,80.7h0.5
	c0.1,0.6,0.2,1.1,0.2,1.4l-0.5,0.1C84.5,81.7,84.5,81.2,84.4,80.7z M85.1,77.9H86v-1.3h-0.9V77.9z M86,78.4h-0.9v1.3H86V78.4z
	 M86,80.7l0.5-0.1c0.2,0.5,0.4,0.9,0.5,1.4l-0.5,0.1C86.3,81.7,86.2,81.3,86,80.7z M87.4,77.9v-1.3h-0.9v1.3H87.4z M87.4,79.7v-1.3
	h-0.9v1.3H87.4z M87.5,80.7l0.5-0.2c0.5,0.6,0.8,1.1,1.1,1.5l-0.6,0.2C88.3,81.8,88,81.3,87.5,80.7L87.5,80.7z"/>
<path class="st0" d="M91.9,78.5L92,79l-0.9,0.3v2.1c0,0.3-0.1,0.4-0.2,0.5l0,0C90.7,82,90.4,82,90,82c0-0.1-0.1-0.3-0.2-0.5
	c0.2,0,0.4,0,0.7,0c0.1,0,0.1-0.1,0.1-0.1v-2c-0.5,0.1-0.8,0.3-0.9,0.3l-0.1-0.5c0.1,0,0.1,0,0.3-0.1c0.3-0.1,0.6-0.2,0.7-0.2v-1.7
	h-0.9v-0.5h0.9v-1.5h0.5v1.5h0.8v0.5h-0.8v1.5L91.9,78.5z M96,76.5h0.4v0.3c-0.1,2.4-0.2,3.9-0.3,4.5c-0.1,0.3-0.1,0.5-0.2,0.6
	c-0.1,0.2-0.3,0.3-0.5,0.3c0,0,0,0-0.1,0c-0.3,0-0.6,0-1.1,0c0-0.2-0.1-0.4-0.2-0.6c0.3,0,0.7,0,1.1,0c0.1,0,0.3,0,0.3-0.1
	c0.2-0.2,0.3-0.9,0.4-2.1c0-0.6,0.1-1.4,0.1-2.4h-2.8c-0.3,0.5-0.5,0.9-0.8,1.2c-0.1-0.1-0.3-0.2-0.4-0.3c0.6-0.7,1.1-1.5,1.4-2.7
	l0.5,0.1c-0.1,0.4-0.3,0.8-0.4,1.1L96,76.5L96,76.5z M94.8,80.4H93v0.5h-0.5v-3.1h2.3V80.4L94.8,80.4z M94.3,78.4H93v1.5h1.3V78.4z"
	/>
<path class="st0" d="M99.6,78.7c0-0.3,0.1-0.6,0.4-0.8c0.2-0.1,0.4-0.2,0.6-0.2c0.3,0,0.6,0.1,0.8,0.4c0.1,0.2,0.2,0.4,0.2,0.7
	c0,0.3-0.1,0.6-0.4,0.8c-0.2,0.1-0.4,0.2-0.7,0.2c-0.3,0-0.6-0.1-0.8-0.4C99.7,79.2,99.6,79,99.6,78.7z M99.9,78.7
	c0,0.3,0.1,0.4,0.3,0.6c0.1,0.1,0.3,0.1,0.4,0.1c0.3,0,0.4-0.1,0.6-0.3c0.1-0.1,0.1-0.3,0.1-0.4c0-0.3-0.1-0.4-0.3-0.6
	c-0.1-0.1-0.3-0.1-0.4-0.1c-0.3,0-0.4,0.1-0.6,0.3C100,78.5,99.9,78.6,99.9,78.7z"/>
</svg>
