<?xml version="1.0" encoding="utf-8"?>
<!-- Generator: Adobe Illustrator 25.2.3, SVG Export Plug-In . SVG Version: 6.00 Build 0)  -->
<svg version="1.1" id="圖層_1" xmlns="http://www.w3.org/2000/svg" xmlns:xlink="http://www.w3.org/1999/xlink" x="0px" y="0px"
	 viewBox="0 0 150 93.1" style="enable-background:new 0 0 150 93.1;" xml:space="preserve">
<g>
	<path d="M4.6,25.9c-0.2-0.3-0.6-1-1-1.5v4.7H2.7v-4.4c-0.5,1-1,2-1.6,2.6C1,27,0.7,26.6,0.6,26.4c0.7-0.7,1.5-2,1.9-3.1H0.9v-0.9
		h1.8V21c-0.5,0.1-1,0.2-1.5,0.2c0-0.2-0.2-0.5-0.3-0.8c1.3-0.2,2.9-0.5,3.8-0.9l0.5,0.8c-0.5,0.2-1,0.3-1.6,0.4v1.6h1.6v0.9H3.6
		v0.1c0.3,0.3,1.4,1.4,1.6,1.7L4.6,25.9z M9.4,28.8c-0.1-0.3-0.2-0.7-0.3-1.1c-3.4,0.5-3.9,0.6-4.2,0.8c-0.1-0.2-0.2-0.7-0.3-1
		c0.3-0.1,0.5-0.6,0.8-1.4c0.3-0.8,1.2-3.7,1.6-6.4l1,0.2c-0.5,2.5-1.2,5.2-1.9,7.3l2.8-0.4c-0.3-0.9-0.7-1.9-1-2.7l0.9-0.3
		c0.7,1.5,1.4,3.5,1.7,4.7L9.4,28.8z"/>
	<path d="M18.7,19.5c0,0.4,0,0.9-0.1,1.6c0.1,1.3,0.8,5.5,4.5,7.1c-0.3,0.2-0.6,0.6-0.7,0.8c-2.5-1.2-3.6-3.5-4.2-5.4
		c-0.5,2-1.6,4.1-4,5.4c-0.2-0.3-0.5-0.6-0.8-0.8c4.3-2.2,4.2-7.1,4.2-8.8H18.7z"/>
	<path d="M29.4,24.8l-1.2,0.4v2.8c0,0.5-0.1,0.8-0.4,0.9c-0.3,0.2-0.7,0.2-1.4,0.2c0-0.3-0.2-0.7-0.3-0.9c0.4,0,0.8,0,0.9,0
		c0.1,0,0.2,0,0.2-0.2v-2.5l-1.1,0.4l-0.2-0.9c0.4-0.1,0.8-0.2,1.4-0.4v-2.1h-1.2v-0.9h1.2v-2h0.9v2h1.2v0.9h-1.2v1.8l1.1-0.3
		L29.4,24.8z M35.3,19.9c0,0,0,0.3,0,0.4c-0.1,2.3-0.2,3.2-0.5,3.5c-0.2,0.2-0.4,0.3-0.7,0.3c-0.3,0-0.7,0-1.2,0
		c0-0.3-0.1-0.7-0.3-0.9c0.4,0,0.8,0,1,0c0.2,0,0.3,0,0.3-0.1c0.2-0.2,0.3-0.8,0.3-2.4h-2c-0.2,1.6-0.7,2.9-2.4,3.6
		c-0.1-0.2-0.4-0.6-0.6-0.8c1.4-0.6,1.8-1.6,2-2.9h-1.6v-0.9H35.3z M30,24.7h5.1V29h-1v-0.4h-3.2v0.5H30V24.7z M30.9,25.6v2.1h3.2
		v-2.1H30.9z"/>
	<path d="M41.9,22.1c-0.2,0.4-0.5,0.9-0.9,1.3v5.7h-0.9v-4.6c-0.4,0.4-0.7,0.7-1.1,1c-0.1-0.2-0.3-0.7-0.5-1
		c0.9-0.7,1.9-1.7,2.5-2.8L41.9,22.1z M41.8,19.8c-0.6,0.9-1.7,1.9-2.6,2.5c-0.1-0.2-0.3-0.6-0.5-0.8c0.8-0.5,1.7-1.4,2.2-2.1
		L41.8,19.8z M48.2,20.7v0.9h-2.9v1.1h2.4v0.9h-5.8v-0.9h2.4v-1.1h-2.8v-0.9h2.8v-1.2h1v1.2H48.2z M46.9,24.6h1.4v0.9h-1.4V28
		c0,0.5-0.1,0.8-0.5,0.9c-0.4,0.1-0.9,0.2-1.8,0.2c0-0.3-0.2-0.7-0.3-0.9c0.6,0,1.2,0,1.4,0c0.2,0,0.2,0,0.2-0.2v-2.4h-4.3v-0.9h4.3
		v-0.8h1V24.6z M43.1,25.8c0.5,0.5,1,1.3,1.3,1.8L43.6,28c-0.3-0.5-0.8-1.2-1.3-1.8L43.1,25.8z"/>
	<path d="M56.9,19.7c-0.1,0.1-0.1,0.1-0.2,0.2c1,0.9,2.8,1.7,4.4,2c-0.2,0.2-0.5,0.5-0.6,0.7c-0.3-0.1-0.5-0.2-0.8-0.3v2.7h-7.1
		v-2.6c-0.3,0.1-0.5,0.2-0.8,0.3c-0.1-0.2-0.4-0.6-0.5-0.7c1.9-0.5,3.8-1.4,4.7-2.6L56.9,19.7z M59.6,22.4c-0.6-0.2-1.1-0.4-1.7-0.7
		V22h-3.6v-0.3c-0.5,0.3-1,0.5-1.5,0.7H59.6z M53.2,25.6h6V29h-1v-0.3h-4v0.3h-1V25.6z M54.6,23.1c0.2,0.4,0.5,0.8,0.5,1.2l-0.7,0.2
		h1.2v-1.4h-2.3v1.4h1c-0.1-0.3-0.3-0.8-0.5-1.2L54.6,23.1z M54.2,26.2v0.6h4v-0.6H54.2z M58.2,28.1v-0.6h-4v0.6H58.2z M57.4,21.3
		c-0.4-0.3-0.8-0.6-1.2-0.9c-0.3,0.3-0.7,0.6-1.1,0.9H57.4z M58.8,23.1h-2.3v1.4h1.2L57,24.3c0.2-0.3,0.4-0.9,0.5-1.2l0.8,0.2
		c-0.2,0.5-0.5,0.9-0.7,1.2h1.1V23.1z"/>
	<path d="M65.5,25.3c-0.1,1.3-0.3,2.8-0.9,3.8c-0.2-0.2-0.6-0.5-0.8-0.6c0.7-1.2,0.7-3,0.7-4.4v-3.7c1.2-0.2,2.7-0.4,3.5-0.8
		l0.6,0.8c-0.9,0.3-2.1,0.6-3.2,0.7V22h2.8v3.3H65.5z M65.5,22.9v1.2v0.3h1.8v-1.5H65.5z M73.6,23.9h-1.1V29h-1v-5.1h-1.4
		c0,1.6-0.2,3.9-1.7,5.2c-0.2-0.2-0.6-0.5-0.8-0.7c1.3-1.3,1.4-3.2,1.4-4.6v-3.4c1.3-0.2,2.8-0.5,3.6-0.9l0.7,0.8
		c-0.9,0.3-2.2,0.6-3.3,0.8v1.8h3.5V23.9z"/>
	<path d="M81,24.5v3.4c0,0.5-0.1,0.7-0.4,0.9C80.3,29,79.8,29,79.1,29c0-0.2-0.2-0.6-0.3-0.9c0.5,0,1,0,1.1,0c0.1,0,0.2-0.1,0.2-0.2
		v-3.3c-0.6,0.1-1.3,0.1-1.9,0.2c-0.1,1.4-0.3,3.1-0.8,4.3c-0.2-0.2-0.5-0.4-0.8-0.5c0.5-1.1,0.7-2.4,0.7-3.7L76.7,25l-0.1-0.9
		l0.8-0.1v-0.4v-3.1h1.1c0.1-0.3,0.2-0.8,0.3-1.1l1,0.1c-0.1,0.3-0.3,0.7-0.4,0.9H81v3.2l0.2,0l0,0.8L81,24.5z M78.3,23.9
		c0.6,0,1.2-0.1,1.8-0.1v-2.5h-1.8v2.3V23.9z M79.1,21.8c0.3,0.4,0.6,1,0.8,1.4l-0.6,0.3c-0.1-0.4-0.5-1-0.7-1.4L79.1,21.8z
		 M79.2,27c-0.1-0.4-0.5-1.1-0.8-1.6l0.6-0.3c0.3,0.5,0.6,1.1,0.8,1.5L79.2,27z M86,24c-0.3,1.4-0.8,2.4-1.5,3.2
		c0.5,0.4,1.2,0.7,1.8,0.9c-0.2,0.2-0.5,0.6-0.6,0.8c-0.7-0.3-1.4-0.6-1.9-1c-0.6,0.5-1.3,0.9-2.1,1.1c-0.1-0.2-0.4-0.6-0.6-0.8
		c0.7-0.2,1.4-0.5,2-1c-0.6-0.7-1.1-1.5-1.4-2.4l0.4-0.1h-0.5v-0.9h3.7l0.2,0L86,24z M82.8,21.2c0,0.8-0.1,1.7-0.9,2.3
		c-0.1-0.2-0.5-0.5-0.7-0.6c0.7-0.5,0.7-1.1,0.7-1.7v-1.3h3.2V22c0,0.3,0,0.4,0.1,0.4h0.5c0.1,0,0.3,0,0.5-0.1c0,0.2,0,0.6,0.1,0.8
		c-0.1,0.1-0.3,0.1-0.5,0.1h-0.6c-0.8,0-0.9-0.3-0.9-1.2v-1.3h-1.4V21.2z M82.6,24.7c0.3,0.7,0.7,1.4,1.2,1.9
		c0.5-0.5,0.8-1.2,1.1-1.9H82.6z"/>
	<path d="M98.6,21.1c0,0,0,0.3,0,0.5c-0.1,4.7-0.3,6.4-0.7,6.9c-0.3,0.3-0.5,0.4-0.9,0.5c-0.4,0-1,0-1.6,0c0-0.3-0.1-0.7-0.3-0.9
		c0.7,0.1,1.3,0.1,1.5,0.1c0.2,0,0.3,0,0.4-0.2c0.3-0.3,0.5-1.9,0.6-5.9h-2.5c-0.3,0.7-0.6,1.3-1,1.8c-0.2-0.1-0.5-0.4-0.8-0.5V28
		h-2.8v0.8h-0.9v-7.7h1.2c0.1-0.5,0.3-1.2,0.4-1.7l1.1,0.2c-0.2,0.5-0.4,1.1-0.5,1.5h1.7v2c0.7-0.9,1.2-2.3,1.6-3.7l0.9,0.2
		c-0.1,0.5-0.3,1-0.4,1.4H98.6z M90.7,22v2h2v-2H90.7z M92.6,27.1v-2.3h-2v2.3H92.6z M96.1,26.3c-0.3-0.6-1-1.7-1.5-2.4l0.8-0.4
		c0.6,0.7,1.3,1.7,1.6,2.3L96.1,26.3z"/>
	<path d="M110.4,22.2v4.2h-1v-0.5h-5.2c-0.2,1.2-0.6,2.4-1.5,3.3c-0.1-0.2-0.5-0.6-0.8-0.7c1.3-1.4,1.5-3.3,1.5-4.9v-3.1
		c2.1-0.2,4.5-0.6,5.9-1l0.8,0.8c-1.6,0.5-3.7,0.8-5.7,1v1H110.4z M109.4,24.9v-1.8h-5v0.5c0,0.4,0,0.9-0.1,1.3H109.4z"/>
	<path d="M119.1,21l0.7,0.2c-0.5,4.2-2.1,6.7-4.4,7.9c-0.2-0.2-0.6-0.7-0.8-0.8c1.2-0.6,2.2-1.5,2.9-2.9c-0.4-0.5-1-1.1-1.5-1.6
		c-0.2,0.3-0.4,0.6-0.6,0.9c-0.2-0.2-0.6-0.5-0.8-0.6c0.9-1.1,1.6-2.8,1.9-4.6l1,0.2c-0.1,0.5-0.2,0.9-0.4,1.4h1.8L119.1,21z
		 M116.8,21.9c-0.1,0.3-0.3,0.7-0.4,1c0.5,0.5,1.1,1,1.6,1.5c0.3-0.7,0.5-1.6,0.7-2.5H116.8z M121.9,22.6c0.8,0.7,1.9,1.7,2.5,2.4
		l-0.8,0.7c-0.4-0.6-1.2-1.4-2-2.1v5.5h-1v-9.6h1v3.4L121.9,22.6z"/>
	<path d="M130.8,19.8c-0.3,0.8-0.7,1.5-1.1,2.2v7h-1v-5.6c-0.3,0.4-0.7,0.8-1.1,1.2c-0.1-0.2-0.4-0.8-0.6-1c1.1-1,2.1-2.5,2.8-4.1
		L130.8,19.8z M134.4,23c0.6,1.6,1.6,3.1,2.7,4c-0.2,0.2-0.6,0.5-0.7,0.8c-0.9-0.9-1.8-2.3-2.4-3.8v5.1h-1v-4.9
		c-0.7,1.5-1.6,2.8-2.5,3.6c-0.2-0.2-0.5-0.6-0.7-0.8c1.1-0.9,2.2-2.5,2.8-4.1h-2.4v-1h2.8v-2.4h1V22h2.9v1H134.4z"/>
	<path d="M139.9,28.3c0.8-0.4,1.2-1.2,1.4-2l0.9,0.3c-0.3,0.9-0.7,1.8-1.5,2.2L139.9,28.3z M142,22.2h-1.9v-0.8h1.9v-0.7h-1.5v-0.8
		h3.8v0.8h-1.4v0.7h1.8v0.8h-1.8V23h1.4v2.5h-2.9v0.4h-0.8V23h1.4V22.2z M143.5,23.7h-2v1h2V23.7z M145.9,28.1c0.4,0,0.5-0.1,0.5-1
		c0.2,0.2,0.6,0.3,0.9,0.3c-0.1,1.2-0.4,1.5-1.3,1.5h-1.9c-1.2,0-1.5-0.3-1.5-1.2v-1.5h1v1.5c0,0.3,0.1,0.3,0.6,0.3H145.9z
		 M144.1,25.5c0.6,0.3,1.4,0.9,1.7,1.3l-0.7,0.6c-0.3-0.4-1-1-1.7-1.3L144.1,25.5z M145.9,25.8h-0.9v-5.4h1.2c0.1-0.3,0.2-0.7,0.3-1
		l1.1,0.1c-0.1,0.3-0.3,0.6-0.4,0.9h1.9v5.3h-0.9v-0.4h-2.3V25.8z M145.9,21.2v0.7h2.3v-0.7H145.9z M148.2,23.2v-0.7h-2.3v0.7H148.2
		z M148.2,24.6v-0.7h-2.3v0.7H148.2z M147.7,26.2c0.8,0.6,1.6,1.4,1.9,2.1l-0.9,0.5c-0.3-0.6-1.1-1.5-1.8-2.1L147.7,26.2z"/>
	<path d="M1.3,36.5h1.2v6.7h3.3v1H1.3V36.5z"/>
	<path d="M6.6,41.4c0-1.9,1.3-3,2.7-3s2.7,1.1,2.7,3c0,1.9-1.3,3-2.7,3S6.6,43.3,6.6,41.4z M10.8,41.4c0-1.2-0.6-2-1.5-2
		c-0.9,0-1.5,0.8-1.5,2c0,1.2,0.6,2,1.5,2C10.3,43.4,10.8,42.6,10.8,41.4z"/>
	<path d="M13.6,42.1v-3.6h1.2V42c0,1,0.3,1.4,1,1.4c0.5,0,0.9-0.3,1.4-0.9v-4h1.2v5.8h-1l-0.1-0.9h0c-0.5,0.6-1.1,1-1.9,1
		C14.1,44.4,13.6,43.6,13.6,42.1z"/>
	<path d="M20.3,38.5h1l0.1,0.8h0c0.5-0.5,1.1-0.9,1.9-0.9c1.2,0,1.8,0.8,1.8,2.3v3.6h-1.2v-3.5c0-1-0.3-1.4-1-1.4
		c-0.5,0-0.9,0.3-1.4,0.8v4.1h-1.2V38.5z"/>
	<path d="M26.6,45.3c0-0.5,0.3-0.9,0.8-1.3V44c-0.3-0.2-0.5-0.5-0.5-1c0-0.5,0.3-0.8,0.6-1.1v0c-0.4-0.3-0.8-0.9-0.8-1.5
		c0-1.3,1-2.1,2.2-2.1c0.3,0,0.6,0.1,0.8,0.1h2v0.9h-1.1c0.2,0.2,0.4,0.6,0.4,1.1c0,1.3-1,2-2.2,2c-0.3,0-0.6-0.1-0.8-0.2
		c-0.2,0.2-0.3,0.3-0.3,0.6c0,0.3,0.2,0.6,1,0.6h1.1c1.4,0,2.1,0.4,2.1,1.4c0,1.1-1.2,2-3,2C27.6,46.8,26.6,46.3,26.6,45.3z
		 M30.8,45c0-0.5-0.4-0.6-1.1-0.6h-0.9c-0.3,0-0.5,0-0.8-0.1c-0.3,0.3-0.5,0.5-0.5,0.8c0,0.6,0.6,0.9,1.5,0.9
		C30.2,46,30.8,45.5,30.8,45z M30.1,40.4c0-0.8-0.5-1.2-1.1-1.2c-0.6,0-1.1,0.4-1.1,1.2c0,0.8,0.5,1.2,1.1,1.2
		C29.6,41.6,30.1,41.2,30.1,40.4z"/>
	<path d="M32.6,41.4c0-1.9,1.3-3,2.6-3c1.5,0,2.4,1.1,2.4,2.7c0,0.2,0,0.5-0.1,0.6h-3.7c0.1,1.1,0.8,1.8,1.8,1.8
		c0.5,0,1-0.2,1.4-0.4l0.4,0.8c-0.5,0.4-1.2,0.6-2,0.6C33.9,44.4,32.6,43.3,32.6,41.4z M36.6,40.8c0-1-0.5-1.6-1.3-1.6
		c-0.7,0-1.4,0.6-1.5,1.6H36.6z"/>
	<path d="M40,39h-1v-2.4h4c-0.1-0.3-0.3-0.7-0.4-0.9l1-0.3c0.2,0.4,0.5,0.8,0.6,1.2h3.7v2.2h-1v-1.3h-1.8V39c0,0.3,0.1,0.4,0.4,0.4
		h1.7c0.3,0,0.7,0,0.9-0.1c0,0.3,0.1,0.6,0.1,0.9c-0.2,0.1-0.6,0.1-1,0.1h-1.7c-1,0-1.3-0.3-1.3-1.3v-1.5H43
		c-0.1,1.8-0.7,2.7-3.5,3.1c-0.1-0.2-0.3-0.6-0.5-0.8c2.4-0.3,2.8-0.9,2.9-2.3h-2V39z M44,43.9h4v0.9h-9v-0.9h4v-2h-3V41h7v0.9h-3
		V43.9z"/>
	<path d="M50.8,39.5v5.6h-1v-9.2h3.9v3.7H50.8z M50.8,36.6v0.7h2v-0.7H50.8z M52.8,38.8V38h-2v0.8H52.8z M58.5,43.9
		c0,0.6-0.1,0.9-0.5,1c-0.4,0.2-0.9,0.2-1.8,0.2c0-0.3-0.2-0.7-0.3-1H53v0.5h-0.9v-4.4h3.9v3.8c0.5,0,1,0,1.2,0
		c0.2,0,0.2-0.1,0.2-0.2v-4.3h-3v-3.7h4V43.9z M53,41v0.8h2.1V41H53z M55.2,43.4v-0.9H53v0.9H55.2z M55.5,36.6v0.7h2v-0.7H55.5z
		 M57.5,38.8V38h-2v0.8H57.5z"/>
	<path d="M61,41.7c0.8-0.3,1.3-0.8,1.3-1.4c0,0-0.1,0-0.1,0c-0.5,0-0.9-0.3-0.9-0.8c0-0.5,0.4-0.8,0.9-0.8c0.7,0,1,0.5,1,1.3
		c0,1.2-0.7,2.1-1.9,2.5L61,41.7z"/>
	<path d="M68.7,35.8c-0.3,0.7-0.6,1.5-1,2.2V45h-1v-5.5c-0.3,0.4-0.6,0.7-0.9,1c-0.1-0.2-0.4-0.8-0.5-1c1-1,1.9-2.5,2.5-4L68.7,35.8
		z M75,43.8v0.9h-6.7v-0.9h2.9v-2.4h-2.3v-0.9h2.3v-2.1h-2.7v-0.9h6.3v0.9h-2.7v2.1h2.4v0.9h-2.4v2.4H75z M71.5,37.4
		c-0.1-0.5-0.5-1.2-0.8-1.7l0.9-0.3c0.3,0.5,0.7,1.2,0.9,1.7L71.5,37.4z"/>
	<path d="M84.4,38.2v4.2h-1v-0.5h-5.2c-0.2,1.2-0.6,2.4-1.5,3.3c-0.1-0.2-0.5-0.6-0.8-0.7c1.3-1.4,1.5-3.3,1.5-4.9v-3.1
		c2.1-0.2,4.5-0.6,5.9-1l0.8,0.8c-1.6,0.5-3.7,0.8-5.7,1v1H84.4z M83.4,40.9v-1.8h-5v0.5c0,0.4,0,0.9-0.1,1.3H83.4z"/>
	<path d="M91.5,38.4c0,0.3,0,0.7,0,0.9c-3,0.6-3.4,0.7-3.7,0.9c-0.1-0.2-0.3-0.6-0.4-0.8c0.2-0.1,0.6-0.4,0.6-0.8v-3h1v1.1h2.4v0.9
		H89v1.4L91.5,38.4z M91.8,39.7c-0.1,0.3-0.3,0.6-0.4,0.8h3.6v4.5h-1v-0.4h-4.8v0.4h-1v-4.5h2.2c0.1-0.3,0.3-0.8,0.4-1L91.8,39.7z
		 M94,41.4h-4.8v0.9H94V41.4z M94,43.9V43h-4.8v0.9H94z M94.9,39c0.4,0,0.4-0.1,0.5-1c0.2,0.2,0.6,0.3,0.9,0.4
		c-0.1,1.2-0.4,1.5-1.3,1.5h-1.7c-1.1,0-1.4-0.3-1.4-1.3v-3.2h1v1.1h3v0.9h-3v1.2c0,0.3,0.1,0.4,0.5,0.4H94.9z"/>
	<path d="M106.8,37.1h-1.2v6.6c0,0.6-0.2,1-0.6,1.1c-0.5,0.2-1.2,0.2-2.2,0.2c-0.1-0.3-0.3-0.8-0.4-1c0.8,0,1.7,0,1.9,0
		c0.2,0,0.3-0.1,0.3-0.3v-6.6h-7.1v-1h9.3V37.1z M99.5,42.5v0.8h-0.9v-4.8h4.3v3.9H99.5z M99.5,39.4v2.1h2.4v-2.1H99.5z"/>
	<path d="M110.9,41.5c0.1-0.4,0.3-0.9,0.5-1.4h-0.9V44c0,0.5-0.1,0.8-0.4,0.9c-0.3,0.1-0.8,0.2-1.5,0.2c0-0.3-0.2-0.7-0.3-0.9
		c0.5,0,1,0,1.1,0c0.1,0,0.2,0,0.2-0.2v-3.9h-1.6v-0.9h2.5c-0.5-0.5-1.3-1-2-1.3l0.5-0.6c0.3,0.2,0.7,0.4,1,0.6
		c0.3-0.3,0.6-0.7,0.9-1.1h-2.6v-0.8h3.3l0.2-0.1l0.6,0.4c-0.4,0.7-1,1.4-1.6,2c0.3,0.2,0.5,0.4,0.7,0.6l-0.3,0.3h0.6l0.1,0l0.6,0.1
		c-0.3,0.8-0.6,1.8-0.8,2.4L110.9,41.5z M114.5,43.7c-0.6,0.5-1.6,1.1-2.4,1.4c-0.1-0.2-0.5-0.5-0.7-0.7c0.8-0.3,1.7-0.8,2.2-1.3
		L114.5,43.7z M114.2,37.6c0.1-0.3,0.1-0.6,0.2-0.9h-2.1v-0.8h5.3v0.8h-2.1c-0.1,0.3-0.2,0.6-0.3,0.9h2V43h-4.6v-5.5H114.2z
		 M116.3,38.3h-2.7v0.9h2.7V38.3z M116.3,39.9h-2.7v0.9h2.7V39.9z M116.3,41.4h-2.7v0.9h2.7V41.4z M115.9,43.2
		c0.6,0.4,1.4,0.9,1.8,1.3l-0.8,0.6c-0.4-0.4-1.2-1-1.8-1.4L115.9,43.2z"/>
	<path d="M120.2,42.4c-0.2,0.9-0.4,1.9-0.7,2.5c-0.2-0.1-0.6-0.2-0.8-0.3c0.3-0.6,0.5-1.6,0.7-2.4L120.2,42.4z M122.3,41.7
		c0-0.2-0.1-0.3-0.1-0.6c-2.6,0.4-2.9,0.5-3.2,0.6c-0.1-0.2-0.2-0.6-0.3-0.9c0.3-0.1,0.5-0.3,0.9-0.7c0.2-0.2,0.5-0.6,0.9-1.1
		c-1.1,0.1-1.4,0.2-1.5,0.3c-0.1-0.2-0.2-0.6-0.3-0.9c0.2,0,0.4-0.2,0.7-0.5c0.3-0.3,1.1-1.5,1.5-2.6l0.9,0.4
		c-0.5,0.9-1.1,1.9-1.7,2.6l1.1-0.1c0.3-0.4,0.6-0.9,0.8-1.3l0.8,0.5c-0.7,1.1-1.6,2.2-2.4,3.1l1.6-0.2c-0.1-0.3-0.2-0.6-0.3-0.9
		l0.8-0.2c0.3,0.7,0.6,1.6,0.7,2.2L122.3,41.7z M121.3,42.1c0.1,0.7,0.3,1.7,0.3,2.3l-0.8,0.2c0-0.6-0.2-1.6-0.3-2.3L121.3,42.1z
		 M122.5,41.9c0.3,0.6,0.5,1.4,0.7,2l-0.8,0.3c-0.1-0.5-0.4-1.4-0.6-2L122.5,41.9z M127.9,37.3c0,0,0,0.4,0,0.5
		c-0.1,4.6-0.3,6.2-0.7,6.7c-0.3,0.3-0.5,0.5-0.9,0.5c-0.4,0.1-1,0-1.6,0c0-0.3-0.1-0.7-0.3-1c0.6,0.1,1.2,0.1,1.5,0.1
		c0.2,0,0.3,0,0.4-0.2c0.3-0.3,0.4-1.8,0.5-5.7h-2.8c-0.3,0.6-0.5,1.1-0.8,1.5c-0.2-0.1-0.6-0.4-0.9-0.6c0.7-0.9,1.3-2.3,1.6-3.7
		l1,0.2c-0.1,0.6-0.3,1.2-0.5,1.7H127.9z M125.4,42.3c-0.3-0.6-1.1-1.6-1.8-2.3l0.7-0.5c0.7,0.6,1.5,1.6,1.8,2.2L125.4,42.3z"/>
	<path d="M132.6,35.7c-0.3,0.7-0.6,1.4-1,2.1v7.3h-0.9v-5.9c-0.3,0.4-0.7,0.8-1,1.2c-0.1-0.2-0.4-0.8-0.5-1c1-1,2-2.5,2.6-4
		L132.6,35.7z M136,41.3c-0.1,0.7-0.3,1.3-0.6,1.9c1,0.5,2.3,0.9,3.7,1c-0.2,0.2-0.5,0.6-0.6,0.9c-1.4-0.2-2.7-0.6-3.7-1.2
		c-0.5,0.5-1.2,0.9-2.3,1.2c-0.1-0.2-0.4-0.6-0.6-0.8c0.9-0.2,1.6-0.6,2.1-0.9c-0.6-0.5-1-1-1.4-1.6l0.8-0.3
		c0.3,0.5,0.7,0.9,1.2,1.3c0.3-0.4,0.4-0.9,0.5-1.4h-2.4v-3h2.5v-0.9h-2.8v-0.9h2.8v-1h1v1h2.9v0.9H136v0.9h2.6v3H136z M135.1,40.5
		v-0.3v-1h-1.6v1.3H135.1z M136,39.1v1c0,0.1,0,0.2,0,0.3h1.7v-1.3H136z"/>
	<path d="M148.8,43.8c0,0.6-0.1,0.9-0.5,1c-0.4,0.2-1,0.2-2,0.2c0-0.3-0.2-0.7-0.3-0.9c0.7,0,1.4,0,1.6,0c0.2,0,0.3-0.1,0.3-0.3V42
		h-2.5v3h-1v-3h-2.4c-0.2,1.2-0.5,2.3-1.3,3.2c-0.1-0.2-0.5-0.5-0.8-0.6c1.1-1.3,1.2-3.1,1.2-4.6v-3.7h7.7V43.8z M144.3,41v-1.6
		h-2.3v0.4c0,0.4,0,0.7,0,1.1H144.3z M142.1,37.1v1.5h2.3v-1.5H142.1z M147.9,37.1h-2.5v1.5h2.5V37.1z M147.9,41v-1.6h-2.5V41H147.9
		z"/>
	<path d="M1.7,57.7c0.8-0.3,1.3-0.8,1.3-1.4c0,0-0.1,0-0.1,0C2.5,56.3,2,56,2,55.5c0-0.5,0.4-0.8,0.9-0.8c0.7,0,1,0.5,1,1.3
		c0,1.2-0.7,2.1-1.9,2.5L1.7,57.7z"/>
	<path d="M9.3,56.3c-0.2,1-0.6,2-1,2.7c0.2,0.1,0.4,0.3,0.7,0.5c0.7,0.4,1.7,0.5,2.9,0.5c1.3,0,3-0.1,4.2-0.2
		c-0.1,0.3-0.3,0.7-0.3,1c-0.8,0.1-2.7,0.1-4,0.1c-1.4,0-2.3-0.1-3-0.6c-0.4-0.2-0.8-0.6-1-0.6c-0.2,0-0.6,0.7-0.9,1.3l-0.7-0.9
		c0.3-0.5,0.7-0.8,1-1C7.7,58.6,8,57.8,8.2,57H7c0.3-0.6,0.6-1.4,0.9-2.2H6.6v-0.9H9c-0.2,0.7-0.5,1.6-0.8,2.3h0.6l0.1,0L9.3,56.3z
		 M7.8,53.5c-0.1-0.5-0.4-1.2-0.6-1.7l0.9-0.2c0.2,0.5,0.4,1.2,0.6,1.7L7.8,53.5z M10.6,55.5c0,1.3-0.2,2.8-0.7,3.9
		c-0.2-0.1-0.6-0.4-0.8-0.5c0.6-1.3,0.6-3.1,0.6-4.4v-2.7h5.8v6.7c0,0.5-0.1,0.7-0.4,0.8c-0.3,0.1-0.8,0.2-1.5,0.2
		c0-0.2-0.2-0.6-0.3-0.8c0.5,0,0.9,0,1,0c0.1,0,0.2-0.1,0.2-0.2v-3H10.6z M10.6,52.6v0.7h1.6v-0.7H10.6z M10.6,54.9h1.6V54h-1.6v0.5
		V54.9z M14,56.1v2.4h-2.8v-2.4H14z M13.3,56.7h-1.4v1.1h1.4V56.7z M14.6,52.6H13v0.7h1.6V52.6z M14.6,54.9V54H13v0.8H14.6z"/>
	<path d="M23.5,56.7c0.9,1.2,2.4,2.4,3.8,3c-0.2,0.2-0.6,0.6-0.7,0.9c-1.3-0.7-2.7-1.9-3.7-3.2v3.7h-1v-3.7c-1,1.3-2.3,2.5-3.6,3.1
		c-0.2-0.3-0.5-0.6-0.7-0.9c1.4-0.6,2.9-1.8,3.8-3h-3v-1h3.5v-1.6h-4v-1h4v-1.7h1v1.7H27v1h-4.1v1.6h3.6v1H23.5z"/>
	<path d="M31.3,51.7c-0.2,0.7-0.4,1.4-0.7,2.1v7.3h-0.9v-5.3c-0.2,0.3-0.4,0.6-0.6,0.9c-0.1-0.2-0.3-0.8-0.5-1
		c0.8-1,1.4-2.6,1.8-4.1L31.3,51.7z M32.4,59v2h-0.9v-9.2h2.9v3.4h-2v1h1.8V57h-1.8v1.1h1.9V59H32.4z M32.4,52.7v1.8h1.2v-1.8H32.4z
		 M37.9,56.1c-0.2,1.3-0.7,2.3-1.2,3.1c0.5,0.5,1,0.9,1.7,1.2c-0.2,0.2-0.5,0.5-0.6,0.7c-0.7-0.3-1.2-0.7-1.7-1.3
		c-0.6,0.6-1.2,1-2,1.3c-0.1-0.2-0.3-0.5-0.5-0.7c0.8-0.3,1.5-0.7,2-1.3c-0.4-0.6-0.7-1.4-0.9-2.2l0.5-0.1h-0.7v-0.8h2.7l0.2,0
		L37.9,56.1z M37.8,55.2h-3v-0.8h2.1v-1.7h-2.1v-0.8h3V55.2z M35.4,56.7c0.2,0.6,0.4,1.2,0.7,1.7c0.3-0.5,0.6-1,0.8-1.7H35.4z"/>
	<path d="M48.1,52.1v8.8h-1v-0.6h-4.9V61h-1v-8.8H48.1z M42.1,53.1v2.6H47v-2.6H42.1z M47,59.3v-2.7h-4.9v2.7H47z"/>
	<path d="M54.6,54.5c0,1.1-0.2,2.5-0.8,3.8c0.5,0.5,1,0.9,1.3,1.3l-0.7,0.8c-0.3-0.3-0.7-0.8-1.1-1.2c-0.5,0.7-1.1,1.3-1.9,1.9
		c-0.1-0.2-0.5-0.5-0.7-0.7c0.8-0.6,1.4-1.2,1.9-1.9c-0.6-0.5-1.1-1-1.6-1.4c0.2-0.7,0.4-1.5,0.6-2.4l-0.7,0l-0.1-0.9l1,0
		c0.1-0.8,0.2-1.6,0.3-2.3l1,0.1c-0.1,0.7-0.2,1.4-0.3,2.2l1-0.1v-0.7h0.9v0.7l0.6,0l0,0.9L54.6,54.5z M52.5,54.6
		c-0.1,0.8-0.3,1.5-0.5,2.2c0.3,0.3,0.7,0.6,1,0.9c0.5-1.1,0.6-2.2,0.6-3.1L52.5,54.6z M60.4,56.7h-2.2V60c0,0.5-0.1,0.8-0.5,0.9
		c-0.4,0.1-0.9,0.2-1.7,0.2c-0.1-0.3-0.2-0.7-0.3-0.9c0.6,0,1.2,0,1.3,0c0.2,0,0.2,0,0.2-0.2v-3.2h-2.3v-0.9h2.3v-1.1
		c0.5-0.4,1-1.1,1.4-1.6h-3.3v-0.9h3.9l0.2-0.1l0.7,0.5c-0.5,0.8-1.2,1.7-2,2.3v0.9h2.2V56.7z"/>
	<path d="M70.2,55.5c-0.4,1.5-1.1,2.6-2,3.5c0.9,0.6,2,1,3.2,1.2c-0.2,0.2-0.5,0.6-0.6,0.9c-1.3-0.3-2.5-0.8-3.4-1.4
		c-0.9,0.7-1.9,1.1-3,1.4c-0.1-0.3-0.4-0.6-0.6-0.8c1-0.3,2-0.7,2.8-1.2c-0.7-0.6-1.2-1.4-1.6-2.3c-0.5,1.5-1.2,2.9-2.4,4
		c-0.2-0.2-0.5-0.5-0.8-0.7c1.8-1.5,2.6-4,2.9-6h-2.5v-0.9h2.6c0.1-0.8,0.1-1.4,0.1-1.7h1c0,0.4,0,0.9-0.1,1.7h5.4V54h-5.5
		c-0.1,0.4-0.1,0.8-0.2,1.2h3.9l0.2,0L70.2,55.5z M65.8,56.2c0.4,0.8,0.9,1.6,1.6,2.2c0.6-0.6,1.1-1.3,1.5-2.2H65.8z"/>
	<path d="M75.6,55.3c0.4,0.4,1.3,1.5,1.5,1.8l-0.6,0.8c-0.2-0.3-0.6-0.9-0.9-1.4v4.6h-0.9v-4.6c-0.4,1.1-0.9,2.1-1.4,2.8
		c-0.1-0.3-0.3-0.7-0.5-0.9c0.7-0.9,1.4-2.4,1.7-3.7h-1.5v-0.9h1.6v-2.2h0.9v2.2H77v0.9h-1.4V55.3z M82.2,52v8.9h-1v-0.6h-2.9V61
		h-0.9v-9H82.2z M78.4,52.9v1.5h2.9v-1.5H78.4z M78.4,57h2.9v-1.6h-2.9V57z M81.2,59.5v-1.6h-2.9v1.6H81.2z"/>
	<path d="M85.5,58.4c-0.2,0.9-0.4,1.9-0.7,2.5c-0.2-0.1-0.6-0.2-0.8-0.3c0.3-0.6,0.5-1.6,0.7-2.4L85.5,58.4z M87.7,57.7
		c0-0.2-0.1-0.3-0.1-0.6c-2.6,0.4-2.9,0.5-3.2,0.6c-0.1-0.2-0.2-0.6-0.3-0.9c0.3-0.1,0.5-0.3,0.9-0.7c0.2-0.2,0.5-0.6,0.9-1.1
		c-1.1,0.1-1.4,0.2-1.5,0.3c-0.1-0.2-0.2-0.6-0.3-0.9c0.2,0,0.4-0.2,0.7-0.5c0.3-0.3,1.1-1.5,1.5-2.6l0.9,0.4
		c-0.5,0.9-1.1,1.9-1.7,2.6l1.1-0.1c0.3-0.4,0.6-0.9,0.8-1.3l0.8,0.5c-0.7,1.1-1.6,2.2-2.4,3.1l1.6-0.2c-0.1-0.3-0.2-0.6-0.3-0.9
		l0.8-0.2c0.3,0.7,0.6,1.6,0.7,2.2L87.7,57.7z M86.7,58.1c0.1,0.7,0.3,1.7,0.3,2.3l-0.8,0.2c0-0.6-0.2-1.6-0.3-2.3L86.7,58.1z
		 M87.9,57.9c0.3,0.6,0.5,1.4,0.7,2l-0.8,0.3c-0.1-0.5-0.4-1.4-0.6-2L87.9,57.9z M93.3,53.3c0,0,0,0.4,0,0.5
		c-0.1,4.6-0.3,6.2-0.7,6.7c-0.3,0.3-0.5,0.5-0.9,0.5c-0.4,0.1-1,0-1.6,0c0-0.3-0.1-0.7-0.3-1c0.6,0.1,1.2,0.1,1.5,0.1
		c0.2,0,0.3,0,0.4-0.2c0.3-0.3,0.4-1.8,0.5-5.7h-2.8c-0.3,0.6-0.5,1.1-0.8,1.5c-0.2-0.1-0.6-0.4-0.9-0.6c0.7-0.9,1.3-2.3,1.6-3.7
		l1,0.2c-0.1,0.6-0.3,1.2-0.5,1.7H93.3z M90.8,58.3c-0.3-0.6-1.1-1.6-1.8-2.3l0.7-0.5c0.7,0.6,1.5,1.6,1.8,2.2L90.8,58.3z"/>
	<path d="M96.1,57.7c0.8-0.3,1.3-0.8,1.3-1.4c0,0-0.1,0-0.1,0c-0.5,0-0.9-0.3-0.9-0.8c0-0.5,0.4-0.8,0.9-0.8c0.7,0,1,0.5,1,1.3
		c0,1.2-0.7,2.1-1.9,2.5L96.1,57.7z"/>
	<path d="M101.3,56.3c-0.1-0.7-0.2-2-0.4-3l0.7-0.1c0.2,1,0.4,2.2,0.5,2.9L101.3,56.3z M103.2,55.4c0,0.6,0,1.3-0.1,1.9
		c0.3,0.4,1.1,1.5,1.3,1.8l-0.7,0.7c-0.2-0.3-0.5-0.9-0.8-1.4c-0.2,1-0.7,1.9-1.4,2.7c-0.1-0.2-0.5-0.5-0.7-0.7
		c1.3-1.5,1.5-3.4,1.5-5.3v-3.6h0.9v3.6V55.4c0.2-0.7,0.5-1.6,0.6-2.3l0.8,0.3c-0.3,0.7-0.6,1.7-0.8,2.2L103.2,55.4z M108.1,55.3
		c-0.3,0.3-0.5,0.5-0.8,0.8h2.9v0.8h-3.4c-0.1,0.3-0.2,0.7-0.3,1h3.3c0,0,0,0.3,0,0.4c-0.2,1.5-0.3,2.2-0.6,2.4
		c-0.2,0.2-0.5,0.3-0.9,0.3c-0.3,0-1,0-1.7,0c0-0.3-0.1-0.6-0.3-0.9c0.7,0.1,1.4,0.1,1.7,0.1c0.2,0,0.3,0,0.5-0.1
		c0.2-0.1,0.3-0.6,0.4-1.4h-3.5c0.1-0.4,0.3-1,0.5-1.6c-0.5,0.3-1,0.6-1.6,0.9c-0.1-0.2-0.4-0.6-0.6-0.8c1.1-0.5,2.2-1.1,3.1-2h-2.4
		v-0.9h1.9v-1h-1.5v-0.8h1.5v-1.2h1v1.2h1.4v0.6c0.3-0.4,0.5-0.8,0.8-1.3l0.9,0.3c-0.4,0.8-0.9,1.6-1.5,2.3h1.6v0.9H108.1z
		 M107.4,54.5h0.4c0.3-0.3,0.6-0.7,0.8-1h-1.2V54.5z"/>
	<path d="M121,59.9c0,0.5-0.1,0.9-0.5,1c-0.4,0.2-1,0.2-1.8,0.2c0-0.3-0.2-0.7-0.3-1c0.6,0,1.2,0,1.4,0c0.2,0,0.2-0.1,0.2-0.2v-6h-3
		c0,0.1-0.1,0.2-0.1,0.3c0.9,0.5,2.1,1.3,2.7,1.8l-0.7,0.8c-0.5-0.5-1.5-1.2-2.4-1.7c-0.5,0.8-1.1,1.4-2.2,1.8
		c-0.1-0.2-0.4-0.6-0.6-0.7c1.3-0.5,1.9-1.3,2.2-2.2h-2.6v7.2h-1v-8.1h3.8c0.1-0.5,0.1-0.9,0.1-1.5h1c0,0.5-0.1,1-0.1,1.5h3.7V59.9z
		 M118.8,59.9c-0.5-0.5-1.4-1.2-2.2-1.8c-0.5,0.7-1.2,1.4-2.3,1.8c-0.1-0.2-0.4-0.6-0.6-0.7c1.9-0.7,2.4-1.8,2.6-3h1
		c-0.1,0.4-0.2,0.8-0.3,1.1c0.8,0.6,1.9,1.4,2.5,1.9L118.8,59.9z"/>
	<path d="M124.8,56.2c-0.4-0.3-1.2-0.8-1.8-1.1l0.5-0.7c0.6,0.3,1.4,0.7,1.8,1L124.8,56.2z M125.6,57.6c-0.5,1.1-1.1,2.3-1.6,3.3
		l-0.7-0.7c0.5-0.8,1.2-2.1,1.7-3.3L125.6,57.6z M125.3,53.5c-0.4-0.3-1.2-0.9-1.8-1.2l0.5-0.7c0.6,0.3,1.4,0.8,1.8,1.1L125.3,53.5z
		 M132.2,52.2c-1.3,0.5-3.2,0.8-4.9,1v1.9c0,1.7-0.2,4.3-1.3,6c-0.2-0.2-0.6-0.4-0.8-0.5c1.1-1.6,1.2-3.9,1.2-5.5v-2.6
		c1.8-0.2,3.8-0.6,5-1L132.2,52.2z M132.7,56.3c-0.5,0.4-1.1,0.9-1.6,1.2c0.4,1.1,0.9,2,1.7,2.5c-0.2,0.2-0.5,0.6-0.7,0.8
		c-1.4-1.2-2.1-3.4-2.4-6.1c-0.2,0-0.4,0.1-0.6,0.1v4.6l1.4-0.6c0,0.3,0.1,0.6,0.2,0.8c-2,0.8-2.3,1-2.5,1.2
		c-0.1-0.2-0.2-0.6-0.4-0.8c0.2-0.1,0.4-0.3,0.4-0.7v-5.2c1.1-0.2,2.3-0.5,3.1-0.8l0.8,0.8c-0.4,0.2-1,0.3-1.5,0.4
		c0.1,0.7,0.2,1.4,0.4,2.1c0.4-0.4,0.8-0.8,1.1-1.1L132.7,56.3z"/>
	<path d="M143.7,55.1h-0.9v4.8c0,0.5-0.1,0.8-0.5,1c-0.3,0.2-0.8,0.2-1.7,0.2c-0.1-0.3-0.2-0.7-0.3-0.9c0.6,0,1.1,0,1.3,0
		c0.2,0,0.2-0.1,0.2-0.2v-4.8h-2.4v-0.6h-1.5l0.8,0.3c-0.2,0.4-0.4,0.8-0.6,1.2h1.1v0.8h-1.8v0.9h1.6v0.8h-1.6v0.9
		c0.7-0.1,1.4-0.2,2.1-0.3l0,0.9c-1.8,0.3-3.8,0.5-5.1,0.7l-0.1-0.9c0.6-0.1,1.4-0.1,2.2-0.3v-1h-1.6v-0.8h1.6v-0.9h-1.8v-0.8h1.3
		c-0.1-0.3-0.5-0.8-0.7-1.1l0.6-0.3h-1.4v-0.8h1.5v-0.5l-0.5,0.3c-0.2-0.4-0.5-0.9-0.9-1.3l0.6-0.4c0.3,0.3,0.6,0.7,0.8,1.1v-1.4
		h0.8v2.2h0.7v-2.2h0.8v1.5c0.3-0.3,0.6-0.8,0.8-1.1l0.8,0.4c-0.4,0.5-0.8,1-1.2,1.3l-0.4-0.2v0.4h1.5v0.5h2.4v-2.7h0.9v2.7h0.9
		V55.1z M137.2,55.9c0.2-0.4,0.5-1,0.7-1.5h-2.1c0.3,0.3,0.6,0.8,0.7,1.1l-0.6,0.4H137.2z M140.5,58.4c-0.1-0.6-0.4-1.6-0.8-2.4
		l0.8-0.3c0.4,0.7,0.8,1.7,0.9,2.3L140.5,58.4z"/>
	<path d="M149,57.1l-0.9,0.8c-0.7-0.8-1.6-1.7-2.3-2.3l0.9-0.7C147.4,55.4,148.4,56.4,149,57.1z"/>
	<path d="M2.1,71.2v5.8H1.2v-9.2h3.9v3.4H2.1z M2.1,68.6v0.7h2.1v-0.7H2.1z M4.2,70.5v-0.7H2.1v0.7H4.2z M9.9,75.9
		c0,0.4-0.1,0.7-0.4,0.9C9.2,77,8.8,77,8.2,77c0-0.2-0.1-0.4-0.2-0.6v0H2.9v-0.7H5V75H3.3v-0.6H5v-0.5h0.9v0.5h1.8V75H5.9v0.7H8V76
		c0.3,0,0.6,0,0.7,0C8.9,76.1,9,76,9,75.9v-4.6h-3v-3.4h4V75.9z M5.9,71.4v0.5h1.7v0.6H5.9v0.6H8v0.6H3v-0.6h2v-0.6H3.4v-0.6H5v-0.5
		H5.9z M6.8,68.6v0.7H9v-0.7H6.8z M9,70.5v-0.7H6.8v0.7H9z"/>
	<path d="M15.6,72.1c-0.5,0-0.8,0-1-0.1c-0.7,0.3-1.5,0.5-2.3,0.7c-0.1-0.2-0.4-0.5-0.5-0.7c0.8-0.1,1.6-0.3,2.4-0.6
		c0-0.1,0-0.2,0-0.2v-1.4h0.8V71c1.3-0.5,2.4-1.1,3.1-1.9l0.7,0.3c-0.7,0.8-1.7,1.4-2.8,2h1.7c0.4,0,0.5-0.1,0.5-0.7
		c0.2,0.1,0.5,0.2,0.7,0.3c-0.1,0.9-0.4,1.1-1.2,1.1H15.6z M12.7,69.9h-0.9v-1.7h4c-0.1-0.2-0.2-0.4-0.3-0.6l0.9-0.2
		c0.1,0.2,0.3,0.5,0.4,0.8h3.8v1.7h-0.9V69h-4c0.4,0.2,0.9,0.5,1.2,0.7l-0.5,0.5c-0.3-0.3-1-0.7-1.5-0.9l0.4-0.3h-2.6V69.9z
		 M18.8,75c0.7,0.5,1.5,1.1,2,1.6L20,77.1c-0.2-0.2-0.4-0.4-0.6-0.6c-2.7,0.1-5.6,0.2-7.5,0.3L11.9,76c1,0,2.4-0.1,3.8-0.1V75h-2.9
		v-2.3h2.9v-0.5h1v0.5h3.1V75H18.8z M12,71.1c0.4-0.3,0.8-0.9,1-1.3l0.7,0.3c-0.3,0.5-0.6,1.1-1,1.5L12,71.1z M15.7,74.3v-0.8h-2
		v0.8H15.7z M16.7,73.5v0.8h2.1v-0.8H16.7z M18.6,75.8c-0.2-0.2-0.5-0.3-0.7-0.5l0.5-0.3h-1.7v0.8L18.6,75.8z M19,69.8
		c0.6,0.4,1.3,1,1.7,1.4l-0.7,0.5c-0.3-0.4-1-1.1-1.6-1.5L19,69.8z"/>
	<path d="M25.8,71.5c-1.3,0.1-2.6,0.3-3.6,0.4l-0.1-0.7c0.3,0,0.6-0.1,1-0.1v-2.8h-0.8v-0.7h5v0.7h-0.7V72h-0.9V71.5z M24.9,73.6
		c-0.1,0.3-0.2,0.5-0.3,0.7c0.5,0.4,1,1,1.3,1.3l-0.6,0.6c-0.2-0.3-0.7-0.8-1.1-1.2c-0.4,0.6-1,1.2-1.6,1.5c0-0.2-0.2-0.7-0.3-0.9
		c0.8-0.5,1.5-1.2,1.9-2.2L24.9,73.6z M30.6,72.5c-0.9,0.2-2,0.3-3.2,0.5v4.1h-1v-4c-1,0.1-2.1,0.2-3,0.2c-0.1-0.2-0.4-0.7-0.5-0.9
		c2.3,0,5.3-0.2,7-0.6L30.6,72.5z M24,68.3v0.5h1.8v-0.5H24z M24,69.9h1.8v-0.5H24V69.9z M25.8,70.8v-0.4H24V71L25.8,70.8z
		 M27.8,68.9c0.5,0.2,1,0.5,1.5,0.8c0.3-0.3,0.6-0.6,0.8-1h-2.6V68h3.1l0.1,0l0.6,0.3c-0.3,0.8-0.7,1.4-1.3,1.9
		c0.6,0.4,1.1,0.7,1.5,1l-0.7,0.7c-0.4-0.3-0.9-0.7-1.5-1.1c-0.6,0.5-1.3,0.8-2,1.1c-0.1-0.2-0.4-0.5-0.5-0.7
		c0.6-0.2,1.2-0.5,1.7-0.9c-0.5-0.3-0.9-0.6-1.4-0.8L27.8,68.9z M30.2,73.2c-0.1,0.3-0.2,0.5-0.3,0.8c0.4,0.7,1,1.3,1.6,1.6
		c-0.2,0.2-0.5,0.5-0.6,0.7c-0.5-0.3-1.1-0.9-1.4-1.5c-0.4,0.7-1,1.3-1.6,1.7c-0.1-0.2-0.3-0.7-0.4-0.9c0.8-0.5,1.5-1.4,1.9-2.5
		L30.2,73.2z"/>
	<path d="M38.3,67.7c-0.1,0.1-0.1,0.1-0.2,0.2c1,0.9,2.8,1.7,4.4,2c-0.2,0.2-0.5,0.5-0.6,0.7c-0.3-0.1-0.5-0.2-0.8-0.3v2.7h-7.1
		v-2.6c-0.3,0.1-0.5,0.2-0.8,0.3c-0.1-0.2-0.4-0.6-0.5-0.7c1.9-0.5,3.8-1.4,4.7-2.6L38.3,67.7z M41.1,70.4c-0.6-0.2-1.1-0.4-1.7-0.7
		V70h-3.6v-0.3c-0.5,0.3-1,0.5-1.5,0.7H41.1z M34.6,73.6h6V77h-1v-0.3h-4v0.3h-1V73.6z M36.1,71.1c0.2,0.4,0.5,0.8,0.5,1.2l-0.7,0.2
		h1.2v-1.4h-2.3v1.4h1c-0.1-0.3-0.3-0.8-0.5-1.2L36.1,71.1z M35.6,74.2v0.6h4v-0.6H35.6z M39.6,76.1v-0.6h-4v0.6H39.6z M38.8,69.3
		c-0.4-0.3-0.8-0.6-1.2-0.9c-0.3,0.3-0.7,0.6-1.1,0.9H38.8z M40.3,71.1H38v1.4h1.2l-0.7-0.2c0.2-0.3,0.4-0.9,0.5-1.2l0.8,0.2
		c-0.2,0.5-0.5,0.9-0.7,1.2h1.1V71.1z"/>
	<path d="M44.5,73.7c0.8-0.3,1.3-0.8,1.3-1.4c0,0-0.1,0-0.1,0c-0.5,0-0.9-0.3-0.9-0.8c0-0.5,0.4-0.8,0.9-0.8c0.7,0,1,0.5,1,1.3
		c0,1.2-0.7,2.1-1.9,2.5L44.5,73.7z"/>
	<path d="M55,69.1c-0.2,0.4-0.4,0.7-0.7,1.1v6.8h-1.1v-5.5c-1,1.1-2.2,2.1-3.6,2.8c-0.2-0.3-0.5-0.7-0.7-0.9c2-1,3.7-2.7,4.7-4.4
		h-4.4v-1h9v1H55z M55,70.7c1.2,0.8,2.8,2,3.5,2.8l-0.8,0.8c-0.7-0.8-2.3-2.1-3.5-2.9L55,70.7z"/>
	<path d="M61.6,70.7c-0.2,1.2-0.6,2.7-1.1,3.6l-1-0.4c0.6-0.9,1-2.3,1.2-3.4L61.6,70.7z M65.9,76c0.6,0,0.7-0.3,0.8-1.9
		c0.2,0.2,0.7,0.4,1,0.4c-0.1,1.9-0.4,2.4-1.6,2.4h-2c-1.2,0-1.6-0.3-1.6-1.6v-0.1c-0.7,0.5-1.4,0.9-2.2,1.3
		c-0.1-0.2-0.4-0.6-0.6-0.8c1-0.5,1.9-1,2.8-1.7v-4.2h1v3.3c1.7-1.5,3.1-3.4,4-5.2l1,0.4c-1.2,2.2-2.8,4.3-5,6v0.9
		c0,0.5,0.1,0.6,0.7,0.6H65.9z M65,70.1c-0.6-0.5-1.7-1.4-2.6-2l0.6-0.7c0.9,0.6,2,1.4,2.6,1.8L65,70.1z M67.7,70.9
		c0.7,1,1.4,2.3,1.6,3.2l-0.9,0.5c-0.2-0.9-0.9-2.3-1.6-3.3L67.7,70.9z"/>
	<path d="M79.3,72.6v4.4h-1.1v-0.6h-7.3v-3.9H72v2.9h2.5V72h-3.1v-3.7h1v2.7h2.1v-3.6h1.1v3.6h2.2v-2.7h1.1V72h-3.2v3.5h2.6v-2.9
		H79.3z"/>
	<path d="M85.4,71.8h-2.9v5.3h-1v-9.2h3.8V71.8z M82.5,68.7v0.7h2v-0.7H82.5z M84.5,71v-0.8h-2V71H84.5z M90.2,75.8
		c0,0.6-0.1,0.9-0.5,1.1c-0.4,0.2-1,0.2-2,0.2c0-0.3-0.2-0.7-0.3-1c0.7,0,1.4,0,1.6,0c0.2,0,0.3-0.1,0.3-0.3v-4h-3v-3.9h4V75.8z
		 M87.2,68.7v0.7h2v-0.7H87.2z M89.2,71v-0.8h-2V71H89.2z"/>
	<path d="M92.8,73.7c0.8-0.3,1.3-0.8,1.3-1.4c0,0-0.1,0-0.1,0c-0.5,0-0.9-0.3-0.9-0.8c0-0.5,0.4-0.8,0.9-0.8c0.7,0,1,0.5,1,1.3
		c0,1.2-0.7,2.1-1.9,2.5L92.8,73.7z"/>
	<path d="M106.6,69v0.9h-5.6c-0.4,0.7-0.8,1.5-1.2,2.1v5h-1v-3.9c-0.3,0.3-0.7,0.6-1.1,0.9c-0.1-0.3-0.3-0.7-0.5-0.9
		c1.2-0.8,2-2,2.7-3.2h-2.4V69h2.8c0.2-0.5,0.4-1,0.5-1.5l1,0.3c-0.1,0.4-0.3,0.9-0.5,1.3H106.6z M103.9,75.9h2.6v0.9h-6.3v-0.9h2.6
		v-2.7h-2.2v-0.9h2.2v-1.9h1v1.9h2.2v0.9h-2.2V75.9z"/>
	<path d="M111.3,73.9c-0.2-0.3-0.6-0.8-1-1.2v4.3h-0.9V73c-0.4,0.4-0.9,0.8-1.3,1.1c-0.1-0.3-0.3-0.8-0.4-1c1.1-0.6,2.2-1.8,2.9-3
		H108v-0.9h2c-0.2-0.4-0.6-1-0.9-1.4l0.8-0.4c0.4,0.4,0.8,1,1,1.3l-0.8,0.5h1.1l0.2,0l0.5,0.4c-0.3,0.8-0.7,1.5-1.2,2.2
		c0.4,0.4,1.2,1.2,1.4,1.4L111.3,73.9z M117.5,75.7v1h-6v-1h2.6v-4.2h-2.2v-0.9h2.2v-3.2h1v3.2h2.1v0.9h-2.1v4.2H117.5z"/>
	<path d="M126.1,75.7c0.6,0,1.4,0,1.8-0.1c0,0.3,0.1,0.7,0.1,0.9c-0.3,0.1-1.2,0.1-2,0.1h-4.4c-1.7,0-2.5-0.5-2.5-2.2v-5.7h-0.4
		v-0.9h8.8v0.9h-7.4v5.7c0,0.9,0.4,1.2,1.5,1.2H126.1z M120.8,72.3h2.8v2.7h-2.8V72.3z M121.6,74.4h1.1V73h-1.1V74.4z M125.9,71.7
		h-4v-2.4h4V71.7z M124.9,70h-2.1v1h2.1V70z M127.1,75.1h-2.9v-2.7h2.9V75.1z M126.2,73H125v1.4h1.2V73z"/>
	<path d="M131,73.5c-0.2,1-0.6,2-1,2.6c-0.2-0.1-0.5-0.4-0.7-0.5c0.4-0.6,0.7-1.5,0.9-2.4L131,73.5z M134.1,69.5h-4.7v-0.9h2.1
		c-0.1-0.3-0.3-0.7-0.4-1.1l0.9-0.2c0.2,0.4,0.4,0.9,0.5,1.3h1.6V69.5z M132.3,72.9v3.2c0,0.4-0.1,0.6-0.3,0.8
		c-0.3,0.1-0.7,0.1-1.2,0.1c0-0.2-0.2-0.6-0.3-0.8c0.3,0,0.7,0,0.8,0c0.1,0,0.1,0,0.1-0.1v-3.2h-1.5v-2.6h3.8v2.6H132.3z
		 M130.7,72.1h2.1V71h-2.1V72.1z M133.3,73.2c0.3,0.6,0.7,1.3,0.8,1.8l-0.7,0.3c-0.1-0.5-0.4-1.3-0.7-1.9L133.3,73.2z M137.8,76.1
		c0.1,0,0.2,0,0.3-0.1c0.1,0,0.1-0.1,0.1-0.3c0-0.2,0-0.6,0-1.1c0.2,0.2,0.5,0.3,0.8,0.4c0,0.5-0.1,1-0.1,1.2
		c-0.1,0.2-0.2,0.4-0.4,0.5c-0.2,0.1-0.4,0.1-0.6,0.1h-0.7c-0.2,0-0.5-0.1-0.7-0.2c-0.2-0.1-0.2-0.3-0.2-1V72c-0.3,2-0.9,3.8-2.2,5
		c-0.2-0.2-0.5-0.5-0.7-0.6c1.5-1.3,2-3.4,2.2-5.5h-1.3v-0.9h1.3c0.1-0.9,0.1-1.8,0.1-2.7h0.9c0,0.9,0,1.8-0.1,2.7h2.3V71h-2.4
		c0,0.2-0.1,0.5-0.1,0.7h0.8v4c0,0.2,0,0.3,0.1,0.4c0.1,0,0.1,0.1,0.2,0.1H137.8z M137.9,69.8c-0.2-0.4-0.6-1.1-1-1.6l0.6-0.4
		c0.4,0.5,0.9,1.1,1.1,1.5L137.9,69.8z"/>
	<path d="M144.4,76.1c0,0.4-0.1,0.7-0.4,0.8c-0.3,0.1-0.8,0.1-1.4,0.1c0-0.2-0.2-0.6-0.3-0.8c0.4,0,0.9,0,1,0c0.1,0,0.2,0,0.2-0.2
		v-1.4c-0.6,0.4-1.2,0.8-1.8,1.1l-0.3-0.7c-0.1,0.7-0.3,1.4-0.7,2c-0.1-0.2-0.5-0.5-0.7-0.7c0.6-0.8,0.6-1.9,0.6-2.8v-2.5h3.8V76.1z
		 M143.8,68.2c0.5,0.7,1.1,1.7,1.3,2.3l-0.8,0.4c-0.1-0.2-0.2-0.4-0.3-0.7c-2.8,0.3-3.2,0.3-3.4,0.4c-0.1-0.2-0.2-0.7-0.3-0.9
		c0.2,0,0.3-0.2,0.6-0.4c0.2-0.2,0.9-1,1.3-1.9l1,0.3c-0.4,0.7-0.9,1.3-1.4,1.8l1.9-0.1c-0.2-0.3-0.4-0.7-0.6-0.9L143.8,68.2z
		 M141.5,73.6c0,0.4,0,0.9-0.1,1.3c0.5-0.2,1.3-0.6,2-1v-0.4L143,74c-0.3-0.3-1-0.8-1.5-1.1l0.5-0.5c0.5,0.3,1.1,0.7,1.4,1V72h-2
		V73.6z M146.6,72c-1.1,0-1.4-0.4-1.4-1.4v-3.1h1v1.4h2.7v0.8h-2.7v1c0,0.4,0.1,0.5,0.4,0.5h1.8c0.3,0,0.7,0,0.9-0.1
		c0,0.3,0.1,0.6,0.1,0.8c-0.2,0.1-0.6,0.1-1,0.1H146.6z M148.3,76.1c0.4,0,0.5-0.2,0.5-1.2c0.2,0.2,0.6,0.3,0.9,0.4
		c-0.1,1.4-0.4,1.7-1.3,1.7h-1.7c-1.1,0-1.4-0.3-1.4-1.3v-3.4h1v1.2h2.8v0.9h-2.8v1.4c0,0.4,0.1,0.4,0.5,0.4H148.3z"/>
	<path d="M8.4,86.9c0,0.4,0,0.8,0,1.2c0.3,1.8,1,3.4,2.1,4.2c-0.2,0.2-0.5,0.5-0.6,0.8c-0.8-0.6-1.4-1.7-1.8-3c-0.3,1-0.8,2.1-1.7,3
		c-0.1-0.2-0.4-0.4-0.6-0.6v0H2.3v0.5H1.5v-3.4c-0.2,0.2-0.3,0.4-0.5,0.6c-0.1-0.1-0.3-0.5-0.4-0.7c0.6-0.6,1.1-1.4,1.4-2.2H1.1
		v-1.9h2.1v1.9H2l0.7,0.2c-0.1,0.2-0.2,0.4-0.3,0.6h1.1c-0.1-0.2-0.2-0.4-0.3-0.5l0.6-0.3c0.2,0.2,0.3,0.5,0.4,0.8h1.4v0.7H4.3v0.5
		h1.3v0.7H4.3v0.5h1.3v0.6H4.3v0.6h1.4v0.5c1.7-1.8,1.8-4,1.8-5.5v-0.6h0.9V86.9z M2.1,84.8H0.7V84h1.4v-0.6h0.8v1.9H2.1V84.8z
		 M1.7,86.9h0.9v-0.8H1.7V86.9z M3.5,88.9H2.3v0.5h1.2V88.9z M3.5,90.1H2.3v0.5h1.2V90.1z M2.3,91.9h1.2v-0.6H2.3V91.9z M5.7,87.4
		H3.7v-1.9h2.1V87.4z M4.8,85.3H3.9v-1.9h0.8V84h1.4v0.7H4.8V85.3z M5.1,86.1H4.3v0.8h0.9V86.1z M7.3,85.9c-0.2,0.9-0.5,1.8-0.9,2.4
		c-0.2-0.2-0.6-0.5-0.8-0.6c0.6-1,1-2.6,1.2-4.3l0.9,0.1c-0.1,0.5-0.1,1-0.2,1.4h2.2l0.1,0l0.6,0.2c-0.2,1-0.5,2.1-0.7,2.8l-0.7-0.2
		c0.2-0.5,0.3-1.1,0.5-1.8H7.3z"/>
	<path d="M14.9,87.5c-1.3,0.1-2.6,0.3-3.6,0.4l-0.1-0.7c0.3,0,0.6-0.1,1-0.1v-2.8h-0.8v-0.7h5v0.7h-0.7V88h-0.9V87.5z M14,89.6
		c-0.1,0.3-0.2,0.5-0.3,0.7c0.5,0.4,1,1,1.3,1.3l-0.6,0.6c-0.2-0.3-0.7-0.8-1.1-1.2c-0.4,0.6-1,1.2-1.6,1.5c0-0.2-0.2-0.7-0.3-0.9
		c0.8-0.5,1.5-1.2,1.9-2.2L14,89.6z M19.7,88.5c-0.9,0.2-2,0.3-3.2,0.5v4.1h-1v-4c-1,0.1-2.1,0.2-3,0.2c-0.1-0.2-0.4-0.7-0.5-0.9
		c2.3,0,5.3-0.2,7-0.6L19.7,88.5z M13.1,84.3v0.5h1.8v-0.5H13.1z M13.1,85.9h1.8v-0.5h-1.8V85.9z M14.9,86.8v-0.4h-1.8V87L14.9,86.8
		z M16.9,84.9c0.5,0.2,1,0.5,1.5,0.8c0.3-0.3,0.6-0.6,0.8-1h-2.6V84h3.1l0.1,0l0.6,0.3c-0.3,0.8-0.7,1.4-1.3,1.9
		c0.6,0.4,1.1,0.7,1.5,1L20,87.9c-0.4-0.3-0.9-0.7-1.5-1.1c-0.6,0.5-1.3,0.8-2,1.1c-0.1-0.2-0.4-0.5-0.5-0.7
		c0.6-0.2,1.2-0.5,1.7-0.9c-0.5-0.3-0.9-0.6-1.4-0.8L16.9,84.9z M19.3,89.2c-0.1,0.3-0.2,0.5-0.3,0.8c0.4,0.7,1,1.3,1.6,1.6
		c-0.2,0.2-0.5,0.5-0.6,0.7c-0.5-0.3-1.1-0.9-1.4-1.5c-0.4,0.7-1,1.3-1.6,1.7c-0.1-0.2-0.3-0.7-0.4-0.9c0.8-0.5,1.5-1.4,1.9-2.5
		L19.3,89.2z"/>
	<path d="M25.6,90.7c-0.8,0.9-2.1,1.7-3.3,2.1c-0.1-0.3-0.4-0.6-0.7-0.8c1.2-0.3,2.5-0.9,3.2-1.6L25.6,90.7z M27,89.2h4.2V90H27v3
		h-1v-3h-4.2v-0.8H26v-0.6h1V89.2z M24.3,88.7c0-0.1,0-0.3-0.1-0.5c-1.6,0.2-1.9,0.3-2.1,0.4c0-0.2-0.2-0.5-0.3-0.7
		c0.2,0,0.4-0.3,0.7-0.6c0.1-0.1,0.4-0.5,0.7-1c-0.8,0.1-1,0.1-1.1,0.2c0-0.2-0.2-0.5-0.2-0.7c0.1,0,0.3-0.2,0.4-0.4
		c0.1-0.2,0.6-1.1,0.9-1.9l0.8,0.3c-0.3,0.7-0.6,1.4-1,1.9l0.7-0.1c0.2-0.3,0.4-0.6,0.5-1l0.7,0.4C24.4,86,23.7,87,23,87.7l1.1-0.1
		c-0.1-0.2-0.1-0.5-0.2-0.7l0.7-0.1c0.1,0.6,0.3,1.3,0.4,1.8L24.3,88.7z M27.9,88.4h-2.8v-4H26c0.1-0.3,0.2-0.7,0.2-1l0.9,0.2
		c-0.1,0.3-0.2,0.6-0.3,0.9h1.2V88.4z M27.1,85.1H26V86h1.1V85.1z M27.1,86.7H26v0.9h1.1V86.7z M28.2,90.3c1,0.5,2.3,1.3,3,1.8
		l-0.6,0.7c-0.6-0.5-1.9-1.4-2.9-1.9L28.2,90.3z M30.5,88.8c0-0.1-0.1-0.3-0.1-0.4c-1.6,0.2-1.9,0.3-2.1,0.3c0-0.2-0.2-0.6-0.3-0.8
		c0.2,0,0.4-0.3,0.7-0.5c0.1-0.2,0.4-0.5,0.7-1c-0.9,0.1-1.1,0.2-1.2,0.2c0-0.2-0.2-0.5-0.3-0.7c0.1,0,0.3-0.2,0.4-0.4
		c0.2-0.2,0.6-1.1,0.9-2l0.8,0.3c-0.3,0.7-0.7,1.4-1.1,2l0.9-0.1c0.2-0.3,0.3-0.6,0.5-0.9l0.7,0.4c-0.6,0.9-1.2,1.9-1.9,2.6l1.1-0.1
		c-0.1-0.2-0.1-0.5-0.2-0.7l0.6-0.2c0.2,0.5,0.4,1.2,0.5,1.7L30.5,88.8z"/>
	<path d="M41.7,91.1h-4.2v1c0,0.5-0.1,0.7-0.6,0.8s-1.1,0.1-2,0.1c-0.1-0.3-0.2-0.6-0.3-0.8c0.7,0,1.4,0,1.6,0
		c0.2,0,0.3-0.1,0.3-0.2v-1h-4.1v-0.8h4.1v-0.5h0l0,0c0.6-0.1,1.2-0.3,1.8-0.5h-4.9v-0.8h6.2v0h0.3l0.2,0l0.6,0.6
		c-0.9,0.5-2,0.9-3.2,1.2v0.1h4.2V91.1z M41.5,85.1h-9.1v-0.8h4c-0.1-0.3-0.2-0.5-0.3-0.7l1-0.2c0.1,0.3,0.3,0.6,0.4,0.9h3.9V85.1z
		 M33.7,87.9v-2.2h6.6v2.2H33.7z M34.7,87.2h4.6v-0.8h-4.6V87.2z"/>
	<path d="M44.9,86.6c0.9,0,1.6,0.7,1.6,1.6c0,0.9-0.7,1.6-1.6,1.6c-0.9,0-1.6-0.7-1.6-1.6C43.3,87.4,44,86.6,44.9,86.6z M44.9,89.3
		c0.6,0,1-0.5,1-1s-0.5-1-1-1c-0.5,0-1,0.5-1,1S44.4,89.3,44.9,89.3z"/>
</g>
<g>
	<path d="M5.6,8.8c-0.2-0.4-0.6-1-1-1.6v5.4H3V7.7c-0.5,1.1-1.1,2.1-1.7,2.8C1.2,10,0.8,9.4,0.5,9c0.8-0.8,1.7-2.2,2.2-3.5H1V4.1H3
		V2.6C2.4,2.7,1.9,2.8,1.3,2.9C1.3,2.5,1.1,2,0.9,1.6C2.6,1.4,4.5,1,5.7,0.5l0.8,1.3C5.9,2,5.2,2.2,4.5,2.4v1.7h1.9v1.4H4.5v0.1
		c0.4,0.3,1.6,1.6,1.9,1.9L5.6,8.8z M11.3,12.3c-0.1-0.4-0.2-0.9-0.3-1.4c-4,0.6-4.6,0.8-5.1,1c-0.1-0.3-0.3-1.1-0.5-1.5
		c0.4-0.1,0.6-0.7,1-1.7c0.4-1,1.4-4.6,1.9-7.9L10,1.1C9.4,4.2,8.6,7.4,7.7,9.9l2.9-0.4c-0.3-1.1-0.7-2.2-1.1-3.2l1.4-0.5
		c0.8,1.9,1.7,4.3,2,5.9L11.3,12.3z"/>
	<path d="M20.5,0.4c0,0.5,0,1.2-0.1,2c0.2,1.8,1,6.7,5.5,8.7c-0.5,0.4-0.9,0.9-1.1,1.3c-2.9-1.4-4.3-3.9-5.1-6.1
		C19,8.6,17.7,11,15,12.5c-0.3-0.4-0.8-0.9-1.3-1.3c5.3-2.8,5-8.6,5.1-10.8H20.5z"/>
	<path d="M30.4,1.8h1.9v8h3.9v1.6h-5.8V1.8z"/>
	<path d="M37.1,7.8c0-2.4,1.7-3.8,3.5-3.8c1.8,0,3.5,1.4,3.5,3.8c0,2.4-1.7,3.8-3.5,3.8C38.8,11.6,37.1,10.2,37.1,7.8z M42.1,7.8
		c0-1.4-0.6-2.3-1.5-2.3c-1,0-1.5,0.9-1.5,2.3c0,1.4,0.6,2.2,1.5,2.2C41.6,10.1,42.1,9.2,42.1,7.8z"/>
	<path d="M45.6,8.7V4.2h1.9v4.3c0,1.1,0.3,1.5,1,1.5c0.6,0,1-0.3,1.5-0.9V4.2h1.9v7.3h-1.6l-0.1-1h-0.1c-0.6,0.7-1.3,1.2-2.3,1.2
		C46.3,11.6,45.6,10.5,45.6,8.7z"/>
	<path d="M54,4.2h1.6l0.1,1h0.1C56.3,4.5,57.1,4,58.1,4c1.6,0,2.2,1.1,2.2,2.9v4.5h-1.9V7.1c0-1.1-0.3-1.5-1-1.5
		c-0.6,0-1,0.3-1.5,0.8v5H54V4.2z"/>
	<path d="M61.8,12.7c0-0.6,0.4-1.1,1-1.5v-0.1c-0.4-0.2-0.7-0.6-0.7-1.2c0-0.5,0.4-1.1,0.8-1.4V8.5c-0.5-0.4-1-1.1-1-1.9
		C62,4.9,63.4,4,65,4c0.4,0,0.8,0.1,1.1,0.2h2.6v1.4h-1.2c0.2,0.2,0.3,0.6,0.3,1.1c0,1.6-1.2,2.5-2.8,2.5c-0.3,0-0.6-0.1-0.9-0.2
		c-0.2,0.2-0.3,0.3-0.3,0.6c0,0.4,0.3,0.6,1.1,0.6h1.2c1.8,0,2.7,0.5,2.7,1.8c0,1.5-1.5,2.6-4,2.6C63.1,14.6,61.8,14,61.8,12.7z
		 M67,12.3c0-0.5-0.4-0.6-1.2-0.6h-0.9c-0.4,0-0.8,0-1-0.1c-0.3,0.3-0.5,0.5-0.5,0.8c0,0.6,0.7,1,1.7,1C66.2,13.4,67,12.9,67,12.3z
		 M66.1,6.6c0-0.9-0.5-1.3-1.1-1.3s-1.1,0.5-1.1,1.3S64.3,8,65,8S66.1,7.5,66.1,6.6z"/>
	<path d="M69.4,7.8C69.4,5.4,71,4,72.8,4c2,0,3,1.5,3,3.5c0,0.4,0,0.7-0.1,0.9h-4.5c0.2,1.2,0.9,1.8,2,1.8c0.6,0,1.1-0.2,1.6-0.5
		l0.6,1.2c-0.7,0.5-1.6,0.8-2.5,0.8C70.9,11.6,69.4,10.2,69.4,7.8z M74.2,7.1c0-1-0.4-1.6-1.4-1.6c-0.8,0-1.4,0.5-1.6,1.6H74.2z"/>
</g>
</svg>
