<svg width="598" height="57" viewBox="0 0 598 57" fill="none" xmlns="http://www.w3.org/2000/svg">
<path d="M1.22651 33.0972L0.817871 32.6885V24.7202L1.22651 24.3115L10.666 24.475H42.4577L51.8972 24.3115L52.3058 24.7202V32.6885L51.8972 33.0972L42.4577 32.9337H10.666L1.22651 33.0972Z" fill="white"/>
<path d="M79.1123 22.3907C77.8047 28.6429 76.5379 34.3229 75.1486 39.4717C76.7422 38.9404 78.3768 38.491 80.0522 37.9189V44.0075C80.0522 44.7022 79.7661 44.9065 79.194 45.1517C73.514 47.3583 67.0167 49.4015 59.5796 51.1995L59.0075 51.036L56.3922 44.3753L56.7191 43.8032C60.642 43.1085 64.2789 42.3321 67.834 41.474C69.4685 34.3637 70.7353 26.6405 71.5526 20.1433L72.0021 20.0207L78.9897 21.9004L79.1123 22.3907ZM64.9327 2.93973L65.3413 2.5311H72.4107L72.8193 2.93973V12.0523H73.0645L80.706 11.8888L81.0329 12.1749V18.5087L80.706 18.7948L73.0645 18.6313H65.3413L57.4955 18.7948L57.0869 18.4679V12.2566L57.4138 11.9297L64.9735 12.0931V2.93973H64.9327ZM67.0984 38.4501L60.8872 40.4933L60.356 40.1664C59.7839 33.6282 59.0075 27.8256 57.9042 23.2489L58.1902 22.7177L64.4423 20.8788L64.8918 21.124C66.036 26.4771 66.8941 32.2388 67.4662 37.9189L67.0984 38.4501ZM88.8787 52.6297V56.144H80.8694L81.1555 42.659V35.2219L80.992 28.9698L81.3189 28.5611L87.9388 28.7246H89.2464V2.81714L89.5325 2.49023H96.9696L97.2965 2.81714V12.3383H102.486L109.719 12.1749L110.046 12.4609V18.9582L109.637 19.3668L102.486 19.2034H97.3374V28.7654H101.097L107.594 28.602L108.003 29.0106L107.839 35.2627V42.659L108.125 55.8579H99.7484V52.6706H88.8787V52.6297ZM99.7075 35.3853H88.8787V45.6421H99.7075V35.3853Z" fill="white"/>
<path d="M164.966 54.6731C164.721 55.2452 164.558 55.2452 163.945 55.2452C159.205 55.4086 154.424 55.5312 150.051 55.5312C145.025 55.5312 140.448 55.4086 136.852 55.1226C131.949 54.7956 127.29 53.6923 123.939 49.4425C121.774 51.2814 119.444 53.3246 117.115 55.4903L116.584 55.2452L112.539 48.5844L112.702 48.0532C115.481 46.2961 117.646 44.9884 120.139 43.5991V31.3809H118.995L113.928 31.5443L113.519 31.2174V24.7201L113.846 24.3932L118.954 24.5567H120.139L127.495 24.3932L127.903 24.8019L127.74 33.3423V43.7625C129.62 47.1951 133.869 48.0123 139.508 48.2575C146.578 48.5435 158.265 48.0123 168.072 47.2768L164.966 54.6731ZM123.163 16.098H122.428C120.057 13.0332 117.973 10.8674 114.418 8.17044L114.459 7.72095L119.485 3.67546L120.18 3.79805C123.204 5.84122 125.697 7.8844 128.475 10.9492L128.434 11.5621L123.163 16.098ZM147.599 10.3362C148.866 7.96612 150.092 5.22828 151.032 2.81733L151.563 2.53129L158.224 4.53359L158.51 5.10568C157.652 6.74022 156.589 8.70167 155.486 10.3362H158.673L165.743 10.1728L166.151 10.4588V16.098L165.743 16.384L158.673 16.2614H154.751V19.6122H157.08L164.19 19.4488L164.599 19.7348V25.2922L164.19 25.5783L157.08 25.4148H154.751V28.8882H157.202L164.313 28.7248L164.721 29.0517V34.5274L164.313 34.8134L157.202 34.65H154.751V38.3685H159L165.988 38.2051L166.397 38.4911V44.2937L165.988 44.7024L159 44.5389H140.489V46.909H132.521L132.807 31.5852V23.0039C132.398 23.4534 131.949 23.9029 131.54 24.3115C131.213 24.6384 130.927 24.8427 130.641 24.8427C130.355 24.8427 130.069 24.5976 129.742 24.2706L125.492 19.8983C130.886 14.8721 135.177 8.70167 137.547 2.32697L138.119 2.08179L144.535 4.24755L144.698 4.81964C143.922 6.74022 142.982 8.57908 141.96 10.3771H147.599V10.3362ZM140.489 19.6122H147.191V16.2614H140.489V19.6122ZM140.489 28.8882H147.191V25.4148H140.489V28.8882ZM140.489 38.3277H147.191V34.6091H140.489V38.3277Z" fill="white"/>
<path d="M179.637 24.3524L171.954 24.5158L171.505 24.1072V17.4056L171.954 16.9969L179.637 17.1604H184.826V3.63459L185.235 3.22596H192.631L193.04 3.63459V36.3662L193.326 55.4903H184.581L184.744 44.6615C181.598 46.1326 178.492 47.4402 173.589 49.32L173.057 49.0748L170.401 42.128L170.647 41.5559C176.286 39.8396 180.168 38.4911 184.867 36.5297V24.3115H179.637V24.3524ZM206.606 20.3478C210.57 18.3046 214.411 15.8528 217.599 13.1149H218.212L223.32 18.3454L223.279 18.9175C217.435 22.7178 212.409 25.5783 206.606 27.8666V45.3971C206.606 46.8681 206.892 47.1542 209.385 47.1542C212.532 47.1542 213.553 47.0316 214.452 46.2552C215.433 45.4788 215.801 44.212 216.046 39.2675L222.993 42.2097C223.606 42.4958 223.606 42.6592 223.606 43.3539C223.442 48.421 222.747 50.9953 220.868 52.5073C218.579 54.4279 217.108 54.7139 208.282 54.7139C199.823 54.7139 198.107 53.2428 198.107 48.9522L198.27 36.2845V3.512L198.679 3.0625H206.116L206.566 3.59373V20.3478H206.606Z" fill="white"/>
<path d="M249.227 2.44949L249.635 2H257.604L258.013 2.40863V9.55974H271.743L280.324 9.39628L280.733 9.80492V16.3839L280.324 16.7926L271.743 16.6291H236.355L227.814 16.7926L227.406 16.3431V9.72319L227.855 9.39628L236.314 9.55974H249.227V2.44949ZM257.89 42.4548L258.176 56.471H249.063L249.349 42.4548V29.9506H241.667V50.2597H233.086L233.372 37.9598V29.7054L233.208 23.2081L233.617 22.7995L242.77 22.963H249.349V18.4271L249.758 18.0185H257.522L257.849 18.468V22.963H265.409L274.562 22.7995L274.971 23.2081L274.807 30.441V34.936L275.053 43.6399C275.053 48.8295 272.723 50.9953 263.856 50.9953C262.875 50.9953 262.671 50.8727 262.426 50.2189L259.974 43.1495C261.608 43.1904 263.325 43.1495 264.796 43.1086C265.981 43.0678 266.267 42.7 266.267 41.5558V29.9506H257.849V42.4548H257.89Z" fill="white"/>
<path d="M337.747 44.2112V32.5651L338.155 32.1565H345.879L346.206 32.606V42.6176L346.492 55.0809H337.747V51.4441H306.854V55.0809H298.314L298.6 42.6176V32.5651L299.008 32.1565H306.527L306.854 32.606V44.2112H317.724V28.5197H310.041L301.501 28.6831L301.092 28.2745L301.256 18.6716V8.25138L301.664 7.84275H309.061L309.469 8.25138V21.4503H317.724V2.12186L318.132 1.67236H325.815L326.223 2.081V21.4911H334.6V8.29225L335.009 7.88361H342.65L343.059 8.29225V18.4264L343.223 28.3153L342.691 28.724L334.314 28.5605H326.182V44.2521H337.747V44.2112Z" fill="white"/>
<path d="M374.892 21.2866C373.584 27.5387 372.317 33.2187 370.928 38.3675C372.522 37.8363 374.156 37.3868 375.832 36.8147V42.9034C375.832 43.598 375.546 43.8024 374.973 44.0475C369.293 46.2542 362.796 48.2973 355.359 50.0953L354.787 49.9319L352.172 43.2711L352.499 42.699C356.421 42.0044 360.058 41.228 363.613 40.3698C365.248 33.2596 366.515 25.5364 367.332 19.0391L367.781 18.9165L374.769 20.7962L374.892 21.2866ZM360.712 1.83558L361.121 1.42695H368.19L368.599 1.83558V10.9481H368.844L376.485 10.7847L376.812 11.0707V17.4046L376.485 17.6906L368.844 17.5271H361.121L353.275 17.6906L352.866 17.3637V11.1524L353.193 10.8255L360.753 10.989V1.83558H360.712ZM362.878 37.3051L356.667 39.3482L356.135 39.0213C355.563 32.4832 354.787 26.6806 353.684 22.1039L353.97 21.5726L360.222 19.7338L360.671 19.979C361.815 25.3321 362.674 31.0938 363.246 36.7738L362.878 37.3051ZM384.658 51.4847V54.9989H376.649L376.935 41.514V34.0769L376.771 27.8247L377.098 27.4161L383.718 27.5796H385.026V1.67212L385.312 1.34521H392.749L393.076 1.67212V11.1933H398.266L405.498 11.0299L405.825 11.3159V17.8132L405.417 18.2218L398.266 18.0584H393.076V27.6204H396.835L403.333 27.457L403.741 27.8656L403.578 34.1177V41.514L403.864 54.7129H395.487V51.5255H384.658V51.4847ZM395.487 34.2403H384.658V44.497H395.487V34.2403Z" fill="white"/>
<path d="M427.687 40.1657L427.974 48.0932C427.974 53.6097 425.767 55.0808 419.392 55.0808C418.493 55.0808 418.207 54.9582 417.962 54.3861L415.837 49.033C415.551 49.7277 415.224 50.3815 414.856 51.0762C414.734 51.3214 414.529 51.4031 414.284 51.4031C413.998 51.4031 413.753 51.2805 413.549 51.158L408.441 47.9706C410.647 44.0886 411.792 40.5334 412.936 35.6298L413.467 35.3846L419.229 37.387L419.515 37.9182C418.616 41.8411 417.758 44.5789 416.491 47.6437C417.512 47.6028 418.248 47.5211 418.861 47.4802C420.005 47.3576 420.291 47.0307 420.291 45.6414V33.0554H418.82L412.282 33.2189L411.873 32.8102L412.037 26.3947V22.6352L411.873 16.7918L412.282 16.3831L419.229 16.5466H428.341L435.329 16.3831L435.656 16.7918L435.492 22.6352V26.3947L435.656 32.8102L435.329 33.2189L428.341 33.0554H427.728V40.1657H427.687ZM442.031 13.5227C442.071 10.0493 442.031 6.1264 441.99 1.59056L442.398 1.14106H449.386L449.835 1.54969C449.835 6.04467 449.795 10.0084 449.672 13.6044H455.066C453.718 11.1117 452.042 8.94598 450.162 6.98453V6.45331L454.78 3.2251L455.311 3.18423C457.232 4.94136 459.398 7.3523 460.828 9.43634V10.0084L455.802 13.5227L461.645 13.4001L461.972 13.8087V20.02L461.645 20.4286L454.535 20.2652H449.304C449.182 21.6954 449.018 23.1665 448.855 24.5967H452.9L453.309 25.0462V45.6822C453.309 46.9899 453.309 46.9899 454.453 46.9899C455.761 46.9899 456.006 46.2135 456.333 39.5527L462.544 42.0454C463.116 42.2906 463.157 42.454 463.116 43.0261C462.871 47.3985 462.34 50.7085 461.073 51.9752C459.438 53.6098 457.109 54.1818 453.391 54.1818C447.465 54.1818 446.24 53.5689 446.24 48.5427L446.28 37.5095C444.36 45.0284 441.622 50.3815 436.718 55.2034C436.473 55.4486 436.31 55.5303 436.146 55.5303C435.901 55.5303 435.697 55.3669 435.411 55.1217L429.812 50.7902C432.264 48.6653 434.266 46.2543 435.86 43.4347L431.978 45.8048L431.529 45.5597C430.548 43.067 429.526 40.7786 427.892 37.9999L428.137 37.4687L432.795 34.8943L433.368 35.0169C434.839 37.06 435.983 38.9806 437.004 41.2281C438.598 37.7956 439.783 33.9544 440.723 29.582C441.336 26.6399 441.704 23.616 441.908 20.2652L436.718 20.3878L436.31 19.9791V14.0539L430.752 13.9313H416.491L409.422 14.0948L409.013 13.6861V7.67921L409.422 7.27058L416.491 7.43403H419.719V1.46796L420.046 1.05933H427.115L427.524 1.46796V7.43403H430.752L437.862 7.27058L438.189 7.67921V13.4818L442.031 13.5227ZM428.382 27.2119V22.5535H418.861V27.2119H428.382Z" fill="white"/>
<path d="M488.411 32.1564L495.848 31.9929L496.256 32.4016V38.7354L495.848 39.144L488.411 38.9806H486.367V43.8025C490.29 43.2304 494.213 42.6583 498.259 41.9636V47.521C498.259 48.2157 497.932 48.5018 497.278 48.5835C488.615 50.4224 478.767 52.016 468.469 53.3237L467.938 53.1602L465.486 46.4995L465.895 45.9682C470.226 45.5596 474.313 45.1918 478.317 44.7015V38.8989H475.375L467.938 39.0623L467.529 38.6537V32.279L467.938 31.8703L475.375 32.0338H478.317V26.8033L478.726 26.3946H485.959L486.367 26.8033V32.0338H488.411V32.1564ZM492.456 27.5797C491.884 26.3129 491.312 25.1279 490.699 23.9837C483.629 25.0053 476.601 25.8225 468.919 26.3538L468.387 26.0677L466.549 19.8156L466.875 19.2844C468.796 19.2435 470.635 19.1618 472.392 19.0392C473.128 16.3014 473.863 13.5635 474.517 10.8665H474.353L467.202 11.03L466.794 10.6213V4.41009L467.202 4.00145L474.353 4.16491H489.391L496.828 4.00145L497.237 4.41009V10.6213L496.828 11.03L489.391 10.8665H482.853C482.444 12.2967 481.995 13.727 481.505 15.0755C481.096 16.2605 480.646 17.4455 480.197 18.5897C482.526 18.4671 484.937 18.2628 487.266 18.0176C486.49 16.7509 485.632 15.6475 484.814 14.5851L484.937 14.013L490.004 11.5612L490.576 11.5203C493.355 14.3808 496.134 18.3854 498.545 22.5535V8.0878L498.953 7.67917H505.737L506.145 8.0878V24.3515L506.431 40.2882H498.299L498.585 24.4332L493.11 27.6205L492.456 27.5797ZM517.178 45.8048C517.178 52.5064 515.585 54.3861 506.309 54.3861C505.165 54.3861 505.124 54.2635 504.838 53.6914L501.201 46.336C503.857 46.336 506.595 46.2134 507.575 46.0908C508.76 45.9682 509.128 45.6413 509.128 44.252V2.57123L509.537 2.1626H516.606L517.015 2.57123V33.4231L517.178 45.8048Z" fill="white"/>
<path d="M559.921 21.0006C560.453 23.575 561.107 26.1085 561.965 28.5604C564.416 26.6398 566.868 24.3923 568.748 22.1856H569.361L574.632 27.1301V27.7022C571.445 30.3583 567.767 32.9736 564.743 34.7716C567.318 39.2257 570.955 42.8626 577.248 46.9489L571.608 52.4246C571.282 52.7515 571.036 52.8741 570.75 52.8741C570.505 52.8741 570.219 52.7515 569.892 52.4655C563.763 47.807 560.207 42.9443 557.551 37.2234C557.102 36.2427 556.816 35.6297 556.571 35.0985C557.02 37.0191 557.47 39.2666 557.47 42.2496C557.47 52.7107 554.732 55.2033 545.864 55.2033C544.72 55.2033 544.557 55.0399 544.23 54.2226L541.574 48.42C537.528 50.5858 533.115 52.3429 528.375 53.6505C528.089 53.6914 527.844 53.7731 527.639 53.7731C527.312 53.7731 527.026 53.6097 526.863 53.3236L523.063 47.6436C533.401 45.1918 543.045 40.5333 549.011 35.3028C548.847 34.7307 548.602 34.2404 548.398 33.7091C542.554 37.8772 536.384 41.1054 529.151 43.3938C528.865 43.5164 528.62 43.5164 528.416 43.5164C528.089 43.5164 527.803 43.3529 527.639 43.0669L523.716 37.4277C532.012 35.5889 539.408 32.2381 545.047 28.4378C544.72 27.9883 544.352 27.5796 543.985 27.2527C539.367 29.7454 534.259 31.8703 528.906 33.464C528.62 33.5866 528.334 33.5866 528.171 33.5866C527.844 33.5866 527.558 33.464 527.312 33.0553L523.553 27.6613C530.622 26.1903 537.447 23.6976 542.677 20.9597H541.655L534.218 21.1232L533.81 20.7963V14.9528L534.137 14.6259L541.655 14.7894H558.328L565.479 14.6259L565.806 14.912V20.878L565.479 21.1641L559.921 21.0006ZM545.292 1.18183L545.701 0.773193H553.342L553.751 1.18183V5.55421H565.315L574.714 5.39076L575.164 5.79939L575 10.1309V11.6837L575.286 18.9574H567.113V11.9698H532.584V18.9574H524.615L524.901 11.6837V10.6621L524.738 5.84026L525.147 5.43163L534.586 5.59508H545.415V1.18183H545.292ZM547.172 48.1339C548.766 47.9705 549.828 47.3984 550.033 42.9443C547.54 44.9466 544.843 46.7037 542.023 48.2157C543.74 48.2974 546.191 48.2565 547.172 48.1339ZM549.379 23.8202C551.994 26.3129 554.037 29.0916 555.222 31.5025C554.364 28.7647 553.383 25.087 552.77 21.2458C551.708 22.1857 550.605 23.0438 549.379 23.8202Z" fill="white"/>
<path d="M597.965 45.9275C597.965 48.9514 595.473 51.4032 592.49 51.4032C589.466 51.4032 586.973 48.9514 586.973 45.9275C586.973 42.9036 589.466 40.411 592.49 40.411C595.473 40.411 597.965 42.9036 597.965 45.9275ZM596.944 35.7934H587.995V5.3501H596.944V35.7934Z" fill="white"/>
</svg>
