<svg width="136" height="135" viewBox="0 0 136 135" fill="none" xmlns="http://www.w3.org/2000/svg">
<path d="M3.95638 2.22324L4.40854 2.33625C4.2955 4.22026 3.95638 5.7275 3.42885 6.93326C3.95638 7.34775 4.33318 7.72455 4.63462 8.06367L4.14478 8.66654C3.88102 8.32742 3.5419 7.98828 3.08973 7.61148C2.56221 8.51581 1.88397 9.23177 1.055 9.72161C0.90428 9.45785 0.753561 9.26942 0.56516 9.08102C1.35644 8.66654 1.99701 8.02599 2.48685 7.12167C2.18541 6.89558 1.80861 6.63182 1.39412 6.36806L1.28108 6.82021L0.602839 6.48107C0.828921 5.72747 1.09268 4.55942 1.46949 2.93917H0.452118V2.22324H1.6202C1.8086 1.35659 1.95933 0.640643 2.03469 0.0754395L2.78829 0.150827C2.75061 0.414589 2.59989 1.13051 2.37381 2.22324H3.80566H3.95638ZM3.65494 2.93917H2.26077C2.07237 3.76814 1.88397 4.67244 1.6202 5.65213C2.14773 5.95357 2.56221 6.21732 2.82597 6.4434C3.24045 5.46372 3.50421 4.29566 3.65494 2.93917ZM10.1359 4.29565V5.01158H7.61136V8.70422C7.61136 9.08102 7.49832 9.34478 7.30992 9.45782C7.27224 9.4955 7.19688 9.49553 7.1592 9.53321C6.85775 9.64625 6.29255 9.68389 5.46359 9.68389C5.42591 9.42013 5.31286 9.15637 5.16214 8.93029C5.87807 8.96797 6.33023 8.96797 6.59399 8.93029C6.74471 8.89261 6.82007 8.81726 6.82007 8.70422V5.01158H4.37086V4.29565H6.85775V2.90145H7.1592C7.68672 2.48697 8.17656 1.95946 8.6664 1.35658H4.74766V0.640643H9.26929L9.42001 0.602972L9.94753 0.979774C9.38233 1.80874 8.70409 2.52467 7.87512 3.20291C7.79976 3.27828 7.7244 3.35364 7.64904 3.39132V4.33332H10.1359V4.29565Z" fill="#1F1E1D"/>
<path d="M16.3531 8.89245H18.614C18.9154 8.89245 19.1038 8.77943 19.2168 8.59103C19.2922 8.40263 19.3676 7.95046 19.4052 7.3099C19.5936 7.42294 19.8197 7.53599 20.1965 7.64903C20.1212 8.51567 19.9704 9.08084 19.782 9.30692C19.5936 9.533 19.2168 9.68372 18.6893 9.68372H16.3531C15.6749 9.68372 15.2227 9.57068 14.9967 9.30692C14.8459 9.11852 14.7706 8.81708 14.7706 8.36491V6.40556L11.0779 6.82004L10.9649 6.06643L14.7706 5.65196V4.06941C13.7909 4.25781 12.9242 4.40852 12.2083 4.48388C12.1706 4.2578 12.0953 4.0317 11.9822 3.80562C14.6575 3.39114 16.6169 2.90132 17.785 2.3738L18.4256 3.01434C17.7473 3.31579 16.8053 3.57956 15.6372 3.88101V5.50123L20.1965 4.9737L20.3096 5.68963L15.6372 6.21716V8.2519C15.6372 8.51566 15.7126 8.66637 15.8256 8.70405C15.8633 8.85477 16.0894 8.89245 16.3531 8.89245ZM12.0199 1.88394V3.39115H11.2286V1.13033H15.1851V0.0375977H16.014V1.13033H20.0458V3.39115H19.2168V1.88394H12.0199Z" fill="#1F1E1D"/>
<path d="M30.7847 3.88118H26.7906C27.4688 5.95359 28.4862 7.4608 29.918 8.4028C30.2572 8.62888 30.5963 8.77957 30.9354 8.93029C30.7093 9.15637 30.4832 9.42013 30.3325 9.68389C28.4485 8.77957 27.0167 7.04631 26.1123 4.44638C25.4718 6.93327 24.0776 8.66653 21.8922 9.68389C21.7414 9.42013 21.553 9.19407 21.2893 9.04335C23.4747 8.06366 24.8689 6.36807 25.3964 3.88118H21.5154V3.08986H25.5471C25.6225 2.44929 25.6979 1.46964 25.6979 0.113156V0.0754395H26.5268C26.5268 1.35657 26.4515 2.33625 26.3761 3.08986H30.747V3.88118H30.7847Z" fill="#1F1E1D"/>
<path d="M35.2309 1.80875V2.44929H31.8397V1.80875H35.2309ZM34.9672 9.081H32.8948V9.57086H32.2542V6.02891H34.9295V9.081H34.9672ZM34.9672 3.24057V3.88116H32.2919V3.24057H34.9672ZM32.2919 5.27531V4.63476H34.9672V5.27531H32.2919ZM34.9672 0.414551V1.05514H32.3672V0.414551H34.9672ZM34.3266 6.66946H32.9325V8.44045H34.3266V6.66946ZM41.1844 0.489939V8.7042C41.1844 9.11868 41.0714 9.38243 40.883 9.49547C40.8453 9.49547 40.8453 9.53319 40.8076 9.53319C40.5815 9.64623 40.054 9.68387 39.225 9.68387C39.1874 9.42011 39.112 9.15636 38.999 8.8926C39.4888 8.93028 39.941 8.93028 40.2801 8.8926C40.3931 8.85492 40.4685 8.77957 40.5062 8.66653V1.13048H36.5121V4.18257C36.5121 6.66947 36.173 8.51579 35.4947 9.68387C35.344 9.53315 35.1556 9.38244 34.9295 9.2694H34.8918C35.457 8.28971 35.7585 6.74484 35.7961 4.67243C35.7961 4.52171 35.7961 4.37097 35.7961 4.18257V0.414551H41.1844V0.489939ZM36.9642 3.91883H38.1323V2.90144H37.0396V2.29856H38.1323V1.39423H38.7729V2.29856H39.9033V2.90144H38.7729V3.91883H40.054V4.5217H36.9642V3.91883ZM39.8279 8.02598H37.7178V8.44045H37.115V5.31298H39.8279V8.02598ZM39.225 5.91585H37.7178V7.42306H39.225V5.91585Z" fill="#1F1E1D"/>
<path d="M51.961 2.11018H48.4944C49.248 2.90146 50.19 3.54202 51.3204 4.03186C51.5841 4.1449 51.8856 4.25796 52.1494 4.33332C51.961 4.48404 51.8102 4.67242 51.6218 4.97387C50.4537 4.55938 49.3987 3.88116 48.4567 3.01451C48.1552 2.75075 47.8915 2.44933 47.6654 2.18557V4.33332H46.8741V2.18557C46.1582 3.08989 45.2162 3.88115 44.0104 4.55939C43.6713 4.74779 43.2945 4.93621 42.9554 5.04925C42.767 4.78549 42.5786 4.55942 42.4279 4.44638C43.5206 4.06958 44.5003 3.50434 45.4046 2.71305C45.6307 2.52465 45.8191 2.33626 46.0075 2.11018H42.6163V1.39425H46.8364V0.0754395H47.6277V1.39425H51.9233V2.11018H51.961ZM42.8423 9.38248V8.66655H51.8102V9.38248H42.8423ZM44.3872 4.59706H50.2277V8.026H44.3872V4.59706ZM49.4364 6.02893V5.16227H45.1785V6.02893H49.4364ZM49.4364 7.4608V6.59413H45.1785V7.4608H49.4364Z" fill="#1F1E1D"/>
<path d="M56.1435 5.27518H55.3522V3.9187H56.7463V5.01144C56.7463 5.76504 56.4449 6.29253 55.842 6.66933C55.729 6.74469 55.6536 6.78239 55.6536 6.78239L55.3898 6.36791C55.8797 6.10415 56.1435 5.76502 56.1435 5.27518Z" fill="#1F1E1D"/>
<path d="M62.0969 4.93608V7.57369C62.5868 8.3273 63.4534 8.70412 64.7722 8.77949C66.3925 8.81717 67.9374 8.81714 69.4069 8.7041C69.4822 8.7041 69.5199 8.7041 69.5953 8.7041C69.4822 8.93018 69.3692 9.19393 69.3315 9.49537C67.7113 9.53305 66.2041 9.57077 64.8099 9.53309C63.4911 9.45773 62.5114 9.08093 61.9085 8.40268C61.8708 8.365 61.8332 8.3273 61.8332 8.28962C61.4564 8.62875 60.9665 9.0809 60.326 9.6461L59.9115 8.85483C60.4013 8.51571 60.8912 8.10124 61.4187 7.64908V5.68968H60.0245V4.97375H62.0969V4.93608ZM62.3607 3.50426L61.8332 4.06946C61.4564 3.69266 60.9288 3.27814 60.2129 2.90134C60.1376 2.86366 60.0999 2.82599 60.0245 2.82599L60.552 2.33613C61.268 2.67525 61.8332 3.01439 62.2853 3.42887C62.2853 3.46655 62.323 3.50426 62.3607 3.50426ZM62.6621 1.46952L62.1346 1.99705C61.8332 1.62025 61.3056 1.20574 60.5897 0.791253C60.5144 0.753573 60.4767 0.71592 60.4013 0.67824L60.9288 0.188379C61.6824 0.602861 62.2476 1.01733 62.6244 1.39413C62.6244 1.43181 62.6245 1.43184 62.6621 1.46952ZM66.6939 3.9564H64.6215C64.5461 5.76505 64.0563 7.15922 63.152 8.10122C63.0389 7.91282 62.8882 7.76208 62.6621 7.61136C62.6245 7.57368 62.6244 7.57369 62.5868 7.57369C63.4157 6.70705 63.8302 5.42594 63.8679 3.73033C63.8679 3.61729 63.8679 3.46657 63.8679 3.35353V0.904312L64.5085 1.05504C66.1664 0.753601 67.3722 0.414479 68.0881 0.113037L68.7663 0.715911C67.7866 1.09271 66.3925 1.39415 64.6215 1.69559V3.24047H69.4069V3.9564H67.4475V8.28962H66.6562V3.9564H66.6939Z" fill="#1F1E1D"/>
<path d="M78.2618 8.77958H79.3545C79.5052 8.77958 79.5806 8.66652 79.6559 8.47812C79.6936 8.28972 79.7313 7.87522 79.7313 7.23466C79.882 7.38538 80.1458 7.49843 80.4472 7.57379C80.4095 8.47811 80.2965 9.00564 80.0704 9.2694C79.9197 9.42012 79.6936 9.53319 79.3922 9.53319H78.1487C77.6966 9.53319 77.3951 9.42014 77.2444 9.19405C77.1313 9.00565 77.0937 8.74187 77.0937 8.32739V3.54202H74.6821C74.5314 5.42603 74.0793 6.89555 73.3257 7.91292C72.7981 8.66652 72.0822 9.26942 71.1779 9.72159C71.0648 9.49551 70.8764 9.30707 70.6504 9.11867C70.6127 9.11867 70.6127 9.081 70.6127 9.081C72.0445 8.40275 72.9865 7.31004 73.4764 5.80284C73.6648 5.16227 73.8155 4.40867 73.8909 3.54202H71.0648V2.75075H73.8909C73.9285 1.99714 73.9285 1.16816 73.9285 0.188477H74.7575C74.7575 1.54496 74.7198 2.41163 74.7198 2.75075H77.885V8.32739C77.885 8.55347 77.9226 8.70418 78.0357 8.74186C78.0734 8.77955 78.1487 8.77958 78.2618 8.77958Z" fill="#1F1E1D"/>
<path d="M88.4731 0.113059C89.302 0.527541 89.9426 0.942005 90.3571 1.31881L89.8672 1.84634H90.9223V2.63761H87.5687C87.6818 4.10714 87.8702 5.35057 88.1339 6.29258C88.6991 5.42593 89.1513 4.48393 89.4904 3.46656L90.2817 3.65496C89.8296 5.04913 89.189 6.2549 88.4354 7.23458C88.8499 8.32731 89.3397 8.85485 89.8295 8.85485C90.0179 8.85485 90.1687 8.51574 90.244 7.87517C90.2817 7.61141 90.2817 7.30998 90.3194 6.8955C90.5078 7.0839 90.7339 7.23461 90.9976 7.30997C90.9223 8.4027 90.7339 9.08094 90.4701 9.38238C90.3194 9.57078 90.0556 9.64612 89.7542 9.64612C89.0006 9.64612 88.36 9.04325 87.8325 7.91284C87.1919 8.59109 86.476 9.19396 85.6471 9.64612C85.4587 9.38236 85.2703 9.1563 85.0819 9.00558C86.0239 8.51574 86.8151 7.83746 87.4934 7.04618C87.1166 5.87809 86.8528 4.37091 86.7021 2.59994H83.1225V3.95642H85.7978V4.29555C85.7601 6.14188 85.6847 7.27226 85.5717 7.61138C85.534 7.68674 85.4963 7.7621 85.4587 7.79978C85.3079 7.98819 85.1195 8.06356 84.8181 8.10124C84.5166 8.13892 84.1022 8.13892 83.5746 8.10124C83.5746 7.83748 83.4993 7.57371 83.3486 7.38531C83.763 7.42299 84.1398 7.42298 84.479 7.42298C84.6297 7.42298 84.7427 7.38533 84.7804 7.30997C84.8934 7.19693 84.9688 6.48101 85.0065 5.19989C85.0065 5.04917 85.0065 4.86076 85.0065 4.67235H83.1225V4.7477C83.1225 6.97083 82.7457 8.62879 81.9921 9.72151C81.8413 9.53311 81.6153 9.38237 81.3892 9.23165L81.3515 9.19398C81.9921 8.25197 82.2935 6.85779 82.2935 4.9361V1.77095H86.7021C86.6644 1.39415 86.6644 0.791284 86.6267 0H87.4557C87.4557 0.678244 87.4557 1.28111 87.4934 1.77095H89.8295C89.3774 1.35647 88.7745 0.942014 88.0209 0.527532L87.9832 0.489861L88.4731 0.113059Z" fill="#1F1E1D"/>
<path d="M101.473 5.91568H98.0062C98.383 7.12145 98.8728 7.9881 99.5134 8.51563C99.8525 8.77939 100.192 8.9301 100.493 8.9301C100.681 8.9301 100.832 8.70405 100.908 8.25188C100.945 8.0258 100.945 7.72435 100.983 7.34755C101.171 7.49827 101.435 7.64899 101.699 7.72435C101.623 8.66636 101.435 9.26922 101.134 9.4953C100.983 9.60834 100.757 9.6837 100.455 9.6837C99.6264 9.6837 98.8728 9.1939 98.1946 8.21421C97.7801 7.57365 97.441 6.82001 97.1772 5.91568H94.0497V8.51563C94.4642 8.47795 95.0671 8.36492 95.9338 8.25188C96.5743 8.17652 97.0265 8.10116 97.3279 8.06348L97.3656 8.81709C95.5569 9.08085 93.899 9.34461 92.3165 9.57069L92.1281 8.7417L93.2208 8.59102V0.602783H100.681V3.73026H97.6294C97.667 4.18242 97.7047 4.67224 97.8178 5.16208H101.473V5.91568ZM99.8902 1.35639H94.0497V3.052H99.9279V1.35639H99.8902ZM94.0497 5.1998H97.0265C96.9511 4.74763 96.8758 4.25777 96.8381 3.76793H94.0497V5.1998Z" fill="#1F1E1D"/>
<path d="M102.716 8.59111C103.847 8.02591 104.6 6.93316 104.977 5.27523H105.768C105.693 5.65204 105.542 6.06653 105.391 6.55637C106.107 7.08389 106.635 7.53604 106.936 7.95052L106.522 8.47805C106.258 8.13893 105.768 7.68678 105.128 7.12157C104.638 8.0259 104.035 8.70415 103.206 9.15631C103.018 8.93023 102.867 8.70415 102.716 8.59111ZM111.986 4.29556C110.855 4.48396 109.536 4.63467 108.029 4.71003V8.51572C109.122 7.91284 109.838 6.74477 110.139 5.04916H110.893C110.817 5.539 110.704 5.99116 110.591 6.40564C110.968 7.08388 111.458 7.68676 112.023 8.13892C112.174 8.25196 112.325 8.36502 112.438 8.44038C112.249 8.62878 112.061 8.81718 111.91 9.00558C111.345 8.5911 110.78 7.98821 110.215 7.15924C109.8 8.02589 109.235 8.66643 108.519 9.1186C108.368 8.85483 108.217 8.66644 108.029 8.51572V9.79686H107.238V4.7477C106.145 4.82306 104.977 4.86075 103.734 4.89843C103.507 4.52163 103.357 4.25787 103.281 4.14483C105.768 4.18251 108.067 4.06945 110.215 3.84337C110.667 3.80569 111.044 3.73036 111.383 3.69268L111.986 4.29556ZM111.797 3.24049H103.507V0.452148H111.797V3.24049ZM104.223 1.16808V2.56228H105.957V1.16808H104.223ZM106.673 1.16808V2.56228H108.444V1.16808H106.673ZM111.006 1.16808H109.197V2.56228H111.006V1.16808Z" fill="#1F1E1D"/>
<path d="M122.159 5.38837L122.649 5.57677C122.31 6.55645 121.82 7.38541 121.104 8.06365C121.745 8.55349 122.423 8.8926 123.252 9.081C123.064 9.23172 122.913 9.45779 122.762 9.68387C121.933 9.42011 121.179 9.04332 120.539 8.5158C119.936 8.96796 119.22 9.34476 118.429 9.6462C118.316 9.42012 118.165 9.23173 118.014 9.04333V9.72159H117.261V8.7042C115.716 8.8926 114.548 9.04331 113.681 9.11867L113.606 8.44045C113.907 8.40277 114.246 8.40275 114.623 8.36507V4.82316H113.719V4.1449H122.95V4.82316H118.014V9.081C118.768 8.85492 119.409 8.51581 120.011 8.06365C119.522 7.53613 119.145 6.89556 118.843 6.21731L119.295 6.06658H118.391V5.46371H122.008L122.159 5.38837ZM121.782 0.414551V3.54203H115V0.414551H121.782ZM117.261 4.74777H115.339V5.46371H117.261V4.74777ZM115.339 6.06658V6.78252H117.261V6.06658H115.339ZM115.339 7.38539V8.21438C115.49 8.21438 115.716 8.17667 116.017 8.13899C116.583 8.10131 116.997 8.02598 117.261 8.02598V7.38539H115.339ZM120.991 1.69569V0.979754H115.716V1.69569H120.991ZM120.991 2.93915V2.22322H115.716V2.93915H120.991ZM121.669 6.02891H119.484C119.748 6.63179 120.087 7.15931 120.501 7.57379C121.029 7.12163 121.406 6.59411 121.669 6.02891Z" fill="#1F1E1D"/>
<path d="M131.429 6.25483L131.918 6.59396C131.429 7.27221 130.788 7.87508 129.959 8.32724C131.089 8.70404 132.371 8.93014 133.84 9.04318C133.727 9.15622 133.576 9.38232 133.388 9.72144C131.768 9.57072 130.336 9.23157 129.13 8.70404C128 9.15621 126.568 9.49536 124.872 9.72144C124.759 9.45768 124.608 9.23158 124.458 9.04318C125.965 8.89246 127.246 8.66637 128.339 8.28957C127.774 7.95045 127.284 7.61132 126.907 7.19684C126.417 7.53596 125.814 7.8374 125.174 8.13884C125.061 8.0258 124.872 7.83739 124.646 7.61131C125.927 7.12147 126.982 6.48091 127.736 5.68963C127.811 5.61427 127.849 5.53891 127.924 5.50123C127.623 5.46355 127.434 5.31284 127.397 5.04908C127.359 4.97372 127.359 4.86067 127.359 4.70995V3.69261H128.075V4.70995C128.075 4.82299 128.113 4.89834 128.226 4.93602C128.301 4.93602 128.414 4.9737 128.602 4.9737H130.147C130.336 4.9737 130.449 4.93605 130.487 4.82301C130.524 4.70997 130.562 4.55924 130.562 4.29548C130.675 4.37084 130.901 4.44619 131.202 4.52155C131.165 5.01139 131.052 5.35052 130.826 5.46356C130.713 5.53892 130.487 5.57662 130.223 5.57662H128.527L128.716 5.65196C128.527 5.91572 128.339 6.1041 128.113 6.2925H131.391L131.429 6.25483ZM125.4 3.1274V4.33315H124.684V2.48681H126.605C126.492 2.14769 126.266 1.77089 125.927 1.3564L126.229 1.24339C125.965 1.24339 125.626 1.28106 125.136 1.28106C125.098 1.05498 125.061 0.82891 124.985 0.678189C128.113 0.602828 130.524 0.37671 132.22 0.0752687C132.295 0.0752687 132.371 0.0375977 132.408 0.0375977L132.936 0.56513C131.805 0.791211 130.487 0.94195 128.942 1.05499C129.205 1.46947 129.394 1.88395 129.507 2.22307L128.866 2.44914H130.75C131.127 1.9593 131.429 1.43178 131.73 0.904261L132.484 1.20567C132.182 1.69552 131.881 2.11002 131.579 2.44914H133.463V4.37082H132.71V3.08969H128.716C129.394 3.39113 129.808 3.65492 130.072 3.88101L129.658 4.37082C129.281 4.0317 128.753 3.73026 128.113 3.42882L128.414 3.08969H125.4V3.1274ZM125.475 5.80269L124.948 5.3505C125.513 5.04906 125.965 4.48387 126.229 3.76795L126.832 4.03169C126.492 4.86065 126.078 5.46357 125.475 5.80269ZM128.226 1.168L128.339 1.13033C128.15 1.13033 127.849 1.168 127.472 1.168C127.095 1.20568 126.832 1.20567 126.643 1.20567C126.982 1.58248 127.171 1.95928 127.321 2.33608L126.982 2.48681H128.829C128.753 2.11001 128.565 1.65785 128.226 1.168ZM130.75 6.85771H127.359C127.811 7.27219 128.376 7.64899 129.092 7.98811C129.771 7.64899 130.336 7.30987 130.75 6.85771ZM131.014 3.99402L131.542 3.61722C132.182 4.10706 132.71 4.59691 133.086 5.08675C133.124 5.12443 133.162 5.1998 133.199 5.23748L132.634 5.65196C132.333 5.1998 131.843 4.67227 131.24 4.14475C131.165 4.10707 131.089 4.06938 131.014 3.99402Z" fill="#1F1E1D"/>
<path d="M3.69261 21.2516L2.5622 21.6284V24.7935C2.5622 25.1703 2.44916 25.4341 2.22308 25.5471H2.1854C1.95932 25.6602 1.50715 25.6978 0.86659 25.6978C0.82891 25.434 0.75355 25.208 0.640509 24.9819C1.16803 24.9819 1.50716 24.9819 1.65788 24.9819C1.77092 24.9442 1.8086 24.8689 1.84628 24.7935V21.8544L0.60283 22.2689L0.414429 21.5153C0.527469 21.4776 0.979632 21.3269 1.88396 21.1008V18.9531H0.56515V18.2372H1.88396V16.1271H2.59988V18.2372H3.73029V18.9531H2.59988V20.9124C2.7506 20.8748 2.97668 20.7994 3.27812 20.6864C3.46653 20.6487 3.57957 20.5733 3.65493 20.5733L3.69261 21.2516ZM9.42 21.9298H7.15919V22.8341H9.53304V23.4747H7.15919V24.8689C7.46063 24.9065 7.79975 24.9442 8.13887 24.9442H10.2113C10.0982 25.0949 10.0229 25.321 9.9852 25.6225H8.13887C6.97079 25.6225 6.10414 25.4341 5.53894 25.0196C5.19981 24.7935 4.93605 24.4544 4.70997 24.0776C4.40853 24.7935 4.06941 25.3587 3.61725 25.7732C3.46653 25.6225 3.27813 25.4717 3.01436 25.321C3.76797 24.6428 4.25781 23.55 4.44621 22.1182L5.16213 22.1936C5.12445 22.495 5.04909 22.8341 4.97373 23.2109C5.31286 23.9645 5.8027 24.4544 6.48094 24.7181V21.9298H4.33317V21.3269H6.48094V20.4603H3.73029V19.8197H6.48094V19.0284H4.33317V18.3879H6.48094V17.672H3.88101V17.0314H6.48094V16.0894H7.19687V17.0314H9.9852V17.672H7.19687V18.3879H9.45768V19.782H10.2113V20.4226H9.45768V21.9298H9.42ZM7.15919 18.9908V19.782H8.70407V18.9908H7.15919ZM7.15919 20.4226V21.2892H8.70407V20.4226H7.15919Z" fill="#1F1E1D"/>
<path d="M13.7156 20.9503V23.6256C14.2054 24.3792 15.1097 24.7561 16.4285 24.7937C17.8981 24.8314 19.4053 24.8314 20.9878 24.756C21.1009 24.756 21.2139 24.756 21.2893 24.7184C21.1762 24.9444 21.0632 25.1705 21.0255 25.472C19.2922 25.5473 17.785 25.5473 16.4285 25.5096C15.1097 25.4719 14.13 25.0952 13.5271 24.4169C13.4895 24.3793 13.4518 24.3039 13.4141 24.2662C12.9996 24.6807 12.5098 25.1328 11.9823 25.6227L11.5678 24.8691C11.9446 24.6053 12.3967 24.1909 12.9996 23.6633V21.6663H11.6808V20.9503H13.7156ZM13.9416 19.5185L13.4141 20.046C13.075 19.6692 12.5475 19.2547 11.8315 18.8779C11.7939 18.8402 11.7562 18.8403 11.6808 18.8026L12.1707 18.3127C12.8489 18.6142 13.3764 18.991 13.7909 19.3678C13.8663 19.4431 13.9039 19.4808 13.9416 19.5185ZM14.2431 17.4461L13.7156 17.9736C13.4141 17.5968 12.9243 17.22 12.246 16.8055C12.1707 16.7678 12.133 16.7302 12.0576 16.6925L12.5851 16.2026C13.2634 16.5418 13.7909 16.9186 14.1677 17.333C14.1677 17.3707 14.2054 17.4084 14.2431 17.4461ZM17.2575 24.4923V23.4749H14.2431V22.872H17.2575V22.2315H14.9967V19.2547H17.2575V18.6142H14.6576V18.0113H17.2575V17.2954H18.0488V18.0113H20.6864V18.6142H18.0488V19.2547H20.3849V22.2315H18.0488V22.872H21.1386V23.4749H18.0488V24.4923H17.2575ZM15.1474 17.0316V17.8229H14.4315V16.4664H20.9125V17.8229H20.1965V17.0316H15.1474ZM15.6749 19.7823V20.4605H17.2575V19.7823H15.6749ZM15.6749 21.7039H17.2575V20.988H15.6749V21.7039ZM19.669 19.7823H18.0488V20.4605H19.669V19.7823ZM19.669 21.7039V20.988H18.0488V21.7039H19.669Z" fill="#1F1E1D"/>
<path d="M28.0717 24.9066H30.3325C30.634 24.9066 30.8224 24.7936 30.9354 24.6052C31.0108 24.4168 31.0861 23.9646 31.1238 23.3241C31.3122 23.4371 31.5383 23.5501 31.9151 23.6632C31.8397 24.5298 31.689 25.095 31.5006 25.3211C31.3122 25.5472 30.9354 25.6979 30.4079 25.6979H28.0717C27.3935 25.6979 26.9413 25.5848 26.7152 25.3211C26.5645 25.1327 26.4891 24.8312 26.4891 24.3791V22.4197L22.7965 22.8342L22.6834 22.0806L26.4891 21.6661V20.0836C25.5095 20.272 24.6428 20.4227 23.9269 20.498C23.8892 20.272 23.8138 20.0459 23.7008 19.8198C26.3761 19.4053 28.3355 18.9155 29.5036 18.388L30.1441 19.0285C29.4659 19.3299 28.5239 19.5937 27.3558 19.8952V21.5154L31.9151 20.9879L32.0281 21.7038L27.3558 22.2313V24.2661C27.3558 24.5298 27.4311 24.6805 27.5442 24.7182C27.5819 24.8689 27.7703 24.9066 28.0717 24.9066ZM23.7008 17.8981V19.4053H22.9095V17.1445H26.8659V16.0518H27.6949V17.1445H31.7267V19.4053H30.8977V17.8981H23.7008Z" fill="#1F1E1D"/>
<path d="M35.9092 22.3444L35.6454 18.275L35.6077 17.0315H36.8512L36.8135 18.275L36.5497 22.3821H35.9092V22.3444ZM35.6454 23.5502H36.8512V24.7559H35.6454V23.5502Z" fill="#1F1E1D"/>
<path d="M49.7378 19.2923H44.9148C44.7264 21.2517 44.2365 22.7589 43.3699 23.8139C42.7293 24.6429 41.8627 25.2458 40.7699 25.7356C40.6192 25.4719 40.4308 25.2458 40.2047 25.0574C41.9004 24.3791 43.0308 23.2487 43.596 21.7038C43.8597 21.0256 44.0104 20.2343 44.0858 19.2923H40.3555V18.5387H44.1612C44.1988 18.0112 44.1988 17.1822 44.1988 16.1272H44.9901C44.9901 17.0692 44.9901 17.8981 44.9524 18.5387H49.7002V19.2923H49.7378ZM46.6481 24.7559H48.3813C48.6451 24.7559 48.7958 24.6429 48.8712 24.4545C48.9466 24.2284 49.0219 23.6632 49.0596 22.7212C49.2103 22.8343 49.4741 22.9473 49.8132 23.0603C49.7755 24.1154 49.6248 24.7936 49.3987 25.0951C49.2103 25.3588 48.8712 25.5095 48.3813 25.5095H46.4973C45.8945 25.5095 45.5176 25.3965 45.3292 25.1327C45.2162 24.9443 45.1408 24.6429 45.1408 24.2284V19.8198H45.9321V24.2284C45.9321 24.4922 46.0075 24.6052 46.1205 24.6806C46.3089 24.7559 46.4597 24.7559 46.6481 24.7559ZM48.9842 17.7097L48.4944 18.275C47.9669 17.8228 47.1756 17.2953 46.1205 16.6924L46.6104 16.2025C47.7031 16.7677 48.4944 17.2953 48.9842 17.7097Z" fill="#1F1E1D"/>
<path d="M55.7667 22.6836C55.3899 22.8343 55.0507 23.0227 54.6739 23.1735C54.2971 23.3242 53.9203 23.5126 53.5812 23.6633C53.2044 23.814 52.8653 23.9647 52.5262 24.1155C52.187 24.2662 51.8856 24.4169 51.5842 24.5299L51.2827 23.701C51.4711 23.6256 51.6972 23.5502 51.961 23.4372C52.187 23.3242 52.4508 23.2112 52.7522 23.0981L52.5638 16.5794L53.3551 16.5417L53.5058 22.759C53.845 22.6083 54.1841 22.4952 54.5232 22.3445C54.8623 22.1938 55.2015 22.043 55.5783 21.8923L55.7667 22.6836ZM60.4013 25.6603C60.2883 25.4719 60.1376 25.2835 59.9492 25.0575C59.7608 24.8314 59.5724 24.6053 59.384 24.3792C59.1579 24.1531 58.9695 23.8894 58.7057 23.6256C58.4796 23.3618 58.2536 23.1358 58.0275 22.9097C57.613 23.5503 57.1231 24.0778 56.5203 24.5299C55.9551 24.9821 55.2391 25.3966 54.4102 25.7357C54.3725 25.698 54.3348 25.6604 54.2971 25.585C54.2595 25.5096 54.1841 25.472 54.1464 25.3966C54.0711 25.3212 54.0334 25.2836 53.958 25.2082C53.8827 25.1328 53.845 25.0951 53.8073 25.0575C54.7116 24.7183 55.4652 24.3038 56.0681 23.814C56.671 23.3242 57.1985 22.7213 57.5753 22.043C57.9521 21.3648 58.2912 20.5735 58.4796 19.6692C58.668 18.7649 58.8564 17.7475 58.9695 16.6171L59.8361 16.6925C59.7231 17.8229 59.5347 18.8402 59.3086 19.7446C59.0825 20.6489 58.7811 21.4402 58.442 22.1561C58.668 22.3822 58.9318 22.646 59.1579 22.9097C59.4216 23.1735 59.6477 23.4372 59.8738 23.701C60.0999 23.9647 60.326 24.1908 60.5144 24.4546C60.7028 24.6807 60.8912 24.9067 61.0042 25.0951L60.4013 25.6603ZM56.3319 20.3098C56.2565 20.1214 56.1811 19.933 56.0681 19.7069C55.9551 19.4808 55.8043 19.2547 55.6913 19.0286C55.5406 18.8026 55.3899 18.5765 55.2391 18.3504C55.0884 18.1243 54.9 17.9359 54.7493 17.7098L55.4275 17.3707C55.6159 17.5591 55.7667 17.7852 55.9551 17.9736C56.1058 18.1996 56.2942 18.4257 56.4072 18.6518C56.5579 18.8779 56.671 19.104 56.8217 19.2924C56.9348 19.5185 57.0478 19.7069 57.1231 19.8953L56.3319 20.3098Z" fill="#1F1E1D"/>
<path d="M63.3027 21.214V18.5764C63.152 18.8024 62.9636 19.0285 62.7752 19.2169C62.6621 19.0285 62.5114 18.8401 62.323 18.6894C62.9636 18.0488 63.4911 17.2199 63.8679 16.1648C63.8679 16.1271 63.8679 16.1271 63.9056 16.0894L64.5461 16.2402C64.4331 16.5039 64.3201 16.843 64.1317 17.2198H65.036C65.2621 16.7677 65.4128 16.4286 65.4505 16.2025L66.091 16.3909C65.978 16.617 65.8273 16.8807 65.6389 17.2198H67.1084V17.7474H65.6389V18.3502H66.8823V18.614C67.5229 17.8981 68.0504 17.0691 68.3895 16.0518L69.0301 16.2402C68.9547 16.4286 68.8417 16.7677 68.6156 17.2198H69.4446C69.6706 16.7677 69.8214 16.4286 69.8967 16.2025L70.575 16.3532C70.4996 16.4663 70.3489 16.7677 70.0851 17.2198H71.7054V17.7474H70.1228V18.3502H71.4793V18.8778H70.1228V19.4806H71.4793V20.0082H70.1228V20.6111H71.8561V21.1763H67.7866V18.5386C67.5982 18.8024 67.4098 19.0285 67.2214 19.2546C67.1084 19.1039 66.9953 18.9532 66.8446 18.8024V18.8778H65.6012V19.4806H66.8446V20.0082H65.6012V20.6111H67.2214V21.1763H63.3027V21.214ZM70.2735 21.8545L70.801 22.1936C70.2735 23.0226 69.4069 23.7385 68.2765 24.3037C69.3315 24.6429 70.575 24.8689 71.9691 25.0197C71.8184 25.1704 71.6677 25.4341 71.4793 25.7733C69.859 25.5849 68.4649 25.2457 67.2591 24.7559C65.978 25.2457 64.5085 25.5849 62.8128 25.7733C62.6998 25.4718 62.5868 25.2457 62.4737 25.0573C63.9433 24.9443 65.2244 24.6805 66.3548 24.3414C65.5635 23.9269 64.9229 23.3994 64.3954 22.7965L64.8476 22.5705H63.0766V21.9299H70.1228L70.2735 21.8545ZM64.9606 18.388V17.785H63.9809V18.388H64.9606ZM64.9606 19.5184V18.9154H63.9809V19.5184H64.9606ZM64.9606 20.6488V20.0459H63.9809V20.6488H64.9606ZM69.5199 22.5328H65.1867C65.7142 23.098 66.4301 23.5501 67.3345 23.9269C68.2765 23.5124 68.9924 23.0603 69.5199 22.5328ZM69.4822 18.388V17.785H68.4649V18.388H69.4822ZM69.4822 19.5184V18.9154H68.4649V19.5184H69.4822ZM69.4822 20.6488V20.0459H68.4649V20.6488H69.4822Z" fill="#1F1E1D"/>
<path d="M76.6038 21.2516L75.4734 21.6284V24.7935C75.4734 25.1703 75.3603 25.4341 75.1343 25.5471H75.0966C74.8705 25.6602 74.4184 25.6978 73.7778 25.6978C73.7401 25.434 73.6647 25.208 73.5517 24.9819C74.0792 24.9819 74.4183 24.9819 74.5691 24.9819C74.6821 24.9442 74.7198 24.8689 74.7575 24.7935V21.8544L73.514 22.2689L73.3256 21.5153C73.4387 21.4776 73.8908 21.3269 74.7951 21.1008V18.9531H73.4763V18.2372H74.7951V16.1271H75.5111V18.2372H76.6415V18.9531H75.5111V20.9124C75.6618 20.8748 75.8879 20.7994 76.1893 20.6864C76.3777 20.6487 76.4908 20.5733 76.5661 20.5733L76.6038 21.2516ZM82.3689 21.9298H80.1081V22.8341H82.4819V23.4747H80.1081V24.8689C80.4095 24.9065 80.7486 24.9442 81.0877 24.9442H83.1602C83.0471 25.0949 82.9718 25.321 82.9341 25.6225H81.0877C79.9197 25.6225 79.053 25.4341 78.4878 25.0196C78.1487 24.7935 77.8849 24.4544 77.6588 24.0776C77.3574 24.7935 77.0183 25.3587 76.5661 25.7732C76.4154 25.6225 76.227 25.4717 75.9632 25.321C76.7168 24.6428 77.2067 23.55 77.3951 22.1182L78.111 22.1936C78.0733 22.495 77.998 22.8341 77.9226 23.2109C78.2617 23.9645 78.7516 24.4544 79.4298 24.7181V21.9298H77.282V21.3269H79.4298V20.4603H76.6792V19.8197H79.4298V19.0284H77.282V18.3879H79.4298V17.672H76.8299V17.0314H79.4298V16.0894H80.1457V17.0314H82.9341V17.672H80.1457V18.3879H82.4066V19.782H83.1602V20.4226H82.4066V21.9298H82.3689ZM80.0704 18.9908V19.782H81.6153V18.9908H80.0704ZM80.0704 20.4226V21.2892H81.6153V20.4226H80.0704Z" fill="#1F1E1D"/>
<path d="M86.6267 20.9503V23.6256C87.1166 24.3792 88.0209 24.7561 89.3397 24.7937C90.8092 24.8314 92.3165 24.8314 93.899 24.756C94.0121 24.756 94.1251 24.756 94.2005 24.7184C94.0874 24.9444 93.9744 25.1705 93.9367 25.472C92.2034 25.5473 90.6962 25.5473 89.3397 25.5096C88.0209 25.4719 87.0412 25.0952 86.4383 24.4169C86.4007 24.3793 86.363 24.3039 86.3253 24.2662C85.9108 24.6807 85.421 25.1328 84.8935 25.6227L84.479 24.8691C84.8558 24.6053 85.3079 24.1909 85.9108 23.6633V21.6663H84.592V20.9503H86.6267ZM86.8528 19.5185L86.3253 20.046C85.9862 19.6692 85.4587 19.2547 84.7427 18.8779C84.705 18.8402 84.6674 18.8403 84.592 18.8026L85.0819 18.3127C85.7601 18.6142 86.2876 18.991 86.7021 19.3678C86.7775 19.4431 86.8151 19.4808 86.8528 19.5185ZM87.1543 17.4461L86.6267 17.9736C86.3253 17.5968 85.8355 17.22 85.1572 16.8055C85.0819 16.7678 85.0442 16.7302 84.9688 16.6925L85.4963 16.2026C86.1746 16.5418 86.7021 16.9186 87.0789 17.333C87.1166 17.3707 87.1543 17.4084 87.1543 17.4461ZM90.2064 24.4923V23.4749H87.1919V22.872H90.2064V22.2315H87.9455V19.2547H90.2064V18.6142H87.6064V18.0113H90.2064V17.2954H90.9976V18.0113H93.6353V18.6142H90.9976V19.2547H93.3338V22.2315H90.9976V22.872H94.0874V23.4749H90.9976V24.4923H90.2064ZM88.0586 17.0316V17.8229H87.3427V16.4664H93.8237V17.8229H93.1077V17.0316H88.0586ZM88.5861 19.7823V20.4605H90.1687V19.7823H88.5861ZM88.5861 21.7039H90.1687V20.988H88.5861V21.7039ZM92.5802 19.7823H90.96V20.4605H92.5802V19.7823ZM92.5802 21.7039V20.988H90.96V21.7039H92.5802Z" fill="#1F1E1D"/>
<path d="M97.6671 19.33V22.3821C98.4207 22.0429 98.8351 21.8922 98.8728 21.8922L99.0235 22.6081C98.6091 22.7965 97.5163 23.2864 95.783 24.0777L95.4816 23.2864C95.8961 23.1357 96.3859 22.9473 96.9135 22.7212V19.3676H95.557V18.614H96.9135V16.2025H97.6671V18.614H98.9105V19.3676H97.6671V19.33ZM101.209 24.7559H103.771C104.073 24.7559 104.261 24.6429 104.374 24.4545C104.449 24.2661 104.525 23.8516 104.563 23.2864C104.789 23.4371 105.015 23.5501 105.278 23.5878C105.203 24.3791 105.052 24.9066 104.864 25.1327C104.638 25.3588 104.299 25.4718 103.809 25.4718H101.209C100.531 25.4718 100.116 25.3588 99.9279 25.095C99.7395 24.9066 99.6641 24.5298 99.6641 24.04V20.7241L98.8351 21.0632L98.5337 20.385L99.6641 19.8952V17.0314H100.418V19.5937L101.812 18.9908V16.0518H102.565V18.6894L103.96 18.0865L104.11 17.9358L104.261 17.8228L104.789 18.0112L104.751 18.1618C104.751 20.4603 104.713 21.7791 104.638 22.1183C104.6 22.4951 104.412 22.7212 104.073 22.7965C103.884 22.8342 103.545 22.8719 103.093 22.8719C103.055 22.5704 102.98 22.3444 102.905 22.1936C103.093 22.1936 103.319 22.1936 103.621 22.1936C103.771 22.1936 103.884 22.1183 103.922 21.9299C103.922 21.9299 103.922 21.9299 103.922 21.8922C103.96 21.6284 103.997 20.6111 103.997 18.8024L102.528 19.443V23.3241H101.774V19.7444L100.38 20.3473V24.0023C100.38 24.3414 100.455 24.5298 100.606 24.6052C100.757 24.7559 100.945 24.7559 101.209 24.7559Z" fill="#1F1E1D"/>
<path d="M111.044 23.3994L108.218 23.8893V25.6979H107.464V24.04L106.748 24.153L106.597 23.3994L107.464 23.2487V16.843L107.878 16.9938C109.009 16.6923 109.838 16.3909 110.365 16.0518L111.044 16.617C110.365 16.9561 109.423 17.2575 108.218 17.559V18.7648H110.629V19.4806H108.218V20.7618H110.704V21.4777H108.218V23.098C108.557 23.0603 109.499 22.8719 111.006 22.6081L111.044 23.3994ZM115.377 20.6864L115.867 20.8748C115.527 22.0806 114.925 23.0603 114.096 23.8516C114.736 24.3414 115.49 24.7182 116.394 24.982C116.206 25.1327 116.017 25.3588 115.867 25.6602C114.962 25.3588 114.171 24.9443 113.493 24.3791C112.739 24.9443 111.835 25.3964 110.78 25.6979C110.667 25.4341 110.516 25.2081 110.365 25.0197C111.383 24.7559 112.249 24.3414 112.965 23.8516C112.438 23.2487 111.986 22.4951 111.609 21.5908L112.136 21.44H111.194V20.7241H115.226L115.377 20.6864ZM112.513 17.2198V18.0112C112.513 19.1792 112.099 20.0459 111.232 20.5734C111.119 20.4227 110.968 20.2343 110.742 20.0836L110.704 20.0459C111.383 19.6314 111.722 19.0662 111.759 18.2749C111.759 18.1995 111.759 18.0865 111.759 18.0112V16.5416H114.887V19.1416C114.887 19.33 114.925 19.443 114.962 19.4806C115 19.5183 115.075 19.5184 115.113 19.5184H115.414C115.527 19.5184 115.603 19.5183 115.641 19.4806C115.716 19.443 115.754 19.3676 115.754 19.2546C115.791 19.1415 115.791 18.8401 115.791 18.3502C115.942 18.4633 116.13 18.5763 116.394 18.6517C116.356 19.2169 116.319 19.556 116.281 19.7068C116.206 19.8575 116.093 19.9705 115.98 20.0459C115.867 20.1212 115.716 20.1589 115.49 20.1589H114.962C114.699 20.1589 114.51 20.0835 114.397 19.9705C114.246 19.8198 114.171 19.5183 114.171 19.0662V17.2198H112.513ZM114.887 21.44H112.325C112.626 22.1937 113.041 22.8342 113.568 23.3617C114.133 22.8342 114.548 22.156 114.887 21.44Z" fill="#1F1E1D"/>
<path d="M120.539 21.2893H119.748V19.9329H121.142V21.0256C121.142 21.7792 120.84 22.3067 120.237 22.6835C120.124 22.7588 120.049 22.7965 120.049 22.7965L119.785 22.3821C120.313 22.1183 120.539 21.7792 120.539 21.2893Z" fill="#1F1E1D"/>
<path d="M132.823 22.3067H129.281C129.13 22.9849 128.829 23.5878 128.339 24.1154C129.318 24.5298 130.788 24.8313 132.823 24.9066C133.124 24.9066 133.463 24.9443 133.84 24.9443C133.652 25.2081 133.576 25.4342 133.501 25.7356C131.278 25.6226 129.62 25.3965 128.527 24.982C128.226 24.869 127.962 24.7559 127.698 24.6052C126.945 25.0951 125.927 25.4719 124.646 25.7356C124.533 25.4719 124.382 25.2458 124.194 25.0574C125.437 24.7936 126.379 24.4922 126.982 24.153C126.455 23.7386 126.04 23.2487 125.701 22.6835L126.342 22.4198C126.718 22.9473 127.133 23.3994 127.623 23.7386C128.037 23.3618 128.339 22.9096 128.489 22.3444H125.324V18.3126H128.565V17.4083H124.345V16.6924H133.463V17.4083H129.356V18.3126H132.785V22.3067H132.823ZM126.078 18.8778V19.9329H128.565V18.8778H126.078ZM126.078 21.6285H128.565C128.565 21.4778 128.602 21.2517 128.602 20.9879V20.5734H126.078V21.6285ZM132.069 21.6285V20.5734H129.394V20.9879C129.394 21.1763 129.394 21.3647 129.356 21.6285H132.069ZM132.069 18.8778H129.394V19.9329H132.069V18.8778Z" fill="#1F1E1D"/>
<path d="M5.76501 39.3005V40.7323C6.14181 40.77 6.55629 40.8077 7.00845 40.8077C8.70406 40.8077 9.75911 40.8077 10.1359 40.8077C9.98519 41.0338 9.90983 41.2976 9.87215 41.5613H7.00845C5.61429 41.5613 4.55924 41.3729 3.881 40.9961C3.39115 40.7324 3.01435 40.3178 2.71291 39.828C2.29843 40.657 1.73322 41.2975 1.05498 41.8251C0.904259 41.6367 0.715858 41.4483 0.489777 41.2599C1.54482 40.5439 2.26075 39.4135 2.52451 37.831L3.31579 37.944C3.24043 38.2454 3.16507 38.6222 3.05203 38.999C3.42883 39.828 4.03172 40.3932 4.93604 40.657C4.97372 40.657 5.0114 40.6947 5.04908 40.6947V37.5295H0.71586V36.8136H9.98519V37.5295H5.80269V38.6976H9.26927V39.3758H5.76501V39.3005ZM8.77942 32.5181V35.9846H1.7709V32.5181H8.77942ZM7.98814 33.9876V33.1209H2.52451V33.9876H7.98814ZM7.98814 35.4194V34.5905H2.52451V35.4194H7.98814Z" fill="#1F1E1D"/>
<path d="M16.8053 32.1414H17.5212C18.1241 33.121 18.8777 33.9877 19.782 34.7036C20.0835 34.9297 20.3849 35.1557 20.6864 35.3065C20.5357 35.4949 20.3849 35.721 20.2342 35.9847C19.3299 35.4195 18.5009 34.6659 17.7473 33.7239C17.5212 33.4225 17.3328 33.1587 17.1821 32.895C16.6923 33.7616 16.014 34.5906 15.1097 35.3442C14.8083 35.6079 14.5068 35.834 14.2054 36.0224L14.1677 35.947V36.6253H13.0373V38.9991C13.1503 38.9615 13.3011 38.9238 13.5271 38.8861C13.9793 38.773 14.3184 38.6977 14.5445 38.6223L14.6199 39.3383C14.2054 39.4513 13.6025 39.602 12.7735 39.8281C11.9446 40.0542 11.3417 40.2049 11.0402 40.3179L10.8518 39.5643C11.0026 39.5267 11.2663 39.4513 11.6431 39.3759C11.9446 39.3006 12.1706 39.2629 12.3214 39.2252V36.663H11.1156V35.947H12.3214V33.7239H10.9649V33.008H14.5068V33.7239H13.0373V35.947H14.1677C14.0547 35.721 13.9416 35.5702 13.8663 35.4572C14.7706 34.892 15.5242 34.1761 16.2024 33.2718C16.4285 32.8196 16.6546 32.4805 16.8053 32.1414ZM19.4806 37.9818L20.1588 38.2832C19.2545 39.9411 17.5212 41.0715 15.0343 41.7121C14.8836 41.4483 14.7329 41.26 14.5445 41.0339C16.73 40.544 18.2748 39.6774 19.1792 38.3586C19.3299 38.2456 19.4052 38.1325 19.4806 37.9818ZM17.4082 34.9674L18.0111 35.2311C17.4459 35.947 16.6546 36.5876 15.6372 37.1528C15.5242 37.2282 15.4488 37.2658 15.3358 37.3035C15.1474 37.0774 14.9967 36.9267 14.8459 36.776C15.7126 36.3615 16.4662 35.8717 17.0691 35.2688C17.2198 35.1934 17.3328 35.0804 17.4082 34.9674ZM18.3879 36.4369L19.0661 36.7007C18.4256 37.6427 17.4836 38.434 16.2778 39.1122C16.014 39.2629 15.7879 39.376 15.5242 39.489C15.4111 39.2629 15.2227 39.0745 15.0343 38.8861C16.1271 38.4339 17.0691 37.8311 17.8604 37.0775C18.0488 36.8891 18.2372 36.6629 18.3879 36.4369Z" fill="#1F1E1D"/>
<path d="M24.7935 40.2801L25.5094 40.5816C24.6805 41.0337 23.5877 41.4482 22.2689 41.7497C22.0429 41.4859 21.8545 41.2975 21.7037 41.1845C23.0225 40.9584 24.0399 40.6569 24.7935 40.2801ZM31.0484 35.0803V35.6831H21.7037V35.0803H25.9616V34.5151H23.0979V32.7064H25.9616V32.1035H26.7529V32.7064H29.7673V34.5151H26.7529V35.0803H31.0484ZM29.8427 40.1671H23.0225V36.2107H29.8427V40.1671ZM23.7761 36.7382V37.4165H29.0514V36.7382H23.7761ZM23.7761 37.8686V38.5092H29.0514V37.8686H23.7761ZM23.7761 38.999V39.6396H29.0514V38.999H23.7761ZM23.8515 33.9875H25.9616V33.2339H23.8515V33.9875ZM28.976 33.2339H26.7152V33.9875H28.976V33.2339ZM27.205 40.6946L27.8833 40.3178C29.0514 40.6193 30.1064 40.9961 31.0484 41.3729L30.1441 41.7497C29.4659 41.4106 28.4862 41.0714 27.205 40.6946Z" fill="#1F1E1D"/>
<path d="M34.2889 35.4949C35.0802 36.1354 35.8338 36.889 36.5497 37.718C36.5874 37.7557 36.6251 37.7934 36.6251 37.8311L35.9092 38.4339C35.1556 37.5296 34.3643 36.7384 33.573 36.0978L34.2889 35.4949Z" fill="#1F1E1D"/>
<path d="M42.2395 37.4919L41.825 38.0948C41.7119 37.831 41.4859 37.4165 41.1467 36.9267V41.7498H40.4685V37.0397C40.054 38.2455 39.6772 39.1121 39.2627 39.715C39.1874 39.5643 39.0743 39.3382 38.8859 39.0368C39.3758 38.3585 39.7902 37.4542 40.1671 36.2861C40.2047 36.1354 40.2424 35.9847 40.3178 35.8339H39.112V35.118H40.5062V33.4224C40.167 33.4978 39.7902 33.5732 39.4134 33.6485C39.3758 33.4978 39.3004 33.3094 39.1874 33.0456C40.4308 32.8195 41.3351 32.5181 41.938 32.2166L42.3902 32.8572C42.0134 33.0079 41.6366 33.1587 41.2221 33.2717V35.118H42.3902V35.8339H41.2221V36.1354C41.5989 36.5499 41.938 36.9644 42.2771 37.4165C42.2395 37.4542 42.2395 37.4542 42.2395 37.4919ZM48.6828 36.1354H44.7264C44.5003 36.5499 44.2365 37.002 43.9728 37.3788H45.3292V36.4368H46.0452V37.3788H48.1929V40.0164C48.1929 40.3179 48.1176 40.544 47.9669 40.6194C47.9292 40.657 47.8915 40.657 47.8915 40.657C47.7031 40.7324 47.3263 40.77 46.7611 40.77C46.7234 40.5816 46.648 40.3556 46.535 40.0918C46.9495 40.0918 47.2132 40.0918 47.3263 40.0918C47.4017 40.0918 47.4393 40.0541 47.477 39.9788V38.0194H46.0828V41.6744H45.3669V38.0194H44.0481V40.77H43.3322V38.1701C43.0684 38.4339 42.8423 38.66 42.6539 38.773C42.4655 38.5469 42.2771 38.3585 42.1264 38.2455C42.8423 37.718 43.4452 37.0021 43.9351 36.0977H42.6539V35.4195H44.3119C44.5003 34.9673 44.651 34.6282 44.6887 34.4398C43.8974 34.7412 43.4075 34.9296 43.1815 35.005C42.9554 34.7036 42.8047 34.4775 42.6916 34.4021C43.4829 34.176 44.2742 33.9122 45.0655 33.5731C44.3872 33.3094 43.709 33.0833 43.0684 32.8572L43.5583 32.3297C44.3872 32.5935 45.1785 32.8572 45.8944 33.1587C46.5727 32.7819 47.1002 32.4427 47.4393 32.0659L48.1176 32.3674C47.7408 32.7065 47.2509 33.0833 46.648 33.4601C47.477 33.8369 48.1176 34.176 48.5697 34.4021L48.0799 35.005C47.5901 34.6659 46.8364 34.2891 45.8944 33.8746C45.6684 33.9876 45.3292 34.1383 44.8771 34.3644L45.48 34.5151C45.48 34.5528 45.4423 34.5905 45.4423 34.6282C45.4423 34.6659 45.4046 34.7036 45.4046 34.7789C45.3669 34.8166 45.3669 34.8919 45.3669 34.8919C45.3669 34.9296 45.3292 34.9673 45.3292 35.0427C45.2916 35.118 45.2916 35.1557 45.2916 35.1557C45.2916 35.1557 45.2539 35.231 45.2162 35.3064L45.1785 35.4195H48.7958V36.1354H48.6828Z" fill="#1F1E1D"/>
<path d="M58.8564 34.2136H53.2044C52.9783 34.6658 52.7899 35.0803 52.5638 35.4194H57.6507V40.77C57.6507 41.1468 57.5376 41.4105 57.3492 41.5236C57.3116 41.5612 57.2362 41.5613 57.1985 41.599C56.9348 41.712 56.2942 41.7497 55.3522 41.7497C55.3145 41.5236 55.2391 41.2598 55.0884 40.9584C55.4275 40.9584 55.9174 40.9961 56.5956 40.9961C56.7464 40.9584 56.8217 40.9207 56.8594 40.77V39.6773H52.4508V41.7497H51.6595V36.6629C51.0943 37.3411 50.5291 37.9063 49.8886 38.3207C49.7755 38.1323 49.5871 37.9063 49.3987 37.7179C50.5668 36.9266 51.5465 35.7585 52.3001 34.2136H49.6625V33.46H52.6392C52.8653 32.8948 53.016 32.4426 53.0914 32.1035L53.8827 32.2919C53.7319 32.7818 53.5812 33.1586 53.4682 33.46H58.8188V34.2136H58.8564ZM56.8594 37.1903V36.1353H52.4508V37.1903H56.8594ZM52.4508 38.9613H56.8594V37.8686H52.4508V38.9613Z" fill="#1F1E1D"/>
<path d="M62.2853 38.3584L62.0216 34.2513L61.9839 33.0078H63.2273L63.1897 34.2513L62.9259 38.3584H62.2853ZM62.0216 39.5642H63.2273V40.7699H62.0216V39.5642Z" fill="#1F1E1D"/>
<path d="M5.04914 84.7427L4.59697 85.3079C4.37089 85.0441 3.95641 84.6673 3.39121 84.1398V86.8151H2.6376V84.0267C2.0724 84.8934 1.5072 85.5716 0.866632 86.0615C0.715911 85.8354 0.527512 85.647 0.339111 85.4963C0.979675 85.0818 1.54488 84.4789 2.11008 83.6499C2.22312 83.4615 2.33616 83.2731 2.4492 83.1224H0.565192V82.4442H2.6376V81.3138H0.527512V80.6355H5.42594V81.3138H3.39121V82.4442H5.35058V83.1224H3.39121V83.3862C3.95641 83.8007 4.48393 84.2528 5.01145 84.705C5.01145 84.7427 5.04914 84.7427 5.04914 84.7427ZM5.3129 78.337V79.0153H0.715913V78.337H2.6376V77.282H3.39121V78.337H5.3129ZM2.37384 80.5225L1.73328 80.7109C1.6956 80.2587 1.54488 79.7312 1.3188 79.2037L1.92168 79.053C2.18544 79.5428 2.33616 80.0326 2.37384 80.5225ZM4.10713 80.6732L3.46657 80.5225C3.73033 79.9196 3.91873 79.3921 3.99409 79.0153L4.71001 79.166C4.44625 79.8819 4.25785 80.4094 4.10713 80.6732ZM10.0983 80.7486V81.5022H8.9302V86.8151H8.17659V81.5022H6.59403V81.7659C6.59403 83.9137 6.14186 85.534 5.19986 86.6267C5.1245 86.7397 5.01146 86.8151 4.9361 86.9281C4.82306 86.7774 4.67233 86.589 4.44625 86.4383C4.40857 86.4006 4.40857 86.4006 4.37089 86.4006C5.27522 85.534 5.76506 84.2152 5.84042 82.5195C5.84042 82.2935 5.8781 82.0674 5.8781 81.8036V78.1486L6.4433 78.337C7.76211 78.0356 8.7418 77.7342 9.38236 77.4327L10.0229 78.0356C9.307 78.3747 8.17659 78.6762 6.63171 78.9776V80.8616H10.0983V80.7486Z" fill="#1F1E1D"/>
<path d="M13.3388 81.7661V79.8821H14.0924V86.8529H13.3388V84.14H12.2837C12.2837 85.308 11.9823 86.2124 11.3794 86.8152C11.3417 86.8529 11.3417 86.8529 11.3041 86.8906C11.1533 86.7022 10.9649 86.5515 10.7012 86.4384C11.2664 85.9109 11.5678 85.1573 11.6055 84.14H10.8519V83.424H13.3011V82.4443H11.3794V80.0328H12.0953V81.7661H13.3388ZM16.9561 78.7517H14.2431V79.6183H13.4518V78.7517H10.9649V78.0357H13.4518V77.2068H14.2431V78.0357H16.9561V77.2068H17.7474V78.0357H20.3096V78.7517H17.7474V79.6183H16.9561V78.7517ZM20.385 82.7458H17.8227V85.7602H20.1966V86.5138H14.733V85.7602H17.0691V82.7458H14.5069V81.9922H17.0691V79.8821H17.8604V81.9922H20.4227V82.7458H20.385Z" fill="#1F1E1D"/>
<path d="M25.6602 84.6674L25.7356 85.3456C24.4921 85.6471 23.098 85.9862 21.5154 86.2876L21.327 85.5717C21.9676 85.4587 22.9849 85.2326 24.3791 84.9688L23.8516 84.8181C24.04 84.1399 24.1907 83.4616 24.3414 82.6703L25.095 82.8587C24.8313 83.8384 24.6052 84.5544 24.4921 84.9312L25.6602 84.6674ZM25.5849 77.8096V78.5255H21.44V77.8096H25.5849ZM25.3211 79.5052V82.3312H21.7415V79.5052H25.3211ZM23.0603 84.6674L22.382 84.8181C22.382 84.1775 22.2313 83.4993 22.0052 82.8587L22.6458 82.708C22.9096 83.3109 23.0603 83.9515 23.098 84.592C23.0603 84.6674 23.0603 84.6674 23.0603 84.6674ZM24.6052 81.6907V80.1835H22.4197V81.6907H24.6052ZM27.1674 85.0819L27.8457 85.4587C27.3182 85.9485 26.6399 86.363 25.8109 86.7398C25.6979 86.7775 25.6225 86.8152 25.5472 86.8528C25.3965 86.6644 25.2081 86.5137 25.0197 86.3253C25.7356 86.0615 26.3761 85.7225 26.9413 85.2703C27.0167 85.2326 27.0921 85.1573 27.1674 85.0819ZM26.1877 79.3921H27.6573C27.7703 78.8269 27.8457 78.4878 27.8833 78.3748H25.8486V77.6965H30.8978V78.3748H28.7123C28.5993 78.7893 28.4862 79.1284 28.4109 79.3921H30.5586V84.8558H26.1501V79.3921H26.1877ZM29.8427 81.0501V80.0327H26.9037V81.0501H29.8427ZM29.8427 82.6327V81.6153H26.9037V82.6327H29.8427ZM29.8427 84.2529V83.1979H26.9037V84.2529H29.8427ZM28.75 85.534L29.3529 85.1572C30.1818 85.6471 30.7471 86.0992 31.1615 86.4384L30.5586 86.8528C30.0688 86.4384 29.5036 86.0239 28.75 85.534Z" fill="#1F1E1D"/>
<path d="M38.7352 78.9024H41.2221V79.6183H31.8398V78.9024H34.4397C34.2513 78.4879 33.9498 78.0357 33.4977 77.5082L34.2136 77.2445C34.7034 77.772 35.0426 78.2618 35.2687 78.714L34.7411 78.9024H37.8686C38.2454 78.4126 38.5468 77.8097 38.8483 77.2068L39.6772 77.4705C39.3758 77.9604 39.0367 78.4502 38.7352 78.9024ZM36.3237 80.5226V85.9486C36.3237 86.2877 36.2107 86.5138 36.0223 86.6268C35.9846 86.6268 35.9469 86.6645 35.9469 86.6645C35.7208 86.7399 35.231 86.8152 34.4774 86.8152C34.4397 86.5515 34.3266 86.3254 34.2136 86.137C34.7788 86.1747 35.1556 86.1747 35.344 86.137C35.4571 86.0993 35.5324 86.0239 35.5324 85.9486V84.5544H33.1962V86.8152H32.4426V80.5226H36.3237ZM35.5701 81.2386H33.2339V82.2559H35.5701V81.2386ZM33.2339 83.9138H35.5701V82.8588H33.2339V83.9138ZM38.3208 80.6733V84.9312H37.6048V80.6733H38.3208ZM39.7149 85.8732V80.3342H40.5062V85.8732C40.5062 86.25 40.4308 86.4761 40.2424 86.5892C40.2048 86.6268 40.1294 86.6268 40.0917 86.6645C39.7903 86.7776 39.2251 86.8152 38.4338 86.8152C38.3961 86.5515 38.2831 86.2877 38.17 86.0616C38.8483 86.0993 39.3004 86.0993 39.5265 86.0616C39.6396 86.024 39.7149 85.9863 39.7149 85.8732Z" fill="#1F1E1D"/>
<path d="M45.8191 82.0298C45.8191 81.6153 45.9698 81.3139 46.309 81.0878C46.4974 80.9748 46.7234 80.8994 46.9495 80.8994C47.364 80.8994 47.6655 81.0502 47.8915 81.3893C48.0046 81.5777 48.0799 81.8037 48.0799 82.0298C48.0799 82.4443 47.9292 82.7457 47.5901 82.9718C47.4017 83.0849 47.1756 83.1602 46.9872 83.1602C46.5727 83.1602 46.2713 83.0095 46.0452 82.6704C45.8945 82.482 45.8191 82.2559 45.8191 82.0298Z" fill="#1F1E1D"/>
<path d="M57.4246 86.0616L56.671 83.6877H53.845L53.0914 86.0616H52.1117L54.7493 78.3372H55.8421L58.442 86.0616H57.4246ZM54.1088 82.8965H56.4449L56.0681 81.7284C55.9174 81.2385 55.6537 80.3719 55.2769 79.1284H55.2392C55.0131 79.9951 54.7493 80.8617 54.4479 81.7284L54.1088 82.8965Z" fill="#1F1E1D"/>
<path d="M61.5318 86.1745C60.5144 86.1745 59.7231 85.8354 59.0449 85.1195L59.5347 84.4789C60.0999 85.0441 60.7405 85.3456 61.4564 85.3833C62.097 85.3833 62.5491 85.1572 62.8129 84.705C62.9636 84.479 63.039 84.2152 63.039 83.9137C63.039 82.8964 62.21 82.3688 60.6274 82.3688V81.6152C62.0593 81.6152 62.7752 81.1254 62.7752 80.1457C62.7752 79.5805 62.5491 79.2037 62.0593 79.0153C61.8709 78.9399 61.6825 78.9023 61.4564 78.9023C60.8912 78.94 60.3637 79.2037 59.8738 79.6936L59.3463 79.0907C60.0245 78.4878 60.7405 78.1487 61.4941 78.1487C62.3607 78.1487 63.0013 78.4124 63.4158 78.94C63.6418 79.2791 63.7549 79.6559 63.7549 80.0704C63.7549 80.8993 63.3781 81.4645 62.6245 81.8413C62.5491 81.879 62.4738 81.9167 62.3607 81.9544V81.992C63.039 82.1428 63.4911 82.4819 63.7926 83.0094C63.9433 83.3109 64.0186 83.6123 64.0186 83.9514C64.0186 84.7427 63.7172 85.3456 63.0766 85.7601C62.6245 86.0615 62.097 86.1745 61.5318 86.1745Z" fill="#1F1E1D"/>
<path d="M68.5403 82.369V79.7313C68.3896 79.9574 68.2012 80.1835 68.0128 80.3719C67.8997 80.1835 67.749 79.9951 67.5606 79.8444C68.2012 79.2038 68.7287 78.3748 69.1055 77.3198C69.1055 77.2821 69.1055 77.2821 69.1432 77.2445L69.7837 77.3952C69.6707 77.6589 69.5577 77.9981 69.3693 78.3749H70.2736C70.4997 77.9227 70.6504 77.5836 70.6881 77.3575L71.3286 77.5459C71.2156 77.772 71.0649 78.0357 70.8765 78.3749H72.346V78.9024H70.8765V79.5053H72.1199V79.769C72.7605 79.0531 73.288 78.2242 73.6271 77.2068L74.2677 77.3952C74.1923 77.5836 74.0793 77.9227 73.8532 78.3749H74.6822C74.9082 77.9227 75.059 77.5836 75.1343 77.3575L75.8126 77.5082C75.7372 77.6212 75.5865 77.9227 75.3227 78.3749H76.943V78.9024H75.3604V79.5053H76.7169V80.0328H75.3604V80.6357H76.7169V81.1632H75.3604V81.7661H77.0937V82.3313H73.0242V79.6937C72.8358 79.9574 72.6474 80.1835 72.459 80.4096C72.346 80.2589 72.233 80.1081 72.0822 79.9574V80.0328H70.8388V80.6357H72.0822V81.1632H70.8388V81.7661H72.459V82.3313H68.5403V82.369ZM75.4735 82.9718L76.001 83.311C75.4734 84.1399 74.6068 84.8558 73.4764 85.421C74.5314 85.7602 75.7749 85.9863 77.1691 86.137C77.0183 86.2877 76.8676 86.5515 76.6792 86.8906C75.059 86.7022 73.6648 86.3631 72.459 85.8732C71.1779 86.3631 69.7084 86.7022 68.0128 86.8906C67.8997 86.5891 67.7867 86.3631 67.6736 86.1746C69.1432 86.0616 70.4243 85.7979 71.5547 85.4588C70.7634 85.0443 70.1229 84.5167 69.5953 83.9138L70.0475 83.6878H68.2765V83.0472H75.3227L75.4735 82.9718ZM70.1605 79.5429V78.9401H69.1809V79.5429H70.1605ZM70.1605 80.6733V80.0705H69.1809V80.6733H70.1605ZM70.1605 81.8038V81.2009H69.1809V81.8038H70.1605ZM74.7198 83.6878H70.3866C70.9141 84.253 71.6301 84.7052 72.5344 85.082C73.4764 84.6675 74.1923 84.2153 74.7198 83.6878ZM74.6822 79.5429V78.9401H73.7025V79.5429H74.6822ZM74.6822 80.6733V80.0705H73.7025V80.6733H74.6822ZM74.6822 81.8038V81.2009H73.7025V81.8038H74.6822Z" fill="#1F1E1D"/>
<path d="M81.3893 82.4066L80.2588 82.7834V85.9486C80.2588 86.3254 80.1458 86.5891 79.9197 86.7022H79.882C79.656 86.8152 79.2038 86.8529 78.5632 86.8529C78.5256 86.5891 78.4502 86.3631 78.3372 86.137C78.8647 86.137 79.2038 86.137 79.3545 86.137C79.4676 86.0993 79.5052 86.0239 79.5429 85.9486V83.0095L78.2995 83.424L78.1111 82.6704C78.2241 82.6327 78.6763 82.482 79.5806 82.2559V80.1081H78.2618V79.3922H79.5806V77.2821H80.2965V79.3922H81.4269V80.1081H80.2965V82.0675C80.4473 82.0299 80.6733 81.9545 80.9748 81.8414C81.1632 81.8037 81.2762 81.7284 81.3516 81.7284L81.3893 82.4066ZM87.1543 83.0472H84.8935V83.9516H87.2674V84.5921H84.8935V85.9862C85.195 86.0239 85.5341 86.0616 85.8732 86.0616H87.9456C87.8326 86.2124 87.7572 86.4384 87.7195 86.7399H85.8732C84.7051 86.7399 83.8385 86.5515 83.2733 86.137C82.9341 85.9109 82.6704 85.5718 82.4443 85.195C82.1429 85.9109 81.8037 86.4761 81.3516 86.8906C81.2009 86.7399 81.0125 86.5892 80.7487 86.4384C81.5023 85.7602 81.9921 84.6675 82.1805 83.2356L82.8965 83.311C82.8588 83.6124 82.7834 83.9516 82.7081 84.3284C83.0472 85.082 83.537 85.5718 84.2153 85.8356V83.0472H81.9921V82.4443H84.1399V81.5777H81.3893V80.9371H84.1399V80.1458H81.9921V79.5053H84.1399V78.7893H81.54V78.1488H84.1399V77.2068H84.8558V78.1488H87.6442V78.7893H84.8558V79.5053H87.1167V80.8994H87.8703V81.54H87.1167V83.0472H87.1543ZM84.8558 80.1458V80.9371H86.4007V80.1458H84.8558ZM84.8558 81.5777V82.4443H86.4007V81.5777H84.8558Z" fill="#1F1E1D"/>
<path d="M91.789 84.2153L92.9571 83.9516L93.0324 84.6674C92.5803 84.7805 91.9397 84.9312 91.0354 85.1196C89.9803 85.3834 89.2267 85.5341 88.7746 85.6472L88.6238 84.8558C88.7369 84.8182 89.5282 84.6675 91.0731 84.3284C91.3368 83.1226 91.5252 81.8038 91.6383 80.4096C91.6383 80.3719 91.6383 80.3342 91.6383 80.3342L92.4295 80.4849C92.2411 81.8791 92.0151 83.1226 91.789 84.2153ZM92.844 79.3169V80.0328H88.8122V79.3169H90.4702V77.3575H91.1861V79.3169H92.844ZM90.3194 84.14L89.6412 84.253C89.6412 83.1602 89.4905 81.9545 89.2267 80.6357C89.2267 80.598 89.2267 80.598 89.2267 80.5603L89.8673 80.4473C90.1687 81.7284 90.3194 82.9342 90.3194 84.14ZM98.27 80.1458H95.67V82.2182H97.8178V86.7776H97.0265V86.3254H93.8614V86.8152H93.1078V82.2182H94.8411V77.2068H95.6324V79.3922H98.2323V80.1458H98.27ZM97.0265 85.6094V82.9718H93.8614V85.6094H97.0265Z" fill="#1F1E1D"/>
<path d="M106.258 78.9024H108.745V79.6183H99.3627V78.9024H101.963C101.774 78.4879 101.473 78.0357 101.021 77.5082L101.737 77.2445C102.226 77.772 102.566 78.2618 102.792 78.714L102.264 78.9024H105.392C105.768 78.4126 106.07 77.8097 106.371 77.2068L107.2 77.4705C106.899 77.9604 106.56 78.4502 106.258 78.9024ZM103.847 80.5226V85.9486C103.847 86.2877 103.734 86.5138 103.545 86.6268C103.508 86.6268 103.47 86.6645 103.47 86.6645C103.244 86.7399 102.754 86.8152 102 86.8152C101.963 86.5515 101.85 86.3254 101.737 86.137C102.302 86.1747 102.679 86.1747 102.867 86.137C102.98 86.0993 103.055 86.0239 103.055 85.9486V84.5544H100.719V86.8152H99.9656V80.5226H103.847ZM103.093 81.2386H100.757V82.2559H103.093V81.2386ZM100.757 83.9138H103.093V82.8588H100.757V83.9138ZM105.844 80.6733V84.9312H105.128V80.6733H105.844ZM107.238 85.8732V80.3342H108.029V85.8732C108.029 86.25 107.954 86.4761 107.765 86.5892C107.728 86.6268 107.652 86.6268 107.615 86.6645C107.313 86.7776 106.748 86.8152 105.957 86.8152C105.919 86.5515 105.806 86.2877 105.693 86.0616C106.371 86.0993 106.823 86.0993 107.049 86.0616C107.163 86.024 107.238 85.9863 107.238 85.8732Z" fill="#1F1E1D"/>
<path d="M109.951 81.7283H117.6V82.4442H109.951V81.7283Z" fill="#1F1E1D"/>
<path d="M120.652 83.9515V77.1313H123.968V77.8473H121.406V83.9515H120.652Z" fill="#1F1E1D"/>
<path d="M129.545 78.6385H133.313V86.8152H132.521V86.2876H126.907V86.8905H126.078V78.6763H128.716C128.904 78.0734 129.055 77.5835 129.13 77.2444L130.034 77.3574C129.921 77.6966 129.733 78.1487 129.545 78.6385ZM132.521 79.3921H126.907V80.9747H132.521V79.3921ZM132.521 81.7283H126.907V83.2732H132.521V81.7283ZM126.869 85.534H132.484V83.9515H126.869V85.534Z" fill="#1F1E1D"/>
<path d="M5.65202 95.2933H9.34468V102.829H8.5534V102.226H2.03473V102.905H1.24344V95.2933H4.86074V93.2585H5.65202V95.2933ZM4.86074 96.0469H2.03473V98.3454H4.86074V96.0469ZM2.03473 99.099V101.435H4.86074V99.099H2.03473ZM8.5534 96.0469H5.65202V98.3454H8.5534V96.0469ZM5.65202 101.473H8.5534V99.1366H5.65202V101.473Z" fill="#1F1E1D"/>
<path d="M20.3473 95.2931L20.9502 95.6699C20.1212 97.0264 18.9531 98.3452 17.5213 99.664C16.8054 100.305 16.1271 100.87 15.4489 101.322C16.2025 101.736 17.3329 101.962 18.8778 101.962C20.3473 101.962 21.2516 101.962 21.5907 101.962C21.44 102.226 21.327 102.452 21.2893 102.716H18.8401C17.2575 102.716 16.0894 102.49 15.2982 102.076C14.6953 101.774 14.2054 101.284 13.8286 100.681C13.3765 101.548 12.962 102.302 12.5852 102.867L11.8316 102.415C12.4721 101.623 13.0373 100.644 13.5649 99.4379C13.6402 99.2495 13.7156 99.0235 13.7909 98.8727L14.5445 99.1741C14.5069 99.2872 14.3938 99.5133 14.2054 99.8901C14.3561 100.229 14.5822 100.531 14.846 100.794C16.0894 99.9655 17.3329 98.9104 18.501 97.5539C18.9531 97.0264 19.3676 96.5366 19.6691 96.0467H12.4721V95.2931H16.2778V93.2207H17.0691V95.2931H20.1966H20.3473Z" fill="#1F1E1D"/>
<path d="M30.5209 101.661H33.1209V102.452H23.6631V101.661H25.3211V94.3135L26.037 94.5019C28.2978 94.1628 29.9934 93.8237 31.1238 93.4092L31.7267 94.0497C30.4456 94.4642 28.5993 94.8787 26.1124 95.1801V96.9888H32.631V97.7424H30.5209V101.661ZM26.15 97.7424V101.661H29.7297V97.7424H26.15Z" fill="#1F1E1D"/>
<path d="M37.3788 96.1599V102.98H34.0629V102.264H36.6252V96.1599H37.3788Z" fill="#1F1E1D"/>
<path d="M47.1756 102.189C46.3467 102.189 45.6684 101.925 45.2162 101.397C44.8771 101.021 44.7264 100.606 44.7264 100.116C44.7264 99.3249 45.1032 98.6844 45.8191 98.1945C45.9322 98.1192 46.0452 98.0438 46.1583 98.0061V97.9685C45.48 97.4786 45.1409 96.8758 45.1032 96.1975C45.1032 95.4816 45.367 94.954 45.9322 94.5772C46.309 94.3512 46.7235 94.2004 47.2133 94.2004C48.0423 94.2004 48.6451 94.5019 49.022 95.0671C49.248 95.4062 49.3234 95.783 49.3234 96.2352C49.3234 96.8381 49.0596 97.4033 48.4944 97.9308C48.4191 98.0061 48.3437 98.0438 48.306 98.0815V98.1192C49.1727 98.609 49.6248 99.2873 49.6248 100.154C49.6248 100.794 49.3611 101.322 48.7959 101.699C48.3437 102.038 47.8162 102.189 47.1756 102.189ZM47.2133 101.51C47.8162 101.51 48.2683 101.284 48.4944 100.87C48.6075 100.681 48.6828 100.455 48.6828 100.192C48.6828 99.6264 48.3814 99.1742 47.7408 98.8351C47.5147 98.6844 47.1379 98.5337 46.6104 98.3076C45.9322 98.7974 45.5931 99.4003 45.5554 100.041C45.5554 100.531 45.7815 100.945 46.2336 101.209C46.5351 101.397 46.8742 101.51 47.2133 101.51ZM47.7031 97.8554C48.2307 97.3656 48.4944 96.8757 48.4944 96.3105C48.4944 95.783 48.306 95.3685 47.8915 95.1424C47.6655 95.0294 47.4394 94.954 47.1756 94.954C46.6858 94.954 46.3467 95.1424 46.1206 95.5569C46.0075 95.7453 45.9699 95.9714 45.9699 96.2352C45.9699 96.7627 46.2713 97.2149 46.9119 97.554C47.1003 97.6293 47.364 97.7424 47.7031 97.8554Z" fill="#1F1E1D"/>
<path d="M57.8768 94.3512L58.7058 94.5396C58.2159 95.9338 57.4623 97.0641 56.558 98.0061C56.4449 98.1192 56.3319 98.2322 56.2189 98.3076C56.0305 98.1192 55.8044 97.9308 55.5406 97.7424C56.4073 97.1018 57.0855 96.1975 57.613 95.0671C57.6884 94.8034 57.7638 94.5773 57.8768 94.3512ZM57.0855 97.3656H63.4158C63.4158 97.3656 63.4158 97.4786 63.3781 97.7424C63.2651 100.116 63.0767 101.586 62.8506 102.113C62.7752 102.264 62.7375 102.377 62.6622 102.49C62.4738 102.679 62.2477 102.792 61.9462 102.829C61.9086 102.829 61.8709 102.829 61.8709 102.829C61.5318 102.867 61.0419 102.829 60.4014 102.792C60.3637 102.49 60.2883 102.226 60.1376 102.038C60.5521 102.076 61.0419 102.076 61.5694 102.076C61.7578 102.076 61.9086 102.038 61.9839 101.963C62.2477 101.699 62.3984 100.568 62.5491 98.5713C62.5491 98.4206 62.5868 98.2323 62.5868 98.0815H59.8738C59.497 100.003 58.6681 101.435 57.4246 102.339C57.1609 102.528 56.8971 102.679 56.5957 102.829C56.4073 102.603 56.2189 102.377 55.9928 102.226C57.3116 101.661 58.2159 100.681 58.7058 99.2873C58.8565 98.9105 58.9695 98.496 59.0449 98.0815H57.0855V97.3656ZM58.9695 93.4092H62.2854C62.6622 94.6903 63.2651 95.7453 64.1317 96.6497C64.5085 96.9888 64.8853 97.2903 65.2621 97.5163C65.0737 97.7047 64.8853 97.9308 64.7346 98.1945C63.7172 97.554 62.8883 96.5743 62.2477 95.2932C62.0593 94.9164 61.8709 94.5019 61.7578 94.1251H59.0449V93.4092H58.9695Z" fill="#1F1E1D"/>
<path d="M71.3663 101.058L71.404 101.737C70.9518 101.85 70.2736 102 69.3692 102.151C68.4649 102.339 67.862 102.49 67.4852 102.566L67.3345 101.85C68.0881 101.737 68.6533 101.624 69.0678 101.548V98.3454H67.4099V97.6671H69.0678V96.5367H67.9751V96.0469C67.862 96.1599 67.7113 96.273 67.5606 96.4614C67.4099 96.2353 67.2591 96.0845 67.0707 95.9715C67.8997 95.2933 68.5026 94.4266 68.9924 93.4093C69.0301 93.3716 69.0301 93.2962 69.0678 93.2585H69.7837C70.575 93.9368 71.1402 94.5397 71.5547 95.0672L71.5924 95.1049L71.0648 95.7078C70.688 95.1426 70.1982 94.615 69.5953 94.0121C69.5576 93.9745 69.5576 93.9745 69.52 93.9368C69.1055 94.6904 68.6533 95.2933 68.2011 95.8208H70.9518V96.499H69.7837V97.6294H71.2909V98.3077H69.7837V101.36C69.8968 101.322 70.1228 101.284 70.3489 101.247C70.8011 101.171 71.1402 101.096 71.3663 101.058ZM67.6736 98.9859L68.2011 98.8729C68.4272 99.5511 68.578 100.229 68.6156 100.832L68.0504 100.983C68.0504 100.418 67.8997 99.7395 67.6736 98.9859ZM70.6504 100.795L70.1228 100.644C70.3112 99.8903 70.462 99.2874 70.5373 98.7598L71.1402 98.9106C70.9895 99.7395 70.8011 100.342 70.6504 100.795ZM74.3807 102H76.943V102.641H71.0272V102H73.6648V101.171H71.5924V100.569H73.6648V99.8903H71.7054V96.8005H76.4908V99.8903H74.3807V100.569H76.5285V101.171H74.3807V102ZM72.2329 94.6904L72.6851 94.615H71.4416V94.0121H73.6271V93.2962H74.3807V94.0121H76.6415V94.615H75.5111L75.8502 94.7281C75.6995 95.0672 75.5111 95.4063 75.3227 95.7454H76.9053V96.3483H71.1402V95.7454H72.6097C72.5721 95.444 72.4213 95.1049 72.2329 94.6904ZM72.3083 97.3657V98.1193H73.6648V97.3657H72.3083ZM72.3083 99.3627H73.6648V98.6091H72.3083V99.3627ZM74.7952 95.7078L74.6445 95.6701C74.8329 95.331 74.9836 94.9918 75.1343 94.615H72.8735C73.0996 95.0295 73.2503 95.3686 73.3257 95.6701L73.0619 95.7454H74.7952V95.7078ZM75.8126 98.1193V97.3657H74.3807V98.1193H75.8126ZM75.8126 99.3627V98.6091H74.3807V99.3627H75.8126Z" fill="#1F1E1D"/>
<path d="M81.2762 98.1191V100.757C81.7661 101.51 82.6327 101.887 83.9515 101.962C85.5718 102 87.1166 102 88.5862 101.887C88.6615 101.887 88.6992 101.887 88.7746 101.887C88.6615 102.113 88.5485 102.377 88.5108 102.678C86.8906 102.716 85.3834 102.754 83.9892 102.716C82.6704 102.641 81.6907 102.264 81.0878 101.586C81.0501 101.548 81.0125 101.51 81.0125 101.473C80.6357 101.812 80.1458 102.264 79.5052 102.829L79.0908 102.038C79.5806 101.699 80.0704 101.284 80.598 100.832V98.8727H79.2038V98.1568H81.2762V98.1191ZM81.54 96.6873L81.0125 97.2525C80.6357 96.8757 80.1081 96.4612 79.3922 96.0844C79.3168 96.0467 79.2792 96.009 79.2038 96.009L79.7313 95.5192C80.4473 95.8583 81.0125 96.1974 81.4646 96.6119C81.5023 96.6119 81.54 96.6496 81.54 96.6873ZM81.8414 94.6149L81.3139 95.1424C81.0125 94.7656 80.4849 94.3511 79.769 93.9366C79.6936 93.899 79.656 93.8613 79.5806 93.8236L80.1081 93.3337C80.8617 93.7482 81.4269 94.1627 81.8037 94.5395C81.8037 94.6149 81.8414 94.6149 81.8414 94.6149ZM82.6327 101.322V96.2728C82.5197 96.4235 82.2936 96.6496 82.0298 96.8757C81.8791 96.6873 81.653 96.4989 81.4269 96.3105C82.2559 95.6322 82.8965 94.7279 83.424 93.5975C83.4993 93.4845 83.537 93.3337 83.5747 93.2207L84.3283 93.4091C84.1399 93.8989 83.8762 94.4265 83.5747 94.9163H85.2703C85.5341 94.3134 85.7602 93.7482 85.9109 93.296L86.7398 93.4844C86.5138 94.0496 86.2877 94.5018 86.0616 94.954H88.3601V95.6322H85.9862V96.6873H88.0587V97.3655H85.9862V98.4205H88.021V99.0988H85.9862V100.192H88.5862V100.87H83.3863V101.36H82.6327V101.322ZM85.2326 96.6873V95.6322H83.3863V96.6873H85.2326ZM85.2326 98.4205V97.3655H83.3863V98.4205H85.2326ZM85.2326 100.154V99.0611H83.3863V100.154H85.2326Z" fill="#1F1E1D"/>
<path d="M93.786 95.8961V93.4092H94.5773V102.754H93.786V100.38C92.9571 100.757 92.0528 101.134 91.1107 101.51L90.7339 100.719C91.1107 100.606 92.1281 100.229 93.7484 99.5887V96.6497H91.0354V95.8584H93.786V95.8961ZM97.6671 101.887H99.212C99.4381 101.887 99.5888 101.774 99.6642 101.51C99.7395 101.247 99.8149 100.644 99.8526 99.7018C100.079 99.8902 100.305 100.003 100.606 100.079C100.568 101.171 100.418 101.887 100.229 102.226C100.041 102.528 99.7018 102.679 99.2873 102.679H97.5917C97.0642 102.679 96.6874 102.565 96.5367 102.302C96.4237 102.076 96.3483 101.736 96.3483 101.247V93.4845H97.1396V96.9511C98.27 96.2729 99.1366 95.6323 99.7395 95.0671L100.342 95.7453C99.6642 96.2729 98.6091 96.9511 97.1396 97.7801V101.247C97.1396 101.586 97.2149 101.774 97.328 101.85C97.4033 101.85 97.5164 101.887 97.6671 101.887Z" fill="#1F1E1D"/>
<path d="M111.948 95.4815H107.577V96.9133H110.968V100.606C110.968 100.983 110.855 101.247 110.667 101.36C110.629 101.397 110.554 101.397 110.516 101.435C110.252 101.548 109.612 101.586 108.67 101.586C108.632 101.397 108.557 101.134 108.406 100.794C108.896 100.794 109.386 100.832 109.913 100.832C110.064 100.794 110.139 100.719 110.139 100.644V97.7047H107.577V102.98H106.786V97.7047H104.374V101.623H103.583V96.9511H106.786V95.5192H102.528V94.7279H106.786V93.2207H107.615V94.7279H111.948V95.4815Z" fill="#1F1E1D"/>
<path d="M117.977 98.4583H117.185V97.1018H118.58V98.1945C118.58 98.9481 118.278 99.4757 117.675 99.8525C117.562 99.9278 117.487 99.9655 117.487 99.9655L117.223 99.551C117.713 99.2873 117.977 98.9482 117.977 98.4583Z" fill="#1F1E1D"/>
<path d="M123.516 102.076V101.511C125.437 99.8527 126.568 98.4585 126.945 97.3658C127.02 97.0643 127.095 96.8005 127.095 96.5368C127.095 95.8208 126.832 95.3687 126.342 95.1426C126.153 95.0673 125.927 95.0296 125.663 95.0296C125.098 95.0296 124.571 95.331 124.043 95.9339L123.478 95.4064C124.081 94.7281 124.721 94.3513 125.4 94.276C125.513 94.276 125.626 94.2383 125.777 94.2383C126.643 94.2383 127.284 94.5397 127.661 95.1803C127.887 95.5571 128 96.0092 128 96.5368C128 97.6295 127.359 98.8729 126.04 100.305C125.739 100.644 125.362 101.021 124.985 101.398C125.626 101.36 126.04 101.322 126.266 101.322H128.414V102.151H123.516V102.076Z" fill="#1F1E1D"/>
<path d="M133.878 94.9917L133.35 95.5946C133.011 95.2178 132.597 95.0294 132.107 94.9917C131.24 94.9917 130.637 95.4816 130.336 96.4989C130.185 96.9888 130.11 97.554 130.11 98.1945C130.524 97.7047 131.014 97.3656 131.579 97.2902C131.692 97.2525 131.768 97.2525 131.881 97.2525C132.86 97.2525 133.501 97.667 133.802 98.4583C133.953 98.7974 133.991 99.2119 133.991 99.7017C133.991 100.531 133.727 101.209 133.162 101.661C132.747 102 132.295 102.189 131.768 102.189C130.863 102.189 130.185 101.774 129.733 100.945C129.356 100.267 129.205 99.438 129.205 98.3829C129.205 96.5366 129.658 95.2931 130.6 94.6526C131.014 94.3511 131.504 94.2004 132.069 94.2004C132.785 94.2004 133.388 94.4642 133.878 94.9917ZM131.805 101.473C132.258 101.473 132.634 101.247 132.86 100.794C133.011 100.493 133.124 100.116 133.124 99.7394C133.124 98.8351 132.823 98.3076 132.22 98.1192C132.069 98.0815 131.918 98.0438 131.73 98.0438C131.165 98.0438 130.637 98.3453 130.185 98.9481C130.147 98.9858 130.147 98.9858 130.147 99.0235C130.26 100.418 130.675 101.209 131.391 101.435C131.542 101.435 131.655 101.473 131.805 101.473Z" fill="#1F1E1D"/>
<path d="M2.78832 110.365L3.61729 110.554C3.12744 111.948 2.37384 113.078 1.46952 114.02C1.35648 114.133 1.24343 114.246 1.13039 114.322C0.941992 114.133 0.71591 113.945 0.452148 113.756C1.31879 113.116 1.99704 112.212 2.52456 111.081C2.59992 110.817 2.71296 110.591 2.78832 110.365ZM1.99704 113.38H8.32731C8.32731 113.38 8.32731 113.493 8.28963 113.756C8.17659 116.13 7.98819 117.6 7.76211 118.127C7.68675 118.278 7.64907 118.391 7.57371 118.504C7.38531 118.693 7.15923 118.806 6.85778 118.843C6.8201 118.843 6.78242 118.843 6.78242 118.843C6.4433 118.881 5.95346 118.843 5.3129 118.806C5.27522 118.504 5.19986 118.24 5.04914 118.052C5.46362 118.09 5.95346 118.09 6.48098 118.09C6.66938 118.09 6.8201 118.052 6.89546 117.977C7.15923 117.713 7.30995 116.582 7.46067 114.585C7.46067 114.435 7.49835 114.246 7.49835 114.096H4.78537C4.40857 116.017 3.57961 117.449 2.33616 118.353C2.0724 118.542 1.80864 118.693 1.5072 118.843C1.31879 118.617 1.13039 118.391 0.904313 118.24C2.22312 117.675 3.12744 116.696 3.61729 115.301C3.76801 114.925 3.88105 114.51 3.95641 114.096H1.99704V113.38ZM3.91873 109.461H7.23459C7.61139 110.742 8.21427 111.797 9.08092 112.701C9.45772 113.041 9.83452 113.342 10.2113 113.568C10.0229 113.756 9.83452 113.983 9.6838 114.246C8.66644 113.606 7.83747 112.626 7.19691 111.345C7.00851 110.968 6.8201 110.554 6.70706 110.177H3.99409V109.461H3.91873Z" fill="#1F1E1D"/>
<path d="M16.8054 117.072L16.8431 117.751C16.3909 117.864 15.7126 118.014 14.8083 118.165C13.904 118.353 13.3011 118.504 12.9243 118.579L12.7736 117.864C13.5272 117.751 14.0924 117.637 14.5069 117.562V114.359H12.8489V113.681H14.5069V112.551H13.4141V112.061C13.3011 112.174 13.1504 112.287 12.9997 112.475C12.8489 112.249 12.6982 112.098 12.5098 111.985C13.3388 111.307 13.9417 110.441 14.4315 109.423C14.4692 109.386 14.4692 109.31 14.5069 109.272H15.2228C16.0141 109.951 16.5793 110.554 16.9938 111.081L17.0315 111.119L16.5039 111.722C16.1271 111.156 15.6373 110.629 15.0344 110.026C14.9967 109.988 14.9967 109.988 14.959 109.951C14.5446 110.704 14.0924 111.307 13.6402 111.835H16.3909V112.513H15.2228V113.643H16.73V114.322H15.2228V117.374C15.3358 117.336 15.5619 117.298 15.788 117.261C16.2402 117.185 16.5793 117.11 16.8054 117.072ZM13.1504 115L13.6779 114.887C13.904 115.565 14.0547 116.243 14.0924 116.846L13.5272 116.997C13.4895 116.432 13.3765 115.753 13.1504 115ZM16.1271 116.846L15.5996 116.695C15.788 115.942 15.9387 115.339 16.0141 114.811L16.617 114.962C16.4286 115.753 16.2778 116.394 16.1271 116.846ZM19.8198 118.014H22.382V118.655H16.4662V118.014H19.1039V117.185H17.0315V116.582H19.1039V115.904H17.1445V112.814H21.9299V115.904H19.8198V116.582H21.9676V117.185H19.8198V118.014ZM17.672 110.704L18.1242 110.629H16.8807V110.026H19.0662V109.31H19.8198V110.026H22.0806V110.629H20.9502L21.2893 110.742C21.1386 111.081 20.9502 111.42 20.7618 111.759H22.3444V112.362H16.5793V111.759H18.0488C18.0111 111.458 17.8981 111.119 17.672 110.704ZM17.7474 113.38V114.133H19.1039V113.38H17.7474ZM17.7474 115.414H19.1039V114.661H17.7474V115.414ZM20.2719 111.722L20.1212 111.684C20.3096 111.345 20.4604 111.006 20.6111 110.629H18.3503C18.5763 111.043 18.7271 111.383 18.8024 111.684L18.5387 111.759H20.2719V111.722ZM21.2516 114.133V113.38H19.8198V114.133H21.2516ZM21.2516 115.414V114.661H19.8198V115.414H21.2516Z" fill="#1F1E1D"/>
<path d="M34.5904 117.788V118.504H25.0573V117.788H26.5645V111.722H29.0137C29.0514 111.609 29.0514 111.458 29.0891 111.307C29.1268 111.156 29.1268 111.043 29.1645 110.893H25.3588V110.177H29.2775C29.3152 109.838 29.3529 109.536 29.3529 109.272L30.2195 109.348L30.0688 110.177H34.2513V110.893H29.9557C29.9181 111.043 29.8804 111.194 29.8804 111.307C29.8427 111.458 29.8427 111.571 29.805 111.722H33.1586V117.788H34.5904ZM27.3181 112.362V113.267H32.3673V112.362H27.3181ZM32.3673 113.869H27.3181V114.698H32.3673V113.869ZM27.3181 116.243H32.3673V115.339H27.3181V116.243ZM27.3181 117.788H32.3673V116.846H27.3181V117.788Z" fill="#1F1E1D"/>
<path d="M40.77 114.51L39.4512 114.924V117.977C39.4512 118.391 39.3381 118.655 39.0744 118.768C38.8483 118.843 38.3585 118.881 37.6802 118.881C37.6425 118.579 37.5672 118.353 37.4541 118.165C37.9817 118.165 38.3208 118.165 38.5092 118.165C38.6222 118.165 38.6976 118.09 38.6976 117.977V115.151L37.2657 115.565L37.0773 114.811C37.3411 114.736 37.9063 114.585 38.7353 114.359V112.098H37.2281V111.383H38.7353V109.272H39.4889V111.383H40.6946V112.098H39.4135V114.133L40.657 113.756L40.77 114.51ZM46.6104 113.53H44.6511C44.8771 115.904 45.2163 117.298 45.7061 117.637C45.7815 117.675 45.8568 117.713 45.8945 117.713C46.0829 117.713 46.2336 117.223 46.2713 116.206C46.3843 116.356 46.5727 116.469 46.8365 116.62C46.6858 117.977 46.3467 118.617 45.8945 118.655C45.1032 118.617 44.538 117.675 44.1612 115.791C44.0482 115.151 43.9728 114.435 43.8974 113.568H41.7874V116.206C41.9758 116.168 42.3149 116.13 42.767 116.055C43.2192 115.98 43.5583 115.904 43.8221 115.866L43.8598 116.582C43.3699 116.658 42.6917 116.771 41.712 116.959C40.9961 117.072 40.5062 117.185 40.2048 117.223L40.0541 116.469C40.1294 116.469 40.2801 116.432 40.4686 116.394C40.6946 116.356 40.883 116.319 40.9961 116.319V110.101L41.599 110.29C43.3699 110.064 44.6887 109.838 45.5554 109.536L46.1206 110.139C45.6307 110.29 45.0655 110.403 44.425 110.516C44.4627 111.307 44.4627 112.061 44.5003 112.777H46.4974V113.53H46.6104ZM40.2425 118.542V117.826H44.3873V118.542H40.2425ZM41.825 112.814H43.8598C43.8221 112.212 43.7844 111.496 43.7467 110.667C43.0308 110.78 42.3902 110.855 41.825 110.93V112.814Z" fill="#1F1E1D"/>
<path d="M52.8653 114.171L52.3755 114.774C52.2624 114.51 51.9987 114.02 51.5842 113.304V118.881H50.8306V114.02C50.4915 115.226 50.1147 116.13 49.7379 116.733C49.6625 116.507 49.5118 116.243 49.3234 115.942C49.8132 115.226 50.2277 114.209 50.5668 112.852C50.6422 112.551 50.7176 112.249 50.7552 111.948H49.4741V111.232H50.8306V109.197H51.5842V111.232H52.6016V111.948H51.5842V112.287C52.0364 112.852 52.4509 113.417 52.79 113.983C52.8277 114.096 52.8277 114.133 52.8653 114.171ZM54.5986 113.606V109.273H55.3145V113.606C55.3145 115.113 55.0885 116.281 54.674 117.11C54.2595 117.901 53.6943 118.504 52.903 118.919C52.7523 118.693 52.6016 118.504 52.4132 118.354C53.6566 117.751 54.3349 116.696 54.5609 115.151C54.5609 115.113 54.5609 115.113 54.5609 115.075C54.0711 115.49 53.5436 115.942 53.0161 116.357L52.6393 115.641C52.9407 115.452 53.6189 114.962 54.6363 114.246C54.5609 114.096 54.5986 113.87 54.5986 113.606ZM54.4479 112.965L53.845 113.267C53.6566 112.551 53.3552 111.835 52.903 111.081L53.4682 110.855C53.9581 111.684 54.2595 112.4 54.4479 112.965ZM57.3493 118.052H58.2159C58.329 118.052 58.4043 117.939 58.442 117.675C58.4797 117.487 58.4797 117.185 58.4797 116.771C58.7058 116.922 58.9318 117.035 59.1579 117.072C59.1202 117.901 58.9695 118.391 58.7811 118.58C58.6681 118.693 58.4797 118.73 58.2536 118.73H57.2362C56.8218 118.73 56.558 118.617 56.445 118.391C56.3696 118.203 56.2942 117.939 56.2942 117.562V109.273H57.0102V114.284L57.3116 114.02C58.1406 114.774 58.7434 115.339 59.1202 115.829L58.6304 116.319C58.2159 115.791 57.6884 115.226 57.0102 114.623V117.638C57.0102 117.901 57.0478 118.052 57.1232 118.09C57.1986 118.014 57.2739 118.052 57.3493 118.052ZM58.2536 110.742L58.9695 111.044C58.4043 112.136 57.9898 112.852 57.7261 113.229L57.1609 112.965C57.613 112.249 57.9898 111.533 58.2536 110.742Z" fill="#1F1E1D"/>
<path d="M62.0593 109.725H70.8011V118.881H70.0098V118.429H62.7752V118.881H62.0216V109.725H62.0593ZM62.8129 117.751H70.0475V110.441H62.8129V117.751ZM68.9171 114.962L69.4069 115.264C69.0678 115.565 68.6156 115.867 68.0881 116.168C68.6156 116.469 69.1808 116.695 69.746 116.846C69.5953 116.959 69.4446 117.148 69.3316 117.374C68.3519 117.072 67.4852 116.582 66.7693 115.904C66.7316 115.866 66.6563 115.791 66.6186 115.753V117.487H65.9027V115.904C65.1867 116.394 64.4331 116.809 63.5665 117.11C63.4535 116.959 63.3027 116.771 63.1143 116.582C64.2447 116.206 65.1867 115.753 65.9027 115.188H63.981V113.417H68.8794V114.962H68.9171ZM69.52 112.362V112.852H63.3404V112.362H66.0534V111.684H63.9433V111.194H66.0534V110.591H66.7693V111.194H68.9924V111.684H66.7693V112.362H69.52ZM64.6592 113.832V114.661H68.2012V113.832H64.6592ZM68.6533 115.151H66.8447C67.0707 115.414 67.3345 115.64 67.6736 115.867C68.0504 115.603 68.3896 115.339 68.6533 115.151Z" fill="#1F1E1D"/>
<path d="M81.9921 115.415L82.6704 115.678C82.3689 116.319 81.9544 116.884 81.4646 117.374C81.766 117.939 82.1428 118.241 82.5196 118.241C82.708 118.241 82.8211 118.127 82.8964 117.864C82.9341 117.675 82.9718 117.412 83.0095 117.035C83.1225 117.148 83.3109 117.261 83.537 117.374C83.4617 118.09 83.3109 118.542 83.0848 118.73C82.9341 118.843 82.7457 118.881 82.482 118.881C81.8791 118.881 81.3516 118.504 80.9371 117.788C80.3719 118.203 79.769 118.58 79.0907 118.843C78.9023 118.617 78.7893 118.467 78.6763 118.354C79.4676 118.052 80.1081 117.638 80.6356 117.185C80.4096 116.62 80.2212 115.98 80.1081 115.226H78.4879C78.4879 115.264 78.4502 115.452 78.4125 115.829C79.0907 116.243 79.5806 116.583 79.882 116.846L79.4299 117.374C79.1661 117.11 78.7516 116.809 78.2995 116.47C78.0357 117.562 77.5835 118.316 76.9053 118.806C76.7546 118.58 76.6039 118.391 76.4155 118.278C77.1314 117.788 77.5835 116.884 77.7343 115.565C77.7343 115.452 77.7719 115.301 77.7719 115.188H77.0183V114.586L76.7169 115.038C76.6039 114.699 76.3401 114.209 75.9633 113.53V118.806H75.2097V113.945C74.8329 115.226 74.4561 116.168 74.0416 116.809C73.9286 116.62 73.8155 116.394 73.6648 116.168C74.1546 115.452 74.5691 114.397 74.9459 113.003C75.0213 112.739 75.0966 112.438 75.1343 112.174H73.8909V111.458H75.2097V109.197H75.9256V111.458H77.056V112.174H75.9256V112.664C76.2647 113.116 76.6415 113.681 77.0183 114.359C77.056 114.397 77.0937 114.472 77.0937 114.51L77.056 114.586H79.9951C79.769 113.191 79.6559 111.42 79.6559 109.235H80.3719C80.3342 111.307 80.4472 113.078 80.6733 114.586H82.1052C81.766 114.322 81.4646 114.096 81.2008 113.983L81.5776 113.606C82.0675 113.87 82.4443 114.096 82.708 114.359L82.482 114.586H83.3486V115.226H80.7864C80.8994 115.754 81.0124 116.243 81.1632 116.696C81.5023 116.281 81.8037 115.867 81.9921 115.415ZM76.9053 113.191L77.2821 113.154C77.4705 112.928 77.6966 112.588 77.998 112.136C77.6966 111.759 77.3198 111.42 76.8676 111.044L77.2067 110.629C77.2444 110.667 77.2821 110.667 77.3198 110.742C77.3575 110.78 77.4328 110.817 77.4328 110.817C77.6966 110.328 77.9227 109.8 78.0734 109.348L78.6763 109.612C78.1487 110.591 77.885 111.119 77.8096 111.194C77.998 111.383 78.1487 111.533 78.2618 111.646C78.5632 111.157 78.7893 110.742 78.94 110.403L79.5052 110.667C78.9023 111.684 78.3748 112.513 77.9227 113.116L78.94 113.041C78.8647 112.815 78.7516 112.588 78.6386 112.362L79.1284 112.174C79.4299 112.701 79.6183 113.229 79.7313 113.681L79.2038 113.907C79.1661 113.719 79.1284 113.606 79.1284 113.53C78.6763 113.568 77.9603 113.644 76.9807 113.719L76.9053 113.191ZM80.5226 113.116L80.8617 113.078C81.1632 112.664 81.3892 112.362 81.5023 112.136C81.2385 111.797 80.8617 111.42 80.3719 111.081L80.711 110.667C80.7487 110.704 80.7487 110.704 80.824 110.742C80.8994 110.78 80.9371 110.817 80.9748 110.855C81.2385 110.328 81.4646 109.8 81.6153 109.386L82.2182 109.649C81.8791 110.29 81.6153 110.817 81.3516 111.194C81.6153 111.458 81.766 111.609 81.8037 111.684C82.1052 111.194 82.3312 110.78 82.482 110.441L83.0472 110.704C82.482 111.684 81.9544 112.475 81.54 113.078L82.6704 113.003C82.5573 112.739 82.4443 112.551 82.3689 112.4L82.8588 112.212C83.1979 112.815 83.424 113.304 83.4993 113.719L83.0095 113.983C82.9718 113.832 82.9341 113.681 82.8964 113.568C82.5573 113.606 82.1052 113.643 81.5023 113.681C81.1255 113.719 80.8617 113.757 80.711 113.757L80.5226 113.116Z" fill="#1F1E1D"/>
<path d="M89.0383 114.736L89.2267 115.452C88.3601 115.867 87.3427 116.394 86.1369 116.959L85.8355 116.206C86.25 116.017 86.7398 115.829 87.2674 115.565V112.249H86.0239V111.496H87.2674V109.31H87.9833V111.496H89.1137V112.249H87.9833V115.226L89.0383 114.736ZM95.5193 114.246H91.1861C91.0731 114.472 90.9223 114.736 90.7339 115H95.2556C95.2556 115 95.2556 115.113 95.2179 115.301C95.1048 117.035 94.9164 118.09 94.728 118.429C94.6904 118.504 94.6527 118.542 94.615 118.58C94.4643 118.73 94.2759 118.806 94.0121 118.843C93.7107 118.843 93.3715 118.843 92.9571 118.843C92.9571 118.58 92.8817 118.391 92.7687 118.203C93.1078 118.241 93.4092 118.241 93.673 118.241C93.8237 118.241 93.9367 118.203 93.9744 118.127C94.1628 117.901 94.3136 117.072 94.4643 115.603H93.6353C93.2962 116.658 92.7687 117.562 92.1281 118.316C91.902 118.542 91.7136 118.768 91.4875 118.919C91.3745 118.768 91.1861 118.617 90.9223 118.467C91.6006 118.014 92.1658 117.299 92.6556 116.281C92.7687 116.055 92.8817 115.829 92.9571 115.603H91.9397C91.5252 116.432 90.9223 117.185 90.1311 117.864C89.8673 118.09 89.6035 118.278 89.3774 118.429C89.2644 118.241 89.076 118.09 88.8499 117.939C89.5282 117.562 90.2064 116.959 90.8093 116.168C90.96 115.98 91.1107 115.754 91.2238 115.565H90.1687C89.7543 116.055 89.3021 116.432 88.8122 116.771C88.6615 116.583 88.4731 116.432 88.2847 116.281C89.1514 115.754 89.8296 115.075 90.3571 114.171C90.3571 114.171 90.3571 114.171 90.3571 114.133H88.8876V113.455H95.4816V114.246H95.5193ZM94.7657 109.574V112.965H89.9427V109.574H94.7657ZM94.0121 111.006V110.177H90.6209V111.006H94.0121ZM94.0121 112.4V111.571H90.6209V112.4H94.0121Z" fill="#1F1E1D"/>
<path d="M101.435 114.472H100.644V113.116H102.038V114.209C102.038 114.962 101.737 115.49 101.134 115.867C101.021 115.942 100.945 115.98 100.945 115.98L100.682 115.565C101.171 115.301 101.435 114.962 101.435 114.472Z" fill="#1F1E1D"/>
<path d="M115.113 114.548H115.904V118.881H115.113V118.24H108.519V118.919H107.728V114.585H108.519V117.525H111.345V113.907H108.142V110.29H108.933V113.154H111.345V109.348H112.136V113.154H114.661V110.29H115.452V113.907H112.136V117.525H115.113V114.548Z" fill="#1F1E1D"/>
<path d="M119.371 109.725H128.113V118.919H127.321V118.429H120.087V118.919H119.333V109.725H119.371ZM120.124 117.713H127.359V110.441H120.124V117.713ZM123.779 115.565L123.817 116.13C123.516 116.168 123.101 116.281 122.536 116.394C121.707 116.545 121.104 116.658 120.765 116.733L120.652 116.13C120.991 116.093 121.556 115.98 122.423 115.829C122.988 115.716 123.44 115.64 123.779 115.565ZM125.777 112.927L126.417 113.078C126.153 114.058 125.776 114.887 125.249 115.64C125.513 116.243 125.777 116.582 126.116 116.62C126.266 116.658 126.379 116.281 126.455 115.527C126.605 115.678 126.794 115.791 126.945 115.867C126.794 116.959 126.455 117.411 125.89 117.223C125.475 117.11 125.098 116.771 124.797 116.206C124.382 116.658 123.93 117.072 123.403 117.411C123.252 117.223 123.101 117.072 122.95 116.922C123.553 116.545 124.119 116.093 124.533 115.527C124.269 114.774 124.081 113.756 123.93 112.4H120.69V111.797H123.855C123.817 111.307 123.779 110.93 123.779 110.667H124.458C124.458 110.93 124.495 111.307 124.533 111.797H126.832V112.4H124.571C124.646 113.342 124.797 114.133 124.948 114.849C125.324 114.284 125.588 113.643 125.777 112.927ZM121.104 113.116H123.44V115.151H121.104V113.116ZM122.837 114.661V113.606H121.632V114.661H122.837ZM126.568 111.307L126.191 111.722C125.927 111.458 125.55 111.194 125.098 111.006C125.061 111.006 125.061 111.006 125.061 110.968L125.437 110.591C125.927 110.817 126.304 111.081 126.568 111.307Z" fill="#1F1E1D"/>
<path d="M133.463 112.664C134.255 113.304 135.008 114.058 135.724 114.887C135.762 114.925 135.799 114.962 135.799 115L135.084 115.603C134.33 114.699 133.539 113.907 132.747 113.267L133.463 112.664Z" fill="#1F1E1D"/>
<path d="M5.6897 133.313H10.0229V134.104H0.602875V133.313H4.86074V127.246H1.16808V126.455H9.49541V127.246H5.6897V133.313Z" fill="#1F1E1D"/>
<path d="M12.8866 125.324L13.6402 125.588C13.3765 126.266 13.0374 127.02 12.5475 127.849V134.933H11.7562V129.055C11.4171 129.507 11.078 129.959 10.7012 130.298C10.5881 129.997 10.4374 129.771 10.2867 129.544C10.2867 129.544 10.249 129.544 10.249 129.507C11.1533 128.64 11.907 127.51 12.5098 126.115C12.6982 125.852 12.7736 125.588 12.8866 125.324ZM19.9705 127.773H16.73V129.281H19.7444V129.997H16.73V131.579H19.8952V132.333H16.73V134.895H15.9387V127.773H15.2228C14.733 128.64 14.2431 129.394 13.7156 129.959C13.5272 129.771 13.3388 129.582 13.1127 129.431C13.9417 128.565 14.6576 127.434 15.2228 126.002C15.2982 125.776 15.3735 125.588 15.4489 125.362L16.2025 125.55C16.0895 125.889 15.9011 126.379 15.6373 126.982H20.0082V127.773H19.9705Z" fill="#1F1E1D"/>
<path d="M25.8863 130.487H25.095V129.13H26.4892V130.223C26.4892 130.976 26.1877 131.504 25.5848 131.881C25.4718 131.956 25.3964 131.994 25.3964 131.994L25.1327 131.579C25.6225 131.316 25.8863 130.976 25.8863 130.487Z" fill="#1F1E1D"/>
<path d="M31.463 129.582H41.0337V130.449H31.463V129.582Z" fill="#1F1E1D"/>
<path d="M44.3873 130.562L44.6134 131.24C43.596 131.994 42.654 132.634 41.7873 133.237L41.3729 132.483C42.0888 132.069 43.1062 131.428 44.3873 130.562ZM44.3496 127.02V127.773H41.5989V127.02H44.3496ZM47.7785 127.924V129.243C47.7785 129.921 47.9292 130.637 48.306 131.428C48.9089 132.71 49.8509 133.614 51.132 134.179C50.9436 134.443 50.7552 134.669 50.6422 134.895C49.4741 134.367 48.6075 133.501 47.9669 132.295C47.6655 131.73 47.4771 131.202 47.4017 130.713C47.2887 131.428 46.9495 132.144 46.3843 132.86C45.7061 133.765 44.8018 134.443 43.7467 134.895C43.596 134.631 43.4453 134.405 43.2569 134.254C44.8394 133.614 45.9322 132.596 46.5727 131.202C46.8742 130.524 47.0249 129.884 47.0249 129.281V127.962H45.7438C45.4046 128.828 44.9902 129.544 44.5757 130.11C44.3873 129.959 44.1235 129.808 43.8221 129.657C44.651 128.715 45.2539 127.321 45.6684 125.55C45.7061 125.475 45.7061 125.4 45.7061 125.324L46.5351 125.475C46.422 126.002 46.2336 126.605 46.0452 127.171H50.3031L50.4538 127.133L51.019 127.434C50.7552 128.376 50.3408 129.318 49.8509 130.223C49.8132 130.185 49.7002 130.147 49.5872 130.072C49.3987 129.959 49.2857 129.921 49.2103 129.884C49.5495 129.281 49.8132 128.64 50.0016 127.924H47.7785Z" fill="#1F1E1D"/>
<path d="M55.2769 133.426L57.613 133.124L57.6507 133.84C56.6333 133.991 54.8247 134.255 52.2248 134.631L52.1117 133.84C52.5639 133.802 53.3929 133.689 54.5609 133.539V131.692H52.5262V130.976H54.5609V129.733H55.3145V130.976H57.3116V131.692H55.3145V133.426H55.2769ZM55.5029 127.547L56.0681 127.208C56.8971 128.188 57.4623 128.942 57.7261 129.582L57.1232 129.959C57.0102 129.771 56.8971 129.545 56.7464 129.281C56.3319 129.318 54.8247 129.394 52.1871 129.545L52.1117 128.791L53.0537 128.753C53.3552 128.113 53.6189 127.397 53.845 126.643H52.1117V125.927H57.5V126.643H54.7117C54.2972 127.736 53.9957 128.414 53.845 128.716C55.2015 128.678 55.9928 128.64 56.2942 128.603C56.0681 128.226 55.7667 127.849 55.5029 127.547ZM58.7811 126.53V132.333H58.0275V126.53H58.7811ZM60.5144 125.588H61.268V133.878C61.268 134.33 61.155 134.631 60.9289 134.744C60.8912 134.782 60.8535 134.782 60.8158 134.82C60.5521 134.895 59.9492 134.97 59.0072 134.97C58.9695 134.707 58.8565 134.443 58.7434 134.142C59.0826 134.142 59.5724 134.179 60.2883 134.179C60.439 134.104 60.5144 134.028 60.5521 133.915V125.588H60.5144Z" fill="#1F1E1D"/>
<path d="M65.0737 125.287L65.7896 125.513C65.4882 126.229 65.1491 126.945 64.7346 127.66V134.82H63.981V128.791C63.5665 129.356 63.152 129.808 62.8129 130.147C62.6998 129.884 62.5491 129.62 62.3607 129.356C63.265 128.489 64.0563 127.434 64.6969 126.078C64.8476 125.889 64.9607 125.588 65.0737 125.287ZM69.746 133.689H72.2706V134.443H65.3375V133.689H68.9924C69.4823 132.408 69.8968 130.863 70.2359 129.092C70.2736 128.942 70.2736 128.829 70.3112 128.716L71.1402 128.866C70.6881 130.75 70.2359 132.371 69.746 133.689ZM65.6012 127.359H68.3142V125.4H69.1055V127.359H71.9692V128.075H65.5635V127.359H65.6012ZM68.0504 133.011L67.2968 133.162C67.2215 132.069 66.9954 130.788 66.6186 129.281C66.5809 129.13 66.5432 129.017 66.5055 128.866L67.1838 128.753C67.5983 130.185 67.862 131.504 68.0127 132.747C68.0127 132.86 68.0128 132.936 68.0504 133.011Z" fill="#1F1E1D"/>
<path d="M75.5488 131.541L75.2851 127.434L75.2474 126.191H76.4908L76.4531 127.434L76.1894 131.541H75.5488ZM75.3227 132.747H76.5285V133.953H75.3227V132.747Z" fill="#1F1E1D"/>
<path d="M0 58.2913H134.33" stroke="#B18053" stroke-width="2.1898" stroke-miterlimit="10"/>
</svg>
